G04 DesignSpark PCB Gerber Version 12.0 Build 5942*
%FSLAX35Y35*%
%MOIN*%
%ADD285R,0.02000X0.05100*%
%ADD152R,0.06600X0.06600*%
%ADD164R,0.07500X0.07500*%
%ADD170C,0.05391*%
%ADD172C,0.05781*%
%ADD158C,0.06293*%
%ADD139C,0.06506*%
%ADD159C,0.06702*%
%ADD161C,0.06899*%
%ADD165C,0.07500*%
%ADD153C,0.09458*%
%ADD160C,0.09872*%
%ADD166C,0.10537*%
%ADD289R,0.05128X0.02962*%
%ADD284R,0.05718X0.03159*%
%ADD288R,0.06899X0.03159*%
%ADD287R,0.09025X0.03159*%
%ADD290R,0.06506X0.05167*%
%ADD286R,0.07687X0.05915*%
%ADD125C,0.15757*%
%AMT157*0 Rounded Rectangle Pad at angle 0*4,1,92,-0.04061,-0.10143,0.04061,-0.10143,0.04494,-0.10127,0.04926,-0.10081,0.05353,-0.10004,0.05774,-0.09896,0.06185,-0.09759,0.06587,-0.09593,0.06975,-0.09399,0.07348,-0.09178,0.07705,-0.08930,0.08043,-0.08657,0.08361,-0.08362,0.08656,-0.08044,0.08929,-0.07706,0.09176,-0.07350,0.09398,-0.06977,0.09593,-0.06589,0.09759,-0.06187,0.09896,-0.05776,0.10003,-0.05355,0.10080,-0.04928,0.10127,-0.04496,0.10143,-0.04061,0.10143,0.04061,0.10127,0.04494,0.10081,0.04926,0.10004,0.05353,0.09896,0.05774,0.09759,0.06185,0.09593,0.06587,0.09399,0.06975,0.09178,0.07348,0.08930,0.07705,0.08657,0.08043,0.08362,0.08361,0.08044,0.08656,0.07706,0.08929,0.07350,0.09176,0.06977,0.09398,0.06589,0.09593,0.06187,0.09759,0.05776,0.09896,0.05355,0.10003,0.04928,0.10080,0.04496,0.10127,0.04061,0.10143,-0.04061,0.10143,-0.04494,0.10127,-0.04926,0.10081,-0.05353,0.10004,-0.05774,0.09896,-0.06185,0.09759,-0.06587,0.09593,-0.06975,0.09399,-0.07348,0.09178,-0.07705,0.08930,-0.08043,0.08657,-0.08361,0.08362,-0.08656,0.08044,-0.08929,0.07706,-0.09176,0.07350,-0.09398,0.06977,-0.09593,0.06589,-0.09759,0.06187,-0.09896,0.05776,-0.10003,0.05355,-0.10080,0.04928,-0.10127,0.04496,-0.10143,0.04061,-0.10143,-0.04061,-0.10127,-0.04494,-0.10081,-0.04926,-0.10004,-0.05353,-0.09896,-0.05774,-0.09759,-0.06185,-0.09593,-0.06587,-0.09399,-0.06975,-0.09178,-0.07348,-0.08930,-0.07705,-0.08657,-0.08043,-0.08362,-0.08361,-0.08044,-0.08656,-0.07706,-0.08929,-0.07350,-0.09176,-0.06977,-0.09398,-0.06589,-0.09593,-0.06187,-0.09759,-0.05776,-0.09896,-0.05355,-0.10003,-0.04928,-0.10080,-0.04496,-0.10127,-0.04061,-0.10143,0*%
%ADD157T157*%
X0Y0D02*
D02*
D125*
X201770Y331470D03*
X311136D03*
D02*
D139*
X455093Y293281D03*
Y318872D03*
X472809Y293281D03*
Y318872D03*
D02*
D152*
X42179Y139463D03*
X98498Y188715D03*
X221451Y331726D03*
X231451D03*
X241451D03*
X251451D03*
X261451D03*
X271451D03*
X281451D03*
X291451D03*
X404423Y103911D03*
X427848Y322219D03*
Y332219D03*
Y342219D03*
Y352219D03*
Y362219D03*
X462774Y349766D03*
Y359766D03*
X471549Y150565D03*
D02*
D153*
X346805Y38104D03*
X366805D03*
X376313Y203793D03*
Y223675D03*
D02*
D157*
X136411Y439541D03*
X136766Y66864D03*
X375998Y67396D03*
X376707Y439541D03*
D02*
D158*
X107737Y361359D03*
X111273Y350753D03*
X114809Y368431D03*
X118344Y357824D03*
X121880Y375502D03*
X125415Y364895D03*
X128951Y382573D03*
X132486Y371966D03*
D02*
D159*
X69849Y381710D03*
X76920Y388781D03*
X97994Y409855D03*
X105065Y416926D03*
D02*
D160*
X87666Y354985D03*
X131790Y399109D03*
D02*
D161*
X82989Y371966D03*
X114809Y403786D03*
D02*
D164*
X221943Y450644D03*
D02*
D165*
X162180Y449037D03*
X188280Y459582D03*
X221943Y460644D03*
X231943Y450644D03*
Y460644D03*
X241943Y450644D03*
Y460644D03*
X251943Y450644D03*
Y460644D03*
X261943Y450644D03*
Y460644D03*
X271943Y450644D03*
Y460644D03*
X281943Y450644D03*
Y460644D03*
X291943Y450644D03*
Y460644D03*
D02*
D166*
X36726Y232435D03*
X57356D03*
X345841Y16844D03*
X366470D03*
X410663Y228065D03*
X431293D03*
D02*
D170*
X146136Y16608D03*
X166136D03*
D02*
D172*
X25270Y210880D03*
X45152D03*
D02*
D284*
X339344Y92435D03*
X385014Y112061D03*
Y116396D03*
Y120726D03*
Y125057D03*
Y129388D03*
Y133719D03*
Y138049D03*
Y142380D03*
D02*
D285*
X338459Y146179D03*
X341057D03*
D02*
D286*
X393085Y145781D03*
D02*
D287*
X366982Y147163D03*
D02*
D288*
X346982D03*
D02*
D289*
X362671Y92337D03*
D02*
D290*
X394069Y93443D03*
X0Y0D02*
M02*
