G04 DesignSpark PCB Gerber Version 12.0 Build 5942*
%FSLAX35Y35*%
%MOMM*%
%ADD174C,0.07620*%
%ADD12C,0.10000*%
%ADD11C,0.12700*%
X0Y0D02*
D02*
D11*
X44723550Y50550860D02*
X44983550D01*
Y50380860D01*
X44723550D01*
Y50550860D01*
Y50720860D02*
X44983550D01*
Y50550860D01*
X44723550D01*
Y50720860D01*
X44983550Y50550860D02*
X45313550D01*
Y50380860D01*
X44983550D01*
Y50550860D01*
Y50720860D02*
X45313550D01*
Y50550860D01*
X44983550D01*
Y50720860D01*
X45313550Y50550860D02*
X45613550D01*
Y50380860D01*
X45313550D01*
Y50550860D01*
Y50720860D02*
X45613550D01*
Y50550860D01*
X45313550D01*
Y50720860D01*
X45613550Y50550860D02*
X45963550D01*
Y50380860D01*
X45613550D01*
Y50550860D01*
Y50720860D02*
X45963550D01*
Y50550860D01*
X45613550D01*
Y50720860D01*
X45963550Y50550860D02*
X46173550D01*
Y50380860D01*
X45963550D01*
Y50550860D01*
Y50720860D02*
X46173550D01*
Y50550860D01*
X45963550D01*
Y50720860D01*
X46173550Y50550860D02*
X46373550D01*
Y50380860D01*
X46173550D01*
Y50550860D01*
Y50720860D02*
X46373550D01*
Y50550860D01*
X46173550D01*
Y50720860D01*
X46373550Y50550860D02*
X46713550D01*
Y50380860D01*
X46373550D01*
Y50550860D01*
Y50720860D02*
X46713550D01*
Y50550860D01*
X46373550D01*
Y50720860D01*
X46713550Y50550860D02*
X47043550D01*
Y50380860D01*
X46713550D01*
Y50550860D01*
Y50720860D02*
X47043550D01*
Y50550860D01*
X46713550D01*
Y50720860D01*
X48648390Y42979160D02*
X48610890D01*
X48615570D02*
X48610890Y42974470D01*
Y42965100D01*
X48615570Y42960410D01*
X48629640D01*
X48615570D02*
X48610890Y42955720D01*
Y42946350D01*
X48615570Y42941660D01*
X48648390D01*
Y42885410D02*
X48610890D01*
X48596820D02*
X48615570Y42791660D02*
X48610890Y42801030D01*
Y42815100D01*
X48615570Y42824470D01*
X48624950Y42829160D01*
X48634320D01*
X48643700Y42824470D01*
X48648390Y42815100D01*
Y42801030D01*
X48643700Y42791660D01*
X48648390Y42754160D02*
X48610890D01*
X48624950D02*
X48615570Y42749470D01*
X48610890Y42740100D01*
Y42730720D01*
X48615570Y42721350D01*
X48634320Y42679160D02*
X48643700Y42674470D01*
X48648390Y42665100D01*
Y42655720D01*
X48643700Y42646350D01*
X48634320Y42641660D01*
X48624950D01*
X48615570Y42646350D01*
X48610890Y42655720D01*
Y42665100D01*
X48615570Y42674470D01*
X48624950Y42679160D01*
X48634320D01*
Y42604160D02*
X48643700Y42599470D01*
X48648390Y42590100D01*
Y42571350D01*
X48643700Y42561970D01*
X48634320Y42557280D01*
X48624950Y42561970D01*
X48620260Y42571350D01*
Y42590100D01*
X48615570Y42599470D01*
X48606200Y42604160D01*
X48596820Y42599470D01*
X48592140Y42590100D01*
Y42571350D01*
X48596820Y42561970D01*
X48606200Y42557280D01*
X48648390Y42529160D02*
X48592140D01*
Y42501030D01*
X48596820Y42491660D01*
X48601510Y42486970D01*
X48610890Y42482280D01*
X48629640D01*
X48639010Y42486970D01*
X48643700Y42491660D01*
X48648390Y42501030D01*
Y42529160D01*
D02*
D12*
X47891950Y41964560D02*
Y43154560D01*
X48031950Y41887760D02*
X48421950D01*
X48241950Y43280360D02*
X48491950Y43282060D01*
X48621950Y41887760D02*
X49196950Y41887060D01*
X48781950Y43282060D02*
X49161950D01*
X49096950Y41824560D02*
G75*
G02*
Y41834560I0J5000D01*
G01*
Y41824560D02*
G75*
G03*
Y41834560I0J5000D01*
G01*
X49351950Y43134560D02*
Y42024560D01*
D02*
D174*
X40159950Y45749160D02*
X40172450Y45755410D01*
X40191200D01*
X40203700Y45749160D01*
X40209950Y45736660D01*
Y45730410D01*
X40203700Y45717910D01*
X40191200Y45711660D01*
X40159950D01*
Y45680410D01*
X40209950D01*
X40259950D02*
X40291200Y45755410D01*
X40322450Y45680410D01*
X40666200Y45749160D02*
X40678700Y45755410D01*
X40691200D01*
X40703700Y45749160D01*
X40709950Y45736660D01*
Y45699160D01*
X40703700Y45686660D01*
X40691200Y45680410D01*
X40678700D01*
X40666200Y45686660D01*
X40659950Y45699160D01*
Y45736660D01*
X40666200Y45749160D01*
X40703700Y45686660D01*
X40759950Y45680410D02*
X40791200Y45755410D01*
X40822450Y45680410D01*
X43500000Y43332960D02*
X43506250Y43326710D01*
X43512500Y43314210D01*
X43506250Y43301710D01*
X43500000Y43295460D01*
X43437500D01*
Y43282960D01*
Y43295460D02*
Y43320460D01*
Y43232960D02*
X43512500D01*
Y43170460D01*
X43500000Y43070460D02*
X43506250Y43076710D01*
X43512500Y43089210D01*
Y43107960D01*
X43506250Y43120460D01*
X43500000Y43126710D01*
X43487500Y43132960D01*
X43462500D01*
X43450000Y43126710D01*
X43443750Y43120460D01*
X43437500Y43107960D01*
Y43089210D01*
X43443750Y43076710D01*
X43450000Y43070460D01*
X43500000Y43032960D02*
X43506250Y43026710D01*
X43512500Y43014210D01*
X43506250Y43001710D01*
X43500000Y42995460D01*
X43437500D01*
Y42982960D01*
Y42995460D02*
Y43020460D01*
Y42932960D02*
X43512500D01*
Y42870460D01*
X43500000Y42770460D02*
X43506250Y42776710D01*
X43512500Y42789210D01*
Y42807960D01*
X43506250Y42820460D01*
X43500000Y42826710D01*
X43487500Y42832960D01*
X43462500D01*
X43450000Y42826710D01*
X43443750Y42820460D01*
X43437500Y42807960D01*
Y42789210D01*
X43443750Y42776710D01*
X43450000Y42770460D01*
X43500000Y42732960D02*
X43506250Y42726710D01*
X43512500Y42714210D01*
X43506250Y42701710D01*
X43500000Y42695460D01*
X43437500D01*
Y42682960D01*
Y42695460D02*
Y42720460D01*
Y42632960D02*
X43512500D01*
Y42570460D01*
X43500000Y42470460D02*
X43506250Y42476710D01*
X43512500Y42489210D01*
Y42507960D01*
X43506250Y42520460D01*
X43500000Y42526710D01*
X43487500Y42532960D01*
X43462500D01*
X43450000Y42526710D01*
X43443750Y42520460D01*
X43437500Y42507960D01*
Y42489210D01*
X43443750Y42476710D01*
X43450000Y42470460D01*
X43667300Y43936960D02*
X43592300D01*
X43629800Y43905710D01*
X43592300Y43874460D01*
X43667300D01*
Y43811960D02*
X43617300D01*
X43598550D02*
X43636050Y43686960D02*
X43623550Y43693210D01*
X43617300Y43705710D01*
Y43718210D01*
X43623550Y43730710D01*
X43636050Y43736960D01*
X43648550D01*
X43661050Y43730710D01*
X43667300Y43718210D01*
Y43705710D01*
X43661050Y43693210D01*
X43648550Y43686960D01*
X43667300D02*
X43592300D01*
X43667300Y43605710D02*
Y43611960D01*
X43592300D01*
X43623550Y43536960D02*
X43617300Y43524460D01*
Y43505710D01*
X43623550Y43493210D01*
X43636050Y43486960D01*
X43654800D01*
X43661050Y43493210D01*
X43667300Y43505710D01*
Y43518210D01*
X43661050Y43530710D01*
X43654800Y43536960D01*
X43648550D01*
X43642300Y43530710D01*
X43636050Y43518210D01*
Y43505710D01*
X43642300Y43493210D01*
X43648550Y43486960D01*
X43654800D02*
X43667300D01*
Y43436960D02*
X43617300D01*
X43636050D02*
X43623550Y43430710D01*
X43617300Y43418210D01*
Y43405710D01*
X43623550Y43393210D01*
X43636050Y43386960D01*
X43667300D01*
X43636050Y43286960D02*
X43623550Y43293210D01*
X43617300Y43305710D01*
Y43318210D01*
X43623550Y43330710D01*
X43636050Y43336960D01*
X43648550D01*
X43661050Y43330710D01*
X43667300Y43318210D01*
Y43305710D01*
X43661050Y43293210D01*
X43648550Y43286960D01*
X43667300D02*
X43592300D01*
X43661050Y43236960D02*
X43667300Y43224460D01*
Y43199460D01*
X43661050Y43186960D01*
X43648550D01*
X43642300Y43199460D01*
Y43224460D01*
X43636050Y43236960D01*
X43623550D01*
X43617300Y43224460D01*
Y43199460D01*
X43623550Y43186960D01*
X43667300Y43036960D02*
X43592300D01*
Y42974460D01*
X43629800Y42986960D02*
Y43036960D01*
X43667300D02*
Y42974460D01*
Y42905710D02*
Y42911960D01*
X43592300D01*
X43661050Y42786960D02*
X43667300Y42793210D01*
Y42805710D01*
Y42818210D01*
X43661050Y42830710D01*
X43648550Y42836960D01*
X43629800D01*
X43623550Y42830710D01*
X43617300Y42818210D01*
Y42805710D01*
X43623550Y42793210D01*
X43629800Y42786960D01*
X43636050D01*
X43642300Y42793210D01*
X43648550Y42805710D01*
Y42818210D01*
X43642300Y42830710D01*
X43636050Y42836960D01*
X43623550Y42686960D02*
X43617300Y42699460D01*
Y42718210D01*
X43623550Y42730710D01*
X43636050Y42736960D01*
X43648550D01*
X43661050Y42730710D01*
X43667300Y42718210D01*
Y42699460D01*
X43661050Y42686960D01*
X43617300Y42626540D02*
Y42597380D01*
X43604800Y42611960D02*
X43661050D01*
X43667300Y42605710D01*
Y42599460D01*
X43661050Y42593210D01*
X43667300Y42536960D02*
X43617300D01*
X43636050D02*
X43623550Y42530710D01*
X43617300Y42518210D01*
Y42505710D01*
X43623550Y42493210D01*
X43648550Y42436960D02*
X43661050Y42430710D01*
X43667300Y42418210D01*
Y42405710D01*
X43661050Y42393210D01*
X43648550Y42386960D01*
X43636050D01*
X43623550Y42393210D01*
X43617300Y42405710D01*
Y42418210D01*
X43623550Y42430710D01*
X43636050Y42436960D01*
X43648550D01*
X43667300Y42336960D02*
X43617300D01*
X43636050D02*
X43623550Y42330710D01*
X43617300Y42318210D01*
Y42305710D01*
X43623550Y42293210D01*
X43636050Y42286960D01*
X43667300D01*
Y42211960D02*
X43617300D01*
X43598550D02*
X43623550Y42086960D02*
X43617300Y42099460D01*
Y42118210D01*
X43623550Y42130710D01*
X43636050Y42136960D01*
X43648550D01*
X43661050Y42130710D01*
X43667300Y42118210D01*
Y42099460D01*
X43661050Y42086960D01*
X43648550Y41936960D02*
X43661050Y41930710D01*
X43667300Y41918210D01*
Y41893210D01*
X43661050Y41880710D01*
X43648550Y41874460D01*
X43636050Y41880710D01*
X43629800Y41893210D01*
Y41918210D01*
X43623550Y41930710D01*
X43611050Y41936960D01*
X43598550Y41930710D01*
X43592300Y41918210D01*
Y41893210D01*
X43598550Y41880710D01*
X43611050Y41874460D01*
X43648550Y41836960D02*
X43661050Y41830710D01*
X43667300Y41818210D01*
Y41805710D01*
X43661050Y41793210D01*
X43648550Y41786960D01*
X43636050D01*
X43623550Y41793210D01*
X43617300Y41805710D01*
Y41818210D01*
X43623550Y41830710D01*
X43636050Y41836960D01*
X43648550D01*
X43667300Y41705710D02*
Y41711960D01*
X43592300D01*
X43617300Y41636960D02*
X43648550D01*
X43661050Y41630710D01*
X43667300Y41618210D01*
Y41605710D01*
X43661050Y41593210D01*
X43648550Y41586960D01*
X43617300D02*
X43667300D01*
X43617300Y41526540D02*
Y41497380D01*
X43604800Y41511960D02*
X43661050D01*
X43667300Y41505710D01*
Y41499460D01*
X43661050Y41493210D01*
X43667300Y41411960D02*
X43617300D01*
X43598550D02*
X43648550Y41336960D02*
X43661050Y41330710D01*
X43667300Y41318210D01*
Y41305710D01*
X43661050Y41293210D01*
X43648550Y41286960D01*
X43636050D01*
X43623550Y41293210D01*
X43617300Y41305710D01*
Y41318210D01*
X43623550Y41330710D01*
X43636050Y41336960D01*
X43648550D01*
X43667300Y41236960D02*
X43617300D01*
X43636050D02*
X43623550Y41230710D01*
X43617300Y41218210D01*
Y41205710D01*
X43623550Y41193210D01*
X43636050Y41186960D01*
X43667300D01*
X43661050Y41136960D02*
X43667300Y41124460D01*
Y41099460D01*
X43661050Y41086960D01*
X43648550D01*
X43642300Y41099460D01*
Y41124460D01*
X43636050Y41136960D01*
X43623550D01*
X43617300Y41124460D01*
Y41099460D01*
X43623550Y41086960D01*
X44874100Y50630860D02*
X44855350D01*
Y50624610D01*
X44861600Y50612110D01*
X44867850Y50605860D01*
X44880350Y50599610D01*
X44892850D01*
X44905350Y50605860D01*
X44911600Y50612110D01*
X44917850Y50624610D01*
Y50649610D01*
X44911600Y50662110D01*
X44905350Y50668360D01*
X44892850Y50674610D01*
X44880350D01*
X44867850Y50668360D01*
X44861600Y50662110D01*
X44855350Y50649610D01*
X44805350Y50599610D02*
X44780350D01*
X44792850D02*
Y50674610D01*
X44805350Y50662110D01*
X44919650Y50429310D02*
Y50504310D01*
X44875900D01*
X44863400Y50498060D01*
X44857150Y50485560D01*
X44863400Y50473060D01*
X44875900Y50466810D01*
X44919650D01*
X44875900D02*
X44857150Y50429310D01*
X44807150D02*
X44782150D01*
X44794650D02*
Y50504310D01*
X44807150Y50491810D01*
X44898700Y47771760D02*
X44954950D01*
X44967450Y47765510D01*
X44973700Y47753010D01*
Y47728010D01*
X44967450Y47715510D01*
X44954950Y47709260D01*
X44898700D01*
X44973700Y47659260D02*
Y47634260D01*
Y47646760D02*
X44898700D01*
X44911200Y47659260D01*
X44973700Y47540510D02*
X44898700D01*
Y47571760D02*
Y47509260D01*
X44973700Y47471760D02*
X44898700Y47409260D01*
Y47471760D02*
X44973700Y47409260D01*
X45149900Y50466810D02*
X45137400Y50460560D01*
X45131150Y50448060D01*
X45137400Y50435560D01*
X45149900Y50429310D01*
X45193650D01*
Y50504310D01*
X45149900D01*
X45137400Y50498060D01*
X45131150Y50485560D01*
X45137400Y50473060D01*
X45149900Y50466810D01*
X45193650D01*
X45081150Y50429310D02*
X45056150D01*
X45068650D02*
Y50504310D01*
X45081150Y50491810D01*
X45241200Y50630860D02*
X45222450D01*
Y50624610D01*
X45228700Y50612110D01*
X45234950Y50605860D01*
X45247450Y50599610D01*
X45259950D01*
X45272450Y50605860D01*
X45278700Y50612110D01*
X45284950Y50624610D01*
Y50649610D01*
X45278700Y50662110D01*
X45272450Y50668360D01*
X45259950Y50674610D01*
X45247450D01*
X45234950Y50668360D01*
X45228700Y50662110D01*
X45222450Y50649610D01*
X45184950Y50599610D02*
Y50674610D01*
X45122450Y50599610D01*
Y50674610D01*
X45084950Y50599610D02*
Y50674610D01*
X45047450D01*
X45034950Y50668360D01*
X45028700Y50662110D01*
X45022450Y50649610D01*
Y50624610D01*
X45028700Y50612110D01*
X45034950Y50605860D01*
X45047450Y50599610D01*
X45084950D01*
X45152700Y47771760D02*
X45208950D01*
X45221450Y47765510D01*
X45227700Y47753010D01*
Y47728010D01*
X45221450Y47715510D01*
X45208950Y47709260D01*
X45152700D01*
X45227700Y47659260D02*
Y47634260D01*
Y47646760D02*
X45152700D01*
X45165200Y47659260D01*
X45227700Y47571760D02*
X45152700D01*
Y47528010D01*
X45158950Y47515510D01*
X45171450Y47509260D01*
X45183950Y47515510D01*
X45190200Y47528010D01*
Y47571760D01*
Y47528010D02*
X45227700Y47509260D01*
Y47471760D02*
X45152700Y47409260D01*
Y47471760D02*
X45227700Y47409260D01*
X45510850Y50429310D02*
Y50504310D01*
X45467100D01*
X45454600Y50498060D01*
X45448350Y50485560D01*
X45454600Y50473060D01*
X45467100Y50466810D01*
X45510850D01*
X45467100D02*
X45448350Y50429310D01*
X45360850D02*
X45410850D01*
X45367100Y50473060D01*
X45360850Y50485560D01*
X45367100Y50498060D01*
X45379600Y50504310D01*
X45398350D01*
X45410850Y50498060D01*
X45477000Y50630860D02*
X45458250D01*
Y50624610D01*
X45464500Y50612110D01*
X45470750Y50605860D01*
X45483250Y50599610D01*
X45495750D01*
X45508250Y50605860D01*
X45514500Y50612110D01*
X45520750Y50624610D01*
Y50649610D01*
X45514500Y50662110D01*
X45508250Y50668360D01*
X45495750Y50674610D01*
X45483250D01*
X45470750Y50668360D01*
X45464500Y50662110D01*
X45458250Y50649610D01*
X45370750Y50599610D02*
X45420750D01*
X45377000Y50643360D01*
X45370750Y50655860D01*
X45377000Y50668360D01*
X45389500Y50674610D01*
X45408250D01*
X45420750Y50668360D01*
X45462950Y47771760D02*
X45475450Y47765510D01*
X45481700Y47753010D01*
Y47728010D01*
X45475450Y47715510D01*
X45462950Y47709260D01*
X45450450Y47715510D01*
X45444200Y47728010D01*
Y47753010D01*
X45437950Y47765510D01*
X45425450Y47771760D01*
X45412950Y47765510D01*
X45406700Y47753010D01*
Y47728010D01*
X45412950Y47715510D01*
X45425450Y47709260D01*
X45469200Y47609260D02*
X45475450Y47615510D01*
X45481700Y47628010D01*
Y47646760D01*
X45475450Y47659260D01*
X45469200Y47665510D01*
X45456700Y47671760D01*
X45431700D01*
X45419200Y47665510D01*
X45412950Y47659260D01*
X45406700Y47646760D01*
Y47628010D01*
X45412950Y47615510D01*
X45419200Y47609260D01*
X45406700Y47571760D02*
X45481700D01*
Y47509260D01*
X45475450Y47471760D02*
X45481700Y47459260D01*
Y47440510D01*
X45475450Y47428010D01*
X45462950Y47421760D01*
X45456700D01*
X45444200Y47428010D01*
X45437950Y47440510D01*
Y47471760D01*
X45406700D01*
Y47421760D01*
X45776400Y50466810D02*
X45763900Y50460560D01*
X45757650Y50448060D01*
X45763900Y50435560D01*
X45776400Y50429310D01*
X45820150D01*
Y50504310D01*
X45776400D01*
X45763900Y50498060D01*
X45757650Y50485560D01*
X45763900Y50473060D01*
X45776400Y50466810D01*
X45820150D01*
X45670150Y50429310D02*
X45720150D01*
X45676400Y50473060D01*
X45670150Y50485560D01*
X45676400Y50498060D01*
X45688900Y50504310D01*
X45707650D01*
X45720150Y50498060D01*
X45716950Y47771760D02*
X45729450Y47765510D01*
X45735700Y47753010D01*
Y47728010D01*
X45729450Y47715510D01*
X45716950Y47709260D01*
X45704450Y47715510D01*
X45698200Y47728010D01*
Y47753010D01*
X45691950Y47765510D01*
X45679450Y47771760D01*
X45666950Y47765510D01*
X45660700Y47753010D01*
Y47728010D01*
X45666950Y47715510D01*
X45679450Y47709260D01*
X45735700Y47671760D02*
X45660700D01*
Y47634260D01*
X45666950Y47621760D01*
X45673200Y47615510D01*
X45685700Y47609260D01*
X45710700D01*
X45723200Y47615510D01*
X45729450Y47621760D01*
X45735700Y47634260D01*
Y47671760D01*
Y47571760D02*
X45660700Y47540510D01*
X45735700Y47509260D01*
X45704450Y47559260D02*
Y47521760D01*
X45729450Y47471760D02*
X45735700Y47459260D01*
Y47440510D01*
X45729450Y47428010D01*
X45716950Y47421760D01*
X45710700D01*
X45698200Y47428010D01*
X45691950Y47440510D01*
Y47471760D01*
X45660700D01*
Y47421760D01*
X45875300Y50630860D02*
X45856550D01*
Y50624610D01*
X45862800Y50612110D01*
X45869050Y50605860D01*
X45881550Y50599610D01*
X45894050D01*
X45906550Y50605860D01*
X45912800Y50612110D01*
X45919050Y50624610D01*
Y50649610D01*
X45912800Y50662110D01*
X45906550Y50668360D01*
X45894050Y50674610D01*
X45881550D01*
X45869050Y50668360D01*
X45862800Y50662110D01*
X45856550Y50649610D01*
X45819050Y50599610D02*
Y50674610D01*
X45756550Y50599610D01*
Y50674610D01*
X45719050Y50599610D02*
Y50674610D01*
X45681550D01*
X45669050Y50668360D01*
X45662800Y50662110D01*
X45656550Y50649610D01*
Y50624610D01*
X45662800Y50612110D01*
X45669050Y50605860D01*
X45681550Y50599610D01*
X45719050D01*
X45970950Y47771760D02*
X45983450Y47765510D01*
X45989700Y47753010D01*
Y47728010D01*
X45983450Y47715510D01*
X45970950Y47709260D01*
X45958450Y47715510D01*
X45952200Y47728010D01*
Y47753010D01*
X45945950Y47765510D01*
X45933450Y47771760D01*
X45920950Y47765510D01*
X45914700Y47753010D01*
Y47728010D01*
X45920950Y47715510D01*
X45933450Y47709260D01*
X45977200Y47609260D02*
X45983450Y47615510D01*
X45989700Y47628010D01*
Y47646760D01*
X45983450Y47659260D01*
X45977200Y47665510D01*
X45964700Y47671760D01*
X45939700D01*
X45927200Y47665510D01*
X45920950Y47659260D01*
X45914700Y47646760D01*
Y47628010D01*
X45920950Y47615510D01*
X45927200Y47609260D01*
X45989700Y47571760D02*
X45914700D01*
X45952200D02*
Y47553010D01*
X45914700Y47509260D01*
X45952200Y47553010D02*
X45989700Y47509260D01*
Y47440510D02*
X45914700D01*
X45964700Y47471760D01*
Y47421760D01*
X46102850Y50429310D02*
X46071600Y50504310D01*
X46040350Y50429310D01*
X46090350Y50460560D02*
X46052850D01*
X46076900Y50637110D02*
X46064400Y50630860D01*
X46058150Y50618360D01*
X46064400Y50605860D01*
X46076900Y50599610D01*
X46120650D01*
Y50674610D01*
X46076900D01*
X46064400Y50668360D01*
X46058150Y50655860D01*
X46064400Y50643360D01*
X46076900Y50637110D01*
X46120650D01*
X46247950Y50441810D02*
X46254200Y50435560D01*
X46266700Y50429310D01*
X46285450D01*
X46297950Y50435560D01*
X46304200Y50441810D01*
X46310450Y50454310D01*
Y50479310D01*
X46304200Y50491810D01*
X46297950Y50498060D01*
X46285450Y50504310D01*
X46266700D01*
X46254200Y50498060D01*
X46247950Y50491810D01*
X46224950Y47771760D02*
X46237450Y47765510D01*
X46243700Y47753010D01*
Y47728010D01*
X46237450Y47715510D01*
X46224950Y47709260D01*
X46212450Y47715510D01*
X46206200Y47728010D01*
Y47753010D01*
X46199950Y47765510D01*
X46187450Y47771760D01*
X46174950Y47765510D01*
X46168700Y47753010D01*
Y47728010D01*
X46174950Y47715510D01*
X46187450Y47709260D01*
X46243700Y47671760D02*
X46168700D01*
Y47634260D01*
X46174950Y47621760D01*
X46181200Y47615510D01*
X46193700Y47609260D01*
X46218700D01*
X46231200Y47615510D01*
X46237450Y47621760D01*
X46243700Y47634260D01*
Y47671760D01*
X46218700Y47571760D02*
X46193700D01*
X46181200Y47565510D01*
X46174950Y47559260D01*
X46168700Y47546760D01*
Y47534260D01*
X46174950Y47521760D01*
X46181200Y47515510D01*
X46193700Y47509260D01*
X46218700D01*
X46231200Y47515510D01*
X46237450Y47521760D01*
X46243700Y47534260D01*
Y47546760D01*
X46237450Y47559260D01*
X46231200Y47565510D01*
X46218700Y47571760D01*
X46243700Y47440510D02*
X46168700D01*
X46218700Y47471760D01*
Y47421760D01*
X46328250Y50599610D02*
Y50674610D01*
X46290750D01*
X46278250Y50668360D01*
X46272000Y50662110D01*
X46265750Y50649610D01*
Y50624610D01*
X46272000Y50612110D01*
X46278250Y50605860D01*
X46290750Y50599610D01*
X46328250D01*
X46661150Y50674610D02*
Y50599610D01*
X46598650D01*
X46561150D02*
X46529900Y50674610D01*
X46498650Y50599610D01*
X46548650Y50630860D02*
X46511150D01*
X46429900Y50599610D02*
Y50674610D01*
X46461150D02*
X46398650D01*
X46602450Y50441810D02*
X46608700Y50435560D01*
X46621200Y50429310D01*
X46639950D01*
X46652450Y50435560D01*
X46658700Y50441810D01*
X46664950Y50454310D01*
Y50479310D01*
X46658700Y50491810D01*
X46652450Y50498060D01*
X46639950Y50504310D01*
X46621200D01*
X46608700Y50498060D01*
X46602450Y50491810D01*
X46564950Y50504310D02*
Y50429310D01*
X46502450D01*
X46464950D02*
Y50504310D01*
Y50466810D02*
X46446200D01*
X46402450Y50504310D01*
X46446200Y50466810D02*
X46402450Y50429310D01*
X46478950Y47771760D02*
X46491450Y47765510D01*
X46497700Y47753010D01*
Y47728010D01*
X46491450Y47715510D01*
X46478950Y47709260D01*
X46466450Y47715510D01*
X46460200Y47728010D01*
Y47753010D01*
X46453950Y47765510D01*
X46441450Y47771760D01*
X46428950Y47765510D01*
X46422700Y47753010D01*
Y47728010D01*
X46428950Y47715510D01*
X46441450Y47709260D01*
X46497700Y47671760D02*
X46422700D01*
Y47634260D01*
X46428950Y47621760D01*
X46435200Y47615510D01*
X46447700Y47609260D01*
X46472700D01*
X46485200Y47615510D01*
X46491450Y47621760D01*
X46497700Y47634260D01*
Y47671760D01*
Y47553010D02*
Y47528010D01*
Y47540510D02*
X46422700D01*
Y47553010D02*
Y47528010D01*
X46497700Y47440510D02*
X46422700D01*
X46472700Y47471760D01*
Y47421760D01*
X46732950Y47771760D02*
X46745450Y47765510D01*
X46751700Y47753010D01*
Y47728010D01*
X46745450Y47715510D01*
X46732950Y47709260D01*
X46720450Y47715510D01*
X46714200Y47728010D01*
Y47753010D01*
X46707950Y47765510D01*
X46695450Y47771760D01*
X46682950Y47765510D01*
X46676700Y47753010D01*
Y47728010D01*
X46682950Y47715510D01*
X46695450Y47709260D01*
X46732950Y47671760D02*
X46745450Y47665510D01*
X46751700Y47653010D01*
Y47628010D01*
X46745450Y47615510D01*
X46732950Y47609260D01*
X46720450Y47615510D01*
X46714200Y47628010D01*
Y47653010D01*
X46707950Y47665510D01*
X46695450Y47671760D01*
X46682950Y47665510D01*
X46676700Y47653010D01*
Y47628010D01*
X46682950Y47615510D01*
X46695450Y47609260D01*
X46751700Y47540510D02*
X46676700D01*
X46726700Y47571760D01*
Y47521760D01*
X46977400Y50630860D02*
X46958650D01*
Y50624610D01*
X46964900Y50612110D01*
X46971150Y50605860D01*
X46983650Y50599610D01*
X46996150D01*
X47008650Y50605860D01*
X47014900Y50612110D01*
X47021150Y50624610D01*
Y50649610D01*
X47014900Y50662110D01*
X47008650Y50668360D01*
X46996150Y50674610D01*
X46983650D01*
X46971150Y50668360D01*
X46964900Y50662110D01*
X46958650Y50649610D01*
X46921150Y50599610D02*
Y50674610D01*
X46858650Y50599610D01*
Y50674610D01*
X46821150Y50599610D02*
Y50674610D01*
X46783650D01*
X46771150Y50668360D01*
X46764900Y50662110D01*
X46758650Y50649610D01*
Y50624610D01*
X46764900Y50612110D01*
X46771150Y50605860D01*
X46783650Y50599610D01*
X46821150D01*
X47002550Y50454310D02*
Y50479310D01*
X46996300Y50491810D01*
X46990050Y50498060D01*
X46977550Y50504310D01*
X46965050D01*
X46952550Y50498060D01*
X46946300Y50491810D01*
X46940050Y50479310D01*
Y50454310D01*
X46946300Y50441810D01*
X46952550Y50435560D01*
X46965050Y50429310D01*
X46977550D01*
X46990050Y50435560D01*
X46996300Y50441810D01*
X47002550Y50454310D01*
X46902550Y50429310D02*
Y50504310D01*
X46840050D01*
X46852550Y50466810D02*
X46902550D01*
Y50429310D02*
X46840050D01*
X47018150Y50464210D02*
Y50489210D01*
X47011900Y50501710D01*
X47005650Y50507960D01*
X46993150Y50514210D01*
X46980650D01*
X46968150Y50507960D01*
X46961900Y50501710D01*
X46955650Y50489210D01*
Y50464210D01*
X46961900Y50451710D01*
X46968150Y50445460D01*
X46980650Y50439210D01*
X46993150D01*
X47005650Y50445460D01*
X47011900Y50451710D01*
X47018150Y50464210D01*
X46918150Y50439210D02*
Y50514210D01*
X46855650D01*
X46868150Y50476710D02*
X46918150D01*
Y50439210D02*
X46855650D01*
X47993150Y39760010D02*
X47943150D01*
X47986900Y39716260D01*
X47993150Y39703760D01*
X47986900Y39691260D01*
X47974400Y39685010D01*
X47955650D01*
X47943150Y39691260D01*
X48074400Y39760010D02*
Y39685010D01*
X48043150Y39735010D01*
X48093150D01*
X48143150Y39685010D02*
X48174400Y39760010D01*
X48205650Y39685010D01*
X48586900Y39728760D02*
X48605650D01*
Y39735010D01*
X48599400Y39747510D01*
X48593150Y39753760D01*
X48580650Y39760010D01*
X48568150D01*
X48555650Y39753760D01*
X48549400Y39747510D01*
X48543150Y39735010D01*
Y39710010D01*
X48549400Y39697510D01*
X48555650Y39691260D01*
X48568150Y39685010D01*
X48580650D01*
X48593150Y39691260D01*
X48599400Y39697510D01*
X48605650Y39710010D01*
X48643150Y39760010D02*
Y39685010D01*
X48705650Y39760010D01*
Y39685010D01*
X48743150Y39760010D02*
Y39685010D01*
X48780650D01*
X48793150Y39691260D01*
X48799400Y39697510D01*
X48805650Y39710010D01*
Y39735010D01*
X48799400Y39747510D01*
X48793150Y39753760D01*
X48780650Y39760010D01*
X48743150D01*
X49679950Y45601660D02*
X49692450Y45607910D01*
X49711200D01*
X49723700Y45601660D01*
X49729950Y45589160D01*
Y45582910D01*
X49723700Y45570410D01*
X49711200Y45564160D01*
X49679950D01*
Y45532910D01*
X49729950D01*
X49779950D02*
X49811200Y45607910D01*
X49842450Y45532910D01*
X50186200Y45601660D02*
X50198700Y45607910D01*
X50211200D01*
X50223700Y45601660D01*
X50229950Y45589160D01*
Y45551660D01*
X50223700Y45539160D01*
X50211200Y45532910D01*
X50198700D01*
X50186200Y45539160D01*
X50179950Y45551660D01*
Y45589160D01*
X50186200Y45601660D01*
X50223700Y45539160D01*
X50279950Y45532910D02*
X50311200Y45607910D01*
X50342450Y45532910D01*
X49729950Y48011700D02*
Y47955450D01*
X49753390Y47983570D01*
X49776830Y47955450D01*
Y48011700D01*
X49851830Y48002320D02*
X49847140Y48007010D01*
X49837760Y48011700D01*
X49823700D01*
X49814330Y48007010D01*
X49809640Y48002320D01*
X49804950Y47992950D01*
Y47974200D01*
X49809640Y47964820D01*
X49814330Y47960130D01*
X49823700Y47955450D01*
X49837760D01*
X49847140Y47960130D01*
X49851830Y47964820D01*
X49879950Y47955450D02*
Y48011700D01*
X49926830D01*
X49954950D02*
Y47955450D01*
X49987760D01*
X49997140Y47960130D01*
X50001830Y47969510D01*
X49997140Y47978880D01*
X49987760Y47983570D01*
X49954950D01*
X49987760D02*
X50001830Y48011700D01*
X49729950Y48265700D02*
Y48209450D01*
X49762760D01*
X49772140Y48214130D01*
X49776830Y48223510D01*
X49772140Y48232880D01*
X49762760Y48237570D01*
X49729950D01*
X49837760Y48242260D02*
X49851830D01*
Y48246950D01*
X49847140Y48256320D01*
X49842450Y48261010D01*
X49833080Y48265700D01*
X49823700D01*
X49814330Y48261010D01*
X49809640Y48256320D01*
X49804950Y48246950D01*
Y48228200D01*
X49809640Y48218820D01*
X49814330Y48214130D01*
X49823700Y48209450D01*
X49833080D01*
X49842450Y48214130D01*
X49847140Y48218820D01*
X49851830Y48228200D01*
X49879950Y48265700D02*
Y48209450D01*
X49926830D01*
X49917450Y48237570D02*
X49879950D01*
Y48265700D02*
X49926830D01*
X49954950D02*
Y48209450D01*
X49983080D01*
X49992450Y48214130D01*
X49997140Y48218820D01*
X50001830Y48228200D01*
Y48246950D01*
X49997140Y48256320D01*
X49992450Y48261010D01*
X49983080Y48265700D01*
X49954950D01*
X49729950Y48519700D02*
Y48463450D01*
X49762760D01*
X49772140Y48468130D01*
X49776830Y48477510D01*
X49772140Y48486880D01*
X49762760Y48491570D01*
X49729950D01*
X49837760Y48496260D02*
X49851830D01*
Y48500950D01*
X49847140Y48510320D01*
X49842450Y48515010D01*
X49833080Y48519700D01*
X49823700D01*
X49814330Y48515010D01*
X49809640Y48510320D01*
X49804950Y48500950D01*
Y48482200D01*
X49809640Y48472820D01*
X49814330Y48468130D01*
X49823700Y48463450D01*
X49833080D01*
X49842450Y48468130D01*
X49847140Y48472820D01*
X49851830Y48482200D01*
X49879950Y48519700D02*
Y48463450D01*
X49926830D01*
X49917450Y48491570D02*
X49879950D01*
Y48519700D02*
X49926830D01*
X50001830Y48510320D02*
X49997140Y48515010D01*
X49987760Y48519700D01*
X49973700D01*
X49964330Y48515010D01*
X49959640Y48510320D01*
X49954950Y48500950D01*
Y48482200D01*
X49959640Y48472820D01*
X49964330Y48468130D01*
X49973700Y48463450D01*
X49987760D01*
X49997140Y48468130D01*
X50001830Y48472820D01*
X49734640Y48769010D02*
X49744010Y48773700D01*
X49753390D01*
X49762760Y48769010D01*
X49767450Y48759630D01*
X49762760Y48750260D01*
X49753390Y48745570D01*
X49744010D01*
X49753390D02*
X49762760Y48740880D01*
X49767450Y48731510D01*
X49762760Y48722130D01*
X49753390Y48717450D01*
X49744010D01*
X49734640Y48722130D01*
X49809640Y48773700D02*
X49814330Y48769010D01*
X49809640Y48764320D01*
X49804950Y48769010D01*
X49809640Y48773700D01*
X49884640Y48769010D02*
X49894010Y48773700D01*
X49903390D01*
X49912760Y48769010D01*
X49917450Y48759630D01*
X49912760Y48750260D01*
X49903390Y48745570D01*
X49894010D01*
X49903390D02*
X49912760Y48740880D01*
X49917450Y48731510D01*
X49912760Y48722130D01*
X49903390Y48717450D01*
X49894010D01*
X49884640Y48722130D01*
X49954950Y48717450D02*
X49978390Y48773700D01*
X50001830Y48717450D01*
X49837760Y47734260D02*
X49851830D01*
Y47738950D01*
X49847140Y47748320D01*
X49842450Y47753010D01*
X49833080Y47757700D01*
X49823700D01*
X49814330Y47753010D01*
X49809640Y47748320D01*
X49804950Y47738950D01*
Y47720200D01*
X49809640Y47710820D01*
X49814330Y47706130D01*
X49823700Y47701450D01*
X49833080D01*
X49842450Y47706130D01*
X49847140Y47710820D01*
X49851830Y47720200D01*
X49879950Y47757700D02*
Y47701450D01*
X49926830Y47757700D01*
Y47701450D01*
X49954950Y47757700D02*
Y47701450D01*
X49983080D01*
X49992450Y47706130D01*
X49997140Y47710820D01*
X50001830Y47720200D01*
Y47738950D01*
X49997140Y47748320D01*
X49992450Y47753010D01*
X49983080Y47757700D01*
X49954950D01*
X0Y0D02*
M02*
