G04 DesignSpark PCB Gerber Version 12.0 Build 5942*
%FSLAX35Y35*%
%MOMM*%
%ADD228R,0.50800X1.29540*%
%ADD153R,1.67640X1.67640*%
%ADD165R,1.90500X1.90500*%
%ADD17C,0.00001*%
%ADD171C,1.36940*%
%ADD173C,1.46840*%
%ADD159C,1.59840*%
%ADD140C,1.65240*%
%ADD160C,1.70240*%
%ADD162C,1.75240*%
%ADD166C,1.90500*%
%ADD154C,2.40240*%
%ADD161C,2.50740*%
%ADD167C,2.67640*%
%ADD232R,1.30240X0.75240*%
%ADD227R,1.45240X0.80240*%
%ADD231R,1.75240X0.80240*%
%ADD230R,2.29240X0.80240*%
%ADD233R,1.65240X1.31240*%
%ADD229R,1.95240X1.50240*%
%ADD126C,4.00240*%
%AMT158*0 Rounded Rectangle Pad at angle 0*4,1,92,-1.03140,-2.57620,1.03140,-2.57620,1.14160,-2.57230,1.25120,-2.56050,1.35970,-2.54090,1.46650,-2.51360,1.57110,-2.47880,1.67300,-2.43660,1.77160,-2.38730,1.86640,-2.33110,1.95700,-2.26820,2.04290,-2.19900,2.12360,-2.12390,2.19870,-2.04320,2.26790,-1.95740,2.33080,-1.86690,2.38710,-1.77210,2.43650,-1.67350,2.47870,-1.57160,2.51350,-1.46700,2.54080,-1.36020,2.56040,-1.25170,2.57220,-1.14210,2.57620,-1.03140,2.57620,1.03140,2.57230,1.14160,2.56050,1.25120,2.54090,1.35970,2.51360,1.46650,2.47880,1.57110,2.43660,1.67300,2.38730,1.77160,2.33110,1.86640,2.26820,1.95700,2.19900,2.04290,2.12390,2.12360,2.04320,2.19870,1.95740,2.26790,1.86690,2.33080,1.77210,2.38710,1.67350,2.43650,1.57160,2.47870,1.46700,2.51350,1.36020,2.54080,1.25170,2.56040,1.14210,2.57220,1.03140,2.57620,-1.03140,2.57620,-1.14160,2.57230,-1.25120,2.56050,-1.35970,2.54090,-1.46650,2.51360,-1.57110,2.47880,-1.67300,2.43660,-1.77160,2.38730,-1.86640,2.33110,-1.95700,2.26820,-2.04290,2.19900,-2.12360,2.12390,-2.19870,2.04320,-2.26790,1.95740,-2.33080,1.86690,-2.38710,1.77210,-2.43650,1.67350,-2.47870,1.57160,-2.51350,1.46700,-2.54080,1.36020,-2.56040,1.25170,-2.57220,1.14210,-2.57620,1.03140,-2.57620,-1.03140,-2.57230,-1.14160,-2.56050,-1.25120,-2.54090,-1.35970,-2.51360,-1.46650,-2.47880,-1.57110,-2.43660,-1.67300,-2.38730,-1.77160,-2.33110,-1.86640,-2.26820,-1.95700,-2.19900,-2.04290,-2.12390,-2.12360,-2.04320,-2.19870,-1.95740,-2.26790,-1.86690,-2.33080,-1.77210,-2.38710,-1.67350,-2.43650,-1.57160,-2.47870,-1.46700,-2.51350,-1.36020,-2.54080,-1.25170,-2.56040,-1.14210,-2.57220,-1.03140,-2.57620,0*%
%ADD158T158*%
X0Y0D02*
D02*
D17*
X39226240Y45353160D02*
G75*
G03*
X42721570Y39593110I6493710J-20D01*
G01*
X43713650D01*
Y45516760D01*
G75*
G02*
X45520000Y47323110I1806350J0D01*
G01*
X45917500D01*
G75*
G02*
X47723850Y45516760I0J-1806350D01*
G01*
Y45156810D01*
G75*
G02*
X47726350Y45151760I-3850J-5050D01*
G01*
Y39593110D01*
X48718430D01*
G75*
G03*
X52213720Y45353140I-2998470J5760040D01*
G01*
G75*
G03*
X45720000Y51846890I-6493720J0D01*
G01*
G75*
G03*
X39226240Y45353160I0J-6493730D01*
G01*
X45764680Y48052080D02*
X45932320D01*
Y47884440D01*
X45764680D01*
Y48052080D01*
X45861000Y51084010D02*
G75*
G02*
X45956250Y50988760I0J-95250D01*
G01*
G75*
G02*
X45861000Y50893510I-95250J0D01*
G01*
G75*
G02*
X45765750Y50988760I0J95250D01*
G01*
G75*
G02*
X45861000Y51084010I95250J0D01*
G01*
Y51338010D02*
G75*
G02*
X45956250Y51242760I0J-95250D01*
G01*
G75*
G02*
X45861000Y51147510I-95250J0D01*
G01*
G75*
G02*
X45765750Y51242760I0J95250D01*
G01*
G75*
G02*
X45861000Y51338010I95250J0D01*
G01*
X46018680Y48052080D02*
X46186320D01*
Y47884440D01*
X46018680D01*
Y48052080D01*
X46115000Y51084010D02*
G75*
G02*
X46210250Y50988760I0J-95250D01*
G01*
G75*
G02*
X46115000Y50893510I-95250J0D01*
G01*
G75*
G02*
X46019750Y50988760I0J95250D01*
G01*
G75*
G02*
X46115000Y51084010I95250J0D01*
G01*
Y51338010D02*
G75*
G02*
X46210250Y51242760I0J-95250D01*
G01*
G75*
G02*
X46115000Y51147510I-95250J0D01*
G01*
G75*
G02*
X46019750Y51242760I0J95250D01*
G01*
G75*
G02*
X46115000Y51338010I95250J0D01*
G01*
X46272680Y48052080D02*
X46440320D01*
Y47884440D01*
X46272680D01*
Y48052080D01*
X46369000Y51084010D02*
G75*
G02*
X46464250Y50988760I0J-95250D01*
G01*
G75*
G02*
X46369000Y50893510I-95250J0D01*
G01*
G75*
G02*
X46273750Y50988760I0J95250D01*
G01*
G75*
G02*
X46369000Y51084010I95250J0D01*
G01*
Y51338010D02*
G75*
G02*
X46464250Y51242760I0J-95250D01*
G01*
G75*
G02*
X46369000Y51147510I-95250J0D01*
G01*
G75*
G02*
X46273750Y51242760I0J95250D01*
G01*
G75*
G02*
X46369000Y51338010I95250J0D01*
G01*
X46526680Y48052080D02*
X46694320D01*
Y47884440D01*
X46526680D01*
Y48052080D01*
X46623000Y51084010D02*
G75*
G02*
X46718250Y50988760I0J-95250D01*
G01*
G75*
G02*
X46623000Y50893510I-95250J0D01*
G01*
G75*
G02*
X46527750Y50988760I0J95250D01*
G01*
G75*
G02*
X46623000Y51084010I95250J0D01*
G01*
Y51338010D02*
G75*
G02*
X46718250Y51242760I0J-95250D01*
G01*
G75*
G02*
X46623000Y51147510I-95250J0D01*
G01*
G75*
G02*
X46527750Y51242760I0J95250D01*
G01*
G75*
G02*
X46623000Y51338010I95250J0D01*
G01*
X46910380Y47961760D02*
G75*
G02*
X47310620I200120J0D01*
G01*
G75*
G02*
X46910380I-200120J0D01*
G01*
X47754380Y41930380D02*
X47899620D01*
Y41850140D01*
X47754380D01*
Y41930380D01*
X47858180Y39970260D02*
G75*
G02*
X48125820I133820J0D01*
G01*
G75*
G02*
X47858180I-133820J0D01*
G01*
X48016500Y40630380D02*
G75*
G02*
X48136620Y40510260I0J-120120D01*
G01*
G75*
G02*
X48016500Y40390140I-120120J0D01*
G01*
G75*
G02*
X47896380Y40510260I0J120120D01*
G01*
G75*
G02*
X48016500Y40630380I120120J0D01*
G01*
X47779100Y43320130D02*
X47829900D01*
Y43190590D01*
X47779100D01*
Y43320130D01*
X47845100D02*
X47895900D01*
Y43190590D01*
X47845100D01*
Y43320130D01*
X47933380Y43320480D02*
X48108620D01*
Y43240240D01*
X47933380D01*
Y43320480D01*
X48354380Y41925380D02*
X48484620D01*
Y41850140D01*
X48354380D01*
Y41925380D01*
X48382180Y39970260D02*
G75*
G02*
X48649820I133820J0D01*
G01*
G75*
G02*
X48382180I-133820J0D01*
G01*
X48524500Y40630380D02*
G75*
G02*
X48644620Y40510260I0J-120120D01*
G01*
G75*
G02*
X48524500Y40390140I-120120J0D01*
G01*
G75*
G02*
X48404380Y40510260I0J120120D01*
G01*
G75*
G02*
X48524500Y40630380I120120J0D01*
G01*
X48414380Y43320480D02*
X48643620D01*
Y43240240D01*
X48414380D01*
Y43320480D01*
X48500380Y41146640D02*
Y41361880D01*
G75*
G02*
X48650380Y41511880I150000J0D01*
G01*
X48865620D01*
G75*
G02*
X49015620Y41361880I0J-150000D01*
G01*
Y41146640D01*
G75*
G02*
X48865620Y40996640I-150000J0D01*
G01*
X48650380D01*
G75*
G02*
X48500380Y41146640I0J150000D01*
G01*
X48518380Y50599140D02*
Y50814380D01*
G75*
G02*
X48668380Y50964380I150000J0D01*
G01*
X48883620D01*
G75*
G02*
X49033620Y50814380I0J-150000D01*
G01*
Y50599140D01*
G75*
G02*
X48883620Y50449140I-150000J0D01*
G01*
X48668380D01*
G75*
G02*
X48518380Y50599140I0J150000D01*
G01*
X48914380Y42428880D02*
X49059620D01*
Y42348640D01*
X48914380D01*
Y42428880D01*
Y42538980D02*
X49059620D01*
Y42458740D01*
X48914380D01*
Y42538980D01*
Y42648980D02*
X49059620D01*
Y42568740D01*
X48914380D01*
Y42648980D01*
Y42758980D02*
X49059620D01*
Y42678740D01*
X48914380D01*
Y42758980D01*
Y42868980D02*
X49059620D01*
Y42788740D01*
X48914380D01*
Y42868980D01*
Y42978980D02*
X49059620D01*
Y42898740D01*
X48914380D01*
Y42978980D01*
Y43088980D02*
X49059620D01*
Y43008740D01*
X48914380D01*
Y43088980D01*
Y43198980D02*
X49059620D01*
Y43118740D01*
X48914380D01*
Y43198980D01*
X48645880Y44718760D02*
G75*
G02*
X48886120I120120J0D01*
G01*
G75*
G02*
X48645880I-120120J0D01*
G01*
Y45223760D02*
G75*
G02*
X48886120I120120J0D01*
G01*
G75*
G02*
X48645880I-120120J0D01*
G01*
X49094380Y43320380D02*
X49289620D01*
Y43170140D01*
X49094380D01*
Y43320380D01*
X49134380Y41981480D02*
X49299620D01*
Y41850240D01*
X49134380D01*
Y41981480D01*
X49396180Y42265580D02*
X49563820D01*
Y42097940D01*
X49396180D01*
Y42265580D01*
X49504680Y45335260D02*
G75*
G02*
X49772320I133820J0D01*
G01*
G75*
G02*
X49504680I-133820J0D01*
G01*
X49991180Y47810580D02*
X50158820D01*
Y47642940D01*
X49991180D01*
Y47810580D01*
X50028680Y45335260D02*
G75*
G02*
X50296320I133820J0D01*
G01*
G75*
G02*
X50028680I-133820J0D01*
G01*
X49991180Y48064580D02*
X50158820D01*
Y47896940D01*
X49991180D01*
Y48064580D01*
Y48318580D02*
X50158820D01*
Y48150940D01*
X49991180D01*
Y48318580D01*
Y48572580D02*
X50158820D01*
Y48404940D01*
X49991180D01*
Y48572580D01*
Y48826580D02*
X50158820D01*
Y48658940D01*
X49991180D01*
Y48826580D01*
X50684380Y46991760D02*
G75*
G02*
X50849620I82620J0D01*
G01*
G75*
G02*
X50684380I-82620J0D01*
G01*
Y47641760D02*
G75*
G02*
X50849620I82620J0D01*
G01*
G75*
G02*
X50684380I-82620J0D01*
G01*
X50878280Y48510280D02*
X51045920D01*
Y48342640D01*
X50878280D01*
Y48510280D01*
Y48764280D02*
X51045920D01*
Y48596640D01*
X50878280D01*
Y48764280D01*
X51101180Y43450580D02*
X51268820D01*
Y43282940D01*
X51101180D01*
Y43450580D01*
X51134380Y46991760D02*
G75*
G02*
X51299620I82620J0D01*
G01*
G75*
G02*
X51134380I-82620J0D01*
G01*
Y47641760D02*
G75*
G02*
X51299620I82620J0D01*
G01*
G75*
G02*
X51134380I-82620J0D01*
G01*
X39849500Y44972180D02*
G75*
G02*
X39922920Y44898760I0J-73420D01*
G01*
G75*
G02*
X39849500Y44825340I-73420J0D01*
G01*
G75*
G02*
X39776080Y44898760I0J73420D01*
G01*
G75*
G02*
X39849500Y44972180I73420J0D01*
G01*
X40006680Y45446260D02*
G75*
G02*
X40274320I133820J0D01*
G01*
G75*
G02*
X40006680I-133820J0D01*
G01*
X40195180Y43168580D02*
X40362820D01*
Y43000940D01*
X40195180D01*
Y43168580D01*
X40354500Y44972180D02*
G75*
G02*
X40427920Y44898760I0J-73420D01*
G01*
G75*
G02*
X40354500Y44825340I-73420J0D01*
G01*
G75*
G02*
X40281080Y44898760I0J73420D01*
G01*
G75*
G02*
X40354500Y44972180I73420J0D01*
G01*
X40530680Y45446260D02*
G75*
G02*
X40798320I133820J0D01*
G01*
G75*
G02*
X40530680I-133820J0D01*
G01*
X40921620Y49298030D02*
G75*
G02*
X41066930Y49237840I60190J-60190D01*
G01*
G75*
G02*
X41042000Y49177650I-85120J0D01*
G01*
G75*
G02*
X40896690Y49237840I-60190J60190D01*
G01*
G75*
G02*
X40921620Y49298030I85120J0D01*
G01*
X41101230Y49477630D02*
G75*
G02*
X41246540Y49417440I60190J-60190D01*
G01*
G75*
G02*
X41221610Y49357250I-85120J0D01*
G01*
G75*
G02*
X41076300Y49417440I-60190J60190D01*
G01*
G75*
G02*
X41101230Y49477630I85120J0D01*
G01*
X41253610Y49052310D02*
G75*
G02*
X41403190Y48990350I61960J-61960D01*
G01*
G75*
G02*
X41377530Y48928390I-87620J-10D01*
G01*
G75*
G02*
X41227950Y48990350I-61960J61960D01*
G01*
G75*
G02*
X41253610Y49052310I87620J10D01*
G01*
X41345710Y48647670D02*
G75*
G02*
X41559730Y48559020I88650J-88650D01*
G01*
G75*
G02*
X41523010Y48470370I-125370J0D01*
G01*
G75*
G02*
X41308990Y48559020I-88650J88650D01*
G01*
G75*
G02*
X41345710Y48647670I125370J0D01*
G01*
X41636510Y50012910D02*
G75*
G02*
X41781820Y49952720I60190J-60190D01*
G01*
G75*
G02*
X41756890Y49892530I-85120J0D01*
G01*
G75*
G02*
X41611580Y49952720I-60190J60190D01*
G01*
G75*
G02*
X41636510Y50012910I85120J0D01*
G01*
X41625680Y44419580D02*
X41793320D01*
Y44251940D01*
X41625680D01*
Y44419580D01*
X41816110Y50192520D02*
G75*
G02*
X41961420Y50132330I60190J-60190D01*
G01*
G75*
G02*
X41936490Y50072140I-85120J0D01*
G01*
G75*
G02*
X41791180Y50132330I-60190J60190D01*
G01*
G75*
G02*
X41816110Y50192520I85120J0D01*
G01*
X41887670Y48777450D02*
G75*
G02*
X42024100Y48720940I56510J-56510D01*
G01*
G75*
G02*
X42000690Y48664430I-79920J0D01*
G01*
G75*
G02*
X41864260Y48720940I-56510J56510D01*
G01*
G75*
G02*
X41887670Y48777450I79920J0D01*
G01*
X41977480Y48508050D02*
G75*
G02*
X42113910Y48451540I56510J-56510D01*
G01*
G75*
G02*
X42090500Y48395030I-79920J0D01*
G01*
G75*
G02*
X41954070Y48451540I-56510J56510D01*
G01*
G75*
G02*
X41977480Y48508050I79920J0D01*
G01*
X42061830Y49860540D02*
G75*
G02*
X42211410Y49798580I61960J-61960D01*
G01*
G75*
G02*
X42185750Y49736620I-87620J-10D01*
G01*
G75*
G02*
X42036170Y49798580I-61960J61960D01*
G01*
G75*
G02*
X42061830Y49860540I87620J10D01*
G01*
X42067280Y48957060D02*
G75*
G02*
X42203710Y48900550I56510J-56510D01*
G01*
G75*
G02*
X42180300Y48844040I-79920J0D01*
G01*
G75*
G02*
X42043870Y48900550I-56510J56510D01*
G01*
G75*
G02*
X42067280Y48957060I79920J0D01*
G01*
X42157080Y48687650D02*
G75*
G02*
X42293510Y48631140I56510J-56510D01*
G01*
G75*
G02*
X42270100Y48574630I-79920J0D01*
G01*
G75*
G02*
X42133670Y48631140I-56510J56510D01*
G01*
G75*
G02*
X42157080Y48687650I79920J0D01*
G01*
X42246880Y49136660D02*
G75*
G02*
X42383310Y49080150I56510J-56510D01*
G01*
G75*
G02*
X42359900Y49023640I-79920J0D01*
G01*
G75*
G02*
X42223470Y49080150I-56510J56510D01*
G01*
G75*
G02*
X42246880Y49136660I79920J0D01*
G01*
X42336690Y48867260D02*
G75*
G02*
X42473120Y48810750I56510J-56510D01*
G01*
G75*
G02*
X42449710Y48754240I-79920J0D01*
G01*
G75*
G02*
X42313280Y48810750I-56510J56510D01*
G01*
G75*
G02*
X42336690Y48867260I79920J0D01*
G01*
X42423880Y41133140D02*
Y41348380D01*
G75*
G02*
X42573880Y41498380I150000J0D01*
G01*
X42789120D01*
G75*
G02*
X42939120Y41348380I0J-150000D01*
G01*
Y41133140D01*
G75*
G02*
X42789120Y40983140I-150000J0D01*
G01*
X42573880D01*
G75*
G02*
X42423880Y41133140I0J150000D01*
G01*
X42919500Y40032730D02*
G75*
G02*
X42987970Y39964260I0J-68470D01*
G01*
G75*
G02*
X42919500Y39895790I-68470J0D01*
G01*
G75*
G02*
X42851030Y39964260I0J68470D01*
G01*
G75*
G02*
X42919500Y40032730I68470J0D01*
G01*
X42426490Y49316270D02*
G75*
G02*
X42562920Y49259760I56510J-56510D01*
G01*
G75*
G02*
X42539510Y49203250I-79920J0D01*
G01*
G75*
G02*
X42403080Y49259760I-56510J56510D01*
G01*
G75*
G02*
X42426490Y49316270I79920J0D01*
G01*
X42516290Y49046860D02*
G75*
G02*
X42652720Y48990350I56510J-56510D01*
G01*
G75*
G02*
X42629310Y48933840I-79920J0D01*
G01*
G75*
G02*
X42492880Y48990350I-56510J56510D01*
G01*
G75*
G02*
X42516290Y49046860I79920J0D01*
G01*
X42414880Y50599140D02*
Y50814380D01*
G75*
G02*
X42564880Y50964380I150000J0D01*
G01*
X42780120D01*
G75*
G02*
X42930120Y50814380I0J-150000D01*
G01*
Y50599140D01*
G75*
G02*
X42780120Y50449140I-150000J0D01*
G01*
X42564880D01*
G75*
G02*
X42414880Y50599140I0J150000D01*
G01*
X42466470Y49768430D02*
G75*
G02*
X42680490Y49679780I88650J-88650D01*
G01*
G75*
G02*
X42643770Y49591130I-125370J0D01*
G01*
G75*
G02*
X42429750Y49679780I-88650J88650D01*
G01*
G75*
G02*
X42466470Y49768430I125370J0D01*
G01*
X43291340Y51036270D02*
G75*
G02*
X43422270Y50947960I35680J-88310D01*
G01*
G75*
G02*
X43362700Y50859650I-95250J0D01*
G01*
G75*
G02*
X43231770Y50947960I-35680J88310D01*
G01*
G75*
G02*
X43291340Y51036270I95250J0D01*
G01*
X43427500Y40032730D02*
G75*
G02*
X43495970Y39964260I0J-68470D01*
G01*
G75*
G02*
X43427500Y39895790I-68470J0D01*
G01*
G75*
G02*
X43359030Y39964260I0J68470D01*
G01*
G75*
G02*
X43427500Y40032730I68470J0D01*
G01*
X43954270Y51304110D02*
G75*
G02*
X44085200Y51215800I35680J-88310D01*
G01*
G75*
G02*
X44025630Y51127490I-95250J0D01*
G01*
G75*
G02*
X43894700Y51215800I-35680J88310D01*
G01*
G75*
G02*
X43954270Y51304110I95250J0D01*
G01*
X44132480Y47961760D02*
G75*
G02*
X44532720I200120J0D01*
G01*
G75*
G02*
X44132480I-200120J0D01*
G01*
X44748680Y48052080D02*
X44916320D01*
Y47884440D01*
X44748680D01*
Y48052080D01*
X44845000Y51338010D02*
G75*
G02*
X44940250Y51242760I0J-95250D01*
G01*
G75*
G02*
X44845000Y51147510I-95250J0D01*
G01*
G75*
G02*
X44749750Y51242760I0J95250D01*
G01*
G75*
G02*
X44845000Y51338010I95250J0D01*
G01*
X44749750Y51084010D02*
X44940250D01*
Y50893510D01*
X44749750D01*
Y51084010D01*
X45002680Y48052080D02*
X45170320D01*
Y47884440D01*
X45002680D01*
Y48052080D01*
X45099000Y51084010D02*
G75*
G02*
X45194250Y50988760I0J-95250D01*
G01*
G75*
G02*
X45099000Y50893510I-95250J0D01*
G01*
G75*
G02*
X45003750Y50988760I0J95250D01*
G01*
G75*
G02*
X45099000Y51084010I95250J0D01*
G01*
Y51338010D02*
G75*
G02*
X45194250Y51242760I0J-95250D01*
G01*
G75*
G02*
X45099000Y51147510I-95250J0D01*
G01*
G75*
G02*
X45003750Y51242760I0J95250D01*
G01*
G75*
G02*
X45099000Y51338010I95250J0D01*
G01*
X45256680Y48052080D02*
X45424320D01*
Y47884440D01*
X45256680D01*
Y48052080D01*
X45353000Y51084010D02*
G75*
G02*
X45448250Y50988760I0J-95250D01*
G01*
G75*
G02*
X45353000Y50893510I-95250J0D01*
G01*
G75*
G02*
X45257750Y50988760I0J95250D01*
G01*
G75*
G02*
X45353000Y51084010I95250J0D01*
G01*
Y51338010D02*
G75*
G02*
X45448250Y51242760I0J-95250D01*
G01*
G75*
G02*
X45353000Y51147510I-95250J0D01*
G01*
G75*
G02*
X45257750Y51242760I0J95250D01*
G01*
G75*
G02*
X45353000Y51338010I95250J0D01*
G01*
X45510680Y48052080D02*
X45678320D01*
Y47884440D01*
X45510680D01*
Y48052080D01*
X45607000Y51084010D02*
G75*
G02*
X45702250Y50988760I0J-95250D01*
G01*
G75*
G02*
X45607000Y50893510I-95250J0D01*
G01*
G75*
G02*
X45511750Y50988760I0J95250D01*
G01*
G75*
G02*
X45607000Y51084010I95250J0D01*
G01*
Y51338010D02*
G75*
G02*
X45702250Y51242760I0J-95250D01*
G01*
G75*
G02*
X45607000Y51147510I-95250J0D01*
G01*
G75*
G02*
X45511750Y51242760I0J95250D01*
G01*
G75*
G02*
X45607000Y51338010I95250J0D01*
G01*
X42087760Y39970260D02*
G36*
X42087760Y39970260D02*
G75*
G03*
X42721570Y39593110I3632700J5383710D01*
G01*
X43713650D01*
Y39970260D01*
X43495710D01*
G75*
G02*
X43495970Y39964280I-68150J-5960D01*
G01*
G75*
G02*
Y39964260I-95490J-10D01*
G01*
G75*
G02*
Y39964240I-95490J-10D01*
G01*
G75*
G02*
X43427500Y39895790I-68470J0D01*
G01*
G75*
G02*
X43359030Y39964240I0J68450D01*
G01*
G75*
G02*
Y39964260I95490J10D01*
G01*
G75*
G02*
Y39964280I95490J10D01*
G01*
G75*
G02*
X43359290Y39970260I68410J20D01*
G01*
X42987710D01*
G75*
G02*
X42987970Y39964280I-68150J-5960D01*
G01*
G75*
G02*
Y39964260I-95490J-10D01*
G01*
G75*
G02*
Y39964240I-95490J-10D01*
G01*
G75*
G02*
X42919500Y39895790I-68470J0D01*
G01*
G75*
G02*
X42851030Y39964240I0J68450D01*
G01*
G75*
G02*
Y39964260I95490J10D01*
G01*
G75*
G02*
Y39964280I95490J10D01*
G01*
G75*
G02*
X42851290Y39970260I68410J20D01*
G01*
X42087760D01*
G37*
X47726350D02*
G36*
X47726350Y39970260D02*
Y39593110D01*
X48718430D01*
G75*
G03*
X49352230Y39970260I-2998900J5760770D01*
G01*
X48649820D01*
G75*
G02*
X48382180I-133820J0D01*
G01*
X48125820D01*
G75*
G02*
X47858180I-133820J0D01*
G01*
X47726350D01*
G37*
X41393900Y40510260D02*
G36*
X41393900Y40510260D02*
G75*
G03*
X42087760Y39970260I4326370J4843280D01*
G01*
X42851290D01*
G75*
G02*
X42919500Y40032730I68190J-5990D01*
G01*
G75*
G02*
X42987710Y39970260I20J-68460D01*
G01*
X43359290D01*
G75*
G02*
X43427500Y40032730I68190J-5990D01*
G01*
G75*
G02*
X43495710Y39970260I20J-68460D01*
G01*
X43713650D01*
Y40510260D01*
X41393900D01*
G37*
X47726350D02*
G36*
X47726350Y40510260D02*
Y39970260D01*
X47858180D01*
G75*
G02*
X48125820I133820J0D01*
G01*
X48382180D01*
G75*
G02*
X48649820I133820J0D01*
G01*
X49352230D01*
G75*
G03*
X50046080Y40510260I-3632510J5383210D01*
G01*
X48644620D01*
G75*
G02*
Y40510250I-190990J0D01*
G01*
G75*
G02*
X48524500Y40390140I-120120J0D01*
G01*
G75*
G02*
X48404380Y40510250I0J120110D01*
G01*
G75*
G02*
Y40510260I190990J10D01*
G01*
X48136620D01*
G75*
G02*
Y40510250I-190990J0D01*
G01*
G75*
G02*
X48016500Y40390140I-120120J0D01*
G01*
G75*
G02*
X47896380Y40510250I0J120110D01*
G01*
G75*
G02*
Y40510260I190990J10D01*
G01*
X47726350D01*
G37*
X40683340Y41254260D02*
G36*
X40683340Y41254260D02*
G75*
G03*
X41393900Y40510260I5037060J4099360D01*
G01*
X43713650D01*
Y41254260D01*
X42939120D01*
Y41133140D01*
G75*
G02*
Y41133130I-114590J0D01*
G01*
G75*
G02*
X42789120Y40983140I-150000J0D01*
G01*
X42573880D01*
G75*
G02*
X42423880Y41133130I0J149990D01*
G01*
G75*
G02*
Y41133140I114590J10D01*
G01*
Y41254260D01*
X40683340D01*
G37*
X47726350D02*
G36*
X47726350Y41254260D02*
Y40510260D01*
X47896380D01*
G75*
G02*
Y40510270I190990J10D01*
G01*
G75*
G02*
X48016500Y40630380I120120J0D01*
G01*
G75*
G02*
X48136620Y40510270I0J-120110D01*
G01*
G75*
G02*
Y40510260I-190990J0D01*
G01*
X48404380D01*
G75*
G02*
Y40510270I190990J10D01*
G01*
G75*
G02*
X48524500Y40630380I120120J0D01*
G01*
G75*
G02*
X48644620Y40510270I0J-120110D01*
G01*
G75*
G02*
Y40510260I-190990J0D01*
G01*
X50046080D01*
G75*
G03*
X50756620Y41254260I-4326510J4843230D01*
G01*
X49015620D01*
Y41146640D01*
G75*
G02*
Y41146630I-114590J0D01*
G01*
G75*
G02*
X48865620Y40996640I-150000J0D01*
G01*
X48650380D01*
G75*
G02*
X48500380Y41146630I0J149990D01*
G01*
G75*
G02*
Y41146640I114590J10D01*
G01*
Y41254260D01*
X47726350D01*
G37*
X40226620Y41890260D02*
G36*
X40226620Y41890260D02*
G75*
G03*
X40683340Y41254260I5493970J3463310D01*
G01*
X42423880D01*
Y41348380D01*
G75*
G02*
Y41348390I114590J10D01*
G01*
G75*
G02*
X42573880Y41498380I150000J0D01*
G01*
X42789120D01*
G75*
G02*
X42939120Y41348390I0J-149990D01*
G01*
G75*
G02*
Y41348380I-114590J0D01*
G01*
Y41254260D01*
X43713650D01*
Y41890260D01*
X40226620D01*
G37*
X47726350D02*
G36*
X47726350Y41890260D02*
Y41254260D01*
X48500380D01*
Y41361880D01*
G75*
G02*
Y41361890I114590J10D01*
G01*
G75*
G02*
X48650380Y41511880I150000J0D01*
G01*
X48865620D01*
G75*
G02*
X49015620Y41361890I0J-149990D01*
G01*
G75*
G02*
Y41361880I-114590J0D01*
G01*
Y41254260D01*
X50756620D01*
G75*
G03*
X51213340Y41890260I-5037250J4099310D01*
G01*
X49299620D01*
Y41850240D01*
X49134380D01*
Y41890260D01*
X48484620D01*
Y41850140D01*
X48354380D01*
Y41890260D01*
X47899620D01*
Y41850140D01*
X47754380D01*
Y41890260D01*
X47726350D01*
G37*
X40053330Y42181760D02*
G36*
X40053330Y42181760D02*
G75*
G03*
X40226620Y41890260I5667500J3171940D01*
G01*
X43713650D01*
Y42181760D01*
X40053330D01*
G37*
X47726350D02*
G36*
X47726350Y42181760D02*
Y41890260D01*
X47754380D01*
Y41930380D01*
X47899620D01*
Y41890260D01*
X48354380D01*
Y41925380D01*
X48484620D01*
Y41890260D01*
X49134380D01*
Y41981480D01*
X49299620D01*
Y41890260D01*
X51213340D01*
G75*
G03*
X51386630Y42181760I-5494210J3463440D01*
G01*
X49563820D01*
Y42097940D01*
X49396180D01*
Y42181760D01*
X47726350D01*
G37*
X39942350Y42388760D02*
G36*
X39942350Y42388760D02*
G75*
G03*
X40053330Y42181760I5778910J2965030D01*
G01*
X43713650D01*
Y42388760D01*
X39942350D01*
G37*
X47726350D02*
G36*
X47726350Y42388760D02*
Y42181760D01*
X49396180D01*
Y42265580D01*
X49563820D01*
Y42181760D01*
X51386630D01*
G75*
G03*
X51497610Y42388760I-5667930J3172030D01*
G01*
X49059620D01*
Y42348640D01*
X48914380D01*
Y42388760D01*
X47726350D01*
G37*
X39887170Y42498860D02*
G36*
X39887170Y42498860D02*
G75*
G03*
X39942350Y42388760I5836130J2856080D01*
G01*
X43713650D01*
Y42498860D01*
X39887170D01*
G37*
X47726350D02*
G36*
X47726350Y42498860D02*
Y42388760D01*
X48914380D01*
Y42428880D01*
X49059620D01*
Y42388760D01*
X51497610D01*
G75*
G03*
X51552790Y42498860I-5780950J2966180D01*
G01*
X49059620D01*
Y42458740D01*
X48914380D01*
Y42498860D01*
X47726350D01*
G37*
X39834620Y42608860D02*
G36*
X39834620Y42608860D02*
G75*
G03*
X39887170Y42498860I5888930J2745750D01*
G01*
X43713650D01*
Y42608860D01*
X39834620D01*
G37*
X47726350D02*
G36*
X47726350Y42608860D02*
Y42498860D01*
X48914380D01*
Y42538980D01*
X49059620D01*
Y42498860D01*
X51552790D01*
G75*
G03*
X51605340Y42608860I-5836380J2855750D01*
G01*
X49059620D01*
Y42568740D01*
X48914380D01*
Y42608860D01*
X47726350D01*
G37*
X39784560Y42718860D02*
G36*
X39784560Y42718860D02*
G75*
G03*
X39834620Y42608860I5937180J2635570D01*
G01*
X43713650D01*
Y42718860D01*
X39784560D01*
G37*
X47726350D02*
G36*
X47726350Y42718860D02*
Y42608860D01*
X48914380D01*
Y42648980D01*
X49059620D01*
Y42608860D01*
X51605340D01*
G75*
G03*
X51655390Y42718860I-5887130J2745030D01*
G01*
X49059620D01*
Y42678740D01*
X48914380D01*
Y42718860D01*
X47726350D01*
G37*
X39736950Y42828860D02*
G36*
X39736950Y42828860D02*
G75*
G03*
X39784560Y42718860I5986300J2525680D01*
G01*
X43713650D01*
Y42828860D01*
X39736950D01*
G37*
X47726350D02*
G36*
X47726350Y42828860D02*
Y42718860D01*
X48914380D01*
Y42758980D01*
X49059620D01*
Y42718860D01*
X51655390D01*
G75*
G03*
X51703000Y42828860I-5938690J2635680D01*
G01*
X49059620D01*
Y42788740D01*
X48914380D01*
Y42828860D01*
X47726350D01*
G37*
X39691730Y42938860D02*
G36*
X39691730Y42938860D02*
G75*
G03*
X39736950Y42828860I6030580J2414820D01*
G01*
X43713650D01*
Y42938860D01*
X39691730D01*
G37*
X47726350D02*
G36*
X47726350Y42938860D02*
Y42828860D01*
X48914380D01*
Y42868980D01*
X49059620D01*
Y42828860D01*
X51703000D01*
G75*
G03*
X51748230Y42938860I-5985350J2525370D01*
G01*
X49059620D01*
Y42898740D01*
X48914380D01*
Y42938860D01*
X47726350D01*
G37*
X39648830Y43048860D02*
G36*
X39648830Y43048860D02*
G75*
G03*
X39691730Y42938860I6075590J2306120D01*
G01*
X43713650D01*
Y43048860D01*
X40362820D01*
Y43000940D01*
X40195180D01*
Y43048860D01*
X39648830D01*
G37*
X47726350D02*
G36*
X47726350Y43048860D02*
Y42938860D01*
X48914380D01*
Y42978980D01*
X49059620D01*
Y42938860D01*
X51748230D01*
G75*
G03*
X51791130Y43048860I-6032690J2416120D01*
G01*
X49059620D01*
Y43008740D01*
X48914380D01*
Y43048860D01*
X47726350D01*
G37*
X39608210Y43158860D02*
G36*
X39608210Y43158860D02*
G75*
G03*
X39648830Y43048860I6115440J2195770D01*
G01*
X40195180D01*
Y43158860D01*
X39608210D01*
G37*
X40362820D02*
G36*
X40362820Y43158860D02*
Y43048860D01*
X43713650D01*
Y43158860D01*
X40362820D01*
G37*
X47726350D02*
G36*
X47726350Y43158860D02*
Y43048860D01*
X48914380D01*
Y43088980D01*
X49059620D01*
Y43048860D01*
X51791130D01*
G75*
G03*
X51831750Y43158860I-6074820J2305770D01*
G01*
X49059620D01*
Y43118740D01*
X48914380D01*
Y43158860D01*
X47726350D01*
G37*
X39574420Y43255360D02*
G36*
X39574420Y43255360D02*
G75*
G03*
X39608210Y43158860I6146530J2098070D01*
G01*
X40195180D01*
Y43168580D01*
X40362820D01*
Y43158860D01*
X43713650D01*
Y43255360D01*
X39574420D01*
G37*
X47726350D02*
G36*
X47726350Y43255360D02*
Y43158860D01*
X48914380D01*
Y43198980D01*
X49059620D01*
Y43158860D01*
X51831750D01*
G75*
G03*
X51865540Y43255360I-6112740J2194570D01*
G01*
X49289620D01*
Y43170140D01*
X49094380D01*
Y43255360D01*
X48643620D01*
Y43240240D01*
X48414380D01*
Y43255360D01*
X48108620D01*
Y43240240D01*
X47933380D01*
Y43255360D01*
X47895900D01*
Y43190590D01*
X47845100D01*
Y43255360D01*
X47829900D01*
Y43190590D01*
X47779100D01*
Y43255360D01*
X47726350D01*
G37*
X39537510Y43366760D02*
G36*
X39537510Y43366760D02*
G75*
G03*
X39574420Y43255360I6185200J1987520D01*
G01*
X43713650D01*
Y43366760D01*
X39537510D01*
G37*
X47726350D02*
G36*
X47726350Y43366760D02*
Y43255360D01*
X47779100D01*
Y43320130D01*
X47829900D01*
Y43255360D01*
X47845100D01*
Y43320130D01*
X47895900D01*
Y43255360D01*
X47933380D01*
Y43320480D01*
X48108620D01*
Y43255360D01*
X48414380D01*
Y43320480D01*
X48643620D01*
Y43255360D01*
X49094380D01*
Y43320380D01*
X49289620D01*
Y43255360D01*
X51865540D01*
G75*
G03*
X51902450Y43366760I-6148290J2098920D01*
G01*
X51268820D01*
Y43282940D01*
X51101180D01*
Y43366760D01*
X47726350D01*
G37*
X39306430Y44335760D02*
G36*
X39306430Y44335760D02*
G75*
G03*
X39537510Y43366760I6413620J1017420D01*
G01*
X43713650D01*
Y44335760D01*
X41793320D01*
Y44251940D01*
X41625680D01*
Y44335760D01*
X39306430D01*
G37*
X47726350D02*
G36*
X47726350Y44335760D02*
Y43366760D01*
X51101180D01*
Y43450580D01*
X51268820D01*
Y43366760D01*
X51902450D01*
G75*
G03*
X52133520Y44335760I-6182540J1986350D01*
G01*
X47726350D01*
G37*
X39257300Y44718760D02*
G36*
X39257300Y44718760D02*
G75*
G03*
X39306430Y44335760I6463610J634480D01*
G01*
X41625680D01*
Y44419580D01*
X41793320D01*
Y44335760D01*
X43713650D01*
Y44718760D01*
X39257300D01*
G37*
X47726350D02*
G36*
X47726350Y44718760D02*
Y44335760D01*
X52133520D01*
G75*
G03*
X52182660Y44718760I-6414470J1017650D01*
G01*
X48886120D01*
G75*
G02*
X48645880I-120120J0D01*
G01*
X47726350D01*
G37*
X39242160Y44898760D02*
G36*
X39242160Y44898760D02*
G75*
G03*
X39257300Y44718760I6481250J454510D01*
G01*
X43713650D01*
Y44898760D01*
X40427920D01*
G75*
G02*
Y44898750I-52090J0D01*
G01*
G75*
G02*
X40354500Y44825340I-73420J0D01*
G01*
G75*
G02*
X40281080Y44898750I0J73410D01*
G01*
G75*
G02*
Y44898760I52090J10D01*
G01*
X39922920D01*
G75*
G02*
Y44898750I-52090J0D01*
G01*
G75*
G02*
X39849500Y44825340I-73420J0D01*
G01*
G75*
G02*
X39776080Y44898750I0J73410D01*
G01*
G75*
G02*
Y44898760I52090J10D01*
G01*
X39242160D01*
G37*
X47726350D02*
G36*
X47726350Y44898760D02*
Y44718760D01*
X48645880D01*
G75*
G02*
X48886120I120120J0D01*
G01*
X52182660D01*
G75*
G03*
X52197800Y44898760I-6466110J634510D01*
G01*
X47726350D01*
G37*
X39227530Y45223760D02*
G36*
X39227530Y45223760D02*
G75*
G03*
X39242160Y44898760I6494160J129510D01*
G01*
X39776080D01*
G75*
G02*
Y44898770I52090J10D01*
G01*
G75*
G02*
X39849500Y44972180I73420J0D01*
G01*
G75*
G02*
X39922920Y44898770I0J-73410D01*
G01*
G75*
G02*
Y44898760I-52090J0D01*
G01*
X40281080D01*
G75*
G02*
Y44898770I52090J10D01*
G01*
G75*
G02*
X40354500Y44972180I73420J0D01*
G01*
G75*
G02*
X40427920Y44898770I0J-73410D01*
G01*
G75*
G02*
Y44898760I-52090J0D01*
G01*
X43713650D01*
Y45223760D01*
X39227530D01*
G37*
X47723850D02*
G36*
X47723850Y45223760D02*
Y45156810D01*
G75*
G02*
X47726350Y45151760I-3850J-5050D01*
G01*
Y44898760D01*
X52197800D01*
G75*
G03*
X52212430Y45223760I-6479530J454510D01*
G01*
X50236500D01*
G75*
G02*
X50088500I-74000J111510D01*
G01*
X49712500D01*
G75*
G02*
X49564500I-74000J111510D01*
G01*
X48886120D01*
G75*
G02*
X48645880I-120120J0D01*
G01*
X47723850D01*
G37*
X39226240Y45353160D02*
G36*
X39226240Y45353160D02*
Y45353140D01*
G75*
G03*
X39227530Y45223760I6497300J90D01*
G01*
X43713650D01*
Y45446260D01*
X40798320D01*
G75*
G02*
X40530680I-133820J0D01*
G01*
X40274320D01*
G75*
G02*
X40006680I-133820J0D01*
G01*
X39226910D01*
G75*
G03*
X39226240Y45353160I6496800J-93310D01*
G01*
G37*
X47723850Y45446260D02*
G36*
X47723850Y45446260D02*
Y45223760D01*
X48645880D01*
G75*
G02*
X48886120I120120J0D01*
G01*
X49564500D01*
G75*
G02*
X49504680Y45335260I74000J111500D01*
G01*
G75*
G02*
X49563760Y45446260I133820J-10D01*
G01*
X47723850D01*
G37*
X49772320Y45335260D02*
G36*
X49772320Y45335260D02*
G75*
G02*
X49712500Y45223760I-133820J0D01*
G01*
X50088500D01*
G75*
G02*
X50028680Y45335260I74000J111500D01*
G01*
G75*
G02*
X50087760Y45446260I133820J-10D01*
G01*
X49713240D01*
G75*
G02*
X49772320Y45335260I-74740J-111010D01*
G01*
G37*
X50296320D02*
G36*
X50296320Y45335260D02*
G75*
G02*
X50236500Y45223760I-133820J0D01*
G01*
X52212430D01*
G75*
G03*
X52213720Y45353140I-6496010J129470D01*
G01*
G75*
G03*
X52213050Y45446260I-6498860J-200D01*
G01*
X50237240D01*
G75*
G02*
X50296320Y45335260I-74740J-111010D01*
G01*
G37*
X39436390Y46991760D02*
G36*
X39436390Y46991760D02*
G75*
G03*
X39226910Y45446260I6283730J-1638650D01*
G01*
X40006680D01*
G75*
G02*
X40274320I133820J0D01*
G01*
X40530680D01*
G75*
G02*
X40798320I133820J0D01*
G01*
X43713650D01*
Y45516760D01*
G75*
G02*
X44477280Y46991760I1806360J-10D01*
G01*
X39436390D01*
G37*
X47723850Y45516760D02*
G36*
X47723850Y45516760D02*
Y45446260D01*
X49563760D01*
G75*
G02*
X49713240I74740J-110990D01*
G01*
X50087760D01*
G75*
G02*
X50237240I74740J-110990D01*
G01*
X52213050D01*
G75*
G03*
X52003570Y46991760I-6493210J-93150D01*
G01*
X51299620D01*
G75*
G02*
X51134380I-82620J0D01*
G01*
X50849620D01*
G75*
G02*
X50684380I-82620J0D01*
G01*
X46960220D01*
G75*
G02*
X47723850Y45516760I-1042730J-1475010D01*
G01*
G37*
X39642910Y47641760D02*
G36*
X39642910Y47641760D02*
G75*
G03*
X39436390Y46991760I6077470J-2288760D01*
G01*
X44477280D01*
G75*
G02*
X45520000Y47323110I1042730J-1475030D01*
G01*
X45917500D01*
G75*
G02*
X46960220Y46991760I-10J-1806380D01*
G01*
X50684380D01*
G75*
G02*
X50849620I82620J0D01*
G01*
X51134380D01*
G75*
G02*
X51299620I82620J0D01*
G01*
X52003570D01*
G75*
G03*
X51797050Y47641760I-6283990J-1638760D01*
G01*
X51299620D01*
G75*
G02*
X51134380I-82620J0D01*
G01*
X50849620D01*
G75*
G02*
X50684380I-82620J0D01*
G01*
X39642910D01*
G37*
X39675600Y47726760D02*
G36*
X39675600Y47726760D02*
G75*
G03*
X39642910Y47641760I6048490J-2374960D01*
G01*
X50684380D01*
G75*
G02*
X50849620I82620J0D01*
G01*
X51134380D01*
G75*
G02*
X51299620I82620J0D01*
G01*
X51797050D01*
G75*
G03*
X51764360Y47726760I-6081180J-2289960D01*
G01*
X50158820D01*
Y47642940D01*
X49991180D01*
Y47726760D01*
X39675600D01*
G37*
X39776100Y47968260D02*
G36*
X39776100Y47968260D02*
G75*
G03*
X39675600Y47726760I5944140J-2615310D01*
G01*
X49991180D01*
Y47810580D01*
X50158820D01*
Y47726760D01*
X51764360D01*
G75*
G03*
X51663860Y47968260I-6044640J-2373810D01*
G01*
X50158820D01*
Y47896940D01*
X49991180D01*
Y47968260D01*
X47310510D01*
G75*
G02*
X47310620Y47961760I-200050J-6640D01*
G01*
G75*
G02*
X46910380I-200120J0D01*
G01*
G75*
G02*
X46910490Y47968260I200160J-140D01*
G01*
X46694320D01*
Y47884440D01*
X46526680D01*
Y47968260D01*
X46440320D01*
Y47884440D01*
X46272680D01*
Y47968260D01*
X46186320D01*
Y47884440D01*
X46018680D01*
Y47968260D01*
X45932320D01*
Y47884440D01*
X45764680D01*
Y47968260D01*
X45678320D01*
Y47884440D01*
X45510680D01*
Y47968260D01*
X45424320D01*
Y47884440D01*
X45256680D01*
Y47968260D01*
X45170320D01*
Y47884440D01*
X45002680D01*
Y47968260D01*
X44916320D01*
Y47884440D01*
X44748680D01*
Y47968260D01*
X44532610D01*
G75*
G02*
X44532720Y47961760I-200050J-6640D01*
G01*
G75*
G02*
X44132480I-200120J0D01*
G01*
G75*
G02*
X44132590Y47968260I200160J-140D01*
G01*
X39776100D01*
G37*
X39900630Y48234760D02*
G36*
X39900630Y48234760D02*
G75*
G03*
X39776100Y47968260I5820860J-2882320D01*
G01*
X44132590D01*
G75*
G02*
X44532610I200010J-6500D01*
G01*
X44748680D01*
Y48052080D01*
X44916320D01*
Y47968260D01*
X45002680D01*
Y48052080D01*
X45170320D01*
Y47968260D01*
X45256680D01*
Y48052080D01*
X45424320D01*
Y47968260D01*
X45510680D01*
Y48052080D01*
X45678320D01*
Y47968260D01*
X45764680D01*
Y48052080D01*
X45932320D01*
Y47968260D01*
X46018680D01*
Y48052080D01*
X46186320D01*
Y47968260D01*
X46272680D01*
Y48052080D01*
X46440320D01*
Y47968260D01*
X46526680D01*
Y48052080D01*
X46694320D01*
Y47968260D01*
X46910490D01*
G75*
G02*
X47310510I200010J-6500D01*
G01*
X49991180D01*
Y48064580D01*
X50158820D01*
Y47968260D01*
X51663860D01*
G75*
G03*
X51539330Y48234760I-5945390J-2615820D01*
G01*
X50158820D01*
Y48150940D01*
X49991180D01*
Y48234760D01*
X39900630D01*
G37*
X40033470Y48488760D02*
G36*
X40033470Y48488760D02*
G75*
G03*
X39900630Y48234760I5687140J-3136070D01*
G01*
X49991180D01*
Y48318580D01*
X50158820D01*
Y48234760D01*
X51539330D01*
G75*
G03*
X51406490Y48488760I-5819980J-2882070D01*
G01*
X51045920D01*
Y48342640D01*
X50878280D01*
Y48488760D01*
X50158820D01*
Y48404940D01*
X49991180D01*
Y48488760D01*
X42104710D01*
G75*
G02*
X42113910Y48451540I-70720J-37230D01*
G01*
G75*
G02*
Y48451530I-71620J0D01*
G01*
G75*
G02*
X42090500Y48395030I-79880J0D01*
G01*
G75*
G02*
X41954070Y48451540I-56510J56520D01*
G01*
G75*
G02*
Y48451550I71620J10D01*
G01*
G75*
G02*
X41963260Y48488760I79880J10D01*
G01*
X41538200D01*
G75*
G02*
X41523010Y48470370I-103790J70260D01*
G01*
G75*
G02*
X41330520Y48488760I-88650J88650D01*
G01*
X40033470D01*
G37*
X40114340Y48631140D02*
G36*
X40114340Y48631140D02*
G75*
G03*
X40033470Y48488760I5608690J-3279820D01*
G01*
X41330520D01*
G75*
G02*
X41308990Y48559010I103830J70250D01*
G01*
G75*
G02*
Y48559020I286480J10D01*
G01*
G75*
G02*
Y48559040I127320J10D01*
G01*
G75*
G02*
X41331810Y48631140I125320J0D01*
G01*
X40114340D01*
G37*
X41559730Y48559030D02*
G36*
X41559730Y48559030D02*
G75*
G02*
Y48559020I-286480J0D01*
G01*
G75*
G02*
Y48559000I-127320J-10D01*
G01*
G75*
G02*
X41538200Y48488760I-125320J-10D01*
G01*
X41963260D01*
G75*
G02*
X41977480Y48508050I70690J-37220D01*
G01*
G75*
G02*
X42104710Y48488760I56510J-56520D01*
G01*
X49991180D01*
Y48572580D01*
X50158820D01*
Y48488760D01*
X50878280D01*
Y48510280D01*
X51045920D01*
Y48488760D01*
X51406490D01*
G75*
G03*
X51325620Y48631140I-5689560J-3137440D01*
G01*
X51045920D01*
Y48596640D01*
X50878280D01*
Y48631140D01*
X42293510D01*
G75*
G02*
Y48631130I-71620J0D01*
G01*
G75*
G02*
X42270100Y48574630I-79880J0D01*
G01*
G75*
G02*
X42133670Y48631140I-56510J56520D01*
G01*
X41536910D01*
G75*
G02*
X41559730Y48559030I-102540J-72120D01*
G01*
G37*
X40181120Y48742760D02*
G36*
X40181120Y48742760D02*
G75*
G03*
X40114340Y48631140I5542150J-3391540D01*
G01*
X41331810D01*
G75*
G02*
X41345710Y48647670I102500J-72090D01*
G01*
G75*
G02*
X41536910Y48631140I88650J-88640D01*
G01*
X42133670D01*
G75*
G02*
Y48631150I71620J10D01*
G01*
G75*
G02*
X42157080Y48687650I79880J0D01*
G01*
G75*
G02*
X42293510Y48631140I56510J-56520D01*
G01*
X50878280D01*
Y48742760D01*
X50158820D01*
Y48658940D01*
X49991180D01*
Y48742760D01*
X42435200D01*
G75*
G02*
X42351210I-41990J68000D01*
G01*
X42021060D01*
G75*
G02*
X42024100Y48720940I-76880J-21830D01*
G01*
G75*
G02*
Y48720930I-71620J0D01*
G01*
G75*
G02*
X42000690Y48664430I-79880J0D01*
G01*
G75*
G02*
X41864260Y48720940I-56510J56520D01*
G01*
G75*
G02*
Y48720950I71620J10D01*
G01*
G75*
G02*
X41867290Y48742760I79890J20D01*
G01*
X40181120D01*
G37*
X51045920D02*
G36*
X51045920Y48742760D02*
Y48631140D01*
X51325620D01*
G75*
G03*
X51258840Y48742760I-5608930J-3279920D01*
G01*
X51045920D01*
G37*
X40280830Y48900550D02*
G36*
X40280830Y48900550D02*
G75*
G03*
X40181120Y48742760I5442300J-3549470D01*
G01*
X41867290D01*
G75*
G02*
X41887670Y48777450I76850J-21820D01*
G01*
G75*
G02*
X42021060Y48742760I56510J-56520D01*
G01*
X42351210D01*
G75*
G02*
X42313280Y48810750I41990J68000D01*
G01*
G75*
G02*
Y48810760I71620J10D01*
G01*
G75*
G02*
X42336690Y48867260I79880J0D01*
G01*
G75*
G02*
X42473120Y48810750I56510J-56520D01*
G01*
G75*
G02*
Y48810740I-71620J0D01*
G01*
G75*
G02*
X42449710Y48754240I-79880J0D01*
G01*
G75*
G02*
X42435200Y48742760I-56510J56510D01*
G01*
X49991180D01*
Y48826580D01*
X50158820D01*
Y48742760D01*
X50878280D01*
Y48764280D01*
X51045920D01*
Y48742760D01*
X51258840D01*
G75*
G03*
X51159130Y48900550I-5542010J-3391680D01*
G01*
X42203710D01*
G75*
G02*
Y48900540I-71620J0D01*
G01*
G75*
G02*
X42180300Y48844040I-79880J0D01*
G01*
G75*
G02*
X42043870Y48900550I-56510J56520D01*
G01*
X40280830D01*
G37*
X40340460Y48990350D02*
G36*
X40340460Y48990350D02*
G75*
G03*
X40280830Y48900550I5380320J-3637400D01*
G01*
X42043870D01*
G75*
G02*
Y48900560I71620J10D01*
G01*
G75*
G02*
X42067280Y48957060I79880J0D01*
G01*
G75*
G02*
X42203710Y48900550I56510J-56520D01*
G01*
X51159130D01*
G75*
G03*
X51099500Y48990350I-5439950J-3547600D01*
G01*
X42652720D01*
G75*
G02*
Y48990340I-71620J0D01*
G01*
G75*
G02*
X42629310Y48933840I-79880J0D01*
G01*
G75*
G02*
X42492880Y48990350I-56510J56520D01*
G01*
X41403190D01*
G75*
G02*
X41377530Y48928390I-87660J10D01*
G01*
G75*
G02*
X41227950Y48990350I-61960J61960D01*
G01*
X40340460D01*
G37*
X40402280Y49080150D02*
G36*
X40402280Y49080150D02*
G75*
G03*
X40340460Y48990350I5322930J-3730580D01*
G01*
X41227950D01*
G75*
G02*
X41253610Y49052310I87660J-10D01*
G01*
G75*
G02*
X41403190Y48990350I61960J-61960D01*
G01*
X42492880D01*
G75*
G02*
Y48990360I71620J10D01*
G01*
G75*
G02*
X42516290Y49046860I79880J0D01*
G01*
G75*
G02*
X42652720Y48990350I56510J-56520D01*
G01*
X51099500D01*
G75*
G03*
X51037680Y49080150I-5384750J-3640780D01*
G01*
X42383310D01*
G75*
G02*
Y49080140I-71620J0D01*
G01*
G75*
G02*
X42359900Y49023640I-79880J0D01*
G01*
G75*
G02*
X42223470Y49080150I-56510J56520D01*
G01*
X40402280D01*
G37*
X40516360Y49237840D02*
G36*
X40516360Y49237840D02*
G75*
G03*
X40402280Y49080150I5204630J-3885380D01*
G01*
X42223470D01*
G75*
G02*
Y49080160I71620J10D01*
G01*
G75*
G02*
X42246880Y49136660I79880J0D01*
G01*
G75*
G02*
X42383310Y49080150I56510J-56520D01*
G01*
X51037680D01*
G75*
G03*
X50923600Y49237840I-5318710J-3727690D01*
G01*
X42559860D01*
G75*
G02*
X42539510Y49203250I-76820J21910D01*
G01*
G75*
G02*
X42406150Y49237840I-56510J56520D01*
G01*
X41066930D01*
G75*
G02*
X41042000Y49177650I-85160J10D01*
G01*
G75*
G02*
X40896690Y49237840I-60190J60190D01*
G01*
X40516360D01*
G37*
X40655400Y49417440D02*
G36*
X40655400Y49417440D02*
G75*
G03*
X40516360Y49237840I5064850J-4064650D01*
G01*
X40896690D01*
G75*
G02*
X40921620Y49298030I85160J-10D01*
G01*
G75*
G02*
X41066930Y49237840I60190J-60190D01*
G01*
X42406150D01*
G75*
G02*
X42403080Y49259760I76860J21940D01*
G01*
G75*
G02*
Y49259770I71620J10D01*
G01*
G75*
G02*
X42426490Y49316270I79880J0D01*
G01*
G75*
G02*
X42562920Y49259760I56510J-56520D01*
G01*
G75*
G02*
Y49259750I-71620J0D01*
G01*
G75*
G02*
X42559860Y49237840I-79890J-10D01*
G01*
X50923600D01*
G75*
G03*
X50784560Y49417440I-5203890J-3885050D01*
G01*
X41246540D01*
G75*
G02*
X41221610Y49357250I-85160J10D01*
G01*
G75*
G02*
X41076300Y49417440I-60190J60190D01*
G01*
X40655400D01*
G37*
X40986420Y49798580D02*
G36*
X40986420Y49798580D02*
G75*
G03*
X40655400Y49417440I4733860J-4445670D01*
G01*
X41076300D01*
G75*
G02*
X41101230Y49477630I85160J-10D01*
G01*
G75*
G02*
X41246540Y49417440I60190J-60190D01*
G01*
X50784560D01*
G75*
G03*
X50453540Y49798580I-5064880J-4064530D01*
G01*
X42595190D01*
G75*
G02*
X42680490Y49679790I-40060J-118790D01*
G01*
G75*
G02*
Y49679780I-286480J0D01*
G01*
G75*
G02*
Y49679760I-127320J-10D01*
G01*
G75*
G02*
X42643770Y49591130I-125320J0D01*
G01*
G75*
G02*
X42429750Y49679770I-88650J88640D01*
G01*
G75*
G02*
Y49679780I286480J10D01*
G01*
G75*
G02*
Y49679800I127320J10D01*
G01*
G75*
G02*
X42466470Y49768430I125320J0D01*
G01*
G75*
G02*
X42515060Y49798580I88650J-88650D01*
G01*
X42211410D01*
G75*
G02*
X42185750Y49736620I-87660J10D01*
G01*
G75*
G02*
X42036170Y49798580I-61960J61960D01*
G01*
X40986420D01*
G37*
X41136050Y49952720D02*
G36*
X41136050Y49952720D02*
G75*
G03*
X40986420Y49798580I4585220J-4600760D01*
G01*
X42036170D01*
G75*
G02*
X42061830Y49860540I87660J-10D01*
G01*
G75*
G02*
X42211410Y49798580I61960J-61960D01*
G01*
X42515060D01*
G75*
G02*
X42595190I40070J-118800D01*
G01*
X50453540D01*
G75*
G03*
X50303910Y49952720I-4734850J-4446620D01*
G01*
X41781820D01*
G75*
G02*
X41756890Y49892530I-85160J10D01*
G01*
G75*
G02*
X41611580Y49952720I-60190J60190D01*
G01*
X41136050D01*
G37*
X41323630Y50132330D02*
G36*
X41323630Y50132330D02*
G75*
G03*
X41136050Y49952720I4397490J-4780380D01*
G01*
X41611580D01*
G75*
G02*
X41636510Y50012910I85160J-10D01*
G01*
G75*
G02*
X41781820Y49952720I60190J-60190D01*
G01*
X50303910D01*
G75*
G03*
X50116330Y50132330I-4585070J-4600770D01*
G01*
X41961420D01*
G75*
G02*
X41936490Y50072140I-85160J10D01*
G01*
G75*
G02*
X41791180Y50132330I-60190J60190D01*
G01*
X41323630D01*
G37*
G36*
X41323630Y50132330D02*
X41791180D01*
G75*
G02*
X41816110Y50192520I85160J-10D01*
G01*
G75*
G02*
X41961420Y50132330I60190J-60190D01*
G01*
X50116330D01*
G75*
G03*
X49395210Y50706760I-4396550J-4779430D01*
G01*
X49033620D01*
Y50599140D01*
G75*
G02*
Y50599130I-114590J0D01*
G01*
G75*
G02*
X48883620Y50449140I-150000J0D01*
G01*
X48668380D01*
G75*
G02*
X48518380Y50599130I0J149990D01*
G01*
G75*
G02*
Y50599140I114590J10D01*
G01*
Y50706760D01*
X42930120D01*
Y50599140D01*
G75*
G02*
Y50599130I-114590J0D01*
G01*
G75*
G02*
X42780120Y50449140I-150000J0D01*
G01*
X42564880D01*
G75*
G02*
X42414880Y50599130I0J149990D01*
G01*
G75*
G02*
Y50599140I114590J10D01*
G01*
Y50706760D01*
X42044750D01*
G75*
G03*
X41323630Y50132330I3675430J-5353860D01*
G01*
G37*
X42044750Y50706760D02*
G36*
X42044750Y50706760D02*
X42414880D01*
Y50814380D01*
G75*
G02*
Y50814390I114590J10D01*
G01*
G75*
G02*
X42564880Y50964380I150000J0D01*
G01*
X42780120D01*
G75*
G02*
X42930120Y50814390I0J-149990D01*
G01*
G75*
G02*
Y50814380I-114590J0D01*
G01*
Y50706760D01*
X48518380D01*
Y50814380D01*
G75*
G02*
Y50814390I114590J10D01*
G01*
G75*
G02*
X48668380Y50964380I150000J0D01*
G01*
X48883620D01*
G75*
G02*
X49033620Y50814390I0J-149990D01*
G01*
G75*
G02*
Y50814380I-114590J0D01*
G01*
Y50706760D01*
X49395210D01*
G75*
G03*
X48946180Y50988760I-3675770J-5354450D01*
G01*
X46718250D01*
G75*
G02*
X46623000Y50893510I-95250J0D01*
G01*
G75*
G02*
X46527750Y50988760I0J95250D01*
G01*
X46464250D01*
G75*
G02*
X46369000Y50893510I-95250J0D01*
G01*
G75*
G02*
X46273750Y50988760I0J95250D01*
G01*
X46210250D01*
G75*
G02*
X46115000Y50893510I-95250J0D01*
G01*
G75*
G02*
X46019750Y50988760I0J95250D01*
G01*
X45956250D01*
G75*
G02*
X45861000Y50893510I-95250J0D01*
G01*
G75*
G02*
X45765750Y50988760I0J95250D01*
G01*
X45702250D01*
G75*
G02*
X45607000Y50893510I-95250J0D01*
G01*
G75*
G02*
X45511750Y50988760I0J95250D01*
G01*
X45448250D01*
G75*
G02*
X45353000Y50893510I-95250J0D01*
G01*
G75*
G02*
X45257750Y50988760I0J95250D01*
G01*
X45194250D01*
G75*
G02*
X45099000Y50893510I-95250J0D01*
G01*
G75*
G02*
X45003750Y50988760I0J95250D01*
G01*
X44940250D01*
Y50893510D01*
X44749750D01*
Y50988760D01*
X43413090D01*
G75*
G02*
X43422270Y50947960I-86070J-40800D01*
G01*
G75*
G02*
X43362700Y50859650I-95270J20D01*
G01*
G75*
G02*
X43231770Y50947960I-35680J88320D01*
G01*
G75*
G02*
X43240960Y50988760I95270J-20D01*
G01*
X42493780D01*
G75*
G03*
X42044750Y50706760I3226740J-5636450D01*
G01*
G37*
X42984840Y51242760D02*
G36*
X42984840Y51242760D02*
G75*
G03*
X42493780Y50988760I2735480J-5890200D01*
G01*
X43240960D01*
G75*
G02*
X43291340Y51036270I86080J-40810D01*
G01*
G75*
G02*
X43413090Y50988760I35680J-88320D01*
G01*
X44749750D01*
Y51084010D01*
X44940250D01*
Y50988760D01*
X45003750D01*
G75*
G02*
X45099000Y51084010I95250J0D01*
G01*
G75*
G02*
X45194250Y50988760I0J-95250D01*
G01*
X45257750D01*
G75*
G02*
X45353000Y51084010I95250J0D01*
G01*
G75*
G02*
X45448250Y50988760I0J-95250D01*
G01*
X45511750D01*
G75*
G02*
X45607000Y51084010I95250J0D01*
G01*
G75*
G02*
X45702250Y50988760I0J-95250D01*
G01*
X45765750D01*
G75*
G02*
X45861000Y51084010I95250J0D01*
G01*
G75*
G02*
X45956250Y50988760I0J-95250D01*
G01*
X46019750D01*
G75*
G02*
X46115000Y51084010I95250J0D01*
G01*
G75*
G02*
X46210250Y50988760I0J-95250D01*
G01*
X46273750D01*
G75*
G02*
X46369000Y51084010I95250J0D01*
G01*
G75*
G02*
X46464250Y50988760I0J-95250D01*
G01*
X46527750D01*
G75*
G02*
X46623000Y51084010I95250J0D01*
G01*
G75*
G02*
X46718250Y50988760I0J-95250D01*
G01*
X48946180D01*
G75*
G03*
X48455120Y51242760I-3226540J-5636200D01*
G01*
X46718250D01*
G75*
G02*
X46623000Y51147510I-95250J0D01*
G01*
G75*
G02*
X46527750Y51242760I0J95250D01*
G01*
X46464250D01*
G75*
G02*
X46369000Y51147510I-95250J0D01*
G01*
G75*
G02*
X46273750Y51242760I0J95250D01*
G01*
X46210250D01*
G75*
G02*
X46115000Y51147510I-95250J0D01*
G01*
G75*
G02*
X46019750Y51242760I0J95250D01*
G01*
X45956250D01*
G75*
G02*
X45861000Y51147510I-95250J0D01*
G01*
G75*
G02*
X45765750Y51242760I0J95250D01*
G01*
X45702250D01*
G75*
G02*
X45607000Y51147510I-95250J0D01*
G01*
G75*
G02*
X45511750Y51242760I0J95250D01*
G01*
X45448250D01*
G75*
G02*
X45353000Y51147510I-95250J0D01*
G01*
G75*
G02*
X45257750Y51242760I0J95250D01*
G01*
X45194250D01*
G75*
G02*
X45099000Y51147510I-95250J0D01*
G01*
G75*
G02*
X45003750Y51242760I0J95250D01*
G01*
X44940250D01*
G75*
G02*
X44845000Y51147510I-95250J0D01*
G01*
G75*
G02*
X44749750Y51242760I0J95250D01*
G01*
X44081300D01*
G75*
G02*
X44085200Y51215800I-91360J-26980D01*
G01*
G75*
G02*
X44025630Y51127490I-95270J20D01*
G01*
G75*
G02*
X43894700Y51215800I-35680J88320D01*
G01*
G75*
G02*
X43898600Y51242760I95270J-20D01*
G01*
X42984840D01*
G37*
G36*
X42984840Y51242760D02*
X43898600D01*
G75*
G02*
X43954270Y51304110I91370J-26980D01*
G01*
G75*
G02*
X44081300Y51242760I35680J-88320D01*
G01*
X44749750D01*
G75*
G02*
X44845000Y51338010I95250J0D01*
G01*
G75*
G02*
X44940250Y51242760I0J-95250D01*
G01*
X45003750D01*
G75*
G02*
X45099000Y51338010I95250J0D01*
G01*
G75*
G02*
X45194250Y51242760I0J-95250D01*
G01*
X45257750D01*
G75*
G02*
X45353000Y51338010I95250J0D01*
G01*
G75*
G02*
X45448250Y51242760I0J-95250D01*
G01*
X45511750D01*
G75*
G02*
X45607000Y51338010I95250J0D01*
G01*
G75*
G02*
X45702250Y51242760I0J-95250D01*
G01*
X45765750D01*
G75*
G02*
X45861000Y51338010I95250J0D01*
G01*
G75*
G02*
X45956250Y51242760I0J-95250D01*
G01*
X46019750D01*
G75*
G02*
X46115000Y51338010I95250J0D01*
G01*
G75*
G02*
X46210250Y51242760I0J-95250D01*
G01*
X46273750D01*
G75*
G02*
X46369000Y51338010I95250J0D01*
G01*
G75*
G02*
X46464250Y51242760I0J-95250D01*
G01*
X46527750D01*
G75*
G02*
X46623000Y51338010I95250J0D01*
G01*
G75*
G02*
X46718250Y51242760I0J-95250D01*
G01*
X48455120D01*
G75*
G03*
X45720000Y51846890I-2735230J-5889870D01*
G01*
G75*
G03*
X42984840Y51242760I30J-6493830D01*
G01*
G37*
D02*
D126*
X44332600Y47961760D03*
X47110500D03*
D02*
D140*
X50767000Y46991760D03*
Y47641760D03*
X51217000Y46991760D03*
Y47641760D03*
D02*
D153*
X40279000Y43084760D03*
X41709500Y44335760D03*
X44832500Y47968260D03*
X45086500D03*
X45340500D03*
X45594500D03*
X45848500D03*
X46102500D03*
X46356500D03*
X46610500D03*
X49480000Y42181760D03*
X50075000Y47726760D03*
Y47980760D03*
Y48234760D03*
Y48488760D03*
Y48742760D03*
X50962100Y48426460D03*
Y48680460D03*
X51185000Y43366760D03*
D02*
D154*
X48016500Y40510260D03*
X48524500D03*
X48766000Y44718760D03*
Y45223760D03*
D02*
D158*
X42672500Y50706760D03*
X42681500Y41240760D03*
X48758000Y41254260D03*
X48776000Y50706760D03*
D02*
D159*
X41944180Y48720940D03*
X42033990Y48451540D03*
X42123790Y48900550D03*
X42213590Y48631140D03*
X42303390Y49080150D03*
X42393200Y48810750D03*
X42483000Y49259760D03*
X42572800Y48990350D03*
D02*
D160*
X40981810Y49237840D03*
X41161420Y49417440D03*
X41696700Y49952720D03*
X41876300Y50132330D03*
D02*
D161*
X41434360Y48559020D03*
X42555120Y49679780D03*
D02*
D162*
X41315570Y48990350D03*
X42123790Y49798580D03*
D02*
D165*
X44845000Y50988760D03*
D02*
D166*
X43327020Y50947960D03*
X43989950Y51215800D03*
X44845000Y51242760D03*
X45099000Y50988760D03*
Y51242760D03*
X45353000Y50988760D03*
Y51242760D03*
X45607000Y50988760D03*
Y51242760D03*
X45861000Y50988760D03*
Y51242760D03*
X46115000Y50988760D03*
Y51242760D03*
X46369000Y50988760D03*
Y51242760D03*
X46623000Y50988760D03*
Y51242760D03*
D02*
D167*
X40140500Y45446260D03*
X40664500D03*
X47992000Y39970260D03*
X48516000D03*
X49638500Y45335260D03*
X50162500D03*
D02*
D171*
X42919500Y39964260D03*
X43427500D03*
D02*
D173*
X39849500Y44898760D03*
X40354500D03*
D02*
D227*
X47827000Y41890260D03*
X48987000Y42388760D03*
Y42498860D03*
Y42608860D03*
Y42718860D03*
Y42828860D03*
Y42938860D03*
Y43048860D03*
Y43158860D03*
D02*
D228*
X47804500Y43255360D03*
X47870500D03*
D02*
D229*
X49192000Y43245260D03*
D02*
D230*
X48529000Y43280360D03*
D02*
D231*
X48021000D03*
D02*
D232*
X48419500Y41887760D03*
D02*
D233*
X49217000Y41915860D03*
X0Y0D02*
M02*
