G04 DesignSpark PCB Gerber Version 12.0 Build 5942*
%FSLAX35Y35*%
%MOMM*%
%ADD220R,0.25400X1.04140*%
%ADD17C,0.00001*%
%ADD224R,1.04840X0.49840*%
%ADD219R,1.19840X0.54840*%
%ADD223R,1.49840X0.54840*%
%ADD222R,2.03840X0.54840*%
%ADD225R,1.39840X1.05840*%
%ADD221R,1.69840X1.24840*%
X0Y0D02*
D02*
D17*
X39226240Y45353160D02*
G75*
G03*
X42721570Y39593110I6493710J-20D01*
G01*
X43713650D01*
Y45516760D01*
G75*
G02*
X45520000Y47323110I1806350J0D01*
G01*
X45917500D01*
G75*
G02*
X47723850Y45516760I0J-1806350D01*
G01*
Y45156810D01*
G75*
G02*
X47726350Y45151760I-3850J-5050D01*
G01*
Y39593110D01*
X48718430D01*
G75*
G03*
X52213720Y45353140I-2998470J5760040D01*
G01*
G75*
G03*
X45720000Y51846890I-6493720J0D01*
G01*
G75*
G03*
X39226240Y45353160I0J-6493730D01*
G01*
X47762000Y41922760D02*
X47892000D01*
Y41857760D01*
X47762000D01*
Y41922760D01*
X47786720Y43312510D02*
X47822280D01*
Y43198210D01*
X47786720D01*
Y43312510D01*
X47852720D02*
X47888280D01*
Y43198210D01*
X47852720D01*
Y43312510D01*
X47941000Y43312860D02*
X48101000D01*
Y43247860D01*
X47941000D01*
Y43312860D01*
X48362000Y41917760D02*
X48477000D01*
Y41857760D01*
X48362000D01*
Y41917760D01*
X48422000Y43312860D02*
X48636000D01*
Y43247860D01*
X48422000D01*
Y43312860D01*
X48922000Y42421260D02*
X49052000D01*
Y42356260D01*
X48922000D01*
Y42421260D01*
Y42531360D02*
X49052000D01*
Y42466360D01*
X48922000D01*
Y42531360D01*
Y42641360D02*
X49052000D01*
Y42576360D01*
X48922000D01*
Y42641360D01*
Y42751360D02*
X49052000D01*
Y42686360D01*
X48922000D01*
Y42751360D01*
Y42861360D02*
X49052000D01*
Y42796360D01*
X48922000D01*
Y42861360D01*
Y42971360D02*
X49052000D01*
Y42906360D01*
X48922000D01*
Y42971360D01*
Y43081360D02*
X49052000D01*
Y43016360D01*
X48922000D01*
Y43081360D01*
Y43191360D02*
X49052000D01*
Y43126360D01*
X48922000D01*
Y43191360D01*
X49102000Y43312760D02*
X49282000D01*
Y43177760D01*
X49102000D01*
Y43312760D01*
X49142000Y41973860D02*
X49292000D01*
Y41857860D01*
X49142000D01*
Y41973860D01*
X40226620Y41890260D02*
G36*
X40226620Y41890260D02*
G75*
G03*
X42721570Y39593110I5493380J3462930D01*
G01*
X43713650D01*
Y41890260D01*
X40226620D01*
G37*
X47726350D02*
G36*
X47726350Y41890260D02*
Y39593110D01*
X48718430D01*
G75*
G03*
X51213340Y41890260I-2998600J5760170D01*
G01*
X49292000D01*
Y41857860D01*
X49142000D01*
Y41890260D01*
X48477000D01*
Y41857760D01*
X48362000D01*
Y41890260D01*
X47892000D01*
Y41857760D01*
X47762000D01*
Y41890260D01*
X47726350D01*
G37*
X39942350Y42388760D02*
G36*
X39942350Y42388760D02*
G75*
G03*
X40226620Y41890260I5778660J2964980D01*
G01*
X43713650D01*
Y42388760D01*
X39942350D01*
G37*
X47726350D02*
G36*
X47726350Y42388760D02*
Y41890260D01*
X47762000D01*
Y41922760D01*
X47892000D01*
Y41890260D01*
X48362000D01*
Y41917760D01*
X48477000D01*
Y41890260D01*
X49142000D01*
Y41973860D01*
X49292000D01*
Y41890260D01*
X51213340D01*
G75*
G03*
X51497610Y42388760I-5494390J3463480D01*
G01*
X49052000D01*
Y42356260D01*
X48922000D01*
Y42388760D01*
X47726350D01*
G37*
X39887170Y42498860D02*
G36*
X39887170Y42498860D02*
G75*
G03*
X39942350Y42388760I5836130J2856080D01*
G01*
X43713650D01*
Y42498860D01*
X39887170D01*
G37*
X47726350D02*
G36*
X47726350Y42498860D02*
Y42388760D01*
X48922000D01*
Y42421260D01*
X49052000D01*
Y42388760D01*
X51497610D01*
G75*
G03*
X51552790Y42498860I-5780950J2966180D01*
G01*
X49052000D01*
Y42466360D01*
X48922000D01*
Y42498860D01*
X47726350D01*
G37*
X39834620Y42608860D02*
G36*
X39834620Y42608860D02*
G75*
G03*
X39887170Y42498860I5888930J2745750D01*
G01*
X43713650D01*
Y42608860D01*
X39834620D01*
G37*
X47726350D02*
G36*
X47726350Y42608860D02*
Y42498860D01*
X48922000D01*
Y42531360D01*
X49052000D01*
Y42498860D01*
X51552790D01*
G75*
G03*
X51605340Y42608860I-5836380J2855750D01*
G01*
X49052000D01*
Y42576360D01*
X48922000D01*
Y42608860D01*
X47726350D01*
G37*
X39784560Y42718860D02*
G36*
X39784560Y42718860D02*
G75*
G03*
X39834620Y42608860I5937180J2635570D01*
G01*
X43713650D01*
Y42718860D01*
X39784560D01*
G37*
X47726350D02*
G36*
X47726350Y42718860D02*
Y42608860D01*
X48922000D01*
Y42641360D01*
X49052000D01*
Y42608860D01*
X51605340D01*
G75*
G03*
X51655390Y42718860I-5887130J2745030D01*
G01*
X49052000D01*
Y42686360D01*
X48922000D01*
Y42718860D01*
X47726350D01*
G37*
X39736950Y42828860D02*
G36*
X39736950Y42828860D02*
G75*
G03*
X39784560Y42718860I5986300J2525680D01*
G01*
X43713650D01*
Y42828860D01*
X39736950D01*
G37*
X47726350D02*
G36*
X47726350Y42828860D02*
Y42718860D01*
X48922000D01*
Y42751360D01*
X49052000D01*
Y42718860D01*
X51655390D01*
G75*
G03*
X51703000Y42828860I-5938690J2635680D01*
G01*
X49052000D01*
Y42796360D01*
X48922000D01*
Y42828860D01*
X47726350D01*
G37*
X39691730Y42938860D02*
G36*
X39691730Y42938860D02*
G75*
G03*
X39736950Y42828860I6030580J2414820D01*
G01*
X43713650D01*
Y42938860D01*
X39691730D01*
G37*
X47726350D02*
G36*
X47726350Y42938860D02*
Y42828860D01*
X48922000D01*
Y42861360D01*
X49052000D01*
Y42828860D01*
X51703000D01*
G75*
G03*
X51748230Y42938860I-5985350J2525370D01*
G01*
X49052000D01*
Y42906360D01*
X48922000D01*
Y42938860D01*
X47726350D01*
G37*
X39648830Y43048860D02*
G36*
X39648830Y43048860D02*
G75*
G03*
X39691730Y42938860I6075590J2306120D01*
G01*
X43713650D01*
Y43048860D01*
X39648830D01*
G37*
X47726350D02*
G36*
X47726350Y43048860D02*
Y42938860D01*
X48922000D01*
Y42971360D01*
X49052000D01*
Y42938860D01*
X51748230D01*
G75*
G03*
X51791130Y43048860I-6032690J2416120D01*
G01*
X49052000D01*
Y43016360D01*
X48922000D01*
Y43048860D01*
X47726350D01*
G37*
X39608210Y43158860D02*
G36*
X39608210Y43158860D02*
G75*
G03*
X39648830Y43048860I6115440J2195770D01*
G01*
X43713650D01*
Y43158860D01*
X39608210D01*
G37*
X47726350D02*
G36*
X47726350Y43158860D02*
Y43048860D01*
X48922000D01*
Y43081360D01*
X49052000D01*
Y43048860D01*
X51791130D01*
G75*
G03*
X51831750Y43158860I-6074820J2305770D01*
G01*
X49052000D01*
Y43126360D01*
X48922000D01*
Y43158860D01*
X47726350D01*
G37*
X39574420Y43255360D02*
G36*
X39574420Y43255360D02*
G75*
G03*
X39608210Y43158860I6146530J2098070D01*
G01*
X43713650D01*
Y43255360D01*
X39574420D01*
G37*
X47726350D02*
G36*
X47726350Y43255360D02*
Y43158860D01*
X48922000D01*
Y43191360D01*
X49052000D01*
Y43158860D01*
X51831750D01*
G75*
G03*
X51865540Y43255360I-6112740J2194570D01*
G01*
X49282000D01*
Y43177760D01*
X49102000D01*
Y43255360D01*
X48636000D01*
Y43247860D01*
X48422000D01*
Y43255360D01*
X48101000D01*
Y43247860D01*
X47941000D01*
Y43255360D01*
X47888280D01*
Y43198210D01*
X47852720D01*
Y43255360D01*
X47822280D01*
Y43198210D01*
X47786720D01*
Y43255360D01*
X47726350D01*
G37*
X39226240Y45353160D02*
G36*
X39226240Y45353160D02*
Y45353140D01*
G75*
G03*
X39574420Y43255360I6493830J30D01*
G01*
X43713650D01*
Y45516760D01*
G75*
G02*
X45520000Y47323110I1806350J0D01*
G01*
X45917500D01*
G75*
G02*
X47723850Y45516760I0J-1806350D01*
G01*
Y45156810D01*
G75*
G02*
X47726350Y45151760I-3850J-5050D01*
G01*
Y43255360D01*
X47786720D01*
Y43312510D01*
X47822280D01*
Y43255360D01*
X47852720D01*
Y43312510D01*
X47888280D01*
Y43255360D01*
X47941000D01*
Y43312860D01*
X48101000D01*
Y43255360D01*
X48422000D01*
Y43312860D01*
X48636000D01*
Y43255360D01*
X49102000D01*
Y43312760D01*
X49282000D01*
Y43255360D01*
X51865540D01*
G75*
G03*
X52213720Y45353140I-6145650J2097810D01*
G01*
G75*
G03*
X45720000Y51846890I-6493790J-40D01*
G01*
G75*
G03*
X39226240Y45353160I40J-6493800D01*
G01*
G37*
D02*
D219*
X47827000Y41890260D03*
X48987000Y42388760D03*
Y42498860D03*
Y42608860D03*
Y42718860D03*
Y42828860D03*
Y42938860D03*
Y43048860D03*
Y43158860D03*
D02*
D220*
X47804500Y43255360D03*
X47870500D03*
D02*
D221*
X49192000Y43245260D03*
D02*
D222*
X48529000Y43280360D03*
D02*
D223*
X48021000D03*
D02*
D224*
X48419500Y41887760D03*
D02*
D225*
X49217000Y41915860D03*
X0Y0D02*
M02*
