G04 DesignSpark PCB Gerber Version 12.0 Build 5942*
%FSLAX35Y35*%
%MOIN*%
%ADD283C,0.00300*%
%ADD12C,0.00394*%
%ADD11C,0.00500*%
X0Y0D02*
D02*
D11*
X213226Y433404D02*
X223463D01*
Y426711D01*
X213226D01*
Y433404D01*
Y440096D02*
X223463D01*
Y433404D01*
X213226D01*
Y440096D01*
X223463Y433404D02*
X236455D01*
Y426711D01*
X223463D01*
Y433404D01*
Y440096D02*
X236455D01*
Y433404D01*
X223463D01*
Y440096D01*
X236455Y433404D02*
X248266D01*
Y426711D01*
X236455D01*
Y433404D01*
Y440096D02*
X248266D01*
Y433404D01*
X236455D01*
Y440096D01*
X248266Y433404D02*
X262045D01*
Y426711D01*
X248266D01*
Y433404D01*
Y440096D02*
X262045D01*
Y433404D01*
X248266D01*
Y440096D01*
X262045Y433404D02*
X270313D01*
Y426711D01*
X262045D01*
Y433404D01*
Y440096D02*
X270313D01*
Y433404D01*
X262045D01*
Y440096D01*
X270313Y433404D02*
X278187D01*
Y426711D01*
X270313D01*
Y433404D01*
Y440096D02*
X278187D01*
Y433404D01*
X270313D01*
Y440096D01*
X278187Y433404D02*
X291573D01*
Y426711D01*
X278187D01*
Y433404D01*
Y440096D02*
X291573D01*
Y433404D01*
X278187D01*
Y440096D01*
X291573Y433404D02*
X304565D01*
Y426711D01*
X291573D01*
Y433404D01*
Y440096D02*
X304565D01*
Y433404D01*
X291573D01*
Y440096D01*
X365341Y119797D02*
X365654Y119485D01*
X365966Y118860D01*
X365654Y118235D01*
X365341Y117922D01*
X362216D01*
Y117297D01*
Y117922D02*
Y119172D01*
X365966Y114172D02*
Y112922D01*
Y113547D02*
X362216D01*
X362841Y114172D01*
D02*
D12*
X337967Y95360D02*
Y142211D01*
X343478Y92337D02*
X358833D01*
X351746Y147163D02*
X361589Y147230D01*
X366707Y92337D02*
X389344Y92309D01*
X373006Y147230D02*
X387967D01*
X385407Y89848D02*
G75*
G02*
Y90242I0J197D01*
G01*
Y89848D02*
G75*
G03*
Y90242I0J197D01*
G01*
X395447Y141423D02*
Y97722D01*
D02*
D283*
X33337Y244524D02*
X33962Y244836D01*
X34899D01*
X35524Y244524D01*
X35837Y243898D01*
Y243586D01*
X35524Y242961D01*
X34899Y242648D01*
X33337D01*
Y241086D01*
X35837D01*
X38337D02*
X39899Y244836D01*
X41462Y241086D01*
X53649Y244524D02*
X54274Y244836D01*
X54899D01*
X55524Y244524D01*
X55837Y243898D01*
Y242024D01*
X55524Y241398D01*
X54899Y241086D01*
X54274D01*
X53649Y241398D01*
X53337Y242024D01*
Y243898D01*
X53649Y244524D01*
X55524Y241398D01*
X58337Y241086D02*
X59899Y244836D01*
X61462Y241086D01*
X165178Y149234D02*
X165400Y149013D01*
X165621Y148570D01*
X165400Y148127D01*
X165178Y147906D01*
X162963D01*
Y147463D01*
Y147906D02*
Y148791D01*
Y145691D02*
X165621D01*
Y143476D01*
X165178Y139933D02*
X165400Y140154D01*
X165621Y140597D01*
Y141262D01*
X165400Y141705D01*
X165178Y141926D01*
X164735Y142148D01*
X163849D01*
X163406Y141926D01*
X163185Y141705D01*
X162963Y141262D01*
Y140597D01*
X163185Y140154D01*
X163406Y139933D01*
X165178Y138604D02*
X165400Y138383D01*
X165621Y137940D01*
X165400Y137497D01*
X165178Y137276D01*
X162963D01*
Y136833D01*
Y137276D02*
Y138161D01*
Y135061D02*
X165621D01*
Y132846D01*
X165178Y129303D02*
X165400Y129524D01*
X165621Y129967D01*
Y130632D01*
X165400Y131075D01*
X165178Y131296D01*
X164735Y131518D01*
X163849D01*
X163406Y131296D01*
X163185Y131075D01*
X162963Y130632D01*
Y129967D01*
X163185Y129524D01*
X163406Y129303D01*
X165178Y127974D02*
X165400Y127753D01*
X165621Y127310D01*
X165400Y126867D01*
X165178Y126646D01*
X162963D01*
Y126203D01*
Y126646D02*
Y127531D01*
Y124431D02*
X165621D01*
Y122217D01*
X165178Y118673D02*
X165400Y118894D01*
X165621Y119337D01*
Y120002D01*
X165400Y120445D01*
X165178Y120666D01*
X164735Y120888D01*
X163849D01*
X163406Y120666D01*
X163185Y120445D01*
X162963Y120002D01*
Y119337D01*
X163185Y118894D01*
X163406Y118673D01*
X171715Y173014D02*
X169058D01*
X170387Y171906D01*
X169058Y170799D01*
X171715D01*
Y168585D02*
X169944D01*
X169280D02*
X170608Y164156D02*
X170165Y164377D01*
X169944Y164820D01*
Y165263D01*
X170165Y165706D01*
X170608Y165927D01*
X171051D01*
X171494Y165706D01*
X171715Y165263D01*
Y164820D01*
X171494Y164377D01*
X171051Y164156D01*
X171715D02*
X169058D01*
X171715Y161276D02*
Y161498D01*
X169058D01*
X170165Y158841D02*
X169944Y158398D01*
Y157733D01*
X170165Y157290D01*
X170608Y157069D01*
X171272D01*
X171494Y157290D01*
X171715Y157733D01*
Y158176D01*
X171494Y158619D01*
X171272Y158841D01*
X171051D01*
X170830Y158619D01*
X170608Y158176D01*
Y157733D01*
X170830Y157290D01*
X171051Y157069D01*
X171272D02*
X171715D01*
Y155297D02*
X169944D01*
X170608D02*
X170165Y155076D01*
X169944Y154633D01*
Y154190D01*
X170165Y153747D01*
X170608Y153526D01*
X171715D01*
X170608Y149982D02*
X170165Y150204D01*
X169944Y150646D01*
Y151089D01*
X170165Y151532D01*
X170608Y151754D01*
X171051D01*
X171494Y151532D01*
X171715Y151089D01*
Y150646D01*
X171494Y150204D01*
X171051Y149982D01*
X171715D02*
X169058D01*
X171494Y148211D02*
X171715Y147768D01*
Y146882D01*
X171494Y146439D01*
X171051D01*
X170830Y146882D01*
Y147768D01*
X170608Y148211D01*
X170165D01*
X169944Y147768D01*
Y146882D01*
X170165Y146439D01*
X171715Y141124D02*
X169058D01*
Y138909D01*
X170387Y139352D02*
Y141124D01*
X171715D02*
Y138909D01*
Y136473D02*
Y136695D01*
X169058D01*
X171494Y132266D02*
X171715Y132487D01*
Y132930D01*
Y133373D01*
X171494Y133816D01*
X171051Y134037D01*
X170387D01*
X170165Y133816D01*
X169944Y133373D01*
Y132930D01*
X170165Y132487D01*
X170387Y132266D01*
X170608D01*
X170830Y132487D01*
X171051Y132930D01*
Y133373D01*
X170830Y133816D01*
X170608Y134037D01*
X170165Y128722D02*
X169944Y129165D01*
Y129830D01*
X170165Y130272D01*
X170608Y130494D01*
X171051D01*
X171494Y130272D01*
X171715Y129830D01*
Y129165D01*
X171494Y128722D01*
X169944Y126581D02*
Y125548D01*
X169501Y126065D02*
X171494D01*
X171715Y125843D01*
Y125622D01*
X171494Y125400D01*
X171715Y123407D02*
X169944D01*
X170608D02*
X170165Y123186D01*
X169944Y122743D01*
Y122300D01*
X170165Y121857D01*
X171051Y119864D02*
X171494Y119643D01*
X171715Y119200D01*
Y118757D01*
X171494Y118314D01*
X171051Y118093D01*
X170608D01*
X170165Y118314D01*
X169944Y118757D01*
Y119200D01*
X170165Y119643D01*
X170608Y119864D01*
X171051D01*
X171715Y116321D02*
X169944D01*
X170608D02*
X170165Y116099D01*
X169944Y115656D01*
Y115213D01*
X170165Y114770D01*
X170608Y114549D01*
X171715D01*
Y111892D02*
X169944D01*
X169280D02*
X170165Y107463D02*
X169944Y107906D01*
Y108570D01*
X170165Y109013D01*
X170608Y109234D01*
X171051D01*
X171494Y109013D01*
X171715Y108570D01*
Y107906D01*
X171494Y107463D01*
X171051Y102148D02*
X171494Y101926D01*
X171715Y101483D01*
Y100597D01*
X171494Y100154D01*
X171051Y99933D01*
X170608Y100154D01*
X170387Y100597D01*
Y101483D01*
X170165Y101926D01*
X169722Y102148D01*
X169280Y101926D01*
X169058Y101483D01*
Y100597D01*
X169280Y100154D01*
X169722Y99933D01*
X171051Y98604D02*
X171494Y98383D01*
X171715Y97940D01*
Y97497D01*
X171494Y97054D01*
X171051Y96833D01*
X170608D01*
X170165Y97054D01*
X169944Y97497D01*
Y97940D01*
X170165Y98383D01*
X170608Y98604D01*
X171051D01*
X171715Y93954D02*
Y94175D01*
X169058D01*
X169944Y91518D02*
X171051D01*
X171494Y91296D01*
X171715Y90853D01*
Y90410D01*
X171494Y89967D01*
X171051Y89746D01*
X169944D02*
X171715D01*
X169944Y87605D02*
Y86572D01*
X169501Y87089D02*
X171494D01*
X171715Y86867D01*
Y86646D01*
X171494Y86424D01*
X171715Y83545D02*
X169944D01*
X169280D02*
X171051Y80888D02*
X171494Y80666D01*
X171715Y80223D01*
Y79780D01*
X171494Y79337D01*
X171051Y79116D01*
X170608D01*
X170165Y79337D01*
X169944Y79780D01*
Y80223D01*
X170165Y80666D01*
X170608Y80888D01*
X171051D01*
X171715Y77344D02*
X169944D01*
X170608D02*
X170165Y77123D01*
X169944Y76680D01*
Y76237D01*
X170165Y75794D01*
X170608Y75573D01*
X171715D01*
X171494Y73801D02*
X171715Y73358D01*
Y72472D01*
X171494Y72030D01*
X171051D01*
X170830Y72472D01*
Y73358D01*
X170608Y73801D01*
X170165D01*
X169944Y73358D01*
Y72472D01*
X170165Y72030D01*
X218932Y436356D02*
X218268D01*
Y436135D01*
X218489Y435692D01*
X218711Y435470D01*
X219154Y435249D01*
X219596D01*
X220039Y435470D01*
X220261Y435692D01*
X220482Y436135D01*
Y437021D01*
X220261Y437464D01*
X220039Y437685D01*
X219596Y437907D01*
X219154D01*
X218711Y437685D01*
X218489Y437464D01*
X218268Y437021D01*
X216496Y435249D02*
X215610D01*
X216053D02*
Y437907D01*
X216496Y437464D01*
X220553Y428544D02*
Y431202D01*
X219003D01*
X218560Y430980D01*
X218339Y430537D01*
X218560Y430094D01*
X219003Y429873D01*
X220553D01*
X219003D02*
X218339Y428544D01*
X216567D02*
X215681D01*
X216124D02*
Y431202D01*
X216567Y430759D01*
X220314Y323990D02*
X222307D01*
X222750Y323769D01*
X222971Y323326D01*
Y322440D01*
X222750Y321997D01*
X222307Y321776D01*
X220314D01*
X222971Y320004D02*
Y319118D01*
Y319561D02*
X220314D01*
X220757Y320004D01*
X222971Y315796D02*
X220314D01*
Y316904D02*
Y314689D01*
X222971Y313360D02*
X220314Y311146D01*
Y313360D02*
X222971Y311146D01*
X229790Y429873D02*
X229347Y429652D01*
X229126Y429209D01*
X229347Y428766D01*
X229790Y428544D01*
X231341D01*
Y431202D01*
X229790D01*
X229347Y430980D01*
X229126Y430537D01*
X229347Y430094D01*
X229790Y429873D01*
X231341D01*
X227354Y428544D02*
X226469D01*
X226911D02*
Y431202D01*
X227354Y430759D01*
X233188Y436356D02*
X232524D01*
Y436135D01*
X232745Y435692D01*
X232967Y435470D01*
X233409Y435249D01*
X233852D01*
X234295Y435470D01*
X234517Y435692D01*
X234738Y436135D01*
Y437021D01*
X234517Y437464D01*
X234295Y437685D01*
X233852Y437907D01*
X233409D01*
X232967Y437685D01*
X232745Y437464D01*
X232524Y437021D01*
X231195Y435249D02*
Y437907D01*
X228980Y435249D01*
Y437907D01*
X227652Y435249D02*
Y437907D01*
X226323D01*
X225880Y437685D01*
X225658Y437464D01*
X225437Y437021D01*
Y436135D01*
X225658Y435692D01*
X225880Y435470D01*
X226323Y435249D01*
X227652D01*
X230180Y323990D02*
X232173D01*
X232616Y323769D01*
X232837Y323326D01*
Y322440D01*
X232616Y321997D01*
X232173Y321776D01*
X230180D01*
X232837Y320004D02*
Y319118D01*
Y319561D02*
X230180D01*
X230623Y320004D01*
X232837Y316904D02*
X230180D01*
Y315353D01*
X230402Y314910D01*
X230844Y314689D01*
X231287Y314910D01*
X231509Y315353D01*
Y316904D01*
Y315353D02*
X232837Y314689D01*
Y313360D02*
X230180Y311146D01*
Y313360D02*
X232837Y311146D01*
X243829Y428544D02*
Y431202D01*
X242278D01*
X241835Y430980D01*
X241614Y430537D01*
X241835Y430094D01*
X242278Y429873D01*
X243829D01*
X242278D02*
X241614Y428544D01*
X238514D02*
X240285D01*
X238735Y430094D01*
X238514Y430537D01*
X238735Y430980D01*
X239178Y431202D01*
X239843D01*
X240285Y430980D01*
X242668Y436356D02*
X242004D01*
Y436135D01*
X242225Y435692D01*
X242447Y435470D01*
X242890Y435249D01*
X243333D01*
X243776Y435470D01*
X243997Y435692D01*
X244219Y436135D01*
Y437021D01*
X243997Y437464D01*
X243776Y437685D01*
X243333Y437907D01*
X242890D01*
X242447Y437685D01*
X242225Y437464D01*
X242004Y437021D01*
X238904Y435249D02*
X240675D01*
X239125Y436799D01*
X238904Y437242D01*
X239125Y437685D01*
X239568Y437907D01*
X240232D01*
X240675Y437685D01*
X242811Y323990D02*
X243254Y323769D01*
X243475Y323326D01*
Y322440D01*
X243254Y321997D01*
X242811Y321776D01*
X242368Y321997D01*
X242146Y322440D01*
Y323326D01*
X241925Y323769D01*
X241482Y323990D01*
X241039Y323769D01*
X240818Y323326D01*
Y322440D01*
X241039Y321997D01*
X241482Y321776D01*
X243032Y318232D02*
X243254Y318454D01*
X243475Y318896D01*
Y319561D01*
X243254Y320004D01*
X243032Y320225D01*
X242589Y320447D01*
X241704D01*
X241261Y320225D01*
X241039Y320004D01*
X240818Y319561D01*
Y318896D01*
X241039Y318454D01*
X241261Y318232D01*
X240818Y316904D02*
X243475D01*
Y314689D01*
X243254Y313360D02*
X243475Y312917D01*
Y312253D01*
X243254Y311810D01*
X242811Y311589D01*
X242589D01*
X242146Y311810D01*
X241925Y312253D01*
Y313360D01*
X240818D01*
Y311589D01*
X254456Y429873D02*
X254013Y429652D01*
X253791Y429209D01*
X254013Y428766D01*
X254456Y428544D01*
X256006D01*
Y431202D01*
X254456D01*
X254013Y430980D01*
X253791Y430537D01*
X254013Y430094D01*
X254456Y429873D01*
X256006D01*
X250691Y428544D02*
X252463D01*
X250912Y430094D01*
X250691Y430537D01*
X250912Y430980D01*
X251355Y431202D01*
X252020D01*
X252463Y430980D01*
X252520Y323990D02*
X252963Y323769D01*
X253184Y323326D01*
Y322440D01*
X252963Y321997D01*
X252520Y321776D01*
X252077Y321997D01*
X251855Y322440D01*
Y323326D01*
X251634Y323769D01*
X251191Y323990D01*
X250748Y323769D01*
X250526Y323326D01*
Y322440D01*
X250748Y321997D01*
X251191Y321776D01*
X253184Y320447D02*
X250526D01*
Y319118D01*
X250748Y318675D01*
X250969Y318454D01*
X251412Y318232D01*
X252298D01*
X252741Y318454D01*
X252963Y318675D01*
X253184Y319118D01*
Y320447D01*
Y316904D02*
X250526Y315796D01*
X253184Y314689D01*
X252077Y316461D02*
Y315132D01*
X252963Y313360D02*
X253184Y312917D01*
Y312253D01*
X252963Y311810D01*
X252520Y311589D01*
X252298D01*
X251855Y311810D01*
X251634Y312253D01*
Y313360D01*
X250526D01*
Y311589D01*
X258152Y436356D02*
X257488D01*
Y436135D01*
X257709Y435692D01*
X257931Y435470D01*
X258374Y435249D01*
X258817D01*
X259260Y435470D01*
X259481Y435692D01*
X259703Y436135D01*
Y437021D01*
X259481Y437464D01*
X259260Y437685D01*
X258817Y437907D01*
X258374D01*
X257931Y437685D01*
X257709Y437464D01*
X257488Y437021D01*
X256159Y435249D02*
Y437907D01*
X253945Y435249D01*
Y437907D01*
X252616Y435249D02*
Y437907D01*
X251287D01*
X250844Y437685D01*
X250623Y437464D01*
X250402Y437021D01*
Y436135D01*
X250623Y435692D01*
X250844Y435470D01*
X251287Y435249D01*
X252616D01*
X263004Y323990D02*
X263447Y323769D01*
X263668Y323326D01*
Y322440D01*
X263447Y321997D01*
X263004Y321776D01*
X262561Y321997D01*
X262339Y322440D01*
Y323326D01*
X262118Y323769D01*
X261675Y323990D01*
X261232Y323769D01*
X261011Y323326D01*
Y322440D01*
X261232Y321997D01*
X261675Y321776D01*
X263225Y318232D02*
X263447Y318454D01*
X263668Y318896D01*
Y319561D01*
X263447Y320004D01*
X263225Y320225D01*
X262782Y320447D01*
X261896D01*
X261454Y320225D01*
X261232Y320004D01*
X261011Y319561D01*
Y318896D01*
X261232Y318454D01*
X261454Y318232D01*
X263668Y316904D02*
X261011D01*
X262339D02*
Y316239D01*
X261011Y314689D01*
X262339Y316239D02*
X263668Y314689D01*
Y312253D02*
X261011D01*
X262782Y313360D01*
Y311589D01*
X267333Y428544D02*
X266225Y431202D01*
X265118Y428544D01*
X266890Y429652D02*
X265561D01*
X266483Y436578D02*
X266040Y436356D01*
X265819Y435913D01*
X266040Y435470D01*
X266483Y435249D01*
X268033D01*
Y437907D01*
X266483D01*
X266040Y437685D01*
X265819Y437242D01*
X266040Y436799D01*
X266483Y436578D01*
X268033D01*
X273291Y428987D02*
X273513Y428766D01*
X273956Y428544D01*
X274620D01*
X275063Y428766D01*
X275284Y428987D01*
X275506Y429430D01*
Y430316D01*
X275284Y430759D01*
X275063Y430980D01*
X274620Y431202D01*
X273956D01*
X273513Y430980D01*
X273291Y430759D01*
X272559Y323990D02*
X273002Y323769D01*
X273223Y323326D01*
Y322440D01*
X273002Y321997D01*
X272559Y321776D01*
X272116Y321997D01*
X271894Y322440D01*
Y323326D01*
X271673Y323769D01*
X271230Y323990D01*
X270787Y323769D01*
X270566Y323326D01*
Y322440D01*
X270787Y321997D01*
X271230Y321776D01*
X273223Y320447D02*
X270566D01*
Y319118D01*
X270787Y318675D01*
X271009Y318454D01*
X271452Y318232D01*
X272337D01*
X272780Y318454D01*
X273002Y318675D01*
X273223Y319118D01*
Y320447D01*
X272337Y316904D02*
X271452D01*
X271009Y316682D01*
X270787Y316461D01*
X270566Y316018D01*
Y315575D01*
X270787Y315132D01*
X271009Y314910D01*
X271452Y314689D01*
X272337D01*
X272780Y314910D01*
X273002Y315132D01*
X273223Y315575D01*
Y316018D01*
X273002Y316461D01*
X272780Y316682D01*
X272337Y316904D01*
X273223Y312253D02*
X270566D01*
X272337Y313360D01*
Y311589D01*
X276207Y435249D02*
Y437907D01*
X274878D01*
X274435Y437685D01*
X274213Y437464D01*
X273992Y437021D01*
Y436135D01*
X274213Y435692D01*
X274435Y435470D01*
X274878Y435249D01*
X276207D01*
X288919Y437907D02*
Y435249D01*
X286705D01*
X285376D02*
X284269Y437907D01*
X283161Y435249D01*
X284933Y436356D02*
X283604D01*
X280725Y435249D02*
Y437907D01*
X281833D02*
X279618D01*
X286854Y428987D02*
X287076Y428766D01*
X287519Y428544D01*
X288183D01*
X288626Y428766D01*
X288847Y428987D01*
X289069Y429430D01*
Y430316D01*
X288847Y430759D01*
X288626Y430980D01*
X288183Y431202D01*
X287519D01*
X287076Y430980D01*
X286854Y430759D01*
X285526Y431202D02*
Y428544D01*
X283311D01*
X281982D02*
Y431202D01*
Y429873D02*
X281318D01*
X279768Y431202D01*
X281318Y429873D02*
X279768Y428544D01*
X282579Y323990D02*
X283022Y323769D01*
X283243Y323326D01*
Y322440D01*
X283022Y321997D01*
X282579Y321776D01*
X282136Y321997D01*
X281914Y322440D01*
Y323326D01*
X281693Y323769D01*
X281250Y323990D01*
X280807Y323769D01*
X280585Y323326D01*
Y322440D01*
X280807Y321997D01*
X281250Y321776D01*
X283243Y320447D02*
X280585D01*
Y319118D01*
X280807Y318675D01*
X281028Y318454D01*
X281471Y318232D01*
X282357D01*
X282800Y318454D01*
X283022Y318675D01*
X283243Y319118D01*
Y320447D01*
Y316239D02*
Y315353D01*
Y315796D02*
X280585D01*
Y316239D02*
Y315353D01*
X283243Y312253D02*
X280585D01*
X282357Y313360D01*
Y311589D01*
X292598Y323762D02*
X293041Y323540D01*
X293263Y323097D01*
Y322211D01*
X293041Y321769D01*
X292598Y321547D01*
X292156Y321769D01*
X291934Y322211D01*
Y323097D01*
X291713Y323540D01*
X291270Y323762D01*
X290827Y323540D01*
X290605Y323097D01*
Y322211D01*
X290827Y321769D01*
X291270Y321547D01*
X292598Y320219D02*
X293041Y319997D01*
X293263Y319554D01*
Y318668D01*
X293041Y318225D01*
X292598Y318004D01*
X292156Y318225D01*
X291934Y318668D01*
Y319554D01*
X291713Y319997D01*
X291270Y320219D01*
X290827Y319997D01*
X290605Y319554D01*
Y318668D01*
X290827Y318225D01*
X291270Y318004D01*
X293263Y315568D02*
X290605D01*
X292377Y316675D01*
Y314904D01*
X301542Y436356D02*
X300878D01*
Y436135D01*
X301099Y435692D01*
X301321Y435470D01*
X301764Y435249D01*
X302207D01*
X302650Y435470D01*
X302871Y435692D01*
X303093Y436135D01*
Y437021D01*
X302871Y437464D01*
X302650Y437685D01*
X302207Y437907D01*
X301764D01*
X301321Y437685D01*
X301099Y437464D01*
X300878Y437021D01*
X299549Y435249D02*
Y437907D01*
X297335Y435249D01*
Y437907D01*
X296006Y435249D02*
Y437907D01*
X294677D01*
X294234Y437685D01*
X294013Y437464D01*
X293791Y437021D01*
Y436135D01*
X294013Y435692D01*
X294234Y435470D01*
X294677Y435249D01*
X296006D01*
X302557Y429430D02*
Y430316D01*
X302335Y430759D01*
X302114Y430980D01*
X301671Y431202D01*
X301228D01*
X300785Y430980D01*
X300564Y430759D01*
X300343Y430316D01*
Y429430D01*
X300564Y428987D01*
X300785Y428766D01*
X301228Y428544D01*
X301671D01*
X302114Y428766D01*
X302335Y428987D01*
X302557Y429430D01*
X299014Y428544D02*
Y431202D01*
X296799D01*
X297242Y429873D02*
X299014D01*
Y428544D02*
X296799D01*
X303171Y429820D02*
Y430706D01*
X302950Y431149D01*
X302728Y431370D01*
X302285Y431592D01*
X301843D01*
X301400Y431370D01*
X301178Y431149D01*
X300957Y430706D01*
Y429820D01*
X301178Y429377D01*
X301400Y429156D01*
X301843Y428934D01*
X302285D01*
X302728Y429156D01*
X302950Y429377D01*
X303171Y429820D01*
X299628Y428934D02*
Y431592D01*
X297413D01*
X297856Y430263D02*
X299628D01*
Y428934D02*
X297413D01*
X340199Y8368D02*
X337699D01*
X339886Y6180D01*
X340199Y5555D01*
X339886Y4930D01*
X339261Y4618D01*
X338324D01*
X337699Y4930D01*
X344261Y8368D02*
Y4618D01*
X342699Y7118D01*
X345199D01*
X347699Y4618D02*
X349261Y8368D01*
X350824Y4618D01*
X364886Y6805D02*
X365824D01*
Y7118D01*
X365511Y7743D01*
X365199Y8055D01*
X364574Y8368D01*
X363949D01*
X363324Y8055D01*
X363011Y7743D01*
X362699Y7118D01*
Y5868D01*
X363011Y5243D01*
X363324Y4930D01*
X363949Y4618D01*
X364574D01*
X365199Y4930D01*
X365511Y5243D01*
X365824Y5868D01*
X367699Y8368D02*
Y4618D01*
X370824Y8368D01*
Y4618D01*
X372699Y8368D02*
Y4618D01*
X374574D01*
X375199Y4930D01*
X375511Y5243D01*
X375824Y5868D01*
Y7118D01*
X375511Y7743D01*
X375199Y8055D01*
X374574Y8368D01*
X372699D01*
X407376Y237807D02*
X408001Y238120D01*
X408939D01*
X409563Y237807D01*
X409876Y237182D01*
Y236870D01*
X409563Y236244D01*
X408939Y235932D01*
X407376D01*
Y234370D01*
X409876D01*
X412376D02*
X413939Y238120D01*
X415501Y234370D01*
X427689Y237807D02*
X428313Y238120D01*
X428939D01*
X429563Y237807D01*
X429876Y237182D01*
Y235307D01*
X429563Y234682D01*
X428939Y234370D01*
X428313D01*
X427689Y234682D01*
X427376Y235307D01*
Y237182D01*
X427689Y237807D01*
X429563Y234682D01*
X432376Y234370D02*
X433939Y238120D01*
X435501Y234370D01*
X0Y0D02*
M02*
