G04 DesignSpark PCB Gerber Version 12.0 Build 5942*
%FSLAX35Y35*%
%MOMM*%
%ADD17C,0.00001*%
%ADD226C,0.07620*%
%ADD12C,0.10000*%
%ADD11C,0.12700*%
X0Y0D02*
D02*
D11*
X44623600Y50550860D02*
X44883600D01*
Y50380860D01*
X44623600D01*
Y50550860D01*
Y50720860D02*
X44883600D01*
Y50550860D01*
X44623600D01*
Y50720860D01*
X44883600Y50550860D02*
X45213600D01*
Y50380860D01*
X44883600D01*
Y50550860D01*
Y50720860D02*
X45213600D01*
Y50550860D01*
X44883600D01*
Y50720860D01*
X45213600Y50550860D02*
X45513600D01*
Y50380860D01*
X45213600D01*
Y50550860D01*
Y50720860D02*
X45513600D01*
Y50550860D01*
X45213600D01*
Y50720860D01*
X45513600Y50550860D02*
X45863600D01*
Y50380860D01*
X45513600D01*
Y50550860D01*
Y50720860D02*
X45863600D01*
Y50550860D01*
X45513600D01*
Y50720860D01*
X45863600Y50550860D02*
X46073600D01*
Y50380860D01*
X45863600D01*
Y50550860D01*
Y50720860D02*
X46073600D01*
Y50550860D01*
X45863600D01*
Y50720860D01*
X46073600Y50550860D02*
X46273600D01*
Y50380860D01*
X46073600D01*
Y50550860D01*
Y50720860D02*
X46273600D01*
Y50550860D01*
X46073600D01*
Y50720860D01*
X46273600Y50550860D02*
X46613600D01*
Y50380860D01*
X46273600D01*
Y50550860D01*
Y50720860D02*
X46613600D01*
Y50550860D01*
X46273600D01*
Y50720860D01*
X46613600Y50550860D02*
X46943600D01*
Y50380860D01*
X46613600D01*
Y50550860D01*
Y50720860D02*
X46943600D01*
Y50550860D01*
X46613600D01*
Y50720860D01*
X48487310Y42585260D02*
X48495250Y42577320D01*
X48503190Y42561450D01*
X48495250Y42545570D01*
X48487310Y42537630D01*
X48407940D01*
Y42521760D01*
Y42537630D02*
Y42569380D01*
X48503190Y42442380D02*
Y42410630D01*
Y42426510D02*
X48407940D01*
X48423810Y42442380D01*
D02*
D12*
X47792000Y41964560D02*
Y43154560D01*
X47932000Y41887760D02*
X48322000D01*
X48142000Y43280360D02*
X48392000Y43282060D01*
X48522000Y41887760D02*
X49097000Y41887060D01*
X48682000Y43282060D02*
X49062000D01*
X48997000Y41824560D02*
G75*
G02*
Y41834560I0J5000D01*
G01*
Y41824560D02*
G75*
G03*
Y41834560I0J5000D01*
G01*
X49252000Y43134560D02*
Y42024560D01*
D02*
D17*
X39226240Y45353160D02*
G75*
G03*
X42721570Y39593110I6493710J-20D01*
G01*
X43713650D01*
Y45516760D01*
G75*
G02*
X45520000Y47323110I1806350J0D01*
G01*
X45917500D01*
G75*
G02*
X47723850Y45516760I0J-1806350D01*
G01*
Y45156810D01*
G75*
G02*
X47726350Y45151760I-3850J-5050D01*
G01*
Y39593110D01*
X48718430D01*
G75*
G03*
X48767160Y39618740I-2997200J5757680D01*
G01*
X47781390D01*
G75*
G02*
X47777580Y39622550I0J3810D01*
G01*
Y39782570D01*
G75*
G02*
X47781390Y39786380I3810J0D01*
G01*
X48805010D01*
G75*
G02*
X48808820Y39782570I0J-3810D01*
G01*
Y39641070D01*
G75*
G03*
X52213720Y45353140I-3088880J5712090D01*
G01*
G75*
G03*
X45720000Y51846890I-6493720J0D01*
G01*
G75*
G03*
X39226240Y45353160I0J-6493730D01*
G01*
X47787000Y41964560D02*
Y43154560D01*
G75*
G02*
X47797000I5000J0D01*
G01*
Y41964560D01*
G75*
G02*
X47787000I-5000J0D01*
G01*
X47932000Y41892760D02*
X48322000D01*
G75*
G02*
X48327000Y41887760I0J-5000D01*
G01*
G75*
G02*
X48322000Y41882760I-5000J0D01*
G01*
X47932000D01*
G75*
G02*
X47927000Y41887760I0J5000D01*
G01*
G75*
G02*
X47932000Y41892760I5000J0D01*
G01*
X48141970Y43285360D02*
X48391970Y43287060D01*
G75*
G02*
X48397000Y43282060I30J-5000D01*
G01*
G75*
G02*
X48392030Y43277060I-5000J0D01*
G01*
X48142030Y43275360D01*
G75*
G02*
X48137000Y43280360I-30J5000D01*
G01*
G75*
G02*
X48141970Y43285360I5000J0D01*
G01*
X48361900Y42324910D02*
Y42591610D01*
G75*
G02*
X48368250Y42597960I6350J0D01*
G01*
X48533350D01*
G75*
G02*
X48539700Y42591610I0J-6350D01*
G01*
Y42324910D01*
G75*
G02*
X48533350Y42318560I-6350J0D01*
G01*
X48368250D01*
G75*
G02*
X48361900Y42324910I0J6350D01*
G01*
X48522010Y41892760D02*
X49097010Y41892060D01*
G75*
G02*
X49102000Y41887060I0J-5000D01*
G01*
G75*
G02*
X49096990Y41882060I-5010J0D01*
G01*
X48521990Y41882760D01*
G75*
G02*
X48517000Y41887760I0J5000D01*
G01*
G75*
G02*
X48522010Y41892760I5010J0D01*
G01*
X48991000Y41837560D02*
G75*
G02*
X48997000Y41839560I3500J-500D01*
G01*
G75*
G02*
X49003000Y41837560I2500J-2500D01*
G01*
G75*
G02*
X49007000Y41829560I-6000J-8000D01*
G01*
G75*
G02*
X49003000Y41821560I-10000J0D01*
G01*
G75*
G02*
X48997000Y41819560I-3500J500D01*
G01*
G75*
G02*
X48991000Y41821560I-2500J2500D01*
G01*
G75*
G02*
X48987000Y41829560I6000J8000D01*
G01*
G75*
G02*
X48991000Y41837560I10000J0D01*
G01*
X48682000Y43287060D02*
X49062000D01*
G75*
G02*
X49067000Y43282060I0J-5000D01*
G01*
G75*
G02*
X49062000Y43277060I-5000J0D01*
G01*
X48682000D01*
G75*
G02*
X48677000Y43282060I0J5000D01*
G01*
G75*
G02*
X48682000Y43287060I5000J0D01*
G01*
X49247000Y42024560D02*
Y43134560D01*
G75*
G02*
X49257000I5000J0D01*
G01*
Y42024560D01*
G75*
G02*
X49247000I-5000J0D01*
G01*
X49547380Y45458250D02*
Y45618270D01*
G75*
G02*
X49551190Y45622080I3810J0D01*
G01*
X50320810D01*
G75*
G02*
X50324620Y45618270I0J-3810D01*
G01*
Y45458250D01*
G75*
G02*
X50320810Y45454440I-3810J0D01*
G01*
X49551190D01*
G75*
G02*
X49547380Y45458250I0J3810D01*
G01*
X40046780Y45628850D02*
Y45788870D01*
G75*
G02*
X40050590Y45792680I3810J0D01*
G01*
X40820210D01*
G75*
G02*
X40824020Y45788870I0J-3810D01*
G01*
Y45628850D01*
G75*
G02*
X40820210Y45625040I-3810J0D01*
G01*
X40050590D01*
G75*
G02*
X40046780Y45628850I0J3810D01*
G01*
X43315680Y42519150D02*
Y43336770D01*
G75*
G02*
X43319490Y43340580I3810J0D01*
G01*
X43435110D01*
G75*
G02*
X43438920Y43336770I0J-3810D01*
G01*
Y42519150D01*
G75*
G02*
X43435110Y42515340I-3810J0D01*
G01*
X43319490D01*
G75*
G02*
X43315680Y42519150I0J3810D01*
G01*
X43470480Y41323150D02*
Y43940770D01*
G75*
G02*
X43474290Y43944580I3810J0D01*
G01*
X43589910D01*
G75*
G02*
X43593720Y43940770I0J-3810D01*
G01*
Y41323150D01*
G75*
G02*
X43589910Y41319340I-3810J0D01*
G01*
X43474290D01*
G75*
G02*
X43470480Y41323150I0J3810D01*
G01*
X44617250Y50550860D02*
Y50720860D01*
G75*
G02*
X44619110Y50725350I6350J0D01*
G01*
G75*
G02*
X44623600Y50727210I4490J-4490D01*
G01*
X44883600D01*
X45213600D01*
X45513600D01*
X45863600D01*
X46073600D01*
X46273600D01*
X46613600D01*
X46943600D01*
G75*
G02*
X46948090Y50725350I0J-6350D01*
G01*
G75*
G02*
X46949950Y50720860I-4490J-4490D01*
G01*
Y50550860D01*
Y50380860D01*
G75*
G02*
X46943600Y50374510I-6350J0D01*
G01*
X46613600D01*
X46273600D01*
X46073600D01*
X45863600D01*
X45513600D01*
X45213600D01*
X44883600D01*
X44623600D01*
G75*
G02*
X44617250Y50380860I0J6350D01*
G01*
Y50550860D01*
X46303280Y47407950D02*
Y47775570D01*
G75*
G02*
X46307090Y47779380I3810J0D01*
G01*
X46422710D01*
G75*
G02*
X46426520Y47775570I0J-3810D01*
G01*
Y47407950D01*
G75*
G02*
X46422710Y47404140I-3810J0D01*
G01*
X46307090D01*
G75*
G02*
X46303280Y47407950I0J3810D01*
G01*
X46557780Y47492150D02*
Y47769770D01*
G75*
G02*
X46561590Y47773580I3810J0D01*
G01*
X46677210D01*
G75*
G02*
X46681020Y47769770I0J-3810D01*
G01*
Y47492150D01*
G75*
G02*
X46677210Y47488340I-3810J0D01*
G01*
X46561590D01*
G75*
G02*
X46557780Y47492150I0J3810D01*
G01*
X46048780Y47407950D02*
Y47775570D01*
G75*
G02*
X46052590Y47779380I3810J0D01*
G01*
X46168210D01*
G75*
G02*
X46172020Y47775570I0J-3810D01*
G01*
Y47407950D01*
G75*
G02*
X46168210Y47404140I-3810J0D01*
G01*
X46052590D01*
G75*
G02*
X46048780Y47407950I0J3810D01*
G01*
X45539780D02*
Y47775570D01*
G75*
G02*
X45543590Y47779380I3810J0D01*
G01*
X45659210D01*
G75*
G02*
X45663020Y47775570I0J-3810D01*
G01*
Y47407950D01*
G75*
G02*
X45659210Y47404140I-3810J0D01*
G01*
X45543590D01*
G75*
G02*
X45539780Y47407950I0J3810D01*
G01*
X45806080D02*
Y47775570D01*
G75*
G02*
X45809890Y47779380I3810J0D01*
G01*
X45925510D01*
G75*
G02*
X45929320Y47775570I0J-3810D01*
G01*
Y47407950D01*
G75*
G02*
X45925510Y47404140I-3810J0D01*
G01*
X45809890D01*
G75*
G02*
X45806080Y47407950I0J3810D01*
G01*
X45293180D02*
Y47775570D01*
G75*
G02*
X45296990Y47779380I3810J0D01*
G01*
X45412610D01*
G75*
G02*
X45416420Y47775570I0J-3810D01*
G01*
Y47407950D01*
G75*
G02*
X45412610Y47404140I-3810J0D01*
G01*
X45296990D01*
G75*
G02*
X45293180Y47407950I0J3810D01*
G01*
X45022980D02*
Y47775570D01*
G75*
G02*
X45026790Y47779380I3810J0D01*
G01*
X45142410D01*
G75*
G02*
X45146220Y47775570I0J-3810D01*
G01*
Y47407950D01*
G75*
G02*
X45142410Y47404140I-3810J0D01*
G01*
X45026790D01*
G75*
G02*
X45022980Y47407950I0J3810D01*
G01*
X44772380D02*
Y47775570D01*
G75*
G02*
X44776190Y47779380I3810J0D01*
G01*
X44891810D01*
G75*
G02*
X44895620Y47775570I0J-3810D01*
G01*
Y47407950D01*
G75*
G02*
X44891810Y47404140I-3810J0D01*
G01*
X44776190D01*
G75*
G02*
X44772380Y47407950I0J3810D01*
G01*
X40265350Y41829560D02*
G36*
X40265350Y41829560D02*
G75*
G03*
X42721570Y39593110I5454750J3523750D01*
G01*
X43713650D01*
Y41829560D01*
X43593720D01*
Y41323150D01*
G75*
G02*
X43589910Y41319340I-3810J0D01*
G01*
X43474290D01*
G75*
G02*
X43470480Y41323150I0J3810D01*
G01*
Y41829560D01*
X40265350D01*
G37*
X47726350D02*
G36*
X47726350Y41829560D02*
Y39593110D01*
X48718430D01*
G75*
G03*
X48767160Y39618740I-2900900J5574580D01*
G01*
X47781390D01*
G75*
G02*
X47777580Y39622550I0J3810D01*
G01*
Y39782570D01*
G75*
G02*
X47781390Y39786380I3810J0D01*
G01*
X48805010D01*
G75*
G02*
X48808820Y39782570I0J-3810D01*
G01*
Y39641070D01*
G75*
G03*
X51174600Y41829560I-3088970J5712170D01*
G01*
X49007000D01*
G75*
G02*
X49003000Y41821560I-10040J20D01*
G01*
G75*
G02*
X48997000Y41819560I-3500J510D01*
G01*
G75*
G02*
X48991000Y41821560I-2500J2510D01*
G01*
G75*
G02*
X48987000Y41829560I6040J8020D01*
G01*
X47726350D01*
G37*
X40228200Y41887760D02*
G36*
X40228200Y41887760D02*
G75*
G03*
X40265350Y41829560I5494080J3466000D01*
G01*
X43470480D01*
Y41887760D01*
X40228200D01*
G37*
X43593720D02*
G36*
X43593720Y41887760D02*
Y41829560D01*
X43713650D01*
Y41887760D01*
X43593720D01*
G37*
X47726350D02*
G36*
X47726350Y41887760D02*
Y41829560D01*
X48987000D01*
G75*
G02*
X48991000Y41837560I10040J-20D01*
G01*
G75*
G02*
X48997000Y41839560I3500J-510D01*
G01*
G75*
G02*
X49003000Y41837560I2500J-2510D01*
G01*
G75*
G02*
X49007000Y41829560I-6040J-8020D01*
G01*
X51174600D01*
G75*
G03*
X51211760Y41887760I-5456930J3525140D01*
G01*
X49101950D01*
G75*
G02*
X49102000Y41887080I-4900J-700D01*
G01*
G75*
G02*
Y41887060I-6590J-10D01*
G01*
G75*
G02*
Y41887040I-6590J-10D01*
G01*
G75*
G02*
X49096990Y41882060I-4980J0D01*
G01*
X48521990Y41882760D01*
G75*
G02*
X48517000Y41887740I0J4980D01*
G01*
G75*
G02*
Y41887760I6590J10D01*
G01*
X48327000D01*
G75*
G02*
Y41887740I-6590J-10D01*
G01*
G75*
G02*
X48322000Y41882760I-5000J0D01*
G01*
X47932000D01*
G75*
G02*
X47927000Y41887740I0J4980D01*
G01*
G75*
G02*
Y41887760I6590J10D01*
G01*
X47726350D01*
G37*
X39857860Y42559560D02*
G36*
X39857860Y42559560D02*
G75*
G03*
X40228200Y41887760I5862440J2793780D01*
G01*
X43470480D01*
Y42559560D01*
X43438920D01*
Y42519150D01*
G75*
G02*
X43435110Y42515340I-3810J0D01*
G01*
X43319490D01*
G75*
G02*
X43315680Y42519150I0J3810D01*
G01*
Y42559560D01*
X39857860D01*
G37*
X43593720D02*
G36*
X43593720Y42559560D02*
Y41887760D01*
X43713650D01*
Y42559560D01*
X43593720D01*
G37*
X47726350D02*
G36*
X47726350Y42559560D02*
Y41887760D01*
X47927000D01*
G75*
G02*
Y41887780I6590J10D01*
G01*
G75*
G02*
X47932000Y41892760I5000J0D01*
G01*
X48322000D01*
G75*
G02*
X48327000Y41887780I0J-4980D01*
G01*
G75*
G02*
Y41887760I-6590J-10D01*
G01*
X48517000D01*
G75*
G02*
Y41887780I6590J10D01*
G01*
G75*
G02*
X48522010Y41892760I4980J0D01*
G01*
X49097010Y41892060D01*
G75*
G02*
X49101950Y41887760I0J-4980D01*
G01*
X51211760D01*
G75*
G03*
X51582100Y42559560I-5492100J3465580D01*
G01*
X49257000D01*
Y42024560D01*
G75*
G02*
X49247000I-5000J0D01*
G01*
Y42559560D01*
X48539700D01*
Y42324910D01*
G75*
G02*
X48533350Y42318560I-6350J0D01*
G01*
X48368250D01*
G75*
G02*
X48361900Y42324910I0J6350D01*
G01*
Y42559560D01*
X47797000D01*
Y41964560D01*
G75*
G02*
X47787000I-5000J0D01*
G01*
Y42559560D01*
X47726350D01*
G37*
X39565660Y43281210D02*
G36*
X39565660Y43281210D02*
G75*
G03*
X39857860Y42559560I6154820J2072140D01*
G01*
X43315680D01*
Y43281210D01*
X39565660D01*
G37*
X43438920D02*
G36*
X43438920Y43281210D02*
Y42559560D01*
X43470480D01*
Y43281210D01*
X43438920D01*
G37*
X43593720D02*
G36*
X43593720Y43281210D02*
Y42559560D01*
X43713650D01*
Y43281210D01*
X43593720D01*
G37*
X47726350D02*
G36*
X47726350Y43281210D02*
Y42559560D01*
X47787000D01*
Y43154560D01*
G75*
G02*
X47797000I5000J0D01*
G01*
Y42559560D01*
X48361900D01*
Y42591610D01*
G75*
G02*
X48368250Y42597960I6350J0D01*
G01*
X48533350D01*
G75*
G02*
X48539700Y42591610I0J-6350D01*
G01*
Y42559560D01*
X49247000D01*
Y43134560D01*
G75*
G02*
X49257000I5000J0D01*
G01*
Y42559560D01*
X51582100D01*
G75*
G03*
X51874300Y43281210I-5862620J2793790D01*
G01*
X49066930D01*
G75*
G02*
X49062000Y43277060I-4910J840D01*
G01*
X48682000D01*
G75*
G02*
X48677070Y43281210I-20J4990D01*
G01*
X48396930D01*
G75*
G02*
X48392030Y43277060I-4930J850D01*
G01*
X48142030Y43275360D01*
G75*
G02*
X48137000Y43280360I-30J5000D01*
G01*
G75*
G02*
X48137070Y43281210I5000J20D01*
G01*
X47726350D01*
G37*
X39226240Y45353160D02*
G36*
X39226240Y45353160D02*
Y45353140D01*
G75*
G03*
X39565660Y43281210I6493890J50D01*
G01*
X43315680D01*
Y43336770D01*
G75*
G02*
X43319490Y43340580I3810J0D01*
G01*
X43435110D01*
G75*
G02*
X43438920Y43336770I0J-3810D01*
G01*
Y43281210D01*
X43470480D01*
Y43940770D01*
G75*
G02*
X43474290Y43944580I3810J0D01*
G01*
X43589910D01*
G75*
G02*
X43593720Y43940770I0J-3810D01*
G01*
Y43281210D01*
X43713650D01*
Y45516760D01*
G75*
G02*
X43713780Y45538260I1808940J-190D01*
G01*
X39228880D01*
G75*
G03*
X39226240Y45353160I6492700J-185170D01*
G01*
G37*
X47723850Y45516760D02*
G36*
X47723850Y45516760D02*
Y45156810D01*
G75*
G02*
X47726350Y45151760I-3850J-5050D01*
G01*
Y43281210D01*
X48137070D01*
G75*
G02*
X48141970Y43285360I4930J-850D01*
G01*
X48391970Y43287060D01*
G75*
G02*
X48397000Y43282060I30J-5000D01*
G01*
G75*
G02*
X48396930Y43281210I-5000J-20D01*
G01*
X48677070D01*
G75*
G02*
X48677000Y43282040I4890J830D01*
G01*
G75*
G02*
Y43282060I6590J10D01*
G01*
G75*
G02*
Y43282080I6590J10D01*
G01*
G75*
G02*
X48682000Y43287060I5000J0D01*
G01*
X49062000D01*
G75*
G02*
X49067000Y43282080I0J-4980D01*
G01*
G75*
G02*
Y43282060I-6590J-10D01*
G01*
G75*
G02*
Y43282040I-6590J-10D01*
G01*
G75*
G02*
X49066930Y43281210I-4960J0D01*
G01*
X51874300D01*
G75*
G03*
X52213720Y45353140I-6154470J2071980D01*
G01*
G75*
G03*
X52211080Y45538260I-6496040J-60D01*
G01*
X50324620D01*
Y45458250D01*
G75*
G02*
X50320810Y45454440I-3810J0D01*
G01*
X49551190D01*
G75*
G02*
X49547380Y45458250I0J3810D01*
G01*
Y45538260D01*
X47723720D01*
G75*
G02*
X47723850Y45516760I-1808810J-21690D01*
G01*
G37*
X39235990Y45708860D02*
G36*
X39235990Y45708860D02*
G75*
G03*
X39228880Y45538260I6486550J-355780D01*
G01*
X43713780D01*
G75*
G02*
X43723890Y45708860I1806490J-21460D01*
G01*
X40824020D01*
Y45628850D01*
G75*
G02*
X40820210Y45625040I-3810J0D01*
G01*
X40050590D01*
G75*
G02*
X40046780Y45628850I0J3810D01*
G01*
Y45708860D01*
X39235990D01*
G37*
X47713610D02*
G36*
X47713610Y45708860D02*
G75*
G02*
X47723720Y45538260I-1796380J-192060D01*
G01*
X49547380D01*
Y45618270D01*
G75*
G02*
X49551190Y45622080I3810J0D01*
G01*
X50320810D01*
G75*
G02*
X50324620Y45618270I0J-3810D01*
G01*
Y45538260D01*
X52211080D01*
G75*
G03*
X52203970Y45708860I-6493660J-185180D01*
G01*
X47713610D01*
G37*
X39624320Y47591760D02*
G36*
X39624320Y47591760D02*
G75*
G03*
X39235990Y45708860I6095840J-2238700D01*
G01*
X40046780D01*
Y45788870D01*
G75*
G02*
X40050590Y45792680I3810J0D01*
G01*
X40820210D01*
G75*
G02*
X40824020Y45788870I0J-3810D01*
G01*
Y45708860D01*
X43723890D01*
G75*
G02*
X45520000Y47323110I1796130J-192120D01*
G01*
X45917500D01*
G75*
G02*
X47713610Y45708860I-20J-1806370D01*
G01*
X52203970D01*
G75*
G03*
X51815640Y47591760I-6484170J-355800D01*
G01*
X46681020D01*
Y47492150D01*
G75*
G02*
X46677210Y47488340I-3810J0D01*
G01*
X46561590D01*
G75*
G02*
X46557780Y47492150I0J3810D01*
G01*
Y47591760D01*
X46426520D01*
Y47407950D01*
G75*
G02*
X46422710Y47404140I-3810J0D01*
G01*
X46307090D01*
G75*
G02*
X46303280Y47407950I0J3810D01*
G01*
Y47591760D01*
X46172020D01*
Y47407950D01*
G75*
G02*
X46168210Y47404140I-3810J0D01*
G01*
X46052590D01*
G75*
G02*
X46048780Y47407950I0J3810D01*
G01*
Y47591760D01*
X45929320D01*
Y47407950D01*
G75*
G02*
X45925510Y47404140I-3810J0D01*
G01*
X45809890D01*
G75*
G02*
X45806080Y47407950I0J3810D01*
G01*
Y47591760D01*
X45663020D01*
Y47407950D01*
G75*
G02*
X45659210Y47404140I-3810J0D01*
G01*
X45543590D01*
G75*
G02*
X45539780Y47407950I0J3810D01*
G01*
Y47591760D01*
X45416420D01*
Y47407950D01*
G75*
G02*
X45412610Y47404140I-3810J0D01*
G01*
X45296990D01*
G75*
G02*
X45293180Y47407950I0J3810D01*
G01*
Y47591760D01*
X45146220D01*
Y47407950D01*
G75*
G02*
X45142410Y47404140I-3810J0D01*
G01*
X45026790D01*
G75*
G02*
X45022980Y47407950I0J3810D01*
G01*
Y47591760D01*
X44895620D01*
Y47407950D01*
G75*
G02*
X44891810Y47404140I-3810J0D01*
G01*
X44776190D01*
G75*
G02*
X44772380Y47407950I0J3810D01*
G01*
Y47591760D01*
X39624320D01*
G37*
X41827390Y50550860D02*
G36*
X41827390Y50550860D02*
G75*
G03*
X39624320Y47591760I3892700J-5197790D01*
G01*
X44772380D01*
Y47775570D01*
G75*
G02*
X44776190Y47779380I3810J0D01*
G01*
X44891810D01*
G75*
G02*
X44895620Y47775570I0J-3810D01*
G01*
Y47591760D01*
X45022980D01*
Y47775570D01*
G75*
G02*
X45026790Y47779380I3810J0D01*
G01*
X45142410D01*
G75*
G02*
X45146220Y47775570I0J-3810D01*
G01*
Y47591760D01*
X45293180D01*
Y47775570D01*
G75*
G02*
X45296990Y47779380I3810J0D01*
G01*
X45412610D01*
G75*
G02*
X45416420Y47775570I0J-3810D01*
G01*
Y47591760D01*
X45539780D01*
Y47775570D01*
G75*
G02*
X45543590Y47779380I3810J0D01*
G01*
X45659210D01*
G75*
G02*
X45663020Y47775570I0J-3810D01*
G01*
Y47591760D01*
X45806080D01*
Y47775570D01*
G75*
G02*
X45809890Y47779380I3810J0D01*
G01*
X45925510D01*
G75*
G02*
X45929320Y47775570I0J-3810D01*
G01*
Y47591760D01*
X46048780D01*
Y47775570D01*
G75*
G02*
X46052590Y47779380I3810J0D01*
G01*
X46168210D01*
G75*
G02*
X46172020Y47775570I0J-3810D01*
G01*
Y47591760D01*
X46303280D01*
Y47775570D01*
G75*
G02*
X46307090Y47779380I3810J0D01*
G01*
X46422710D01*
G75*
G02*
X46426520Y47775570I0J-3810D01*
G01*
Y47591760D01*
X46557780D01*
Y47769770D01*
G75*
G02*
X46561590Y47773580I3810J0D01*
G01*
X46677210D01*
G75*
G02*
X46681020Y47769770I0J-3810D01*
G01*
Y47591760D01*
X51815640D01*
G75*
G03*
X49612570Y50550860I-6095770J-2238690D01*
G01*
X46949950D01*
Y50380860D01*
G75*
G02*
X46943600Y50374510I-6350J0D01*
G01*
X46613600D01*
X46273600D01*
X46073600D01*
X45863600D01*
X45513600D01*
X45213600D01*
X44883600D01*
X44623600D01*
G75*
G02*
X44617250Y50380860I0J6350D01*
G01*
Y50550860D01*
X41827390D01*
G37*
G36*
X41827390Y50550860D02*
X44617250D01*
Y50720860D01*
G75*
G02*
Y50720880I8070J10D01*
G01*
G75*
G02*
X44619110Y50725350I6310J0D01*
G01*
G75*
G02*
X44623600Y50727210I4470J-4450D01*
G01*
X44883600D01*
X45213600D01*
X45513600D01*
X45863600D01*
X46073600D01*
X46273600D01*
X46613600D01*
X46943600D01*
G75*
G02*
X46948090Y50725350I20J-6310D01*
G01*
G75*
G02*
X46949950Y50720880I-4450J-4470D01*
G01*
G75*
G02*
Y50720860I-8070J-10D01*
G01*
Y50550860D01*
X49612570D01*
G75*
G03*
X45720000Y51846890I-3892650J-5197790D01*
G01*
G75*
G03*
X41827390Y50550860I60J-6493880D01*
G01*
G37*
X44629950Y50544510D02*
Y50526180D01*
X44813510D01*
G75*
G02*
X44817320Y50522370I0J-3810D01*
G01*
Y50406750D01*
G75*
G02*
X44813510Y50402940I-3810J0D01*
G01*
X44629950D01*
Y50387210D01*
X44877250D01*
Y50544510D01*
X44629950D01*
G36*
X44629950Y50544510D02*
Y50526180D01*
X44813510D01*
G75*
G02*
X44817320Y50522370I0J-3810D01*
G01*
Y50406750D01*
G75*
G02*
X44813510Y50402940I-3810J0D01*
G01*
X44629950D01*
Y50387210D01*
X44877250D01*
Y50544510D01*
X44629950D01*
G37*
Y50714510D02*
Y50696480D01*
X44811710D01*
G75*
G02*
X44815520Y50692670I0J-3810D01*
G01*
Y50577050D01*
G75*
G02*
X44811710Y50573240I-3810J0D01*
G01*
X44629950D01*
Y50557210D01*
X44877250D01*
Y50714510D01*
X44629950D01*
G36*
X44629950Y50714510D02*
Y50696480D01*
X44811710D01*
G75*
G02*
X44815520Y50692670I0J-3810D01*
G01*
Y50577050D01*
G75*
G02*
X44811710Y50573240I-3810J0D01*
G01*
X44629950D01*
Y50557210D01*
X44877250D01*
Y50714510D01*
X44629950D01*
G37*
X44889950Y50544510D02*
Y50387210D01*
X45207250D01*
Y50544510D01*
X44889950D01*
X44896080Y50406750D02*
Y50522370D01*
G75*
G02*
X44899890Y50526180I3810J0D01*
G01*
X45087510D01*
G75*
G02*
X45091320Y50522370I0J-3810D01*
G01*
Y50406750D01*
G75*
G02*
X45087510Y50402940I-3810J0D01*
G01*
X44899890D01*
G75*
G02*
X44896080Y50406750I0J3810D01*
G01*
X44889950Y50464560D02*
G36*
X44889950Y50464560D02*
Y50387210D01*
X45207250D01*
Y50464560D01*
X45091320D01*
Y50406750D01*
G75*
G02*
X45087510Y50402940I-3810J0D01*
G01*
X44899890D01*
G75*
G02*
X44896080Y50406750I0J3810D01*
G01*
Y50464560D01*
X44889950D01*
G37*
Y50544510D02*
G36*
X44889950Y50544510D02*
Y50464560D01*
X44896080D01*
Y50522370D01*
G75*
G02*
X44899890Y50526180I3810J0D01*
G01*
X45087510D01*
G75*
G02*
X45091320Y50522370I0J-3810D01*
G01*
Y50464560D01*
X45207250D01*
Y50544510D01*
X44889950D01*
G37*
Y50714510D02*
Y50557210D01*
X45207250D01*
Y50714510D01*
X44889950D01*
X44892380Y50577050D02*
Y50692670D01*
G75*
G02*
X44896190Y50696480I3810J0D01*
G01*
X45173810D01*
G75*
G02*
X45177620Y50692670I0J-3810D01*
G01*
Y50577050D01*
G75*
G02*
X45173810Y50573240I-3810J0D01*
G01*
X44896190D01*
G75*
G02*
X44892380Y50577050I0J3810D01*
G01*
X44889950Y50634860D02*
G36*
X44889950Y50634860D02*
Y50557210D01*
X45207250D01*
Y50634860D01*
X45177620D01*
Y50577050D01*
G75*
G02*
X45173810Y50573240I-3810J0D01*
G01*
X44896190D01*
G75*
G02*
X44892380Y50577050I0J3810D01*
G01*
Y50634860D01*
X44889950D01*
G37*
Y50714510D02*
G36*
X44889950Y50714510D02*
Y50634860D01*
X44892380D01*
Y50692670D01*
G75*
G02*
X44896190Y50696480I3810J0D01*
G01*
X45173810D01*
G75*
G02*
X45177620Y50692670I0J-3810D01*
G01*
Y50634860D01*
X45207250D01*
Y50714510D01*
X44889950D01*
G37*
X45219950Y50544510D02*
Y50526180D01*
X45404710D01*
G75*
G02*
X45408520Y50522370I0J-3810D01*
G01*
Y50406750D01*
G75*
G02*
X45404710Y50402940I-3810J0D01*
G01*
X45219950D01*
Y50387210D01*
X45507250D01*
Y50544510D01*
X45219950D01*
G36*
X45219950Y50544510D02*
Y50526180D01*
X45404710D01*
G75*
G02*
X45408520Y50522370I0J-3810D01*
G01*
Y50406750D01*
G75*
G02*
X45404710Y50402940I-3810J0D01*
G01*
X45219950D01*
Y50387210D01*
X45507250D01*
Y50544510D01*
X45219950D01*
G37*
Y50714510D02*
Y50557210D01*
X45507250D01*
Y50714510D01*
X45219950D01*
X45223180Y50577050D02*
Y50692670D01*
G75*
G02*
X45226990Y50696480I3810J0D01*
G01*
X45414610D01*
G75*
G02*
X45418420Y50692670I0J-3810D01*
G01*
Y50577050D01*
G75*
G02*
X45414610Y50573240I-3810J0D01*
G01*
X45226990D01*
G75*
G02*
X45223180Y50577050I0J3810D01*
G01*
X45219950Y50634860D02*
G36*
X45219950Y50634860D02*
Y50557210D01*
X45507250D01*
Y50634860D01*
X45418420D01*
Y50577050D01*
G75*
G02*
X45414610Y50573240I-3810J0D01*
G01*
X45226990D01*
G75*
G02*
X45223180Y50577050I0J3810D01*
G01*
Y50634860D01*
X45219950D01*
G37*
Y50714510D02*
G36*
X45219950Y50714510D02*
Y50634860D01*
X45223180D01*
Y50692670D01*
G75*
G02*
X45226990Y50696480I3810J0D01*
G01*
X45414610D01*
G75*
G02*
X45418420Y50692670I0J-3810D01*
G01*
Y50634860D01*
X45507250D01*
Y50714510D01*
X45219950D01*
G37*
X45519950Y50544510D02*
Y50387210D01*
X45857250D01*
Y50544510D01*
X45519950D01*
X45522580Y50406750D02*
Y50522370D01*
G75*
G02*
X45526390Y50526180I3810J0D01*
G01*
X45714010D01*
G75*
G02*
X45717820Y50522370I0J-3810D01*
G01*
Y50406750D01*
G75*
G02*
X45714010Y50402940I-3810J0D01*
G01*
X45526390D01*
G75*
G02*
X45522580Y50406750I0J3810D01*
G01*
X45519950Y50464560D02*
G36*
X45519950Y50464560D02*
Y50387210D01*
X45857250D01*
Y50464560D01*
X45717820D01*
Y50406750D01*
G75*
G02*
X45714010Y50402940I-3810J0D01*
G01*
X45526390D01*
G75*
G02*
X45522580Y50406750I0J3810D01*
G01*
Y50464560D01*
X45519950D01*
G37*
Y50544510D02*
G36*
X45519950Y50544510D02*
Y50464560D01*
X45522580D01*
Y50522370D01*
G75*
G02*
X45526390Y50526180I3810J0D01*
G01*
X45714010D01*
G75*
G02*
X45717820Y50522370I0J-3810D01*
G01*
Y50464560D01*
X45857250D01*
Y50544510D01*
X45519950D01*
G37*
Y50714510D02*
Y50557210D01*
X45857250D01*
Y50714510D01*
X45519950D01*
X45526480Y50577050D02*
Y50692670D01*
G75*
G02*
X45530290Y50696480I3810J0D01*
G01*
X45807910D01*
G75*
G02*
X45811720Y50692670I0J-3810D01*
G01*
Y50577050D01*
G75*
G02*
X45807910Y50573240I-3810J0D01*
G01*
X45530290D01*
G75*
G02*
X45526480Y50577050I0J3810D01*
G01*
X45519950Y50634860D02*
G36*
X45519950Y50634860D02*
Y50557210D01*
X45857250D01*
Y50634860D01*
X45811720D01*
Y50577050D01*
G75*
G02*
X45807910Y50573240I-3810J0D01*
G01*
X45530290D01*
G75*
G02*
X45526480Y50577050I0J3810D01*
G01*
Y50634860D01*
X45519950D01*
G37*
Y50714510D02*
G36*
X45519950Y50714510D02*
Y50634860D01*
X45526480D01*
Y50692670D01*
G75*
G02*
X45530290Y50696480I3810J0D01*
G01*
X45807910D01*
G75*
G02*
X45811720Y50692670I0J-3810D01*
G01*
Y50634860D01*
X45857250D01*
Y50714510D01*
X45519950D01*
G37*
X45869950Y50544510D02*
Y50387210D01*
X46067250D01*
Y50544510D01*
X45869950D01*
X45900280Y50406750D02*
Y50522370D01*
G75*
G02*
X45904090Y50526180I3810J0D01*
G01*
X46001710D01*
G75*
G02*
X46005520Y50522370I0J-3810D01*
G01*
Y50406750D01*
G75*
G02*
X46001710Y50402940I-3810J0D01*
G01*
X45904090D01*
G75*
G02*
X45900280Y50406750I0J3810D01*
G01*
X45869950Y50464560D02*
G36*
X45869950Y50464560D02*
Y50387210D01*
X46067250D01*
Y50464560D01*
X46005520D01*
Y50406750D01*
G75*
G02*
X46001710Y50402940I-3810J0D01*
G01*
X45904090D01*
G75*
G02*
X45900280Y50406750I0J3810D01*
G01*
Y50464560D01*
X45869950D01*
G37*
Y50544510D02*
G36*
X45869950Y50544510D02*
Y50464560D01*
X45900280D01*
Y50522370D01*
G75*
G02*
X45904090Y50526180I3810J0D01*
G01*
X46001710D01*
G75*
G02*
X46005520Y50522370I0J-3810D01*
G01*
Y50464560D01*
X46067250D01*
Y50544510D01*
X45869950D01*
G37*
Y50714510D02*
Y50557210D01*
X46067250D01*
Y50714510D01*
X45869950D01*
X45918080Y50577050D02*
Y50692670D01*
G75*
G02*
X45921890Y50696480I3810J0D01*
G01*
X46019510D01*
G75*
G02*
X46023320Y50692670I0J-3810D01*
G01*
Y50577050D01*
G75*
G02*
X46019510Y50573240I-3810J0D01*
G01*
X45921890D01*
G75*
G02*
X45918080Y50577050I0J3810D01*
G01*
X45869950Y50634860D02*
G36*
X45869950Y50634860D02*
Y50557210D01*
X46067250D01*
Y50634860D01*
X46023320D01*
Y50577050D01*
G75*
G02*
X46019510Y50573240I-3810J0D01*
G01*
X45921890D01*
G75*
G02*
X45918080Y50577050I0J3810D01*
G01*
Y50634860D01*
X45869950D01*
G37*
Y50714510D02*
G36*
X45869950Y50714510D02*
Y50634860D01*
X45918080D01*
Y50692670D01*
G75*
G02*
X45921890Y50696480I3810J0D01*
G01*
X46019510D01*
G75*
G02*
X46023320Y50692670I0J-3810D01*
G01*
Y50634860D01*
X46067250D01*
Y50714510D01*
X45869950D01*
G37*
X46079950Y50544510D02*
Y50387210D01*
X46267250D01*
Y50544510D01*
X46079950D01*
X46107880Y50406750D02*
Y50522370D01*
G75*
G02*
X46111690Y50526180I3810J0D01*
G01*
X46209310D01*
G75*
G02*
X46213120Y50522370I0J-3810D01*
G01*
Y50406750D01*
G75*
G02*
X46209310Y50402940I-3810J0D01*
G01*
X46111690D01*
G75*
G02*
X46107880Y50406750I0J3810D01*
G01*
X46079950Y50464560D02*
G36*
X46079950Y50464560D02*
Y50387210D01*
X46267250D01*
Y50464560D01*
X46213120D01*
Y50406750D01*
G75*
G02*
X46209310Y50402940I-3810J0D01*
G01*
X46111690D01*
G75*
G02*
X46107880Y50406750I0J3810D01*
G01*
Y50464560D01*
X46079950D01*
G37*
Y50544510D02*
G36*
X46079950Y50544510D02*
Y50464560D01*
X46107880D01*
Y50522370D01*
G75*
G02*
X46111690Y50526180I3810J0D01*
G01*
X46209310D01*
G75*
G02*
X46213120Y50522370I0J-3810D01*
G01*
Y50464560D01*
X46267250D01*
Y50544510D01*
X46079950D01*
G37*
Y50714510D02*
Y50557210D01*
X46267250D01*
Y50714510D01*
X46079950D01*
X46125680Y50577050D02*
Y50692670D01*
G75*
G02*
X46129490Y50696480I3810J0D01*
G01*
X46227110D01*
G75*
G02*
X46230920Y50692670I0J-3810D01*
G01*
Y50577050D01*
G75*
G02*
X46227110Y50573240I-3810J0D01*
G01*
X46129490D01*
G75*
G02*
X46125680Y50577050I0J3810D01*
G01*
X46079950Y50634860D02*
G36*
X46079950Y50634860D02*
Y50557210D01*
X46267250D01*
Y50634860D01*
X46230920D01*
Y50577050D01*
G75*
G02*
X46227110Y50573240I-3810J0D01*
G01*
X46129490D01*
G75*
G02*
X46125680Y50577050I0J3810D01*
G01*
Y50634860D01*
X46079950D01*
G37*
Y50714510D02*
G36*
X46079950Y50714510D02*
Y50634860D01*
X46125680D01*
Y50692670D01*
G75*
G02*
X46129490Y50696480I3810J0D01*
G01*
X46227110D01*
G75*
G02*
X46230920Y50692670I0J-3810D01*
G01*
Y50634860D01*
X46267250D01*
Y50714510D01*
X46079950D01*
G37*
X46279950Y50544510D02*
Y50526180D01*
X46553810D01*
G75*
G02*
X46557620Y50522370I0J-3810D01*
G01*
Y50406750D01*
G75*
G02*
X46553810Y50402940I-3810J0D01*
G01*
X46279950D01*
Y50387210D01*
X46607250D01*
Y50544510D01*
X46279950D01*
G36*
X46279950Y50544510D02*
Y50526180D01*
X46553810D01*
G75*
G02*
X46557620Y50522370I0J-3810D01*
G01*
Y50406750D01*
G75*
G02*
X46553810Y50402940I-3810J0D01*
G01*
X46279950D01*
Y50387210D01*
X46607250D01*
Y50544510D01*
X46279950D01*
G37*
Y50714510D02*
Y50696480D01*
X46550010D01*
G75*
G02*
X46553820Y50692670I0J-3810D01*
G01*
Y50577050D01*
G75*
G02*
X46550010Y50573240I-3810J0D01*
G01*
X46279950D01*
Y50557210D01*
X46607250D01*
Y50714510D01*
X46279950D01*
G36*
X46279950Y50714510D02*
Y50696480D01*
X46550010D01*
G75*
G02*
X46553820Y50692670I0J-3810D01*
G01*
Y50577050D01*
G75*
G02*
X46550010Y50573240I-3810J0D01*
G01*
X46279950D01*
Y50557210D01*
X46607250D01*
Y50714510D01*
X46279950D01*
G37*
X46619950Y50544510D02*
Y50387210D01*
X46937250D01*
Y50544510D01*
X46619950D01*
X46704980Y50406750D02*
Y50522370D01*
G75*
G02*
X46708790Y50526180I3810J0D01*
G01*
X46720580D01*
Y50532270D01*
G75*
G02*
X46724390Y50536080I3810J0D01*
G01*
X46912010D01*
G75*
G02*
X46915820Y50532270I0J-3810D01*
G01*
Y50416650D01*
G75*
G02*
X46912010Y50412840I-3810J0D01*
G01*
X46900220D01*
Y50406750D01*
G75*
G02*
X46896410Y50402940I-3810J0D01*
G01*
X46708790D01*
G75*
G02*
X46704980Y50406750I0J3810D01*
G01*
X46619950Y50469510D02*
G36*
X46619950Y50469510D02*
Y50387210D01*
X46937250D01*
Y50469510D01*
X46915820D01*
Y50416650D01*
G75*
G02*
X46912010Y50412840I-3810J0D01*
G01*
X46900220D01*
Y50406750D01*
G75*
G02*
X46896410Y50402940I-3810J0D01*
G01*
X46708790D01*
G75*
G02*
X46704980Y50406750I0J3810D01*
G01*
Y50469510D01*
X46619950D01*
G37*
Y50544510D02*
G36*
X46619950Y50544510D02*
Y50469510D01*
X46704980D01*
Y50522370D01*
G75*
G02*
X46708790Y50526180I3810J0D01*
G01*
X46720580D01*
Y50532270D01*
G75*
G02*
X46724390Y50536080I3810J0D01*
G01*
X46912010D01*
G75*
G02*
X46915820Y50532270I0J-3810D01*
G01*
Y50469510D01*
X46937250D01*
Y50544510D01*
X46619950D01*
G37*
Y50714510D02*
Y50557210D01*
X46937250D01*
Y50714510D01*
X46619950D01*
X46628580Y50577050D02*
Y50692670D01*
G75*
G02*
X46632390Y50696480I3810J0D01*
G01*
X46910010D01*
G75*
G02*
X46913820Y50692670I0J-3810D01*
G01*
Y50577050D01*
G75*
G02*
X46910010Y50573240I-3810J0D01*
G01*
X46632390D01*
G75*
G02*
X46628580Y50577050I0J3810D01*
G01*
X46619950Y50634860D02*
G36*
X46619950Y50634860D02*
Y50557210D01*
X46937250D01*
Y50634860D01*
X46913820D01*
Y50577050D01*
G75*
G02*
X46910010Y50573240I-3810J0D01*
G01*
X46632390D01*
G75*
G02*
X46628580Y50577050I0J3810D01*
G01*
Y50634860D01*
X46619950D01*
G37*
Y50714510D02*
G36*
X46619950Y50714510D02*
Y50634860D01*
X46628580D01*
Y50692670D01*
G75*
G02*
X46632390Y50696480I3810J0D01*
G01*
X46910010D01*
G75*
G02*
X46913820Y50692670I0J-3810D01*
G01*
Y50634860D01*
X46937250D01*
Y50714510D01*
X46619950D01*
G37*
D02*
D226*
X40054400Y45753310D02*
X40070280Y45761250D01*
X40094090D01*
X40109960Y45753310D01*
X40117900Y45737430D01*
Y45729500D01*
X40109960Y45713620D01*
X40094090Y45705680D01*
X40054400D01*
Y45666000D01*
X40117900D01*
X40181400D02*
X40221090Y45761250D01*
X40260780Y45666000D01*
X40570340Y45753310D02*
X40586210Y45761250D01*
X40602090D01*
X40617960Y45753310D01*
X40625900Y45737430D01*
Y45689810D01*
X40617960Y45673930D01*
X40602090Y45666000D01*
X40586210D01*
X40570340Y45673930D01*
X40562400Y45689810D01*
Y45737430D01*
X40570340Y45753310D01*
X40617960Y45673930D01*
X40689400Y45666000D02*
X40729090Y45761250D01*
X40768780Y45666000D01*
X43403170Y43332960D02*
X43408800Y43327330D01*
X43414420Y43316080D01*
X43408800Y43304830D01*
X43403170Y43299210D01*
X43346920D01*
Y43287960D01*
Y43299210D02*
Y43321710D01*
Y43242960D02*
X43414420D01*
Y43186710D01*
X43403170Y43096710D02*
X43408800Y43102330D01*
X43414420Y43113580D01*
Y43130460D01*
X43408800Y43141710D01*
X43403170Y43147330D01*
X43391920Y43152960D01*
X43369420D01*
X43358170Y43147330D01*
X43352550Y43141710D01*
X43346920Y43130460D01*
Y43113580D01*
X43352550Y43102330D01*
X43358170Y43096710D01*
X43403170Y43062960D02*
X43408800Y43057330D01*
X43414420Y43046080D01*
X43408800Y43034830D01*
X43403170Y43029210D01*
X43346920D01*
Y43017960D01*
Y43029210D02*
Y43051710D01*
Y42972960D02*
X43414420D01*
Y42916710D01*
X43403170Y42826710D02*
X43408800Y42832330D01*
X43414420Y42843580D01*
Y42860460D01*
X43408800Y42871710D01*
X43403170Y42877330D01*
X43391920Y42882960D01*
X43369420D01*
X43358170Y42877330D01*
X43352550Y42871710D01*
X43346920Y42860460D01*
Y42843580D01*
X43352550Y42832330D01*
X43358170Y42826710D01*
X43403170Y42792960D02*
X43408800Y42787330D01*
X43414420Y42776080D01*
X43408800Y42764830D01*
X43403170Y42759210D01*
X43346920D01*
Y42747960D01*
Y42759210D02*
Y42781710D01*
Y42702960D02*
X43414420D01*
Y42646710D01*
X43403170Y42556710D02*
X43408800Y42562330D01*
X43414420Y42573580D01*
Y42590460D01*
X43408800Y42601710D01*
X43403170Y42607330D01*
X43391920Y42612960D01*
X43369420D01*
X43358170Y42607330D01*
X43352550Y42601710D01*
X43346920Y42590460D01*
Y42573580D01*
X43352550Y42562330D01*
X43358170Y42556710D01*
X43569220Y43936960D02*
X43501720D01*
X43535470Y43908830D01*
X43501720Y43880710D01*
X43569220D01*
Y43824460D02*
X43524220D01*
X43507350D02*
X43541100Y43711960D02*
X43529850Y43717580D01*
X43524220Y43728830D01*
Y43740080D01*
X43529850Y43751330D01*
X43541100Y43756960D01*
X43552350D01*
X43563600Y43751330D01*
X43569220Y43740080D01*
Y43728830D01*
X43563600Y43717580D01*
X43552350Y43711960D01*
X43569220D02*
X43501720D01*
X43569220Y43638830D02*
Y43644460D01*
X43501720D01*
X43529850Y43576960D02*
X43524220Y43565710D01*
Y43548830D01*
X43529850Y43537580D01*
X43541100Y43531960D01*
X43557970D01*
X43563600Y43537580D01*
X43569220Y43548830D01*
Y43560080D01*
X43563600Y43571330D01*
X43557970Y43576960D01*
X43552350D01*
X43546720Y43571330D01*
X43541100Y43560080D01*
Y43548830D01*
X43546720Y43537580D01*
X43552350Y43531960D01*
X43557970D02*
X43569220D01*
Y43486960D02*
X43524220D01*
X43541100D02*
X43529850Y43481330D01*
X43524220Y43470080D01*
Y43458830D01*
X43529850Y43447580D01*
X43541100Y43441960D01*
X43569220D01*
X43541100Y43351960D02*
X43529850Y43357580D01*
X43524220Y43368830D01*
Y43380080D01*
X43529850Y43391330D01*
X43541100Y43396960D01*
X43552350D01*
X43563600Y43391330D01*
X43569220Y43380080D01*
Y43368830D01*
X43563600Y43357580D01*
X43552350Y43351960D01*
X43569220D02*
X43501720D01*
X43563600Y43306960D02*
X43569220Y43295710D01*
Y43273210D01*
X43563600Y43261960D01*
X43552350D01*
X43546720Y43273210D01*
Y43295710D01*
X43541100Y43306960D01*
X43529850D01*
X43524220Y43295710D01*
Y43273210D01*
X43529850Y43261960D01*
X43569220Y43126960D02*
X43501720D01*
Y43070710D01*
X43535470Y43081960D02*
Y43126960D01*
X43569220D02*
Y43070710D01*
Y43008830D02*
Y43014460D01*
X43501720D01*
X43563600Y42901960D02*
X43569220Y42907580D01*
Y42918830D01*
Y42930080D01*
X43563600Y42941330D01*
X43552350Y42946960D01*
X43535470D01*
X43529850Y42941330D01*
X43524220Y42930080D01*
Y42918830D01*
X43529850Y42907580D01*
X43535470Y42901960D01*
X43541100D01*
X43546720Y42907580D01*
X43552350Y42918830D01*
Y42930080D01*
X43546720Y42941330D01*
X43541100Y42946960D01*
X43529850Y42811960D02*
X43524220Y42823210D01*
Y42840080D01*
X43529850Y42851330D01*
X43541100Y42856960D01*
X43552350D01*
X43563600Y42851330D01*
X43569220Y42840080D01*
Y42823210D01*
X43563600Y42811960D01*
X43524220Y42757580D02*
Y42731330D01*
X43512970Y42744460D02*
X43563600D01*
X43569220Y42738830D01*
Y42733210D01*
X43563600Y42727580D01*
X43569220Y42676960D02*
X43524220D01*
X43541100D02*
X43529850Y42671330D01*
X43524220Y42660080D01*
Y42648830D01*
X43529850Y42637580D01*
X43552350Y42586960D02*
X43563600Y42581330D01*
X43569220Y42570080D01*
Y42558830D01*
X43563600Y42547580D01*
X43552350Y42541960D01*
X43541100D01*
X43529850Y42547580D01*
X43524220Y42558830D01*
Y42570080D01*
X43529850Y42581330D01*
X43541100Y42586960D01*
X43552350D01*
X43569220Y42496960D02*
X43524220D01*
X43541100D02*
X43529850Y42491330D01*
X43524220Y42480080D01*
Y42468830D01*
X43529850Y42457580D01*
X43541100Y42451960D01*
X43569220D01*
Y42384460D02*
X43524220D01*
X43507350D02*
X43529850Y42271960D02*
X43524220Y42283210D01*
Y42300080D01*
X43529850Y42311330D01*
X43541100Y42316960D01*
X43552350D01*
X43563600Y42311330D01*
X43569220Y42300080D01*
Y42283210D01*
X43563600Y42271960D01*
X43552350Y42136960D02*
X43563600Y42131330D01*
X43569220Y42120080D01*
Y42097580D01*
X43563600Y42086330D01*
X43552350Y42080710D01*
X43541100Y42086330D01*
X43535470Y42097580D01*
Y42120080D01*
X43529850Y42131330D01*
X43518600Y42136960D01*
X43507350Y42131330D01*
X43501720Y42120080D01*
Y42097580D01*
X43507350Y42086330D01*
X43518600Y42080710D01*
X43552350Y42046960D02*
X43563600Y42041330D01*
X43569220Y42030080D01*
Y42018830D01*
X43563600Y42007580D01*
X43552350Y42001960D01*
X43541100D01*
X43529850Y42007580D01*
X43524220Y42018830D01*
Y42030080D01*
X43529850Y42041330D01*
X43541100Y42046960D01*
X43552350D01*
X43569220Y41928830D02*
Y41934460D01*
X43501720D01*
X43524220Y41866960D02*
X43552350D01*
X43563600Y41861330D01*
X43569220Y41850080D01*
Y41838830D01*
X43563600Y41827580D01*
X43552350Y41821960D01*
X43524220D02*
X43569220D01*
X43524220Y41767580D02*
Y41741330D01*
X43512970Y41754460D02*
X43563600D01*
X43569220Y41748830D01*
Y41743210D01*
X43563600Y41737580D01*
X43569220Y41664460D02*
X43524220D01*
X43507350D02*
X43552350Y41596960D02*
X43563600Y41591330D01*
X43569220Y41580080D01*
Y41568830D01*
X43563600Y41557580D01*
X43552350Y41551960D01*
X43541100D01*
X43529850Y41557580D01*
X43524220Y41568830D01*
Y41580080D01*
X43529850Y41591330D01*
X43541100Y41596960D01*
X43552350D01*
X43569220Y41506960D02*
X43524220D01*
X43541100D02*
X43529850Y41501330D01*
X43524220Y41490080D01*
Y41478830D01*
X43529850Y41467580D01*
X43541100Y41461960D01*
X43569220D01*
X43563600Y41416960D02*
X43569220Y41405710D01*
Y41383210D01*
X43563600Y41371960D01*
X43552350D01*
X43546720Y41383210D01*
Y41405710D01*
X43541100Y41416960D01*
X43529850D01*
X43524220Y41405710D01*
Y41383210D01*
X43529850Y41371960D01*
X44768520Y50625860D02*
X44751650D01*
Y50620240D01*
X44757270Y50608990D01*
X44762900Y50603360D01*
X44774150Y50597740D01*
X44785400D01*
X44796650Y50603360D01*
X44802270Y50608990D01*
X44807900Y50620240D01*
Y50642740D01*
X44802270Y50653990D01*
X44796650Y50659610D01*
X44785400Y50665240D01*
X44774150D01*
X44762900Y50659610D01*
X44757270Y50653990D01*
X44751650Y50642740D01*
X44706650Y50597740D02*
X44684150D01*
X44695400D02*
Y50665240D01*
X44706650Y50653990D01*
X44809700Y50427440D02*
Y50494940D01*
X44770320D01*
X44759070Y50489310D01*
X44753450Y50478060D01*
X44759070Y50466810D01*
X44770320Y50461190D01*
X44809700D01*
X44770320D02*
X44753450Y50427440D01*
X44708450D02*
X44685950D01*
X44697200D02*
Y50494940D01*
X44708450Y50483690D01*
X44803620Y47771760D02*
X44854250D01*
X44865500Y47766130D01*
X44871120Y47754880D01*
Y47732380D01*
X44865500Y47721130D01*
X44854250Y47715510D01*
X44803620D01*
X44871120Y47670510D02*
Y47648010D01*
Y47659260D02*
X44803620D01*
X44814870Y47670510D01*
X44871120Y47563630D02*
X44803620D01*
Y47591760D02*
Y47535510D01*
X44871120Y47501760D02*
X44803620Y47445510D01*
Y47501760D02*
X44871120Y47445510D01*
X45044320Y50461190D02*
X45033070Y50455560D01*
X45027450Y50444310D01*
X45033070Y50433060D01*
X45044320Y50427440D01*
X45083700D01*
Y50494940D01*
X45044320D01*
X45033070Y50489310D01*
X45027450Y50478060D01*
X45033070Y50466810D01*
X45044320Y50461190D01*
X45083700D01*
X44982450Y50427440D02*
X44959950D01*
X44971200D02*
Y50494940D01*
X44982450Y50483690D01*
X45130620Y50625860D02*
X45113750D01*
Y50620240D01*
X45119370Y50608990D01*
X45125000Y50603360D01*
X45136250Y50597740D01*
X45147500D01*
X45158750Y50603360D01*
X45164370Y50608990D01*
X45170000Y50620240D01*
Y50642740D01*
X45164370Y50653990D01*
X45158750Y50659610D01*
X45147500Y50665240D01*
X45136250D01*
X45125000Y50659610D01*
X45119370Y50653990D01*
X45113750Y50642740D01*
X45080000Y50597740D02*
Y50665240D01*
X45023750Y50597740D01*
Y50665240D01*
X44990000Y50597740D02*
Y50665240D01*
X44956250D01*
X44945000Y50659610D01*
X44939370Y50653990D01*
X44933750Y50642740D01*
Y50620240D01*
X44939370Y50608990D01*
X44945000Y50603360D01*
X44956250Y50597740D01*
X44990000D01*
X45054220Y47771760D02*
X45104850D01*
X45116100Y47766130D01*
X45121720Y47754880D01*
Y47732380D01*
X45116100Y47721130D01*
X45104850Y47715510D01*
X45054220D01*
X45121720Y47670510D02*
Y47648010D01*
Y47659260D02*
X45054220D01*
X45065470Y47670510D01*
X45121720Y47591760D02*
X45054220D01*
Y47552380D01*
X45059850Y47541130D01*
X45071100Y47535510D01*
X45082350Y47541130D01*
X45087970Y47552380D01*
Y47591760D01*
Y47552380D02*
X45121720Y47535510D01*
Y47501760D02*
X45054220Y47445510D01*
Y47501760D02*
X45121720Y47445510D01*
X45400900Y50427440D02*
Y50494940D01*
X45361520D01*
X45350270Y50489310D01*
X45344650Y50478060D01*
X45350270Y50466810D01*
X45361520Y50461190D01*
X45400900D01*
X45361520D02*
X45344650Y50427440D01*
X45265900D02*
X45310900D01*
X45271520Y50466810D01*
X45265900Y50478060D01*
X45271520Y50489310D01*
X45282770Y50494940D01*
X45299650D01*
X45310900Y50489310D01*
X45371420Y50625860D02*
X45354550D01*
Y50620240D01*
X45360170Y50608990D01*
X45365800Y50603360D01*
X45377050Y50597740D01*
X45388300D01*
X45399550Y50603360D01*
X45405170Y50608990D01*
X45410800Y50620240D01*
Y50642740D01*
X45405170Y50653990D01*
X45399550Y50659610D01*
X45388300Y50665240D01*
X45377050D01*
X45365800Y50659610D01*
X45360170Y50653990D01*
X45354550Y50642740D01*
X45275800Y50597740D02*
X45320800D01*
X45281420Y50637110D01*
X45275800Y50648360D01*
X45281420Y50659610D01*
X45292670Y50665240D01*
X45309550D01*
X45320800Y50659610D01*
X45375050Y47771760D02*
X45386300Y47766130D01*
X45391920Y47754880D01*
Y47732380D01*
X45386300Y47721130D01*
X45375050Y47715510D01*
X45363800Y47721130D01*
X45358170Y47732380D01*
Y47754880D01*
X45352550Y47766130D01*
X45341300Y47771760D01*
X45330050Y47766130D01*
X45324420Y47754880D01*
Y47732380D01*
X45330050Y47721130D01*
X45341300Y47715510D01*
X45380670Y47625510D02*
X45386300Y47631130D01*
X45391920Y47642380D01*
Y47659260D01*
X45386300Y47670510D01*
X45380670Y47676130D01*
X45369420Y47681760D01*
X45346920D01*
X45335670Y47676130D01*
X45330050Y47670510D01*
X45324420Y47659260D01*
Y47642380D01*
X45330050Y47631130D01*
X45335670Y47625510D01*
X45324420Y47591760D02*
X45391920D01*
Y47535510D01*
X45386300Y47501760D02*
X45391920Y47490510D01*
Y47473630D01*
X45386300Y47462380D01*
X45375050Y47456760D01*
X45369420D01*
X45358170Y47462380D01*
X45352550Y47473630D01*
Y47501760D01*
X45324420D01*
Y47456760D01*
X45670820Y50461190D02*
X45659570Y50455560D01*
X45653950Y50444310D01*
X45659570Y50433060D01*
X45670820Y50427440D01*
X45710200D01*
Y50494940D01*
X45670820D01*
X45659570Y50489310D01*
X45653950Y50478060D01*
X45659570Y50466810D01*
X45670820Y50461190D01*
X45710200D01*
X45575200Y50427440D02*
X45620200D01*
X45580820Y50466810D01*
X45575200Y50478060D01*
X45580820Y50489310D01*
X45592070Y50494940D01*
X45608950D01*
X45620200Y50489310D01*
X45621650Y47771760D02*
X45632900Y47766130D01*
X45638520Y47754880D01*
Y47732380D01*
X45632900Y47721130D01*
X45621650Y47715510D01*
X45610400Y47721130D01*
X45604770Y47732380D01*
Y47754880D01*
X45599150Y47766130D01*
X45587900Y47771760D01*
X45576650Y47766130D01*
X45571020Y47754880D01*
Y47732380D01*
X45576650Y47721130D01*
X45587900Y47715510D01*
X45638520Y47681760D02*
X45571020D01*
Y47648010D01*
X45576650Y47636760D01*
X45582270Y47631130D01*
X45593520Y47625510D01*
X45616020D01*
X45627270Y47631130D01*
X45632900Y47636760D01*
X45638520Y47648010D01*
Y47681760D01*
Y47591760D02*
X45571020Y47563630D01*
X45638520Y47535510D01*
X45610400Y47580510D02*
Y47546760D01*
X45632900Y47501760D02*
X45638520Y47490510D01*
Y47473630D01*
X45632900Y47462380D01*
X45621650Y47456760D01*
X45616020D01*
X45604770Y47462380D01*
X45599150Y47473630D01*
Y47501760D01*
X45571020D01*
Y47456760D01*
X45764720Y50625860D02*
X45747850D01*
Y50620240D01*
X45753470Y50608990D01*
X45759100Y50603360D01*
X45770350Y50597740D01*
X45781600D01*
X45792850Y50603360D01*
X45798470Y50608990D01*
X45804100Y50620240D01*
Y50642740D01*
X45798470Y50653990D01*
X45792850Y50659610D01*
X45781600Y50665240D01*
X45770350D01*
X45759100Y50659610D01*
X45753470Y50653990D01*
X45747850Y50642740D01*
X45714100Y50597740D02*
Y50665240D01*
X45657850Y50597740D01*
Y50665240D01*
X45624100Y50597740D02*
Y50665240D01*
X45590350D01*
X45579100Y50659610D01*
X45573470Y50653990D01*
X45567850Y50642740D01*
Y50620240D01*
X45573470Y50608990D01*
X45579100Y50603360D01*
X45590350Y50597740D01*
X45624100D01*
X45887950Y47771760D02*
X45899200Y47766130D01*
X45904820Y47754880D01*
Y47732380D01*
X45899200Y47721130D01*
X45887950Y47715510D01*
X45876700Y47721130D01*
X45871070Y47732380D01*
Y47754880D01*
X45865450Y47766130D01*
X45854200Y47771760D01*
X45842950Y47766130D01*
X45837320Y47754880D01*
Y47732380D01*
X45842950Y47721130D01*
X45854200Y47715510D01*
X45893570Y47625510D02*
X45899200Y47631130D01*
X45904820Y47642380D01*
Y47659260D01*
X45899200Y47670510D01*
X45893570Y47676130D01*
X45882320Y47681760D01*
X45859820D01*
X45848570Y47676130D01*
X45842950Y47670510D01*
X45837320Y47659260D01*
Y47642380D01*
X45842950Y47631130D01*
X45848570Y47625510D01*
X45904820Y47591760D02*
X45837320D01*
X45871070D02*
Y47574880D01*
X45837320Y47535510D01*
X45871070Y47574880D02*
X45904820Y47535510D01*
Y47473630D02*
X45837320D01*
X45882320Y47501760D01*
Y47456760D01*
X45997900Y50427440D02*
X45969770Y50494940D01*
X45941650Y50427440D01*
X45986650Y50455560D02*
X45952900D01*
X45976320Y50631490D02*
X45965070Y50625860D01*
X45959450Y50614610D01*
X45965070Y50603360D01*
X45976320Y50597740D01*
X46015700D01*
Y50665240D01*
X45976320D01*
X45965070Y50659610D01*
X45959450Y50648360D01*
X45965070Y50637110D01*
X45976320Y50631490D01*
X46015700D01*
X46149250Y50438690D02*
X46154870Y50433060D01*
X46166120Y50427440D01*
X46183000D01*
X46194250Y50433060D01*
X46199870Y50438690D01*
X46205500Y50449940D01*
Y50472440D01*
X46199870Y50483690D01*
X46194250Y50489310D01*
X46183000Y50494940D01*
X46166120D01*
X46154870Y50489310D01*
X46149250Y50483690D01*
X46130650Y47771760D02*
X46141900Y47766130D01*
X46147520Y47754880D01*
Y47732380D01*
X46141900Y47721130D01*
X46130650Y47715510D01*
X46119400Y47721130D01*
X46113770Y47732380D01*
Y47754880D01*
X46108150Y47766130D01*
X46096900Y47771760D01*
X46085650Y47766130D01*
X46080020Y47754880D01*
Y47732380D01*
X46085650Y47721130D01*
X46096900Y47715510D01*
X46147520Y47681760D02*
X46080020D01*
Y47648010D01*
X46085650Y47636760D01*
X46091270Y47631130D01*
X46102520Y47625510D01*
X46125020D01*
X46136270Y47631130D01*
X46141900Y47636760D01*
X46147520Y47648010D01*
Y47681760D01*
X46125020Y47591760D02*
X46102520D01*
X46091270Y47586130D01*
X46085650Y47580510D01*
X46080020Y47569260D01*
Y47558010D01*
X46085650Y47546760D01*
X46091270Y47541130D01*
X46102520Y47535510D01*
X46125020D01*
X46136270Y47541130D01*
X46141900Y47546760D01*
X46147520Y47558010D01*
Y47569260D01*
X46141900Y47580510D01*
X46136270Y47586130D01*
X46125020Y47591760D01*
X46147520Y47473630D02*
X46080020D01*
X46125020Y47501760D01*
Y47456760D01*
X46223300Y50597740D02*
Y50665240D01*
X46189550D01*
X46178300Y50659610D01*
X46172670Y50653990D01*
X46167050Y50642740D01*
Y50620240D01*
X46172670Y50608990D01*
X46178300Y50603360D01*
X46189550Y50597740D01*
X46223300D01*
X46546200Y50665240D02*
Y50597740D01*
X46489950D01*
X46456200D02*
X46428070Y50665240D01*
X46399950Y50597740D01*
X46444950Y50625860D02*
X46411200D01*
X46338070Y50597740D02*
Y50665240D01*
X46366200D02*
X46309950D01*
X46493750Y50438690D02*
X46499370Y50433060D01*
X46510620Y50427440D01*
X46527500D01*
X46538750Y50433060D01*
X46544370Y50438690D01*
X46550000Y50449940D01*
Y50472440D01*
X46544370Y50483690D01*
X46538750Y50489310D01*
X46527500Y50494940D01*
X46510620D01*
X46499370Y50489310D01*
X46493750Y50483690D01*
X46460000Y50494940D02*
Y50427440D01*
X46403750D01*
X46370000D02*
Y50494940D01*
Y50461190D02*
X46353120D01*
X46313750Y50494940D01*
X46353120Y50461190D02*
X46313750Y50427440D01*
X46385150Y47771760D02*
X46396400Y47766130D01*
X46402020Y47754880D01*
Y47732380D01*
X46396400Y47721130D01*
X46385150Y47715510D01*
X46373900Y47721130D01*
X46368270Y47732380D01*
Y47754880D01*
X46362650Y47766130D01*
X46351400Y47771760D01*
X46340150Y47766130D01*
X46334520Y47754880D01*
Y47732380D01*
X46340150Y47721130D01*
X46351400Y47715510D01*
X46402020Y47681760D02*
X46334520D01*
Y47648010D01*
X46340150Y47636760D01*
X46345770Y47631130D01*
X46357020Y47625510D01*
X46379520D01*
X46390770Y47631130D01*
X46396400Y47636760D01*
X46402020Y47648010D01*
Y47681760D01*
Y47574880D02*
Y47552380D01*
Y47563630D02*
X46334520D01*
Y47574880D02*
Y47552380D01*
X46402020Y47473630D02*
X46334520D01*
X46379520Y47501760D01*
Y47456760D01*
X46639650Y47765960D02*
X46650900Y47760330D01*
X46656520Y47749080D01*
Y47726580D01*
X46650900Y47715330D01*
X46639650Y47709710D01*
X46628400Y47715330D01*
X46622770Y47726580D01*
Y47749080D01*
X46617150Y47760330D01*
X46605900Y47765960D01*
X46594650Y47760330D01*
X46589020Y47749080D01*
Y47726580D01*
X46594650Y47715330D01*
X46605900Y47709710D01*
X46639650Y47675960D02*
X46650900Y47670330D01*
X46656520Y47659080D01*
Y47636580D01*
X46650900Y47625330D01*
X46639650Y47619710D01*
X46628400Y47625330D01*
X46622770Y47636580D01*
Y47659080D01*
X46617150Y47670330D01*
X46605900Y47675960D01*
X46594650Y47670330D01*
X46589020Y47659080D01*
Y47636580D01*
X46594650Y47625330D01*
X46605900Y47619710D01*
X46656520Y47557830D02*
X46589020D01*
X46634020Y47585960D01*
Y47540960D01*
X46866820Y50625860D02*
X46849950D01*
Y50620240D01*
X46855570Y50608990D01*
X46861200Y50603360D01*
X46872450Y50597740D01*
X46883700D01*
X46894950Y50603360D01*
X46900570Y50608990D01*
X46906200Y50620240D01*
Y50642740D01*
X46900570Y50653990D01*
X46894950Y50659610D01*
X46883700Y50665240D01*
X46872450D01*
X46861200Y50659610D01*
X46855570Y50653990D01*
X46849950Y50642740D01*
X46816200Y50597740D02*
Y50665240D01*
X46759950Y50597740D01*
Y50665240D01*
X46726200Y50597740D02*
Y50665240D01*
X46692450D01*
X46681200Y50659610D01*
X46675570Y50653990D01*
X46669950Y50642740D01*
Y50620240D01*
X46675570Y50608990D01*
X46681200Y50603360D01*
X46692450Y50597740D01*
X46726200D01*
X46892600Y50449940D02*
Y50472440D01*
X46886970Y50483690D01*
X46881350Y50489310D01*
X46870100Y50494940D01*
X46858850D01*
X46847600Y50489310D01*
X46841970Y50483690D01*
X46836350Y50472440D01*
Y50449940D01*
X46841970Y50438690D01*
X46847600Y50433060D01*
X46858850Y50427440D01*
X46870100D01*
X46881350Y50433060D01*
X46886970Y50438690D01*
X46892600Y50449940D01*
X46802600Y50427440D02*
Y50494940D01*
X46746350D01*
X46757600Y50461190D02*
X46802600D01*
Y50427440D02*
X46746350D01*
X46908200Y50459840D02*
Y50482340D01*
X46902570Y50493590D01*
X46896950Y50499210D01*
X46885700Y50504840D01*
X46874450D01*
X46863200Y50499210D01*
X46857570Y50493590D01*
X46851950Y50482340D01*
Y50459840D01*
X46857570Y50448590D01*
X46863200Y50442960D01*
X46874450Y50437340D01*
X46885700D01*
X46896950Y50442960D01*
X46902570Y50448590D01*
X46908200Y50459840D01*
X46818200Y50437340D02*
Y50504840D01*
X46761950D01*
X46773200Y50471090D02*
X46818200D01*
Y50437340D02*
X46761950D01*
X47848700Y39754950D02*
X47785200D01*
X47840760Y39699380D01*
X47848700Y39683510D01*
X47840760Y39667630D01*
X47824890Y39659700D01*
X47801080D01*
X47785200Y39667630D01*
X47951890Y39754950D02*
Y39659700D01*
X47912200Y39723200D01*
X47975700D01*
X48039200Y39659700D02*
X48078890Y39754950D01*
X48118580Y39659700D01*
X48475760Y39715260D02*
X48499580D01*
Y39723200D01*
X48491640Y39739070D01*
X48483700Y39747010D01*
X48467830Y39754950D01*
X48451950D01*
X48436080Y39747010D01*
X48428140Y39739070D01*
X48420200Y39723200D01*
Y39691450D01*
X48428140Y39675570D01*
X48436080Y39667630D01*
X48451950Y39659700D01*
X48467830D01*
X48483700Y39667630D01*
X48491640Y39675570D01*
X48499580Y39691450D01*
X48547200Y39754950D02*
Y39659700D01*
X48626580Y39754950D01*
Y39659700D01*
X48674200Y39754950D02*
Y39659700D01*
X48721830D01*
X48737700Y39667630D01*
X48745640Y39675570D01*
X48753580Y39691450D01*
Y39723200D01*
X48745640Y39739070D01*
X48737700Y39747010D01*
X48721830Y39754950D01*
X48674200D01*
X49555000Y45582710D02*
X49570880Y45590650D01*
X49594690D01*
X49610560Y45582710D01*
X49618500Y45566830D01*
Y45558900D01*
X49610560Y45543020D01*
X49594690Y45535080D01*
X49555000D01*
Y45495400D01*
X49618500D01*
X49682000D02*
X49721690Y45590650D01*
X49761380Y45495400D01*
X50070940Y45582710D02*
X50086810Y45590650D01*
X50102690D01*
X50118560Y45582710D01*
X50126500Y45566830D01*
Y45519210D01*
X50118560Y45503330D01*
X50102690Y45495400D01*
X50086810D01*
X50070940Y45503330D01*
X50063000Y45519210D01*
Y45566830D01*
X50070940Y45582710D01*
X50118560Y45503330D01*
X50190000Y45495400D02*
X50229690Y45590650D01*
X50269380Y45495400D01*
X0Y0D02*
M02*
