G05
M48
;#@! TF.GenerationSoftware,DesignSpark,DesignSpark PCB,12.0.5940
;#@! TF.CreationDate,2025-01-05T22:06:57+00:00*
;#@! TF.FileFunction,Plated,1,4,PTH
;FILE_FORMAT=3:5
;TYPE=PLATED
INCH,TZ
FMAT,2
T1C000.00787
T2C000.00866
T3C000.01220
T4C000.02008
T5C000.02402
T6C000.02795
T7C000.03189
T8C000.03500
T9C000.03504
T10C000.03937
T11C000.04921
T12C000.06181
T13C000.08858
T14C000.12598
T15C000.12795
%
T001
X16.50687Y18.68077
X17.19856Y19.62707
X17.21959Y19.78601
X17.26368Y19.62947
X17.78778Y19.39853
X17.78955Y19.37097
X17.92537Y19.32353
X17.95274Y19.32313
X18.11809Y19.64042
X18.16238Y19.59243
X18.16238Y19.63156
X18.26770Y19.75817
X18.38069Y19.60542
T002
X16.18089Y18.60817
X16.21258Y18.53140
X16.21770Y18.57195
X16.24880Y18.53120
X16.25431Y18.71821
X16.30077Y18.43849
X16.30313Y18.47609
X16.34112Y18.44400
X16.47301Y18.46861
X16.65785Y19.00424
X16.70156Y18.43416
X16.77321Y19.11428
X17.38451Y19.18766
X17.48549Y19.66798
X17.62498Y19.43298
X17.74506Y19.61132
X17.78541Y19.54203
X17.78561Y19.56821
X17.79171Y19.44597
X17.79191Y19.62313
X17.79526Y19.50798
X17.79604Y19.48219
X17.90549Y19.42628
X17.90549Y19.46565
X17.90726Y19.60345
X17.90766Y19.57668
X17.91415Y19.38928
X17.94722Y19.93120
X17.96789Y19.19124
X17.98010Y19.37668
X17.98738Y19.93140
X18.00687Y19.18809
X18.01081Y19.89813
X18.03364Y19.15876
X18.03364Y19.92825
X18.04663Y19.30479
X18.04959Y19.77746
X18.05569Y19.89636
X18.07163Y19.83140
X18.08778Y19.34105
X18.09368Y19.18691
X18.09585Y19.79361
X18.11967Y19.13731
X18.13384Y19.96880
X18.14880Y19.15050
X18.16514Y19.75463
X18.17262Y19.19498
X18.20431Y19.18573
X18.22380Y19.30817
X18.25470Y19.44597
X18.36730Y19.32057
X18.36809Y19.34754
X18.36829Y19.45266
X18.59742Y19.54144
X18.73423Y19.55955
X18.75844Y19.37924
X18.77281Y19.72162
X18.78167Y19.29223
X18.78659Y19.65300
X18.80352Y19.19321
X18.81829Y19.45030
X18.81888Y19.51861
X18.84468Y19.62550
X18.84624Y19.44282
X18.84880Y19.67587
X18.86907Y17.09459
X18.99486Y19.62727
X19.01219Y17.25010
T003
X16.03325Y18.89321
X16.13935Y18.63888
X16.21947Y18.86034
X16.34644Y18.92191
X16.46907Y18.89557
X16.52321Y18.82333
X16.55884Y18.78593
X16.60805Y18.78987
X16.62041Y18.64731
X16.74073Y19.08632
X16.77872Y18.85010
X16.85510Y19.24085
T004
X16.38778Y16.00699
X16.84900Y18.88849
X19.67518Y16.70739
T005
X15.52219Y17.63282
X15.52219Y17.81943
X15.53612Y17.44725
X15.57601Y17.26505
X15.62914Y17.08626
X15.65549Y17.60498
X15.65549Y17.76935
X15.65746Y17.41526
X15.69523Y16.91185
X15.71528Y17.52101
X15.77392Y16.74275
X15.80848Y16.93652
X15.80848Y17.09818
X15.81011Y17.22903
X15.86479Y16.57987
X15.89820Y16.81176
X15.96735Y16.42408
X16.03148Y18.74735
X16.06829Y19.00798
X16.08106Y16.27623
X16.08482Y16.81176
X16.17679Y16.32949
X16.17679Y16.42280
X16.43305Y16.46231
X16.48260Y15.88798
X16.55687Y18.27313
X16.56061Y18.94065
X16.59053Y16.27526
X16.59053Y16.37959
X16.63420Y15.77933
X16.64604Y18.36644
X16.75884Y16.45935
X16.79335Y15.68207
X16.92990Y19.33239
X16.94182Y16.01345
X16.94285Y16.64710
X16.94285Y16.83371
X16.94285Y17.02033
X16.94285Y17.20694
X16.94285Y17.39356
X16.94285Y17.67348
X16.96993Y15.63996
X16.97400Y18.97569
X17.02058Y17.72510
X17.02619Y16.48509
X17.05372Y16.89892
X17.05648Y19.76979
X17.07203Y19.33731
X17.15654Y15.63996
X17.19732Y15.81719
X17.19732Y16.00381
X17.19732Y16.19042
X17.19732Y16.37704
X17.19732Y16.75026
X17.19732Y16.93688
X17.19732Y17.31011
X17.19732Y17.49672
X17.19732Y17.68333
X17.34841Y19.74869
X17.51947Y19.57845
X17.59447Y19.34317
X17.73620Y19.73589
X17.73719Y19.13550
X17.73817Y19.82939
X17.82872Y19.13550
X18.38581Y19.80380
X18.48325Y19.80577
X18.81494Y18.18963
X18.86455Y19.85640
X18.87811Y17.97907
X18.88138Y15.64055
X18.88138Y15.81510
X18.88138Y16.01378
X18.88138Y16.10708
X18.88138Y16.20039
X18.88138Y16.29370
X18.88138Y16.38700
X18.88138Y16.76023
X18.88138Y16.85354
X18.88138Y16.94685
X18.88138Y17.32007
X18.88138Y17.41338
X18.88138Y17.50669
X18.88138Y17.60000
X18.88138Y17.69330
X18.97469Y15.63996
X18.98428Y15.81510
X19.00404Y18.43027
X19.00404Y18.57559
X19.01330Y16.03385
X19.02345Y16.50741
X19.04461Y15.94596
X19.06799Y15.63996
X19.07759Y15.81510
X19.08675Y17.43679
X19.08675Y17.53009
X19.08675Y17.62340
X19.08675Y17.70644
X19.08801Y16.57478
X19.08801Y16.66808
X19.08801Y16.76139
X19.08801Y16.85470
X19.08801Y16.94800
X19.08801Y17.32123
X19.09399Y17.92025
X19.09734Y18.43027
X19.09734Y18.57571
X19.16130Y15.63996
X19.16356Y16.43732
X19.17090Y15.81510
X19.17102Y16.08633
X19.21947Y16.81845
X19.22045Y16.90506
X19.26414Y15.81855
X19.27057Y16.08011
X19.28848Y15.68383
X19.29704Y15.91533
X19.30887Y18.42316
X19.30887Y18.57596
X19.32281Y17.07250
X19.36039Y16.10708
X19.40154Y18.36578
X19.40218Y18.57608
X19.42262Y16.70739
X19.42268Y16.30723
X19.44750Y15.78132
X19.45334Y16.09902
X19.45769Y15.90782
X19.49549Y18.36551
X19.49549Y18.57620
X19.51598Y16.30723
X19.59348Y18.43668
X19.59348Y18.57632
X19.59894Y15.89019
X19.60269Y16.32665
X19.65329Y16.10969
X19.67462Y18.36551
X19.68210Y18.57644
X19.74200Y16.00987
X19.77459Y18.36551
X19.77541Y18.57657
X19.81199Y16.51837
X19.84644Y16.41798
X19.84948Y16.66806
X19.86872Y18.57669
X19.87591Y16.13971
X19.91235Y17.74416
X19.93932Y16.69324
X19.94364Y16.87975
X19.95087Y17.06609
X19.95281Y17.92534
X19.96202Y18.36551
X19.96202Y18.57681
X19.99470Y16.55119
X20.05805Y16.35198
X20.09897Y17.74416
X20.12466Y16.77839
X20.12466Y16.96501
X20.13943Y17.92534
X20.16604Y16.50406
X20.24891Y16.90813
X20.26259Y16.66364
X20.26474Y18.36378
X20.26474Y18.58038
X20.27375Y17.27231
X20.27459Y17.42219
X20.27471Y17.12255
X20.32604Y17.92534
X20.33955Y18.73613
X20.34720Y16.82987
X20.39640Y17.55059
X20.39860Y17.73546
X20.41939Y17.00185
X20.42321Y18.58235
X20.43003Y18.36334
X20.47880Y17.17866
X20.49211Y18.58333
X20.51265Y17.92534
X20.51770Y18.36315
X20.51770Y18.47506
X20.52360Y17.35991
X20.54323Y17.45083
X20.56940Y17.63551
X20.58196Y17.82161
T006
X16.93679Y15.73396
X17.13679Y15.73396
T007
X15.72813Y17.67668
X15.92695Y17.67668
X18.94348Y15.94892
X19.14348Y15.94892
X19.23856Y17.60581
X19.23856Y17.80463
T008
X15.89722Y16.96250
X16.46041Y17.45502
X17.09723Y20.05825
X17.35823Y20.16370
X17.68994Y18.88514
X17.69486Y20.07431
X17.69486Y20.17431
X17.78994Y18.88514
X17.79486Y20.07431
X17.79486Y20.17431
X17.88994Y18.88514
X17.89486Y20.07431
X17.89486Y20.17431
X17.98994Y18.88514
X17.99486Y20.07431
X17.99486Y20.17431
X18.08994Y18.88514
X18.09486Y20.07431
X18.09486Y20.17431
X18.18994Y18.88514
X18.19486Y20.07431
X18.19486Y20.17431
X18.28994Y18.88514
X18.29486Y20.07431
X18.29486Y20.17431
X18.38994Y18.88514
X18.39486Y20.07431
X18.39486Y20.17431
X19.51967Y16.60699
X19.75392Y18.79006
X19.75392Y18.89006
X19.75392Y18.99006
X19.75392Y19.09006
X19.75392Y19.19006
X20.10317Y19.06554
X20.10317Y19.16554
X20.19093Y17.07353
T009
X16.55281Y19.18147
X16.58817Y19.07541
X16.62352Y19.25219
X16.65887Y19.14612
X16.69423Y19.32289
X16.72959Y19.21683
X16.76494Y19.39361
X16.80030Y19.28754
T010
X16.17392Y19.38498
X16.24463Y19.45569
X16.45537Y19.66643
X16.52608Y19.73714
X20.02636Y18.50069
X20.02636Y18.75660
X20.20352Y18.50069
X20.20352Y18.75660
T011
X15.84270Y17.89223
X16.04900Y17.89223
X18.93384Y15.73632
X19.14014Y15.73632
X19.58207Y17.84853
X19.78837Y17.84853
T012
X16.35209Y19.11772
X16.79333Y19.55897
T013
X17.49309Y18.88514
X18.58679Y18.88514
T014
X16.30532Y19.28754
X16.62352Y19.60574
T015
X16.83955Y19.96329
X16.84309Y16.23652
X19.23541Y16.24183
X19.24250Y19.96329
M30
