G05
M48
;#@! TF.GenerationSoftware,DesignSpark,DesignSpark PCB,12.0.5940
;#@! TF.CreationDate,2025-01-04T23:17:13+00:00*
;#@! TF.FileFunction,Plated,1,4,PTH
;FILE_FORMAT=3:5
;TYPE=PLATED
INCH,TZ
FMAT,2
T1C000.00787
T2C000.00866
T3C000.01220
T4C000.02008
T5C000.02402
T6C000.02795
T7C000.03189
T8C000.03500
T9C000.03504
T10C000.03937
T11C000.04921
T12C000.06181
T13C000.08858
T14C000.12598
T15C000.12795
%
T001
X17.18024Y19.78601
X18.07795Y19.64144
X18.12264Y19.63199
X18.12303Y19.59243
X18.22835Y19.75817
X18.34134Y19.60542
T002
X16.14154Y18.60817
X16.17323Y18.53140
X16.17835Y18.57195
X16.20945Y18.53120
X16.21496Y18.71821
X16.26142Y18.43849
X16.26378Y18.47609
X16.30177Y18.44400
X16.43366Y18.46861
X16.61850Y19.00424
X16.66220Y18.43416
X16.73386Y19.11428
X17.15921Y19.62707
X17.22433Y19.62947
X17.34516Y19.18766
X17.42618Y19.75581
X17.58563Y19.43298
X17.70571Y19.61132
X17.74606Y19.54203
X17.74626Y19.56821
X17.74843Y19.39853
X17.75020Y19.37097
X17.75236Y19.44597
X17.75256Y19.62313
X17.75591Y19.50798
X17.75669Y19.48219
X17.86614Y19.42628
X17.86614Y19.46565
X17.86791Y19.60345
X17.86831Y19.57668
X17.87480Y19.38928
X17.88602Y19.32353
X17.90787Y19.93120
X17.91339Y19.32313
X17.92854Y19.19124
X17.94075Y19.37668
X17.94803Y19.93140
X17.96752Y19.18809
X17.97146Y19.89813
X17.99429Y19.15876
X17.99429Y19.92825
X18.00728Y19.30479
X18.01024Y19.77746
X18.01634Y19.89636
X18.03228Y19.83140
X18.04843Y19.34105
X18.05433Y19.18691
X18.05650Y19.79361
X18.08031Y19.13731
X18.09449Y19.96880
X18.10945Y19.15050
X18.12579Y19.75463
X18.13327Y19.19498
X18.16496Y19.18573
X18.18445Y19.30817
X18.21535Y19.44597
X18.32795Y19.32057
X18.32874Y19.34754
X18.32894Y19.45266
X18.55807Y19.54144
X18.69488Y19.55955
X18.71909Y19.37924
X18.73346Y19.72162
X18.74232Y19.29223
X18.74724Y19.65300
X18.76417Y19.19321
X18.77894Y19.45030
X18.77953Y19.51861
X18.80533Y19.62550
X18.80689Y19.44282
X18.80945Y19.67587
X18.82972Y17.09459
X18.95551Y19.62727
X18.97283Y17.25010
T003
X15.99390Y18.89321
X16.10000Y18.63888
X16.18012Y18.86034
X16.30709Y18.92191
X16.42972Y18.89557
X16.48386Y18.82333
X16.51949Y18.78593
X16.56870Y18.78987
X16.58106Y18.64731
X16.70138Y19.08632
X16.73937Y18.85010
X16.81575Y19.24085
T004
X16.34843Y16.00699
X16.80965Y18.88849
X19.63583Y16.70739
T005
X15.61811Y17.41526
X15.99213Y18.74735
X16.02894Y19.00798
X16.39370Y16.46231
X16.51752Y18.27313
X16.52126Y18.94065
X16.60669Y18.36644
X16.71949Y16.45935
X16.89055Y19.33239
X16.93465Y18.97569
X17.01437Y16.52254
X17.01437Y16.89892
X17.01437Y17.27609
X17.01713Y19.76979
X17.03268Y19.33731
X17.48012Y19.57845
X17.58780Y19.80404
X17.58878Y19.71034
X17.61850Y19.37018
X17.71555Y19.08928
X17.81358Y19.08790
X18.28268Y19.95916
X18.45709Y19.80109
X18.82520Y19.85640
X18.83583Y16.87254
X18.90748Y18.15994
X19.37028Y18.35896
X19.37028Y18.57156
X19.38327Y16.70739
X19.67205Y18.36821
X19.67205Y18.57156
X19.69016Y16.06349
X19.73031Y18.06565
X19.81260Y16.51546
X19.81516Y16.67038
X19.91220Y18.37176
X19.91220Y18.57156
X19.97323Y17.75148
X19.97677Y16.35384
X19.97677Y16.67038
X19.97677Y16.90680
X19.97835Y17.07156
X20.16811Y18.36290
X20.24311Y16.80502
X20.24469Y17.90050
X20.25138Y17.30246
X20.30020Y18.73613
X20.37480Y17.29892
X20.39882Y17.74183
T006
X16.89744Y15.73396
X17.09744Y15.73396
T007
X15.68878Y17.67668
X15.88760Y17.67668
X18.90413Y15.94892
X19.10413Y15.94892
X19.19921Y17.60581
X19.19921Y17.80463
T008
X15.85787Y16.96250
X16.42106Y17.45502
X17.05788Y20.05825
X17.31888Y20.16370
X17.65059Y18.88514
X17.65551Y20.07431
X17.65551Y20.17431
X17.75059Y18.88514
X17.75551Y20.07431
X17.75551Y20.17431
X17.85059Y18.88514
X17.85551Y20.07431
X17.85551Y20.17431
X17.95059Y18.88514
X17.95551Y20.07431
X17.95551Y20.17431
X18.05059Y18.88514
X18.05551Y20.07431
X18.05551Y20.17431
X18.15059Y18.88514
X18.15551Y20.07431
X18.15551Y20.17431
X18.25059Y18.88514
X18.25551Y20.07431
X18.25551Y20.17431
X18.35059Y18.88514
X18.35551Y20.07431
X18.35551Y20.17431
X19.48031Y16.60699
X19.71457Y18.79006
X19.71457Y18.89006
X19.71457Y18.99006
X19.71457Y19.09006
X19.71457Y19.19006
X20.06382Y19.06554
X20.06382Y19.16554
X20.15157Y17.07353
T009
X16.51346Y19.18147
X16.54881Y19.07541
X16.58417Y19.25219
X16.61952Y19.14612
X16.65488Y19.32289
X16.69024Y19.21683
X16.72559Y19.39361
X16.76094Y19.28754
T010
X16.13457Y19.38498
X16.20528Y19.45569
X16.41602Y19.66643
X16.48673Y19.73714
X19.98701Y18.50069
X19.98701Y18.75660
X20.16417Y18.50069
X20.16417Y18.75660
T011
X15.80335Y17.89223
X16.00965Y17.89223
X18.89449Y15.73632
X19.10079Y15.73632
X19.54272Y17.84853
X19.74902Y17.84853
T012
X16.31274Y19.11772
X16.75398Y19.55897
T013
X17.45378Y18.88258
X18.54744Y18.88258
T014
X16.26597Y19.28754
X16.58417Y19.60574
T015
X16.80020Y19.96329
X16.80374Y16.23652
X19.19606Y16.24183
X19.20315Y19.96329
M30
