G04 DesignSpark PCB Gerber Version 12.0 Build 5942*
%FSLAX35Y35*%
%MOMM*%
%AMT23*0 Rounded Rectangle Pad at angle 0*4,1,32,-0.05000,-0.29500,0.05000,-0.29500,0.08340,-0.29120,0.11510,-0.28010,0.14350,-0.26220,0.16720,-0.23850,0.18510,-0.21010,0.19620,-0.17840,0.20000,-0.14500,0.20000,0.14500,0.19620,0.17840,0.18510,0.21010,0.16720,0.23850,0.14350,0.26220,0.11510,0.28010,0.08340,0.29120,0.05000,0.29500,-0.05000,0.29500,-0.08340,0.29120,-0.11510,0.28010,-0.14350,0.26220,-0.16720,0.23850,-0.18510,0.21010,-0.19620,0.17840,-0.20000,0.14500,-0.20000,-0.14500,-0.19620,-0.17840,-0.18510,-0.21010,-0.16720,-0.23850,-0.14350,-0.26220,-0.11510,-0.28010,-0.08340,-0.29120,-0.05000,-0.29500,0*%
%ADD23T23*%
%AMT22*0 Rounded Rectangle Pad at angle 0*4,1,28,-0.12500,-0.34500,0.12500,-0.34500,0.15090,-0.34160,0.17500,-0.33160,0.19570,-0.31570,0.21160,-0.29500,0.22160,-0.27090,0.22500,-0.24500,0.22500,0.24500,0.22160,0.27090,0.21160,0.29500,0.19570,0.31570,0.17500,0.33160,0.15090,0.34160,0.12500,0.34500,-0.12500,0.34500,-0.15090,0.34160,-0.17500,0.33160,-0.19570,0.31570,-0.21160,0.29500,-0.22160,0.27090,-0.22500,0.24500,-0.22500,-0.24500,-0.22160,-0.27090,-0.21160,-0.29500,-0.19570,-0.31570,-0.17500,-0.33160,-0.15090,-0.34160,-0.12500,-0.34500,0*%
%ADD22T22*%
%AMT27*0 Rounded Rectangle Pad at angle 0*4,1,32,-0.11000,-0.44500,0.11000,-0.44500,0.14340,-0.44120,0.17510,-0.43010,0.20350,-0.41220,0.22720,-0.38850,0.24510,-0.36010,0.25620,-0.32840,0.26000,-0.29500,0.26000,0.29500,0.25620,0.32840,0.24510,0.36010,0.22720,0.38850,0.20350,0.41220,0.17510,0.43010,0.14340,0.44120,0.11000,0.44500,-0.11000,0.44500,-0.14340,0.44120,-0.17510,0.43010,-0.20350,0.41220,-0.22720,0.38850,-0.24510,0.36010,-0.25620,0.32840,-0.26000,0.29500,-0.26000,-0.29500,-0.25620,-0.32840,-0.24510,-0.36010,-0.22720,-0.38850,-0.20350,-0.41220,-0.17510,-0.43010,-0.14340,-0.44120,-0.11000,-0.44500,0*%
%ADD27T27*%
%AMT73*0 Rounded Rectangle Pad at angle 0*4,1,32,-0.31000,-0.60500,0.31000,-0.60500,0.34340,-0.60120,0.37510,-0.59010,0.40350,-0.57220,0.42720,-0.54850,0.44510,-0.52010,0.45620,-0.48840,0.46000,-0.45500,0.46000,0.45500,0.45620,0.48840,0.44510,0.52010,0.42720,0.54850,0.40350,0.57220,0.37510,0.59010,0.34340,0.60120,0.31000,0.60500,-0.31000,0.60500,-0.34340,0.60120,-0.37510,0.59010,-0.40350,0.57220,-0.42720,0.54850,-0.44510,0.52010,-0.45620,0.48840,-0.46000,0.45500,-0.46000,-0.45500,-0.45620,-0.48840,-0.44510,-0.52010,-0.42720,-0.54850,-0.40350,-0.57220,-0.37510,-0.59010,-0.34340,-0.60120,-0.31000,-0.60500,0*%
%ADD73T73*%
%AMT107*0 Rounded Rectangle Pad at angle 0*4,1,92,-1.00000,-2.50000,1.00000,-2.50000,1.10700,-2.49620,1.21340,-2.48480,1.31880,-2.46580,1.42250,-2.43930,1.52410,-2.40550,1.62300,-2.36450,1.71870,-2.31660,1.81080,-2.26200,1.89870,-2.20100,1.98210,-2.13380,2.06050,-2.06090,2.13350,-1.98260,2.20070,-1.89930,2.26180,-1.81140,2.31650,-1.71930,2.36450,-1.62360,2.40550,-1.52470,2.43930,-1.42310,2.46580,-1.31940,2.48480,-1.21400,2.49630,-1.10760,2.50000,-1.00000,2.50000,1.00000,2.49620,1.10700,2.48480,1.21340,2.46580,1.31880,2.43930,1.42250,2.40550,1.52410,2.36450,1.62300,2.31660,1.71870,2.26200,1.81080,2.20100,1.89870,2.13380,1.98210,2.06090,2.06050,1.98260,2.13350,1.89930,2.20070,1.81140,2.26180,1.71930,2.31650,1.62360,2.36450,1.52470,2.40550,1.42310,2.43930,1.31940,2.46580,1.21400,2.48480,1.10760,2.49630,1.00000,2.50000,-1.00000,2.50000,-1.10700,2.49620,-1.21340,2.48480,-1.31880,2.46580,-1.42250,2.43930,-1.52410,2.40550,-1.62300,2.36450,-1.71870,2.31660,-1.81080,2.26200,-1.89870,2.20100,-1.98210,2.13380,-2.06050,2.06090,-2.13350,1.98260,-2.20070,1.89930,-2.26180,1.81140,-2.31650,1.71930,-2.36450,1.62360,-2.40550,1.52470,-2.43930,1.42310,-2.46580,1.31940,-2.48480,1.21400,-2.49630,1.10760,-2.50000,1.00000,-2.50000,-1.00000,-2.49620,-1.10700,-2.48480,-1.21340,-2.46580,-1.31880,-2.43930,-1.42250,-2.40550,-1.52410,-2.36450,-1.62300,-2.31660,-1.71870,-2.26200,-1.81080,-2.20100,-1.89870,-2.13380,-1.98210,-2.06090,-2.06050,-1.98260,-2.13350,-1.89930,-2.20070,-1.81140,-2.26180,-1.71930,-2.31650,-1.62360,-2.36450,-1.52470,-2.40550,-1.42310,-2.43930,-1.31940,-2.46580,-1.21400,-2.48480,-1.10760,-2.49630,-1.00000,-2.50000,0*%
%ADD107T107*%
%ADD123R,0.30000X0.99000*%
%ADD112R,0.30000X1.47500*%
%ADD76R,0.65000X1.52500*%
%ADD91R,1.20000X1.52400*%
%ADD86R,1.30000X1.80000*%
%ADD79R,1.42240X1.47320*%
%ADD92R,1.60000X3.15000*%
%ADD83R,1.75000X2.25000*%
%ADD85R,1.75000X3.20000*%
%ADD101R,2.15000X2.20000*%
%ADD106R,2.15000X2.30000*%
%ADD117R,3.35000X3.60000*%
%ADD81R,6.23000X6.74000*%
%ADD102R,1.52400X1.52400*%
%ADD113R,1.75260X1.75260*%
%ADD11C,0.12700*%
%ADD10C,0.20000*%
%ADD16C,0.25000*%
%ADD14C,0.25400*%
%ADD15C,0.30000*%
%ADD19C,0.38100*%
%ADD17C,0.50000*%
%ADD25C,0.54000*%
%ADD18C,0.85000*%
%ADD28C,0.90000*%
%ADD72C,1.00000*%
%ADD70C,1.12000*%
%AMT26*0 Rounded Rectangle Pad at angle 45*4,1,28,0.15560,-0.33230,0.33230,-0.15560,0.34820,-0.13490,0.35820,-0.11080,0.36160,-0.08490,0.35820,-0.05900,0.34820,-0.03490,0.33230,-0.01410,-0.01410,0.33230,-0.03480,0.34820,-0.05890,0.35820,-0.08480,0.36160,-0.11070,0.35820,-0.13480,0.34820,-0.15560,0.33230,-0.33230,0.15560,-0.34820,0.13490,-0.35820,0.11080,-0.36160,0.08490,-0.35820,0.05900,-0.34820,0.03490,-0.33230,0.01410,0.01410,-0.33230,0.03480,-0.34820,0.05890,-0.35820,0.08480,-0.36160,0.11070,-0.35820,0.13480,-0.34820,0.15560,-0.33230,0*%
%ADD26T26*%
%AMT74*0 Rounded Rectangle Pad at angle 90*4,1,32,0.29500,-0.05000,0.29500,0.05000,0.29120,0.08340,0.28010,0.11510,0.26220,0.14350,0.23850,0.16720,0.21010,0.18510,0.17840,0.19620,0.14500,0.20000,-0.14500,0.20000,-0.17840,0.19620,-0.21010,0.18510,-0.23850,0.16720,-0.26220,0.14350,-0.28010,0.11510,-0.29120,0.08340,-0.29500,0.05000,-0.29500,-0.05000,-0.29120,-0.08340,-0.28010,-0.11510,-0.26220,-0.14350,-0.23850,-0.16720,-0.21010,-0.18510,-0.17840,-0.19620,-0.14500,-0.20000,0.14500,-0.20000,0.17840,-0.19620,0.21010,-0.18510,0.23850,-0.16720,0.26220,-0.14350,0.28010,-0.11510,0.29120,-0.08340,0.29500,-0.05000,0*%
%ADD74T74*%
%AMT24*0 Rounded Rectangle Pad at angle 90*4,1,28,0.34500,-0.12500,0.34500,0.12500,0.34160,0.15090,0.33160,0.17500,0.31570,0.19570,0.29500,0.21160,0.27090,0.22160,0.24500,0.22500,-0.24500,0.22500,-0.27090,0.22160,-0.29500,0.21160,-0.31570,0.19570,-0.33160,0.17500,-0.34160,0.15090,-0.34500,0.12500,-0.34500,-0.12500,-0.34160,-0.15090,-0.33160,-0.17500,-0.31570,-0.19570,-0.29500,-0.21160,-0.27090,-0.22160,-0.24500,-0.22500,0.24500,-0.22500,0.27090,-0.22160,0.29500,-0.21160,0.31570,-0.19570,0.33160,-0.17500,0.34160,-0.15090,0.34500,-0.12500,0*%
%ADD24T24*%
%AMT71*0 Rounded Rectangle Pad at angle 135*4,1,28,0.33230,0.15560,0.15560,0.33230,0.13490,0.34820,0.11080,0.35820,0.08490,0.36160,0.05900,0.35820,0.03490,0.34820,0.01410,0.33230,-0.33230,-0.01410,-0.34820,-0.03480,-0.35820,-0.05890,-0.36160,-0.08480,-0.35820,-0.11070,-0.34820,-0.13480,-0.33230,-0.15560,-0.15560,-0.33230,-0.13490,-0.34820,-0.11080,-0.35820,-0.08490,-0.36160,-0.05900,-0.35820,-0.03490,-0.34820,-0.01410,-0.33230,0.33230,0.01410,0.34820,0.03480,0.35820,0.05890,0.36160,0.08480,0.35820,0.11070,0.34820,0.13480,0.33230,0.15560,0*%
%ADD71T71*%
%AMT21*0 Rounded Rectangle Pad at angle 45*4,1,32,0.23690,-0.39240,0.39240,-0.23690,0.41330,-0.21060,0.42790,-0.18030,0.43540,-0.14760,0.43540,-0.11400,0.42790,-0.08120,0.41330,-0.05090,0.39240,-0.02470,-0.02470,0.39240,-0.05100,0.41330,-0.08130,0.42790,-0.11400,0.43540,-0.14760,0.43540,-0.18040,0.42790,-0.21070,0.41330,-0.23690,0.39240,-0.39240,0.23690,-0.41330,0.21060,-0.42790,0.18030,-0.43540,0.14760,-0.43540,0.11400,-0.42790,0.08120,-0.41330,0.05090,-0.39240,0.02470,0.02470,-0.39240,0.05100,-0.41330,0.08130,-0.42790,0.11400,-0.43540,0.14760,-0.43540,0.18040,-0.42790,0.21070,-0.41330,0.23690,-0.39240,0*%
%ADD21T21*%
%AMT29*0 Rounded Rectangle Pad at angle 90*4,1,32,0.44500,-0.11000,0.44500,0.11000,0.44120,0.14340,0.43010,0.17510,0.41220,0.20350,0.38850,0.22720,0.36010,0.24510,0.32840,0.25620,0.29500,0.26000,-0.29500,0.26000,-0.32840,0.25620,-0.36010,0.24510,-0.38850,0.22720,-0.41220,0.20350,-0.43010,0.17510,-0.44120,0.14340,-0.44500,0.11000,-0.44500,-0.11000,-0.44120,-0.14340,-0.43010,-0.17510,-0.41220,-0.20350,-0.38850,-0.22720,-0.36010,-0.24510,-0.32840,-0.25620,-0.29500,-0.26000,0.29500,-0.26000,0.32840,-0.25620,0.36010,-0.24510,0.38850,-0.22720,0.41220,-0.20350,0.43010,-0.17510,0.44120,-0.14340,0.44500,-0.11000,0*%
%ADD29T29*%
%AMT20*0 Rounded Rectangle Pad at angle 135*4,1,32,0.39240,0.23690,0.23690,0.39240,0.21060,0.41330,0.18030,0.42790,0.14760,0.43540,0.11400,0.43540,0.08120,0.42790,0.05090,0.41330,0.02470,0.39240,-0.39240,-0.02470,-0.41330,-0.05100,-0.42790,-0.08130,-0.43540,-0.11400,-0.43540,-0.14760,-0.42790,-0.18040,-0.41330,-0.21070,-0.39240,-0.23690,-0.23690,-0.39240,-0.21060,-0.41330,-0.18030,-0.42790,-0.14760,-0.43540,-0.11400,-0.43540,-0.08120,-0.42790,-0.05090,-0.41330,-0.02470,-0.39240,0.39240,0.02470,0.41330,0.05100,0.42790,0.08130,0.43540,0.11400,0.43540,0.14760,0.42790,0.18040,0.41330,0.21070,0.39240,0.23690,0*%
%ADD20T20*%
%ADD119C,1.21700*%
%ADD121C,1.31600*%
%ADD108C,1.44600*%
%ADD89C,1.50000*%
%ADD109C,1.55000*%
%ADD114C,1.75260*%
%ADD103C,2.25000*%
%ADD110C,2.35500*%
%ADD115C,2.52400*%
%ADD75C,3.85000*%
%ADD111R,1.47500X0.30000*%
%AMT122*0 Rectangle Pad at angle 22*21,1,0.40000,1.50000,0,0,22*%
%ADD122T122*%
%ADD104R,1.40000X0.90000*%
%ADD84R,1.75000X0.95000*%
%AMT98*0 Rectangle Pad at angle 45*21,1,1.20000,1.52400,0,0,45*%
%ADD98T98*%
%ADD116R,1.39700X1.01600*%
%ADD82R,1.52400X1.20000*%
%AMT105*0 Rectangle Pad at angle 45*21,1,1.20000,1.80000,0,0,45*%
%ADD105T105*%
%AMT96*0 Rectangle Pad at angle 45*21,1,1.30000,1.80000,0,0,45*%
%ADD96T96*%
%ADD100R,1.80000X1.20000*%
%ADD88R,1.80000X1.30000*%
%AMT97*0 Rectangle Pad at angle 45*21,1,1.42240,1.47320,0,0,45*%
%ADD97T97*%
%ADD95R,1.47320X1.42240*%
%ADD80R,2.28000X1.52400*%
%ADD93R,1.63000X1.53000*%
%ADD118R,2.20000X2.15000*%
%ADD120R,2.30000X2.15000*%
%ADD78R,4.15000X2.15000*%
%ADD77R,3.10000X2.60000*%
%AMT90*0 Rectangle Pad at angle 135*21,1,0.45000,1.80000,0,0,135*%
%ADD90T90*%
%AMT99*0 Rectangle Pad at angle 135*21,1,1.01600,1.39700,0,0,135*%
%ADD99T99*%
%AMT87*0 Rectangle Pad at angle 135*21,1,1.20000,1.52400,0,0,135*%
%ADD87T87*%
%ADD94R,3.60000X3.35000*%
X0Y0D02*
D02*
D10*
X47731430Y46119160D02*
X47696430D01*
X47777430Y46073160D02*
Y46038160D01*
Y46165160D02*
Y46200160D01*
X47823430Y46119160D02*
X47858430D01*
X47846930Y42856260D02*
X47811930D01*
X47888000Y46545330D02*
X47855950Y46513280D01*
X47888000Y46621190D02*
X47855910Y46653280D01*
X47892930Y42810260D02*
Y42775260D01*
Y42902260D02*
Y42937260D01*
X47937430Y42231760D02*
X47902410D01*
X47938930Y42856260D02*
X47973930D01*
X47956430Y45387760D02*
X47921410D01*
X47963860Y46545330D02*
X47995910Y46513280D01*
X47963860Y46621190D02*
X47995950Y46653280D01*
X47997430Y43580260D02*
X47962410D01*
X48016430Y45352760D02*
Y45317780D01*
Y45422760D02*
Y45457780D01*
X48076430Y45387760D02*
X48111410D01*
X48124810Y46239260D02*
X48089810D01*
X48125310Y45771260D02*
X48090320D01*
X48125310Y46012260D02*
X48090310D01*
X48134930Y42134260D02*
Y42099280D01*
Y42329260D02*
Y42364280D01*
X48185930Y46175600D02*
Y46140580D01*
X48186430Y45707600D02*
Y45672570D01*
Y45834920D02*
Y45869920D01*
Y45948600D02*
Y45913580D01*
Y46075920D02*
Y46110880D01*
X48194930Y43482760D02*
Y43447780D01*
Y43677760D02*
Y43712780D01*
X48247050Y46239260D02*
X48282010D01*
X48247550Y45771260D02*
X48282520D01*
X48247550Y46012260D02*
X48282510D01*
X48332430Y42231760D02*
X48367410D01*
X48332810Y46240040D02*
X48297810D01*
X48335310Y45770260D02*
X48300320D01*
X48335310Y46011260D02*
X48300310D01*
X48392430Y43580260D02*
X48427410D01*
X48393930Y46176380D02*
Y46141380D01*
X48396430Y45706600D02*
Y45671570D01*
Y45833920D02*
Y45868920D01*
Y45947600D02*
Y45912580D01*
Y46074920D02*
Y46109880D01*
X48455050Y46240040D02*
X48490010D01*
X48457550Y45770260D02*
X48492520D01*
X48457550Y46011260D02*
X48492510D01*
X48574930Y45811260D02*
X48539920D01*
X48608930Y41055260D02*
X48581160Y41027490D01*
X48608930Y41453260D02*
X48581160Y41481030D01*
X48652430Y45773760D02*
Y45738770D01*
X48713430Y45223760D02*
X48678430D01*
X48729930Y45811260D02*
X48764920D01*
X48815930Y45121260D02*
Y45086260D01*
Y45326260D02*
Y45361260D01*
X48918430Y45223760D02*
X48953430D01*
X49006930Y41055260D02*
X49034700Y41027490D01*
X49006930Y41453260D02*
X49034700Y41481030D01*
X49572230Y45335260D02*
X49537230D01*
X49649930Y45724260D02*
X49614920D01*
X49688430Y45219060D02*
Y45184060D01*
Y45451460D02*
Y45486460D01*
X49721430Y45657760D02*
Y45622770D01*
Y45790760D02*
Y45825770D01*
X49792930Y45724260D02*
X49827920D01*
X49804630Y45335260D02*
X49839630D01*
D02*
D11*
X39263930Y45373760D02*
Y44929540D01*
G75*
G03*
X41864930Y40183550I6506120J479900D01*
G01*
Y40788880D01*
X41847510D01*
Y40776380D01*
X41652410D01*
Y40898260D01*
X41638980D01*
G75*
G02*
X41622930Y40894050I-16050J28490D01*
G01*
X41189430D01*
G75*
G02*
X41173380Y40898260I0J32710D01*
G01*
X41151430D01*
Y42814260D01*
X40215930D01*
Y43434380D01*
X40204610D01*
Y43692080D01*
X40215930D01*
Y44615760D01*
X39860930D01*
Y44820580D01*
G75*
G02*
X39845610Y44967310I38500J78180D01*
G01*
Y45373760D01*
X39810810D01*
Y45260380D01*
X39618110D01*
Y45373760D01*
X39263930D01*
X41503580Y40657760D02*
G75*
G02*
X41634660Y40696780I71350J0D01*
G01*
X41651410D01*
Y40739080D01*
X41846510D01*
Y40576380D01*
X41651410D01*
Y40618680D01*
X41634630D01*
G75*
G02*
X41503580Y40657760I-59700J39080D01*
G01*
X40829910Y42162780D02*
X41110610D01*
Y41957680D01*
X40829910D01*
Y42162780D01*
Y42620780D02*
X41110610D01*
Y42415680D01*
X40829910D01*
Y42620780D01*
X39963610Y44160580D02*
X40191310D01*
Y43882880D01*
X39963610D01*
Y44160580D01*
X39986110Y44570580D02*
X40213810D01*
Y44292880D01*
X39986110D01*
Y44570580D01*
X39637580Y44234760D02*
G75*
G02*
X39802280I82350J0D01*
G01*
G75*
G02*
X39637580I-82350J0D01*
G01*
X39759610Y43697080D02*
X40032310D01*
Y43429380D01*
X39759610D01*
Y43697080D01*
X41503580Y40657730D02*
G36*
X41503580Y40657730D02*
X41300020D01*
G75*
G03*
X41856450Y40189900I4470620J4752470D01*
G01*
X41858580D01*
Y40657730D01*
X41846510D01*
Y40576380D01*
X41651410D01*
Y40618680D01*
X41634630D01*
G75*
G02*
X41503580Y40657730I-59700J39080D01*
G01*
G37*
X40829910Y41957680D02*
G36*
X40829910Y41957680D02*
Y42060230D01*
X40171600D01*
G75*
G03*
X41300020Y40657730I5598480J3349210D01*
G01*
X41503580D01*
G75*
G02*
Y40657750I60310J10D01*
G01*
G75*
G02*
Y40657760I143240J10D01*
G01*
G75*
G02*
X41634660Y40696780I71350J0D01*
G01*
X41651410D01*
Y40739080D01*
X41846510D01*
Y40657730D01*
X41858580D01*
Y40788880D01*
X41847510D01*
Y40776380D01*
X41652410D01*
Y40898260D01*
X41638980D01*
G75*
G02*
X41622930Y40894050I-16040J28460D01*
G01*
X41189430D01*
G75*
G02*
X41173380Y40898260I-10J32670D01*
G01*
X41151430D01*
Y42060230D01*
X41110610D01*
Y41957680D01*
X40829910D01*
G37*
X39921900Y42518230D02*
G36*
X39921900Y42518230D02*
G75*
G03*
X40171600Y42060230I5848870J2891720D01*
G01*
X40829910D01*
Y42162780D01*
X41110610D01*
Y42060230D01*
X41151430D01*
Y42518230D01*
X41110610D01*
Y42415680D01*
X40829910D01*
Y42518230D01*
X39921900D01*
G37*
X39759610Y43429380D02*
G36*
X39759610Y43429380D02*
Y43563230D01*
X39512940D01*
G75*
G03*
X39921900Y42518230I6257590J1846380D01*
G01*
X40829910D01*
Y42620780D01*
X41110610D01*
Y42518230D01*
X41151430D01*
Y42814260D01*
X40215930D01*
Y43434380D01*
X40204610D01*
Y43563230D01*
X40032310D01*
Y43429380D01*
X39759610D01*
G37*
X39395560Y44021730D02*
G36*
X39395560Y44021730D02*
G75*
G03*
X39512940Y43563230I6375410J1387880D01*
G01*
X39759610D01*
Y43697080D01*
X40032310D01*
Y43563230D01*
X40204610D01*
Y43692080D01*
X40215930D01*
Y44021730D01*
X40191310D01*
Y43882880D01*
X39963610D01*
Y44021730D01*
X39395560D01*
G37*
X39352880Y44234760D02*
G36*
X39352880Y44234760D02*
G75*
G03*
X39395560Y44021730I6417880J1175010D01*
G01*
X39963610D01*
Y44160580D01*
X40191310D01*
Y44021730D01*
X40215930D01*
Y44234760D01*
X39802280D01*
G75*
G02*
X39637580I-82350J0D01*
G01*
X39352880D01*
G37*
X39319930Y44431730D02*
G36*
X39319930Y44431730D02*
G75*
G03*
X39352880Y44234760I6450150J977770D01*
G01*
X39637580D01*
G75*
G02*
X39802280I82350J0D01*
G01*
X40215930D01*
Y44431730D01*
X40213810D01*
Y44292880D01*
X39986110D01*
Y44431730D01*
X39319930D01*
G37*
X39270280Y45367410D02*
G36*
X39270280Y45367410D02*
Y44850070D01*
G75*
G03*
X39319930Y44431730I6500710J559410D01*
G01*
X39986110D01*
Y44570580D01*
X40213810D01*
Y44431730D01*
X40215930D01*
Y44615760D01*
X39860930D01*
Y44820580D01*
G75*
G02*
X39812280Y44898760I38490J78180D01*
G01*
G75*
G02*
X39845610Y44967310I87150J0D01*
G01*
Y45367410D01*
X39810810D01*
Y45260380D01*
X39618110D01*
Y45367410D01*
X39270280D01*
G37*
X39813430Y45907760D02*
Y45406470D01*
X39860930D01*
G75*
G02*
X39893640Y45373760I0J-32710D01*
G01*
Y44990730D01*
G75*
G02*
X39899430Y44990910I5760J-91980D01*
G01*
G75*
G02*
X39991580Y44898760I0J-92150D01*
G01*
G75*
G02*
X39899430Y44806610I-92150J0D01*
G01*
G75*
G02*
X39893640Y44806790I-30J92160D01*
G01*
Y44650260D01*
X40193220D01*
Y45145700D01*
G75*
G02*
Y45145760I33700J30D01*
G01*
G75*
G02*
X40197930Y45162670I32710J0D01*
G01*
Y45175260D01*
X40211800D01*
G75*
G02*
X40233860Y45177490I14120J-29500D01*
G01*
X40233940Y45177470D01*
X40442430Y45177700D01*
Y45907760D01*
X39813430D01*
X39828120Y45876770D02*
X40000820D01*
Y45671670D01*
X39828120D01*
Y45876770D01*
X40037880Y45446260D02*
G75*
G02*
X40342980I152550J0D01*
G01*
G75*
G02*
X40037880I-152550J0D01*
G01*
X39819780D02*
G36*
X39819780Y45446260D02*
Y45406470D01*
X39860930D01*
G75*
G02*
X39893640Y45373760I0J-32710D01*
G01*
Y44990730D01*
G75*
G02*
X39899430Y44990910I5490J-83520D01*
G01*
G75*
G02*
X39991580Y44898760I0J-92150D01*
G01*
G75*
G02*
X39899430Y44806610I-92150J0D01*
G01*
G75*
G02*
X39893640Y44806790I-300J83700D01*
G01*
Y44656610D01*
X40193220D01*
Y45145700D01*
Y45145760D01*
G75*
G02*
X40197930Y45162670I32710J0D01*
G01*
Y45175260D01*
X40211800D01*
G75*
G02*
X40233860Y45177490I14130J-29530D01*
G01*
X40233940Y45177470D01*
X40436080Y45177690D01*
Y45446260D01*
X40342980D01*
G75*
G02*
X40037880I-152550J0D01*
G01*
X39819780D01*
G37*
Y45774220D02*
G36*
X39819780Y45774220D02*
Y45446260D01*
X40037880D01*
G75*
G02*
X40342980I152550J0D01*
G01*
X40436080D01*
Y45774220D01*
X40000820D01*
Y45671670D01*
X39828120D01*
Y45774220D01*
X39819780D01*
G37*
Y45901410D02*
G36*
X39819780Y45901410D02*
Y45774220D01*
X39828120D01*
Y45876770D01*
X40000820D01*
Y45774220D01*
X40436080D01*
Y45901410D01*
X39819780D01*
G37*
X40225930Y45145760D02*
Y44646900D01*
G75*
G02*
X40248640Y44615760I-10000J-31140D01*
G01*
Y43697080D01*
X40472310D01*
Y43429380D01*
X40248640D01*
Y43187280D01*
X40431510D01*
Y42982180D01*
X40248640D01*
Y42846970D01*
X41151430D01*
G75*
G02*
X41153430Y42846910I20J-32700D01*
G01*
Y45145760D01*
X40229930Y45144760D01*
X40225930Y45145760D01*
X40263610Y44160580D02*
X40491310D01*
Y43882880D01*
X40263610D01*
Y44160580D01*
X40286110Y44570580D02*
X40513810D01*
Y44292880D01*
X40286110D01*
Y44570580D01*
X40404430Y44990910D02*
G75*
G02*
X40496580Y44898760I0J-92150D01*
G01*
G75*
G02*
X40404430Y44806610I-92150J0D01*
G01*
G75*
G02*
X40312280Y44898760I0J92150D01*
G01*
G75*
G02*
X40404430Y44990910I92150J0D01*
G01*
X40536110Y43640580D02*
X40923810D01*
Y43227880D01*
X40536110D01*
Y43640580D01*
X40248640Y42982180D02*
G36*
X40248640Y42982180D02*
Y42853260D01*
X41147080D01*
Y43434230D01*
X40923810D01*
Y43227880D01*
X40536110D01*
Y43434230D01*
X40472310D01*
Y43429380D01*
X40248640D01*
Y43187280D01*
X40431510D01*
Y42982180D01*
X40248640D01*
G37*
Y44021730D02*
G36*
X40248640Y44021730D02*
Y43697080D01*
X40472310D01*
Y43434230D01*
X40536110D01*
Y43640580D01*
X40923810D01*
Y43434230D01*
X41147080D01*
Y44021730D01*
X40491310D01*
Y43882880D01*
X40263610D01*
Y44021730D01*
X40248640D01*
G37*
Y44431730D02*
G36*
X40248640Y44431730D02*
Y44021730D01*
X40263610D01*
Y44160580D01*
X40491310D01*
Y44021730D01*
X41147080D01*
Y44431730D01*
X40513810D01*
Y44292880D01*
X40286110D01*
Y44431730D01*
X40248640D01*
G37*
X40232280Y44898760D02*
G36*
X40232280Y44898760D02*
Y44644090D01*
G75*
G02*
X40248640Y44615760I-16350J-28330D01*
G01*
Y44431730D01*
X40286110D01*
Y44570580D01*
X40513810D01*
Y44431730D01*
X41147080D01*
Y44898760D01*
X40496580D01*
G75*
G02*
X40404430Y44806610I-92150J0D01*
G01*
G75*
G02*
X40312280Y44898760I0J92150D01*
G01*
X40232280D01*
G37*
Y45139410D02*
G36*
X40232280Y45139410D02*
Y44898760D01*
X40312280D01*
G75*
G02*
X40404430Y44990910I92150J0D01*
G01*
G75*
G02*
X40496580Y44898760I0J-92150D01*
G01*
X41147080D01*
Y45139410D01*
X40232280D01*
G37*
X41187430Y41833260D02*
Y41661770D01*
X41380420D01*
Y41461770D01*
X41187430D01*
Y41444760D01*
X41521720D01*
Y41498760D01*
G75*
G02*
X41524920Y41512870I32710J0D01*
G01*
X41500620D01*
Y41718070D01*
X41617620D01*
Y41749080D01*
G75*
G02*
X41630430Y41891310I72310J65180D01*
G01*
Y41925870D01*
X41346920D01*
Y42652570D01*
X42022620D01*
Y41955260D01*
X42133930D01*
Y44043760D01*
X41271430Y44044260D01*
X41191930D01*
X41191430Y44043760D01*
Y41833260D01*
X41187430D01*
X41566120Y43640570D02*
X41953820D01*
Y43227870D01*
X41566120D01*
Y43640570D01*
X41193780Y41461770D02*
G36*
X41193780Y41461770D02*
Y41451110D01*
X41521720D01*
Y41498760D01*
G75*
G02*
X41524920Y41512870I32740J-10D01*
G01*
X41500620D01*
Y41718070D01*
X41617620D01*
Y41749080D01*
G75*
G02*
X41592580Y41814260I72310J65180D01*
G01*
G75*
G02*
X41630430Y41891310I97350J0D01*
G01*
Y41925870D01*
X41346920D01*
Y42652570D01*
X42022620D01*
Y41955260D01*
X42127580D01*
Y43434220D01*
X41953820D01*
Y43227870D01*
X41566120D01*
Y43434220D01*
X41193780D01*
Y41661770D01*
X41380420D01*
Y41461770D01*
X41193780D01*
G37*
Y44037910D02*
G36*
X41193780Y44037910D02*
Y43434220D01*
X41566120D01*
Y43640570D01*
X41953820D01*
Y43434220D01*
X42127580D01*
Y44037910D01*
X41193780D01*
G37*
X41189430Y41220770D02*
Y40926760D01*
X41622930D01*
Y41154550D01*
X41618320D01*
Y40970470D01*
X41500620D01*
Y41175670D01*
X41523840D01*
G75*
G02*
X41521720Y41187260I30590J11580D01*
G01*
Y41375050D01*
X41380420D01*
Y41220770D01*
X41189430D01*
G36*
X41189430Y41220770D02*
Y40926760D01*
X41622930D01*
Y41154550D01*
X41618320D01*
Y40970470D01*
X41500620D01*
Y41175670D01*
X41523840D01*
G75*
G02*
X41521720Y41187260I30590J11580D01*
G01*
Y41375050D01*
X41380420D01*
Y41220770D01*
X41189430D01*
G37*
X41554430Y41498760D02*
Y41187260D01*
X42010430D01*
Y40937080D01*
X42084510D01*
Y40924580D01*
X42098960D01*
Y40970280D01*
X42283910D01*
Y40780280D01*
X42098960D01*
Y40786880D01*
X42084510D01*
Y40774380D01*
X42010430D01*
Y40753760D01*
X41854930D01*
Y40191040D01*
G75*
G03*
X42776330Y39613110I3914910J5218110D01*
G01*
X43743430D01*
Y44820760D01*
X42914930D01*
Y41881080D01*
X42994670D01*
G75*
G02*
X43050920Y41858750I2260J-76320D01*
G01*
X43223360Y41686310D01*
G75*
G02*
X43247310Y41630780I-52400J-55530D01*
G01*
Y40497230D01*
X43265910D01*
Y40312280D01*
X43239810D01*
Y40165780D01*
G75*
G02*
X43218680Y40116150I-68860J0D01*
G01*
X43049870Y39947340D01*
G75*
G02*
X42887230Y39964260I-80440J16920D01*
G01*
G75*
G02*
X42952510Y40044700I82200J0D01*
G01*
X43102110Y40194300D01*
Y40312280D01*
X43075910D01*
Y40497230D01*
X43094610D01*
Y41599100D01*
X42965330Y41728380D01*
X42542690D01*
G75*
G02*
X42477460Y41734760I-25260J78380D01*
G01*
X41755310D01*
Y41615480D01*
G75*
G02*
X41740310Y41572580I-68850J0D01*
G01*
Y41517880D01*
X41736430D01*
Y41498760D01*
X41554430D01*
X42998610Y44697080D02*
X43271310D01*
Y44439380D01*
X42998610D01*
Y44697080D01*
X43142110Y42360580D02*
X43599810D01*
Y42102880D01*
X43142110D01*
Y42360580D01*
X43189080Y41967260D02*
G75*
G02*
X43343780I77350J0D01*
G01*
G75*
G02*
X43189080I-77350J0D01*
G01*
X43477430Y40046460D02*
G75*
G02*
X43559630Y39964260I0J-82200D01*
G01*
G75*
G02*
X43477430Y39882060I-82200J0D01*
G01*
G75*
G02*
X43395230Y39964260I0J82200D01*
G01*
G75*
G02*
X43477430Y40046460I82200J0D01*
G01*
X43142110Y43698080D02*
X43599810D01*
Y43440380D01*
X43142110D01*
Y43698080D01*
X43189080Y42923260D02*
G75*
G02*
X43343780I77350J0D01*
G01*
G75*
G02*
X43189080I-77350J0D01*
G01*
Y43881260D02*
G75*
G02*
X43343780I77350J0D01*
G01*
G75*
G02*
X43189080I-77350J0D01*
G01*
X41759610Y41713080D02*
X41867310D01*
Y41517880D01*
X41759610D01*
Y41713080D01*
X41886610D02*
X41994310D01*
Y41517880D01*
X41886610D01*
Y41713080D01*
X42460080Y41131940D02*
Y41349580D01*
G75*
G02*
X42622610Y41512110I162530J0D01*
G01*
X42840250D01*
G75*
G02*
X43002780Y41349580I0J-162530D01*
G01*
Y41131940D01*
G75*
G02*
X42840250Y40969410I-162530J0D01*
G01*
X42622610D01*
G75*
G02*
X42460080Y41131940I0J162530D01*
G01*
X42834910Y40497230D02*
X43024910D01*
Y40312280D01*
X42834910D01*
Y40497230D01*
X41573610Y41495580D02*
X41926310D01*
Y41192880D01*
X41573610D01*
Y41495580D01*
X42098960Y40729280D02*
X42283910D01*
Y40539280D01*
X42098960D01*
Y40729280D01*
X41888410Y40737080D02*
X42083510D01*
Y40574380D01*
X41888410D01*
Y40737080D01*
X42177020Y39964260D02*
G36*
X42177020Y39964260D02*
G75*
G03*
X42764070Y39619460I3593030J5445270D01*
G01*
X43737080D01*
Y39964260D01*
X43559630D01*
G75*
G02*
X43477430Y39882060I-82200J0D01*
G01*
G75*
G02*
X43395230Y39964260I0J82200D01*
G01*
X43066790D01*
X43049870Y39947340D01*
G75*
G02*
X42887230Y39964260I-80440J16920D01*
G01*
X42177020D01*
G37*
X41854930Y40404750D02*
G36*
X41854930Y40404750D02*
Y40191040D01*
G75*
G03*
X42177020Y39964260I3915260J5218630D01*
G01*
X42887230D01*
G75*
G02*
Y39964270I81850J10D01*
G01*
G75*
G02*
X42952510Y40044700I82190J0D01*
G01*
X43102110Y40194300D01*
Y40312280D01*
X43075910D01*
Y40404750D01*
X43024910D01*
Y40312280D01*
X42834910D01*
Y40404750D01*
X41854930D01*
G37*
X43218680Y40116150D02*
G36*
X43218680Y40116150D02*
X43066790Y39964260D01*
X43395230D01*
G75*
G02*
X43477430Y40046460I82200J0D01*
G01*
G75*
G02*
X43559630Y39964260I0J-82200D01*
G01*
X43737080D01*
Y40404750D01*
X43265910D01*
Y40312280D01*
X43239810D01*
Y40165780D01*
G75*
G02*
Y40165770I-71620J0D01*
G01*
G75*
G02*
X43218680Y40116150I-68830J0D01*
G01*
G37*
X41854930Y40634280D02*
G36*
X41854930Y40634280D02*
Y40404750D01*
X42834910D01*
Y40497230D01*
X43024910D01*
Y40404750D01*
X43075910D01*
Y40497230D01*
X43094610D01*
Y40634280D01*
X42283910D01*
Y40539280D01*
X42098960D01*
Y40634280D01*
X42083510D01*
Y40574380D01*
X41888410D01*
Y40634280D01*
X41854930D01*
G37*
X43247310D02*
G36*
X43247310Y40634280D02*
Y40497230D01*
X43265910D01*
Y40404750D01*
X43737080D01*
Y40634280D01*
X43247310D01*
G37*
X41560780Y41240760D02*
G36*
X41560780Y41240760D02*
Y41187260D01*
X42010430D01*
Y40937080D01*
X42084510D01*
Y40924580D01*
X42098960D01*
Y40970280D01*
X42283910D01*
Y40780280D01*
X42098960D01*
Y40786880D01*
X42084510D01*
Y40774380D01*
X42010430D01*
Y40753760D01*
X41854930D01*
Y40634280D01*
X41888410D01*
Y40737080D01*
X42083510D01*
Y40634280D01*
X42098960D01*
Y40729280D01*
X42283910D01*
Y40634280D01*
X43094610D01*
Y41240760D01*
X43002780D01*
Y41131940D01*
G75*
G02*
Y41131930I-143240J0D01*
G01*
G75*
G02*
X42840250Y40969410I-162530J0D01*
G01*
X42622610D01*
G75*
G02*
X42460080Y41131930I0J162520D01*
G01*
G75*
G02*
Y41131940I143240J10D01*
G01*
Y41240760D01*
X41926310D01*
Y41192880D01*
X41573610D01*
Y41240760D01*
X41560780D01*
G37*
X43247310D02*
G36*
X43247310Y41240760D02*
Y40634280D01*
X43737080D01*
Y41240760D01*
X43247310D01*
G37*
X41560780Y41498760D02*
G36*
X41560780Y41498760D02*
Y41240760D01*
X41573610D01*
Y41495580D01*
X41926310D01*
Y41240760D01*
X42460080D01*
Y41349580D01*
G75*
G02*
Y41349590I143240J10D01*
G01*
G75*
G02*
X42622610Y41512110I162530J0D01*
G01*
X42840250D01*
G75*
G02*
X43002780Y41349590I0J-162520D01*
G01*
G75*
G02*
Y41349580I-143240J0D01*
G01*
Y41240760D01*
X43094610D01*
Y41599100D01*
X43078230Y41615480D01*
X41994310D01*
Y41517880D01*
X41886610D01*
Y41615480D01*
X41867310D01*
Y41517880D01*
X41759610D01*
Y41615480D01*
X41755310D01*
G75*
G02*
X41740310Y41572580I-68900J20D01*
G01*
Y41517880D01*
X41736430D01*
Y41498760D01*
X41560780D01*
G37*
X43247310Y41615480D02*
G36*
X43247310Y41615480D02*
Y41240760D01*
X43737080D01*
Y41615480D01*
X43247310D01*
G37*
X41755310Y41734760D02*
G36*
X41755310Y41734760D02*
Y41615480D01*
X41759610D01*
Y41713080D01*
X41867310D01*
Y41615480D01*
X41886610D01*
Y41713080D01*
X41994310D01*
Y41615480D01*
X43078230D01*
X42965330Y41728380D01*
X42542690D01*
G75*
G02*
X42477460Y41734760I-25260J78360D01*
G01*
X41755310D01*
G37*
X42914930Y41967260D02*
G36*
X42914930Y41967260D02*
Y41881080D01*
X42994670D01*
G75*
G02*
X43050920Y41858750I2270J-76290D01*
G01*
X43223360Y41686310D01*
G75*
G02*
X43247310Y41630800I-52360J-55510D01*
G01*
G75*
G02*
Y41630780I-95490J-10D01*
G01*
Y41615480D01*
X43737080D01*
Y41967260D01*
X43343780D01*
G75*
G02*
X43189080I-77350J0D01*
G01*
X42914930D01*
G37*
Y42231730D02*
G36*
X42914930Y42231730D02*
Y41967260D01*
X43189080D01*
G75*
G02*
X43343780I77350J0D01*
G01*
X43737080D01*
Y42231730D01*
X43599810D01*
Y42102880D01*
X43142110D01*
Y42231730D01*
X42914930D01*
G37*
Y42923260D02*
G36*
X42914930Y42923260D02*
Y42231730D01*
X43142110D01*
Y42360580D01*
X43599810D01*
Y42231730D01*
X43737080D01*
Y42923260D01*
X43343780D01*
G75*
G02*
X43189080I-77350J0D01*
G01*
X42914930D01*
G37*
Y43569230D02*
G36*
X42914930Y43569230D02*
Y42923260D01*
X43189080D01*
G75*
G02*
X43343780I77350J0D01*
G01*
X43737080D01*
Y43569230D01*
X43599810D01*
Y43440380D01*
X43142110D01*
Y43569230D01*
X42914930D01*
G37*
Y43881260D02*
G36*
X42914930Y43881260D02*
Y43569230D01*
X43142110D01*
Y43698080D01*
X43599810D01*
Y43569230D01*
X43737080D01*
Y43881260D01*
X43343780D01*
G75*
G02*
X43189080I-77350J0D01*
G01*
X42914930D01*
G37*
Y44568230D02*
G36*
X42914930Y44568230D02*
Y43881260D01*
X43189080D01*
G75*
G02*
X43343780I77350J0D01*
G01*
X43737080D01*
Y44568230D01*
X43271310D01*
Y44439380D01*
X42998610D01*
Y44568230D01*
X42914930D01*
G37*
Y44814410D02*
G36*
X42914930Y44814410D02*
Y44568230D01*
X42998610D01*
Y44697080D01*
X43271310D01*
Y44568230D01*
X43737080D01*
Y44814410D01*
X42914930D01*
G37*
X47550430Y46693260D02*
Y46427620D01*
G75*
G02*
X47793780Y45516760I-1583010J-910860D01*
G01*
Y45162960D01*
G75*
G02*
X47796280Y45151760I-23850J-11200D01*
G01*
Y40843760D01*
X48284950D01*
X48280440Y40848270D01*
G75*
G02*
X48258080Y40902260I53990J53990D01*
G01*
G75*
G02*
X48258110Y40904520I76400J120D01*
G01*
Y41724500D01*
G75*
G02*
X48258080Y41726760I76370J2140D01*
G01*
G75*
G02*
X48280440Y41780750I76350J0D01*
G01*
X48545930Y42046240D01*
Y44068630D01*
G75*
G02*
X48542720Y44082760I29500J14130D01*
G01*
Y44974350D01*
G75*
G02*
Y44974370I26040J10D01*
G01*
G75*
G02*
Y44974400I39070J20D01*
G01*
G75*
G02*
X48542840Y44977200I32730J0D01*
G01*
G75*
G03*
X48542850Y44977350I-12620J920D01*
G01*
G75*
G02*
X48542720Y44979700I32640J2980D01*
G01*
G75*
G02*
Y44980220I32810J260D01*
G01*
Y44998300D01*
G75*
G02*
Y44998400I31480J50D01*
G01*
G75*
G02*
X48545930Y45012520I32700J-10D01*
G01*
Y45012530D01*
G75*
G03*
Y45012540I-40J10D01*
G01*
Y45013950D01*
G75*
G02*
Y45014090I32740J70D01*
G01*
G75*
G02*
Y45014230I32610J70D01*
G01*
Y45596760D01*
X48415660D01*
G75*
G02*
X48415640I-10J28650D01*
G01*
G75*
G02*
X48415050Y45596180I-23290J23100D01*
G01*
X48336310Y45517440D01*
Y45500080D01*
X48388510D01*
Y45337380D01*
X48193410D01*
Y45500080D01*
X48245510D01*
Y45536280D01*
G75*
G02*
X48260040Y45569570I45410J0D01*
G01*
X48287230Y45596760D01*
X47989930D01*
Y45906260D01*
X48519930D01*
Y46330760D01*
X48517310Y46330750D01*
X48486520Y46330690D01*
G75*
G02*
X48486430I-40J32230D01*
G01*
G75*
G03*
X48486410Y46330680I0J-10D01*
G01*
Y46145030D01*
X48301460D01*
Y46330180D01*
G75*
G02*
X48301420Y46330310I32510J10070D01*
G01*
G75*
G03*
X48301410Y46330320I0J10D01*
G01*
X48291270Y46330300D01*
X48278510Y46330270D01*
G75*
G02*
X48278420I-40J32840D01*
G01*
G75*
G02*
X48278410Y46330240I-35810J11920D01*
G01*
Y46144280D01*
X48093460D01*
Y46329770D01*
G75*
G02*
X48093420Y46329890I31810J10670D01*
G01*
G75*
G03*
Y46329900I0J10D01*
G01*
X48024930Y46329760D01*
X48031430Y46330760D01*
Y46330790D01*
G75*
G02*
X48031420I0J21220D01*
G01*
G75*
G03*
X48031410Y46330800I-70J-60D01*
G01*
G75*
G02*
X48000220Y46363470I1520J32670D01*
G01*
Y46516880D01*
X47834610D01*
Y46649580D01*
X48000220D01*
Y46659070D01*
X47747410D01*
G75*
G02*
X47714700Y46691780I0J32710D01*
G01*
Y46693260D01*
X47550430D01*
X48303960Y46106280D02*
X48488910D01*
Y45916280D01*
X48303960D01*
Y46106280D01*
X48093960Y46107280D02*
X48278910D01*
Y45917280D01*
X48093960D01*
Y46107280D01*
X47925110Y45264080D02*
X48107810D01*
Y45243180D01*
X48192410D01*
Y45300080D01*
X48387510D01*
Y45258160D01*
G75*
G02*
X48397010Y45250880I-22630J-39370D01*
G01*
G75*
G02*
X48410310Y45218780I-32100J-32100D01*
G01*
Y45197780D01*
G75*
G02*
X48397010Y45165680I-45400J0D01*
G01*
G75*
G02*
X48387510Y45158400I-32130J32090D01*
G01*
Y45137380D01*
X48192410D01*
Y45152380D01*
X48107810D01*
Y45131380D01*
X47925110D01*
Y45264080D01*
Y45454080D02*
X48107810D01*
Y45321380D01*
X47925110D01*
Y45454080D01*
X47700080Y46119160D02*
G75*
G02*
X47854780I77350J0D01*
G01*
G75*
G02*
X47700080I-77350J0D01*
G01*
X47815580Y42856260D02*
G75*
G02*
X47970280I77350J0D01*
G01*
G75*
G02*
X47815580I-77350J0D01*
G01*
X47906110Y42360580D02*
X48363810D01*
Y42102880D01*
X47906110D01*
Y42360580D01*
X47828580Y43384870D02*
Y43455650D01*
G75*
G02*
X47838410Y43475750I25460J0D01*
G01*
Y43813250D01*
G75*
G02*
X47838360Y43815230I39090J1980D01*
G01*
G75*
G02*
X47849820Y43842870I39050J0D01*
G01*
G75*
G02*
X47879440Y43854280I27640J-27600D01*
G01*
X48185440D01*
G75*
G02*
X48205540Y43864110I20100J-15630D01*
G01*
X48276320D01*
G75*
G02*
X48301780Y43838650I0J-25460D01*
G01*
Y43791870D01*
G75*
G02*
X48276320Y43766410I-25460J0D01*
G01*
X48205540D01*
G75*
G02*
X48185490Y43776180I0J25460D01*
G01*
X47916510D01*
Y43475700D01*
G75*
G02*
X47926280Y43455650I-15690J-20050D01*
G01*
Y43384870D01*
G75*
G02*
X47900820Y43359410I-25460J0D01*
G01*
X47854040D01*
G75*
G02*
X47828580Y43384870I0J25460D01*
G01*
X47966110Y43709080D02*
X48423810D01*
Y43451380D01*
X47966110D01*
Y43709080D01*
X47796280Y42231730D02*
G36*
X47796280Y42231730D02*
Y40850110D01*
X48278660D01*
G75*
G02*
X48258080Y40902250I55760J52140D01*
G01*
G75*
G02*
Y40902260I95490J10D01*
G01*
G75*
G02*
X48258110Y40904520I127840J-570D01*
G01*
Y41724500D01*
G75*
G02*
X48258080Y41726760I127810J2830D01*
G01*
G75*
G02*
Y41726770I95490J10D01*
G01*
G75*
G02*
X48280440Y41780750I76340J0D01*
G01*
X48539580Y42039890D01*
Y42231730D01*
X48363810D01*
Y42102880D01*
X47906110D01*
Y42231730D01*
X47796280D01*
G37*
Y42856260D02*
G36*
X47796280Y42856260D02*
Y42231730D01*
X47906110D01*
Y42360580D01*
X48363810D01*
Y42231730D01*
X48539580D01*
Y42856260D01*
X47970280D01*
G75*
G02*
X47815580I-77350J0D01*
G01*
X47796280D01*
G37*
Y43611760D02*
G36*
X47796280Y43611760D02*
Y42856260D01*
X47815580D01*
G75*
G02*
X47970280I77350J0D01*
G01*
X48539580D01*
Y43611760D01*
X48423810D01*
Y43451380D01*
X47966110D01*
Y43611760D01*
X47916510D01*
Y43475700D01*
G75*
G02*
X47926280Y43455660I-15670J-20040D01*
G01*
G75*
G02*
Y43455650I-44070J0D01*
G01*
Y43384870D01*
G75*
G02*
X47900820Y43359410I-25460J0D01*
G01*
X47854040D01*
G75*
G02*
X47828580Y43384870I0J25460D01*
G01*
Y43455650D01*
G75*
G02*
X47838410Y43475750I25460J0D01*
G01*
Y43611760D01*
X47796280D01*
G37*
X47793780Y45215730D02*
G36*
X47793780Y45215730D02*
Y45162960D01*
G75*
G02*
X47796280Y45151790I-23710J-11170D01*
G01*
G75*
G02*
Y45151760I-29130J-10D01*
G01*
Y43611760D01*
X47838410D01*
Y43813250D01*
G75*
G02*
X47838360Y43815070I32750J1810D01*
G01*
G75*
G02*
Y43815230I31830J80D01*
G01*
G75*
G02*
X47849820Y43842870I39080J-10D01*
G01*
G75*
G02*
X47879440Y43854280I27640J-27600D01*
G01*
X48185440D01*
G75*
G02*
X48205540Y43864110I20100J-15630D01*
G01*
X48276320D01*
G75*
G02*
X48301780Y43838650I0J-25460D01*
G01*
Y43791870D01*
G75*
G02*
X48276320Y43766410I-25460J0D01*
G01*
X48205540D01*
G75*
G02*
X48185490Y43776180I-10J25450D01*
G01*
X47916510D01*
Y43611760D01*
X47966110D01*
Y43709080D01*
X48423810D01*
Y43611760D01*
X48539580D01*
Y45215730D01*
X48410310D01*
Y45197780D01*
G75*
G02*
X48397010Y45165680I-45440J20D01*
G01*
G75*
G02*
X48387510Y45158400I-32410J32460D01*
G01*
Y45137380D01*
X48192410D01*
Y45152380D01*
X48107810D01*
Y45131380D01*
X47925110D01*
Y45215730D01*
X47793780D01*
G37*
Y45387730D02*
G36*
X47793780Y45387730D02*
Y45215730D01*
X47925110D01*
Y45264080D01*
X48107810D01*
Y45243180D01*
X48192410D01*
Y45300080D01*
X48387510D01*
Y45258160D01*
G75*
G02*
X48397010Y45250880I-22910J-39740D01*
G01*
G75*
G02*
X48410310Y45218780I-32140J-32120D01*
G01*
Y45215730D01*
X48539580D01*
Y45387730D01*
X48388510D01*
Y45337380D01*
X48193410D01*
Y45387730D01*
X48107810D01*
Y45321380D01*
X47925110D01*
Y45387730D01*
X47793780D01*
G37*
Y45516760D02*
G36*
X47793780Y45516760D02*
Y45387730D01*
X47925110D01*
Y45454080D01*
X48107810D01*
Y45387730D01*
X48193410D01*
Y45500080D01*
X48245510D01*
Y45536280D01*
G75*
G02*
X48260040Y45569570I45400J0D01*
G01*
X48287230Y45596760D01*
X47989930D01*
Y45906260D01*
X48519930D01*
Y46011280D01*
X48488910D01*
Y45916280D01*
X48303960D01*
Y46011280D01*
X48278910D01*
Y45917280D01*
X48093960D01*
Y46011280D01*
X47725550D01*
G75*
G02*
X47793780Y45516760I-1758360J-494570D01*
G01*
G37*
X48336310Y45517440D02*
G36*
X48336310Y45517440D02*
Y45500080D01*
X48388510D01*
Y45387730D01*
X48539580D01*
Y45596760D01*
X48415660D01*
X48415640D01*
G75*
G02*
X48415050Y45596180I-17410J17120D01*
G01*
X48336310Y45517440D01*
G37*
X47700080Y46119160D02*
G36*
X47700080Y46119160D02*
X47691570D01*
G75*
G02*
X47725550Y46011280I-1724580J-602500D01*
G01*
X48093960D01*
Y46107280D01*
X48278910D01*
Y46011280D01*
X48303960D01*
Y46106280D01*
X48488910D01*
Y46011280D01*
X48519930D01*
Y46119160D01*
X47854780D01*
G75*
G02*
X47700080I-77350J0D01*
G01*
G37*
X47556780Y46686910D02*
G36*
X47556780Y46686910D02*
Y46416490D01*
G75*
G02*
X47691570Y46119160I-1589540J-899810D01*
G01*
X47700080D01*
G75*
G02*
X47854780I77350J0D01*
G01*
X48519930D01*
Y46330760D01*
X48517310Y46330750D01*
X48486520Y46330690D01*
X48486430D01*
G75*
G03*
X48486410Y46330680I0J-10D01*
G01*
Y46145030D01*
X48301460D01*
Y46330180D01*
G75*
G02*
X48301420Y46330310I1480J530D01*
G01*
X48301410Y46330320D01*
X48291270Y46330300D01*
X48278510Y46330270D01*
X48278420D01*
Y46330260D01*
G75*
G02*
X48278410Y46330240I0J-20D01*
G01*
Y46144280D01*
X48093460D01*
Y46329770D01*
X48093420Y46329890D01*
Y46329900D01*
X48024930Y46329760D01*
X48031430Y46330760D01*
Y46330790D01*
X48031420D01*
G75*
G03*
Y46330800I0J10D01*
G01*
X48031410D01*
G75*
G02*
X48000220Y46363470I1520J32680D01*
G01*
Y46516880D01*
X47834610D01*
Y46649580D01*
X48000220D01*
Y46659070D01*
X47747410D01*
G75*
G02*
X47715060Y46686910I0J32710D01*
G01*
X47556780D01*
G37*
X47747430Y47293760D02*
Y46691760D01*
X48010710D01*
G75*
G02*
X48032930Y46700470I22220J-23990D01*
G01*
X49097430D01*
G75*
G02*
X49130140Y46667760I0J-32710D01*
G01*
Y46536890D01*
X49229640Y46536660D01*
G75*
G02*
X49153080Y46631760I20790J95100D01*
G01*
G75*
G02*
X49347780I97350J0D01*
G01*
G75*
G02*
X49270770Y46536560I-97350J0D01*
G01*
X49618720Y46535740D01*
Y46682370D01*
X49811120D01*
Y46535280D01*
G75*
G02*
X49811170I30J-34520D01*
G01*
X49906980Y46535050D01*
X49906990D01*
X50280620Y46534170D01*
Y46688070D01*
X50463320D01*
Y46533740D01*
G75*
G02*
X50463420I50J-33510D01*
G01*
X50667080Y46533250D01*
X50667090D01*
X50861180Y46532790D01*
X50861220D01*
G75*
G02*
X50893320Y46506370I0J-32710D01*
G01*
X51021610D01*
G75*
G02*
X51053720Y46532340I32010J-6740D01*
G01*
X52041930Y46530000D01*
Y46930870D01*
G75*
G03*
X51937610Y47299150I-6271120J-1577460D01*
G01*
X51709920Y47298850D01*
Y47266770D01*
X51514920D01*
Y47298600D01*
X51328320Y47298360D01*
Y47072400D01*
G75*
G02*
X51350790Y47048670I-61380J-80630D01*
G01*
X51514920D01*
Y47225770D01*
X51709920D01*
Y47025770D01*
X51657820D01*
Y46982070D01*
X51720520D01*
Y46809370D01*
X51515420D01*
Y46957870D01*
X51362450D01*
G75*
G02*
X51165580Y46991760I-95520J33890D01*
G01*
G75*
G02*
X51237520Y47088750I101350J0D01*
G01*
Y47298250D01*
X47747430Y47293760D01*
X51514420Y46782070D02*
X51719520D01*
Y46609370D01*
X51514420D01*
Y46782070D01*
X51179580Y46641760D02*
G75*
G02*
X51374280I97350J0D01*
G01*
G75*
G02*
X51179580I-97350J0D01*
G01*
X47824420Y47034570D02*
X48029520D01*
Y46861870D01*
X47971320D01*
Y46844570D01*
X48022320D01*
Y46701870D01*
X47829620D01*
Y46844570D01*
X47880520D01*
Y46861870D01*
X47824420D01*
Y47034570D01*
X47825420Y47234570D02*
X48030520D01*
Y47061870D01*
X47825420D01*
Y47234570D01*
X49153080Y47171760D02*
G75*
G02*
X49347780I97350J0D01*
G01*
G75*
G02*
X49153080I-97350J0D01*
G01*
X49919580Y46655260D02*
G75*
G02*
X50114280I97350J0D01*
G01*
G75*
G02*
X49919580I-97350J0D01*
G01*
Y47171760D02*
G75*
G02*
X50114280I97350J0D01*
G01*
G75*
G02*
X49919580I-97350J0D01*
G01*
X50280620Y46948070D02*
X50310620D01*
G75*
G02*
X50323250Y46965440I61310J-31300D01*
G01*
X50399250Y47041440D01*
G75*
G02*
X50450090Y47061570I48680J-48680D01*
G01*
X50743460D01*
G75*
G02*
X50918280Y46991760I73470J-69810D01*
G01*
G75*
G02*
X50741680Y46923870I-101350J0D01*
G01*
X50476400D01*
X50463320Y46910790D01*
Y46715370D01*
X50280620D01*
Y46948070D01*
X50861220Y46702370D02*
X51053620D01*
Y46548070D01*
X50861220D01*
Y46702370D01*
X50529580Y46664260D02*
G75*
G02*
X50724280I97350J0D01*
G01*
G75*
G02*
X50529580I-97350J0D01*
G01*
Y47171760D02*
G75*
G02*
X50724280I97350J0D01*
G01*
G75*
G02*
X50529580I-97350J0D01*
G01*
X47753780Y46695720D02*
G36*
X47753780Y46695720D02*
Y46691760D01*
X48010710D01*
G75*
G02*
X48015970Y46695720I22250J-24080D01*
G01*
X47753780D01*
G37*
X49130140Y46667760D02*
G36*
X49130140Y46667760D02*
Y46536890D01*
X49229640Y46536660D01*
G75*
G02*
X49153080Y46631760I20800J95110D01*
G01*
G75*
G02*
X49177040Y46695720I97350J0D01*
G01*
X49114410D01*
G75*
G02*
X49130140Y46667760I-16980J-27960D01*
G01*
G37*
X49347780Y46631760D02*
G36*
X49347780Y46631760D02*
G75*
G02*
X49270770Y46536560I-97350J0D01*
G01*
X49618720Y46535740D01*
Y46682370D01*
X49811120D01*
Y46535280D01*
X49811170D01*
X49906980Y46535050D01*
X49906990D01*
X50280620Y46534170D01*
Y46688070D01*
X50463320D01*
Y46533740D01*
X50463420D01*
X50667080Y46533250D01*
X50667090D01*
X50861180Y46532790D01*
X50861220D01*
G75*
G02*
X50891390Y46512720I10J-32690D01*
G01*
X51023640D01*
G75*
G02*
X51053720Y46532340I29990J-13100D01*
G01*
X52035580Y46530020D01*
Y46695720D01*
X51719520D01*
Y46609370D01*
X51514420D01*
Y46695720D01*
X51357960D01*
G75*
G02*
X51374280Y46641760I-81030J-53960D01*
G01*
G75*
G02*
X51179580I-97350J0D01*
G01*
G75*
G02*
X51195900Y46695720I97350J0D01*
G01*
X51053620D01*
Y46548070D01*
X50861220D01*
Y46695720D01*
X50719060D01*
G75*
G02*
X50724280Y46664260I-92130J-31450D01*
G01*
G75*
G02*
X50529580I-97350J0D01*
G01*
G75*
G02*
X50534800Y46695720I97350J10D01*
G01*
X50105470D01*
G75*
G02*
X50114280Y46655260I-88550J-40470D01*
G01*
G75*
G02*
X49919580I-97350J0D01*
G01*
G75*
G02*
X49928390Y46695720I97360J-10D01*
G01*
X49323820D01*
G75*
G02*
X49347780Y46631760I-73390J-63960D01*
G01*
G37*
X47753780Y46868220D02*
G36*
X47753780Y46868220D02*
Y46695720D01*
X48015970D01*
G75*
G02*
X48032930Y46700470I16990J-28020D01*
G01*
X49097430D01*
G75*
G02*
X49114410Y46695720I0J-32710D01*
G01*
X49177040D01*
G75*
G02*
X49323820I73390J-63960D01*
G01*
X49928390D01*
G75*
G02*
X50105470I88540J-40460D01*
G01*
X50534800D01*
G75*
G02*
X50719060I92130J-31460D01*
G01*
X50861220D01*
Y46702370D01*
X51053620D01*
Y46695720D01*
X51195900D01*
G75*
G02*
X51357960I81030J-53960D01*
G01*
X51514420D01*
Y46782070D01*
X51719520D01*
Y46695720D01*
X52035580D01*
Y46868220D01*
X51720520D01*
Y46809370D01*
X51515420D01*
Y46868220D01*
X50463320D01*
Y46715370D01*
X50280620D01*
Y46868220D01*
X48029520D01*
Y46861870D01*
X47971320D01*
Y46844570D01*
X48022320D01*
Y46701870D01*
X47829620D01*
Y46844570D01*
X47880520D01*
Y46861870D01*
X47824420D01*
Y46868220D01*
X47753780D01*
G37*
Y47148220D02*
G36*
X47753780Y47148220D02*
Y46868220D01*
X47824420D01*
Y47034570D01*
X48029520D01*
Y46868220D01*
X50280620D01*
Y46948070D01*
X50310620D01*
G75*
G02*
X50323250Y46965440I61150J-31190D01*
G01*
X50399250Y47041440D01*
G75*
G02*
X50450090Y47061570I48680J-48690D01*
G01*
X50743460D01*
G75*
G02*
X50918280Y46991760I73470J-69810D01*
G01*
G75*
G02*
X50741680Y46923870I-101350J0D01*
G01*
X50476400D01*
X50463320Y46910790D01*
Y46868220D01*
X51515420D01*
Y46957870D01*
X51362450D01*
G75*
G02*
X51165580Y46991760I-95520J33890D01*
G01*
G75*
G02*
X51237520Y47088750I101360J0D01*
G01*
Y47148220D01*
X50721390D01*
G75*
G02*
X50532470I-94460J23540D01*
G01*
X50111390D01*
G75*
G02*
X49922470I-94460J23540D01*
G01*
X49344890D01*
G75*
G02*
X49155970I-94460J23540D01*
G01*
X48030520D01*
Y47061870D01*
X47825420D01*
Y47148220D01*
X47753780D01*
G37*
X51328320D02*
G36*
X51328320Y47148220D02*
Y47072400D01*
G75*
G02*
X51350790Y47048670I-61180J-80440D01*
G01*
X51514920D01*
Y47148220D01*
X51328320D01*
G37*
X51657820Y47025770D02*
G36*
X51657820Y47025770D02*
Y46982070D01*
X51720520D01*
Y46868220D01*
X52035580D01*
Y46955910D01*
G75*
G03*
X51983220Y47148220I-6257900J-1600550D01*
G01*
X51709920D01*
Y47025770D01*
X51657820D01*
G37*
X47753780Y47292800D02*
G36*
X47753780Y47292800D02*
Y47148220D01*
X47825420D01*
Y47234570D01*
X48030520D01*
Y47148220D01*
X49155970D01*
G75*
G02*
X49153080Y47171760I94460J23540D01*
G01*
G75*
G02*
X49347780I97350J0D01*
G01*
G75*
G02*
X49344890Y47148220I-97350J0D01*
G01*
X49922470D01*
G75*
G02*
X49919580Y47171760I94460J23540D01*
G01*
G75*
G02*
X50114280I97350J0D01*
G01*
G75*
G02*
X50111390Y47148220I-97350J0D01*
G01*
X50532470D01*
G75*
G02*
X50529580Y47171760I94460J23540D01*
G01*
G75*
G02*
X50724280I97350J0D01*
G01*
G75*
G02*
X50721390Y47148220I-97350J0D01*
G01*
X51237520D01*
Y47292800D01*
X47753780D01*
G37*
X51328320D02*
G36*
X51328320Y47292800D02*
Y47148220D01*
X51514920D01*
Y47225770D01*
X51709920D01*
Y47148220D01*
X51983220D01*
G75*
G03*
X51939610Y47292800I-6208100J-1793700D01*
G01*
X51709920D01*
Y47266770D01*
X51514920D01*
Y47292800D01*
X51328320D01*
G37*
X47796280Y40282760D02*
Y39613110D01*
X48763530D01*
G75*
G03*
X52262430Y44772420I-2993690J5796320D01*
G01*
Y45642760D01*
X50040930D01*
Y44980580D01*
X50201310D01*
Y44957760D01*
X51644430D01*
Y44364760D01*
X51003930D01*
Y43498380D01*
G75*
G03*
Y43498200I20420J-90D01*
G01*
X51082050Y43420080D01*
X51137410D01*
Y43464280D01*
X51332510D01*
Y43269180D01*
X51269810D01*
Y42305970D01*
G75*
G02*
X51269830Y42304760I-45210J-1350D01*
G01*
G75*
G02*
X51256530Y42272660I-45400J0D01*
G01*
X50585950Y41602080D01*
X50588010D01*
Y41439380D01*
X50392910D01*
Y41602080D01*
X50457520D01*
G75*
G02*
X50459540Y41604070I32960J-31430D01*
G01*
X51179010Y42323540D01*
Y43269180D01*
X51137410D01*
Y43313380D01*
X51059910D01*
G75*
G02*
X51020730Y43330520I0J53350D01*
G01*
X50890990Y43460260D01*
X50494430D01*
Y42449260D01*
X49997280D01*
Y42380370D01*
G75*
G02*
X49993810Y42366250I-30460J0D01*
G01*
Y42335580D01*
X50107310D01*
Y42130380D01*
X49989610D01*
Y42212800D01*
G75*
G02*
X49977430Y42191900I-64650J23680D01*
G01*
Y42131760D01*
X49771930D01*
Y41788180D01*
X49832950D01*
G75*
G02*
X49853310Y41795290I20360J-25600D01*
G01*
X49853910D01*
G75*
G02*
X49874270Y41788180I0J-32710D01*
G01*
X49975310D01*
Y41782760D01*
X49994610D01*
Y41788180D01*
X50102310D01*
Y41782760D01*
X50121610D01*
Y41788180D01*
X50229310D01*
Y41782760D01*
X50326930D01*
Y41389580D01*
X50391910D01*
Y41402080D01*
X50587010D01*
Y41239380D01*
X50391910D01*
Y41251880D01*
X50326930D01*
Y41232760D01*
X49756930D01*
Y40518260D01*
X48837430D01*
Y40282760D01*
X47796280D01*
X50059880Y45335260D02*
G75*
G02*
X50364980I152550J0D01*
G01*
G75*
G02*
X50059880I-152550J0D01*
G01*
X50677610Y45550580D02*
X50890310D01*
Y45182880D01*
X50677610D01*
Y45550580D01*
X50699580Y45088760D02*
G75*
G02*
X50864280I82350J0D01*
G01*
G75*
G02*
X50699580I-82350J0D01*
G01*
X51310610Y45363080D02*
X51578310D01*
Y45090380D01*
X51310610D01*
Y45363080D01*
X51389080Y45467260D02*
G75*
G02*
X51553780I82350J0D01*
G01*
G75*
G02*
X51389080I-82350J0D01*
G01*
X51719580Y43939260D02*
G75*
G02*
X51884280I82350J0D01*
G01*
G75*
G02*
X51719580I-82350J0D01*
G01*
X51780580Y45064260D02*
G75*
G02*
X51945280I82350J0D01*
G01*
G75*
G02*
X51780580I-82350J0D01*
G01*
X51051110Y44300580D02*
X51278810D01*
Y44022880D01*
X51051110D01*
Y44300580D01*
X51056110Y43900580D02*
X51283810D01*
Y43622880D01*
X51056110D01*
Y43900580D01*
X51385080Y42684760D02*
G75*
G02*
X51549780I82350J0D01*
G01*
G75*
G02*
X51385080I-82350J0D01*
G01*
X51406080Y43948260D02*
G75*
G02*
X51570780I82350J0D01*
G01*
G75*
G02*
X51406080I-82350J0D01*
G01*
X50708580Y41538760D02*
G75*
G02*
X50873280I82350J0D01*
G01*
G75*
G02*
X50708580I-82350J0D01*
G01*
X50651710Y42835280D02*
X50932410D01*
Y42630180D01*
X50651710D01*
Y42835280D01*
X50708580Y42342760D02*
G75*
G02*
X50873280I82350J0D01*
G01*
G75*
G02*
X50708580I-82350J0D01*
G01*
X50651710Y43293280D02*
X50749190D01*
G75*
G02*
X50712580Y43361760I45740J68480D01*
G01*
G75*
G02*
X50877280I82350J0D01*
G01*
G75*
G02*
X50840670Y43293280I-82350J0D01*
G01*
X50932410D01*
Y43088180D01*
X50651710D01*
Y43293280D01*
X50708580Y42943260D02*
G75*
G02*
X50873280I82350J0D01*
G01*
G75*
G02*
X50708580I-82350J0D01*
G01*
X50121610Y42330580D02*
X50229310D01*
Y42135380D01*
X50121610D01*
Y42330580D01*
X50291580Y41949260D02*
G75*
G02*
X50456280I82350J0D01*
G01*
G75*
G02*
X50291580I-82350J0D01*
G01*
X50298080Y42342760D02*
G75*
G02*
X50462780I82350J0D01*
G01*
G75*
G02*
X50298080I-82350J0D01*
G01*
X49803610Y42118080D02*
X50166310D01*
Y41805380D01*
X49803610D01*
Y42118080D01*
X49846960Y41191780D02*
X50041910D01*
Y40991780D01*
X49846960D01*
Y41191780D01*
X49980580Y40801260D02*
G75*
G02*
X50145280I82350J0D01*
G01*
G75*
G02*
X49980580I-82350J0D01*
G01*
X50077410Y41207080D02*
X50282510D01*
Y41034380D01*
X50077410D01*
Y41207080D01*
X49029110Y40369580D02*
X49296810D01*
Y40086880D01*
X49029110D01*
Y40369580D01*
X49465460Y40508780D02*
X49660410D01*
Y40308780D01*
X49465460D01*
Y40508780D01*
X47894380Y39970260D02*
G75*
G02*
X48189480I147550J0D01*
G01*
G75*
G02*
X47894380I-147550J0D01*
G01*
X48413380D02*
G75*
G02*
X48718480I152550J0D01*
G01*
G75*
G02*
X48413380I-152550J0D01*
G01*
X47802630D02*
G36*
X47802630Y39970260D02*
Y39619460D01*
X48775790D01*
G75*
G03*
X49371910Y39970260I-3006290J5790530D01*
G01*
X48718480D01*
G75*
G02*
X48413380I-152550J0D01*
G01*
X48189480D01*
G75*
G02*
X47894380I-147550J0D01*
G01*
X47802630D01*
G37*
Y40228230D02*
G36*
X47802630Y40228230D02*
Y39970260D01*
X47894380D01*
G75*
G02*
X48189480I147550J0D01*
G01*
X48413380D01*
G75*
G02*
X48718480I152550J0D01*
G01*
X49371910D01*
G75*
G03*
X49734010Y40228230I-3602530J5439810D01*
G01*
X49296810D01*
Y40086880D01*
X49029110D01*
Y40228230D01*
X47802630D01*
G37*
Y40282760D02*
G36*
X47802630Y40282760D02*
Y40228230D01*
X49029110D01*
Y40369580D01*
X49296810D01*
Y40228230D01*
X49734010D01*
G75*
G03*
X49959470Y40408780I-3965770J5183260D01*
G01*
X49660410D01*
Y40308780D01*
X49465460D01*
Y40408780D01*
X48837430D01*
Y40282760D01*
X47802630D01*
G37*
X48837430Y40518260D02*
G36*
X48837430Y40518260D02*
Y40408780D01*
X49465460D01*
Y40508780D01*
X49660410D01*
Y40408780D01*
X49959470D01*
G75*
G03*
X50387660Y40801260I-4189700J5000720D01*
G01*
X50145280D01*
G75*
G02*
X49980580I-82350J0D01*
G01*
X49756930D01*
Y40518260D01*
X48837430D01*
G37*
X49756930Y41091780D02*
G36*
X49756930Y41091780D02*
Y40801260D01*
X49980580D01*
G75*
G02*
X50145280I82350J0D01*
G01*
X50387660D01*
G75*
G03*
X50660380Y41091780I-4618040J4608360D01*
G01*
X50282510D01*
Y41034380D01*
X50077410D01*
Y41091780D01*
X50041910D01*
Y40991780D01*
X49846960D01*
Y41091780D01*
X49756930D01*
G37*
Y41232760D02*
G36*
X49756930Y41232760D02*
Y41091780D01*
X49846960D01*
Y41191780D01*
X50041910D01*
Y41091780D01*
X50077410D01*
Y41207080D01*
X50282510D01*
Y41091780D01*
X50660380D01*
G75*
G03*
X51021260Y41538760I-4890590J4317710D01*
G01*
X50873280D01*
G75*
G02*
X50708580I-82350J0D01*
G01*
X50588010D01*
Y41439380D01*
X50392910D01*
Y41538760D01*
X50326930D01*
Y41389580D01*
X50391910D01*
Y41402080D01*
X50587010D01*
Y41239380D01*
X50391910D01*
Y41251880D01*
X50326930D01*
Y41232760D01*
X49756930D01*
G37*
X49771930Y41949260D02*
G36*
X49771930Y41949260D02*
Y41788180D01*
X49832950D01*
G75*
G02*
X49853310Y41795290I20370J-25630D01*
G01*
X49853910D01*
G75*
G02*
X49874270Y41788180I-10J-32740D01*
G01*
X49975310D01*
Y41782760D01*
X49994610D01*
Y41788180D01*
X50102310D01*
Y41782760D01*
X50121610D01*
Y41788180D01*
X50229310D01*
Y41782760D01*
X50326930D01*
Y41538760D01*
X50392910D01*
Y41602080D01*
X50457520D01*
G75*
G02*
X50459540Y41604070I29540J-27960D01*
G01*
X50804730Y41949260D01*
X50456280D01*
G75*
G02*
X50291580I-82350J0D01*
G01*
X50166310D01*
Y41805380D01*
X49803610D01*
Y41949260D01*
X49771930D01*
G37*
X50588010Y41602080D02*
G36*
X50588010Y41602080D02*
Y41538760D01*
X50708580D01*
G75*
G02*
X50873280I82350J0D01*
G01*
X51021260D01*
G75*
G03*
X51300370Y41949260I-5252320J3871330D01*
G01*
X50933130D01*
X50585950Y41602080D01*
X50588010D01*
G37*
X49771930Y42131760D02*
G36*
X49771930Y42131760D02*
Y41949260D01*
X49803610D01*
Y42118080D01*
X50166310D01*
Y41949260D01*
X50291580D01*
G75*
G02*
X50456280I82350J0D01*
G01*
X50804730D01*
X51088450Y42232980D01*
X50229310D01*
Y42135380D01*
X50121610D01*
Y42232980D01*
X50107310D01*
Y42130380D01*
X49989610D01*
Y42212800D01*
G75*
G02*
X49977430Y42191900I-64390J23530D01*
G01*
Y42131760D01*
X49771930D01*
G37*
X51216850Y42232980D02*
G36*
X51216850Y42232980D02*
X50933130Y41949260D01*
X51300370D01*
G75*
G03*
X51468060Y42232980I-5532090J3461100D01*
G01*
X51216850D01*
G37*
X49993810Y42342760D02*
G36*
X49993810Y42342760D02*
Y42335580D01*
X50107310D01*
Y42232980D01*
X50121610D01*
Y42330580D01*
X50229310D01*
Y42232980D01*
X51088450D01*
X51179010Y42323540D01*
Y42342760D01*
X50873280D01*
G75*
G02*
X50708580I-82350J0D01*
G01*
X50462780D01*
G75*
G02*
X50298080I-82350J0D01*
G01*
X49993810D01*
G37*
X51256530Y42272660D02*
G36*
X51256530Y42272660D02*
X51216850Y42232980D01*
X51468060D01*
G75*
G03*
X51527880Y42342760I-5698450J3176320D01*
G01*
X51269810D01*
Y42305970D01*
G75*
G02*
X51269830Y42304760I-2236370J-37570D01*
G01*
G75*
G02*
X51256530Y42272660I-45440J20D01*
G01*
G37*
X49993810Y42366250D02*
G36*
X49993810Y42366250D02*
Y42342760D01*
X50298080D01*
G75*
G02*
X50462780I82350J0D01*
G01*
X50708580D01*
G75*
G02*
X50873280I82350J0D01*
G01*
X51179010D01*
Y42684760D01*
X50932410D01*
Y42630180D01*
X50651710D01*
Y42684760D01*
X50494430D01*
Y42449260D01*
X49997280D01*
Y42380370D01*
G75*
G02*
X49993810Y42366250I-30460J0D01*
G01*
G37*
X51269810Y42684760D02*
G36*
X51269810Y42684760D02*
Y42342760D01*
X51527880D01*
G75*
G03*
X51697380Y42684760I-5759390J3067440D01*
G01*
X51549780D01*
G75*
G02*
X51385080I-82350J0D01*
G01*
X51269810D01*
G37*
X50494430Y42943260D02*
G36*
X50494430Y42943260D02*
Y42684760D01*
X50651710D01*
Y42835280D01*
X50932410D01*
Y42684760D01*
X51179010D01*
Y42943260D01*
X50873280D01*
G75*
G02*
X50708580I-82350J0D01*
G01*
X50494430D01*
G37*
X51269810D02*
G36*
X51269810Y42943260D02*
Y42684760D01*
X51385080D01*
G75*
G02*
X51549780I82350J0D01*
G01*
X51697380D01*
G75*
G03*
X51809500Y42943260I-5929650J2725450D01*
G01*
X51269810D01*
G37*
X50494430Y43266140D02*
G36*
X50494430Y43266140D02*
Y42943260D01*
X50708580D01*
G75*
G02*
X50873280I82350J0D01*
G01*
X51179010D01*
Y43266140D01*
X50932410D01*
Y43088180D01*
X50651710D01*
Y43266140D01*
X50494430D01*
G37*
X51269810D02*
G36*
X51269810Y43266140D02*
Y42943260D01*
X51809500D01*
G75*
G03*
X51931480Y43266140I-6041070J2466720D01*
G01*
X51269810D01*
G37*
X50494430Y43460260D02*
G36*
X50494430Y43460260D02*
Y43266140D01*
X50651710D01*
Y43293280D01*
X50749190D01*
G75*
G02*
X50712580Y43361760I45750J68480D01*
G01*
G75*
G02*
X50877280I82350J0D01*
G01*
G75*
G02*
X50840670Y43293280I-82360J0D01*
G01*
X50932410D01*
Y43266140D01*
X51179010D01*
Y43269180D01*
X51137410D01*
Y43313380D01*
X51059910D01*
G75*
G02*
X51020730Y43330520I-10J53340D01*
G01*
X50890990Y43460260D01*
X50494430D01*
G37*
X51003930Y43498380D02*
G36*
X51003930Y43498380D02*
Y43498200D01*
X51082050Y43420080D01*
X51137410D01*
Y43464280D01*
X51332510D01*
Y43269180D01*
X51269810D01*
Y43266140D01*
X51931480D01*
G75*
G03*
X52082100Y43761730I-6162120J2143480D01*
G01*
X51283810D01*
Y43622880D01*
X51056110D01*
Y43761730D01*
X51003930D01*
Y43498380D01*
G37*
Y43939260D02*
G36*
X51003930Y43939260D02*
Y43761730D01*
X51056110D01*
Y43900580D01*
X51283810D01*
Y43761730D01*
X52082100D01*
G75*
G03*
X52125790Y43939260I-6315260J1648320D01*
G01*
X51884280D01*
G75*
G02*
X51719580I-82350J0D01*
G01*
X51570290D01*
G75*
G02*
X51406570I-81860J9000D01*
G01*
X51003930D01*
G37*
Y44161730D02*
G36*
X51003930Y44161730D02*
Y43939260D01*
X51406570D01*
G75*
G02*
X51406080Y43948260I81860J8970D01*
G01*
G75*
G02*
X51570780I82350J0D01*
G01*
G75*
G02*
X51570290Y43939260I-82350J-30D01*
G01*
X51719580D01*
G75*
G02*
X51884280I82350J0D01*
G01*
X52125790D01*
G75*
G03*
X52173180Y44161730I-6358530J1470760D01*
G01*
X51278810D01*
Y44022880D01*
X51051110D01*
Y44161730D01*
X51003930D01*
G37*
X50040930Y45088760D02*
G36*
X50040930Y45088760D02*
Y44980580D01*
X50201310D01*
Y44957760D01*
X51644430D01*
Y44364760D01*
X51003930D01*
Y44161730D01*
X51051110D01*
Y44300580D01*
X51278810D01*
Y44161730D01*
X52173180D01*
G75*
G03*
X52256080Y44710720I-6404280J1247830D01*
G01*
Y45088760D01*
X51941550D01*
G75*
G02*
X51945280Y45064260I-78620J-24500D01*
G01*
G75*
G02*
X51780580I-82350J0D01*
G01*
G75*
G02*
X51784310Y45088760I82350J0D01*
G01*
X50864280D01*
G75*
G02*
X50699580I-82350J0D01*
G01*
X50040930D01*
G37*
Y45335260D02*
G36*
X50040930Y45335260D02*
Y45088760D01*
X50699580D01*
G75*
G02*
X50864280I82350J0D01*
G01*
X51784310D01*
G75*
G02*
X51941550I78620J-24500D01*
G01*
X52256080D01*
Y45335260D01*
X51578310D01*
Y45090380D01*
X51310610D01*
Y45335260D01*
X50890310D01*
Y45182880D01*
X50677610D01*
Y45335260D01*
X50364980D01*
G75*
G02*
X50059880I-152550J0D01*
G01*
X50040930D01*
G37*
Y45467260D02*
G36*
X50040930Y45467260D02*
Y45335260D01*
X50059880D01*
G75*
G02*
X50135960Y45467260I152550J0D01*
G01*
X50040930D01*
G37*
X50288900D02*
G36*
X50288900Y45467260D02*
G75*
G02*
X50364980Y45335260I-76470J-132000D01*
G01*
X50677610D01*
Y45467260D01*
X50288900D01*
G37*
X50890310D02*
G36*
X50890310Y45467260D02*
Y45335260D01*
X51310610D01*
Y45363080D01*
X51578310D01*
Y45335260D01*
X52256080D01*
Y45467260D01*
X51553780D01*
G75*
G02*
X51389080I-82350J0D01*
G01*
X50890310D01*
G37*
X50040930Y45636410D02*
G36*
X50040930Y45636410D02*
Y45467260D01*
X50135960D01*
G75*
G02*
X50288900I76470J-132000D01*
G01*
X50677610D01*
Y45550580D01*
X50890310D01*
Y45467260D01*
X51389080D01*
G75*
G02*
X51553780I82350J0D01*
G01*
X52256080D01*
Y45636410D01*
X50040930D01*
G37*
X48022640Y45873550D02*
Y45629470D01*
X48287230D01*
G75*
G02*
X48310490Y45619760I0J-32710D01*
G01*
X48392380D01*
G75*
G02*
X48415650Y45629470I23260J-23000D01*
G01*
X48545930D01*
G75*
G02*
X48578640Y45596760I0J-32710D01*
G01*
Y45046800D01*
G75*
G02*
X48596350Y45051970I17650J-27540D01*
G01*
X50008220D01*
Y45334460D01*
G75*
G02*
X50008210Y45335270I32750J810D01*
G01*
Y45467270D01*
G75*
G02*
X50008220Y45468080I32760J0D01*
G01*
Y45642760D01*
G75*
G02*
X50013200Y45660120I32720J10D01*
G01*
G75*
G02*
X50009220Y45675760I28720J15630D01*
G01*
Y45847550D01*
X49396320D01*
G75*
G02*
X49375700Y45854870I0J32710D01*
G01*
X49189240D01*
G75*
G02*
X49168620Y45847550I-20620J25390D01*
G01*
X48766320D01*
G75*
G02*
X48761320Y45847930I-30J32710D01*
G01*
Y45742370D01*
X48543620D01*
Y45853630D01*
G75*
G02*
X48522000Y45873620I9020J31440D01*
G01*
G75*
G02*
X48519930Y45873550I-2140J32620D01*
G01*
X48022640D01*
X49540880Y45335260D02*
G75*
G02*
X49835980I147550J0D01*
G01*
G75*
G02*
X49540880I-147550J0D01*
G01*
X49618620Y45822070D02*
X49824320D01*
Y45626370D01*
X49618620D01*
Y45822070D01*
X48682080Y45223760D02*
G75*
G02*
X48949780I133850J0D01*
G01*
G75*
G02*
X48682080I-133850J0D01*
G01*
X48093920Y45866270D02*
X48278920D01*
Y45676270D01*
X48093920D01*
Y45866270D01*
X48303920Y45865270D02*
X48488920D01*
Y45675270D01*
X48303920D01*
Y45865270D01*
X48578640Y45335260D02*
G36*
X48578640Y45335260D02*
Y45053150D01*
X50006850D01*
Y45335260D01*
X49835980D01*
G75*
G02*
X49540880I-147550J0D01*
G01*
X48889980D01*
G75*
G02*
X48949780Y45223760I-74050J-111500D01*
G01*
G75*
G02*
X48682080I-133850J0D01*
G01*
G75*
G02*
X48741880Y45335260I133850J0D01*
G01*
X48578640D01*
G37*
X48028990Y45724220D02*
G36*
X48028990Y45724220D02*
Y45629470D01*
X48287230D01*
G75*
G02*
X48310490Y45619760I20J-32670D01*
G01*
X48392380D01*
G75*
G02*
X48415650Y45629470I23240J-22960D01*
G01*
X48545930D01*
G75*
G02*
X48578640Y45596760I0J-32710D01*
G01*
Y45335260D01*
X48741880D01*
G75*
G02*
X48889980I74050J-111500D01*
G01*
X49540880D01*
G75*
G02*
X49835980I147550J0D01*
G01*
X50006850D01*
Y45724220D01*
X49824320D01*
Y45626370D01*
X49618620D01*
Y45724220D01*
X48488920D01*
Y45675270D01*
X48303920D01*
Y45724220D01*
X48278920D01*
Y45676270D01*
X48093920D01*
Y45724220D01*
X48028990D01*
G37*
Y45867270D02*
G36*
X48028990Y45867270D02*
Y45724220D01*
X48093920D01*
Y45866270D01*
X48278920D01*
Y45724220D01*
X48303920D01*
Y45865270D01*
X48488920D01*
Y45724220D01*
X49618620D01*
Y45822070D01*
X49824320D01*
Y45724220D01*
X50006850D01*
Y45847550D01*
X49396320D01*
G75*
G02*
X49375700Y45854870I-20J32640D01*
G01*
X49189240D01*
G75*
G02*
X49168620Y45847550I-20600J25320D01*
G01*
X48766320D01*
G75*
G02*
X48761320Y45847930I-130J31330D01*
G01*
Y45742370D01*
X48543620D01*
Y45853630D01*
G75*
G02*
X48525190Y45867270I8980J31410D01*
G01*
X48028990D01*
G37*
X48032930Y46667760D02*
Y46363470D01*
G75*
G02*
X48039460Y46362500I-1520J-32710D01*
G01*
X48093350Y46362610D01*
G75*
G02*
X48124760Y46339270I70J-32710D01*
G01*
X48246970D01*
G75*
G02*
X48278390Y46362980I31450J-9000D01*
G01*
X48301310Y46363030D01*
G75*
G02*
X48332640Y46340070I110J-32710D01*
G01*
X48422580D01*
G75*
G02*
X48427720I2570J-68760D01*
G01*
X48455080D01*
G75*
G02*
X48486400Y46363400I31340J-9390D01*
G01*
X48519820Y46363470D01*
G75*
G02*
X48549340Y46345070I110J-32710D01*
G01*
X48766320D01*
Y46197370D01*
X48552640D01*
Y46115070D01*
X48766320D01*
Y45967370D01*
X48552640D01*
Y45885070D01*
X48766320D01*
Y45880260D01*
X49168620D01*
Y46227570D01*
X49396320D01*
Y45880260D01*
X50041930D01*
Y45675760D01*
X52053930D01*
X52054430Y45676260D01*
X52053930Y45880260D01*
Y46497260D01*
X51053620Y46499630D01*
Y46352070D01*
X50861220D01*
Y46500080D01*
G75*
G02*
X50861140I-40J32510D01*
G01*
X50667000Y46500540D01*
X50463320Y46501030D01*
Y46455370D01*
X50280620D01*
Y46501460D01*
X49906900Y46502340D01*
X49811070Y46502570D01*
G75*
G02*
X49810890I-90J33270D01*
G01*
X49097430Y46504260D01*
Y46667760D01*
X48032930D01*
X50677620Y46050570D02*
X50890320D01*
Y45682870D01*
X50677620D01*
Y46050570D01*
X50067580Y45886760D02*
G75*
G02*
X50262280I97350J0D01*
G01*
G75*
G02*
X50067580I-97350J0D01*
G01*
X49613620Y46207070D02*
X49829320D01*
Y46001370D01*
X49613620D01*
Y46207070D01*
X49618720Y46486370D02*
X49811120D01*
Y46332070D01*
X49618720D01*
Y46486370D01*
X48088420Y46580270D02*
X48283420D01*
Y46380270D01*
X48088420D01*
Y46580270D01*
X48296420Y46581070D02*
X48491420D01*
Y46381070D01*
X48296420D01*
Y46581070D01*
X50041930Y45866720D02*
G36*
X50041930Y45866720D02*
Y45682110D01*
X52048080D01*
Y45866720D01*
X50890320D01*
Y45682870D01*
X50677620D01*
Y45866720D01*
X50260200D01*
G75*
G02*
X50069660I-95270J20040D01*
G01*
X50041930D01*
G37*
X48552640Y45967370D02*
G36*
X48552640Y45967370D02*
Y45885070D01*
X48766320D01*
Y45880260D01*
X49168620D01*
Y46104220D01*
X48766320D01*
Y45967370D01*
X48552640D01*
G37*
X49396320Y46104220D02*
G36*
X49396320Y46104220D02*
Y45880260D01*
X50041930D01*
Y45866720D01*
X50069660D01*
G75*
G02*
X50067580Y45886760I95270J20020D01*
G01*
G75*
G02*
X50262280I97350J0D01*
G01*
G75*
G02*
X50260200Y45866720I-97350J-20D01*
G01*
X50677620D01*
Y46050570D01*
X50890320D01*
Y45866720D01*
X52048080D01*
Y46104220D01*
X49829320D01*
Y46001370D01*
X49613620D01*
Y46104220D01*
X49396320D01*
G37*
X48039280Y46409220D02*
G36*
X48039280Y46409220D02*
Y46362550D01*
G75*
G02*
X48039460Y46362500I-8750J-31860D01*
G01*
X48093350Y46362610D01*
G75*
G02*
X48124760Y46339270I60J-32730D01*
G01*
X48246970D01*
G75*
G02*
X48278390Y46362980I31440J-8990D01*
G01*
X48301310Y46363030D01*
G75*
G02*
X48332640Y46340070I90J-32730D01*
G01*
X48422580D01*
G75*
G02*
X48427720I2570J-66030D01*
G01*
X48455080D01*
G75*
G02*
X48486400Y46363400I31350J-9400D01*
G01*
X48519820Y46363470D01*
G75*
G02*
X48549340Y46345070I110J-32700D01*
G01*
X48766320D01*
Y46197370D01*
X48552640D01*
Y46115070D01*
X48766320D01*
Y46104220D01*
X49168620D01*
Y46227570D01*
X49396320D01*
Y46104220D01*
X49613620D01*
Y46207070D01*
X49829320D01*
Y46104220D01*
X52048080D01*
Y46409220D01*
X51053620D01*
Y46352070D01*
X50861220D01*
Y46409220D01*
X49811120D01*
Y46332070D01*
X49618720D01*
Y46409220D01*
X48491420D01*
Y46381070D01*
X48296420D01*
Y46409220D01*
X48283420D01*
Y46380270D01*
X48088420D01*
Y46409220D01*
X48039280D01*
G37*
Y46661410D02*
G36*
X48039280Y46661410D02*
Y46409220D01*
X48088420D01*
Y46580270D01*
X48283420D01*
Y46409220D01*
X48296420D01*
Y46581070D01*
X48491420D01*
Y46409220D01*
X49618720D01*
Y46486370D01*
X49811120D01*
Y46409220D01*
X50861220D01*
Y46500080D01*
X50861140D01*
X50667000Y46500540D01*
X50463320Y46501030D01*
Y46455370D01*
X50280620D01*
Y46501460D01*
X49906900Y46502340D01*
X49811070Y46502570D01*
X49810890D01*
X49097430Y46504260D01*
Y46661410D01*
X48039280D01*
G37*
X51053620Y46499630D02*
G36*
X51053620Y46499630D02*
Y46409220D01*
X52048080D01*
Y46497270D01*
X51053620Y46499630D01*
G37*
X48410810Y41695160D02*
Y40933860D01*
X48500910Y40843760D01*
X49634430D01*
Y41532760D01*
X48545930D01*
Y41830280D01*
X48410810Y41695160D01*
X48536580Y41145440D02*
Y41363080D01*
G75*
G02*
X48699110Y41525610I162530J0D01*
G01*
X48916750D01*
G75*
G02*
X49079280Y41363080I0J-162530D01*
G01*
Y41145440D01*
G75*
G02*
X48916750Y40982910I-162530J0D01*
G01*
X48699110D01*
G75*
G02*
X48536580Y41145440I0J162530D01*
G01*
X48417160Y41254260D02*
G36*
X48417160Y41254260D02*
Y40927510D01*
X48494560Y40850110D01*
X49628080D01*
Y41254260D01*
X49079280D01*
Y41145440D01*
G75*
G02*
Y41145430I-143240J0D01*
G01*
G75*
G02*
X48916750Y40982910I-162530J0D01*
G01*
X48699110D01*
G75*
G02*
X48536580Y41145430I0J162520D01*
G01*
G75*
G02*
Y41145440I143240J10D01*
G01*
Y41254260D01*
X48417160D01*
G37*
Y41701510D02*
G36*
X48417160Y41701510D02*
Y41254260D01*
X48536580D01*
Y41363080D01*
G75*
G02*
Y41363090I143240J10D01*
G01*
G75*
G02*
X48699110Y41525610I162530J0D01*
G01*
X48916750D01*
G75*
G02*
X49079280Y41363090I0J-162520D01*
G01*
G75*
G02*
Y41363080I-143240J0D01*
G01*
Y41254260D01*
X49628080D01*
Y41532760D01*
X48545930D01*
Y41823930D01*
X48539580D01*
X48417160Y41701510D01*
G37*
X48575430Y44998400D02*
Y44980260D01*
G75*
G02*
X48575560Y44977280I-33200J-2940D01*
G01*
G75*
G02*
X48575430Y44974290I-33440J-40D01*
G01*
Y44082760D01*
X50482930D01*
Y43496760D01*
X50971250D01*
G75*
G02*
X50971220Y43498200I32680J1400D01*
G01*
G75*
G02*
Y43498260I33700J30D01*
G01*
Y43622880D01*
X50756110D01*
Y43900580D01*
X50971220D01*
Y44022880D01*
X50751110D01*
Y44300580D01*
X50971220D01*
Y44364760D01*
G75*
G02*
X51003930Y44397470I32710J0D01*
G01*
X51471930D01*
Y44650380D01*
X51310610D01*
Y44923080D01*
X51471930D01*
Y44925050D01*
X50206310D01*
Y44597880D01*
X49793610D01*
Y44985580D01*
X50008220D01*
Y45019260D01*
X48596290D01*
G75*
G02*
X48578640Y45014090I-17650J27540D01*
G01*
Y45012530D01*
G75*
G02*
X48575430Y44998400I-32710J0D01*
G01*
X48677080Y44718760D02*
G75*
G02*
X48954780I138850J0D01*
G01*
G75*
G02*
X48677080I-138850J0D01*
G01*
X48581780D02*
G36*
X48581780Y44718760D02*
Y44082760D01*
X50482930D01*
Y43503110D01*
X50971220D01*
Y43622880D01*
X50756110D01*
Y43900580D01*
X50971220D01*
Y44022880D01*
X50751110D01*
Y44300580D01*
X50971220D01*
Y44364760D01*
G75*
G02*
X51003930Y44397470I32710J0D01*
G01*
X51465580D01*
Y44650380D01*
X51310610D01*
Y44718760D01*
X50206310D01*
Y44597880D01*
X49793610D01*
Y44718760D01*
X48954780D01*
G75*
G02*
X48677080I-138850J0D01*
G01*
X48581780D01*
G37*
Y45012910D02*
G36*
X48581780Y45012910D02*
Y44718760D01*
X48677080D01*
G75*
G02*
X48954780I138850J0D01*
G01*
X49793610D01*
Y44985580D01*
X50008220D01*
Y45012910D01*
X48581780D01*
G37*
X50206310Y44925050D02*
G36*
X50206310Y44925050D02*
Y44718760D01*
X51310610D01*
Y44923080D01*
X51465580D01*
Y44925050D01*
X50206310D01*
G37*
X49251430Y41800800D02*
Y41567260D01*
X49853930D01*
Y41762550D01*
X49853320D01*
Y41587970D01*
X49735620D01*
Y41762550D01*
X49718930D01*
G75*
G02*
X49686220Y41795260I0J32710D01*
G01*
Y41800550D01*
X49627920D01*
G75*
G02*
X49613390Y41803960I10J32700D01*
G01*
X49446270Y41803400D01*
G75*
G02*
X49432920Y41800550I-13350J29860D01*
G01*
X49255430D01*
G75*
G02*
X49251430Y41800800I40J32710D01*
G01*
X49432920Y41790770D02*
X49627920D01*
Y41590770D01*
X49432920D01*
Y41790770D01*
X49257780Y41690770D02*
G36*
X49257780Y41690770D02*
Y41573610D01*
X49847580D01*
Y41587970D01*
X49735620D01*
Y41690770D01*
X49627920D01*
Y41590770D01*
X49432920D01*
Y41690770D01*
X49257780D01*
G37*
Y41797610D02*
G36*
X49257780Y41797610D02*
Y41690770D01*
X49432920D01*
Y41790770D01*
X49627920D01*
Y41690770D01*
X49735620D01*
Y41762550D01*
X49718930D01*
G75*
G02*
X49686220Y41795260I0J32710D01*
G01*
Y41797610D01*
X49257780D01*
G37*
X49255430Y44050050D02*
Y43709080D01*
X49273810D01*
Y43590860D01*
X49335860Y43528810D01*
G75*
G02*
X49359810Y43473280I-52400J-55530D01*
G01*
Y42467540D01*
G75*
G02*
X49352310Y42391630I-76380J-30780D01*
G01*
Y42307780D01*
G75*
G02*
X49331180Y42258150I-68860J0D01*
G01*
X49276940Y42203910D01*
G75*
G02*
X49255430Y42171980I-72040J25320D01*
G01*
Y41833260D01*
G75*
G02*
X49255470I20J-35260D01*
G01*
X49432920D01*
G75*
G02*
X49432960Y41833280I13660J-27270D01*
G01*
Y42031780D01*
X49627910D01*
Y41833270D01*
G75*
G03*
X49627980Y41833260I60J190D01*
G01*
X49739220D01*
Y42130380D01*
X49735610D01*
Y42335580D01*
X49853310D01*
Y42242920D01*
G75*
G02*
X49856110Y42254700I68090J-9960D01*
G01*
Y42366140D01*
G75*
G02*
X49852580Y42380370I26920J14230D01*
G01*
Y42493150D01*
G75*
G02*
X49874120Y42522270I30460J0D01*
G01*
X49751930Y42523260D01*
X49878440D01*
G75*
G02*
X49883040Y42523610I4600J-30080D01*
G01*
X49966820D01*
G75*
G02*
X49971420Y42523260I0J-30430D01*
G01*
X50461720D01*
Y43460260D01*
G75*
G02*
X50463380Y43470540I32720J-10D01*
G01*
G75*
G02*
X50450220Y43496760I19550J26220D01*
G01*
Y44050050D01*
X49255430D01*
X49427410Y42284280D02*
X49632510D01*
Y42079180D01*
X49427410D01*
Y42284280D01*
X49739710Y43325080D02*
X50415410D01*
Y42598380D01*
X49739710D01*
Y43325080D01*
X49793610Y43955580D02*
X50206310D01*
Y43567880D01*
X49793610D01*
Y43955580D01*
X49261780Y42178290D02*
G36*
X49261780Y42178290D02*
Y41839610D01*
X49432960D01*
Y42031780D01*
X49627910D01*
Y41839610D01*
X49739220D01*
Y42130380D01*
X49735610D01*
Y42181730D01*
X49632510D01*
Y42079180D01*
X49427410D01*
Y42181730D01*
X49264690D01*
G75*
G02*
X49261780Y42178290I-59770J47610D01*
G01*
G37*
X49276940Y42203910D02*
G36*
X49276940Y42203910D02*
G75*
G02*
X49264690Y42181730I-72090J25340D01*
G01*
X49427410D01*
Y42284280D01*
X49632510D01*
Y42181730D01*
X49735610D01*
Y42335580D01*
X49853310D01*
Y42242920D01*
G75*
G02*
X49856110Y42254700I68090J-9960D01*
G01*
Y42366140D01*
G75*
G02*
X49852580Y42380370I27060J14270D01*
G01*
Y42493150D01*
G75*
G02*
X49874120Y42522270I30450J0D01*
G01*
X49751930Y42523260D01*
X49878440D01*
G75*
G02*
X49883040Y42523610I4660J-30800D01*
G01*
X49966820D01*
G75*
G02*
X49971420Y42523260I-60J-31150D01*
G01*
X50457030D01*
Y42961730D01*
X50415410D01*
Y42598380D01*
X49739710D01*
Y42961730D01*
X49359810D01*
Y42467540D01*
G75*
G02*
X49365780Y42436760I-76370J-30780D01*
G01*
G75*
G02*
X49352310Y42391630I-82340J0D01*
G01*
Y42307780D01*
G75*
G02*
Y42307770I-71620J0D01*
G01*
G75*
G02*
X49331180Y42258150I-68830J0D01*
G01*
X49276940Y42203910D01*
G37*
X49261780Y43761730D02*
G36*
X49261780Y43761730D02*
Y43709080D01*
X49273810D01*
Y43590860D01*
X49335860Y43528810D01*
G75*
G02*
X49359810Y43473300I-52360J-55510D01*
G01*
G75*
G02*
Y43473280I-95490J-10D01*
G01*
Y42961730D01*
X49739710D01*
Y43325080D01*
X50415410D01*
Y42961730D01*
X50457030D01*
Y43476790D01*
G75*
G02*
X50450220Y43496760I25930J19990D01*
G01*
Y43761730D01*
X50206310D01*
Y43567880D01*
X49793610D01*
Y43761730D01*
X49261780D01*
G37*
Y44043700D02*
G36*
X49261780Y44043700D02*
Y43761730D01*
X49793610D01*
Y43955580D01*
X50206310D01*
Y43761730D01*
X50450220D01*
Y44043700D01*
X49261780D01*
G37*
D02*
D14*
X41018150Y47509490D02*
X40930000D01*
X40734850Y47314340D01*
X41049430Y47264760D02*
Y47264990D01*
X41156040Y47371600D01*
X41059730Y48057050D02*
X41163430D01*
X41544220Y47676260D01*
X41552620D01*
X41704050Y47827690D01*
X41064120Y47463530D02*
Y47462950D01*
X40943930Y47342760D01*
X41110080Y47417570D02*
Y47418410D01*
X41235930Y47544260D01*
X41129930Y47069760D02*
X41129970D01*
X41293930Y47233720D01*
X41142930Y47172760D02*
Y47174650D01*
X41247960Y47279680D01*
X41221930Y47069260D02*
Y47069800D01*
X41339890Y47187760D01*
X41456430Y46847760D02*
X41459510D01*
X41569700Y46957950D01*
X41477770Y47049870D02*
Y47047100D01*
X41359930Y46929260D01*
X41523740Y47003910D02*
Y47003570D01*
X41353930Y46833760D01*
X41566160Y47965570D02*
Y47960490D01*
X41461930Y47856260D01*
X41461430D01*
X41354930Y47962760D01*
Y48091760D01*
X40955430Y48491260D01*
X40796930D01*
X40783850Y48504340D01*
X41612120Y47919610D02*
Y47922450D01*
X41690430Y48000760D01*
Y48048260D01*
X41589430Y48149260D01*
X41405430D01*
X40923350Y48631340D01*
X40935350Y48643340D01*
Y48658340D01*
X41748930Y40657760D02*
X41574930D01*
X41750010Y47781730D02*
Y47779840D01*
X41572930Y47602760D01*
X41529430D01*
X41217930Y47914260D01*
X41147430D01*
Y47905260D01*
X41795970Y47735760D02*
Y47729260D01*
X41836930D01*
X41918930Y47811260D01*
X41795970Y47735760D02*
X41841930Y47689800D01*
X41887900Y47643840D02*
X41937010D01*
X42009430Y47716260D01*
X41887900Y47643840D02*
X41933860Y47597880D01*
X41892630Y46834470D02*
X41855720D01*
X41779930Y46910260D01*
X41892630Y46834470D02*
Y46883760D01*
X41559930Y47216460D01*
X41552440D01*
X41431810Y47095830D01*
X42025780Y47505950D02*
X42026620D01*
X42134430Y47613760D01*
Y47726260D01*
X42043130Y46982470D02*
X42037220D01*
X41960930Y47058760D01*
X41806430D01*
X41563930Y47301260D01*
X41545320D01*
X41385850Y47141790D01*
X42071740Y47459990D02*
Y47462070D01*
X42189930Y47580260D01*
X42268930D01*
X42567930Y47879260D01*
X42260930Y48270760D02*
Y48628550D01*
X42263520Y48631140D01*
X42260930Y48270760D02*
Y48209170D01*
X42323630Y48146470D01*
X42553930Y48550260D02*
Y48548170D01*
X42644630Y48457470D01*
X42622730Y48479370D01*
Y48479460D01*
X42557930Y48544260D01*
Y48667760D01*
X42622930Y48732760D01*
Y48983050D01*
X42622730Y48983250D01*
Y48990350D01*
X43565930Y50575260D02*
X43560430D01*
Y50710260D01*
X43811430Y50826260D01*
X43741760Y50999360D01*
X43634330Y49852760D02*
Y49992670D01*
X43637730Y49996070D01*
Y50157070D02*
Y50211160D01*
X43564930Y50283960D01*
Y50375260D01*
X43681490Y50975010D02*
X43729430Y50859260D01*
X43301830Y50659360D01*
Y50584260D01*
X43303430D01*
X43687730Y49996070D02*
Y49907360D01*
X43718530Y49876560D01*
Y49795660D01*
X43720030D01*
X43753630Y49762060D01*
X43860430D01*
X43897130Y49798760D01*
Y50140160D01*
X43936730Y50179760D01*
X44312430D01*
X43687730Y50157070D02*
Y50256460D01*
X43799730Y49858860D02*
Y49875560D01*
X43737730Y49937560D01*
Y49996070D01*
X43808930Y50372260D02*
Y50316160D01*
X43741930Y50249160D01*
Y50161270D01*
X43737730Y50157070D01*
X43809930Y50572260D02*
X43804430D01*
Y50753760D01*
X43895430Y50797760D01*
X43802020Y51023710D01*
X44106630Y48736660D02*
Y48818460D01*
X44195930Y48907760D01*
X44194430D01*
X44218930Y50383760D02*
Y50230760D01*
X44269930Y50179760D01*
X44312430D01*
X44717430Y49359760D02*
X44589430D01*
X44566930Y49382260D01*
Y49337760D01*
X44565930D01*
X44882430Y47968260D02*
X44848930D01*
Y49065760D01*
X44925430Y49142260D01*
X45064430D01*
X45064930Y49142760D01*
X45289630D01*
X44894930Y50988760D02*
Y50830260D01*
X45270430Y50454760D01*
X45384230D01*
X45593730Y50245260D01*
Y50234760D01*
X45795930D01*
X45130930Y49272260D02*
X45152430D01*
X45172930Y49292760D01*
X45289630D01*
X45135430Y49202260D02*
X45160930D01*
X45201430Y49242760D01*
X45289630D01*
X45136430Y47968260D02*
Y48043260D01*
X44904930Y48274760D01*
Y49054760D01*
X44938430Y49088260D01*
X45289630D01*
Y49092760D01*
X45140930Y49392760D02*
X45289630D01*
X45141430Y49842760D02*
X45289630D01*
Y49192760D02*
X45440930D01*
Y49194760D01*
X45454430Y49208260D01*
Y49248760D01*
X45451930D01*
X45289630Y49342760D02*
X45429930D01*
X45289630Y49492760D02*
Y49494760D01*
X45192430D01*
X45182430Y49484760D01*
X45151930D01*
X45289630Y49542760D02*
X45193430D01*
Y49543260D01*
X45186430Y49550260D01*
X45149930D01*
X45289630Y49642760D02*
X45181930D01*
X45175930Y49636760D01*
X45124930D01*
X45289630Y49692760D02*
X45183430D01*
X45172930Y49703260D01*
X45125430D01*
X45289630Y49742760D02*
X45374930D01*
X45407930Y49724760D01*
X45435430D01*
X45289630Y49792760D02*
X45434430D01*
X45429930Y49442760D02*
X45289630D01*
X45488430Y48893960D02*
Y48987760D01*
X45480430D01*
Y49081760D01*
X45488430Y50041560D02*
X45487930D01*
X45393130Y49946760D01*
X44904930D01*
X44881930Y49923760D01*
Y49765760D01*
X45535930Y50625260D02*
Y50625760D01*
X45890930Y50980760D01*
X45910930D01*
Y50988760D01*
X45538430Y48893960D02*
Y49015260D01*
X45549930Y49026760D01*
Y49080760D01*
X45538430Y50041560D02*
Y49922260D01*
X45514930Y49898760D01*
X45057930D01*
X45022430Y49863260D01*
Y49812760D01*
X45588430Y48893960D02*
Y48745760D01*
X45638430Y48893960D02*
X45638930D01*
Y49175260D01*
X45619430Y49194760D01*
Y49216760D01*
X45638430Y50041560D02*
Y49753760D01*
X45750930Y49641260D01*
X46201430D01*
X46289930Y49729760D01*
Y49883760D01*
X46318930Y49912760D01*
X47480480D01*
X47544430Y49976710D01*
X47825930D01*
X45688430Y48893960D02*
Y48751760D01*
X45687430Y48737760D01*
X45738430Y48893960D02*
Y48793760D01*
X45753430Y48778760D01*
X45755430D01*
Y48663260D01*
Y50617760D02*
Y50680260D01*
X45893930Y50818760D01*
X46620430D01*
X46672930Y50871260D01*
Y50988760D01*
X45788430Y48893960D02*
Y49034160D01*
Y50041560D02*
Y49769760D01*
X45856930Y49701260D01*
X46010430D01*
X46073930Y49764760D01*
X46082430D01*
X45838430Y48893960D02*
Y48324760D01*
X45978430Y48184760D01*
X46307930D01*
X46399430Y48093260D01*
Y47975260D01*
X46406430Y47968260D01*
X45851930Y50371760D02*
X45616930D01*
X45430430Y50558260D01*
X45323930D01*
X45271930Y50610260D01*
Y51048260D01*
X45203430Y51116760D01*
X45007930D01*
X44894930Y51229760D01*
Y51242760D01*
X45892930Y49126260D02*
Y49125260D01*
X45950930Y49067260D01*
X46007430D01*
X46087430Y48987260D01*
Y48893960D01*
X46088430D01*
X45907930Y48734760D02*
Y48777260D01*
X45914430D01*
X45938430Y48801260D01*
Y48893960D01*
X45913430Y50275760D02*
X45858930D01*
X45828430Y50306260D01*
X45603430D01*
X45401430Y50508260D01*
X45292930D01*
X45148930Y50652260D01*
Y50988760D01*
X45967930Y49889260D02*
X45963430D01*
X45938430Y49914260D01*
Y50041560D01*
X45988430Y48893960D02*
Y48783760D01*
X45973930Y48769260D01*
Y48608760D01*
X46038430Y48893960D02*
Y48696760D01*
X46047430Y48687760D01*
Y48642260D01*
X46047930D01*
X46081430Y49865260D02*
X46080430D01*
X46012930Y49797760D01*
X45877430D01*
X45836930Y49838260D01*
Y50041560D01*
X45838430D01*
X46088430D02*
Y49872260D01*
X46081430Y49865260D01*
X46089430Y50176760D02*
X46083430D01*
X46038430Y50131760D01*
Y50041560D01*
X46108430Y48755260D02*
Y48756760D01*
X46108930D01*
X46138430Y48786260D01*
Y48893960D01*
Y50041560D02*
Y49830760D01*
X46080930Y49769260D01*
Y49764760D01*
X46082430D01*
X46188930Y48731760D02*
X46188430Y48732260D01*
Y48893960D01*
X46238430Y49042760D02*
Y48893960D01*
X46349930Y50185760D02*
Y50236760D01*
X46320430Y50266260D01*
X46020930D01*
X45988930Y50234260D01*
Y50046560D01*
X45988430Y50046060D01*
Y50041560D01*
X46437230Y49142760D02*
X46604930D01*
X46437230Y49242760D02*
X46862930D01*
X47025930Y49079760D01*
Y48979760D01*
X47136930Y48868760D01*
X46437230Y49292760D02*
X46887430D01*
X47071430Y49108760D01*
X47156930D01*
X46437230Y49342760D02*
X47147930D01*
X47156930Y49333760D01*
X46437230Y49392760D02*
X46316930D01*
X46437230Y49442760D02*
X46537430D01*
X46570430Y49409760D01*
X46605430D01*
X46437230Y49492760D02*
X47845430D01*
X47885930Y49452260D01*
Y48479260D01*
X48387430Y47977760D01*
X51082930D01*
X46437230Y49692760D02*
X47523430D01*
X47534930Y49681260D01*
X46437230Y49742760D02*
X47584430D01*
X47749930Y49577260D01*
X46602930Y49074260D02*
X46517430D01*
X46498930Y49092760D01*
X46437230D01*
X46636930Y49797760D02*
X46542930D01*
Y49792760D01*
X46437230D01*
X47187430Y49635260D02*
X46812430D01*
Y49642760D01*
X46437230D01*
X47356930Y49107760D02*
X47624430D01*
X47652430Y49079760D01*
Y49002260D01*
X47655430D01*
X47356930Y49332760D02*
X47538930D01*
X47594930Y49276760D01*
Y49223260D01*
X47596430D01*
X47632930Y50241260D02*
Y50092910D01*
X47710930Y48750760D02*
Y48804760D01*
X47647930Y48867760D01*
X47336930D01*
X47748430Y49403760D02*
Y49302210D01*
X47767410Y49283230D01*
Y48070760D01*
X47313910Y47617260D01*
X44606430D01*
X43942430Y46953260D01*
X42298930D01*
X42269720Y46982470D01*
X42043130D01*
X47819430Y49384760D02*
Y48051260D01*
X47335430Y47567260D01*
X44623430D01*
X43955430Y46899260D01*
X42476930D01*
X42400430Y46822760D01*
X42371930D01*
X48196930Y49853260D02*
X48144930D01*
X48082930Y49915260D01*
Y50235760D01*
X48240930Y43815260D02*
X47877430D01*
Y43420260D01*
X50124930Y48234760D02*
X50047900D01*
X49949950Y48332710D01*
X48151400D01*
X47975880Y48508230D01*
Y49606280D01*
X47791400Y49790760D01*
X46765430D01*
X46701930Y49854260D01*
X46437230D01*
Y49842760D01*
X50124930Y48488760D02*
X50047900D01*
X49949950Y48390810D01*
X48175460D01*
X48033980Y48532290D01*
Y49630240D01*
X47815460Y49848760D01*
D02*
D15*
X48454730Y39970260D02*
X48404730D01*
X48565930Y39859060D02*
Y39809060D01*
Y40081460D02*
Y40131460D01*
X48677130Y39970260D02*
X48727130D01*
X49070430Y40228260D02*
X49020410D01*
X49162930Y40128260D02*
Y40078280D01*
Y40328260D02*
Y40378280D01*
X49255430Y40228260D02*
X49305410D01*
X49506810Y40408760D02*
X49456810D01*
X49562930Y40350100D02*
Y40300080D01*
X49619050Y40408760D02*
X49669010D01*
X49844930Y41961760D02*
X49794910D01*
X49888310Y41091760D02*
X49838310D01*
X49944430Y41033100D02*
Y40983080D01*
Y41150420D02*
Y41200380D01*
X49984930Y41846760D02*
Y41796780D01*
X50000550Y41091760D02*
X50050510D01*
X50021930Y40801260D02*
X49971930D01*
X50048430Y42294210D02*
Y42344180D01*
X50062930Y40760260D02*
Y40710260D01*
Y40842260D02*
Y40892260D01*
X50101230Y45335260D02*
X50051230D01*
X50103930Y40801260D02*
X50153930D01*
X50118730Y41120760D02*
X50068710D01*
X50124930Y41961760D02*
X50174910D01*
X50179930Y41075760D02*
Y41025780D01*
Y41165760D02*
Y41215780D01*
X50212430Y45224060D02*
Y45174060D01*
Y45446460D02*
Y45496460D01*
X50241130Y41120760D02*
X50291110D01*
X50323630Y45335260D02*
X50373630D01*
X50339430Y42342760D02*
X50289430D01*
X50380430Y42301760D02*
Y42251760D01*
Y42383760D02*
Y42433760D01*
X50421430Y42342760D02*
X50471430D01*
X50693090Y42732760D02*
X50643110D01*
X50714540Y45297370D02*
X50668910Y45251740D01*
X50714540Y45436150D02*
X50668910Y45481780D01*
X50726500Y43125170D02*
X50680910Y43079580D01*
X50726500Y43256350D02*
X50680870Y43301980D01*
X50749930Y41538760D02*
X50699930D01*
X50749930Y42342760D02*
X50699930D01*
X50749930Y42943260D02*
X50699930D01*
X50752940Y45059770D02*
X50717580Y45024410D01*
X50752940Y45117750D02*
X50717580Y45153110D01*
X50753930Y43361760D02*
X50703930D01*
X50790930Y41497760D02*
Y41447760D01*
Y41579760D02*
Y41629760D01*
Y42301760D02*
Y42251760D01*
Y42383760D02*
Y42433760D01*
Y42902260D02*
Y42852260D01*
Y42984260D02*
Y43034260D01*
X50792090Y42671560D02*
Y42621580D01*
Y42793960D02*
Y42843980D01*
X50810920Y45059770D02*
X50846280Y45024410D01*
X50810920Y45117750D02*
X50846280Y45153110D01*
X50831930Y41538760D02*
X50881930D01*
X50831930Y42342760D02*
X50881930D01*
X50831930Y42943260D02*
X50881930D01*
X50835930Y43361760D02*
X50885930D01*
X50853320Y45297370D02*
X50898910Y45251780D01*
X50853320Y45436150D02*
X50898910Y45481740D01*
X50857680Y43125170D02*
X50903270Y43079580D01*
X50857680Y43256350D02*
X50903310Y43301980D01*
X50891090Y42732760D02*
X50941110D01*
X51092430Y44161760D02*
X51042410D01*
X51097430Y43761760D02*
X51047410D01*
X51164930Y44064260D02*
Y44014280D01*
Y44259260D02*
Y44309280D01*
X51169930Y43664260D02*
Y43614280D01*
Y43859260D02*
Y43909280D01*
X51237430Y44161760D02*
X51287410D01*
X51242430Y43761760D02*
X51292410D01*
X51351930Y45226760D02*
X51301910D01*
X51426430Y42684760D02*
X51376430D01*
X51430430Y45467260D02*
X51380430D01*
X51444430Y45131760D02*
Y45081780D01*
Y45321760D02*
Y45371780D01*
X51447430Y43948260D02*
X51397430D01*
X51467430Y42643760D02*
Y42593760D01*
Y42725760D02*
Y42775760D01*
X51471430Y45426260D02*
Y45376260D01*
Y45508260D02*
Y45558260D01*
X51488430Y43907260D02*
Y43857260D01*
Y43989260D02*
Y44039260D01*
X51508430Y42684760D02*
X51558430D01*
X51512430Y45467260D02*
X51562430D01*
X51529430Y43948260D02*
X51579430D01*
X51536930Y45226760D02*
X51586910D01*
X51760930Y43939260D02*
X51710930D01*
X51801930Y43898260D02*
Y43848260D01*
Y43980260D02*
Y44030260D01*
X51821930Y45064260D02*
X51771930D01*
X51842930Y43939260D02*
X51892930D01*
X51862930Y45023260D02*
Y44973260D01*
Y45105260D02*
Y45155260D01*
X51903930Y45064260D02*
X51953930D01*
D02*
D16*
X41607430Y41344260D02*
X41567410D01*
X41749930Y41461760D02*
Y41501780D01*
X41813430Y41551710D02*
Y41511680D01*
Y41679210D02*
Y41719180D01*
X41833430Y41615460D02*
X41873410D01*
X41892430Y41344260D02*
X41932410D01*
X41922230Y40655760D02*
X41882210D01*
X41985930Y40608260D02*
Y40568280D01*
Y40703260D02*
Y40743280D01*
X42049630Y40655760D02*
X42089610D01*
X42132810Y40634260D02*
X42092810D01*
X42191430Y40573100D02*
Y40533080D01*
Y40695420D02*
Y40735380D01*
X42250050Y40634260D02*
X42290010D01*
X42493930Y41240760D02*
X42453930D01*
X42731430Y41003260D02*
Y40963260D01*
Y41478260D02*
Y41518260D01*
X42868770Y40404760D02*
X42828810D01*
X42929930Y40346140D02*
Y40306180D01*
Y40463380D02*
Y40503380D01*
X42968930Y41240760D02*
X43008930D01*
X42991090Y40404760D02*
X43031110D01*
X43032430Y44568260D02*
X42992410D01*
X43134930Y44473260D02*
Y44433280D01*
Y44663260D02*
Y44703280D01*
X43175930Y42231760D02*
X43135910D01*
X43175930Y43569260D02*
X43135910D01*
X43222930Y41967260D02*
X43182930D01*
X43222930Y42923260D02*
X43182930D01*
X43222930Y43881260D02*
X43182930D01*
X43237430Y44568260D02*
X43277410D01*
X43266430Y41923760D02*
Y41883760D01*
Y42010760D02*
Y42050760D01*
Y42879760D02*
Y42839760D01*
Y42966760D02*
Y43006760D01*
Y43837760D02*
Y43797760D01*
Y43924760D02*
Y43964760D01*
X43309930Y41967260D02*
X43349930D01*
X43309930Y42923260D02*
X43349930D01*
X43309930Y43881260D02*
X43349930D01*
X43370930Y42136760D02*
Y42096780D01*
Y42326760D02*
Y42366780D01*
Y43474260D02*
Y43434280D01*
Y43664260D02*
Y43704280D01*
X43565930Y42231760D02*
X43605910D01*
X43565930Y43569260D02*
X43605910D01*
D02*
D17*
X39669430Y45331760D02*
X39599410D01*
X39688930Y44234760D02*
X39618930D01*
X39714430Y45311760D02*
Y45241780D01*
X39719930Y44203760D02*
Y44133760D01*
Y44265760D02*
Y44335760D01*
X39750930Y44234760D02*
X39820930D01*
X39810930Y43563260D02*
X39740910D01*
X39895930Y43480760D02*
Y43410780D01*
Y43645760D02*
Y43715780D01*
X39914430Y45723060D02*
Y45653070D01*
X39928280Y44869910D02*
X39977780Y44820410D01*
X39928280Y44927610D02*
X39977780Y44977110D01*
X39949430Y45774260D02*
X40019420D01*
X39980930Y43563260D02*
X40050910D01*
X40014930Y44021760D02*
X39944910D01*
X40037430Y44431760D02*
X39967410D01*
X40077430Y43934260D02*
Y43864280D01*
Y44109260D02*
Y44179280D01*
X40089230Y45446260D02*
X40019230D01*
X40099930Y44344260D02*
Y44274280D01*
Y44519260D02*
Y44589280D01*
X40190430Y45345060D02*
Y45275060D01*
Y45547460D02*
Y45617460D01*
X40291630Y45446260D02*
X40361630D01*
X40328930Y43033560D02*
Y42963580D01*
Y43135960D02*
Y43205980D01*
X40335930Y43480760D02*
Y43410780D01*
Y43645760D02*
Y43715780D01*
X40337430Y44431760D02*
X40267410D01*
X40363630Y44898760D02*
X40293630D01*
X40377430Y43934260D02*
Y43864280D01*
Y44109260D02*
Y44179280D01*
X40380130Y43084760D02*
X40450110D01*
X40399930Y44344260D02*
Y44274280D01*
Y44519260D02*
Y44589280D01*
X40404430Y44857960D02*
Y44787960D01*
Y44939560D02*
Y45009560D01*
X40420930Y43563260D02*
X40490910D01*
X40439930Y44021760D02*
X40509910D01*
X40445230Y44898760D02*
X40515230D01*
X40462430Y44431760D02*
X40532410D01*
X40587430Y43434260D02*
X40517410D01*
X40729930Y43279260D02*
Y43209280D01*
Y43589260D02*
Y43659280D01*
X40872430Y43434260D02*
X40942410D01*
X40881270Y42060260D02*
X40811310D01*
X40881270Y42518260D02*
X40811310D01*
X40970270Y42009060D02*
Y41939080D01*
Y42111460D02*
Y42181480D01*
Y42467060D02*
Y42397080D01*
Y42569460D02*
Y42639480D01*
X41059270Y42060260D02*
X41129310D01*
X41059270Y42518260D02*
X41129310D01*
X41282930Y41272100D02*
Y41202070D01*
Y41610420D02*
Y41680420D01*
X41329050Y41320760D02*
X41399020D01*
X41329050Y41561760D02*
X41399020D01*
X41398270Y42289260D02*
X41328270D01*
X41551930Y41073060D02*
X41481920D01*
X41551930Y41615460D02*
X41481920D01*
X41559430Y41021810D02*
Y40951770D01*
Y41666710D02*
Y41736670D01*
X41617430Y43434260D02*
X41547420D01*
X41684770Y42601260D02*
Y42671270D01*
X41759930Y43279260D02*
Y43209270D01*
Y43589260D02*
Y43659270D01*
X41902430Y43434260D02*
X41972420D01*
X41971270Y42289260D02*
X42041270D01*
X47876730Y47148260D02*
X47806720D01*
X47927930Y47183260D02*
Y47253270D01*
X47979130Y47148260D02*
X48049120D01*
X48139810Y46480260D02*
X48069820D01*
X48185930Y46431600D02*
Y46361570D01*
Y46528920D02*
Y46598920D01*
X48393930Y46432380D02*
Y46362370D01*
Y46529700D02*
Y46599670D01*
X48440050Y46481040D02*
X48510020D01*
X48652430Y46018760D02*
Y45948770D01*
Y46063760D02*
Y46133770D01*
X48714930Y46041260D02*
X48784920D01*
X48728430Y44718760D02*
X48658430D01*
X48815930Y44631260D02*
Y44561260D01*
Y44806260D02*
Y44876260D01*
X48903430Y44718760D02*
X48973430D01*
X49212610Y45971440D02*
X49149920Y45908750D01*
X49212610Y46111080D02*
X49149920Y46173770D01*
X49217910Y47139240D02*
X49168410Y47089740D01*
X49217910Y47204280D02*
X49168410Y47253780D01*
X49250430Y46677760D02*
Y46747760D01*
X49282950Y47139240D02*
X49332450Y47089740D01*
X49282950Y47204280D02*
X49332450Y47253780D01*
X49296430Y46631760D02*
X49366430D01*
X49352250Y45971440D02*
X49414920Y45908770D01*
X49352250Y46111080D02*
X49414920Y46173750D01*
X49478730Y42181760D02*
X49408710D01*
X49484310Y41690760D02*
X49414320D01*
X49484310Y41931760D02*
X49414310D01*
X49529930Y42130560D02*
Y42060580D01*
Y42232960D02*
Y42302980D01*
X49530430Y41980420D02*
Y42050380D01*
X49576550Y41690760D02*
X49646520D01*
X49576550Y41931760D02*
X49646510D01*
X49581130Y42181760D02*
X49651110D01*
X49664930Y46104260D02*
X49594920D01*
X49670080Y46409260D02*
X49600120D01*
X49670080Y46605260D02*
X49600120D01*
X49714930Y46383460D02*
Y46313470D01*
Y46631060D02*
Y46701070D01*
X49721430Y46052760D02*
Y45982770D01*
Y46155760D02*
Y46225770D01*
X49759780Y46409260D02*
X49829820D01*
X49759780Y46605260D02*
X49829820D01*
X49777930Y46104260D02*
X49847920D01*
X49786930Y41690560D02*
X49716920D01*
X49786930Y42232960D02*
X49716910D01*
X49791090Y42961760D02*
X49721110D01*
X49794430Y42284210D02*
Y42354180D01*
X49844930Y43761760D02*
X49774910D01*
X49844930Y44791760D02*
X49774910D01*
X49984410Y46622740D02*
X49934910Y46573240D01*
X49984410Y46687780D02*
X49934910Y46737280D01*
X49984410Y47139240D02*
X49934910Y47089740D01*
X49984410Y47204280D02*
X49934910Y47253780D01*
X49999930Y43619260D02*
Y43549280D01*
Y43904260D02*
Y43974280D01*
Y44649260D02*
Y44579280D01*
X50049450Y46622740D02*
X50098950Y46573240D01*
X50049450Y46687780D02*
X50098950Y46737280D01*
X50049450Y47139240D02*
X50098950Y47089740D01*
X50049450Y47204280D02*
X50098950Y47253780D01*
X50077590Y42649760D02*
Y42579780D01*
Y43273760D02*
Y43343780D01*
X50154930Y43761760D02*
X50224910D01*
X50154930Y44791760D02*
X50224910D01*
X50331930Y46571760D02*
X50261920D01*
X50364090Y42961760D02*
X50434110D01*
X50411930Y46571760D02*
X50481920D01*
X50594410Y46631740D02*
X50544910Y46582240D01*
X50594410Y46696780D02*
X50544910Y46746280D01*
X50594410Y47139240D02*
X50544910Y47089740D01*
X50594410Y47204280D02*
X50544910Y47253780D01*
X50659450Y46631740D02*
X50708950Y46582240D01*
X50659450Y46696780D02*
X50708950Y46746280D01*
X50659450Y47139240D02*
X50708950Y47089740D01*
X50659450Y47204280D02*
X50708950Y47253780D01*
X50721610Y45804440D02*
X50658920Y45741750D01*
X50721610Y45929080D02*
X50658920Y45991770D01*
X50802430Y44161760D02*
X50732410D01*
X50807430Y43761760D02*
X50737410D01*
X50846250Y45804440D02*
X50908920Y45741770D01*
X50846250Y45929080D02*
X50908920Y45991750D01*
X50864930Y44074260D02*
Y44004280D01*
Y44249260D02*
Y44319280D01*
X50869930Y43674260D02*
Y43604280D01*
Y43849260D02*
Y43919280D01*
X50912580Y46429260D02*
X50842620D01*
X50912580Y46625260D02*
X50842620D01*
X50957430Y46403460D02*
Y46333470D01*
Y46599460D02*
Y46529470D01*
Y46651060D02*
Y46721070D01*
X51002280Y46429260D02*
X51072320D01*
X51002280Y46625260D02*
X51072320D01*
X51244410Y46609240D02*
X51194910Y46559740D01*
X51244410Y46674280D02*
X51194910Y46723780D01*
X51309450Y46609240D02*
X51358950Y46559740D01*
X51309450Y46674280D02*
X51358950Y46723780D01*
X51361930Y44786760D02*
X51291910D01*
X51444430Y44701760D02*
Y44631780D01*
X51565730Y46695760D02*
X51495720D01*
X51616930Y46660760D02*
Y46590770D01*
X51668130Y46695760D02*
X51738120D01*
D02*
D18*
X39714430Y45331760D02*
Y44240260D01*
X39719930Y44234760D01*
X40060930D01*
X40077430Y44218260D01*
X39895930Y43563260D02*
X39717430D01*
Y44191760D01*
X39719930Y44194260D01*
Y44234760D01*
X39914430Y45774260D02*
Y44913760D01*
X39899430Y44898760D01*
X40077430Y44021760D02*
Y44218260D01*
Y44409260D01*
X40099930Y44431760D01*
X40621360Y48210030D02*
X40632210Y48199180D01*
X40676430D01*
X40680430Y48201260D01*
X40684430D01*
X40763430Y48280260D01*
X40621360Y48210030D02*
X40592500D01*
X40440350Y48362180D01*
X40669930Y47618260D02*
X40551010Y47498180D01*
X40734500Y47757490D02*
Y47681670D01*
X40669930Y47618260D01*
X40763430Y48280260D02*
X40829930D01*
X40919010Y48199180D01*
X41689930Y41814260D02*
X41686430D01*
Y41615460D01*
X41749930Y40857760D02*
X41984930D01*
X41986930Y40855760D01*
X41749930Y41344260D02*
X42627930D01*
X42731430Y41240760D01*
X41813430Y41615460D02*
Y41407760D01*
X41749930Y41344260D01*
X41883230Y46536050D02*
Y46534960D01*
X42004430Y46413760D01*
X41985930Y40655760D02*
X42169930D01*
X42191430Y40634260D01*
X41986930Y40855760D02*
X42171930D01*
X42191430Y40875260D01*
X42033350Y46692340D02*
X42035850D01*
X42183850Y46840340D01*
X42142930Y47986470D02*
X42136720D01*
X42013930Y48109260D01*
X42230930Y46650760D02*
X42183850Y46697840D01*
Y46699840D01*
X42111430Y46772260D01*
X42183850Y46840340D01*
X42520930Y42231760D02*
X42514930D01*
Y42006260D01*
X42517430D01*
Y41806760D01*
X42785350Y48315340D02*
X42942850Y48472840D01*
X42993630D01*
X43122340Y48601550D01*
X42951930Y48771970D02*
Y49104260D01*
X43063930Y48198260D02*
X42902430D01*
X42785350Y48315340D01*
X43149630Y48953560D02*
X43149730D01*
X43312930Y49116760D01*
X43170930Y40404760D02*
Y40165760D01*
X42969430Y39964260D01*
X43288230Y48814960D02*
Y48767440D01*
X43122340Y48601550D01*
X43302430Y50384260D02*
Y50341260D01*
X43273430D01*
Y50215260D01*
X44219930Y50583760D02*
Y51132160D01*
G75*
G02*
X44632430Y51544660I412500J0D01*
G01*
X46631430D01*
Y51542560D01*
X46832130D01*
G75*
G02*
X46994630Y51380060I0J-162500D01*
G01*
Y51373960D01*
G75*
G03*
X47263430Y51105160I268800J0D01*
G01*
X48099730D01*
G75*
G02*
X48377330Y50827560I0J-277600D01*
G01*
Y49735060D01*
G75*
G03*
X48743530Y49368860I366200J0D01*
G01*
X50430630D01*
G75*
G02*
X51012330Y48787160I0J-581700D01*
G01*
Y48680460D01*
X51012030D01*
X44565930Y49577760D02*
X44430930D01*
Y49710760D01*
X44449430Y49729260D01*
X44640930Y49765760D02*
X44485930D01*
X44449430Y49729260D01*
X44722930Y50319160D02*
X44905430Y50303760D01*
Y50317660D01*
X44895430Y50327660D01*
X44800930Y49200260D02*
X44703430D01*
X44635430Y49132260D01*
X44800930Y49200260D02*
Y49201260D01*
X44937430Y49337760D01*
X44965930D01*
X44895430Y50086660D02*
X44717430D01*
X44712430Y50081660D01*
X45038930Y48601160D02*
X45042430Y48436660D01*
X45034900Y48872230D01*
Y48812690D01*
X45041430Y48806160D01*
X45131930Y50084160D02*
X44712430Y50081660D01*
X45131930Y50325160D02*
X44722930Y50319160D01*
X45277430Y48436660D02*
X45275900Y48872230D01*
Y48812690D01*
X45282430Y48806160D01*
X45279930Y48601160D02*
X45277430Y48436660D01*
X46599930Y50086660D02*
X46584930Y50694160D01*
X46824930Y50536160D02*
Y50426660D01*
X46822430D01*
Y50316160D01*
X46859930Y50086660D02*
X46834930D01*
Y50286760D01*
X46859830Y50311660D01*
X47009930D01*
X47865930Y50435260D02*
X47639430Y50435760D01*
X47633930Y50441260D01*
X47927930Y47148260D02*
X48733930D01*
X49250430Y46631760D01*
X48083930Y50435760D02*
X47865930Y50435260D01*
X48185930Y46480260D02*
X48188930D01*
Y46479260D01*
X48754930D01*
G75*
G02*
X48968430Y46265760I0J-213500D01*
G01*
Y46041260D01*
X48652430D01*
X48194930Y43580260D02*
Y42906260D01*
X48195930D01*
Y42231760D01*
X48134930D01*
X48396430Y45770260D02*
X48220930D01*
X48219930Y45771260D01*
X48565930Y39970260D02*
X48904930D01*
X49162930Y40228260D01*
X48652430Y46271260D02*
X48425150D01*
X48393930Y46240040D01*
X48815930Y44718760D02*
Y44821260D01*
X49554930D01*
Y44821760D01*
X51427430D01*
X48984930Y42229260D02*
Y42231760D01*
X49282430Y46041260D02*
Y46104260D01*
X49721430D01*
X49282430Y46041260D02*
Y46039760D01*
X48652430D01*
Y46041260D01*
X49283430Y42436760D02*
Y42307760D01*
X49204930Y42229260D01*
X49562930Y40408760D02*
Y40342760D01*
X49426930Y40206760D01*
X49184430D01*
X49162930Y40228260D01*
X49721430Y45724260D02*
Y45727260D01*
Y46104260D02*
X49289930D01*
Y46105760D01*
X50957430D01*
Y46429260D01*
X49721430Y46104260D02*
X50783930D01*
Y45866760D01*
X49924930Y42436760D02*
Y42236460D01*
X49921430Y42232960D01*
X50175430Y41690560D02*
Y41320760D01*
X50489430D01*
X50180930D02*
X49956430D01*
X49944430Y41332760D01*
X50371930Y46831760D02*
Y46916760D01*
X50447930Y46992760D01*
X50815930D01*
X50816930Y46991760D01*
X50489430Y41320760D02*
X50180930D01*
X50864930Y44161760D02*
Y44491760D01*
X51427430D01*
Y44821760D01*
X50869930Y43761760D02*
Y43961760D01*
X50864930D01*
Y44161760D01*
X51612430Y47366760D02*
Y47589760D01*
D02*
D19*
X39714430Y45521760D02*
X39712930D01*
Y45775260D01*
X39714430D01*
X40399930Y44431760D02*
Y44898760D01*
X40404430D01*
X40399930Y44431760D02*
Y44044260D01*
X40377430Y44021760D01*
X40451660Y48040330D02*
X40465510Y48054180D01*
X40298220Y48221460D01*
X40674430Y47988760D02*
X40530920D01*
X40465510Y48054180D01*
X40794630Y48800470D02*
Y49000730D01*
X41031740Y49237840D01*
X40904200Y47927190D02*
X40929870D01*
X41059730Y48057050D01*
X41282930Y41561760D02*
X41505730D01*
X41559430Y41615460D01*
X41520200Y48011540D02*
X41520050D01*
X41469930Y48061660D01*
X41559430Y41073060D02*
X41530630D01*
X41282930Y41320760D01*
X41559430Y41615460D02*
Y42163920D01*
X41684770Y42289260D01*
X41658090Y47873650D02*
X41660320D01*
X41781430Y47994760D01*
X41742510Y46678180D02*
X41740930D01*
X41718930Y46700180D01*
Y46759760D01*
X41592080Y46886610D01*
X41615660Y46910190D01*
Y46911980D01*
X41759430Y44335760D02*
Y43434760D01*
X41759930Y43434260D01*
Y42364420D01*
X41684770Y42289260D01*
X41926230Y50132330D02*
X41685500D01*
X40594930Y49041760D01*
Y48694670D01*
X40643130Y48646470D01*
X41940430Y41073060D02*
Y40857760D01*
X41942430Y40855760D01*
X42191430D01*
Y40875260D01*
X42117710Y47414030D02*
Y47412280D01*
X42165830Y47364160D01*
X42313340Y47816050D02*
Y47853330D01*
X42464350Y48004340D01*
X42466850D01*
X42624350Y48161840D01*
X42483630Y48303970D02*
X42468030D01*
Y48599360D01*
X42304330Y48763060D01*
Y49015160D01*
X42353320Y49064150D01*
Y49080150D01*
X42532930Y49259760D02*
X42655430D01*
X42763930Y49151260D01*
Y48653260D01*
X42802130Y48615060D01*
Y48614970D01*
X42746430Y47976760D02*
Y48039760D01*
X42624350Y48161840D01*
X43376950Y50947960D02*
X43424430Y50847260D01*
X43442430Y50854760D01*
X43423430Y50846760D01*
X43621220Y50950660D01*
X44014930Y50571260D02*
X44019130D01*
Y50745860D01*
X43943630Y50940860D01*
X43892530Y50975960D01*
X43865030Y51041560D01*
X43865390Y51043560D01*
X43862290D01*
Y51048060D01*
X44014930Y50571260D02*
X44207430D01*
X44219930Y50583760D01*
X44394430Y48906760D02*
Y49132260D01*
X44565930Y49337760D02*
Y49303760D01*
X44394430Y49132260D01*
X44965930Y49577760D02*
Y49681760D01*
X44881930Y49765760D01*
X47925930Y46773260D02*
Y46947260D01*
X47926930Y46948260D01*
X48016430Y45197760D02*
X48364930D01*
Y45218760D01*
X48289930D01*
X48219930Y45771260D02*
X48186430D01*
X48290930Y45418760D02*
Y45536260D01*
X48388930Y45634260D01*
Y45771260D01*
X49530430Y41690760D02*
X49794230D01*
X49794430Y41690560D01*
X49530430Y41931760D02*
Y42181260D01*
X49529930Y42181760D01*
X49794430Y42232960D02*
X49581130D01*
X49529930Y42181760D01*
X49794430Y42232960D02*
Y42678600D01*
X50077590Y42961760D01*
Y43684100D01*
X49999930Y43761760D01*
X50490430Y41520760D02*
Y41570760D01*
X51224430Y42304760D01*
Y43356260D01*
X51234930Y43366760D01*
X51266930Y46991760D02*
Y47003260D01*
X51612430D01*
X51282930Y47976760D02*
Y47007760D01*
X51266930Y46991760D01*
X51427430Y44821760D02*
X50029930D01*
X49999930Y44791760D01*
X51612430Y47125760D02*
Y47003260D01*
X51617930Y46895760D02*
X51612430Y46901260D01*
Y47003260D01*
D02*
D70*
X39719930Y44234760D03*
X40669930Y47618260D03*
X40763430Y48280260D03*
X41689930Y41814260D03*
X42004430Y46413760D03*
X42013930Y48109260D03*
X42230930Y46650760D03*
X42517430Y41806760D03*
X42951930Y49104260D03*
X43063930Y48198260D03*
X43266430Y41967260D03*
Y42923260D03*
Y43881260D03*
X43273430Y50215260D03*
X43312930Y49116760D03*
X44449430Y49729260D03*
X44712430Y50081660D03*
X44722930Y50319160D03*
X44800930Y49200260D03*
X45042430Y48436660D03*
X45277430D03*
X46584930Y50694160D03*
X47009930Y50311660D03*
X47777430Y46119160D03*
X47865930Y50435260D03*
X47892930Y42856260D03*
X49250430Y46631760D03*
Y47171760D03*
X49283430Y42436760D03*
X50016930Y46655260D03*
Y47171760D03*
X50062930Y40801260D03*
X50164930Y45886760D03*
X50373930Y41949260D03*
X50380430Y42342760D03*
X50626930Y46664260D03*
Y47171760D03*
X50781930Y45088760D03*
X50790930Y41538760D03*
Y42342760D03*
Y42943260D03*
X50794930Y43361760D03*
X51276930Y46641760D03*
X51467430Y42684760D03*
X51471430Y45467260D03*
X51488430Y43948260D03*
X51612430Y47589760D03*
X51801930Y43939260D03*
X51862930Y45064260D03*
D02*
D71*
X41049430Y47264760D03*
X41129930Y47069760D03*
X41142930Y47172760D03*
X41221930Y47069260D03*
X41235930Y47544260D03*
X41353930Y46833760D03*
X41359930Y46929260D03*
X41456430Y46847760D03*
D02*
D20*
X40943930Y47342760D03*
X41469930Y48061660D03*
X41781430Y47994760D03*
X42165830Y47364160D03*
X42567930Y47879260D03*
D02*
D21*
X40674430Y47988760D03*
X41918930Y47811260D03*
X42009430Y47716260D03*
D02*
D22*
X42260930Y48270760D03*
X42553930Y48550260D03*
X43634330Y49852760D03*
X43799730Y49858860D03*
X44106630Y48736660D03*
X45022430Y49812760D03*
X45451930Y49248760D03*
X45480430Y49081760D03*
X45535930Y50625260D03*
X45549930Y49080760D03*
X45588430Y48745760D03*
X45619430Y49216760D03*
X45637930Y50625760D03*
X45687430Y48737760D03*
X45697430Y50541260D03*
X45755430Y48663260D03*
Y50617760D03*
X45788430Y49034160D03*
X45795930Y50234760D03*
X45811430Y50536760D03*
X45907930Y48734760D03*
X45913430Y50275760D03*
X45973930Y48608760D03*
X46047930Y48642260D03*
X46089430Y50176760D03*
X46108430Y48755260D03*
X46188930Y48731760D03*
X46238430Y49042760D03*
X46316930Y49392760D03*
X47596430Y49223260D03*
X47655430Y49002260D03*
X47710930Y48750760D03*
X47748430Y49403760D03*
X47749930Y49577260D03*
X47819430Y49384760D03*
X47877430Y43420260D03*
D02*
D23*
X43687730Y50256460D03*
X45967930Y49889260D03*
X46081430Y49865260D03*
X46082430Y49764760D03*
X46349930Y50185760D03*
D02*
D24*
X42371930Y46822760D03*
X44312430Y50179760D03*
X44717430Y49359760D03*
X45124930Y49636760D03*
X45125430Y49703260D03*
X45130930Y49272260D03*
X45135430Y49202260D03*
X45140930Y49392760D03*
X45141430Y49842760D03*
X45149930Y49550260D03*
X45151930Y49484760D03*
X45429930Y49342760D03*
Y49442760D03*
X45434430Y49792760D03*
X45435430Y49724760D03*
X45851930Y50371760D03*
X46009930Y50720760D03*
X46602930Y49074260D03*
X46604930Y49142760D03*
X46605430Y49409760D03*
X47187430Y49635260D03*
X47534930Y49681260D03*
X47632930Y50092910D03*
X47667930Y49918610D03*
X47815460Y49848760D03*
X47825930Y49976710D03*
X48196930Y49853260D03*
X48240930Y43815260D03*
D02*
D25*
X51234930Y43366760D02*
X51059930D01*
X50879930Y43546760D01*
Y43696760D01*
X50869930Y43706760D01*
Y43761760D01*
D02*
D26*
X41779930Y46910260D03*
X45892930Y49126260D03*
D02*
D27*
X42134430Y47726260D03*
X42471430Y48479260D03*
X42761930Y48871760D03*
D02*
D28*
X41574930Y40657760D03*
X42746430Y47976760D03*
D02*
D29*
X41147430Y47905260D03*
D02*
D72*
X42520930Y42231760D02*
Y43569260D01*
Y44384260D01*
X42704930Y44568260D01*
X43170930Y40404760D02*
Y41630760D01*
X42996930Y41804760D01*
X42520930D01*
Y42231760D01*
X48574430Y40510260D02*
Y40565760D01*
X48622680Y40614010D01*
X48626180D01*
X48666930Y40654760D01*
X49162930D01*
Y40658260D01*
X48984930Y42231760D02*
X48839430D01*
X48334430Y41726760D01*
Y40902260D01*
X48622680Y40614010D01*
X49204930Y42229260D02*
X48984930D01*
X49283430Y42436760D02*
Y43473260D01*
X49176430Y43580260D01*
X49044930D01*
X49562930Y40649760D02*
X49221930D01*
X49213430Y40658260D01*
X49162930D01*
D02*
D73*
X49924930Y42436760D03*
D02*
D74*
X46636930Y49797760D03*
D02*
D75*
X44382530Y47961760D03*
X47160430D03*
D02*
D76*
X41559430Y41073060D03*
Y41615460D03*
X41686430Y41073060D03*
Y41615460D03*
X41813430Y41073060D03*
Y41615460D03*
X41940430Y41073060D03*
Y41615460D03*
X49794430Y41690560D03*
Y42232960D03*
X49921430Y41690560D03*
Y42232960D03*
X50048430Y41690560D03*
Y42232960D03*
X50175430Y41690560D03*
Y42232960D03*
D02*
D77*
X41749930Y41344260D03*
X49984930Y41961760D03*
D02*
D78*
X42520930Y42231760D03*
Y43569260D03*
X43370930Y42231760D03*
Y43569260D03*
X48134930Y42231760D03*
X48194930Y43580260D03*
X48984930Y42231760D03*
X49044930Y43580260D03*
D02*
D79*
X41282930Y41320760D03*
Y41561760D03*
X42191430Y40634260D03*
Y40875260D03*
X44014930Y50330260D03*
Y50571260D03*
X44895430Y50086660D03*
Y50327660D03*
X45131930Y50084160D03*
Y50325160D03*
X48185930Y46239260D03*
Y46480260D03*
X48186430Y45771260D03*
Y46012260D03*
X48393930Y46240040D03*
Y46481040D03*
X48396430Y45770260D03*
Y46011260D03*
X49530430Y41690760D03*
Y41931760D03*
X49562930Y40408760D03*
Y40649760D03*
X49944430Y41091760D03*
Y41332760D03*
X51612430Y47125760D03*
Y47366760D03*
D02*
D80*
X40970270Y42060260D03*
Y42518260D03*
X50792090Y42732760D03*
Y43190760D03*
D02*
D81*
X41684770Y42289260D03*
X50077590Y42961760D03*
D02*
D82*
X41748930Y40657760D03*
X41749930Y40857760D03*
X41985930Y40655760D03*
X41986930Y40855760D03*
X43302430Y50384260D03*
X43303430Y50584260D03*
X43564930Y50375260D03*
X43565930Y50575260D03*
X43808930Y50372260D03*
X43809930Y50572260D03*
X44218930Y50383760D03*
X44219930Y50583760D03*
X47632930Y50241260D03*
X47633930Y50441260D03*
X47926930Y46948260D03*
X47927930Y47148260D03*
X48082930Y50235760D03*
X48083930Y50435760D03*
X48289930Y45218760D03*
X48290930Y45418760D03*
X50179930Y41120760D03*
X50180930Y41320760D03*
X50489430D03*
X50490430Y41520760D03*
X51616930Y46695760D03*
X51617930Y46895760D03*
D02*
D83*
X40077430Y44021760D03*
X40099930Y44431760D03*
X40377430Y44021760D03*
X40399930Y44431760D03*
X50864930Y44161760D03*
X50869930Y43761760D03*
X51164930Y44161760D03*
X51169930Y43761760D03*
D02*
D84*
X48652430Y45811260D03*
Y46041260D03*
Y46271260D03*
D02*
D85*
X49282430Y46041260D03*
D02*
D86*
X50371930Y46571760D03*
Y46831760D03*
D02*
D87*
X40643130Y48646470D03*
X40783850Y48504340D03*
X40794630Y48800470D03*
X40919010Y48199180D03*
X40935350Y48658340D03*
X41059730Y48057050D03*
X41742510Y46678180D03*
X41883230Y46536050D03*
X41892630Y46834470D03*
X42033350Y46692340D03*
X42043130Y46982470D03*
X42183850Y46840340D03*
X42323630Y48146470D03*
X42464350Y48004340D03*
X42483630Y48303970D03*
X42624350Y48161840D03*
X42644630Y48457470D03*
X42785350Y48315340D03*
X42802130Y48614970D03*
X42942850Y48472840D03*
D02*
D88*
X46599930Y50086660D03*
X46859930D03*
D02*
D89*
X50816930Y46991760D03*
Y47641760D03*
X51266930Y46991760D03*
Y47641760D03*
D02*
D90*
X41018150Y47509490D03*
X41064120Y47463530D03*
X41110080Y47417570D03*
X41156040Y47371600D03*
X41202000Y47325640D03*
X41247960Y47279680D03*
X41293930Y47233720D03*
X41339890Y47187760D03*
X41385850Y47141790D03*
X41431810Y47095830D03*
X41477770Y47049870D03*
X41520200Y48011540D03*
X41523740Y47003910D03*
X41566160Y47965570D03*
X41569700Y46957950D03*
X41612120Y47919610D03*
X41615660Y46911980D03*
X41658090Y47873650D03*
X41704050Y47827690D03*
X41750010Y47781730D03*
X41795970Y47735760D03*
X41841930Y47689800D03*
X41887900Y47643840D03*
X41933860Y47597880D03*
X41979820Y47551920D03*
X42025780Y47505950D03*
X42071740Y47459990D03*
X42117710Y47414030D03*
D02*
D91*
X39714430Y45775260D03*
X39914430Y45774260D03*
X44194430Y48907760D03*
X44394430Y48906760D03*
X47136930Y48868760D03*
X47156930Y49108760D03*
Y49333760D03*
X47336930Y48867760D03*
X47356930Y49107760D03*
Y49332760D03*
X51082930Y47977760D03*
X51282930Y47976760D03*
D02*
D92*
X50783930Y45366760D03*
Y45866760D03*
D02*
D93*
X49721430Y45724260D03*
Y46104260D03*
D02*
D94*
X49999930Y43761760D03*
Y44791760D03*
D02*
D95*
X42929930Y40404760D03*
X43170930D03*
X44394430Y49132260D03*
X44635430D03*
X44640930Y49765760D03*
X44881930D03*
X45038930Y48601160D03*
X45041430Y48806160D03*
X45279930Y48601160D03*
X45282430Y48806160D03*
X46581430Y50316160D03*
X46583930Y50536160D03*
X46822430Y50316160D03*
X46824930Y50536160D03*
D02*
D96*
X40551010Y47498180D03*
X40734850Y47314340D03*
D02*
D97*
X42142930Y47986470D03*
X42313340Y47816050D03*
X42951930Y48771970D03*
X43122340Y48601550D03*
D02*
D98*
X40298220Y48221460D03*
X40440350Y48362180D03*
D02*
D99*
X43149630Y48953560D03*
X43288230Y48814960D03*
D02*
D100*
X44565930Y49337760D03*
Y49577760D03*
X44965930Y49337760D03*
Y49577760D03*
D02*
D101*
X51444430Y44786760D03*
Y45226760D03*
D02*
D102*
X40328930Y43084760D03*
X41759430Y44335760D03*
X44882430Y47968260D03*
X45136430D03*
X45390430D03*
X45644430D03*
X45898430D03*
X46152430D03*
X46406430D03*
X46660430D03*
X49529930Y42181760D03*
X50124930Y47726760D03*
Y47980760D03*
Y48234760D03*
Y48488760D03*
Y48742760D03*
X51012030Y48426460D03*
Y48680460D03*
X51234930Y43366760D03*
D02*
D103*
X48066430Y40510260D03*
X48574430D03*
X48815930Y44718760D03*
Y45223760D03*
D02*
D104*
X39714430Y45331760D03*
Y45521760D03*
X47925930Y46583260D03*
Y46773260D03*
X48016430Y45197760D03*
Y45387760D03*
D02*
D105*
X40451660Y48040330D03*
X40621360Y48210030D03*
X40734500Y47757490D03*
X40904200Y47927190D03*
D02*
D106*
X49162930Y40228260D03*
Y40658260D03*
D02*
D107*
X42722430Y50706760D03*
X42731430Y41240760D03*
X48807930Y41254260D03*
X48825930Y50706760D03*
D02*
D108*
X41994110Y48720940D03*
X42083920Y48451540D03*
X42173720Y48900550D03*
X42263520Y48631140D03*
X42353320Y49080150D03*
X42443130Y48810750D03*
X42532930Y49259760D03*
X42622730Y48990350D03*
D02*
D109*
X41031740Y49237840D03*
X41211350Y49417440D03*
X41746630Y49952720D03*
X41926230Y50132330D03*
D02*
D110*
X41484290Y48559020D03*
X42605050Y49679780D03*
D02*
D111*
X45289630Y49092760D03*
Y49142760D03*
Y49192760D03*
Y49242760D03*
Y49292760D03*
Y49342760D03*
Y49392760D03*
Y49442760D03*
Y49492760D03*
Y49542760D03*
Y49592760D03*
Y49642760D03*
Y49692760D03*
Y49742760D03*
Y49792760D03*
Y49842760D03*
X46437230Y49092760D03*
Y49142760D03*
Y49192760D03*
Y49242760D03*
Y49292760D03*
Y49342760D03*
Y49392760D03*
Y49442760D03*
Y49492760D03*
Y49542760D03*
Y49592760D03*
Y49642760D03*
Y49692760D03*
Y49742760D03*
Y49792760D03*
Y49842760D03*
D02*
D112*
X45488430Y48893960D03*
Y50041560D03*
X45538430Y48893960D03*
Y50041560D03*
X45588430Y48893960D03*
Y50041560D03*
X45638430Y48893960D03*
Y50041560D03*
X45688430Y48893960D03*
Y50041560D03*
X45738430Y48893960D03*
Y50041560D03*
X45788430Y48893960D03*
Y50041560D03*
X45838430Y48893960D03*
Y50041560D03*
X45888430Y48893960D03*
Y50041560D03*
X45938430Y48893960D03*
Y50041560D03*
X45988430Y48893960D03*
Y50041560D03*
X46038430Y48893960D03*
Y50041560D03*
X46088430Y48893960D03*
Y50041560D03*
X46138430Y48893960D03*
Y50041560D03*
X46188430Y48893960D03*
Y50041560D03*
X46238430Y48893960D03*
Y50041560D03*
D02*
D113*
X44894930Y50988760D03*
D02*
D114*
X43376950Y50947960D03*
X44039880Y51215800D03*
X44894930Y51242760D03*
X45148930Y50988760D03*
Y51242760D03*
X45402930Y50988760D03*
Y51242760D03*
X45656930Y50988760D03*
Y51242760D03*
X45910930Y50988760D03*
Y51242760D03*
X46164930Y50988760D03*
Y51242760D03*
X46418930Y50988760D03*
Y51242760D03*
X46672930Y50988760D03*
Y51242760D03*
D02*
D115*
X40190430Y45446260D03*
X40714430D03*
X48041930Y39970260D03*
X48565930D03*
X49688430Y45335260D03*
X50212430D03*
D02*
D116*
X49714930Y46409260D03*
Y46605260D03*
X50957430Y46429260D03*
Y46625260D03*
D02*
D117*
X40729930Y43434260D03*
X41759930D03*
D02*
D118*
X39895930Y43563260D03*
X40335930D03*
D02*
D119*
X42969430Y39964260D03*
X43477430D03*
D02*
D120*
X42704930Y44568260D03*
X43134930D03*
D02*
D121*
X39899430Y44898760D03*
X40404430D03*
D02*
D122*
X43621220Y50950660D03*
X43681490Y50975010D03*
X43741760Y50999360D03*
X43802020Y51023710D03*
X43862290Y51048060D03*
D02*
D123*
X43637730Y49996070D03*
Y50157070D03*
X43687730Y49996070D03*
Y50157070D03*
X43737730Y49996070D03*
Y50157070D03*
X0Y0D02*
M02*
