G05
M48
;#@! TF.GenerationSoftware,DesignSpark,DesignSpark PCB,12.0.5940
;#@! TF.CreationDate,2024-12-30T09:06:24+00:00*
;#@! TF.FileFunction,Plated,1,4,PTH
;FILE_FORMAT=3:5
;TYPE=PLATED
INCH,TZ
FMAT,2
T1C000.00945
T2C000.00984
T3C000.01220
T4C000.02008
T5C000.02795
T6C000.03189
T7C000.03500
T8C000.03504
T9C000.03937
T10C000.04921
T11C000.06181
T12C000.12598
T13C000.12795
%
T001
X0.70545Y3.04030
X0.73715Y2.96352
X0.74226Y3.00407
X0.77337Y2.96333
X0.77888Y3.15033
X0.82533Y2.87061
X0.82770Y2.90821
X0.86569Y2.87612
X0.99758Y2.90073
X1.18242Y3.43636
X1.22612Y2.86628
X1.29778Y3.54640
X1.72313Y4.05919
X1.78825Y4.06159
X1.94758Y3.56963
X1.99010Y4.18793
X2.14955Y3.86510
X2.26963Y4.04344
X2.30998Y3.97415
X2.31018Y4.00033
X2.31234Y3.83065
X2.31411Y3.80309
X2.31628Y3.87809
X2.31648Y4.05526
X2.31982Y3.94010
X2.32061Y3.91431
X2.42356Y3.89778
X2.42415Y3.85841
X2.43183Y4.03557
X2.43222Y4.00880
X2.43872Y3.82140
X2.44994Y3.75565
X2.47179Y4.36333
X2.47730Y3.75526
X2.49246Y3.62337
X2.50467Y3.80880
X2.51195Y4.36352
X2.53144Y3.62022
X2.53537Y4.33026
X2.55821Y3.59089
X2.55821Y4.36037
X2.57415Y4.20959
X2.58026Y4.32848
X2.59620Y4.26352
X2.61234Y3.77317
X2.61825Y3.61904
X2.62041Y4.22573
X2.64423Y3.56943
X2.65841Y4.40093
X2.67337Y3.58262
X2.68970Y4.18675
X2.69719Y3.62711
X2.72888Y3.61785
X2.74837Y3.72848
X2.77927Y3.87809
X2.89187Y3.75270
X2.89266Y3.77967
X2.89285Y3.88478
X3.12199Y3.97356
X3.25880Y3.99167
X3.28301Y3.81136
X3.29738Y4.15374
X3.30624Y3.72435
X3.31116Y4.08512
X3.32809Y3.62533
X3.34285Y3.88242
X3.34344Y3.95073
X3.36924Y4.05762
X3.37081Y3.87494
X3.37337Y4.10799
X3.39364Y1.52671
X3.51943Y4.05939
X3.53675Y1.68222
T002
X1.74415Y4.21813
X2.64187Y4.07356
X2.68656Y4.06411
X2.68695Y4.02455
X2.79226Y4.19030
X2.90526Y4.03754
T003
X0.55781Y3.32533
X0.66392Y3.07100
X0.74404Y3.29246
X0.87199Y3.35230
X0.99364Y3.32770
X1.04778Y3.25545
X1.08341Y3.21805
X1.13262Y3.22199
X1.14207Y3.08163
X1.26530Y3.51844
X1.30329Y3.28222
X1.37967Y3.67297
X2.57120Y3.73360
T004
X0.91234Y0.43911
X1.37356Y3.32061
X4.19974Y1.13951
T005
X1.46136Y0.16608
X1.66136Y0.16608
T006
X0.18203Y1.84738
X0.25270Y2.10880
X0.45152Y2.10880
X0.55604Y3.17947
X0.59285Y3.44010
X0.95762Y0.89443
X1.08144Y2.70526
X1.08518Y3.37278
X1.17061Y2.79856
X1.28341Y0.89148
X1.45447Y3.76451
X1.49856Y3.40781
X1.57829Y0.95467
X1.57829Y1.33104
X1.57829Y1.70821
X1.58104Y4.20191
X1.59659Y3.76943
X2.04404Y4.01057
X2.15171Y4.23616
X2.15270Y4.14246
X2.18242Y3.80230
X2.27947Y3.52140
X2.37750Y3.52002
X2.84659Y4.39128
X3.02100Y4.23321
X3.38911Y4.28852
X3.39974Y1.30467
X3.46805Y0.38104
X3.47140Y2.59207
X3.66805Y0.38104
X3.76313Y2.03793
X3.76313Y2.23675
X3.93419Y2.79108
X3.93419Y3.00368
X3.94719Y1.13951
X4.23596Y2.80033
X4.23596Y3.00368
X4.25407Y0.49561
X4.29423Y2.49778
X4.37652Y0.94758
X4.37907Y1.10250
X4.47612Y2.80388
X4.47612Y3.00368
X4.53715Y2.18360
X4.54069Y0.78596
X4.54069Y1.10250
X4.54069Y1.33892
X4.54226Y1.50368
X4.73203Y2.79502
X4.80703Y1.23715
X4.80860Y2.33262
X4.81530Y1.73459
X4.86411Y3.16825
X4.93872Y1.73104
X4.96274Y2.17396
T007
X0.42179Y1.39463
X0.98498Y1.88715
X1.62180Y4.49037
X1.88280Y4.59582
X2.21451Y3.31726
X2.21943Y4.50644
X2.21943Y4.60644
X2.31451Y3.31726
X2.31943Y4.50644
X2.31943Y4.60644
X2.41451Y3.31726
X2.41943Y4.50644
X2.41943Y4.60644
X2.51451Y3.31726
X2.51943Y4.50644
X2.51943Y4.60644
X2.61451Y3.31726
X2.61943Y4.50644
X2.61943Y4.60644
X2.71451Y3.31726
X2.71943Y4.50644
X2.71943Y4.60644
X2.81451Y3.31726
X2.81943Y4.50644
X2.81943Y4.60644
X2.91451Y3.31726
X2.91943Y4.50644
X2.91943Y4.60644
X4.04423Y1.03911
X4.27848Y3.22219
X4.27848Y3.32219
X4.27848Y3.42219
X4.27848Y3.52219
X4.27848Y3.62219
X4.62774Y3.49766
X4.62774Y3.59766
X4.71549Y1.50565
T008
X1.07737Y3.61359
X1.11273Y3.50753
X1.14809Y3.68431
X1.18344Y3.57824
X1.21880Y3.75502
X1.25415Y3.64895
X1.28951Y3.82573
X1.32486Y3.71966
T009
X0.69849Y3.81710
X0.76920Y3.88781
X0.97994Y4.09855
X1.05065Y4.16926
X4.55093Y2.93281
X4.55093Y3.18872
X4.72809Y2.93281
X4.72809Y3.18872
T010
X0.36726Y2.32435
X0.57356Y2.32435
X3.45841Y0.16844
X3.66470Y0.16844
X4.10663Y2.28065
X4.31293Y2.28065
T011
X0.87666Y3.54985
X1.31790Y3.99109
T012
X0.82989Y3.71966
X1.14809Y4.03786
T013
X1.36411Y4.39541
X1.36766Y0.66864
X3.75998Y0.67396
X3.76707Y4.39541
M30
