G04 DesignSpark PCB Gerber Version 12.0 Build 5942*
%FSLAX35Y35*%
%MOIN*%
%ADD239R,0.07575X0.07575*%
%ADD246R,0.08475X0.08475*%
%ADD220C,0.02575*%
%ADD221C,0.05118*%
%ADD249C,0.06366*%
%ADD250C,0.06756*%
%ADD211C,0.07165*%
%ADD242C,0.07268*%
%ADD237C,0.07480*%
%ADD243C,0.07677*%
%ADD247C,0.08475*%
%ADD240C,0.10433*%
%ADD245C,0.12598*%
%ADD248C,0.11512*%
%AMT262*0 Rounded Rectangle Pad at angle 0*4,1,44,-0.00522,-0.01949,0.00522,-0.01949,0.00687,-0.01936,0.00847,-0.01897,0.01000,-0.01834,0.01141,-0.01748,0.01267,-0.01640,0.01374,-0.01515,0.01460,-0.01374,0.01523,-0.01221,0.01561,-0.01060,0.01575,-0.00896,0.01575,0.00896,0.01562,0.01061,0.01523,0.01221,0.01460,0.01374,0.01374,0.01515,0.01266,0.01641,0.01141,0.01748,0.01000,0.01834,0.00847,0.01897,0.00686,0.01935,0.00522,0.01949,-0.00522,0.01949,-0.00687,0.01936,-0.00847,0.01897,-0.01000,0.01834,-0.01141,0.01748,-0.01267,0.01640,-0.01374,0.01515,-0.01460,0.01374,-0.01523,0.01221,-0.01561,0.01060,-0.01575,0.00896,-0.01575,-0.00896,-0.01562,-0.01061,-0.01523,-0.01221,-0.01460,-0.01374,-0.01374,-0.01515,-0.01266,-0.01641,-0.01141,-0.01748,-0.01000,-0.01834,-0.00847,-0.01897,-0.00686,-0.01935,-0.00522,-0.01949,0*%
%ADD262T262*%
%AMT254*0 Thermal pad*4,1,26,0.00619,0.00984,0.00513,0.01069,0.00392,0.01128,0.00260,0.01158,0.00125,0.01157,-0.00007,0.01125,-0.00127,0.01064,-0.00231,0.00978,-0.00312,0.00870,-0.00367,0.00746,-0.00392,0.00613,-0.00386,0.00478,-0.00350,0.00348,-0.00285,0.00230,-0.00195,0.00129,-0.00084,0.00051,0.00042,0.00001,0.00176,-0.00020,0.00311,-0.00009,0.00439,0.00032,0.00556,0.00101,0.00653,0.00195,0.00726,0.00308,0.00772,0.00435,0.00787,0.00571,0.00787,0.00984,0.00619,0.00984,0*4,1,26,-0.00787,0.00571,-0.00772,0.00437,-0.00726,0.00309,-0.00653,0.00196,-0.00556,0.00102,-0.00440,0.00032,-0.00311,-0.00009,-0.00176,-0.00019,-0.00043,0.00001,0.00083,0.00051,0.00194,0.00128,0.00285,0.00228,0.00350,0.00347,0.00387,0.00477,0.00393,0.00612,0.00368,0.00745,0.00313,0.00869,0.00232,0.00978,0.00128,0.01065,0.00007,0.01126,-0.00124,0.01157,-0.00259,0.01159,-0.00391,0.01129,-0.00513,0.01070,-0.00619,0.00984,-0.00787,0.00984,-0.00787,0.00571,0*4,1,26,-0.00619,-0.00984,-0.00513,-0.01069,-0.00392,-0.01128,-0.00260,-0.01158,-0.00125,-0.01157,0.00007,-0.01125,0.00127,-0.01064,0.00231,-0.00978,0.00312,-0.00870,0.00367,-0.00746,0.00392,-0.00613,0.00386,-0.00478,0.00350,-0.00348,0.00285,-0.00230,0.00195,-0.00129,0.00084,-0.00051,-0.00042,-0.00001,-0.00176,0.00020,-0.00311,0.00009,-0.00439,-0.00032,-0.00556,-0.00101,-0.00653,-0.00195,-0.00726,-0.00308,-0.00772,-0.00435,-0.00787,-0.00571,-0.00787,-0.00984,-0.00619,-0.00984,0*4,1,26,0.00787,-0.00571,0.00772,-0.00437,0.00726,-0.00309,0.00653,-0.00196,0.00556,-0.00102,0.00440,-0.00032,0.00311,0.00009,0.00176,0.00019,0.00043,-0.00001,-0.00083,-0.00051,-0.00194,-0.00128,-0.00285,-0.00228,-0.00350,-0.00347,-0.00387,-0.00477,-0.00393,-0.00612,-0.00368,-0.00745,-0.00313,-0.00869,-0.00232,-0.00978,-0.00128,-0.01065,-0.00007,-0.01126,0.00124,-0.01157,0.00259,-0.01159,0.00391,-0.01129,0.00513,-0.01070,0.00619,-0.00984,0.00787,-0.00984,0.00787,-0.00571,0*%
%ADD254T254*%
%AMT257*0 Rounded Rectangle Pad at angle 0*4,1,40,-0.00817,-0.02146,0.00817,-0.02146,0.00966,-0.02133,0.01110,-0.02094,0.01245,-0.02031,0.01367,-0.01946,0.01473,-0.01840,0.01558,-0.01718,0.01621,-0.01583,0.01660,-0.01439,0.01673,-0.01290,0.01673,0.01290,0.01660,0.01439,0.01622,0.01583,0.01559,0.01718,0.01473,0.01840,0.01368,0.01945,0.01246,0.02031,0.01111,0.02094,0.00967,0.02132,0.00817,0.02146,-0.00817,0.02146,-0.00966,0.02133,-0.01110,0.02094,-0.01245,0.02031,-0.01367,0.01946,-0.01473,0.01840,-0.01558,0.01718,-0.01621,0.01583,-0.01660,0.01439,-0.01673,0.01290,-0.01673,-0.01290,-0.01660,-0.01439,-0.01622,-0.01583,-0.01559,-0.01718,-0.01473,-0.01840,-0.01368,-0.01945,-0.01246,-0.02031,-0.01111,-0.02094,-0.00967,-0.02132,-0.00817,-0.02146,0*%
%ADD257T257*%
%AMT253*0 Thermal pad*4,1,11,0.00885,0.00984,0.00886,0.02143,0.01043,0.02115,0.01192,0.02059,0.01328,0.01977,0.01446,0.01870,0.01543,0.01744,0.01615,0.01601,0.01659,0.01448,0.01673,0.01290,0.01673,0.00984,0.00885,0.00984,0*4,1,34,-0.00886,0.00965,-0.00871,0.00859,-0.00828,0.00761,-0.00761,0.00679,-0.00674,0.00617,-0.00574,0.00581,-0.00468,0.00574,-0.00364,0.00594,-0.00269,0.00643,-0.00190,0.00714,-0.00133,0.00804,-0.00103,0.00906,-0.00101,0.01013,-0.00128,0.01116,-0.00181,0.01208,-0.00257,0.01282,-0.00350,0.01334,-0.00454,0.01359,-0.00560,0.01355,-0.00661,0.01322,-0.00750,0.01264,-0.00820,0.01184,-0.00867,0.01089,-0.00885,0.00984,-0.01673,0.00984,-0.01673,0.01290,-0.01658,0.01448,-0.01614,0.01602,-0.01543,0.01744,-0.01446,0.01870,-0.01328,0.01976,-0.01191,0.02059,-0.01043,0.02115,-0.00886,0.02143,-0.00886,0.00965,0*4,1,11,-0.00885,-0.00984,-0.00886,-0.02143,-0.01043,-0.02115,-0.01192,-0.02059,-0.01328,-0.01977,-0.01446,-0.01870,-0.01543,-0.01744,-0.01615,-0.01601,-0.01659,-0.01448,-0.01673,-0.01290,-0.01673,-0.00984,-0.00885,-0.00984,0*4,1,34,0.00886,-0.00965,0.00871,-0.00859,0.00828,-0.00761,0.00761,-0.00679,0.00674,-0.00617,0.00574,-0.00581,0.00468,-0.00574,0.00364,-0.00594,0.00269,-0.00643,0.00190,-0.00714,0.00133,-0.00804,0.00103,-0.00906,0.00101,-0.01013,0.00128,-0.01116,0.00181,-0.01208,0.00257,-0.01282,0.00350,-0.01334,0.00454,-0.01359,0.00560,-0.01355,0.00661,-0.01322,0.00750,-0.01264,0.00820,-0.01184,0.00867,-0.01089,0.00885,-0.00984,0.01673,-0.00984,0.01673,-0.01290,0.01658,-0.01448,0.01614,-0.01602,0.01543,-0.01744,0.01446,-0.01870,0.01328,-0.01976,0.01191,-0.02059,0.01043,-0.02115,0.00886,-0.02143,0.00886,-0.00965,0*%
%ADD253T253*%
%AMT219*0 Rounded Rectangle Pad at angle 45*4,1,40,0.00939,-0.02095,0.02095,-0.00939,0.02191,-0.00825,0.02266,-0.00696,0.02317,-0.00556,0.02343,-0.00409,0.02343,-0.00260,0.02317,-0.00113,0.02266,0.00027,0.02192,0.00156,0.02095,0.00271,0.00271,0.02095,0.00157,0.02191,0.00028,0.02266,-0.00112,0.02317,-0.00259,0.02343,-0.00408,0.02343,-0.00555,0.02317,-0.00695,0.02267,-0.00825,0.02192,-0.00939,0.02095,-0.02095,0.00939,-0.02191,0.00825,-0.02266,0.00696,-0.02317,0.00556,-0.02343,0.00409,-0.02343,0.00260,-0.02317,0.00113,-0.02266,-0.00027,-0.02192,-0.00156,-0.02095,-0.00271,-0.00271,-0.02095,-0.00157,-0.02191,-0.00028,-0.02266,0.00112,-0.02317,0.00259,-0.02343,0.00408,-0.02343,0.00555,-0.02317,0.00695,-0.02267,0.00825,-0.02192,0.00939,-0.02095,0*%
%ADD219T219*%
%AMT235*0 Rounded Rectangle Pad at angle 90*4,1,44,0.01949,-0.00522,0.01949,0.00522,0.01936,0.00687,0.01897,0.00847,0.01834,0.01000,0.01748,0.01141,0.01640,0.01267,0.01515,0.01374,0.01374,0.01460,0.01221,0.01523,0.01060,0.01561,0.00896,0.01575,-0.00896,0.01575,-0.01061,0.01562,-0.01221,0.01523,-0.01374,0.01460,-0.01515,0.01374,-0.01641,0.01266,-0.01748,0.01141,-0.01834,0.01000,-0.01897,0.00847,-0.01935,0.00686,-0.01949,0.00522,-0.01949,-0.00522,-0.01936,-0.00687,-0.01897,-0.00847,-0.01834,-0.01000,-0.01748,-0.01141,-0.01640,-0.01267,-0.01515,-0.01374,-0.01374,-0.01460,-0.01221,-0.01523,-0.01060,-0.01561,-0.00896,-0.01575,0.00896,-0.01575,0.01061,-0.01562,0.01221,-0.01523,0.01374,-0.01460,0.01515,-0.01374,0.01641,-0.01266,0.01748,-0.01141,0.01834,-0.01000,0.01897,-0.00847,0.01935,-0.00686,0.01949,-0.00522,0*%
%ADD235T235*%
%AMT256*0 Rounded Rectangle Pad at angle 90*4,1,40,0.02146,-0.00817,0.02146,0.00817,0.02133,0.00966,0.02094,0.01110,0.02031,0.01245,0.01946,0.01367,0.01840,0.01473,0.01718,0.01558,0.01583,0.01621,0.01439,0.01660,0.01290,0.01673,-0.01290,0.01673,-0.01439,0.01660,-0.01583,0.01622,-0.01718,0.01559,-0.01840,0.01473,-0.01945,0.01368,-0.02031,0.01246,-0.02094,0.01111,-0.02132,0.00967,-0.02146,0.00817,-0.02146,-0.00817,-0.02133,-0.00966,-0.02094,-0.01110,-0.02031,-0.01245,-0.01946,-0.01367,-0.01840,-0.01473,-0.01718,-0.01558,-0.01583,-0.01621,-0.01439,-0.01660,-0.01290,-0.01673,0.01290,-0.01673,0.01439,-0.01660,0.01583,-0.01622,0.01718,-0.01559,0.01840,-0.01473,0.01945,-0.01368,0.02031,-0.01246,0.02094,-0.01111,0.02132,-0.00967,0.02146,-0.00817,0*%
%ADD256T256*%
%AMT255*0 Thermal pad*4,1,11,-0.00984,0.00885,-0.02143,0.00886,-0.02115,0.01043,-0.02059,0.01192,-0.01977,0.01328,-0.01870,0.01446,-0.01744,0.01543,-0.01601,0.01615,-0.01448,0.01659,-0.01290,0.01673,-0.00984,0.01673,-0.00984,0.00885,0*4,1,34,-0.00965,-0.00886,-0.00859,-0.00871,-0.00761,-0.00828,-0.00679,-0.00761,-0.00617,-0.00674,-0.00581,-0.00574,-0.00574,-0.00468,-0.00594,-0.00364,-0.00643,-0.00269,-0.00714,-0.00190,-0.00804,-0.00133,-0.00906,-0.00103,-0.01013,-0.00101,-0.01116,-0.00128,-0.01208,-0.00181,-0.01282,-0.00257,-0.01334,-0.00350,-0.01359,-0.00454,-0.01355,-0.00560,-0.01322,-0.00661,-0.01264,-0.00750,-0.01184,-0.00820,-0.01089,-0.00867,-0.00984,-0.00885,-0.00984,-0.01673,-0.01290,-0.01673,-0.01448,-0.01658,-0.01602,-0.01614,-0.01744,-0.01543,-0.01870,-0.01446,-0.01976,-0.01328,-0.02059,-0.01191,-0.02115,-0.01043,-0.02143,-0.00886,-0.00965,-0.00886,0*4,1,11,0.00984,-0.00885,0.02143,-0.00886,0.02115,-0.01043,0.02059,-0.01192,0.01977,-0.01328,0.01870,-0.01446,0.01744,-0.01543,0.01601,-0.01615,0.01448,-0.01659,0.01290,-0.01673,0.00984,-0.01673,0.00984,-0.00885,0*4,1,34,0.00965,0.00886,0.00859,0.00871,0.00761,0.00828,0.00679,0.00761,0.00617,0.00674,0.00581,0.00574,0.00574,0.00468,0.00594,0.00364,0.00643,0.00269,0.00714,0.00190,0.00804,0.00133,0.00906,0.00103,0.01013,0.00101,0.01116,0.00128,0.01208,0.00181,0.01282,0.00257,0.01334,0.00350,0.01359,0.00454,0.01355,0.00560,0.01322,0.00661,0.01264,0.00750,0.01184,0.00820,0.01089,0.00867,0.00984,0.00885,0.00984,0.01673,0.01290,0.01673,0.01448,0.01658,0.01602,0.01614,0.01744,0.01543,0.01870,0.01446,0.01976,0.01328,0.02059,0.01191,0.02115,0.01043,0.02143,0.00886,0.00965,0.00886,0*%
%ADD255T255*%
%AMT258*0 Rounded Rectangle Pad at angle 135*4,1,40,0.02095,0.00939,0.00939,0.02095,0.00825,0.02191,0.00696,0.02266,0.00556,0.02317,0.00409,0.02343,0.00260,0.02343,0.00113,0.02317,-0.00027,0.02266,-0.00156,0.02192,-0.00271,0.02095,-0.02095,0.00271,-0.02191,0.00157,-0.02266,0.00028,-0.02317,-0.00112,-0.02343,-0.00259,-0.02343,-0.00408,-0.02317,-0.00555,-0.02267,-0.00695,-0.02192,-0.00825,-0.02095,-0.00939,-0.00939,-0.02095,-0.00825,-0.02191,-0.00696,-0.02266,-0.00556,-0.02317,-0.00409,-0.02343,-0.00260,-0.02343,-0.00113,-0.02317,0.00027,-0.02266,0.00156,-0.02192,0.00271,-0.02095,0.02095,-0.00271,0.02191,-0.00157,0.02266,-0.00028,0.02317,0.00112,0.02343,0.00259,0.02343,0.00408,0.02317,0.00555,0.02267,0.00695,0.02192,0.00825,0.02095,0.00939,0*%
%ADD258T258*%
%AMT251*0 Thermal pad*4,1,11,-0.01322,-0.00070,-0.02142,-0.00889,-0.02233,-0.00759,-0.02299,-0.00613,-0.02337,-0.00459,-0.02345,-0.00300,-0.02324,-0.00142,-0.02274,0.00009,-0.02197,0.00149,-0.02095,0.00271,-0.01879,0.00487,-0.01322,-0.00070,0*4,1,34,-0.00056,-0.01308,0.00008,-0.01222,0.00046,-0.01123,0.00057,-0.01017,0.00038,-0.00911,-0.00008,-0.00815,-0.00078,-0.00735,-0.00167,-0.00676,-0.00269,-0.00643,-0.00375,-0.00639,-0.00479,-0.00663,-0.00572,-0.00715,-0.00649,-0.00789,-0.00702,-0.00881,-0.00730,-0.00984,-0.00728,-0.01091,-0.00698,-0.01193,-0.00642,-0.01284,-0.00563,-0.01356,-0.00469,-0.01404,-0.00364,-0.01426,-0.00258,-0.01418,-0.00157,-0.01383,-0.00070,-0.01322,0.00487,-0.01879,0.00271,-0.02095,0.00148,-0.02197,0.00009,-0.02274,-0.00142,-0.02324,-0.00300,-0.02345,-0.00459,-0.02337,-0.00614,-0.02299,-0.00759,-0.02233,-0.00889,-0.02142,-0.00056,-0.01308,0*4,1,11,0.01322,0.00070,0.02142,0.00889,0.02233,0.00759,0.02299,0.00613,0.02337,0.00459,0.02345,0.00300,0.02324,0.00142,0.02274,-0.00009,0.02197,-0.00149,0.02095,-0.00271,0.01879,-0.00487,0.01322,0.00070,0*4,1,34,0.00056,0.01308,-0.00008,0.01222,-0.00046,0.01123,-0.00057,0.01017,-0.00038,0.00911,0.00008,0.00815,0.00078,0.00735,0.00167,0.00676,0.00269,0.00643,0.00375,0.00639,0.00479,0.00663,0.00572,0.00715,0.00649,0.00789,0.00702,0.00881,0.00730,0.00984,0.00728,0.01091,0.00698,0.01193,0.00642,0.01284,0.00563,0.01356,0.00469,0.01404,0.00364,0.01426,0.00258,0.01418,0.00157,0.01383,0.00070,0.01322,-0.00487,0.01879,-0.00271,0.02095,-0.00148,0.02197,-0.00009,0.02274,0.00142,0.02324,0.00300,0.02345,0.00459,0.02337,0.00614,0.02299,0.00759,0.02233,0.00889,0.02142,0.00056,0.01308,0*%
%ADD251T251*%
%AMT259*0 Rounded Rectangle Pad at angle 0*4,1,44,-0.00758,-0.02539,0.00758,-0.02539,0.00923,-0.02526,0.01083,-0.02488,0.01236,-0.02424,0.01377,-0.02338,0.01503,-0.02231,0.01610,-0.02105,0.01696,-0.01964,0.01759,-0.01811,0.01798,-0.01651,0.01811,-0.01487,0.01811,0.01487,0.01798,0.01651,0.01759,0.01812,0.01696,0.01965,0.01610,0.02106,0.01502,0.02231,0.01377,0.02338,0.01236,0.02424,0.01083,0.02487,0.00922,0.02526,0.00758,0.02539,-0.00758,0.02539,-0.00923,0.02526,-0.01083,0.02488,-0.01236,0.02424,-0.01377,0.02338,-0.01503,0.02231,-0.01610,0.02105,-0.01696,0.01964,-0.01759,0.01811,-0.01798,0.01651,-0.01811,0.01487,-0.01811,-0.01487,-0.01798,-0.01651,-0.01759,-0.01812,-0.01696,-0.01965,-0.01610,-0.02106,-0.01502,-0.02231,-0.01377,-0.02338,-0.01236,-0.02424,-0.01083,-0.02487,-0.00922,-0.02526,-0.00758,-0.02539,0*%
%ADD259T259*%
%AMT252*0 Thermal pad*4,1,14,0.01024,0.00984,0.01024,0.01161,0.01014,0.01269,0.00984,0.01374,0.00984,0.02515,0.01154,0.02462,0.01313,0.02381,0.01456,0.02275,0.01579,0.02146,0.01678,0.01999,0.01752,0.01837,0.01796,0.01664,0.01811,0.01487,0.01811,0.00984,0.01024,0.00984,0*4,1,14,-0.00984,0.01374,-0.01014,0.01269,-0.01024,0.01161,-0.01024,0.00984,-0.01811,0.00984,-0.01811,0.01487,-0.01796,0.01664,-0.01751,0.01837,-0.01678,0.01999,-0.01578,0.02146,-0.01456,0.02275,-0.01313,0.02381,-0.01154,0.02462,-0.00984,0.02515,-0.00984,0.01374,0*4,1,14,-0.01024,-0.00984,-0.01024,-0.01161,-0.01014,-0.01269,-0.00984,-0.01374,-0.00984,-0.02515,-0.01154,-0.02462,-0.01313,-0.02381,-0.01456,-0.02275,-0.01579,-0.02146,-0.01678,-0.01999,-0.01752,-0.01837,-0.01796,-0.01664,-0.01811,-0.01487,-0.01811,-0.00984,-0.01024,-0.00984,0*4,1,14,0.00984,-0.01374,0.01014,-0.01269,0.01024,-0.01161,0.01024,-0.00984,0.01811,-0.00984,0.01811,-0.01487,0.01796,-0.01664,0.01751,-0.01837,0.01678,-0.01999,0.01578,-0.02146,0.01456,-0.02275,0.01313,-0.02381,0.01154,-0.02462,0.00984,-0.02515,0.00984,-0.01374,0*%
%ADD252T252*%
%AMT261*0 Rounded Rectangle Pad at angle 45*4,1,44,0.01259,-0.02332,0.02332,-0.01259,0.02439,-0.01134,0.02526,-0.00993,0.02589,-0.00840,0.02628,-0.00680,0.02641,-0.00515,0.02628,-0.00350,0.02589,-0.00190,0.02526,-0.00037,0.02439,0.00104,0.02332,0.00230,0.00230,0.02332,0.00104,0.02439,-0.00037,0.02526,-0.00190,0.02589,-0.00350,0.02628,-0.00515,0.02641,-0.00680,0.02628,-0.00840,0.02589,-0.00993,0.02526,-0.01134,0.02439,-0.01259,0.02332,-0.02332,0.01259,-0.02439,0.01134,-0.02526,0.00993,-0.02589,0.00840,-0.02628,0.00680,-0.02641,0.00515,-0.02628,0.00350,-0.02589,0.00190,-0.02526,0.00037,-0.02439,-0.00104,-0.02332,-0.00230,-0.00230,-0.02332,-0.00104,-0.02439,0.00037,-0.02526,0.00190,-0.02589,0.00350,-0.02628,0.00515,-0.02641,0.00680,-0.02628,0.00840,-0.02589,0.00993,-0.02526,0.01134,-0.02439,0.01259,-0.02332,0*%
%ADD261T261*%
%AMT226*0 Thermal pad*4,1,14,0.00028,0.01420,-0.00097,0.01545,-0.00181,0.01614,-0.00275,0.01667,-0.01082,0.02474,-0.00925,0.02557,-0.00756,0.02613,-0.00580,0.02639,-0.00402,0.02634,-0.00227,0.02600,-0.00060,0.02537,0.00093,0.02447,0.00230,0.02332,0.00585,0.01976,0.00028,0.01420,0*4,1,14,-0.01667,0.00275,-0.01614,0.00181,-0.01545,0.00097,-0.01420,-0.00028,-0.01976,-0.00585,-0.02332,-0.00230,-0.02447,-0.00093,-0.02537,0.00060,-0.02600,0.00227,-0.02634,0.00402,-0.02639,0.00580,-0.02613,0.00756,-0.02557,0.00925,-0.02474,0.01082,-0.01667,0.00275,0*4,1,14,-0.00028,-0.01420,0.00097,-0.01545,0.00181,-0.01614,0.00275,-0.01667,0.01082,-0.02474,0.00925,-0.02557,0.00756,-0.02613,0.00580,-0.02639,0.00402,-0.02634,0.00227,-0.02600,0.00060,-0.02537,-0.00093,-0.02447,-0.00230,-0.02332,-0.00585,-0.01976,-0.00028,-0.01420,0*4,1,14,0.01667,-0.00275,0.01614,-0.00181,0.01545,-0.00097,0.01420,0.00028,0.01976,0.00585,0.02332,0.00230,0.02447,0.00093,0.02537,-0.00060,0.02600,-0.00227,0.02634,-0.00402,0.02639,-0.00580,0.02613,-0.00756,0.02557,-0.00925,0.02474,-0.01082,0.01667,-0.00275,0*%
%ADD226T226*%
%AMT222*0 Rounded Rectangle Pad at angle 90*4,1,44,0.02539,-0.00758,0.02539,0.00758,0.02526,0.00923,0.02488,0.01083,0.02424,0.01236,0.02338,0.01377,0.02231,0.01503,0.02105,0.01610,0.01964,0.01696,0.01811,0.01759,0.01651,0.01798,0.01487,0.01811,-0.01487,0.01811,-0.01651,0.01798,-0.01812,0.01759,-0.01965,0.01696,-0.02106,0.01610,-0.02231,0.01502,-0.02338,0.01377,-0.02424,0.01236,-0.02487,0.01083,-0.02526,0.00922,-0.02539,0.00758,-0.02539,-0.00758,-0.02526,-0.00923,-0.02488,-0.01083,-0.02424,-0.01236,-0.02338,-0.01377,-0.02231,-0.01503,-0.02105,-0.01610,-0.01964,-0.01696,-0.01811,-0.01759,-0.01651,-0.01798,-0.01487,-0.01811,0.01487,-0.01811,0.01651,-0.01798,0.01812,-0.01759,0.01965,-0.01696,0.02106,-0.01610,0.02231,-0.01502,0.02338,-0.01377,0.02424,-0.01236,0.02487,-0.01083,0.02526,-0.00922,0.02539,-0.00758,0*%
%ADD222T222*%
%AMT260*0 Rounded Rectangle Pad at angle 135*4,1,44,0.02332,0.01259,0.01259,0.02332,0.01134,0.02439,0.00993,0.02526,0.00840,0.02589,0.00680,0.02628,0.00515,0.02641,0.00350,0.02628,0.00190,0.02589,0.00037,0.02526,-0.00104,0.02439,-0.00230,0.02332,-0.02332,0.00230,-0.02439,0.00104,-0.02526,-0.00037,-0.02589,-0.00190,-0.02628,-0.00350,-0.02641,-0.00515,-0.02628,-0.00680,-0.02589,-0.00840,-0.02526,-0.00993,-0.02439,-0.01134,-0.02332,-0.01259,-0.01259,-0.02332,-0.01134,-0.02439,-0.00993,-0.02526,-0.00840,-0.02589,-0.00680,-0.02628,-0.00515,-0.02641,-0.00350,-0.02628,-0.00190,-0.02589,-0.00037,-0.02526,0.00104,-0.02439,0.00230,-0.02332,0.02332,-0.00230,0.02439,-0.00104,0.02526,0.00037,0.02589,0.00190,0.02628,0.00350,0.02641,0.00515,0.02628,0.00680,0.02589,0.00840,0.02526,0.00993,0.02439,0.01134,0.02332,0.01259,0*%
%ADD260T260*%
%AMT225*0 Thermal pad*4,1,14,-0.01420,0.00028,-0.01545,-0.00097,-0.01614,-0.00181,-0.01667,-0.00275,-0.02474,-0.01082,-0.02557,-0.00925,-0.02613,-0.00756,-0.02639,-0.00580,-0.02634,-0.00402,-0.02600,-0.00227,-0.02537,-0.00060,-0.02447,0.00093,-0.02332,0.00230,-0.01976,0.00585,-0.01420,0.00028,0*4,1,14,-0.00275,-0.01667,-0.00181,-0.01614,-0.00097,-0.01545,0.00028,-0.01420,0.00585,-0.01976,0.00230,-0.02332,0.00093,-0.02447,-0.00060,-0.02537,-0.00227,-0.02600,-0.00402,-0.02634,-0.00580,-0.02639,-0.00756,-0.02613,-0.00925,-0.02557,-0.01082,-0.02474,-0.00275,-0.01667,0*4,1,14,0.01420,-0.00028,0.01545,0.00097,0.01614,0.00181,0.01667,0.00275,0.02474,0.01082,0.02557,0.00925,0.02613,0.00756,0.02639,0.00580,0.02634,0.00402,0.02600,0.00227,0.02537,0.00060,0.02447,-0.00093,0.02332,-0.00230,0.01976,-0.00585,0.01420,-0.00028,0*4,1,14,0.00275,0.01667,0.00181,0.01614,0.00097,0.01545,-0.00028,0.01420,-0.00585,0.01976,-0.00230,0.02332,-0.00093,0.02447,0.00060,0.02537,0.00227,0.02600,0.00402,0.02634,0.00580,0.02639,0.00756,0.02613,0.00925,0.02557,0.01082,0.02474,0.00275,0.01667,0*%
%ADD225T225*%
%AMT223*0 Rounded Rectangle Pad at angle 0*4,1,44,-0.01546,-0.03169,0.01546,-0.03169,0.01710,-0.03156,0.01871,-0.03118,0.02024,-0.03054,0.02165,-0.02968,0.02290,-0.02861,0.02397,-0.02735,0.02483,-0.02594,0.02546,-0.02441,0.02585,-0.02281,0.02598,-0.02117,0.02598,0.02117,0.02585,0.02281,0.02547,0.02442,0.02483,0.02594,0.02397,0.02735,0.02290,0.02861,0.02164,0.02968,0.02023,0.03054,0.01870,0.03117,0.01710,0.03156,0.01546,0.03169,-0.01546,0.03169,-0.01710,0.03156,-0.01871,0.03118,-0.02024,0.03054,-0.02165,0.02968,-0.02290,0.02861,-0.02397,0.02735,-0.02483,0.02594,-0.02546,0.02441,-0.02585,0.02281,-0.02598,0.02117,-0.02598,-0.02117,-0.02585,-0.02281,-0.02547,-0.02442,-0.02483,-0.02594,-0.02397,-0.02735,-0.02290,-0.02861,-0.02164,-0.02968,-0.02023,-0.03054,-0.01870,-0.03117,-0.01710,-0.03156,-0.01546,-0.03169,0*%
%ADD223T223*%
%AMT264*0 Thermal pad*4,1,51,0.09843,0.00984,0.09843,0.03937,0.09828,0.04358,0.09783,0.04777,0.09708,0.05192,0.09604,0.05600,0.09470,0.06000,0.09309,0.06390,0.09120,0.06767,0.08906,0.07129,0.08665,0.07475,0.08401,0.07804,0.08114,0.08112,0.07806,0.08400,0.07478,0.08664,0.07131,0.08905,0.06769,0.09120,0.06392,0.09309,0.06003,0.09470,0.05603,0.09604,0.05194,0.09708,0.04780,0.09783,0.04361,0.09828,0.03937,0.09843,0.00984,0.09843,0.00984,0.10630,0.04262,0.10630,0.04697,0.10615,0.05130,0.10570,0.05558,0.10496,0.05980,0.10394,0.06395,0.10262,0.06799,0.10103,0.07192,0.09916,0.07571,0.09703,0.07935,0.09465,0.08281,0.09202,0.08609,0.08916,0.08916,0.08609,0.09202,0.08281,0.09465,0.07935,0.09703,0.07571,0.09916,0.07192,0.10103,0.06800,0.10262,0.06395,0.10394,0.05981,0.10497,0.05558,0.10571,0.05130,0.10615,0.04697,0.10630,0.04262,0.10630,0.00984,0.09843,0.00984,0*4,1,51,-0.00984,0.09843,-0.03937,0.09843,-0.04358,0.09828,-0.04777,0.09783,-0.05192,0.09708,-0.05600,0.09604,-0.06000,0.09470,-0.06390,0.09309,-0.06767,0.09120,-0.07129,0.08906,-0.07475,0.08665,-0.07804,0.08401,-0.08112,0.08114,-0.08400,0.07806,-0.08664,0.07478,-0.08905,0.07131,-0.09120,0.06769,-0.09309,0.06392,-0.09470,0.06003,-0.09604,0.05603,-0.09708,0.05194,-0.09783,0.04780,-0.09828,0.04361,-0.09843,0.03937,-0.09843,0.00984,-0.10630,0.00984,-0.10630,0.04262,-0.10615,0.04697,-0.10570,0.05130,-0.10496,0.05558,-0.10394,0.05980,-0.10262,0.06395,-0.10103,0.06799,-0.09916,0.07192,-0.09703,0.07571,-0.09465,0.07935,-0.09202,0.08281,-0.08916,0.08609,-0.08609,0.08916,-0.08281,0.09202,-0.07935,0.09465,-0.07571,0.09703,-0.07192,0.09916,-0.06800,0.10103,-0.06395,0.10262,-0.05981,0.10394,-0.05558,0.10497,-0.05130,0.10571,-0.04697,0.10615,-0.04262,0.10630,-0.00984,0.10630,-0.00984,0.09843,0*4,1,51,-0.09843,-0.00984,-0.09843,-0.03937,-0.09828,-0.04358,-0.09783,-0.04777,-0.09708,-0.05192,-0.09604,-0.05600,-0.09470,-0.06000,-0.09309,-0.06390,-0.09120,-0.06767,-0.08906,-0.07129,-0.08665,-0.07475,-0.08401,-0.07804,-0.08114,-0.08112,-0.07806,-0.08400,-0.07478,-0.08664,-0.07131,-0.08905,-0.06769,-0.09120,-0.06392,-0.09309,-0.06003,-0.09470,-0.05603,-0.09604,-0.05194,-0.09708,-0.04780,-0.09783,-0.04361,-0.09828,-0.03937,-0.09843,-0.00984,-0.09843,-0.00984,-0.10630,-0.04262,-0.10630,-0.04697,-0.10615,-0.05130,-0.10570,-0.05558,-0.10496,-0.05980,-0.10394,-0.06395,-0.10262,-0.06799,-0.10103,-0.07192,-0.09916,-0.07571,-0.09703,-0.07935,-0.09465,-0.08281,-0.09202,-0.08609,-0.08916,-0.08916,-0.08609,-0.09202,-0.08281,-0.09465,-0.07935,-0.09703,-0.07571,-0.09916,-0.07192,-0.10103,-0.06800,-0.10262,-0.06395,-0.10394,-0.05981,-0.10497,-0.05558,-0.10571,-0.05130,-0.10615,-0.04697,-0.10630,-0.04262,-0.10630,-0.00984,-0.09843,-0.00984,0*4,1,51,0.00984,-0.09843,0.03937,-0.09843,0.04358,-0.09828,0.04777,-0.09783,0.05192,-0.09708,0.05600,-0.09604,0.06000,-0.09470,0.06390,-0.09309,0.06767,-0.09120,0.07129,-0.08906,0.07475,-0.08665,0.07804,-0.08401,0.08112,-0.08114,0.08400,-0.07806,0.08664,-0.07478,0.08905,-0.07131,0.09120,-0.06769,0.09309,-0.06392,0.09470,-0.06003,0.09604,-0.05603,0.09708,-0.05194,0.09783,-0.04780,0.09828,-0.04361,0.09843,-0.03937,0.09843,-0.00984,0.10630,-0.00984,0.10630,-0.04262,0.10615,-0.04697,0.10570,-0.05130,0.10496,-0.05558,0.10394,-0.05980,0.10262,-0.06395,0.10103,-0.06799,0.09916,-0.07192,0.09703,-0.07571,0.09465,-0.07935,0.09202,-0.08281,0.08916,-0.08609,0.08609,-0.08916,0.08281,-0.09202,0.07935,-0.09465,0.07571,-0.09703,0.07192,-0.09916,0.06800,-0.10103,0.06395,-0.10262,0.05981,-0.10394,0.05558,-0.10497,0.05130,-0.10571,0.04697,-0.10615,0.04262,-0.10630,0.00984,-0.10630,0.00984,-0.09843,0*%
%ADD264T264*%
%AMT238*0 Thermal pad*4,1,6,0.03000,0.00984,0.03000,0.03000,0.00984,0.03000,0.00984,0.03787,0.03787,0.03787,0.03787,0.00984,0.03000,0.00984,0*4,1,6,-0.00984,0.03000,-0.03000,0.03000,-0.03000,0.00984,-0.03787,0.00984,-0.03787,0.03787,-0.00984,0.03787,-0.00984,0.03000,0*4,1,6,-0.03000,-0.00984,-0.03000,-0.03000,-0.00984,-0.03000,-0.00984,-0.03787,-0.03787,-0.03787,-0.03787,-0.00984,-0.03000,-0.00984,0*4,1,6,0.00984,-0.03000,0.03000,-0.03000,0.03000,-0.00984,0.03787,-0.00984,0.03787,-0.03787,0.00984,-0.03787,0.00984,-0.03000,0*%
%ADD238T238*%
%AMT224*0 Thermal pad*7,0,0,0.07165,0.05591,0.01969,0*%
%ADD224T224*%
%ADD236C,0.16732*%
%AMT263*0 Thermal pad*7,0,0,0.07480,0.05906,0.01969,0*%
%ADD263T263*%
%AMT265*0 Thermal pad*7,0,0,0.07677,0.06102,0.01969,0*%
%ADD265T265*%
%AMT267*0 Thermal pad*7,0,0,0.08475,0.06900,0.01969,0*%
%ADD267T267*%
%AMT266*0 Thermal pad*7,0,0,0.10846,0.09272,0.01969,0*%
%ADD266T266*%
%AMT268*0 Thermal pad*7,0,0,0.11512,0.09937,0.01969,0*%
%ADD268T268*%
X0Y0D02*
D02*
D211*
X95762Y89443D03*
X117061Y279856D03*
X128341Y89148D03*
X149856Y340781D03*
X159659Y376943D03*
X215171Y423616D03*
X227947Y352140D03*
X284659Y439128D03*
X338911Y428852D03*
X393419Y279108D03*
Y300368D03*
X394719Y113951D03*
X423596Y280033D03*
Y300368D03*
X429423Y249778D03*
X437652Y94758D03*
X447612Y280388D03*
Y300368D03*
X473203Y279502D03*
D02*
D219*
X99758Y290073D03*
X261234Y377317D03*
D02*
D220*
X214955Y386510D02*
Y386411D01*
X226963Y398419D01*
Y404344D01*
X247179Y436333D02*
X246844D01*
Y386352D01*
X243911Y383419D01*
X243872D01*
Y382140D01*
X251195Y436352D02*
Y439325D01*
X256844Y444974D01*
Y457002D01*
X260486Y460644D01*
X261943D01*
X253537Y433026D02*
Y438518D01*
X259207Y444187D01*
X264089D01*
X266963Y447061D01*
Y456057D01*
X271549Y460644D01*
X271943D01*
X258026Y432848D02*
X265368D01*
X276864Y444344D01*
Y455565D01*
X281943Y460644D01*
D02*
D221*
X91234Y43911D03*
X137356Y332061D03*
D02*
D222*
X74404Y329246D03*
D02*
D223*
X419974Y113951D03*
D02*
D224*
X18203Y184738D03*
X55604Y317947D03*
X59285Y344010D03*
X108144Y270526D03*
X108518Y337278D03*
X145447Y376451D03*
X157829Y95467D03*
Y133104D03*
Y170821D03*
X158104Y420191D03*
X204404Y401057D03*
X215270Y414246D03*
X218242Y380230D03*
X237750Y352002D03*
X302100Y423321D03*
X339974Y130467D03*
X347140Y259207D03*
X425407Y49561D03*
X437907Y110250D03*
X453715Y218360D03*
X454069Y78596D03*
Y110250D03*
Y133892D03*
X454226Y150368D03*
X480703Y123715D03*
X480860Y233262D03*
X481530Y173459D03*
X486411Y316825D03*
X493872Y173104D03*
X496274Y217396D03*
D02*
D225*
X66392Y307100D03*
D02*
D226*
X104778Y325545D03*
D02*
D235*
X290526Y403754D03*
D02*
D236*
X201770Y331470D03*
X311136D03*
D02*
D237*
X472809Y293281D03*
Y318872D03*
D02*
D238*
X427848Y322219D03*
D02*
D239*
X42179Y139463D03*
X98498Y188715D03*
X221451Y331726D03*
X231451D03*
X241451D03*
X251451D03*
X261451D03*
X271451D03*
X281451D03*
X291451D03*
X404423Y103911D03*
X427848Y332219D03*
Y342219D03*
Y352219D03*
Y362219D03*
X462774Y349766D03*
Y359766D03*
X471549Y150565D03*
D02*
D240*
X346805Y38104D03*
X366805D03*
X376313Y203793D03*
Y223675D03*
D02*
D242*
X107737Y361359D03*
X111273Y350753D03*
X114809Y368431D03*
X118344Y357824D03*
X121880Y375502D03*
X125415Y364895D03*
X128951Y382573D03*
X132486Y371966D03*
D02*
D243*
X69849Y381710D03*
X105065Y416926D03*
D02*
D245*
X82989Y371966D03*
X114809Y403786D03*
D02*
D246*
X221943Y450644D03*
D02*
D247*
Y460644D03*
X231943Y450644D03*
X241943D03*
Y460644D03*
X251943Y450644D03*
X261943D03*
Y460644D03*
X271943Y450644D03*
Y460644D03*
X281943Y450644D03*
Y460644D03*
X291943Y450644D03*
D02*
D248*
X36726Y232435D03*
X345841Y16844D03*
X410663Y228065D03*
D02*
D249*
X146136Y16608D03*
X166136D03*
D02*
D250*
X25270Y210880D03*
X45152D03*
D02*
D251*
X82770Y290821D03*
D02*
D252*
X257120Y373360D03*
D02*
D253*
X264423Y356943D03*
X277927Y387809D03*
D02*
D254*
X174415Y421813D03*
X268656Y406411D03*
D02*
D255*
X232061Y391431D03*
X243222Y400880D03*
D02*
D256*
X122612Y286628D03*
X199010Y418793D03*
X214955Y386510D03*
X230998Y397415D03*
X231018Y400033D03*
X231234Y383065D03*
X231411Y380309D03*
X231628Y387809D03*
X231648Y405526D03*
X231982Y394010D03*
X242356Y389778D03*
X242415Y385841D03*
X243183Y403557D03*
X259620Y426352D03*
X265841Y440093D03*
X289187Y375270D03*
X289266Y377967D03*
X289285Y388478D03*
X312199Y397356D03*
X325880Y399167D03*
X329738Y415374D03*
X331116Y408512D03*
X336924Y405762D03*
X337337Y410799D03*
X351943Y405939D03*
X353675Y168222D03*
D02*
D257*
X118242Y343636D03*
X129778Y354640D03*
X172313Y405919D03*
X178825Y406159D03*
X194758Y356963D03*
X226963Y404344D03*
X243872Y382140D03*
X244994Y375565D03*
X247179Y436333D03*
X247730Y375526D03*
X249246Y362337D03*
X250467Y380880D03*
X251195Y436352D03*
X253144Y362022D03*
X253537Y433026D03*
X255821Y359089D03*
Y436037D03*
X257415Y420959D03*
X258026Y432848D03*
X261825Y361904D03*
X262041Y422573D03*
X267337Y358262D03*
X268970Y418675D03*
X269719Y362711D03*
X272888Y361785D03*
X274837Y372848D03*
X328301Y381136D03*
X330624Y372435D03*
X332809Y362533D03*
X334285Y388242D03*
X334344Y395073D03*
X337081Y387494D03*
X339364Y152671D03*
D02*
D258*
X70545Y304030D03*
X73715Y296352D03*
X74226Y300407D03*
X77337Y296333D03*
X77888Y315033D03*
X82533Y287061D03*
X86569Y287612D03*
D02*
D259*
X113262Y322199D03*
X126530Y351844D03*
X137967Y367297D03*
D02*
D260*
X87199Y335230D03*
X99364Y332770D03*
X114207Y308163D03*
X130329Y328222D03*
D02*
D261*
X55781Y332533D03*
X108341Y321805D03*
D02*
D262*
X264187Y407356D03*
X268695Y402455D03*
X279226Y419030D03*
D02*
D263*
X455093Y293281D03*
Y318872D03*
D02*
D264*
X136411Y439541D03*
X136766Y66864D03*
X375998Y67396D03*
X376707Y439541D03*
D02*
D265*
X76920Y388781D03*
X97994Y409855D03*
D02*
D266*
X87666Y354985D03*
X131790Y399109D03*
D02*
D267*
X162180Y449037D03*
X188280Y459582D03*
X231943Y460644D03*
X251943D03*
X291943D03*
D02*
D268*
X57356Y232435D03*
X366470Y16844D03*
X431293Y228065D03*
X0Y0D02*
M02*
