G04 DesignSpark PCB Gerber Version 12.0 Build 5942*
%FSLAX35Y35*%
%MOMM*%
%ADD211R,0.14760X0.83760*%
%ADD205R,0.14760X1.32260*%
%ADD176R,0.49760X1.37260*%
%ADD190R,1.04760X1.37160*%
%ADD186R,1.14760X1.64760*%
%ADD179R,1.27000X1.32080*%
%ADD191R,1.44760X2.99760*%
%ADD183R,1.59760X2.09760*%
%ADD185R,1.59760X3.04760*%
%ADD200R,1.99760X2.04760*%
%ADD203R,1.99760X2.14760*%
%ADD207R,3.19760X3.44760*%
%ADD181R,6.07760X6.58760*%
%ADD124C,0.00001*%
%ADD204R,1.32260X0.14760*%
%AMT210*0 Rectangle Pad at angle 22*21,1,0.24760,1.34760,0,0,22*%
%ADD210T210*%
%ADD201R,1.24760X0.74760*%
%ADD184R,1.59760X0.79760*%
%ADD206R,1.24460X0.86360*%
%AMT197*0 Rectangle Pad at angle 45*21,1,1.04760,1.37160,0,0,45*%
%ADD197T197*%
%AMT202*0 Rectangle Pad at angle 45*21,1,1.04760,1.64760,0,0,45*%
%ADD202T202*%
%AMT195*0 Rectangle Pad at angle 45*21,1,1.14760,1.64760,0,0,45*%
%ADD195T195*%
%ADD182R,1.37160X1.04760*%
%ADD199R,1.64760X1.04760*%
%ADD188R,1.64760X1.14760*%
%AMT196*0 Rectangle Pad at angle 45*21,1,1.27000,1.32080,0,0,45*%
%ADD196T196*%
%ADD194R,1.32080X1.27000*%
%ADD180R,2.12760X1.37160*%
%ADD192R,1.47760X1.37760*%
%ADD208R,2.04760X1.99760*%
%ADD209R,2.14760X1.99760*%
%ADD178R,3.99760X1.99760*%
%ADD177R,2.94760X2.44760*%
%AMT189*0 Rectangle Pad at angle 135*21,1,0.29760,1.64760,0,0,135*%
%ADD189T189*%
%AMT198*0 Rectangle Pad at angle 135*21,1,0.86360,1.24460,0,0,135*%
%ADD198T198*%
%AMT187*0 Rectangle Pad at angle 135*21,1,1.04760,1.37160,0,0,135*%
%ADD187T187*%
%ADD193R,3.44760X3.19760*%
X0Y0D02*
D02*
D124*
X39226200Y45409390D02*
G75*
G03*
X42771480Y39593110I6543580J-40D01*
G01*
X43763580D01*
Y45516760D01*
G75*
G02*
X45569930Y47323110I1806350J0D01*
G01*
X45967430D01*
G75*
G02*
X47773780Y45516760I0J-1806350D01*
G01*
Y45156810D01*
G75*
G02*
X47776280Y45151760I-3850J-5050D01*
G01*
Y39593110D01*
X48768380D01*
G75*
G03*
X52313550Y45409360I-2998520J5816250D01*
G01*
G75*
G03*
X45769880Y51953040I-6543670J0D01*
G01*
G75*
G02*
X45769820I-30J6330D01*
G01*
G75*
G03*
X39226200Y45409390I0J-6543650D01*
G01*
X45781050Y48960090D02*
X45795810D01*
Y48827830D01*
X45781050D01*
Y48960090D01*
Y50107690D02*
X45795810D01*
Y49975430D01*
X45781050D01*
Y50107690D01*
X45831050Y48960090D02*
X45845810D01*
Y48827830D01*
X45831050D01*
Y48960090D01*
Y50107690D02*
X45845810D01*
Y49975430D01*
X45831050D01*
Y50107690D01*
X45881050Y48960090D02*
X45895810D01*
Y48827830D01*
X45881050D01*
Y48960090D01*
Y50107690D02*
X45895810D01*
Y49975430D01*
X45881050D01*
Y50107690D01*
X45931050Y48960090D02*
X45945810D01*
Y48827830D01*
X45931050D01*
Y48960090D01*
Y50107690D02*
X45945810D01*
Y49975430D01*
X45931050D01*
Y50107690D01*
X45981050Y48960090D02*
X45995810D01*
Y48827830D01*
X45981050D01*
Y48960090D01*
Y50107690D02*
X45995810D01*
Y49975430D01*
X45981050D01*
Y50107690D01*
X46031050Y48960090D02*
X46045810D01*
Y48827830D01*
X46031050D01*
Y48960090D01*
Y50107690D02*
X46045810D01*
Y49975430D01*
X46031050D01*
Y50107690D01*
X46081050Y48960090D02*
X46095810D01*
Y48827830D01*
X46081050D01*
Y48960090D01*
Y50107690D02*
X46095810D01*
Y49975430D01*
X46081050D01*
Y50107690D01*
X46131050Y48960090D02*
X46145810D01*
Y48827830D01*
X46131050D01*
Y48960090D01*
Y50107690D02*
X46145810D01*
Y49975430D01*
X46131050D01*
Y50107690D01*
X46181050Y48960090D02*
X46195810D01*
Y48827830D01*
X46181050D01*
Y48960090D01*
Y50107690D02*
X46195810D01*
Y49975430D01*
X46181050D01*
Y50107690D01*
X46231050Y48960090D02*
X46245810D01*
Y48827830D01*
X46231050D01*
Y48960090D01*
Y50107690D02*
X46245810D01*
Y49975430D01*
X46231050D01*
Y50107690D01*
X46371100Y49100140D02*
X46503360D01*
Y49085380D01*
X46371100D01*
Y49100140D01*
Y49150140D02*
X46503360D01*
Y49135380D01*
X46371100D01*
Y49150140D01*
Y49200140D02*
X46503360D01*
Y49185380D01*
X46371100D01*
Y49200140D01*
Y49250140D02*
X46503360D01*
Y49235380D01*
X46371100D01*
Y49250140D01*
Y49300140D02*
X46503360D01*
Y49285380D01*
X46371100D01*
Y49300140D01*
Y49350140D02*
X46503360D01*
Y49335380D01*
X46371100D01*
Y49350140D01*
Y49400140D02*
X46503360D01*
Y49385380D01*
X46371100D01*
Y49400140D01*
Y49450140D02*
X46503360D01*
Y49435380D01*
X46371100D01*
Y49450140D01*
Y49500140D02*
X46503360D01*
Y49485380D01*
X46371100D01*
Y49500140D01*
Y49550140D02*
X46503360D01*
Y49535380D01*
X46371100D01*
Y49550140D01*
Y49600140D02*
X46503360D01*
Y49585380D01*
X46371100D01*
Y49600140D01*
Y49650140D02*
X46503360D01*
Y49635380D01*
X46371100D01*
Y49650140D01*
Y49700140D02*
X46503360D01*
Y49685380D01*
X46371100D01*
Y49700140D01*
Y49750140D02*
X46503360D01*
Y49735380D01*
X46371100D01*
Y49750140D01*
Y49800140D02*
X46503360D01*
Y49785380D01*
X46371100D01*
Y49800140D01*
Y49850140D02*
X46503360D01*
Y49835380D01*
X46371100D01*
Y49850140D01*
X46515390Y50379660D02*
X46647470D01*
Y50252660D01*
X46515390D01*
Y50379660D01*
X46517550Y50144040D02*
X46682310D01*
Y50029280D01*
X46517550D01*
Y50144040D01*
X46517890Y50599660D02*
X46649970D01*
Y50472660D01*
X46517890D01*
Y50599660D01*
X46756390Y50379660D02*
X46888470D01*
Y50252660D01*
X46756390D01*
Y50379660D01*
X46777550Y50144040D02*
X46942310D01*
Y50029280D01*
X46777550D01*
Y50144040D01*
X46758890Y50599660D02*
X46890970D01*
Y50472660D01*
X46758890D01*
Y50599660D01*
X47084550Y48937340D02*
X47189310D01*
Y48800180D01*
X47084550D01*
Y48937340D01*
X47104550Y49177340D02*
X47209310D01*
Y49040180D01*
X47104550D01*
Y49177340D01*
Y49402340D02*
X47209310D01*
Y49265180D01*
X47104550D01*
Y49402340D01*
X47284550Y48936340D02*
X47389310D01*
Y48799180D01*
X47284550D01*
Y48936340D01*
X47304550Y49176340D02*
X47409310D01*
Y49039180D01*
X47304550D01*
Y49176340D01*
Y49401340D02*
X47409310D01*
Y49264180D01*
X47304550D01*
Y49401340D01*
X47564350Y50293640D02*
X47701510D01*
Y50188880D01*
X47564350D01*
Y50293640D01*
X47565350Y50493640D02*
X47702510D01*
Y50388880D01*
X47565350D01*
Y50493640D01*
X47858350Y47000640D02*
X47995510D01*
Y46895880D01*
X47858350D01*
Y47000640D01*
X47863550Y46620640D02*
X47988310D01*
Y46545880D01*
X47863550D01*
Y46620640D01*
X47935050Y42331640D02*
X48334810D01*
Y42131880D01*
X47935050D01*
Y42331640D01*
X47954050Y45235140D02*
X48078810D01*
Y45160380D01*
X47954050D01*
Y45235140D01*
X47995050Y43680140D02*
X48394810D01*
Y43480380D01*
X47995050D01*
Y43680140D01*
X47954050Y45425140D02*
X48078810D01*
Y45350380D01*
X47954050D01*
Y45425140D01*
X47863550Y46810640D02*
X47988310D01*
Y46735880D01*
X47863550D01*
Y46810640D01*
X47859350Y47200640D02*
X47996510D01*
Y47095880D01*
X47859350D01*
Y47200640D01*
X48014350Y50288140D02*
X48151510D01*
Y50183380D01*
X48014350D01*
Y50288140D01*
X48122430Y46305300D02*
X48249430D01*
Y46173220D01*
X48122430D01*
Y46305300D01*
X48122930Y45837300D02*
X48249930D01*
Y45705220D01*
X48122930D01*
Y45837300D01*
X48221350Y45271140D02*
X48358510D01*
Y45166380D01*
X48221350D01*
Y45271140D01*
X48222350Y45471140D02*
X48359510D01*
Y45366380D01*
X48222350D01*
Y45471140D01*
X48122930Y46078300D02*
X48249930D01*
Y45946220D01*
X48122930D01*
Y46078300D01*
X48122430Y46546300D02*
X48249430D01*
Y46414220D01*
X48122430D01*
Y46546300D01*
X48015350Y50488140D02*
X48152510D01*
Y50383380D01*
X48015350D01*
Y50488140D01*
X48330430Y46306080D02*
X48457430D01*
Y46174000D01*
X48330430D01*
Y46306080D01*
X48332930Y45836300D02*
X48459930D01*
Y45704220D01*
X48332930D01*
Y45836300D01*
Y46077300D02*
X48459930D01*
Y45945220D01*
X48332930D01*
Y46077300D01*
X48330430Y46547080D02*
X48457430D01*
Y46415000D01*
X48330430D01*
Y46547080D01*
X48572550Y45851140D02*
X48732310D01*
Y45771380D01*
X48572550D01*
Y45851140D01*
Y46081140D02*
X48732310D01*
Y46001380D01*
X48572550D01*
Y46081140D01*
Y46311140D02*
X48732310D01*
Y46231380D01*
X48572550D01*
Y46311140D01*
X48785050Y42331640D02*
X49184810D01*
Y42131880D01*
X48785050D01*
Y42331640D01*
X49063050Y40335640D02*
X49262810D01*
Y40120880D01*
X49063050D01*
Y40335640D01*
Y40765640D02*
X49262810D01*
Y40550880D01*
X49063050D01*
Y40765640D01*
X48845050Y43680140D02*
X49244810D01*
Y43480380D01*
X48845050D01*
Y43680140D01*
X49202550Y46193640D02*
X49362310D01*
Y45888880D01*
X49202550D01*
Y46193640D01*
X49466930Y41756800D02*
X49593930D01*
Y41624720D01*
X49466930D01*
Y41756800D01*
X49499430Y40474800D02*
X49626430D01*
Y40342720D01*
X49499430D01*
Y40474800D01*
Y40715800D02*
X49626430D01*
Y40583720D01*
X49499430D01*
Y40715800D01*
X49466930Y41997800D02*
X49593930D01*
Y41865720D01*
X49466930D01*
Y41997800D01*
X49647550Y45793140D02*
X49795310D01*
Y45655380D01*
X49647550D01*
Y45793140D01*
X49769550Y41759190D02*
X49819310D01*
Y41621930D01*
X49769550D01*
Y41759190D01*
Y42301590D02*
X49819310D01*
Y42164330D01*
X49769550D01*
Y42301590D01*
X49773710Y43291140D02*
X50381470D01*
Y42632380D01*
X49773710D01*
Y43291140D01*
X49837550Y42084140D02*
X50132310D01*
Y41839380D01*
X49837550D01*
Y42084140D01*
X49880930Y41157800D02*
X50007930D01*
Y41025720D01*
X49880930D01*
Y41157800D01*
Y41398800D02*
X50007930D01*
Y41266720D01*
X49880930D01*
Y41398800D01*
X49896550Y41759190D02*
X49946310D01*
Y41621930D01*
X49896550D01*
Y41759190D01*
X50023550D02*
X50073310D01*
Y41621930D01*
X50023550D01*
Y41759190D01*
X50111350Y41173140D02*
X50248510D01*
Y41068380D01*
X50111350D01*
Y41173140D01*
X50112350Y41373140D02*
X50249510D01*
Y41268380D01*
X50112350D01*
Y41373140D01*
X49896550Y42301590D02*
X49946310D01*
Y42164330D01*
X49896550D01*
Y42301590D01*
X50023550D02*
X50073310D01*
Y42164330D01*
X50023550D01*
Y42301590D01*
X50150550Y41759190D02*
X50200310D01*
Y41621930D01*
X50150550D01*
Y41759190D01*
Y42301590D02*
X50200310D01*
Y42164330D01*
X50150550D01*
Y42301590D01*
X49647550Y46173140D02*
X49795310D01*
Y46035380D01*
X49647550D01*
Y46173140D01*
X49652700Y46452440D02*
X49777160D01*
Y46366080D01*
X49652700D01*
Y46452440D01*
Y46648440D02*
X49777160D01*
Y46562080D01*
X49652700D01*
Y46648440D01*
X49827550Y43921640D02*
X50172310D01*
Y43601880D01*
X49827550D01*
Y43921640D01*
Y44951640D02*
X50172310D01*
Y44631880D01*
X49827550D01*
Y44951640D01*
X50314550Y46654140D02*
X50429310D01*
Y46489380D01*
X50314550D01*
Y46654140D01*
X50420850Y41373140D02*
X50558010D01*
Y41268380D01*
X50420850D01*
Y41373140D01*
X50421850Y41573140D02*
X50559010D01*
Y41468380D01*
X50421850D01*
Y41573140D01*
X50314550Y46914140D02*
X50429310D01*
Y46749380D01*
X50314550D01*
Y46914140D01*
X50685710Y42801340D02*
X50898470D01*
Y42664180D01*
X50685710D01*
Y42801340D01*
Y43259340D02*
X50898470D01*
Y43122180D01*
X50685710D01*
Y43259340D01*
X50711550Y45516640D02*
X50856310D01*
Y45216880D01*
X50711550D01*
Y45516640D01*
X50785050Y44266640D02*
X50944810D01*
Y44056880D01*
X50785050D01*
Y44266640D01*
X50790050Y43866640D02*
X50949810D01*
Y43656880D01*
X50790050D01*
Y43866640D01*
X50711550Y46016640D02*
X50856310D01*
Y45716880D01*
X50711550D01*
Y46016640D01*
X50895200Y46472440D02*
X51019660D01*
Y46386080D01*
X50895200D01*
Y46472440D01*
Y46668440D02*
X51019660D01*
Y46582080D01*
X50895200D01*
Y46668440D01*
X51030550Y48046340D02*
X51135310D01*
Y47909180D01*
X51030550D01*
Y48046340D01*
X51085050Y44266640D02*
X51244810D01*
Y44056880D01*
X51085050D01*
Y44266640D01*
X51090050Y43866640D02*
X51249810D01*
Y43656880D01*
X51090050D01*
Y43866640D01*
X51230550Y48045340D02*
X51335310D01*
Y47908180D01*
X51230550D01*
Y48045340D01*
X51344550Y44889140D02*
X51544310D01*
Y44684380D01*
X51344550D01*
Y44889140D01*
Y45329140D02*
X51544310D01*
Y45124380D01*
X51344550D01*
Y45329140D01*
X51548350Y46748140D02*
X51685510D01*
Y46643380D01*
X51548350D01*
Y46748140D01*
X51548930Y47191800D02*
X51675930D01*
Y47059720D01*
X51548930D01*
Y47191800D01*
X51549350Y46948140D02*
X51686510D01*
Y46843380D01*
X51549350D01*
Y46948140D01*
X51548930Y47432800D02*
X51675930D01*
Y47300720D01*
X51548930D01*
Y47432800D01*
X39652050Y45369140D02*
X39776810D01*
Y45294380D01*
X39652050D01*
Y45369140D01*
Y45559140D02*
X39776810D01*
Y45484380D01*
X39652050D01*
Y45559140D01*
X39662050Y45843840D02*
X39766810D01*
Y45706680D01*
X39662050D01*
Y45843840D01*
X39793550Y43663140D02*
X39998310D01*
Y43463380D01*
X39793550D01*
Y43663140D01*
X39862050Y45842840D02*
X39966810D01*
Y45705680D01*
X39862050D01*
Y45842840D01*
X39997550Y44126640D02*
X40157310D01*
Y43916880D01*
X39997550D01*
Y44126640D01*
X40020050Y44536640D02*
X40179810D01*
Y44326880D01*
X40020050D01*
Y44536640D01*
X40286760Y48306990D02*
X40383750Y48210000D01*
X40309680Y48135930D01*
X40212690Y48232920D01*
X40286760Y48306990D01*
X40320050Y44536640D02*
X40479810D01*
Y44326880D01*
X40320050D01*
Y44536640D01*
X40430450Y48135620D02*
X40546950Y48019120D01*
X40472870Y47945040D01*
X40356370Y48061540D01*
X40430450Y48135620D01*
X40533330Y47597010D02*
X40649840Y47480500D01*
X40568690Y47399350D01*
X40452180Y47515860D01*
X40533330Y47597010D01*
X40570050Y43606640D02*
X40889810D01*
Y43261880D01*
X40570050D01*
Y43606640D01*
X40863890Y42128840D02*
X41076650D01*
Y41991680D01*
X40863890D01*
Y42128840D01*
Y42586840D02*
X41076650D01*
Y42449680D01*
X40863890D01*
Y42586840D01*
X40717170Y47413170D02*
X40833680Y47296660D01*
X40752530Y47215510D01*
X40636020Y47332020D01*
X40717170Y47413170D01*
X40233550Y43663140D02*
X40438310D01*
Y43463380D01*
X40233550D01*
Y43663140D01*
X40297550Y44126640D02*
X40457310D01*
Y43916880D01*
X40297550D01*
Y44126640D01*
X40428890Y48447710D02*
X40525880Y48350720D01*
X40451810Y48276650D01*
X40354820Y48373640D01*
X40428890Y48447710D01*
X40600150Y48305320D02*
X40716650Y48188820D01*
X40642570Y48114740D01*
X40526070Y48231240D01*
X40600150Y48305320D01*
X40713290Y47852780D02*
X40829790Y47736280D01*
X40755710Y47662200D01*
X40639210Y47778700D01*
X40713290Y47852780D01*
X40654590Y48732000D02*
X40728660Y48657930D01*
X40631670Y48560940D01*
X40557600Y48635010D01*
X40654590Y48732000D01*
X40795310Y48589870D02*
X40869380Y48515800D01*
X40772390Y48418810D01*
X40698320Y48492880D01*
X40795310Y48589870D01*
X40882990Y48022480D02*
X40999490Y47905980D01*
X40925410Y47831900D01*
X40808910Y47948400D01*
X40882990Y48022480D01*
X41065880Y47578260D02*
X41086920Y47557220D01*
X40970420Y47440720D01*
X40949380Y47461760D01*
X41065880Y47578260D01*
X41111850Y47532300D02*
X41132890Y47511260D01*
X41016390Y47394760D01*
X40995350Y47415800D01*
X41111850Y47532300D01*
X41157810Y47486340D02*
X41178850Y47465300D01*
X41062350Y47348800D01*
X41041310Y47369840D01*
X41157810Y47486340D01*
X41203770Y47440370D02*
X41224810Y47419330D01*
X41108310Y47302830D01*
X41087270Y47323870D01*
X41203770Y47440370D01*
X41249730Y47394410D02*
X41270770Y47373370D01*
X41154270Y47256870D01*
X41133230Y47277910D01*
X41249730Y47394410D01*
X41295690Y47348450D02*
X41316730Y47327410D01*
X41200230Y47210910D01*
X41179190Y47231950D01*
X41295690Y47348450D01*
X41219430Y41386800D02*
X41346430D01*
Y41254720D01*
X41219430D01*
Y41386800D01*
Y41627800D02*
X41346430D01*
Y41495720D01*
X41219430D01*
Y41627800D01*
X41341660Y47302490D02*
X41362700Y47281450D01*
X41246200Y47164950D01*
X41225160Y47185990D01*
X41341660Y47302490D01*
X41387620Y47256530D02*
X41408660Y47235490D01*
X41292160Y47118990D01*
X41271120Y47140030D01*
X41387620Y47256530D01*
X41433580Y47210560D02*
X41454620Y47189520D01*
X41338120Y47073020D01*
X41317080Y47094060D01*
X41433580Y47210560D01*
X41479540Y47164600D02*
X41500580Y47143560D01*
X41384080Y47027060D01*
X41363040Y47048100D01*
X41479540Y47164600D01*
X41525500Y47118640D02*
X41546540Y47097600D01*
X41430040Y46981100D01*
X41409000Y47002140D01*
X41525500Y47118640D01*
X41571470Y47072680D02*
X41592510Y47051640D01*
X41476010Y46935140D01*
X41454970Y46956180D01*
X41571470Y47072680D01*
X41617430Y47026720D02*
X41638470Y47005680D01*
X41521970Y46889180D01*
X41500930Y46910220D01*
X41617430Y47026720D01*
X41663390Y46980750D02*
X41684430Y46959710D01*
X41567930Y46843210D01*
X41546890Y46864250D01*
X41663390Y46980750D01*
X41600050Y43606640D02*
X41919810D01*
Y43261880D01*
X41600050D01*
Y43606640D01*
X41753970Y46763710D02*
X41828040Y46689640D01*
X41731050Y46592650D01*
X41656980Y46666720D01*
X41753970Y46763710D01*
X41894690Y46621580D02*
X41968760Y46547510D01*
X41871770Y46450520D01*
X41797700Y46524590D01*
X41894690Y46621580D01*
X41380890Y42618640D02*
X41988650D01*
Y41959880D01*
X41380890D01*
Y42618640D01*
X41534550Y41141690D02*
X41584310D01*
Y41004430D01*
X41534550D01*
Y41141690D01*
Y41684090D02*
X41584310D01*
Y41546830D01*
X41534550D01*
Y41684090D01*
X41602550Y41466640D02*
X41897310D01*
Y41221880D01*
X41602550D01*
Y41466640D01*
X41661550Y41141690D02*
X41711310D01*
Y41004430D01*
X41661550D01*
Y41141690D01*
X41680350Y40710140D02*
X41817510D01*
Y40605380D01*
X41680350D01*
Y40710140D01*
X41681350Y40910140D02*
X41818510D01*
Y40805380D01*
X41681350D01*
Y40910140D01*
X41788550Y41141690D02*
X41838310D01*
Y41004430D01*
X41788550D01*
Y41141690D01*
X41661550Y41684090D02*
X41711310D01*
Y41546830D01*
X41661550D01*
Y41684090D01*
X41788550D02*
X41838310D01*
Y41546830D01*
X41788550D01*
Y41684090D01*
X41915550Y41141690D02*
X41965310D01*
Y41004430D01*
X41915550D01*
Y41141690D01*
X41917350Y40708140D02*
X42054510D01*
Y40603380D01*
X41917350D01*
Y40708140D01*
X41918350Y40908140D02*
X42055510D01*
Y40803380D01*
X41918350D01*
Y40908140D01*
X41915550Y41684090D02*
X41965310D01*
Y41546830D01*
X41915550D01*
Y41684090D01*
X40930470Y48284710D02*
X41004540Y48210640D01*
X40907550Y48113650D01*
X40833480Y48187720D01*
X40930470Y48284710D01*
X41071190Y48142580D02*
X41145260Y48068510D01*
X41048270Y47971520D01*
X40974200Y48045590D01*
X41071190Y48142580D01*
X40806090Y48886000D02*
X40880160Y48811930D01*
X40783170Y48714940D01*
X40709100Y48789010D01*
X40806090Y48886000D01*
X40946810Y48743870D02*
X41020880Y48669800D01*
X40923890Y48572810D01*
X40849820Y48646880D01*
X40946810Y48743870D01*
X41567930Y48080310D02*
X41588970Y48059270D01*
X41472470Y47942770D01*
X41451430Y47963810D01*
X41567930Y48080310D01*
X41613890Y48034340D02*
X41634930Y48013300D01*
X41518430Y47896800D01*
X41497390Y47917840D01*
X41613890Y48034340D01*
X41659850Y47988380D02*
X41680890Y47967340D01*
X41564390Y47850840D01*
X41543350Y47871880D01*
X41659850Y47988380D01*
X41705820Y47942420D02*
X41726860Y47921380D01*
X41610360Y47804880D01*
X41589320Y47825920D01*
X41705820Y47942420D01*
X41751780Y47896460D02*
X41772820Y47875420D01*
X41656320Y47758920D01*
X41635280Y47779960D01*
X41751780Y47896460D01*
X41797740Y47850500D02*
X41818780Y47829460D01*
X41702280Y47712960D01*
X41681240Y47734000D01*
X41797740Y47850500D01*
X41843700Y47804530D02*
X41864740Y47783490D01*
X41748240Y47666990D01*
X41727200Y47688030D01*
X41843700Y47804530D01*
X41889660Y47758570D02*
X41910700Y47737530D01*
X41794200Y47621030D01*
X41773160Y47642070D01*
X41889660Y47758570D01*
X41904090Y46920000D02*
X41978160Y46845930D01*
X41881170Y46748940D01*
X41807100Y46823010D01*
X41904090Y46920000D01*
X42044810Y46777870D02*
X42118880Y46703800D01*
X42021890Y46606810D01*
X41947820Y46680880D01*
X42044810Y46777870D01*
X41935630Y47712610D02*
X41956670Y47691570D01*
X41840170Y47575070D01*
X41819130Y47596110D01*
X41935630Y47712610D01*
X41981590Y47666650D02*
X42002630Y47645610D01*
X41886130Y47529110D01*
X41865090Y47550150D01*
X41981590Y47666650D01*
X42027550Y47620690D02*
X42048590Y47599650D01*
X41932090Y47483150D01*
X41911050Y47504190D01*
X42027550Y47620690D01*
X42073510Y47574720D02*
X42094550Y47553680D01*
X41978050Y47437180D01*
X41957010Y47458220D01*
X42073510Y47574720D01*
X42119470Y47528760D02*
X42140510Y47507720D01*
X42024010Y47391220D01*
X42002970Y47412260D01*
X42119470Y47528760D01*
X42165440Y47482800D02*
X42186480Y47461760D01*
X42069980Y47345260D01*
X42048940Y47366300D01*
X42165440Y47482800D01*
X42054590Y47068000D02*
X42128660Y46993930D01*
X42031670Y46896940D01*
X41957600Y46971010D01*
X42054590Y47068000D01*
X42195310Y46925870D02*
X42269380Y46851800D01*
X42172390Y46754810D01*
X42098320Y46828880D01*
X42195310Y46925870D01*
X42127930Y40700300D02*
X42254930D01*
Y40568220D01*
X42127930D01*
Y40700300D01*
Y40941300D02*
X42254930D01*
Y40809220D01*
X42127930D01*
Y40941300D01*
X42141130Y48078070D02*
X42234530Y47984670D01*
X42144730Y47894870D01*
X42051330Y47988270D01*
X42141130Y48078070D01*
X42311540Y47907650D02*
X42404940Y47814250D01*
X42315140Y47724450D01*
X42221740Y47817850D01*
X42311540Y47907650D01*
X42321050Y42331640D02*
X42720810D01*
Y42131880D01*
X42321050D01*
Y42331640D01*
Y43669140D02*
X42720810D01*
Y43469380D01*
X42321050D01*
Y43669140D01*
X42335090Y48232000D02*
X42409160Y48157930D01*
X42312170Y48060940D01*
X42238100Y48135010D01*
X42335090Y48232000D01*
X42475810Y48089870D02*
X42549880Y48015800D01*
X42452890Y47918810D01*
X42378820Y47992880D01*
X42475810Y48089870D01*
X42495090Y48389500D02*
X42569160Y48315430D01*
X42472170Y48218440D01*
X42398100Y48292510D01*
X42495090Y48389500D01*
X42635810Y48247370D02*
X42709880Y48173300D01*
X42612890Y48076310D01*
X42538820Y48150380D01*
X42635810Y48247370D01*
X42597550Y44668140D02*
X42812310D01*
Y44468380D01*
X42597550D01*
Y44668140D01*
X42656090Y48543000D02*
X42730160Y48468930D01*
X42633170Y48371940D01*
X42559100Y48446010D01*
X42656090Y48543000D01*
X42796810Y48400870D02*
X42870880Y48326800D01*
X42773890Y48229810D01*
X42699820Y48303880D01*
X42796810Y48400870D01*
X42863890Y40468260D02*
X42995970D01*
Y40341260D01*
X42863890D01*
Y40468260D01*
X42813590Y48700500D02*
X42887660Y48626430D01*
X42790670Y48529440D01*
X42716600Y48603510D01*
X42813590Y48700500D01*
X42954310Y48558370D02*
X43028380Y48484300D01*
X42931390Y48387310D01*
X42857320Y48461380D01*
X42954310Y48558370D01*
X43027550Y44668140D02*
X43242310D01*
Y44468380D01*
X43027550D01*
Y44668140D01*
X43104890Y40468260D02*
X43236970D01*
Y40341260D01*
X43104890D01*
Y40468260D01*
X43171050Y42331640D02*
X43570810D01*
Y42131880D01*
X43171050D01*
Y42331640D01*
Y43669140D02*
X43570810D01*
Y43469380D01*
X43171050D01*
Y43669140D01*
X42950130Y48863570D02*
X43043530Y48770170D01*
X42953730Y48680370D01*
X42860330Y48773770D01*
X42950130Y48863570D01*
X43120540Y48693150D02*
X43213940Y48599750D01*
X43124140Y48509950D01*
X43030740Y48603350D01*
X43120540Y48693150D01*
X43163100Y49028100D02*
X43224170Y48967030D01*
X43136160Y48879020D01*
X43075090Y48940090D01*
X43163100Y49028100D01*
X43301700Y48889500D02*
X43362770Y48828430D01*
X43274760Y48740420D01*
X43213690Y48801490D01*
X43301700Y48889500D01*
X43233850Y50436640D02*
X43371010D01*
Y50331880D01*
X43233850D01*
Y50436640D01*
X43234850Y50636640D02*
X43372010D01*
Y50531880D01*
X43234850D01*
Y50636640D01*
X43496350Y50427640D02*
X43633510D01*
Y50322880D01*
X43496350D01*
Y50427640D01*
X43630350Y50037950D02*
X43645110D01*
Y49954190D01*
X43630350D01*
Y50037950D01*
Y50198950D02*
X43645110D01*
Y50115190D01*
X43630350D01*
Y50198950D01*
X43497350Y50627640D02*
X43634510D01*
Y50522880D01*
X43497350D01*
Y50627640D01*
X43607460Y51017770D02*
X43657940Y50892820D01*
X43634980Y50883550D01*
X43584500Y51008500D01*
X43607460Y51017770D01*
X43667730Y51042120D02*
X43718210Y50917170D01*
X43695250Y50907900D01*
X43644770Y51032850D01*
X43667730Y51042120D01*
X43680350Y50037950D02*
X43695110D01*
Y49954190D01*
X43680350D01*
Y50037950D01*
Y50198950D02*
X43695110D01*
Y50115190D01*
X43680350D01*
Y50198950D01*
X43728000Y51066470D02*
X43778480Y50941520D01*
X43755520Y50932250D01*
X43705040Y51057200D01*
X43728000Y51066470D01*
X43730350Y50037950D02*
X43745110D01*
Y49954190D01*
X43730350D01*
Y50037950D01*
Y50198950D02*
X43745110D01*
Y50115190D01*
X43730350D01*
Y50198950D01*
X43740350Y50424640D02*
X43877510D01*
Y50319880D01*
X43740350D01*
Y50424640D01*
X43741350Y50624640D02*
X43878510D01*
Y50519880D01*
X43741350D01*
Y50624640D01*
X43788260Y51090820D02*
X43838740Y50965870D01*
X43815780Y50956600D01*
X43765300Y51081550D01*
X43788260Y51090820D01*
X43848530Y51115170D02*
X43899010Y50990220D01*
X43876050Y50980950D01*
X43825570Y51105900D01*
X43848530Y51115170D01*
X43951430Y50396300D02*
X44078430D01*
Y50264220D01*
X43951430D01*
Y50396300D01*
Y50637300D02*
X44078430D01*
Y50505220D01*
X43951430D01*
Y50637300D01*
X44142050Y48976340D02*
X44246810D01*
Y48839180D01*
X44142050D01*
Y48976340D01*
X44150350Y50436140D02*
X44287510D01*
Y50331380D01*
X44150350D01*
Y50436140D01*
X44151350Y50636140D02*
X44288510D01*
Y50531380D01*
X44151350D01*
Y50636140D01*
X44328390Y49195760D02*
X44460470D01*
Y49068760D01*
X44328390D01*
Y49195760D01*
X44342050Y48975340D02*
X44446810D01*
Y48838180D01*
X44342050D01*
Y48975340D01*
X44483550Y49390140D02*
X44648310D01*
Y49285380D01*
X44483550D01*
Y49390140D01*
X44569390Y49195760D02*
X44701470D01*
Y49068760D01*
X44569390D01*
Y49195760D01*
X44483550Y49630140D02*
X44648310D01*
Y49525380D01*
X44483550D01*
Y49630140D01*
X44574890Y49829260D02*
X44706970D01*
Y49702260D01*
X44574890D01*
Y49829260D01*
X44815890D02*
X44947970D01*
Y49702260D01*
X44815890D01*
Y49829260D01*
X44883550Y49390140D02*
X45048310D01*
Y49285380D01*
X44883550D01*
Y49390140D01*
X44972890Y48664660D02*
X45104970D01*
Y48537660D01*
X44972890D01*
Y48664660D01*
X44975390Y48869660D02*
X45107470D01*
Y48742660D01*
X44975390D01*
Y48869660D01*
X44883550Y49630140D02*
X45048310D01*
Y49525380D01*
X44883550D01*
Y49630140D01*
X44831930Y50152700D02*
X44958930D01*
Y50020620D01*
X44831930D01*
Y50152700D01*
Y50393700D02*
X44958930D01*
Y50261620D01*
X44831930D01*
Y50393700D01*
X45068430Y50150200D02*
X45195430D01*
Y50018120D01*
X45068430D01*
Y50150200D01*
Y50391200D02*
X45195430D01*
Y50259120D01*
X45068430D01*
Y50391200D01*
X45213890Y48664660D02*
X45345970D01*
Y48537660D01*
X45213890D01*
Y48664660D01*
X45216390Y48869660D02*
X45348470D01*
Y48742660D01*
X45216390D01*
Y48869660D01*
X45223500Y49100140D02*
X45355760D01*
Y49085380D01*
X45223500D01*
Y49100140D01*
Y49150140D02*
X45355760D01*
Y49135380D01*
X45223500D01*
Y49150140D01*
Y49200140D02*
X45355760D01*
Y49185380D01*
X45223500D01*
Y49200140D01*
Y49250140D02*
X45355760D01*
Y49235380D01*
X45223500D01*
Y49250140D01*
Y49300140D02*
X45355760D01*
Y49285380D01*
X45223500D01*
Y49300140D01*
Y49350140D02*
X45355760D01*
Y49335380D01*
X45223500D01*
Y49350140D01*
Y49400140D02*
X45355760D01*
Y49385380D01*
X45223500D01*
Y49400140D01*
Y49450140D02*
X45355760D01*
Y49435380D01*
X45223500D01*
Y49450140D01*
Y49500140D02*
X45355760D01*
Y49485380D01*
X45223500D01*
Y49500140D01*
Y49550140D02*
X45355760D01*
Y49535380D01*
X45223500D01*
Y49550140D01*
Y49600140D02*
X45355760D01*
Y49585380D01*
X45223500D01*
Y49600140D01*
Y49650140D02*
X45355760D01*
Y49635380D01*
X45223500D01*
Y49650140D01*
Y49700140D02*
X45355760D01*
Y49685380D01*
X45223500D01*
Y49700140D01*
Y49750140D02*
X45355760D01*
Y49735380D01*
X45223500D01*
Y49750140D01*
Y49800140D02*
X45355760D01*
Y49785380D01*
X45223500D01*
Y49800140D01*
Y49850140D02*
X45355760D01*
Y49835380D01*
X45223500D01*
Y49850140D01*
X45481050Y48960090D02*
X45495810D01*
Y48827830D01*
X45481050D01*
Y48960090D01*
Y50107690D02*
X45495810D01*
Y49975430D01*
X45481050D01*
Y50107690D01*
X45531050Y48960090D02*
X45545810D01*
Y48827830D01*
X45531050D01*
Y48960090D01*
Y50107690D02*
X45545810D01*
Y49975430D01*
X45531050D01*
Y50107690D01*
X45581050Y48960090D02*
X45595810D01*
Y48827830D01*
X45581050D01*
Y48960090D01*
Y50107690D02*
X45595810D01*
Y49975430D01*
X45581050D01*
Y50107690D01*
X45631050Y48960090D02*
X45645810D01*
Y48827830D01*
X45631050D01*
Y48960090D01*
Y50107690D02*
X45645810D01*
Y49975430D01*
X45631050D01*
Y50107690D01*
X45681050Y48960090D02*
X45695810D01*
Y48827830D01*
X45681050D01*
Y48960090D01*
Y50107690D02*
X45695810D01*
Y49975430D01*
X45681050D01*
Y50107690D01*
X45731050Y48960090D02*
X45745810D01*
Y48827830D01*
X45731050D01*
Y48960090D01*
Y50107690D02*
X45745810D01*
Y49975430D01*
X45731050D01*
Y50107690D01*
X41772930Y40228260D02*
G36*
X41772930Y40228260D02*
G75*
G03*
X42771480Y39593110I3996950J5181290D01*
G01*
X43763580D01*
Y40228260D01*
X41772930D01*
G37*
X47776280D02*
G36*
X47776280Y40228260D02*
Y39593110D01*
X48768380D01*
G75*
G03*
X49766870Y40228260I-2998770J5816650D01*
G01*
X49262810D01*
Y40120880D01*
X49063050D01*
Y40228260D01*
X47776280D01*
G37*
X41549290Y40408760D02*
G36*
X41549290Y40408760D02*
G75*
G03*
X41772930Y40228260I4221610J5001790D01*
G01*
X43763580D01*
Y40408760D01*
X43236970D01*
Y40341260D01*
X43104890D01*
Y40408760D01*
X42995970D01*
Y40341260D01*
X42863890D01*
Y40408760D01*
X41549290D01*
G37*
X47776280D02*
G36*
X47776280Y40408760D02*
Y40228260D01*
X49063050D01*
Y40335640D01*
X49262810D01*
Y40228260D01*
X49766870D01*
G75*
G03*
X49990510Y40408760I-3997970J5182290D01*
G01*
X49626430D01*
Y40342720D01*
X49499430D01*
Y40408760D01*
X47776280D01*
G37*
X41270270Y40658260D02*
G36*
X41270270Y40658260D02*
G75*
G03*
X41549290Y40408760I4500630J4752370D01*
G01*
X42863890D01*
Y40468260D01*
X42995970D01*
Y40408760D01*
X43104890D01*
Y40468260D01*
X43236970D01*
Y40408760D01*
X43763580D01*
Y40658260D01*
X42254930D01*
Y40568220D01*
X42127930D01*
Y40658260D01*
X42054510D01*
Y40603380D01*
X41917350D01*
Y40658260D01*
X41817510D01*
Y40605380D01*
X41680350D01*
Y40658260D01*
X41270270D01*
G37*
X47776280D02*
G36*
X47776280Y40658260D02*
Y40408760D01*
X49499430D01*
Y40474800D01*
X49626430D01*
Y40408760D01*
X49990510D01*
G75*
G03*
X50269520Y40658260I-4221620J5001690D01*
G01*
X49626430D01*
Y40583720D01*
X49499430D01*
Y40658260D01*
X49262810D01*
Y40550880D01*
X49063050D01*
Y40658260D01*
X47776280D01*
G37*
X41068560Y40857760D02*
G36*
X41068560Y40857760D02*
G75*
G03*
X41270270Y40658260I4701790J4552150D01*
G01*
X41680350D01*
Y40710140D01*
X41817510D01*
Y40658260D01*
X41917350D01*
Y40708140D01*
X42054510D01*
Y40658260D01*
X42127930D01*
Y40700300D01*
X42254930D01*
Y40658260D01*
X43763580D01*
Y40857760D01*
X42254930D01*
Y40809220D01*
X42127930D01*
Y40857760D01*
X42055510D01*
Y40803380D01*
X41918350D01*
Y40857760D01*
X41818510D01*
Y40805380D01*
X41681350D01*
Y40857760D01*
X41068560D01*
G37*
X47776280D02*
G36*
X47776280Y40857760D02*
Y40658260D01*
X49063050D01*
Y40765640D01*
X49262810D01*
Y40658260D01*
X49499430D01*
Y40715800D01*
X49626430D01*
Y40658260D01*
X50269520D01*
G75*
G03*
X50471220Y40857760I-4500080J4751420D01*
G01*
X47776280D01*
G37*
X40852780Y41091760D02*
G36*
X40852780Y41091760D02*
G75*
G03*
X41068560Y40857760I4917570J4318180D01*
G01*
X41681350D01*
Y40910140D01*
X41818510D01*
Y40857760D01*
X41918350D01*
Y40908140D01*
X42055510D01*
Y40857760D01*
X42127930D01*
Y40941300D01*
X42254930D01*
Y40857760D01*
X43763580D01*
Y41091760D01*
X41965310D01*
Y41004430D01*
X41915550D01*
Y41091760D01*
X41838310D01*
Y41004430D01*
X41788550D01*
Y41091760D01*
X41711310D01*
Y41004430D01*
X41661550D01*
Y41091760D01*
X41584310D01*
Y41004430D01*
X41534550D01*
Y41091760D01*
X40852780D01*
G37*
X47776280D02*
G36*
X47776280Y41091760D02*
Y40857760D01*
X50471220D01*
G75*
G03*
X50686990Y41091760I-4701790J4551970D01*
G01*
X50248510D01*
Y41068380D01*
X50111350D01*
Y41091760D01*
X50007930D01*
Y41025720D01*
X49880930D01*
Y41091760D01*
X47776280D01*
G37*
X40651200Y41332760D02*
G36*
X40651200Y41332760D02*
G75*
G03*
X40852780Y41091760I5119190J4077050D01*
G01*
X41534550D01*
Y41141690D01*
X41584310D01*
Y41091760D01*
X41661550D01*
Y41141690D01*
X41711310D01*
Y41091760D01*
X41788550D01*
Y41141690D01*
X41838310D01*
Y41091760D01*
X41915550D01*
Y41141690D01*
X41965310D01*
Y41091760D01*
X43763580D01*
Y41332760D01*
X41897310D01*
Y41221880D01*
X41602550D01*
Y41332760D01*
X41346430D01*
Y41254720D01*
X41219430D01*
Y41332760D01*
X40651200D01*
G37*
X47776280D02*
G36*
X47776280Y41332760D02*
Y41091760D01*
X49880930D01*
Y41157800D01*
X50007930D01*
Y41091760D01*
X50111350D01*
Y41173140D01*
X50248510D01*
Y41091760D01*
X50686990D01*
G75*
G03*
X50888570Y41332760I-4917610J4318050D01*
G01*
X50558010D01*
Y41268380D01*
X50420850D01*
Y41332760D01*
X50249510D01*
Y41268380D01*
X50112350D01*
Y41332760D01*
X50007930D01*
Y41266720D01*
X49880930D01*
Y41332760D01*
X47776280D01*
G37*
X40506950Y41520760D02*
G36*
X40506950Y41520760D02*
G75*
G03*
X40651200Y41332760I5265200J3890580D01*
G01*
X41219430D01*
Y41386800D01*
X41346430D01*
Y41332760D01*
X41602550D01*
Y41466640D01*
X41897310D01*
Y41332760D01*
X43763580D01*
Y41520760D01*
X41346430D01*
Y41495720D01*
X41219430D01*
Y41520760D01*
X40506950D01*
G37*
X47776280D02*
G36*
X47776280Y41520760D02*
Y41332760D01*
X49880930D01*
Y41398800D01*
X50007930D01*
Y41332760D01*
X50112350D01*
Y41373140D01*
X50249510D01*
Y41332760D01*
X50420850D01*
Y41373140D01*
X50558010D01*
Y41332760D01*
X50888570D01*
G75*
G03*
X51032810Y41520760I-5120950J4078300D01*
G01*
X50559010D01*
Y41468380D01*
X50421850D01*
Y41520760D01*
X47776280D01*
G37*
X40438280Y41615460D02*
G36*
X40438280Y41615460D02*
G75*
G03*
X40506950Y41520760I5332930J3794830D01*
G01*
X41219430D01*
Y41615460D01*
X40438280D01*
G37*
X41346430D02*
G36*
X41346430Y41615460D02*
Y41520760D01*
X43763580D01*
Y41615460D01*
X41965310D01*
Y41546830D01*
X41915550D01*
Y41615460D01*
X41838310D01*
Y41546830D01*
X41788550D01*
Y41615460D01*
X41711310D01*
Y41546830D01*
X41661550D01*
Y41615460D01*
X41584310D01*
Y41546830D01*
X41534550D01*
Y41615460D01*
X41346430D01*
G37*
X47776280D02*
G36*
X47776280Y41615460D02*
Y41520760D01*
X50421850D01*
Y41573140D01*
X50559010D01*
Y41520760D01*
X51032810D01*
G75*
G03*
X51101480Y41615460I-5264260J3889530D01*
G01*
X47776280D01*
G37*
X40385490Y41690760D02*
G36*
X40385490Y41690760D02*
G75*
G03*
X40438280Y41615460I5385780J3719610D01*
G01*
X41219430D01*
Y41627800D01*
X41346430D01*
Y41615460D01*
X41534550D01*
Y41684090D01*
X41584310D01*
Y41615460D01*
X41661550D01*
Y41684090D01*
X41711310D01*
Y41615460D01*
X41788550D01*
Y41684090D01*
X41838310D01*
Y41615460D01*
X41915550D01*
Y41684090D01*
X41965310D01*
Y41615460D01*
X43763580D01*
Y41690760D01*
X40385490D01*
G37*
X47776280D02*
G36*
X47776280Y41690760D02*
Y41615460D01*
X51101480D01*
G75*
G03*
X51154270Y41690760I-5332990J3794910D01*
G01*
X50200310D01*
Y41621930D01*
X50150550D01*
Y41690760D01*
X50073310D01*
Y41621930D01*
X50023550D01*
Y41690760D01*
X49946310D01*
Y41621930D01*
X49896550D01*
Y41690760D01*
X49819310D01*
Y41621930D01*
X49769550D01*
Y41690760D01*
X49593930D01*
Y41624720D01*
X49466930D01*
Y41690760D01*
X47776280D01*
G37*
X40226780Y41931760D02*
G36*
X40226780Y41931760D02*
G75*
G03*
X40385490Y41690760I5544930J3478840D01*
G01*
X43763580D01*
Y41931760D01*
X40226780D01*
G37*
X47776280D02*
G36*
X47776280Y41931760D02*
Y41690760D01*
X49466930D01*
Y41756800D01*
X49593930D01*
Y41690760D01*
X49769550D01*
Y41759190D01*
X49819310D01*
Y41690760D01*
X49896550D01*
Y41759190D01*
X49946310D01*
Y41690760D01*
X50023550D01*
Y41759190D01*
X50073310D01*
Y41690760D01*
X50150550D01*
Y41759190D01*
X50200310D01*
Y41690760D01*
X51154270D01*
G75*
G03*
X51312980Y41931760I-5386220J3719840D01*
G01*
X50132310D01*
Y41839380D01*
X49837550D01*
Y41931760D01*
X49593930D01*
Y41865720D01*
X49466930D01*
Y41931760D01*
X47776280D01*
G37*
X40148210Y42060260D02*
G36*
X40148210Y42060260D02*
G75*
G03*
X40226780Y41931760I5625160J3351180D01*
G01*
X43763580D01*
Y42060260D01*
X41988650D01*
Y41959880D01*
X41380890D01*
Y42060260D01*
X41076650D01*
Y41991680D01*
X40863890D01*
Y42060260D01*
X40148210D01*
G37*
X47776280D02*
G36*
X47776280Y42060260D02*
Y41931760D01*
X49466930D01*
Y41997800D01*
X49593930D01*
Y41931760D01*
X49837550D01*
Y42060260D01*
X47776280D01*
G37*
X50132310D02*
G36*
X50132310Y42060260D02*
Y41931760D01*
X51312980D01*
G75*
G03*
X51391550Y42060260I-5546590J3479680D01*
G01*
X50132310D01*
G37*
X40049520Y42231760D02*
G36*
X40049520Y42231760D02*
G75*
G03*
X40148210Y42060260I5722250J3178740D01*
G01*
X40863890D01*
Y42128840D01*
X41076650D01*
Y42060260D01*
X41380890D01*
Y42231760D01*
X40049520D01*
G37*
X41988650D02*
G36*
X41988650Y42231760D02*
Y42060260D01*
X43763580D01*
Y42231760D01*
X43570810D01*
Y42131880D01*
X43171050D01*
Y42231760D01*
X42720810D01*
Y42131880D01*
X42321050D01*
Y42231760D01*
X41988650D01*
G37*
X47776280D02*
G36*
X47776280Y42231760D02*
Y42060260D01*
X49837550D01*
Y42084140D01*
X50132310D01*
Y42060260D01*
X51391550D01*
G75*
G03*
X51490240Y42231760I-5623560J3350240D01*
G01*
X50200310D01*
Y42164330D01*
X50150550D01*
Y42231760D01*
X50073310D01*
Y42164330D01*
X50023550D01*
Y42231760D01*
X49946310D01*
Y42164330D01*
X49896550D01*
Y42231760D01*
X49819310D01*
Y42164330D01*
X49769550D01*
Y42231760D01*
X49184810D01*
Y42131880D01*
X48785050D01*
Y42231760D01*
X48334810D01*
Y42131880D01*
X47935050D01*
Y42231760D01*
X47776280D01*
G37*
X39899510Y42518260D02*
G36*
X39899510Y42518260D02*
G75*
G03*
X40049520Y42231760I5872210J2892140D01*
G01*
X41380890D01*
Y42518260D01*
X41076650D01*
Y42449680D01*
X40863890D01*
Y42518260D01*
X39899510D01*
G37*
X41988650D02*
G36*
X41988650Y42518260D02*
Y42231760D01*
X42321050D01*
Y42331640D01*
X42720810D01*
Y42231760D01*
X43171050D01*
Y42331640D01*
X43570810D01*
Y42231760D01*
X43763580D01*
Y42518260D01*
X41988650D01*
G37*
X47776280D02*
G36*
X47776280Y42518260D02*
Y42231760D01*
X47935050D01*
Y42331640D01*
X48334810D01*
Y42231760D01*
X48785050D01*
Y42331640D01*
X49184810D01*
Y42231760D01*
X49769550D01*
Y42301590D01*
X49819310D01*
Y42231760D01*
X49896550D01*
Y42301590D01*
X49946310D01*
Y42231760D01*
X50023550D01*
Y42301590D01*
X50073310D01*
Y42231760D01*
X50150550D01*
Y42301590D01*
X50200310D01*
Y42231760D01*
X51490240D01*
G75*
G03*
X51640240Y42518260I-5722210J3178440D01*
G01*
X47776280D01*
G37*
X39798650Y42732760D02*
G36*
X39798650Y42732760D02*
G75*
G03*
X39899510Y42518260I5972650J2677430D01*
G01*
X40863890D01*
Y42586840D01*
X41076650D01*
Y42518260D01*
X41380890D01*
Y42618640D01*
X41988650D01*
Y42518260D01*
X43763580D01*
Y42732760D01*
X39798650D01*
G37*
X47776280D02*
G36*
X47776280Y42732760D02*
Y42518260D01*
X51640240D01*
G75*
G03*
X51741100Y42732760I-5871790J2891930D01*
G01*
X50898470D01*
Y42664180D01*
X50685710D01*
Y42732760D01*
X50381470D01*
Y42632380D01*
X49773710D01*
Y42732760D01*
X47776280D01*
G37*
X39701190Y42961760D02*
G36*
X39701190Y42961760D02*
G75*
G03*
X39798650Y42732760I6069450J2447860D01*
G01*
X43763580D01*
Y42961760D01*
X39701190D01*
G37*
X47776280D02*
G36*
X47776280Y42961760D02*
Y42732760D01*
X49773710D01*
Y42961760D01*
X47776280D01*
G37*
X50381470D02*
G36*
X50381470Y42961760D02*
Y42732760D01*
X50685710D01*
Y42801340D01*
X50898470D01*
Y42732760D01*
X51741100D01*
G75*
G03*
X51838560Y42961760I-5971990J2676860D01*
G01*
X50381470D01*
G37*
X39613780Y43190760D02*
G36*
X39613780Y43190760D02*
G75*
G03*
X39701190Y42961760I6157030J2218980D01*
G01*
X43763580D01*
Y43190760D01*
X39613780D01*
G37*
X47776280D02*
G36*
X47776280Y43190760D02*
Y42961760D01*
X49773710D01*
Y43190760D01*
X47776280D01*
G37*
X50381470D02*
G36*
X50381470Y43190760D02*
Y42961760D01*
X51838560D01*
G75*
G03*
X51925970Y43190760I-6069620J2447980D01*
G01*
X50898470D01*
Y43122180D01*
X50685710D01*
Y43190760D01*
X50381470D01*
G37*
X39487030Y43580260D02*
G36*
X39487030Y43580260D02*
G75*
G03*
X39613780Y43190760I6282890J1829190D01*
G01*
X43763580D01*
Y43580260D01*
X43570810D01*
Y43469380D01*
X43171050D01*
Y43580260D01*
X42720810D01*
Y43469380D01*
X42321050D01*
Y43580260D01*
X41919810D01*
Y43261880D01*
X41600050D01*
Y43580260D01*
X40889810D01*
Y43261880D01*
X40570050D01*
Y43580260D01*
X40438310D01*
Y43463380D01*
X40233550D01*
Y43580260D01*
X39998310D01*
Y43463380D01*
X39793550D01*
Y43580260D01*
X39487030D01*
G37*
X47776280D02*
G36*
X47776280Y43580260D02*
Y43190760D01*
X49773710D01*
Y43291140D01*
X50381470D01*
Y43190760D01*
X50685710D01*
Y43259340D01*
X50898470D01*
Y43190760D01*
X51925970D01*
G75*
G03*
X52052720Y43580260I-6156140J2218690D01*
G01*
X49244810D01*
Y43480380D01*
X48845050D01*
Y43580260D01*
X48394810D01*
Y43480380D01*
X47995050D01*
Y43580260D01*
X47776280D01*
G37*
X39437010Y43761760D02*
G36*
X39437010Y43761760D02*
G75*
G03*
X39487030Y43580260I6334760J1648170D01*
G01*
X39793550D01*
Y43663140D01*
X39998310D01*
Y43580260D01*
X40233550D01*
Y43663140D01*
X40438310D01*
Y43580260D01*
X40570050D01*
Y43606640D01*
X40889810D01*
Y43580260D01*
X41600050D01*
Y43606640D01*
X41919810D01*
Y43580260D01*
X42321050D01*
Y43669140D01*
X42720810D01*
Y43580260D01*
X43171050D01*
Y43669140D01*
X43570810D01*
Y43580260D01*
X43763580D01*
Y43761760D01*
X39437010D01*
G37*
X47776280D02*
G36*
X47776280Y43761760D02*
Y43580260D01*
X47995050D01*
Y43680140D01*
X48394810D01*
Y43580260D01*
X48845050D01*
Y43680140D01*
X49244810D01*
Y43580260D01*
X52052720D01*
G75*
G03*
X52102730Y43761760I-6284740J1829320D01*
G01*
X51249810D01*
Y43656880D01*
X51090050D01*
Y43761760D01*
X50949810D01*
Y43656880D01*
X50790050D01*
Y43761760D01*
X50172310D01*
Y43601880D01*
X49827550D01*
Y43761760D01*
X47776280D01*
G37*
X39375010Y44021760D02*
G36*
X39375010Y44021760D02*
G75*
G03*
X39437010Y43761760I6396310J1387880D01*
G01*
X43763580D01*
Y44021760D01*
X40457310D01*
Y43916880D01*
X40297550D01*
Y44021760D01*
X40157310D01*
Y43916880D01*
X39997550D01*
Y44021760D01*
X39375010D01*
G37*
X47776280D02*
G36*
X47776280Y44021760D02*
Y43761760D01*
X49827550D01*
Y43921640D01*
X50172310D01*
Y43761760D01*
X50790050D01*
Y43866640D01*
X50949810D01*
Y43761760D01*
X51090050D01*
Y43866640D01*
X51249810D01*
Y43761760D01*
X52102730D01*
G75*
G03*
X52164740Y44021760I-6334310J1648130D01*
G01*
X47776280D01*
G37*
X39346230Y44161760D02*
G36*
X39346230Y44161760D02*
G75*
G03*
X39375010Y44021760I6426130J1248070D01*
G01*
X39997550D01*
Y44126640D01*
X40157310D01*
Y44021760D01*
X40297550D01*
Y44126640D01*
X40457310D01*
Y44021760D01*
X43763580D01*
Y44161760D01*
X39346230D01*
G37*
X47776280D02*
G36*
X47776280Y44161760D02*
Y44021760D01*
X52164740D01*
G75*
G03*
X52193520Y44161760I-6397350J1388070D01*
G01*
X51244810D01*
Y44056880D01*
X51085050D01*
Y44161760D01*
X50944810D01*
Y44056880D01*
X50785050D01*
Y44161760D01*
X47776280D01*
G37*
X39299640Y44431760D02*
G36*
X39299640Y44431760D02*
G75*
G03*
X39346230Y44161760I6470810J977560D01*
G01*
X43763580D01*
Y44431760D01*
X40479810D01*
Y44326880D01*
X40320050D01*
Y44431760D01*
X40179810D01*
Y44326880D01*
X40020050D01*
Y44431760D01*
X39299640D01*
G37*
X47776280D02*
G36*
X47776280Y44431760D02*
Y44161760D01*
X50785050D01*
Y44266640D01*
X50944810D01*
Y44161760D01*
X51085050D01*
Y44266640D01*
X51244810D01*
Y44161760D01*
X52193520D01*
G75*
G03*
X52240110Y44431760I-6424220J1247560D01*
G01*
X47776280D01*
G37*
X39280480Y44568260D02*
G36*
X39280480Y44568260D02*
G75*
G03*
X39299640Y44431760I6494310J841990D01*
G01*
X40020050D01*
Y44536640D01*
X40179810D01*
Y44431760D01*
X40320050D01*
Y44536640D01*
X40479810D01*
Y44431760D01*
X43763580D01*
Y44568260D01*
X43242310D01*
Y44468380D01*
X43027550D01*
Y44568260D01*
X42812310D01*
Y44468380D01*
X42597550D01*
Y44568260D01*
X39280480D01*
G37*
X47776280D02*
G36*
X47776280Y44568260D02*
Y44431760D01*
X52240110D01*
G75*
G03*
X52259270Y44568260I-6475150J978490D01*
G01*
X47776280D01*
G37*
X39255410Y44791760D02*
G36*
X39255410Y44791760D02*
G75*
G03*
X39280480Y44568260I6515500J617690D01*
G01*
X42597550D01*
Y44668140D01*
X42812310D01*
Y44568260D01*
X43027550D01*
Y44668140D01*
X43242310D01*
Y44568260D01*
X43763580D01*
Y44791760D01*
X39255410D01*
G37*
X47776280D02*
G36*
X47776280Y44791760D02*
Y44568260D01*
X52259270D01*
G75*
G03*
X52284340Y44791760I-6490430J841190D01*
G01*
X51544310D01*
Y44684380D01*
X51344550D01*
Y44791760D01*
X50172310D01*
Y44631880D01*
X49827550D01*
Y44791760D01*
X47776280D01*
G37*
X39229620Y45197760D02*
G36*
X39229620Y45197760D02*
G75*
G03*
X39255410Y44791760I6541420J211710D01*
G01*
X43763580D01*
Y45197760D01*
X39229620D01*
G37*
X47773780D02*
G36*
X47773780Y45197760D02*
Y45156810D01*
G75*
G02*
X47776280Y45151760I-3850J-5050D01*
G01*
Y44791760D01*
X49827550D01*
Y44951640D01*
X50172310D01*
Y44791760D01*
X51344550D01*
Y44889140D01*
X51544310D01*
Y44791760D01*
X52284340D01*
G75*
G03*
X52310130Y45197760I-6515630J617710D01*
G01*
X51544310D01*
Y45124380D01*
X51344550D01*
Y45197760D01*
X48358510D01*
Y45166380D01*
X48221350D01*
Y45197760D01*
X48078810D01*
Y45160380D01*
X47954050D01*
Y45197760D01*
X47773780D01*
G37*
X39226660Y45331760D02*
G36*
X39226660Y45331760D02*
G75*
G03*
X39229620Y45197760I6546550J77580D01*
G01*
X43763580D01*
Y45331760D01*
X39776810D01*
Y45294380D01*
X39652050D01*
Y45331760D01*
X39226660D01*
G37*
X47773780D02*
G36*
X47773780Y45331760D02*
Y45197760D01*
X47954050D01*
Y45235140D01*
X48078810D01*
Y45197760D01*
X48221350D01*
Y45271140D01*
X48358510D01*
Y45197760D01*
X51344550D01*
Y45329140D01*
X51544310D01*
Y45197760D01*
X52310130D01*
G75*
G03*
X52313090Y45331760I-6543590J211580D01*
G01*
X50856310D01*
Y45216880D01*
X50711550D01*
Y45331760D01*
X47773780D01*
G37*
X39226240Y45387760D02*
G36*
X39226240Y45387760D02*
G75*
G03*
X39226660Y45331760I6548260J21110D01*
G01*
X39652050D01*
Y45369140D01*
X39776810D01*
Y45331760D01*
X43763580D01*
Y45387760D01*
X39226240D01*
G37*
X47773780D02*
G36*
X47773780Y45387760D02*
Y45331760D01*
X50711550D01*
Y45387760D01*
X48359510D01*
Y45366380D01*
X48222350D01*
Y45387760D01*
X48078810D01*
Y45350380D01*
X47954050D01*
Y45387760D01*
X47773780D01*
G37*
X50856310D02*
G36*
X50856310Y45387760D02*
Y45331760D01*
X52313090D01*
G75*
G03*
X52313510Y45387760I-6547840J77110D01*
G01*
X50856310D01*
G37*
X39226200Y45409390D02*
G36*
X39226200Y45409390D02*
Y45409340D01*
G75*
G03*
X39226240Y45387760I6576840J1400D01*
G01*
X43763580D01*
Y45516760D01*
G75*
G02*
X43763590Y45521760I1813160J-1130D01*
G01*
X39776810D01*
Y45484380D01*
X39652050D01*
Y45521760D01*
X39227160D01*
G75*
G03*
X39226200Y45409440I6546120J-112110D01*
G01*
Y45409390D01*
G37*
X47773780Y45516760D02*
G36*
X47773780Y45516760D02*
Y45387760D01*
X47954050D01*
Y45425140D01*
X48078810D01*
Y45387760D01*
X48222350D01*
Y45471140D01*
X48359510D01*
Y45387760D01*
X50711550D01*
Y45516640D01*
X50856310D01*
Y45387760D01*
X52313510D01*
G75*
G03*
X52313550Y45409360I-6548060J22930D01*
G01*
G75*
G03*
X52312580Y45521760I-6545090J-280D01*
G01*
X47773770D01*
G75*
G02*
X47773780Y45516760I-1813150J-6130D01*
G01*
G37*
X39236210Y45771260D02*
G36*
X39236210Y45771260D02*
G75*
G03*
X39227160Y45521760I6534160J-361920D01*
G01*
X39652050D01*
Y45559140D01*
X39776810D01*
Y45521760D01*
X43763590D01*
G75*
G02*
X43781600Y45771260I1806540J-5000D01*
G01*
X39966810D01*
Y45705680D01*
X39862050D01*
Y45771260D01*
X39766810D01*
Y45706680D01*
X39662050D01*
Y45771260D01*
X39236210D01*
G37*
X47755760D02*
G36*
X47755760Y45771260D02*
G75*
G02*
X47773770Y45521760I-1788530J-254500D01*
G01*
X52312580D01*
G75*
G03*
X52303530Y45771260I-6543210J-112420D01*
G01*
X50856310D01*
Y45716880D01*
X50711550D01*
Y45771260D01*
X49795310D01*
Y45655380D01*
X49647550D01*
Y45771260D01*
X48459930D01*
Y45704220D01*
X48332930D01*
Y45771260D01*
X48249930D01*
Y45705220D01*
X48122930D01*
Y45771260D01*
X47755760D01*
G37*
X39238550Y45811260D02*
G36*
X39238550Y45811260D02*
G75*
G03*
X39236210Y45771260I6546900J-403060D01*
G01*
X39662050D01*
Y45811260D01*
X39238550D01*
G37*
X39766810D02*
G36*
X39766810Y45811260D02*
Y45771260D01*
X39862050D01*
Y45811260D01*
X39766810D01*
G37*
X39966810D02*
G36*
X39966810Y45811260D02*
Y45771260D01*
X43781600D01*
G75*
G02*
X43787750Y45811260I1789310J-254630D01*
G01*
X39966810D01*
G37*
X47749610D02*
G36*
X47749610Y45811260D02*
G75*
G02*
X47755760Y45771260I-1783160J-294630D01*
G01*
X48122930D01*
Y45811260D01*
X47749610D01*
G37*
X48249930D02*
G36*
X48249930Y45811260D02*
Y45771260D01*
X48332930D01*
Y45811260D01*
X48249930D01*
G37*
X48459930D02*
G36*
X48459930Y45811260D02*
Y45771260D01*
X49647550D01*
Y45793140D01*
X49795310D01*
Y45771260D01*
X50711550D01*
Y45811260D01*
X48732310D01*
Y45771380D01*
X48572550D01*
Y45811260D01*
X48459930D01*
G37*
X50856310D02*
G36*
X50856310Y45811260D02*
Y45771260D01*
X52303530D01*
G75*
G03*
X52301200Y45811260I-6549230J-361430D01*
G01*
X50856310D01*
G37*
X39254030Y46012260D02*
G36*
X39254030Y46012260D02*
G75*
G03*
X39238550Y45811260I6516650J-602980D01*
G01*
X39662050D01*
Y45843840D01*
X39766810D01*
Y45811260D01*
X39862050D01*
Y45842840D01*
X39966810D01*
Y45811260D01*
X43787750D01*
G75*
G02*
X43832870Y46012260I1782380J-294540D01*
G01*
X39254030D01*
G37*
X47704490D02*
G36*
X47704490Y46012260D02*
G75*
G02*
X47749610Y45811260I-1737260J-495540D01*
G01*
X48122930D01*
Y45837300D01*
X48249930D01*
Y45811260D01*
X48332930D01*
Y45836300D01*
X48459930D01*
Y45811260D01*
X48572550D01*
Y45851140D01*
X48732310D01*
Y45811260D01*
X50711550D01*
Y46012260D01*
X49362310D01*
Y45888880D01*
X49202550D01*
Y46012260D01*
X48732310D01*
Y46001380D01*
X48572550D01*
Y46012260D01*
X48459930D01*
Y45945220D01*
X48332930D01*
Y46012260D01*
X48249930D01*
Y45946220D01*
X48122930D01*
Y46012260D01*
X47704490D01*
G37*
X50856310D02*
G36*
X50856310Y46012260D02*
Y45811260D01*
X52301200D01*
G75*
G03*
X52285720Y46012260I-6532130J-401980D01*
G01*
X50856310D01*
G37*
X39263190Y46104260D02*
G36*
X39263190Y46104260D02*
G75*
G03*
X39254030Y46012260I6511020J-694730D01*
G01*
X43832870D01*
G75*
G02*
X43861790Y46104260I1737230J-495550D01*
G01*
X39263190D01*
G37*
X47675570D02*
G36*
X47675570Y46104260D02*
G75*
G02*
X47704490Y46012260I-1708310J-587550D01*
G01*
X48122930D01*
Y46078300D01*
X48249930D01*
Y46012260D01*
X48332930D01*
Y46077300D01*
X48459930D01*
Y46012260D01*
X48572550D01*
Y46081140D01*
X48732310D01*
Y46012260D01*
X49202550D01*
Y46104260D01*
X47675570D01*
G37*
X49362310D02*
G36*
X49362310Y46104260D02*
Y46012260D01*
X50711550D01*
Y46016640D01*
X50856310D01*
Y46012260D01*
X52285720D01*
G75*
G03*
X52276550Y46104260I-6520190J-603440D01*
G01*
X49795310D01*
Y46035380D01*
X49647550D01*
Y46104260D01*
X49362310D01*
G37*
X39279030Y46239260D02*
G36*
X39279030Y46239260D02*
G75*
G03*
X39263190Y46104260I6491790J-830130D01*
G01*
X43861790D01*
G75*
G02*
X43914370Y46239260I1708360J-587630D01*
G01*
X39279030D01*
G37*
X47622990D02*
G36*
X47622990Y46239260D02*
G75*
G02*
X47675570Y46104260I-1655780J-722630D01*
G01*
X49202550D01*
Y46193640D01*
X49362310D01*
Y46104260D01*
X49647550D01*
Y46173140D01*
X49795310D01*
Y46104260D01*
X52276550D01*
G75*
G03*
X52260710Y46239260I-6507630J-695130D01*
G01*
X48732310D01*
Y46231380D01*
X48572550D01*
Y46239260D01*
X48457430D01*
Y46174000D01*
X48330430D01*
Y46239260D01*
X48249430D01*
Y46173220D01*
X48122430D01*
Y46239260D01*
X47622990D01*
G37*
X39303030Y46409260D02*
G36*
X39303030Y46409260D02*
G75*
G03*
X39279030Y46239260I6468190J-999850D01*
G01*
X43914370D01*
G75*
G02*
X43999470Y46409260I1655830J-722590D01*
G01*
X39303030D01*
G37*
X47537890D02*
G36*
X47537890Y46409260D02*
G75*
G02*
X47622990Y46239260I-1570730J-892590D01*
G01*
X48122430D01*
Y46305300D01*
X48249430D01*
Y46239260D01*
X48330430D01*
Y46306080D01*
X48457430D01*
Y46239260D01*
X48572550D01*
Y46311140D01*
X48732310D01*
Y46239260D01*
X52260710D01*
G75*
G03*
X52236700Y46409260I-6492190J-830230D01*
G01*
X51019660D01*
Y46386080D01*
X50895200D01*
Y46409260D01*
X49777160D01*
Y46366080D01*
X49652700D01*
Y46409260D01*
X47537890D01*
G37*
X39314410Y46480260D02*
G36*
X39314410Y46480260D02*
G75*
G03*
X39303030Y46409260I6461650J-1072100D01*
G01*
X43999470D01*
G75*
G02*
X44042000Y46480260I1570710J-892640D01*
G01*
X41901510D01*
X41871770Y46450520D01*
X41842030Y46480260D01*
X39314410D01*
G37*
X47495360D02*
G36*
X47495360Y46480260D02*
G75*
G02*
X47537890Y46409260I-1528180J-963640D01*
G01*
X49652700D01*
Y46452440D01*
X49777160D01*
Y46409260D01*
X50895200D01*
Y46472440D01*
X51019660D01*
Y46409260D01*
X52236700D01*
G75*
G03*
X52225320Y46480260I-6473030J-1001100D01*
G01*
X48457430D01*
Y46415000D01*
X48330430D01*
Y46480260D01*
X48249430D01*
Y46414220D01*
X48122430D01*
Y46480260D01*
X47495360D01*
G37*
X39332340Y46583260D02*
G36*
X39332340Y46583260D02*
G75*
G03*
X39314410Y46480260I6440590J-1174220D01*
G01*
X41842030D01*
X41797700Y46524590D01*
X41856370Y46583260D01*
X39332340D01*
G37*
X41968760Y46547510D02*
G36*
X41968760Y46547510D02*
X41901510Y46480260D01*
X44042000D01*
G75*
G02*
X44112030Y46583260I1528090J-963640D01*
G01*
X41933010D01*
X41968760Y46547510D01*
G37*
X47425330Y46583260D02*
G36*
X47425330Y46583260D02*
G75*
G02*
X47495360Y46480260I-1458060J-1066640D01*
G01*
X48122430D01*
Y46546300D01*
X48249430D01*
Y46480260D01*
X48330430D01*
Y46547080D01*
X48457430D01*
Y46480260D01*
X52225320D01*
G75*
G03*
X52207390Y46583260I-6458520J-1071220D01*
G01*
X51019660D01*
Y46582080D01*
X50895200D01*
Y46583260D01*
X50429310D01*
Y46489380D01*
X50314550D01*
Y46583260D01*
X49777160D01*
Y46562080D01*
X49652700D01*
Y46583260D01*
X47988310D01*
Y46545880D01*
X47863550D01*
Y46583260D01*
X47425330D01*
G37*
X39353880Y46695760D02*
G36*
X39353880Y46695760D02*
G75*
G03*
X39332340Y46583260I6421980J-1287910D01*
G01*
X41856370D01*
X41894690Y46621580D01*
X41933010Y46583260D01*
X44112030D01*
G75*
G02*
X44201410Y46695760I1458110J-1066700D01*
G01*
X42110840D01*
X42021890Y46606810D01*
X41947820Y46680880D01*
X41962700Y46695760D01*
X41821920D01*
X41828040Y46689640D01*
X41731050Y46592650D01*
X41656980Y46666720D01*
X41686020Y46695760D01*
X39353880D01*
G37*
X47335950D02*
G36*
X47335950Y46695760D02*
G75*
G02*
X47425330Y46583260I-1368730J-1179200D01*
G01*
X47863550D01*
Y46620640D01*
X47988310D01*
Y46583260D01*
X49652700D01*
Y46648440D01*
X49777160D01*
Y46583260D01*
X50314550D01*
Y46654140D01*
X50429310D01*
Y46583260D01*
X50895200D01*
Y46668440D01*
X51019660D01*
Y46583260D01*
X52207390D01*
G75*
G03*
X52185860Y46695760I-6443510J-1174830D01*
G01*
X51685510D01*
Y46643380D01*
X51548350D01*
Y46695760D01*
X47335950D01*
G37*
X39369900Y46773260D02*
G36*
X39369900Y46773260D02*
G75*
G03*
X39353880Y46695760I6408710J-1365150D01*
G01*
X41686020D01*
X41753970Y46763710D01*
X41821920Y46695760D01*
X41962700D01*
X42040200Y46773260D01*
X41905490D01*
X41881170Y46748940D01*
X41856850Y46773260D01*
X39369900D01*
G37*
X42118880Y46703800D02*
G36*
X42118880Y46703800D02*
X42110840Y46695760D01*
X44201410D01*
G75*
G02*
X44272200Y46773260I1368880J-1179280D01*
G01*
X42190840D01*
X42172390Y46754810D01*
X42153940Y46773260D01*
X42049420D01*
X42118880Y46703800D01*
G37*
X47265160Y46773260D02*
G36*
X47265160Y46773260D02*
G75*
G02*
X47335950Y46695760I-1298090J-1256780D01*
G01*
X51548350D01*
Y46748140D01*
X51685510D01*
Y46695760D01*
X52185860D01*
G75*
G03*
X52169830Y46773260I-6424730J-1288480D01*
G01*
X50429310D01*
Y46749380D01*
X50314550D01*
Y46773260D01*
X47988310D01*
Y46735880D01*
X47863550D01*
Y46773260D01*
X47265160D01*
G37*
X39397240Y46895760D02*
G36*
X39397240Y46895760D02*
G75*
G03*
X39369900Y46773260I6372610J-1486560D01*
G01*
X41856850D01*
X41807100Y46823010D01*
X41879850Y46895760D01*
X41620480D01*
X41567930Y46843210D01*
X41546890Y46864250D01*
X41578400Y46895760D01*
X41528550D01*
X41521970Y46889180D01*
X41515390Y46895760D01*
X39397240D01*
G37*
X41978160Y46845930D02*
G36*
X41978160Y46845930D02*
X41905490Y46773260D01*
X42040200D01*
X42044810Y46777870D01*
X42049420Y46773260D01*
X42153940D01*
X42098320Y46828880D01*
X42165200Y46895760D01*
X41928330D01*
X41978160Y46845930D01*
G37*
X42269380Y46851800D02*
G36*
X42269380Y46851800D02*
X42190840Y46773260D01*
X44272200D01*
G75*
G02*
X44403200Y46895760I1297790J-1256550D01*
G01*
X42225420D01*
X42269380Y46851800D01*
G37*
X47134160Y46895760D02*
G36*
X47134160Y46895760D02*
G75*
G02*
X47265160Y46773260I-1166790J-1379050D01*
G01*
X47863550D01*
Y46810640D01*
X47988310D01*
Y46773260D01*
X50314550D01*
Y46895760D01*
X47134160D01*
G37*
X50429310D02*
G36*
X50429310Y46895760D02*
Y46773260D01*
X52169830D01*
G75*
G03*
X52142490Y46895760I-6405760J-1365360D01*
G01*
X51686510D01*
Y46843380D01*
X51549350D01*
Y46895760D01*
X50429310D01*
G37*
X39409710Y46948260D02*
G36*
X39409710Y46948260D02*
G75*
G03*
X39397240Y46895760I6366670J-1539970D01*
G01*
X41515390D01*
X41500930Y46910220D01*
X41538970Y46948260D01*
X41489130D01*
X41476010Y46935140D01*
X41462890Y46948260D01*
X39409710D01*
G37*
X41528550Y46895760D02*
G36*
X41528550Y46895760D02*
X41578400D01*
X41630900Y46948260D01*
X41581050D01*
X41528550Y46895760D01*
G37*
X41672980Y46948260D02*
G36*
X41672980Y46948260D02*
X41620480Y46895760D01*
X41879850D01*
X41904090Y46920000D01*
X41928330Y46895760D01*
X42165200D01*
X42195310Y46925870D01*
X42225420Y46895760D01*
X44403200D01*
G75*
G02*
X44468250Y46948260I1167000J-1379420D01*
G01*
X42082990D01*
X42031670Y46896940D01*
X41980350Y46948260D01*
X41672980D01*
G37*
X47069110D02*
G36*
X47069110Y46948260D02*
G75*
G02*
X47134160Y46895760I-1101950J-1431920D01*
G01*
X50314550D01*
Y46914140D01*
X50429310D01*
Y46895760D01*
X51549350D01*
Y46948140D01*
X51686510D01*
Y46895760D01*
X52142490D01*
G75*
G03*
X52130020Y46948260I-6379140J-1487470D01*
G01*
X47995510D01*
Y46895880D01*
X47858350D01*
Y46948260D01*
X47069110D01*
G37*
X39435160Y47049870D02*
G36*
X39435160Y47049870D02*
G75*
G03*
X39409710Y46948260I6335910J-1640930D01*
G01*
X41462890D01*
X41454970Y46956180D01*
X41548660Y47049870D01*
X41498810D01*
X41430040Y46981100D01*
X41409000Y47002140D01*
X41456730Y47049870D01*
X41406890D01*
X41384080Y47027060D01*
X41363040Y47048100D01*
X41364810Y47049870D01*
X39435160D01*
G37*
X41489130Y46948260D02*
G36*
X41489130Y46948260D02*
X41538970D01*
X41617430Y47026720D01*
X41638470Y47005680D01*
X41581050Y46948260D01*
X41630900D01*
X41663390Y46980750D01*
X41684430Y46959710D01*
X41672980Y46948260D01*
X41980350D01*
X41957600Y46971010D01*
X42036460Y47049870D01*
X41590740D01*
X41489130Y46948260D01*
G37*
X42128660Y46993930D02*
G36*
X42128660Y46993930D02*
X42082990Y46948260D01*
X44468250D01*
G75*
G02*
X44614700Y47049870I1101710J-1431540D01*
G01*
X42072720D01*
X42128660Y46993930D01*
G37*
X46922660Y47049870D02*
G36*
X46922660Y47049870D02*
G75*
G02*
X47069110Y46948260I-955260J-1533150D01*
G01*
X47858350D01*
Y47000640D01*
X47995510D01*
Y46948260D01*
X52130020D01*
G75*
G03*
X52104570Y47049870I-6361360J-1539320D01*
G01*
X46922660D01*
G37*
X39461450Y47148260D02*
G36*
X39461450Y47148260D02*
G75*
G03*
X39435160Y47049870I6313700J-1739740D01*
G01*
X41364810D01*
X41463200Y47148260D01*
X41413360D01*
X41338120Y47073020D01*
X41317080Y47094060D01*
X41371280Y47148260D01*
X41321430D01*
X41292160Y47118990D01*
X41271120Y47140030D01*
X41279350Y47148260D01*
X39461450D01*
G37*
X41406890Y47049870D02*
G36*
X41406890Y47049870D02*
X41456730D01*
X41525500Y47118640D01*
X41546540Y47097600D01*
X41498810Y47049870D01*
X41548660D01*
X41571470Y47072680D01*
X41592510Y47051640D01*
X41590740Y47049870D01*
X42036460D01*
X42054590Y47068000D01*
X42072720Y47049870D01*
X44614700D01*
G75*
G02*
X44794620Y47148260I955240J-1533100D01*
G01*
X41495880D01*
X41500580Y47143560D01*
X41406890Y47049870D01*
G37*
X46742740Y47148260D02*
G36*
X46742740Y47148260D02*
G75*
G02*
X46922660Y47049870I-775320J-1631490D01*
G01*
X52104570D01*
G75*
G03*
X52078270Y47148260I-6339990J-1641990D01*
G01*
X51675930D01*
Y47059720D01*
X51548930D01*
Y47148260D01*
X47996510D01*
Y47095880D01*
X47859350D01*
Y47148260D01*
X46742740D01*
G37*
X39499160Y47279680D02*
G36*
X39499160Y47279680D02*
G75*
G03*
X39461450Y47148260I6271490J-1870680D01*
G01*
X41279350D01*
X41387620Y47256530D01*
X41408660Y47235490D01*
X41321430Y47148260D01*
X41371280D01*
X41433580Y47210560D01*
X41454620Y47189520D01*
X41413360Y47148260D01*
X41463200D01*
X41479540Y47164600D01*
X41495880Y47148260D01*
X44794620D01*
G75*
G02*
X45176220Y47279680I775330J-1631570D01*
G01*
X41360930D01*
X41246200Y47164950D01*
X41225160Y47185990D01*
X41318850Y47279680D01*
X41269000D01*
X41200230Y47210910D01*
X41179190Y47231950D01*
X41226920Y47279680D01*
X41177080D01*
X41154270Y47256870D01*
X41133230Y47277910D01*
X41135000Y47279680D01*
X40816700D01*
X40752530Y47215510D01*
X40688360Y47279680D01*
X39499160D01*
G37*
X46361140D02*
G36*
X46361140Y47279680D02*
G75*
G02*
X46742740Y47148260I-393730J-1762990D01*
G01*
X47859350D01*
Y47200640D01*
X47996510D01*
Y47148260D01*
X51548930D01*
Y47191800D01*
X51675930D01*
Y47148260D01*
X52078270D01*
G75*
G03*
X52040560Y47279680I-6309200J-1739260D01*
G01*
X46361140D01*
G37*
X39525790Y47366760D02*
G36*
X39525790Y47366760D02*
G75*
G03*
X39499160Y47279680I6246710J-1957920D01*
G01*
X40688360D01*
X40636020Y47332020D01*
X40670760Y47366760D01*
X39525790D01*
G37*
X40833680Y47296660D02*
G36*
X40833680Y47296660D02*
X40816700Y47279680D01*
X41135000D01*
X41222080Y47366760D01*
X41172240D01*
X41108310Y47302830D01*
X41087270Y47323870D01*
X41130160Y47366760D01*
X41080310D01*
X41062350Y47348800D01*
X41044390Y47366760D01*
X40763580D01*
X40833680Y47296660D01*
G37*
X41177080Y47279680D02*
G36*
X41177080Y47279680D02*
X41226920D01*
X41295690Y47348450D01*
X41316730Y47327410D01*
X41269000Y47279680D01*
X41318850D01*
X41341660Y47302490D01*
X41362700Y47281450D01*
X41360930Y47279680D01*
X45176220D01*
G75*
G02*
X45569930Y47323110I393720J-1762950D01*
G01*
X45967430D01*
G75*
G02*
X46361140Y47279680I-10J-1806380D01*
G01*
X52040560D01*
G75*
G03*
X52013930Y47366760I-6273340J-1870840D01*
G01*
X51675930D01*
Y47300720D01*
X51548930D01*
Y47366760D01*
X42091480D01*
X42069980Y47345260D01*
X42048940Y47366300D01*
X42049400Y47366760D01*
X41264160D01*
X41177080Y47279680D01*
G37*
X39568520Y47498180D02*
G36*
X39568520Y47498180D02*
G75*
G03*
X39525790Y47366760I6201390J-2088980D01*
G01*
X40670760D01*
X40717170Y47413170D01*
X40763580Y47366760D01*
X41044390D01*
X41041310Y47369840D01*
X41157810Y47486340D01*
X41178850Y47465300D01*
X41080310Y47366760D01*
X41130160D01*
X41203770Y47440370D01*
X41224810Y47419330D01*
X41172240Y47366760D01*
X41222080D01*
X41249730Y47394410D01*
X41270770Y47373370D01*
X41264160Y47366760D01*
X42049400D01*
X42165440Y47482800D01*
X42186480Y47461760D01*
X42091480Y47366760D01*
X51548930D01*
Y47432800D01*
X51675930D01*
Y47366760D01*
X52013930D01*
G75*
G03*
X51971200Y47498180I-6244120J-1957560D01*
G01*
X42130970D01*
X42024010Y47391220D01*
X42002970Y47412260D01*
X42088890Y47498180D01*
X42039050D01*
X41978050Y47437180D01*
X41957010Y47458220D01*
X41996970Y47498180D01*
X41947120D01*
X41932090Y47483150D01*
X41917060Y47498180D01*
X41119810D01*
X41016390Y47394760D01*
X40995350Y47415800D01*
X41077730Y47498180D01*
X41027880D01*
X40970420Y47440720D01*
X40949380Y47461760D01*
X40985800Y47498180D01*
X40632160D01*
X40649840Y47480500D01*
X40568690Y47399350D01*
X40469860Y47498180D01*
X39568520D01*
G37*
X39619500Y47643840D02*
G36*
X39619500Y47643840D02*
G75*
G03*
X39568520Y47498180I6151650J-2234790D01*
G01*
X40469860D01*
X40452180Y47515860D01*
X40533330Y47597010D01*
X40632160Y47498180D01*
X40985800D01*
X41065880Y47578260D01*
X41086920Y47557220D01*
X41027880Y47498180D01*
X41077730D01*
X41111850Y47532300D01*
X41132890Y47511260D01*
X41119810Y47498180D01*
X41917060D01*
X41911050Y47504190D01*
X42027550Y47620690D01*
X42048590Y47599650D01*
X41947120Y47498180D01*
X41996970D01*
X42073510Y47574720D01*
X42094550Y47553680D01*
X42039050Y47498180D01*
X42088890D01*
X42119470Y47528760D01*
X42140510Y47507720D01*
X42130970Y47498180D01*
X51971200D01*
G75*
G03*
X51920220Y47643840I-6202630J-2089130D01*
G01*
X42000860D01*
X41886130Y47529110D01*
X41865090Y47550150D01*
X41958780Y47643840D01*
X41908940D01*
X41840170Y47575070D01*
X41819130Y47596110D01*
X41866860Y47643840D01*
X41817010D01*
X41794200Y47621030D01*
X41773160Y47642070D01*
X41774930Y47643840D01*
X39619500D01*
G37*
X39661990Y47757490D02*
G36*
X39661990Y47757490D02*
G75*
G03*
X39619500Y47643840I6110090J-2349130D01*
G01*
X41774930D01*
X41888580Y47757490D01*
X41838740D01*
X41748240Y47666990D01*
X41727200Y47688030D01*
X41796660Y47757490D01*
X41746810D01*
X41702280Y47712960D01*
X41681240Y47734000D01*
X41704730Y47757490D01*
X40808580D01*
X40829790Y47736280D01*
X40755710Y47662200D01*
X40660420Y47757490D01*
X39661990D01*
G37*
X41817010Y47643840D02*
G36*
X41817010Y47643840D02*
X41866860D01*
X41935630Y47712610D01*
X41956670Y47691570D01*
X41908940Y47643840D01*
X41958780D01*
X41981590Y47666650D01*
X42002630Y47645610D01*
X42000860Y47643840D01*
X51920220D01*
G75*
G03*
X51877730Y47757490I-6152580J-2235480D01*
G01*
X42348180D01*
X42315140Y47724450D01*
X42282100Y47757490D01*
X41890740D01*
X41910700Y47737530D01*
X41817010Y47643840D01*
G37*
X39707920Y47873650D02*
G36*
X39707920Y47873650D02*
G75*
G03*
X39661990Y47757490I6066030J-2465690D01*
G01*
X40660420D01*
X40639210Y47778700D01*
X40713290Y47852780D01*
X40808580Y47757490D01*
X41704730D01*
X41797740Y47850500D01*
X41818780Y47829460D01*
X41746810Y47757490D01*
X41796660D01*
X41843700Y47804530D01*
X41864740Y47783490D01*
X41838740Y47757490D01*
X41888580D01*
X41889660Y47758570D01*
X41890740Y47757490D01*
X42282100D01*
X42221740Y47817850D01*
X42277540Y47873650D01*
X41771050D01*
X41656320Y47758920D01*
X41635280Y47779960D01*
X41728970Y47873650D01*
X41679130D01*
X41610360Y47804880D01*
X41589320Y47825920D01*
X41637050Y47873650D01*
X41587200D01*
X41564390Y47850840D01*
X41543350Y47871880D01*
X41545120Y47873650D01*
X40967160D01*
X40925410Y47831900D01*
X40883660Y47873650D01*
X39707920D01*
G37*
X42404940Y47814250D02*
G36*
X42404940Y47814250D02*
X42348180Y47757490D01*
X51877730D01*
G75*
G03*
X51831800Y47873650I-6111960J-2349530D01*
G01*
X42345540D01*
X42404940Y47814250D01*
G37*
X39751290Y47977760D02*
G36*
X39751290Y47977760D02*
G75*
G03*
X39707920Y47873650I6021800J-2569640D01*
G01*
X40883660D01*
X40808910Y47948400D01*
X40838270Y47977760D01*
X40505590D01*
X40472870Y47945040D01*
X40440150Y47977760D01*
X39751290D01*
G37*
X40999490Y47905980D02*
G36*
X40999490Y47905980D02*
X40967160Y47873650D01*
X41545120D01*
X41649230Y47977760D01*
X41599390D01*
X41518430Y47896800D01*
X41497390Y47917840D01*
X41557310Y47977760D01*
X41507460D01*
X41472470Y47942770D01*
X41451430Y47963810D01*
X41465380Y47977760D01*
X41054510D01*
X41048270Y47971520D01*
X41042030Y47977760D01*
X40927710D01*
X40999490Y47905980D01*
G37*
X41587200Y47873650D02*
G36*
X41587200Y47873650D02*
X41637050D01*
X41705820Y47942420D01*
X41726860Y47921380D01*
X41679130Y47873650D01*
X41728970D01*
X41751780Y47896460D01*
X41772820Y47875420D01*
X41771050Y47873650D01*
X42277540D01*
X42311540Y47907650D01*
X42345540Y47873650D01*
X51831800D01*
G75*
G03*
X51788420Y47977760I-6065170J-2466110D01*
G01*
X51335310D01*
Y47908180D01*
X51230550D01*
Y47977760D01*
X51135310D01*
Y47909180D01*
X51030550D01*
Y47977760D01*
X42511840D01*
X42452890Y47918810D01*
X42393940Y47977760D01*
X42227620D01*
X42144730Y47894870D01*
X42061840Y47977760D01*
X41670470D01*
X41680890Y47967340D01*
X41587200Y47873650D01*
G37*
X39861220Y48221460D02*
G36*
X39861220Y48221460D02*
G75*
G03*
X39751290Y47977760I5908740J-2812000D01*
G01*
X40440150D01*
X40356370Y48061540D01*
X40430450Y48135620D01*
X40546950Y48019120D01*
X40505590Y47977760D01*
X40838270D01*
X40882990Y48022480D01*
X40927710Y47977760D01*
X41042030D01*
X40974200Y48045590D01*
X41071190Y48142580D01*
X41145260Y48068510D01*
X41054510Y47977760D01*
X41465380D01*
X41567930Y48080310D01*
X41588970Y48059270D01*
X41507460Y47977760D01*
X41557310D01*
X41613890Y48034340D01*
X41634930Y48013300D01*
X41599390Y47977760D01*
X41649230D01*
X41659850Y47988380D01*
X41670470Y47977760D01*
X42061840D01*
X42051330Y47988270D01*
X42141130Y48078070D01*
X42234530Y47984670D01*
X42227620Y47977760D01*
X42393940D01*
X42378820Y47992880D01*
X42475810Y48089870D01*
X42549880Y48015800D01*
X42511840Y47977760D01*
X51030550D01*
Y48046340D01*
X51135310D01*
Y47977760D01*
X51230550D01*
Y48045340D01*
X51335310D01*
Y47977760D01*
X51788420D01*
G75*
G03*
X51678490Y48221460I-6018670J-2568300D01*
G01*
X42661720D01*
X42709880Y48173300D01*
X42612890Y48076310D01*
X42538820Y48150380D01*
X42609900Y48221460D01*
X42475190D01*
X42472170Y48218440D01*
X42469150Y48221460D01*
X42345630D01*
X42409160Y48157930D01*
X42312170Y48060940D01*
X42238100Y48135010D01*
X42324550Y48221460D01*
X40993720D01*
X41004540Y48210640D01*
X40907550Y48113650D01*
X40833480Y48187720D01*
X40867220Y48221460D01*
X40684010D01*
X40716650Y48188820D01*
X40642570Y48114740D01*
X40535850Y48221460D01*
X40372290D01*
X40383750Y48210000D01*
X40309680Y48135930D01*
X40224150Y48221460D01*
X39861220D01*
G37*
X39930280Y48362180D02*
G36*
X39930280Y48362180D02*
G75*
G03*
X39861220Y48221460I5841770J-2954220D01*
G01*
X40224150D01*
X40212690Y48232920D01*
X40286760Y48306990D01*
X40372290Y48221460D01*
X40535850D01*
X40526070Y48231240D01*
X40600150Y48305320D01*
X40684010Y48221460D01*
X40867220D01*
X40930470Y48284710D01*
X40993720Y48221460D01*
X42324550D01*
X42335090Y48232000D01*
X42345630Y48221460D01*
X42469150D01*
X42398100Y48292510D01*
X42467770Y48362180D01*
X40514420D01*
X40525880Y48350720D01*
X40451810Y48276650D01*
X40366280Y48362180D01*
X39930280D01*
G37*
X42569160Y48315430D02*
G36*
X42569160Y48315430D02*
X42475190Y48221460D01*
X42609900D01*
X42635810Y48247370D01*
X42661720Y48221460D01*
X51678490D01*
G75*
G03*
X51609430Y48362180I-5910830J-2813500D01*
G01*
X42835500D01*
X42870880Y48326800D01*
X42773890Y48229810D01*
X42699820Y48303880D01*
X42758120Y48362180D01*
X42522410D01*
X42569160Y48315430D01*
G37*
X40004360Y48504340D02*
G36*
X40004360Y48504340D02*
G75*
G03*
X39930280Y48362180I5768210J-3096210D01*
G01*
X40366280D01*
X40354820Y48373640D01*
X40428890Y48447710D01*
X40514420Y48362180D01*
X42467770D01*
X42495090Y48389500D01*
X42522410Y48362180D01*
X42758120D01*
X42796810Y48400870D01*
X42835500Y48362180D01*
X51609430D01*
G75*
G03*
X51535350Y48504340I-5842290J-2954050D01*
G01*
X43008340D01*
X43028380Y48484300D01*
X42931390Y48387310D01*
X42857320Y48461380D01*
X42900280Y48504340D01*
X42694750D01*
X42730160Y48468930D01*
X42633170Y48371940D01*
X42559100Y48446010D01*
X42617430Y48504340D01*
X40857920D01*
X40772390Y48418810D01*
X40698320Y48492880D01*
X40709780Y48504340D01*
X40004360D01*
G37*
X40082940Y48646470D02*
G36*
X40082940Y48646470D02*
G75*
G03*
X40004360Y48504340I5687170J-3237080D01*
G01*
X40709780D01*
X40795310Y48589870D01*
X40869380Y48515800D01*
X40857920Y48504340D01*
X42617430D01*
X42656090Y48543000D01*
X42694750Y48504340D01*
X42900280D01*
X42954310Y48558370D01*
X43008340Y48504340D01*
X51535350D01*
G75*
G03*
X51456770Y48646470I-5765750J-3094950D01*
G01*
X45345970D01*
Y48537660D01*
X45213890D01*
Y48646470D01*
X45104970D01*
Y48537660D01*
X44972890D01*
Y48646470D01*
X43167220D01*
X43213940Y48599750D01*
X43124140Y48509950D01*
X43030740Y48603350D01*
X43073860Y48646470D01*
X42867620D01*
X42887660Y48626430D01*
X42790670Y48529440D01*
X42716600Y48603510D01*
X42759560Y48646470D01*
X40997550D01*
X40923890Y48572810D01*
X40850230Y48646470D01*
X40717200D01*
X40631670Y48560940D01*
X40557600Y48635010D01*
X40569060Y48646470D01*
X40082940D01*
G37*
X40173410Y48800470D02*
G36*
X40173410Y48800470D02*
G75*
G03*
X40082940Y48646470I5599680J-3393200D01*
G01*
X40569060D01*
X40654590Y48732000D01*
X40728660Y48657930D01*
X40717200Y48646470D01*
X40850230D01*
X40849820Y48646880D01*
X40946810Y48743870D01*
X41020880Y48669800D01*
X40997550Y48646470D01*
X42759560D01*
X42813590Y48700500D01*
X42867620Y48646470D01*
X43073860D01*
X43120540Y48693150D01*
X43167220Y48646470D01*
X44972890D01*
Y48664660D01*
X45104970D01*
Y48646470D01*
X45213890D01*
Y48664660D01*
X45345970D01*
Y48646470D01*
X51456770D01*
G75*
G03*
X51366300Y48800470I-5690150J-3239200D01*
G01*
X47389310D01*
Y48799180D01*
X47284550D01*
Y48800470D01*
X47189310D01*
Y48800180D01*
X47084550D01*
Y48800470D01*
X45348470D01*
Y48742660D01*
X45216390D01*
Y48800470D01*
X45107470D01*
Y48742660D01*
X44975390D01*
Y48800470D01*
X43334810D01*
X43274760Y48740420D01*
X43214710Y48800470D01*
X43013230D01*
X43043530Y48770170D01*
X42953730Y48680370D01*
X42860330Y48773770D01*
X42887030Y48800470D01*
X40868700D01*
X40783170Y48714940D01*
X40709100Y48789010D01*
X40720560Y48800470D01*
X40173410D01*
G37*
X40231130Y48893960D02*
G36*
X40231130Y48893960D02*
G75*
G03*
X40173410Y48800470I5539180J-3484410D01*
G01*
X40720560D01*
X40806090Y48886000D01*
X40880160Y48811930D01*
X40868700Y48800470D01*
X42887030D01*
X42950130Y48863570D01*
X43013230Y48800470D01*
X43214710D01*
X43213690Y48801490D01*
X43301700Y48889500D01*
X43362770Y48828430D01*
X43334810Y48800470D01*
X44975390D01*
Y48869660D01*
X45107470D01*
Y48800470D01*
X45216390D01*
Y48869660D01*
X45348470D01*
Y48800470D01*
X47084550D01*
Y48893960D01*
X46245810D01*
Y48827830D01*
X46231050D01*
Y48893960D01*
X46195810D01*
Y48827830D01*
X46181050D01*
Y48893960D01*
X46145810D01*
Y48827830D01*
X46131050D01*
Y48893960D01*
X46095810D01*
Y48827830D01*
X46081050D01*
Y48893960D01*
X46045810D01*
Y48827830D01*
X46031050D01*
Y48893960D01*
X45995810D01*
Y48827830D01*
X45981050D01*
Y48893960D01*
X45945810D01*
Y48827830D01*
X45931050D01*
Y48893960D01*
X45895810D01*
Y48827830D01*
X45881050D01*
Y48893960D01*
X45845810D01*
Y48827830D01*
X45831050D01*
Y48893960D01*
X45795810D01*
Y48827830D01*
X45781050D01*
Y48893960D01*
X45745810D01*
Y48827830D01*
X45731050D01*
Y48893960D01*
X45695810D01*
Y48827830D01*
X45681050D01*
Y48893960D01*
X45645810D01*
Y48827830D01*
X45631050D01*
Y48893960D01*
X45595810D01*
Y48827830D01*
X45581050D01*
Y48893960D01*
X45545810D01*
Y48827830D01*
X45531050D01*
Y48893960D01*
X45495810D01*
Y48827830D01*
X45481050D01*
Y48893960D01*
X44446810D01*
Y48838180D01*
X44342050D01*
Y48893960D01*
X44246810D01*
Y48839180D01*
X44142050D01*
Y48893960D01*
X43151100D01*
X43136160Y48879020D01*
X43121220Y48893960D01*
X40231130D01*
G37*
X47189310D02*
G36*
X47189310Y48893960D02*
Y48800470D01*
X47284550D01*
Y48893960D01*
X47189310D01*
G37*
X47389310D02*
G36*
X47389310Y48893960D02*
Y48800470D01*
X51366300D01*
G75*
G03*
X51308570Y48893960I-5596910J-3391520D01*
G01*
X47389310D01*
G37*
X40361300Y49092760D02*
G36*
X40361300Y49092760D02*
G75*
G03*
X40231130Y48893960I5410470J-3684680D01*
G01*
X43121220D01*
X43075090Y48940090D01*
X43163100Y49028100D01*
X43224170Y48967030D01*
X43151100Y48893960D01*
X44142050D01*
Y48976340D01*
X44246810D01*
Y48893960D01*
X44342050D01*
Y48975340D01*
X44446810D01*
Y48893960D01*
X45481050D01*
Y48960090D01*
X45495810D01*
Y48893960D01*
X45531050D01*
Y48960090D01*
X45545810D01*
Y48893960D01*
X45581050D01*
Y48960090D01*
X45595810D01*
Y48893960D01*
X45631050D01*
Y48960090D01*
X45645810D01*
Y48893960D01*
X45681050D01*
Y48960090D01*
X45695810D01*
Y48893960D01*
X45731050D01*
Y48960090D01*
X45745810D01*
Y48893960D01*
X45781050D01*
Y48960090D01*
X45795810D01*
Y48893960D01*
X45831050D01*
Y48960090D01*
X45845810D01*
Y48893960D01*
X45881050D01*
Y48960090D01*
X45895810D01*
Y48893960D01*
X45931050D01*
Y48960090D01*
X45945810D01*
Y48893960D01*
X45981050D01*
Y48960090D01*
X45995810D01*
Y48893960D01*
X46031050D01*
Y48960090D01*
X46045810D01*
Y48893960D01*
X46081050D01*
Y48960090D01*
X46095810D01*
Y48893960D01*
X46131050D01*
Y48960090D01*
X46145810D01*
Y48893960D01*
X46181050D01*
Y48960090D01*
X46195810D01*
Y48893960D01*
X46231050D01*
Y48960090D01*
X46245810D01*
Y48893960D01*
X47084550D01*
Y48937340D01*
X47189310D01*
Y48893960D01*
X47284550D01*
Y48936340D01*
X47389310D01*
Y48893960D01*
X51308570D01*
G75*
G03*
X51178400Y49092760I-5540640J-3485880D01*
G01*
X47409310D01*
Y49039180D01*
X47304550D01*
Y49092760D01*
X47209310D01*
Y49040180D01*
X47104550D01*
Y49092760D01*
X46503360D01*
Y49085380D01*
X46371100D01*
Y49092760D01*
X45355760D01*
Y49085380D01*
X45223500D01*
Y49092760D01*
X44701470D01*
Y49068760D01*
X44569390D01*
Y49092760D01*
X44460470D01*
Y49068760D01*
X44328390D01*
Y49092760D01*
X40361300D01*
G37*
X40395690Y49142760D02*
G36*
X40395690Y49142760D02*
G75*
G03*
X40361300Y49092760I5377850J-3735710D01*
G01*
X44328390D01*
Y49142760D01*
X40395690D01*
G37*
X44460470D02*
G36*
X44460470Y49142760D02*
Y49092760D01*
X44569390D01*
Y49142760D01*
X44460470D01*
G37*
X44701470D02*
G36*
X44701470Y49142760D02*
Y49092760D01*
X45223500D01*
Y49100140D01*
X45355760D01*
Y49092760D01*
X46371100D01*
Y49100140D01*
X46503360D01*
Y49092760D01*
X47104550D01*
Y49142760D01*
X46503360D01*
Y49135380D01*
X46371100D01*
Y49142760D01*
X45355760D01*
Y49135380D01*
X45223500D01*
Y49142760D01*
X44701470D01*
G37*
X47209310D02*
G36*
X47209310Y49142760D02*
Y49092760D01*
X47304550D01*
Y49142760D01*
X47209310D01*
G37*
X47409310D02*
G36*
X47409310Y49142760D02*
Y49092760D01*
X51178400D01*
G75*
G03*
X51144010Y49142760I-5412240J-3685710D01*
G01*
X47409310D01*
G37*
X40430770Y49192760D02*
G36*
X40430770Y49192760D02*
G75*
G03*
X40395690Y49142760I5347190J-3788900D01*
G01*
X44328390D01*
Y49192760D01*
X40430770D01*
G37*
X44460470D02*
G36*
X44460470Y49192760D02*
Y49142760D01*
X44569390D01*
Y49192760D01*
X44460470D01*
G37*
X44701470D02*
G36*
X44701470Y49192760D02*
Y49142760D01*
X45223500D01*
Y49150140D01*
X45355760D01*
Y49142760D01*
X46371100D01*
Y49150140D01*
X46503360D01*
Y49142760D01*
X47104550D01*
Y49177340D01*
X47209310D01*
Y49142760D01*
X47304550D01*
Y49176340D01*
X47409310D01*
Y49142760D01*
X51144010D01*
G75*
G03*
X51108930Y49192760I-5382270J-3738900D01*
G01*
X46503360D01*
Y49185380D01*
X46371100D01*
Y49192760D01*
X45355760D01*
Y49185380D01*
X45223500D01*
Y49192760D01*
X44701470D01*
G37*
X40466560Y49242760D02*
G36*
X40466560Y49242760D02*
G75*
G03*
X40430770Y49192760I5306950J-3836530D01*
G01*
X44328390D01*
Y49195760D01*
X44460470D01*
Y49192760D01*
X44569390D01*
Y49195760D01*
X44701470D01*
Y49192760D01*
X45223500D01*
Y49200140D01*
X45355760D01*
Y49192760D01*
X46371100D01*
Y49200140D01*
X46503360D01*
Y49192760D01*
X51108930D01*
G75*
G03*
X51073140Y49242760I-5342740J-3786530D01*
G01*
X46503360D01*
Y49235380D01*
X46371100D01*
Y49242760D01*
X45355760D01*
Y49235380D01*
X45223500D01*
Y49242760D01*
X40466560D01*
G37*
X40503060Y49292760D02*
G36*
X40503060Y49292760D02*
G75*
G03*
X40466560Y49242760I5267300J-3883450D01*
G01*
X45223500D01*
Y49250140D01*
X45355760D01*
Y49242760D01*
X46371100D01*
Y49250140D01*
X46503360D01*
Y49242760D01*
X51073140D01*
G75*
G03*
X51036640Y49292760I-5303800J-3833450D01*
G01*
X47409310D01*
Y49264180D01*
X47304550D01*
Y49292760D01*
X47209310D01*
Y49265180D01*
X47104550D01*
Y49292760D01*
X46503360D01*
Y49285380D01*
X46371100D01*
Y49292760D01*
X45355760D01*
Y49285380D01*
X45223500D01*
Y49292760D01*
X45048310D01*
Y49285380D01*
X44883550D01*
Y49292760D01*
X44648310D01*
Y49285380D01*
X44483550D01*
Y49292760D01*
X40503060D01*
G37*
X40540300Y49342760D02*
G36*
X40540300Y49342760D02*
G75*
G03*
X40503060Y49292760I5237830J-3940010D01*
G01*
X44483550D01*
Y49342760D01*
X40540300D01*
G37*
X44648310D02*
G36*
X44648310Y49342760D02*
Y49292760D01*
X44883550D01*
Y49342760D01*
X44648310D01*
G37*
X45048310D02*
G36*
X45048310Y49342760D02*
Y49292760D01*
X45223500D01*
Y49300140D01*
X45355760D01*
Y49292760D01*
X46371100D01*
Y49300140D01*
X46503360D01*
Y49292760D01*
X47104550D01*
Y49342760D01*
X46503360D01*
Y49335380D01*
X46371100D01*
Y49342760D01*
X45355760D01*
Y49335380D01*
X45223500D01*
Y49342760D01*
X45048310D01*
G37*
X47209310D02*
G36*
X47209310Y49342760D02*
Y49292760D01*
X47304550D01*
Y49342760D01*
X47209310D01*
G37*
X47409310D02*
G36*
X47409310Y49342760D02*
Y49292760D01*
X51036640D01*
G75*
G03*
X50999400Y49342760I-5275070J-3890010D01*
G01*
X47409310D01*
G37*
X40578280Y49392760D02*
G36*
X40578280Y49392760D02*
G75*
G03*
X40540300Y49342760I5199160J-3988710D01*
G01*
X44483550D01*
Y49390140D01*
X44648310D01*
Y49342760D01*
X44883550D01*
Y49390140D01*
X45048310D01*
Y49342760D01*
X45223500D01*
Y49350140D01*
X45355760D01*
Y49342760D01*
X46371100D01*
Y49350140D01*
X46503360D01*
Y49342760D01*
X47104550D01*
Y49392760D01*
X46503360D01*
Y49385380D01*
X46371100D01*
Y49392760D01*
X45355760D01*
Y49385380D01*
X45223500D01*
Y49392760D01*
X40578280D01*
G37*
X47209310D02*
G36*
X47209310Y49392760D02*
Y49342760D01*
X47304550D01*
Y49392760D01*
X47209310D01*
G37*
X47409310D02*
G36*
X47409310Y49392760D02*
Y49342760D01*
X50999400D01*
G75*
G03*
X50961420Y49392760I-5237140J-3938710D01*
G01*
X47409310D01*
G37*
X40617030Y49442760D02*
G36*
X40617030Y49442760D02*
G75*
G03*
X40578280Y49392760I5161040J-4039820D01*
G01*
X45223500D01*
Y49400140D01*
X45355760D01*
Y49392760D01*
X46371100D01*
Y49400140D01*
X46503360D01*
Y49392760D01*
X47104550D01*
Y49402340D01*
X47209310D01*
Y49392760D01*
X47304550D01*
Y49401340D01*
X47409310D01*
Y49392760D01*
X50961420D01*
G75*
G03*
X50922670Y49442760I-5199790J-3989820D01*
G01*
X46503360D01*
Y49435380D01*
X46371100D01*
Y49442760D01*
X45355760D01*
Y49435380D01*
X45223500D01*
Y49442760D01*
X40617030D01*
G37*
X40656560Y49492760D02*
G36*
X40656560Y49492760D02*
G75*
G03*
X40617030Y49442760I5114220J-4083930D01*
G01*
X45223500D01*
Y49450140D01*
X45355760D01*
Y49442760D01*
X46371100D01*
Y49450140D01*
X46503360D01*
Y49442760D01*
X50922670D01*
G75*
G03*
X50883140Y49492760I-5153750J-4033930D01*
G01*
X46503360D01*
Y49485380D01*
X46371100D01*
Y49492760D01*
X45355760D01*
Y49485380D01*
X45223500D01*
Y49492760D01*
X40656560D01*
G37*
X40696890Y49542760D02*
G36*
X40696890Y49542760D02*
G75*
G03*
X40656560Y49492760I5077280J-4136600D01*
G01*
X45223500D01*
Y49500140D01*
X45355760D01*
Y49492760D01*
X46371100D01*
Y49500140D01*
X46503360D01*
Y49492760D01*
X50883140D01*
G75*
G03*
X50842800Y49542760I-5117620J-4087620D01*
G01*
X46503360D01*
Y49535380D01*
X46371100D01*
Y49542760D01*
X45355760D01*
Y49535380D01*
X45223500D01*
Y49542760D01*
X45048310D01*
Y49525380D01*
X44883550D01*
Y49542760D01*
X44648310D01*
Y49525380D01*
X44483550D01*
Y49542760D01*
X40696890D01*
G37*
X40738050Y49592760D02*
G36*
X40738050Y49592760D02*
G75*
G03*
X40696890Y49542760I5031920J-4184220D01*
G01*
X44483550D01*
Y49592760D01*
X40738050D01*
G37*
X44648310D02*
G36*
X44648310Y49592760D02*
Y49542760D01*
X44883550D01*
Y49592760D01*
X44648310D01*
G37*
X45048310D02*
G36*
X45048310Y49592760D02*
Y49542760D01*
X45223500D01*
Y49550140D01*
X45355760D01*
Y49542760D01*
X46371100D01*
Y49550140D01*
X46503360D01*
Y49542760D01*
X50842800D01*
G75*
G03*
X50801650Y49592760I-5073070J-4133200D01*
G01*
X46503360D01*
Y49585380D01*
X46371100D01*
Y49592760D01*
X45355760D01*
Y49585380D01*
X45223500D01*
Y49592760D01*
X45048310D01*
G37*
X40780040Y49642760D02*
G36*
X40780040Y49642760D02*
G75*
G03*
X40738050Y49592760I4996110J-4238360D01*
G01*
X44483550D01*
Y49630140D01*
X44648310D01*
Y49592760D01*
X44883550D01*
Y49630140D01*
X45048310D01*
Y49592760D01*
X45223500D01*
Y49600140D01*
X45355760D01*
Y49592760D01*
X46371100D01*
Y49600140D01*
X46503360D01*
Y49592760D01*
X50801650D01*
G75*
G03*
X50759660Y49642760I-5038100J-4188360D01*
G01*
X46503360D01*
Y49635380D01*
X46371100D01*
Y49642760D01*
X45355760D01*
Y49635380D01*
X45223500D01*
Y49642760D01*
X40780040D01*
G37*
X40822890Y49692760D02*
G36*
X40822890Y49692760D02*
G75*
G03*
X40780040Y49642760I4952130J-4287330D01*
G01*
X45223500D01*
Y49650140D01*
X45355760D01*
Y49642760D01*
X46371100D01*
Y49650140D01*
X46503360D01*
Y49642760D01*
X50759660D01*
G75*
G03*
X50716800Y49692760I-4994980J-4238330D01*
G01*
X46503360D01*
Y49685380D01*
X46371100D01*
Y49692760D01*
X45355760D01*
Y49685380D01*
X45223500D01*
Y49692760D01*
X40822890D01*
G37*
X40866630Y49742760D02*
G36*
X40866630Y49742760D02*
G75*
G03*
X40822890Y49692760I4908880J-4338420D01*
G01*
X45223500D01*
Y49700140D01*
X45355760D01*
Y49692760D01*
X46371100D01*
Y49700140D01*
X46503360D01*
Y49692760D01*
X50716800D01*
G75*
G03*
X50673060Y49742760I-4952620J-4288420D01*
G01*
X46503360D01*
Y49735380D01*
X46371100D01*
Y49742760D01*
X45355760D01*
Y49735380D01*
X45223500D01*
Y49742760D01*
X44947970D01*
Y49702260D01*
X44815890D01*
Y49742760D01*
X44706970D01*
Y49702260D01*
X44574890D01*
Y49742760D01*
X40866630D01*
G37*
X40911280Y49792760D02*
G36*
X40911280Y49792760D02*
G75*
G03*
X40866630Y49742760I4866350J-4390590D01*
G01*
X44574890D01*
Y49792760D01*
X40911280D01*
G37*
X44706970D02*
G36*
X44706970Y49792760D02*
Y49742760D01*
X44815890D01*
Y49792760D01*
X44706970D01*
G37*
X44947970D02*
G36*
X44947970Y49792760D02*
Y49742760D01*
X45223500D01*
Y49750140D01*
X45355760D01*
Y49742760D01*
X46371100D01*
Y49750140D01*
X46503360D01*
Y49742760D01*
X50673060D01*
G75*
G03*
X50628410Y49792760I-4911000J-4340590D01*
G01*
X46503360D01*
Y49785380D01*
X46371100D01*
Y49792760D01*
X45355760D01*
Y49785380D01*
X45223500D01*
Y49792760D01*
X44947970D01*
G37*
X40956860Y49842760D02*
G36*
X40956860Y49842760D02*
G75*
G03*
X40911280Y49792760I4816340J-4436350D01*
G01*
X44574890D01*
Y49829260D01*
X44706970D01*
Y49792760D01*
X44815890D01*
Y49829260D01*
X44947970D01*
Y49792760D01*
X45223500D01*
Y49800140D01*
X45355760D01*
Y49792760D01*
X46371100D01*
Y49800140D01*
X46503360D01*
Y49792760D01*
X50628410D01*
G75*
G03*
X50582830Y49842760I-4861920J-4386350D01*
G01*
X46503360D01*
Y49835380D01*
X46371100D01*
Y49842760D01*
X45355760D01*
Y49835380D01*
X45223500D01*
Y49842760D01*
X40956860D01*
G37*
X41102730Y49996070D02*
G36*
X41102730Y49996070D02*
G75*
G03*
X40956860Y49842760I4667080J-4586640D01*
G01*
X45223500D01*
Y49850140D01*
X45355760D01*
Y49842760D01*
X46371100D01*
Y49850140D01*
X46503360D01*
Y49842760D01*
X50582830D01*
G75*
G03*
X50436960Y49996070I-4815510J-4435770D01*
G01*
X46245810D01*
Y49975430D01*
X46231050D01*
Y49996070D01*
X46195810D01*
Y49975430D01*
X46181050D01*
Y49996070D01*
X46145810D01*
Y49975430D01*
X46131050D01*
Y49996070D01*
X46095810D01*
Y49975430D01*
X46081050D01*
Y49996070D01*
X46045810D01*
Y49975430D01*
X46031050D01*
Y49996070D01*
X45995810D01*
Y49975430D01*
X45981050D01*
Y49996070D01*
X45945810D01*
Y49975430D01*
X45931050D01*
Y49996070D01*
X45895810D01*
Y49975430D01*
X45881050D01*
Y49996070D01*
X45845810D01*
Y49975430D01*
X45831050D01*
Y49996070D01*
X45795810D01*
Y49975430D01*
X45781050D01*
Y49996070D01*
X45745810D01*
Y49975430D01*
X45731050D01*
Y49996070D01*
X45695810D01*
Y49975430D01*
X45681050D01*
Y49996070D01*
X45645810D01*
Y49975430D01*
X45631050D01*
Y49996070D01*
X45595810D01*
Y49975430D01*
X45581050D01*
Y49996070D01*
X45545810D01*
Y49975430D01*
X45531050D01*
Y49996070D01*
X45495810D01*
Y49975430D01*
X45481050D01*
Y49996070D01*
X43745110D01*
Y49954190D01*
X43730350D01*
Y49996070D01*
X43695110D01*
Y49954190D01*
X43680350D01*
Y49996070D01*
X43645110D01*
Y49954190D01*
X43630350D01*
Y49996070D01*
X41102730D01*
G37*
X41147880Y50041560D02*
G36*
X41147880Y50041560D02*
G75*
G03*
X41102730Y49996070I4623350J-4633950D01*
G01*
X43630350D01*
Y50037950D01*
X43645110D01*
Y49996070D01*
X43680350D01*
Y50037950D01*
X43695110D01*
Y49996070D01*
X43730350D01*
Y50037950D01*
X43745110D01*
Y49996070D01*
X45481050D01*
Y50041560D01*
X45195430D01*
Y50018120D01*
X45068430D01*
Y50041560D01*
X44958930D01*
Y50020620D01*
X44831930D01*
Y50041560D01*
X41147880D01*
G37*
X45495810D02*
G36*
X45495810Y50041560D02*
Y49996070D01*
X45531050D01*
Y50041560D01*
X45495810D01*
G37*
X45545810D02*
G36*
X45545810Y50041560D02*
Y49996070D01*
X45581050D01*
Y50041560D01*
X45545810D01*
G37*
X45595810D02*
G36*
X45595810Y50041560D02*
Y49996070D01*
X45631050D01*
Y50041560D01*
X45595810D01*
G37*
X45645810D02*
G36*
X45645810Y50041560D02*
Y49996070D01*
X45681050D01*
Y50041560D01*
X45645810D01*
G37*
X45695810D02*
G36*
X45695810Y50041560D02*
Y49996070D01*
X45731050D01*
Y50041560D01*
X45695810D01*
G37*
X45745810D02*
G36*
X45745810Y50041560D02*
Y49996070D01*
X45781050D01*
Y50041560D01*
X45745810D01*
G37*
X45795810D02*
G36*
X45795810Y50041560D02*
Y49996070D01*
X45831050D01*
Y50041560D01*
X45795810D01*
G37*
X45845810D02*
G36*
X45845810Y50041560D02*
Y49996070D01*
X45881050D01*
Y50041560D01*
X45845810D01*
G37*
X45895810D02*
G36*
X45895810Y50041560D02*
Y49996070D01*
X45931050D01*
Y50041560D01*
X45895810D01*
G37*
X45945810D02*
G36*
X45945810Y50041560D02*
Y49996070D01*
X45981050D01*
Y50041560D01*
X45945810D01*
G37*
X45995810D02*
G36*
X45995810Y50041560D02*
Y49996070D01*
X46031050D01*
Y50041560D01*
X45995810D01*
G37*
X46045810D02*
G36*
X46045810Y50041560D02*
Y49996070D01*
X46081050D01*
Y50041560D01*
X46045810D01*
G37*
X46095810D02*
G36*
X46095810Y50041560D02*
Y49996070D01*
X46131050D01*
Y50041560D01*
X46095810D01*
G37*
X46145810D02*
G36*
X46145810Y50041560D02*
Y49996070D01*
X46181050D01*
Y50041560D01*
X46145810D01*
G37*
X46195810D02*
G36*
X46195810Y50041560D02*
Y49996070D01*
X46231050D01*
Y50041560D01*
X46195810D01*
G37*
X46245810D02*
G36*
X46245810Y50041560D02*
Y49996070D01*
X50436960D01*
G75*
G03*
X50391810Y50041560I-4668500J-4588460D01*
G01*
X46942310D01*
Y50029280D01*
X46777550D01*
Y50041560D01*
X46682310D01*
Y50029280D01*
X46517550D01*
Y50041560D01*
X46245810D01*
G37*
X41266610Y50157070D02*
G36*
X41266610Y50157070D02*
G75*
G03*
X41147880Y50041560I4504690J-4749040D01*
G01*
X44831930D01*
Y50152700D01*
X44958930D01*
Y50041560D01*
X45068430D01*
Y50150200D01*
X45195430D01*
Y50041560D01*
X45481050D01*
Y50107690D01*
X45495810D01*
Y50041560D01*
X45531050D01*
Y50107690D01*
X45545810D01*
Y50041560D01*
X45581050D01*
Y50107690D01*
X45595810D01*
Y50041560D01*
X45631050D01*
Y50107690D01*
X45645810D01*
Y50041560D01*
X45681050D01*
Y50107690D01*
X45695810D01*
Y50041560D01*
X45731050D01*
Y50107690D01*
X45745810D01*
Y50041560D01*
X45781050D01*
Y50107690D01*
X45795810D01*
Y50041560D01*
X45831050D01*
Y50107690D01*
X45845810D01*
Y50041560D01*
X45881050D01*
Y50107690D01*
X45895810D01*
Y50041560D01*
X45931050D01*
Y50107690D01*
X45945810D01*
Y50041560D01*
X45981050D01*
Y50107690D01*
X45995810D01*
Y50041560D01*
X46031050D01*
Y50107690D01*
X46045810D01*
Y50041560D01*
X46081050D01*
Y50107690D01*
X46095810D01*
Y50041560D01*
X46131050D01*
Y50107690D01*
X46145810D01*
Y50041560D01*
X46181050D01*
Y50107690D01*
X46195810D01*
Y50041560D01*
X46231050D01*
Y50107690D01*
X46245810D01*
Y50041560D01*
X46517550D01*
Y50144040D01*
X46682310D01*
Y50041560D01*
X46777550D01*
Y50144040D01*
X46942310D01*
Y50041560D01*
X50391810D01*
G75*
G03*
X50273080Y50157070I-4623420J-4633530D01*
G01*
X43745110D01*
Y50115190D01*
X43730350D01*
Y50157070D01*
X43695110D01*
Y50115190D01*
X43680350D01*
Y50157070D01*
X43645110D01*
Y50115190D01*
X43630350D01*
Y50157070D01*
X41266610D01*
G37*
X41357060Y50241260D02*
G36*
X41357060Y50241260D02*
G75*
G03*
X41266610Y50157070I4412800J-4831600D01*
G01*
X43630350D01*
Y50198950D01*
X43645110D01*
Y50157070D01*
X43680350D01*
Y50198950D01*
X43695110D01*
Y50157070D01*
X43730350D01*
Y50198950D01*
X43745110D01*
Y50157070D01*
X50273080D01*
G75*
G03*
X50182620Y50241260I-4503260J-4747940D01*
G01*
X48151510D01*
Y50183380D01*
X48014350D01*
Y50241260D01*
X47701510D01*
Y50188880D01*
X47564350D01*
Y50241260D01*
X41357060D01*
G37*
X41440500Y50316160D02*
G36*
X41440500Y50316160D02*
G75*
G03*
X41357060Y50241260I4332740J-4910680D01*
G01*
X47564350D01*
Y50293640D01*
X47701510D01*
Y50241260D01*
X48014350D01*
Y50288140D01*
X48151510D01*
Y50241260D01*
X50182620D01*
G75*
G03*
X50099180Y50316160I-4416180J-4835780D01*
G01*
X46888470D01*
Y50252660D01*
X46756390D01*
Y50316160D01*
X46647470D01*
Y50252660D01*
X46515390D01*
Y50316160D01*
X45195430D01*
Y50259120D01*
X45068430D01*
Y50316160D01*
X44958930D01*
Y50261620D01*
X44831930D01*
Y50316160D01*
X44078430D01*
Y50264220D01*
X43951430D01*
Y50316160D01*
X41440500D01*
G37*
X41518930Y50384260D02*
G36*
X41518930Y50384260D02*
G75*
G03*
X41440500Y50316160I4253150J-4977520D01*
G01*
X43951430D01*
Y50384260D01*
X43877510D01*
Y50319880D01*
X43740350D01*
Y50384260D01*
X43633510D01*
Y50322880D01*
X43496350D01*
Y50384260D01*
X43371010D01*
Y50331880D01*
X43233850D01*
Y50384260D01*
X41518930D01*
G37*
X44078430D02*
G36*
X44078430Y50384260D02*
Y50316160D01*
X44831930D01*
Y50384260D01*
X44287510D01*
Y50331380D01*
X44150350D01*
Y50384260D01*
X44078430D01*
G37*
X44958930D02*
G36*
X44958930Y50384260D02*
Y50316160D01*
X45068430D01*
Y50384260D01*
X44958930D01*
G37*
X45195430D02*
G36*
X45195430Y50384260D02*
Y50316160D01*
X46515390D01*
Y50379660D01*
X46647470D01*
Y50316160D01*
X46756390D01*
Y50379660D01*
X46888470D01*
Y50316160D01*
X50099180D01*
G75*
G03*
X50020750Y50384260I-4331580J-4909420D01*
G01*
X48152510D01*
Y50383380D01*
X48015350D01*
Y50384260D01*
X45195430D01*
G37*
X41586560Y50441260D02*
G36*
X41586560Y50441260D02*
G75*
G03*
X41518930Y50384260I4185580J-5034770D01*
G01*
X43233850D01*
Y50436640D01*
X43371010D01*
Y50384260D01*
X43496350D01*
Y50427640D01*
X43633510D01*
Y50384260D01*
X43740350D01*
Y50424640D01*
X43877510D01*
Y50384260D01*
X43951430D01*
Y50396300D01*
X44078430D01*
Y50384260D01*
X44150350D01*
Y50436140D01*
X44287510D01*
Y50384260D01*
X44831930D01*
Y50393700D01*
X44958930D01*
Y50384260D01*
X45068430D01*
Y50391200D01*
X45195430D01*
Y50384260D01*
X48015350D01*
Y50441260D01*
X47702510D01*
Y50388880D01*
X47565350D01*
Y50441260D01*
X41586560D01*
G37*
X48152510D02*
G36*
X48152510Y50441260D02*
Y50384260D01*
X50020750D01*
G75*
G03*
X49953130Y50441260I-4253200J-4977030D01*
G01*
X48152510D01*
G37*
X41703420Y50536160D02*
G36*
X41703420Y50536160D02*
G75*
G03*
X41586560Y50441260I4066860J-5127340D01*
G01*
X47565350D01*
Y50493640D01*
X47702510D01*
Y50441260D01*
X48015350D01*
Y50488140D01*
X48152510D01*
Y50441260D01*
X49953130D01*
G75*
G03*
X49836270Y50536160I-4183720J-5032440D01*
G01*
X46890970D01*
Y50472660D01*
X46758890D01*
Y50536160D01*
X46649970D01*
Y50472660D01*
X46517890D01*
Y50536160D01*
X44288510D01*
Y50531380D01*
X44151350D01*
Y50536160D01*
X44078430D01*
Y50505220D01*
X43951430D01*
Y50536160D01*
X43878510D01*
Y50519880D01*
X43741350D01*
Y50536160D01*
X43634510D01*
Y50522880D01*
X43497350D01*
Y50536160D01*
X43372010D01*
Y50531880D01*
X43234850D01*
Y50536160D01*
X41703420D01*
G37*
X42289340Y50950660D02*
G36*
X42289340Y50950660D02*
G75*
G03*
X41703420Y50536160I3480740J-5541600D01*
G01*
X43234850D01*
Y50636640D01*
X43372010D01*
Y50536160D01*
X43497350D01*
Y50627640D01*
X43634510D01*
Y50536160D01*
X43741350D01*
Y50624640D01*
X43878510D01*
Y50536160D01*
X43951430D01*
Y50637300D01*
X44078430D01*
Y50536160D01*
X44151350D01*
Y50636140D01*
X44288510D01*
Y50536160D01*
X46517890D01*
Y50599660D01*
X46649970D01*
Y50536160D01*
X46758890D01*
Y50599660D01*
X46890970D01*
Y50536160D01*
X49836270D01*
G75*
G03*
X49250340Y50950660I-4066670J-5127190D01*
G01*
X43774790D01*
X43778480Y50941520D01*
X43755520Y50932250D01*
X43748080Y50950660D01*
X43704680D01*
X43718210Y50917170D01*
X43695250Y50907900D01*
X43677970Y50950660D01*
X43634570D01*
X43657940Y50892820D01*
X43634980Y50883550D01*
X43607870Y50950660D01*
X42289340D01*
G37*
X42408450Y51023710D02*
G36*
X42408450Y51023710D02*
G75*
G03*
X42289340Y50950660I3362600J-5616440D01*
G01*
X43607870D01*
X43584500Y51008500D01*
X43607460Y51017770D01*
X43634570Y50950660D01*
X43677970D01*
X43648460Y51023710D01*
X42408450D01*
G37*
X43675170D02*
G36*
X43675170Y51023710D02*
X43704680Y50950660D01*
X43748080D01*
X43718570Y51023710D01*
X43675170D01*
G37*
X43745280D02*
G36*
X43745280Y51023710D02*
X43774790Y50950660D01*
X49250340D01*
G75*
G03*
X49131230Y51023710I-3481710J-5543390D01*
G01*
X43885480D01*
X43899010Y50990220D01*
X43876050Y50980950D01*
X43858770Y51023710D01*
X43815370D01*
X43838740Y50965870D01*
X43815780Y50956600D01*
X43788670Y51023710D01*
X43745280D01*
G37*
X42408450D02*
G36*
X42408450Y51023710D02*
X43648460D01*
X43644770Y51032850D01*
X43667730Y51042120D01*
X43675170Y51023710D01*
X43718570D01*
X43705040Y51057200D01*
X43728000Y51066470D01*
X43745280Y51023710D01*
X43788670D01*
X43765300Y51081550D01*
X43788260Y51090820D01*
X43815370Y51023710D01*
X43858770D01*
X43825570Y51105900D01*
X43848530Y51115170D01*
X43885480Y51023710D01*
X49131230D01*
G75*
G03*
X45769880Y51953040I-3361380J-5614400D01*
G01*
X45769820D01*
X45769770D01*
G75*
G03*
X42408450Y51023710I50J-6543670D01*
G01*
G37*
D02*
D176*
X41559430Y41073060D03*
Y41615460D03*
X41686430Y41073060D03*
Y41615460D03*
X41813430Y41073060D03*
Y41615460D03*
X41940430Y41073060D03*
Y41615460D03*
X49794430Y41690560D03*
Y42232960D03*
X49921430Y41690560D03*
Y42232960D03*
X50048430Y41690560D03*
Y42232960D03*
X50175430Y41690560D03*
Y42232960D03*
D02*
D177*
X41749930Y41344260D03*
X49984930Y41961760D03*
D02*
D178*
X42520930Y42231760D03*
Y43569260D03*
X43370930Y42231760D03*
Y43569260D03*
X48134930Y42231760D03*
X48194930Y43580260D03*
X48984930Y42231760D03*
X49044930Y43580260D03*
D02*
D179*
X41282930Y41320760D03*
Y41561760D03*
X42191430Y40634260D03*
Y40875260D03*
X44014930Y50330260D03*
Y50571260D03*
X44895430Y50086660D03*
Y50327660D03*
X45131930Y50084160D03*
Y50325160D03*
X48185930Y46239260D03*
Y46480260D03*
X48186430Y45771260D03*
Y46012260D03*
X48393930Y46240040D03*
Y46481040D03*
X48396430Y45770260D03*
Y46011260D03*
X49530430Y41690760D03*
Y41931760D03*
X49562930Y40408760D03*
Y40649760D03*
X49944430Y41091760D03*
Y41332760D03*
X51612430Y47125760D03*
Y47366760D03*
D02*
D180*
X40970270Y42060260D03*
Y42518260D03*
X50792090Y42732760D03*
Y43190760D03*
D02*
D181*
X41684770Y42289260D03*
X50077590Y42961760D03*
D02*
D182*
X41748930Y40657760D03*
X41749930Y40857760D03*
X41985930Y40655760D03*
X41986930Y40855760D03*
X43302430Y50384260D03*
X43303430Y50584260D03*
X43564930Y50375260D03*
X43565930Y50575260D03*
X43808930Y50372260D03*
X43809930Y50572260D03*
X44218930Y50383760D03*
X44219930Y50583760D03*
X47632930Y50241260D03*
X47633930Y50441260D03*
X47926930Y46948260D03*
X47927930Y47148260D03*
X48082930Y50235760D03*
X48083930Y50435760D03*
X48289930Y45218760D03*
X48290930Y45418760D03*
X50179930Y41120760D03*
X50180930Y41320760D03*
X50489430D03*
X50490430Y41520760D03*
X51616930Y46695760D03*
X51617930Y46895760D03*
D02*
D183*
X40077430Y44021760D03*
X40099930Y44431760D03*
X40377430Y44021760D03*
X40399930Y44431760D03*
X50864930Y44161760D03*
X50869930Y43761760D03*
X51164930Y44161760D03*
X51169930Y43761760D03*
D02*
D184*
X48652430Y45811260D03*
Y46041260D03*
Y46271260D03*
D02*
D185*
X49282430Y46041260D03*
D02*
D186*
X50371930Y46571760D03*
Y46831760D03*
D02*
D187*
X40643130Y48646470D03*
X40783850Y48504340D03*
X40794630Y48800470D03*
X40919010Y48199180D03*
X40935350Y48658340D03*
X41059730Y48057050D03*
X41742510Y46678180D03*
X41883230Y46536050D03*
X41892630Y46834470D03*
X42033350Y46692340D03*
X42043130Y46982470D03*
X42183850Y46840340D03*
X42323630Y48146470D03*
X42464350Y48004340D03*
X42483630Y48303970D03*
X42624350Y48161840D03*
X42644630Y48457470D03*
X42785350Y48315340D03*
X42802130Y48614970D03*
X42942850Y48472840D03*
D02*
D188*
X46599930Y50086660D03*
X46859930D03*
D02*
D189*
X41018150Y47509490D03*
X41064120Y47463530D03*
X41110080Y47417570D03*
X41156040Y47371600D03*
X41202000Y47325640D03*
X41247960Y47279680D03*
X41293930Y47233720D03*
X41339890Y47187760D03*
X41385850Y47141790D03*
X41431810Y47095830D03*
X41477770Y47049870D03*
X41520200Y48011540D03*
X41523740Y47003910D03*
X41566160Y47965570D03*
X41569700Y46957950D03*
X41612120Y47919610D03*
X41615660Y46911980D03*
X41658090Y47873650D03*
X41704050Y47827690D03*
X41750010Y47781730D03*
X41795970Y47735760D03*
X41841930Y47689800D03*
X41887900Y47643840D03*
X41933860Y47597880D03*
X41979820Y47551920D03*
X42025780Y47505950D03*
X42071740Y47459990D03*
X42117710Y47414030D03*
D02*
D190*
X39714430Y45775260D03*
X39914430Y45774260D03*
X44194430Y48907760D03*
X44394430Y48906760D03*
X47136930Y48868760D03*
X47156930Y49108760D03*
Y49333760D03*
X47336930Y48867760D03*
X47356930Y49107760D03*
Y49332760D03*
X51082930Y47977760D03*
X51282930Y47976760D03*
D02*
D191*
X50783930Y45366760D03*
Y45866760D03*
D02*
D192*
X49721430Y45724260D03*
Y46104260D03*
D02*
D193*
X49999930Y43761760D03*
Y44791760D03*
D02*
D194*
X42929930Y40404760D03*
X43170930D03*
X44394430Y49132260D03*
X44635430D03*
X44640930Y49765760D03*
X44881930D03*
X45038930Y48601160D03*
X45041430Y48806160D03*
X45279930Y48601160D03*
X45282430Y48806160D03*
X46581430Y50316160D03*
X46583930Y50536160D03*
X46822430Y50316160D03*
X46824930Y50536160D03*
D02*
D195*
X40551010Y47498180D03*
X40734850Y47314340D03*
D02*
D196*
X42142930Y47986470D03*
X42313340Y47816050D03*
X42951930Y48771970D03*
X43122340Y48601550D03*
D02*
D197*
X40298220Y48221460D03*
X40440350Y48362180D03*
D02*
D198*
X43149630Y48953560D03*
X43288230Y48814960D03*
D02*
D199*
X44565930Y49337760D03*
Y49577760D03*
X44965930Y49337760D03*
Y49577760D03*
D02*
D200*
X51444430Y44786760D03*
Y45226760D03*
D02*
D201*
X39714430Y45331760D03*
Y45521760D03*
X47925930Y46583260D03*
Y46773260D03*
X48016430Y45197760D03*
Y45387760D03*
D02*
D202*
X40451660Y48040330D03*
X40621360Y48210030D03*
X40734500Y47757490D03*
X40904200Y47927190D03*
D02*
D203*
X49162930Y40228260D03*
Y40658260D03*
D02*
D204*
X45289630Y49092760D03*
Y49142760D03*
Y49192760D03*
Y49242760D03*
Y49292760D03*
Y49342760D03*
Y49392760D03*
Y49442760D03*
Y49492760D03*
Y49542760D03*
Y49592760D03*
Y49642760D03*
Y49692760D03*
Y49742760D03*
Y49792760D03*
Y49842760D03*
X46437230Y49092760D03*
Y49142760D03*
Y49192760D03*
Y49242760D03*
Y49292760D03*
Y49342760D03*
Y49392760D03*
Y49442760D03*
Y49492760D03*
Y49542760D03*
Y49592760D03*
Y49642760D03*
Y49692760D03*
Y49742760D03*
Y49792760D03*
Y49842760D03*
D02*
D205*
X45488430Y48893960D03*
Y50041560D03*
X45538430Y48893960D03*
Y50041560D03*
X45588430Y48893960D03*
Y50041560D03*
X45638430Y48893960D03*
Y50041560D03*
X45688430Y48893960D03*
Y50041560D03*
X45738430Y48893960D03*
Y50041560D03*
X45788430Y48893960D03*
Y50041560D03*
X45838430Y48893960D03*
Y50041560D03*
X45888430Y48893960D03*
Y50041560D03*
X45938430Y48893960D03*
Y50041560D03*
X45988430Y48893960D03*
Y50041560D03*
X46038430Y48893960D03*
Y50041560D03*
X46088430Y48893960D03*
Y50041560D03*
X46138430Y48893960D03*
Y50041560D03*
X46188430Y48893960D03*
Y50041560D03*
X46238430Y48893960D03*
Y50041560D03*
D02*
D206*
X49714930Y46409260D03*
Y46605260D03*
X50957430Y46429260D03*
Y46625260D03*
D02*
D207*
X40729930Y43434260D03*
X41759930D03*
D02*
D208*
X39895930Y43563260D03*
X40335930D03*
D02*
D209*
X42704930Y44568260D03*
X43134930D03*
D02*
D210*
X43621220Y50950660D03*
X43681490Y50975010D03*
X43741760Y50999360D03*
X43802020Y51023710D03*
X43862290Y51048060D03*
D02*
D211*
X43637730Y49996070D03*
Y50157070D03*
X43687730Y49996070D03*
Y50157070D03*
X43737730Y49996070D03*
Y50157070D03*
X0Y0D02*
M02*
