G04 DesignSpark PCB Gerber Version 12.0 Build 5942*
%FSLAX35Y35*%
%MOMM*%
%ADD228R,0.50800X1.29540*%
%ADD153R,1.67640X1.67640*%
%ADD165R,1.90500X1.90500*%
%ADD124C,0.00001*%
%ADD171C,1.36940*%
%ADD173C,1.46840*%
%ADD159C,1.59840*%
%ADD140C,1.65240*%
%ADD160C,1.70240*%
%ADD162C,1.75240*%
%ADD166C,1.90500*%
%ADD154C,2.40240*%
%ADD161C,2.50740*%
%ADD167C,2.67640*%
%ADD232R,1.30240X0.75240*%
%ADD227R,1.45240X0.80240*%
%ADD231R,1.75240X0.80240*%
%ADD230R,2.29240X0.80240*%
%ADD233R,1.65240X1.31240*%
%ADD229R,1.95240X1.50240*%
%ADD126C,4.00240*%
%AMT158*0 Rounded Rectangle Pad at angle 0*4,1,92,-1.03140,-2.57620,1.03140,-2.57620,1.14160,-2.57230,1.25120,-2.56050,1.35970,-2.54090,1.46650,-2.51360,1.57110,-2.47880,1.67300,-2.43660,1.77160,-2.38730,1.86640,-2.33110,1.95700,-2.26820,2.04290,-2.19900,2.12360,-2.12390,2.19870,-2.04320,2.26790,-1.95740,2.33080,-1.86690,2.38710,-1.77210,2.43650,-1.67350,2.47870,-1.57160,2.51350,-1.46700,2.54080,-1.36020,2.56040,-1.25170,2.57220,-1.14210,2.57620,-1.03140,2.57620,1.03140,2.57230,1.14160,2.56050,1.25120,2.54090,1.35970,2.51360,1.46650,2.47880,1.57110,2.43660,1.67300,2.38730,1.77160,2.33110,1.86640,2.26820,1.95700,2.19900,2.04290,2.12390,2.12360,2.04320,2.19870,1.95740,2.26790,1.86690,2.33080,1.77210,2.38710,1.67350,2.43650,1.57160,2.47870,1.46700,2.51350,1.36020,2.54080,1.25170,2.56040,1.14210,2.57220,1.03140,2.57620,-1.03140,2.57620,-1.14160,2.57230,-1.25120,2.56050,-1.35970,2.54090,-1.46650,2.51360,-1.57110,2.47880,-1.67300,2.43660,-1.77160,2.38730,-1.86640,2.33110,-1.95700,2.26820,-2.04290,2.19900,-2.12360,2.12390,-2.19870,2.04320,-2.26790,1.95740,-2.33080,1.86690,-2.38710,1.77210,-2.43650,1.67350,-2.47870,1.57160,-2.51350,1.46700,-2.54080,1.36020,-2.56040,1.25170,-2.57220,1.14210,-2.57620,1.03140,-2.57620,-1.03140,-2.57230,-1.14160,-2.56050,-1.25120,-2.54090,-1.35970,-2.51360,-1.46650,-2.47880,-1.57110,-2.43660,-1.67300,-2.38730,-1.77160,-2.33110,-1.86640,-2.26820,-1.95700,-2.19900,-2.04290,-2.12390,-2.12360,-2.04320,-2.19870,-1.95740,-2.26790,-1.86690,-2.33080,-1.77210,-2.38710,-1.67350,-2.43650,-1.57160,-2.47870,-1.46700,-2.51350,-1.36020,-2.54080,-1.25170,-2.56040,-1.14210,-2.57220,-1.03140,-2.57620,0*%
%ADD158T158*%
X0Y0D02*
D02*
D124*
X39226200Y45409390D02*
G75*
G03*
X42771480Y39593110I6543580J-40D01*
G01*
X43763580D01*
Y45516760D01*
G75*
G02*
X45569930Y47323110I1806350J0D01*
G01*
X45967430D01*
G75*
G02*
X47773780Y45516760I0J-1806350D01*
G01*
Y45156810D01*
G75*
G02*
X47776280Y45151760I-3850J-5050D01*
G01*
Y39593110D01*
X48768380D01*
G75*
G03*
X52313550Y45409360I-2998520J5816250D01*
G01*
G75*
G03*
X45769880Y51953040I-6543670J0D01*
G01*
G75*
G02*
X45769820I-30J6330D01*
G01*
G75*
G03*
X39226200Y45409390I0J-6543650D01*
G01*
X45814610Y48052080D02*
X45982250D01*
Y47884440D01*
X45814610D01*
Y48052080D01*
X45910930Y51084010D02*
G75*
G02*
X46006180Y50988760I0J-95250D01*
G01*
G75*
G02*
X45910930Y50893510I-95250J0D01*
G01*
G75*
G02*
X45815680Y50988760I0J95250D01*
G01*
G75*
G02*
X45910930Y51084010I95250J0D01*
G01*
Y51338010D02*
G75*
G02*
X46006180Y51242760I0J-95250D01*
G01*
G75*
G02*
X45910930Y51147510I-95250J0D01*
G01*
G75*
G02*
X45815680Y51242760I0J95250D01*
G01*
G75*
G02*
X45910930Y51338010I95250J0D01*
G01*
X46068610Y48052080D02*
X46236250D01*
Y47884440D01*
X46068610D01*
Y48052080D01*
X46164930Y51084010D02*
G75*
G02*
X46260180Y50988760I0J-95250D01*
G01*
G75*
G02*
X46164930Y50893510I-95250J0D01*
G01*
G75*
G02*
X46069680Y50988760I0J95250D01*
G01*
G75*
G02*
X46164930Y51084010I95250J0D01*
G01*
Y51338010D02*
G75*
G02*
X46260180Y51242760I0J-95250D01*
G01*
G75*
G02*
X46164930Y51147510I-95250J0D01*
G01*
G75*
G02*
X46069680Y51242760I0J95250D01*
G01*
G75*
G02*
X46164930Y51338010I95250J0D01*
G01*
X46322610Y48052080D02*
X46490250D01*
Y47884440D01*
X46322610D01*
Y48052080D01*
X46418930Y51084010D02*
G75*
G02*
X46514180Y50988760I0J-95250D01*
G01*
G75*
G02*
X46418930Y50893510I-95250J0D01*
G01*
G75*
G02*
X46323680Y50988760I0J95250D01*
G01*
G75*
G02*
X46418930Y51084010I95250J0D01*
G01*
Y51338010D02*
G75*
G02*
X46514180Y51242760I0J-95250D01*
G01*
G75*
G02*
X46418930Y51147510I-95250J0D01*
G01*
G75*
G02*
X46323680Y51242760I0J95250D01*
G01*
G75*
G02*
X46418930Y51338010I95250J0D01*
G01*
X46576610Y48052080D02*
X46744250D01*
Y47884440D01*
X46576610D01*
Y48052080D01*
X46672930Y51084010D02*
G75*
G02*
X46768180Y50988760I0J-95250D01*
G01*
G75*
G02*
X46672930Y50893510I-95250J0D01*
G01*
G75*
G02*
X46577680Y50988760I0J95250D01*
G01*
G75*
G02*
X46672930Y51084010I95250J0D01*
G01*
Y51338010D02*
G75*
G02*
X46768180Y51242760I0J-95250D01*
G01*
G75*
G02*
X46672930Y51147510I-95250J0D01*
G01*
G75*
G02*
X46577680Y51242760I0J95250D01*
G01*
G75*
G02*
X46672930Y51338010I95250J0D01*
G01*
X46960310Y47961760D02*
G75*
G02*
X47360550I200120J0D01*
G01*
G75*
G02*
X46960310I-200120J0D01*
G01*
X47804310Y41930380D02*
X47949550D01*
Y41850140D01*
X47804310D01*
Y41930380D01*
X47908110Y39970260D02*
G75*
G02*
X48175750I133820J0D01*
G01*
G75*
G02*
X47908110I-133820J0D01*
G01*
X48066430Y40630380D02*
G75*
G02*
X48186550Y40510260I0J-120120D01*
G01*
G75*
G02*
X48066430Y40390140I-120120J0D01*
G01*
G75*
G02*
X47946310Y40510260I0J120120D01*
G01*
G75*
G02*
X48066430Y40630380I120120J0D01*
G01*
X47829030Y43320130D02*
X47879830D01*
Y43190590D01*
X47829030D01*
Y43320130D01*
X47895030D02*
X47945830D01*
Y43190590D01*
X47895030D01*
Y43320130D01*
X47983310Y43320480D02*
X48158550D01*
Y43240240D01*
X47983310D01*
Y43320480D01*
X48404310Y41925380D02*
X48534550D01*
Y41850140D01*
X48404310D01*
Y41925380D01*
X48432110Y39970260D02*
G75*
G02*
X48699750I133820J0D01*
G01*
G75*
G02*
X48432110I-133820J0D01*
G01*
X48574430Y40630380D02*
G75*
G02*
X48694550Y40510260I0J-120120D01*
G01*
G75*
G02*
X48574430Y40390140I-120120J0D01*
G01*
G75*
G02*
X48454310Y40510260I0J120120D01*
G01*
G75*
G02*
X48574430Y40630380I120120J0D01*
G01*
X48464310Y43320480D02*
X48693550D01*
Y43240240D01*
X48464310D01*
Y43320480D01*
X48550310Y41146640D02*
Y41361880D01*
G75*
G02*
X48700310Y41511880I150000J0D01*
G01*
X48915550D01*
G75*
G02*
X49065550Y41361880I0J-150000D01*
G01*
Y41146640D01*
G75*
G02*
X48915550Y40996640I-150000J0D01*
G01*
X48700310D01*
G75*
G02*
X48550310Y41146640I0J150000D01*
G01*
X48568310Y50599140D02*
Y50814380D01*
G75*
G02*
X48718310Y50964380I150000J0D01*
G01*
X48933550D01*
G75*
G02*
X49083550Y50814380I0J-150000D01*
G01*
Y50599140D01*
G75*
G02*
X48933550Y50449140I-150000J0D01*
G01*
X48718310D01*
G75*
G02*
X48568310Y50599140I0J150000D01*
G01*
X48964310Y42428880D02*
X49109550D01*
Y42348640D01*
X48964310D01*
Y42428880D01*
Y42538980D02*
X49109550D01*
Y42458740D01*
X48964310D01*
Y42538980D01*
Y42648980D02*
X49109550D01*
Y42568740D01*
X48964310D01*
Y42648980D01*
Y42758980D02*
X49109550D01*
Y42678740D01*
X48964310D01*
Y42758980D01*
Y42868980D02*
X49109550D01*
Y42788740D01*
X48964310D01*
Y42868980D01*
Y42978980D02*
X49109550D01*
Y42898740D01*
X48964310D01*
Y42978980D01*
Y43088980D02*
X49109550D01*
Y43008740D01*
X48964310D01*
Y43088980D01*
Y43198980D02*
X49109550D01*
Y43118740D01*
X48964310D01*
Y43198980D01*
X48695810Y44718760D02*
G75*
G02*
X48936050I120120J0D01*
G01*
G75*
G02*
X48695810I-120120J0D01*
G01*
Y45223760D02*
G75*
G02*
X48936050I120120J0D01*
G01*
G75*
G02*
X48695810I-120120J0D01*
G01*
X49144310Y43320380D02*
X49339550D01*
Y43170140D01*
X49144310D01*
Y43320380D01*
X49184310Y41981480D02*
X49349550D01*
Y41850240D01*
X49184310D01*
Y41981480D01*
X49446110Y42265580D02*
X49613750D01*
Y42097940D01*
X49446110D01*
Y42265580D01*
X49554610Y45335260D02*
G75*
G02*
X49822250I133820J0D01*
G01*
G75*
G02*
X49554610I-133820J0D01*
G01*
X50041110Y47810580D02*
X50208750D01*
Y47642940D01*
X50041110D01*
Y47810580D01*
X50078610Y45335260D02*
G75*
G02*
X50346250I133820J0D01*
G01*
G75*
G02*
X50078610I-133820J0D01*
G01*
X50041110Y48064580D02*
X50208750D01*
Y47896940D01*
X50041110D01*
Y48064580D01*
Y48318580D02*
X50208750D01*
Y48150940D01*
X50041110D01*
Y48318580D01*
Y48572580D02*
X50208750D01*
Y48404940D01*
X50041110D01*
Y48572580D01*
Y48826580D02*
X50208750D01*
Y48658940D01*
X50041110D01*
Y48826580D01*
X50734310Y46991760D02*
G75*
G02*
X50899550I82620J0D01*
G01*
G75*
G02*
X50734310I-82620J0D01*
G01*
Y47641760D02*
G75*
G02*
X50899550I82620J0D01*
G01*
G75*
G02*
X50734310I-82620J0D01*
G01*
X50928210Y48510280D02*
X51095850D01*
Y48342640D01*
X50928210D01*
Y48510280D01*
Y48764280D02*
X51095850D01*
Y48596640D01*
X50928210D01*
Y48764280D01*
X51151110Y43450580D02*
X51318750D01*
Y43282940D01*
X51151110D01*
Y43450580D01*
X51184310Y46991760D02*
G75*
G02*
X51349550I82620J0D01*
G01*
G75*
G02*
X51184310I-82620J0D01*
G01*
Y47641760D02*
G75*
G02*
X51349550I82620J0D01*
G01*
G75*
G02*
X51184310I-82620J0D01*
G01*
X39899430Y44972180D02*
G75*
G02*
X39972850Y44898760I0J-73420D01*
G01*
G75*
G02*
X39899430Y44825340I-73420J0D01*
G01*
G75*
G02*
X39826010Y44898760I0J73420D01*
G01*
G75*
G02*
X39899430Y44972180I73420J0D01*
G01*
X40056610Y45446260D02*
G75*
G02*
X40324250I133820J0D01*
G01*
G75*
G02*
X40056610I-133820J0D01*
G01*
X40245110Y43168580D02*
X40412750D01*
Y43000940D01*
X40245110D01*
Y43168580D01*
X40404430Y44972180D02*
G75*
G02*
X40477850Y44898760I0J-73420D01*
G01*
G75*
G02*
X40404430Y44825340I-73420J0D01*
G01*
G75*
G02*
X40331010Y44898760I0J73420D01*
G01*
G75*
G02*
X40404430Y44972180I73420J0D01*
G01*
X40580610Y45446260D02*
G75*
G02*
X40848250I133820J0D01*
G01*
G75*
G02*
X40580610I-133820J0D01*
G01*
X40971550Y49298030D02*
G75*
G02*
X41116860Y49237840I60190J-60190D01*
G01*
G75*
G02*
X41091930Y49177650I-85120J0D01*
G01*
G75*
G02*
X40946620Y49237840I-60190J60190D01*
G01*
G75*
G02*
X40971550Y49298030I85120J0D01*
G01*
X41151160Y49477630D02*
G75*
G02*
X41296470Y49417440I60190J-60190D01*
G01*
G75*
G02*
X41271540Y49357250I-85120J0D01*
G01*
G75*
G02*
X41126230Y49417440I-60190J60190D01*
G01*
G75*
G02*
X41151160Y49477630I85120J0D01*
G01*
X41303540Y49052310D02*
G75*
G02*
X41453120Y48990350I61960J-61960D01*
G01*
G75*
G02*
X41427460Y48928390I-87620J-10D01*
G01*
G75*
G02*
X41277880Y48990350I-61960J61960D01*
G01*
G75*
G02*
X41303540Y49052310I87620J10D01*
G01*
X41395640Y48647670D02*
G75*
G02*
X41609660Y48559020I88650J-88650D01*
G01*
G75*
G02*
X41572940Y48470370I-125370J0D01*
G01*
G75*
G02*
X41358920Y48559020I-88650J88650D01*
G01*
G75*
G02*
X41395640Y48647670I125370J0D01*
G01*
X41686440Y50012910D02*
G75*
G02*
X41831750Y49952720I60190J-60190D01*
G01*
G75*
G02*
X41806820Y49892530I-85120J0D01*
G01*
G75*
G02*
X41661510Y49952720I-60190J60190D01*
G01*
G75*
G02*
X41686440Y50012910I85120J0D01*
G01*
X41675610Y44419580D02*
X41843250D01*
Y44251940D01*
X41675610D01*
Y44419580D01*
X41866040Y50192520D02*
G75*
G02*
X42011350Y50132330I60190J-60190D01*
G01*
G75*
G02*
X41986420Y50072140I-85120J0D01*
G01*
G75*
G02*
X41841110Y50132330I-60190J60190D01*
G01*
G75*
G02*
X41866040Y50192520I85120J0D01*
G01*
X41937600Y48777450D02*
G75*
G02*
X42074030Y48720940I56510J-56510D01*
G01*
G75*
G02*
X42050620Y48664430I-79920J0D01*
G01*
G75*
G02*
X41914190Y48720940I-56510J56510D01*
G01*
G75*
G02*
X41937600Y48777450I79920J0D01*
G01*
X42027410Y48508050D02*
G75*
G02*
X42163840Y48451540I56510J-56510D01*
G01*
G75*
G02*
X42140430Y48395030I-79920J0D01*
G01*
G75*
G02*
X42004000Y48451540I-56510J56510D01*
G01*
G75*
G02*
X42027410Y48508050I79920J0D01*
G01*
X42111760Y49860540D02*
G75*
G02*
X42261340Y49798580I61960J-61960D01*
G01*
G75*
G02*
X42235680Y49736620I-87620J-10D01*
G01*
G75*
G02*
X42086100Y49798580I-61960J61960D01*
G01*
G75*
G02*
X42111760Y49860540I87620J10D01*
G01*
X42117210Y48957060D02*
G75*
G02*
X42253640Y48900550I56510J-56510D01*
G01*
G75*
G02*
X42230230Y48844040I-79920J0D01*
G01*
G75*
G02*
X42093800Y48900550I-56510J56510D01*
G01*
G75*
G02*
X42117210Y48957060I79920J0D01*
G01*
X42207010Y48687650D02*
G75*
G02*
X42343440Y48631140I56510J-56510D01*
G01*
G75*
G02*
X42320030Y48574630I-79920J0D01*
G01*
G75*
G02*
X42183600Y48631140I-56510J56510D01*
G01*
G75*
G02*
X42207010Y48687650I79920J0D01*
G01*
X42296810Y49136660D02*
G75*
G02*
X42433240Y49080150I56510J-56510D01*
G01*
G75*
G02*
X42409830Y49023640I-79920J0D01*
G01*
G75*
G02*
X42273400Y49080150I-56510J56510D01*
G01*
G75*
G02*
X42296810Y49136660I79920J0D01*
G01*
X42386620Y48867260D02*
G75*
G02*
X42523050Y48810750I56510J-56510D01*
G01*
G75*
G02*
X42499640Y48754240I-79920J0D01*
G01*
G75*
G02*
X42363210Y48810750I-56510J56510D01*
G01*
G75*
G02*
X42386620Y48867260I79920J0D01*
G01*
X42473810Y41133140D02*
Y41348380D01*
G75*
G02*
X42623810Y41498380I150000J0D01*
G01*
X42839050D01*
G75*
G02*
X42989050Y41348380I0J-150000D01*
G01*
Y41133140D01*
G75*
G02*
X42839050Y40983140I-150000J0D01*
G01*
X42623810D01*
G75*
G02*
X42473810Y41133140I0J150000D01*
G01*
X42969430Y40032730D02*
G75*
G02*
X43037900Y39964260I0J-68470D01*
G01*
G75*
G02*
X42969430Y39895790I-68470J0D01*
G01*
G75*
G02*
X42900960Y39964260I0J68470D01*
G01*
G75*
G02*
X42969430Y40032730I68470J0D01*
G01*
X42476420Y49316270D02*
G75*
G02*
X42612850Y49259760I56510J-56510D01*
G01*
G75*
G02*
X42589440Y49203250I-79920J0D01*
G01*
G75*
G02*
X42453010Y49259760I-56510J56510D01*
G01*
G75*
G02*
X42476420Y49316270I79920J0D01*
G01*
X42566220Y49046860D02*
G75*
G02*
X42702650Y48990350I56510J-56510D01*
G01*
G75*
G02*
X42679240Y48933840I-79920J0D01*
G01*
G75*
G02*
X42542810Y48990350I-56510J56510D01*
G01*
G75*
G02*
X42566220Y49046860I79920J0D01*
G01*
X42464810Y50599140D02*
Y50814380D01*
G75*
G02*
X42614810Y50964380I150000J0D01*
G01*
X42830050D01*
G75*
G02*
X42980050Y50814380I0J-150000D01*
G01*
Y50599140D01*
G75*
G02*
X42830050Y50449140I-150000J0D01*
G01*
X42614810D01*
G75*
G02*
X42464810Y50599140I0J150000D01*
G01*
X42516400Y49768430D02*
G75*
G02*
X42730420Y49679780I88650J-88650D01*
G01*
G75*
G02*
X42693700Y49591130I-125370J0D01*
G01*
G75*
G02*
X42479680Y49679780I-88650J88650D01*
G01*
G75*
G02*
X42516400Y49768430I125370J0D01*
G01*
X43341270Y51036270D02*
G75*
G02*
X43472200Y50947960I35680J-88310D01*
G01*
G75*
G02*
X43412630Y50859650I-95250J0D01*
G01*
G75*
G02*
X43281700Y50947960I-35680J88310D01*
G01*
G75*
G02*
X43341270Y51036270I95250J0D01*
G01*
X43477430Y40032730D02*
G75*
G02*
X43545900Y39964260I0J-68470D01*
G01*
G75*
G02*
X43477430Y39895790I-68470J0D01*
G01*
G75*
G02*
X43408960Y39964260I0J68470D01*
G01*
G75*
G02*
X43477430Y40032730I68470J0D01*
G01*
X44004200Y51304110D02*
G75*
G02*
X44135130Y51215800I35680J-88310D01*
G01*
G75*
G02*
X44075560Y51127490I-95250J0D01*
G01*
G75*
G02*
X43944630Y51215800I-35680J88310D01*
G01*
G75*
G02*
X44004200Y51304110I95250J0D01*
G01*
X44182410Y47961760D02*
G75*
G02*
X44582650I200120J0D01*
G01*
G75*
G02*
X44182410I-200120J0D01*
G01*
X44798610Y48052080D02*
X44966250D01*
Y47884440D01*
X44798610D01*
Y48052080D01*
X44894930Y51338010D02*
G75*
G02*
X44990180Y51242760I0J-95250D01*
G01*
G75*
G02*
X44894930Y51147510I-95250J0D01*
G01*
G75*
G02*
X44799680Y51242760I0J95250D01*
G01*
G75*
G02*
X44894930Y51338010I95250J0D01*
G01*
X44799680Y51084010D02*
X44990180D01*
Y50893510D01*
X44799680D01*
Y51084010D01*
X45052610Y48052080D02*
X45220250D01*
Y47884440D01*
X45052610D01*
Y48052080D01*
X45148930Y51084010D02*
G75*
G02*
X45244180Y50988760I0J-95250D01*
G01*
G75*
G02*
X45148930Y50893510I-95250J0D01*
G01*
G75*
G02*
X45053680Y50988760I0J95250D01*
G01*
G75*
G02*
X45148930Y51084010I95250J0D01*
G01*
Y51338010D02*
G75*
G02*
X45244180Y51242760I0J-95250D01*
G01*
G75*
G02*
X45148930Y51147510I-95250J0D01*
G01*
G75*
G02*
X45053680Y51242760I0J95250D01*
G01*
G75*
G02*
X45148930Y51338010I95250J0D01*
G01*
X45306610Y48052080D02*
X45474250D01*
Y47884440D01*
X45306610D01*
Y48052080D01*
X45402930Y51084010D02*
G75*
G02*
X45498180Y50988760I0J-95250D01*
G01*
G75*
G02*
X45402930Y50893510I-95250J0D01*
G01*
G75*
G02*
X45307680Y50988760I0J95250D01*
G01*
G75*
G02*
X45402930Y51084010I95250J0D01*
G01*
Y51338010D02*
G75*
G02*
X45498180Y51242760I0J-95250D01*
G01*
G75*
G02*
X45402930Y51147510I-95250J0D01*
G01*
G75*
G02*
X45307680Y51242760I0J95250D01*
G01*
G75*
G02*
X45402930Y51338010I95250J0D01*
G01*
X45560610Y48052080D02*
X45728250D01*
Y47884440D01*
X45560610D01*
Y48052080D01*
X45656930Y51084010D02*
G75*
G02*
X45752180Y50988760I0J-95250D01*
G01*
G75*
G02*
X45656930Y50893510I-95250J0D01*
G01*
G75*
G02*
X45561680Y50988760I0J95250D01*
G01*
G75*
G02*
X45656930Y51084010I95250J0D01*
G01*
Y51338010D02*
G75*
G02*
X45752180Y51242760I0J-95250D01*
G01*
G75*
G02*
X45656930Y51147510I-95250J0D01*
G01*
G75*
G02*
X45561680Y51242760I0J95250D01*
G01*
G75*
G02*
X45656930Y51338010I95250J0D01*
G01*
X42131820Y39970260D02*
G36*
X42131820Y39970260D02*
G75*
G03*
X42771480Y39593110I3638180J5439470D01*
G01*
X43763580D01*
Y39970260D01*
X43545640D01*
G75*
G02*
X43545900Y39964280I-68150J-5960D01*
G01*
G75*
G02*
Y39964260I-95490J-10D01*
G01*
G75*
G02*
Y39964240I-95490J-10D01*
G01*
G75*
G02*
X43477430Y39895790I-68470J0D01*
G01*
G75*
G02*
X43408960Y39964240I0J68450D01*
G01*
G75*
G02*
Y39964260I95490J10D01*
G01*
G75*
G02*
Y39964280I95490J10D01*
G01*
G75*
G02*
X43409220Y39970260I68410J20D01*
G01*
X43037640D01*
G75*
G02*
X43037900Y39964280I-68150J-5960D01*
G01*
G75*
G02*
Y39964260I-95490J-10D01*
G01*
G75*
G02*
Y39964240I-95490J-10D01*
G01*
G75*
G02*
X42969430Y39895790I-68470J0D01*
G01*
G75*
G02*
X42900960Y39964240I0J68450D01*
G01*
G75*
G02*
Y39964260I95490J10D01*
G01*
G75*
G02*
Y39964280I95490J10D01*
G01*
G75*
G02*
X42901220Y39970260I68410J20D01*
G01*
X42131820D01*
G37*
X47776280D02*
G36*
X47776280Y39970260D02*
Y39593110D01*
X48768380D01*
G75*
G03*
X49408000Y39970260I-2998540J5816270D01*
G01*
X48699750D01*
G75*
G02*
X48432110I-133820J0D01*
G01*
X48175750D01*
G75*
G02*
X47908110I-133820J0D01*
G01*
X47776280D01*
G37*
X41431880Y40510260D02*
G36*
X41431880Y40510260D02*
G75*
G03*
X42131820Y39970260I4338170J4899440D01*
G01*
X42901220D01*
G75*
G02*
X42969430Y40032730I68190J-5990D01*
G01*
G75*
G02*
X43037640Y39970260I20J-68460D01*
G01*
X43409220D01*
G75*
G02*
X43477430Y40032730I68190J-5990D01*
G01*
G75*
G02*
X43545640Y39970260I20J-68460D01*
G01*
X43763580D01*
Y40510260D01*
X41431880D01*
G37*
X47776280D02*
G36*
X47776280Y40510260D02*
Y39970260D01*
X47908110D01*
G75*
G02*
X48175750I133820J0D01*
G01*
X48432110D01*
G75*
G02*
X48699750I133820J0D01*
G01*
X49408000D01*
G75*
G03*
X50107910Y40510260I-3638240J5439220D01*
G01*
X48694550D01*
G75*
G02*
Y40510250I-190990J0D01*
G01*
G75*
G02*
X48574430Y40390140I-120120J0D01*
G01*
G75*
G02*
X48454310Y40510250I0J120110D01*
G01*
G75*
G02*
Y40510260I190990J10D01*
G01*
X48186550D01*
G75*
G02*
Y40510250I-190990J0D01*
G01*
G75*
G02*
X48066430Y40390140I-120120J0D01*
G01*
G75*
G02*
X47946310Y40510250I0J120110D01*
G01*
G75*
G02*
Y40510260I190990J10D01*
G01*
X47776280D01*
G37*
X40714710Y41254260D02*
G36*
X40714710Y41254260D02*
G75*
G03*
X41431880Y40510260I5055420J4155460D01*
G01*
X43763580D01*
Y41254260D01*
X42989050D01*
Y41133140D01*
G75*
G02*
Y41133130I-114590J0D01*
G01*
G75*
G02*
X42839050Y40983140I-150000J0D01*
G01*
X42623810D01*
G75*
G02*
X42473810Y41133130I0J149990D01*
G01*
G75*
G02*
Y41133140I114590J10D01*
G01*
Y41254260D01*
X40714710D01*
G37*
X47776280D02*
G36*
X47776280Y41254260D02*
Y40510260D01*
X47946310D01*
G75*
G02*
Y40510270I190990J10D01*
G01*
G75*
G02*
X48066430Y40630380I120120J0D01*
G01*
G75*
G02*
X48186550Y40510270I0J-120110D01*
G01*
G75*
G02*
Y40510260I-190990J0D01*
G01*
X48454310D01*
G75*
G02*
Y40510270I190990J10D01*
G01*
G75*
G02*
X48574430Y40630380I120120J0D01*
G01*
G75*
G02*
X48694550Y40510270I0J-120110D01*
G01*
G75*
G02*
Y40510260I-190990J0D01*
G01*
X50107910D01*
G75*
G03*
X50825060Y41254260I-4338260J4899330D01*
G01*
X49065550D01*
Y41146640D01*
G75*
G02*
Y41146630I-114590J0D01*
G01*
G75*
G02*
X48915550Y40996640I-150000J0D01*
G01*
X48700310D01*
G75*
G02*
X48550310Y41146630I0J149990D01*
G01*
G75*
G02*
Y41146640I114590J10D01*
G01*
Y41254260D01*
X47776280D01*
G37*
X40253030Y41890260D02*
G36*
X40253030Y41890260D02*
G75*
G03*
X40714710Y41254260I5517150J3519400D01*
G01*
X42473810D01*
Y41348380D01*
G75*
G02*
Y41348390I114590J10D01*
G01*
G75*
G02*
X42623810Y41498380I150000J0D01*
G01*
X42839050D01*
G75*
G02*
X42989050Y41348390I0J-149990D01*
G01*
G75*
G02*
Y41348380I-114590J0D01*
G01*
Y41254260D01*
X43763580D01*
Y41890260D01*
X40253030D01*
G37*
X47776280D02*
G36*
X47776280Y41890260D02*
Y41254260D01*
X48550310D01*
Y41361880D01*
G75*
G02*
Y41361890I114590J10D01*
G01*
G75*
G02*
X48700310Y41511880I150000J0D01*
G01*
X48915550D01*
G75*
G02*
X49065550Y41361890I0J-149990D01*
G01*
G75*
G02*
Y41361880I-114590J0D01*
G01*
Y41254260D01*
X50825060D01*
G75*
G03*
X51286730Y41890260I-5055480J4155310D01*
G01*
X49349550D01*
Y41850240D01*
X49184310D01*
Y41890260D01*
X48534550D01*
Y41850140D01*
X48404310D01*
Y41890260D01*
X47949550D01*
Y41850140D01*
X47804310D01*
Y41890260D01*
X47776280D01*
G37*
X40077580Y42181760D02*
G36*
X40077580Y42181760D02*
G75*
G03*
X40253030Y41890260I5692950J3227960D01*
G01*
X43763580D01*
Y42181760D01*
X40077580D01*
G37*
X47776280D02*
G36*
X47776280Y42181760D02*
Y41890260D01*
X47804310D01*
Y41930380D01*
X47949550D01*
Y41890260D01*
X48404310D01*
Y41925380D01*
X48534550D01*
Y41890260D01*
X49184310D01*
Y41981480D01*
X49349550D01*
Y41890260D01*
X51286730D01*
G75*
G03*
X51462180Y42181760I-5517500J3519460D01*
G01*
X49613750D01*
Y42097940D01*
X49446110D01*
Y42181760D01*
X47776280D01*
G37*
X39965080Y42388760D02*
G36*
X39965080Y42388760D02*
G75*
G03*
X40077580Y42181760I5807440J3022140D01*
G01*
X43763580D01*
Y42388760D01*
X39965080D01*
G37*
X47776280D02*
G36*
X47776280Y42388760D02*
Y42181760D01*
X49446110D01*
Y42265580D01*
X49613750D01*
Y42181760D01*
X51462180D01*
G75*
G03*
X51574670Y42388760I-5694940J3228870D01*
G01*
X49109550D01*
Y42348640D01*
X48964310D01*
Y42388760D01*
X47776280D01*
G37*
X39909100Y42498860D02*
G36*
X39909100Y42498860D02*
G75*
G03*
X39965080Y42388760I5863400J2911950D01*
G01*
X43763580D01*
Y42498860D01*
X39909100D01*
G37*
X47776280D02*
G36*
X47776280Y42498860D02*
Y42388760D01*
X48964310D01*
Y42428880D01*
X49109550D01*
Y42388760D01*
X51574670D01*
G75*
G03*
X51630650Y42498860I-5807420J3022050D01*
G01*
X49109550D01*
Y42458740D01*
X48964310D01*
Y42498860D01*
X47776280D01*
G37*
X39855750Y42608860D02*
G36*
X39855750Y42608860D02*
G75*
G03*
X39909100Y42498860I5916720J2801670D01*
G01*
X43763580D01*
Y42608860D01*
X39855750D01*
G37*
X47776280D02*
G36*
X47776280Y42608860D02*
Y42498860D01*
X48964310D01*
Y42538980D01*
X49109550D01*
Y42498860D01*
X51630650D01*
G75*
G03*
X51684000Y42608860I-5863370J2911670D01*
G01*
X49109550D01*
Y42568740D01*
X48964310D01*
Y42608860D01*
X47776280D01*
G37*
X39804900Y42718860D02*
G36*
X39804900Y42718860D02*
G75*
G03*
X39855750Y42608860I5965440J2690910D01*
G01*
X43763580D01*
Y42718860D01*
X39804900D01*
G37*
X47776280D02*
G36*
X47776280Y42718860D02*
Y42608860D01*
X48964310D01*
Y42648980D01*
X49109550D01*
Y42608860D01*
X51684000D01*
G75*
G03*
X51734850Y42718860I-5914590J2800910D01*
G01*
X49109550D01*
Y42678740D01*
X48964310D01*
Y42718860D01*
X47776280D01*
G37*
X39756500Y42828860D02*
G36*
X39756500Y42828860D02*
G75*
G03*
X39804900Y42718860I6015040J2580970D01*
G01*
X43763580D01*
Y42828860D01*
X39756500D01*
G37*
X47776280D02*
G36*
X47776280Y42828860D02*
Y42718860D01*
X48964310D01*
Y42758980D01*
X49109550D01*
Y42718860D01*
X51734850D01*
G75*
G03*
X51783250Y42828860I-5966640J2690970D01*
G01*
X49109550D01*
Y42788740D01*
X48964310D01*
Y42828860D01*
X47776280D01*
G37*
X39710480Y42938860D02*
G36*
X39710480Y42938860D02*
G75*
G03*
X39756500Y42828860I6059750J2470550D01*
G01*
X43763580D01*
Y42938860D01*
X39710480D01*
G37*
X47776280D02*
G36*
X47776280Y42938860D02*
Y42828860D01*
X48964310D01*
Y42868980D01*
X49109550D01*
Y42828860D01*
X51783250D01*
G75*
G03*
X51829270Y42938860I-6013730J2580550D01*
G01*
X49109550D01*
Y42898740D01*
X48964310D01*
Y42938860D01*
X47776280D01*
G37*
X39666780Y43048860D02*
G36*
X39666780Y43048860D02*
G75*
G03*
X39710480Y42938860I6105210J2361750D01*
G01*
X43763580D01*
Y43048860D01*
X40412750D01*
Y43000940D01*
X40245110D01*
Y43048860D01*
X39666780D01*
G37*
X47776280D02*
G36*
X47776280Y43048860D02*
Y42938860D01*
X48964310D01*
Y42978980D01*
X49109550D01*
Y42938860D01*
X51829270D01*
G75*
G03*
X51872970Y43048860I-6061510J2471750D01*
G01*
X49109550D01*
Y43008740D01*
X48964310D01*
Y43048860D01*
X47776280D01*
G37*
X39625370Y43158860D02*
G36*
X39625370Y43158860D02*
G75*
G03*
X39666780Y43048860I6145450J2250690D01*
G01*
X40245110D01*
Y43158860D01*
X39625370D01*
G37*
X40412750D02*
G36*
X40412750Y43158860D02*
Y43048860D01*
X43763580D01*
Y43158860D01*
X40412750D01*
G37*
X47776280D02*
G36*
X47776280Y43158860D02*
Y43048860D01*
X48964310D01*
Y43088980D01*
X49109550D01*
Y43048860D01*
X51872970D01*
G75*
G03*
X51914380Y43158860I-6104040J2360690D01*
G01*
X49109550D01*
Y43118740D01*
X48964310D01*
Y43158860D01*
X47776280D01*
G37*
X39590880Y43255360D02*
G36*
X39590880Y43255360D02*
G75*
G03*
X39625370Y43158860I6181050J2154750D01*
G01*
X40245110D01*
Y43168580D01*
X40412750D01*
Y43158860D01*
X43763580D01*
Y43255360D01*
X39590880D01*
G37*
X47776280D02*
G36*
X47776280Y43255360D02*
Y43158860D01*
X48964310D01*
Y43198980D01*
X49109550D01*
Y43158860D01*
X51914380D01*
G75*
G03*
X51948870Y43255360I-6146560J2251250D01*
G01*
X49339550D01*
Y43170140D01*
X49144310D01*
Y43255360D01*
X48693550D01*
Y43240240D01*
X48464310D01*
Y43255360D01*
X48158550D01*
Y43240240D01*
X47983310D01*
Y43255360D01*
X47945830D01*
Y43190590D01*
X47895030D01*
Y43255360D01*
X47879830D01*
Y43190590D01*
X47829030D01*
Y43255360D01*
X47776280D01*
G37*
X39553170Y43366760D02*
G36*
X39553170Y43366760D02*
G75*
G03*
X39590880Y43255360I6221550J2043980D01*
G01*
X43763580D01*
Y43366760D01*
X39553170D01*
G37*
X47776280D02*
G36*
X47776280Y43366760D02*
Y43255360D01*
X47829030D01*
Y43320130D01*
X47879830D01*
Y43255360D01*
X47895030D01*
Y43320130D01*
X47945830D01*
Y43255360D01*
X47983310D01*
Y43320480D01*
X48158550D01*
Y43255360D01*
X48464310D01*
Y43320480D01*
X48693550D01*
Y43255360D01*
X49144310D01*
Y43320380D01*
X49339550D01*
Y43255360D01*
X51948870D01*
G75*
G03*
X51986580Y43366760I-6183840J2155380D01*
G01*
X51318750D01*
Y43282940D01*
X51151110D01*
Y43366760D01*
X47776280D01*
G37*
X39314870Y44335760D02*
G36*
X39314870Y44335760D02*
G75*
G03*
X39553170Y43366760I6455550J1073770D01*
G01*
X43763580D01*
Y44335760D01*
X41843250D01*
Y44251940D01*
X41675610D01*
Y44335760D01*
X39314870D01*
G37*
X47776280D02*
G36*
X47776280Y44335760D02*
Y43366760D01*
X51151110D01*
Y43450580D01*
X51318750D01*
Y43366760D01*
X51986580D01*
G75*
G03*
X52224880Y44335760I-6217250J2042770D01*
G01*
X47776280D01*
G37*
X39262740Y44718760D02*
G36*
X39262740Y44718760D02*
G75*
G03*
X39314870Y44335760I6508900J690880D01*
G01*
X41675610D01*
Y44419580D01*
X41843250D01*
Y44335760D01*
X43763580D01*
Y44718760D01*
X39262740D01*
G37*
X47776280D02*
G36*
X47776280Y44718760D02*
Y44335760D01*
X52224880D01*
G75*
G03*
X52277010Y44718760I-6456770J1073880D01*
G01*
X48936050D01*
G75*
G02*
X48695810I-120120J0D01*
G01*
X47776280D01*
G37*
X39246150Y44898760D02*
G36*
X39246150Y44898760D02*
G75*
G03*
X39262740Y44718760I6527000J510810D01*
G01*
X43763580D01*
Y44898760D01*
X40477850D01*
G75*
G02*
Y44898750I-52090J0D01*
G01*
G75*
G02*
X40404430Y44825340I-73420J0D01*
G01*
G75*
G02*
X40331010Y44898750I0J73410D01*
G01*
G75*
G02*
Y44898760I52090J10D01*
G01*
X39972850D01*
G75*
G02*
Y44898750I-52090J0D01*
G01*
G75*
G02*
X39899430Y44825340I-73420J0D01*
G01*
G75*
G02*
X39826010Y44898750I0J73410D01*
G01*
G75*
G02*
Y44898760I52090J10D01*
G01*
X39246150D01*
G37*
X47776280D02*
G36*
X47776280Y44898760D02*
Y44718760D01*
X48695810D01*
G75*
G02*
X48936050I120120J0D01*
G01*
X52277010D01*
G75*
G03*
X52293600Y44898760I-6510410J690810D01*
G01*
X47776280D01*
G37*
X39228830Y45223760D02*
G36*
X39228830Y45223760D02*
G75*
G03*
X39246150Y44898760I6541040J185630D01*
G01*
X39826010D01*
G75*
G02*
Y44898770I52090J10D01*
G01*
G75*
G02*
X39899430Y44972180I73420J0D01*
G01*
G75*
G02*
X39972850Y44898770I0J-73410D01*
G01*
G75*
G02*
Y44898760I-52090J0D01*
G01*
X40331010D01*
G75*
G02*
Y44898770I52090J10D01*
G01*
G75*
G02*
X40404430Y44972180I73420J0D01*
G01*
G75*
G02*
X40477850Y44898770I0J-73410D01*
G01*
G75*
G02*
Y44898760I-52090J0D01*
G01*
X43763580D01*
Y45223760D01*
X39228830D01*
G37*
X47773780D02*
G36*
X47773780Y45223760D02*
Y45156810D01*
G75*
G02*
X47776280Y45151760I-3850J-5050D01*
G01*
Y44898760D01*
X52293600D01*
G75*
G03*
X52310920Y45223760I-6526020J510750D01*
G01*
X50286430D01*
G75*
G02*
X50138430I-74000J111510D01*
G01*
X49762430D01*
G75*
G02*
X49614430I-74000J111510D01*
G01*
X48936050D01*
G75*
G02*
X48695810I-120120J0D01*
G01*
X47773780D01*
G37*
X39226200Y45409390D02*
G36*
X39226200Y45409390D02*
Y45409340D01*
G75*
G03*
X39228830Y45223760I6544230J-70D01*
G01*
X43763580D01*
Y45446260D01*
X40848250D01*
G75*
G02*
X40580610I-133820J0D01*
G01*
X40324250D01*
G75*
G02*
X40056610I-133820J0D01*
G01*
X39226300D01*
G75*
G03*
X39226200Y45409440I6551580J-36200D01*
G01*
Y45409390D01*
G37*
X47773780Y45446260D02*
G36*
X47773780Y45446260D02*
Y45223760D01*
X48695810D01*
G75*
G02*
X48936050I120120J0D01*
G01*
X49614430D01*
G75*
G02*
X49554610Y45335260I74000J111500D01*
G01*
G75*
G02*
X49613690Y45446260I133820J-10D01*
G01*
X47773780D01*
G37*
X49822250Y45335260D02*
G36*
X49822250Y45335260D02*
G75*
G02*
X49762430Y45223760I-133820J0D01*
G01*
X50138430D01*
G75*
G02*
X50078610Y45335260I74000J111500D01*
G01*
G75*
G02*
X50137690Y45446260I133820J-10D01*
G01*
X49763170D01*
G75*
G02*
X49822250Y45335260I-74740J-111010D01*
G01*
G37*
X50346250D02*
G36*
X50346250Y45335260D02*
G75*
G02*
X50286430Y45223760I-133820J0D01*
G01*
X52310920D01*
G75*
G03*
X52313550Y45409360I-6542310J185520D01*
G01*
G75*
G03*
X52313450Y45446260I-6545590J710D01*
G01*
X50287170D01*
G75*
G02*
X50346250Y45335260I-74740J-111010D01*
G01*
G37*
X39420390Y46991760D02*
G36*
X39420390Y46991760D02*
G75*
G03*
X39226300Y45446260I6349460J-1582330D01*
G01*
X40056610D01*
G75*
G02*
X40324250I133820J0D01*
G01*
X40580610D01*
G75*
G02*
X40848250I133820J0D01*
G01*
X43763580D01*
Y45516760D01*
G75*
G02*
X44527210Y46991760I1806360J-10D01*
G01*
X39420390D01*
G37*
X47773780Y45516760D02*
G36*
X47773780Y45516760D02*
Y45446260D01*
X49613690D01*
G75*
G02*
X49763170I74740J-110990D01*
G01*
X50137690D01*
G75*
G02*
X50287170I74740J-110990D01*
G01*
X52313450D01*
G75*
G03*
X52119340Y46991760I-6544030J-36970D01*
G01*
X51349550D01*
G75*
G02*
X51184310I-82620J0D01*
G01*
X50899550D01*
G75*
G02*
X50734310I-82620J0D01*
G01*
X47010150D01*
G75*
G02*
X47773780Y45516760I-1042730J-1475010D01*
G01*
G37*
X39618750Y47641760D02*
G36*
X39618750Y47641760D02*
G75*
G03*
X39420390Y46991760I6151240J-2232440D01*
G01*
X44527210D01*
G75*
G02*
X45569930Y47323110I1042730J-1475030D01*
G01*
X45967430D01*
G75*
G02*
X47010150Y46991760I-10J-1806380D01*
G01*
X50734310D01*
G75*
G02*
X50899550I82620J0D01*
G01*
X51184310D01*
G75*
G02*
X51349550I82620J0D01*
G01*
X52119340D01*
G75*
G03*
X51920970Y47641760I-6349600J-1582530D01*
G01*
X51349550D01*
G75*
G02*
X51184310I-82620J0D01*
G01*
X50899550D01*
G75*
G02*
X50734310I-82620J0D01*
G01*
X39618750D01*
G37*
X39650260Y47726760D02*
G36*
X39650260Y47726760D02*
G75*
G03*
X39618750Y47641760I6125560J-2319120D01*
G01*
X50734310D01*
G75*
G02*
X50899550I82620J0D01*
G01*
X51184310D01*
G75*
G02*
X51349550I82620J0D01*
G01*
X51920970D01*
G75*
G03*
X51889460Y47726760I-6157070J-2234120D01*
G01*
X50208750D01*
Y47642940D01*
X50041110D01*
Y47726760D01*
X39650260D01*
G37*
X39747250Y47968260D02*
G36*
X39747250Y47968260D02*
G75*
G03*
X39650260Y47726760I6024860J-2559900D01*
G01*
X50041110D01*
Y47810580D01*
X50208750D01*
Y47726760D01*
X51889460D01*
G75*
G03*
X51792470Y47968260I-6121850J-2318400D01*
G01*
X50208750D01*
Y47896940D01*
X50041110D01*
Y47968260D01*
X47360440D01*
G75*
G02*
X47360550Y47961760I-200050J-6640D01*
G01*
G75*
G02*
X46960310I-200120J0D01*
G01*
G75*
G02*
X46960420Y47968260I200160J-140D01*
G01*
X46744250D01*
Y47884440D01*
X46576610D01*
Y47968260D01*
X46490250D01*
Y47884440D01*
X46322610D01*
Y47968260D01*
X46236250D01*
Y47884440D01*
X46068610D01*
Y47968260D01*
X45982250D01*
Y47884440D01*
X45814610D01*
Y47968260D01*
X45728250D01*
Y47884440D01*
X45560610D01*
Y47968260D01*
X45474250D01*
Y47884440D01*
X45306610D01*
Y47968260D01*
X45220250D01*
Y47884440D01*
X45052610D01*
Y47968260D01*
X44966250D01*
Y47884440D01*
X44798610D01*
Y47968260D01*
X44582540D01*
G75*
G02*
X44582650Y47961760I-200050J-6640D01*
G01*
G75*
G02*
X44182410I-200120J0D01*
G01*
G75*
G02*
X44182520Y47968260I200160J-140D01*
G01*
X39747250D01*
G37*
X39867570Y48234760D02*
G36*
X39867570Y48234760D02*
G75*
G03*
X39747250Y47968260I5903430J-2825700D01*
G01*
X44182520D01*
G75*
G02*
X44582540I200010J-6500D01*
G01*
X44798610D01*
Y48052080D01*
X44966250D01*
Y47968260D01*
X45052610D01*
Y48052080D01*
X45220250D01*
Y47968260D01*
X45306610D01*
Y48052080D01*
X45474250D01*
Y47968260D01*
X45560610D01*
Y48052080D01*
X45728250D01*
Y47968260D01*
X45814610D01*
Y48052080D01*
X45982250D01*
Y47968260D01*
X46068610D01*
Y48052080D01*
X46236250D01*
Y47968260D01*
X46322610D01*
Y48052080D01*
X46490250D01*
Y47968260D01*
X46576610D01*
Y48052080D01*
X46744250D01*
Y47968260D01*
X46960420D01*
G75*
G02*
X47360440I200010J-6500D01*
G01*
X50041110D01*
Y48064580D01*
X50208750D01*
Y47968260D01*
X51792470D01*
G75*
G03*
X51672140Y48234760I-6023750J-2559430D01*
G01*
X50208750D01*
Y48150940D01*
X50041110D01*
Y48234760D01*
X39867570D01*
G37*
X39996020Y48488760D02*
G36*
X39996020Y48488760D02*
G75*
G03*
X39867570Y48234760I5774790J-3079840D01*
G01*
X50041110D01*
Y48318580D01*
X50208750D01*
Y48234760D01*
X51672140D01*
G75*
G03*
X51543690Y48488760I-5903240J-2825840D01*
G01*
X51095850D01*
Y48342640D01*
X50928210D01*
Y48488760D01*
X50208750D01*
Y48404940D01*
X50041110D01*
Y48488760D01*
X42154640D01*
G75*
G02*
X42163840Y48451540I-70720J-37230D01*
G01*
G75*
G02*
Y48451530I-71620J0D01*
G01*
G75*
G02*
X42140430Y48395030I-79880J0D01*
G01*
G75*
G02*
X42004000Y48451540I-56510J56520D01*
G01*
G75*
G02*
Y48451550I71620J10D01*
G01*
G75*
G02*
X42013190Y48488760I79880J10D01*
G01*
X41588130D01*
G75*
G02*
X41572940Y48470370I-103790J70260D01*
G01*
G75*
G02*
X41380450Y48488760I-88650J88650D01*
G01*
X39996020D01*
G37*
X40074240Y48631140D02*
G36*
X40074240Y48631140D02*
G75*
G03*
X39996020Y48488760I5697430J-3222700D01*
G01*
X41380450D01*
G75*
G02*
X41358920Y48559010I103830J70250D01*
G01*
G75*
G02*
Y48559020I286480J10D01*
G01*
G75*
G02*
Y48559040I127320J10D01*
G01*
G75*
G02*
X41381740Y48631140I125320J0D01*
G01*
X40074240D01*
G37*
X41609660Y48559030D02*
G36*
X41609660Y48559030D02*
G75*
G02*
Y48559020I-286480J0D01*
G01*
G75*
G02*
Y48559000I-127320J-10D01*
G01*
G75*
G02*
X41588130Y48488760I-125320J-10D01*
G01*
X42013190D01*
G75*
G02*
X42027410Y48508050I70690J-37220D01*
G01*
G75*
G02*
X42154640Y48488760I56510J-56520D01*
G01*
X50041110D01*
Y48572580D01*
X50208750D01*
Y48488760D01*
X50928210D01*
Y48510280D01*
X51095850D01*
Y48488760D01*
X51543690D01*
G75*
G03*
X51465460Y48631140I-5775650J-3080720D01*
G01*
X51095850D01*
Y48596640D01*
X50928210D01*
Y48631140D01*
X42343440D01*
G75*
G02*
Y48631130I-71620J0D01*
G01*
G75*
G02*
X42320030Y48574630I-79880J0D01*
G01*
G75*
G02*
X42183600Y48631140I-56510J56520D01*
G01*
X41586840D01*
G75*
G02*
X41609660Y48559030I-102540J-72120D01*
G01*
G37*
X40138840Y48742760D02*
G36*
X40138840Y48742760D02*
G75*
G03*
X40074240Y48631140I5632140J-3334100D01*
G01*
X41381740D01*
G75*
G02*
X41395640Y48647670I102500J-72090D01*
G01*
G75*
G02*
X41586840Y48631140I88650J-88640D01*
G01*
X42183600D01*
G75*
G02*
Y48631150I71620J10D01*
G01*
G75*
G02*
X42207010Y48687650I79880J0D01*
G01*
G75*
G02*
X42343440Y48631140I56510J-56520D01*
G01*
X50928210D01*
Y48742760D01*
X50208750D01*
Y48658940D01*
X50041110D01*
Y48742760D01*
X42485130D01*
G75*
G02*
X42401140I-41990J68000D01*
G01*
X42070990D01*
G75*
G02*
X42074030Y48720940I-76880J-21830D01*
G01*
G75*
G02*
Y48720930I-71620J0D01*
G01*
G75*
G02*
X42050620Y48664430I-79880J0D01*
G01*
G75*
G02*
X41914190Y48720940I-56510J56520D01*
G01*
G75*
G02*
Y48720950I71620J10D01*
G01*
G75*
G02*
X41917220Y48742760I79890J20D01*
G01*
X40138840D01*
G37*
X51095850D02*
G36*
X51095850Y48742760D02*
Y48631140D01*
X51465460D01*
G75*
G03*
X51400860Y48742760I-5696740J-3222480D01*
G01*
X51095850D01*
G37*
X40235280Y48900550D02*
G36*
X40235280Y48900550D02*
G75*
G03*
X40138840Y48742760I5535540J-3491640D01*
G01*
X41917220D01*
G75*
G02*
X41937600Y48777450I76850J-21820D01*
G01*
G75*
G02*
X42070990Y48742760I56510J-56520D01*
G01*
X42401140D01*
G75*
G02*
X42363210Y48810750I41990J68000D01*
G01*
G75*
G02*
Y48810760I71620J10D01*
G01*
G75*
G02*
X42386620Y48867260I79880J0D01*
G01*
G75*
G02*
X42523050Y48810750I56510J-56520D01*
G01*
G75*
G02*
Y48810740I-71620J0D01*
G01*
G75*
G02*
X42499640Y48754240I-79880J0D01*
G01*
G75*
G02*
X42485130Y48742760I-56510J56510D01*
G01*
X50041110D01*
Y48826580D01*
X50208750D01*
Y48742760D01*
X50928210D01*
Y48764280D01*
X51095850D01*
Y48742760D01*
X51400860D01*
G75*
G03*
X51304420Y48900550I-5631980J-3333850D01*
G01*
X42253640D01*
G75*
G02*
Y48900540I-71620J0D01*
G01*
G75*
G02*
X42230230Y48844040I-79880J0D01*
G01*
G75*
G02*
X42093800Y48900550I-56510J56520D01*
G01*
X40235280D01*
G37*
X40292960Y48990350D02*
G36*
X40292960Y48990350D02*
G75*
G03*
X40235280Y48900550I5479780J-3583170D01*
G01*
X42093800D01*
G75*
G02*
Y48900560I71620J10D01*
G01*
G75*
G02*
X42117210Y48957060I79880J0D01*
G01*
G75*
G02*
X42253640Y48900550I56510J-56520D01*
G01*
X51304420D01*
G75*
G03*
X51246750Y48990350I-5537450J-3492760D01*
G01*
X42702650D01*
G75*
G02*
Y48990340I-71620J0D01*
G01*
G75*
G02*
X42679240Y48933840I-79880J0D01*
G01*
G75*
G02*
X42542810Y48990350I-56510J56520D01*
G01*
X41453120D01*
G75*
G02*
X41427460Y48928390I-87660J10D01*
G01*
G75*
G02*
X41277880Y48990350I-61960J61960D01*
G01*
X40292960D01*
G37*
X40352730Y49080150D02*
G36*
X40352730Y49080150D02*
G75*
G03*
X40292960Y48990350I5420370J-3672540D01*
G01*
X41277880D01*
G75*
G02*
X41303540Y49052310I87660J-10D01*
G01*
G75*
G02*
X41453120Y48990350I61960J-61960D01*
G01*
X42542810D01*
G75*
G02*
Y48990360I71620J10D01*
G01*
G75*
G02*
X42566220Y49046860I79880J0D01*
G01*
G75*
G02*
X42702650Y48990350I56510J-56520D01*
G01*
X51246750D01*
G75*
G03*
X51186970Y49080150I-5480150J-3583350D01*
G01*
X42433240D01*
G75*
G02*
Y49080140I-71620J0D01*
G01*
G75*
G02*
X42409830Y49023640I-79880J0D01*
G01*
G75*
G02*
X42273400Y49080150I-56510J56520D01*
G01*
X40352730D01*
G37*
X40463000Y49237840D02*
G36*
X40463000Y49237840D02*
G75*
G03*
X40352730Y49080150I5309660J-3830360D01*
G01*
X42273400D01*
G75*
G02*
Y49080160I71620J10D01*
G01*
G75*
G02*
X42296810Y49136660I79880J0D01*
G01*
G75*
G02*
X42433240Y49080150I56510J-56520D01*
G01*
X51186970D01*
G75*
G03*
X51076690Y49237840I-5419940J-3673010D01*
G01*
X42609790D01*
G75*
G02*
X42589440Y49203250I-76820J21910D01*
G01*
G75*
G02*
X42456080Y49237840I-56510J56520D01*
G01*
X41116860D01*
G75*
G02*
X41091930Y49177650I-85160J10D01*
G01*
G75*
G02*
X40946620Y49237840I-60190J60190D01*
G01*
X40463000D01*
G37*
X40597310Y49417440D02*
G36*
X40597310Y49417440D02*
G75*
G03*
X40463000Y49237840I5174470J-4009640D01*
G01*
X40946620D01*
G75*
G02*
X40971550Y49298030I85160J-10D01*
G01*
G75*
G02*
X41116860Y49237840I60190J-60190D01*
G01*
X42456080D01*
G75*
G02*
X42453010Y49259760I76860J21940D01*
G01*
G75*
G02*
Y49259770I71620J10D01*
G01*
G75*
G02*
X42476420Y49316270I79880J0D01*
G01*
G75*
G02*
X42612850Y49259760I56510J-56520D01*
G01*
G75*
G02*
Y49259750I-71620J0D01*
G01*
G75*
G02*
X42609790Y49237840I-79890J-10D01*
G01*
X51076690D01*
G75*
G03*
X50942390Y49417440I-5308780J-3829750D01*
G01*
X41296470D01*
G75*
G02*
X41271540Y49357250I-85160J10D01*
G01*
G75*
G02*
X41126230Y49417440I-60190J60190D01*
G01*
X40597310D01*
G37*
X40916540Y49798580D02*
G36*
X40916540Y49798580D02*
G75*
G03*
X40597310Y49417440I4853520J-4389410D01*
G01*
X41126230D01*
G75*
G02*
X41151160Y49477630I85160J-10D01*
G01*
G75*
G02*
X41296470Y49417440I60190J-60190D01*
G01*
X50942390D01*
G75*
G03*
X50623160Y49798580I-5172750J-4008270D01*
G01*
X42645120D01*
G75*
G02*
X42730420Y49679790I-40060J-118790D01*
G01*
G75*
G02*
Y49679780I-286480J0D01*
G01*
G75*
G02*
Y49679760I-127320J-10D01*
G01*
G75*
G02*
X42693700Y49591130I-125320J0D01*
G01*
G75*
G02*
X42479680Y49679770I-88650J88640D01*
G01*
G75*
G02*
Y49679780I286480J10D01*
G01*
G75*
G02*
Y49679800I127320J10D01*
G01*
G75*
G02*
X42516400Y49768430I125320J0D01*
G01*
G75*
G02*
X42564990Y49798580I88650J-88650D01*
G01*
X42261340D01*
G75*
G02*
X42235680Y49736620I-87660J10D01*
G01*
G75*
G02*
X42086100Y49798580I-61960J61960D01*
G01*
X40916540D01*
G37*
X41060520Y49952720D02*
G36*
X41060520Y49952720D02*
G75*
G03*
X40916540Y49798580I4711760J-4545510D01*
G01*
X42086100D01*
G75*
G02*
X42111760Y49860540I87660J-10D01*
G01*
G75*
G02*
X42261340Y49798580I61960J-61960D01*
G01*
X42564990D01*
G75*
G02*
X42645120I40070J-118800D01*
G01*
X50623160D01*
G75*
G03*
X50479170Y49952720I-4855750J-4391680D01*
G01*
X41831750D01*
G75*
G02*
X41806820Y49892530I-85160J10D01*
G01*
G75*
G02*
X41661510Y49952720I-60190J60190D01*
G01*
X41060520D01*
G37*
X41240670Y50132330D02*
G36*
X41240670Y50132330D02*
G75*
G03*
X41060520Y49952720I4530310J-4724080D01*
G01*
X41661510D01*
G75*
G02*
X41686440Y50012910I85160J-10D01*
G01*
G75*
G02*
X41831750Y49952720I60190J-60190D01*
G01*
X50479170D01*
G75*
G03*
X50299020Y50132330I-4710460J-4544470D01*
G01*
X42011350D01*
G75*
G02*
X41986420Y50072140I-85160J10D01*
G01*
G75*
G02*
X41841110Y50132330I-60190J60190D01*
G01*
X41240670D01*
G37*
G36*
X41240670Y50132330D02*
X41841110D01*
G75*
G02*
X41866040Y50192520I85160J-10D01*
G01*
G75*
G02*
X42011350Y50132330I60190J-60190D01*
G01*
X50299020D01*
G75*
G03*
X49611380Y50706760I-4529390J-4723260D01*
G01*
X49083550D01*
Y50599140D01*
G75*
G02*
Y50599130I-114590J0D01*
G01*
G75*
G02*
X48933550Y50449140I-150000J0D01*
G01*
X48718310D01*
G75*
G02*
X48568310Y50599130I0J149990D01*
G01*
G75*
G02*
Y50599140I114590J10D01*
G01*
Y50706760D01*
X42980050D01*
Y50599140D01*
G75*
G02*
Y50599130I-114590J0D01*
G01*
G75*
G02*
X42830050Y50449140I-150000J0D01*
G01*
X42614810D01*
G75*
G02*
X42464810Y50599130I0J149990D01*
G01*
G75*
G02*
Y50599140I114590J10D01*
G01*
Y50706760D01*
X41928300D01*
G75*
G03*
X41240670Y50132330I3841750J-5297610D01*
G01*
G37*
X42350750Y50988760D02*
G36*
X42350750Y50988760D02*
G75*
G03*
X41928300Y50706760I3419460J-5579950D01*
G01*
X42464810D01*
Y50814380D01*
G75*
G02*
Y50814390I114590J10D01*
G01*
G75*
G02*
X42614810Y50964380I150000J0D01*
G01*
X42830050D01*
G75*
G02*
X42980050Y50814390I0J-149990D01*
G01*
G75*
G02*
Y50814380I-114590J0D01*
G01*
Y50706760D01*
X48568310D01*
Y50814380D01*
G75*
G02*
Y50814390I114590J10D01*
G01*
G75*
G02*
X48718310Y50964380I150000J0D01*
G01*
X48933550D01*
G75*
G02*
X49083550Y50814390I0J-149990D01*
G01*
G75*
G02*
Y50814380I-114590J0D01*
G01*
Y50706760D01*
X49611380D01*
G75*
G03*
X49188930Y50988760I-3841910J-5297950D01*
G01*
X46768180D01*
G75*
G02*
X46672930Y50893510I-95250J0D01*
G01*
G75*
G02*
X46577680Y50988760I0J95250D01*
G01*
X46514180D01*
G75*
G02*
X46418930Y50893510I-95250J0D01*
G01*
G75*
G02*
X46323680Y50988760I0J95250D01*
G01*
X46260180D01*
G75*
G02*
X46164930Y50893510I-95250J0D01*
G01*
G75*
G02*
X46069680Y50988760I0J95250D01*
G01*
X46006180D01*
G75*
G02*
X45910930Y50893510I-95250J0D01*
G01*
G75*
G02*
X45815680Y50988760I0J95250D01*
G01*
X45752180D01*
G75*
G02*
X45656930Y50893510I-95250J0D01*
G01*
G75*
G02*
X45561680Y50988760I0J95250D01*
G01*
X45498180D01*
G75*
G02*
X45402930Y50893510I-95250J0D01*
G01*
G75*
G02*
X45307680Y50988760I0J95250D01*
G01*
X45244180D01*
G75*
G02*
X45148930Y50893510I-95250J0D01*
G01*
G75*
G02*
X45053680Y50988760I0J95250D01*
G01*
X44990180D01*
Y50893510D01*
X44799680D01*
Y50988760D01*
X43463020D01*
G75*
G02*
X43472200Y50947960I-86070J-40800D01*
G01*
G75*
G02*
X43412630Y50859650I-95270J20D01*
G01*
G75*
G02*
X43281700Y50947960I-35680J88320D01*
G01*
G75*
G02*
X43290890Y50988760I95270J-20D01*
G01*
X42350750D01*
G37*
X42804820Y51242760D02*
G36*
X42804820Y51242760D02*
G75*
G03*
X42350750Y50988760I2965560J-5834330D01*
G01*
X43290890D01*
G75*
G02*
X43341270Y51036270I86080J-40810D01*
G01*
G75*
G02*
X43463020Y50988760I35680J-88320D01*
G01*
X44799680D01*
Y51084010D01*
X44990180D01*
Y50988760D01*
X45053680D01*
G75*
G02*
X45148930Y51084010I95250J0D01*
G01*
G75*
G02*
X45244180Y50988760I0J-95250D01*
G01*
X45307680D01*
G75*
G02*
X45402930Y51084010I95250J0D01*
G01*
G75*
G02*
X45498180Y50988760I0J-95250D01*
G01*
X45561680D01*
G75*
G02*
X45656930Y51084010I95250J0D01*
G01*
G75*
G02*
X45752180Y50988760I0J-95250D01*
G01*
X45815680D01*
G75*
G02*
X45910930Y51084010I95250J0D01*
G01*
G75*
G02*
X46006180Y50988760I0J-95250D01*
G01*
X46069680D01*
G75*
G02*
X46164930Y51084010I95250J0D01*
G01*
G75*
G02*
X46260180Y50988760I0J-95250D01*
G01*
X46323680D01*
G75*
G02*
X46418930Y51084010I95250J0D01*
G01*
G75*
G02*
X46514180Y50988760I0J-95250D01*
G01*
X46577680D01*
G75*
G02*
X46672930Y51084010I95250J0D01*
G01*
G75*
G02*
X46768180Y50988760I0J-95250D01*
G01*
X49188930D01*
G75*
G03*
X48734850Y51242760I-3419630J-5580450D01*
G01*
X46768180D01*
G75*
G02*
X46672930Y51147510I-95250J0D01*
G01*
G75*
G02*
X46577680Y51242760I0J95250D01*
G01*
X46514180D01*
G75*
G02*
X46418930Y51147510I-95250J0D01*
G01*
G75*
G02*
X46323680Y51242760I0J95250D01*
G01*
X46260180D01*
G75*
G02*
X46164930Y51147510I-95250J0D01*
G01*
G75*
G02*
X46069680Y51242760I0J95250D01*
G01*
X46006180D01*
G75*
G02*
X45910930Y51147510I-95250J0D01*
G01*
G75*
G02*
X45815680Y51242760I0J95250D01*
G01*
X45752180D01*
G75*
G02*
X45656930Y51147510I-95250J0D01*
G01*
G75*
G02*
X45561680Y51242760I0J95250D01*
G01*
X45498180D01*
G75*
G02*
X45402930Y51147510I-95250J0D01*
G01*
G75*
G02*
X45307680Y51242760I0J95250D01*
G01*
X45244180D01*
G75*
G02*
X45148930Y51147510I-95250J0D01*
G01*
G75*
G02*
X45053680Y51242760I0J95250D01*
G01*
X44990180D01*
G75*
G02*
X44894930Y51147510I-95250J0D01*
G01*
G75*
G02*
X44799680Y51242760I0J95250D01*
G01*
X44131230D01*
G75*
G02*
X44135130Y51215800I-91360J-26980D01*
G01*
G75*
G02*
X44075560Y51127490I-95270J20D01*
G01*
G75*
G02*
X43944630Y51215800I-35680J88320D01*
G01*
G75*
G02*
X43948530Y51242760I95270J-20D01*
G01*
X42804820D01*
G37*
G36*
X42804820Y51242760D02*
X43948530D01*
G75*
G02*
X44004200Y51304110I91370J-26980D01*
G01*
G75*
G02*
X44131230Y51242760I35680J-88320D01*
G01*
X44799680D01*
G75*
G02*
X44894930Y51338010I95250J0D01*
G01*
G75*
G02*
X44990180Y51242760I0J-95250D01*
G01*
X45053680D01*
G75*
G02*
X45148930Y51338010I95250J0D01*
G01*
G75*
G02*
X45244180Y51242760I0J-95250D01*
G01*
X45307680D01*
G75*
G02*
X45402930Y51338010I95250J0D01*
G01*
G75*
G02*
X45498180Y51242760I0J-95250D01*
G01*
X45561680D01*
G75*
G02*
X45656930Y51338010I95250J0D01*
G01*
G75*
G02*
X45752180Y51242760I0J-95250D01*
G01*
X45815680D01*
G75*
G02*
X45910930Y51338010I95250J0D01*
G01*
G75*
G02*
X46006180Y51242760I0J-95250D01*
G01*
X46069680D01*
G75*
G02*
X46164930Y51338010I95250J0D01*
G01*
G75*
G02*
X46260180Y51242760I0J-95250D01*
G01*
X46323680D01*
G75*
G02*
X46418930Y51338010I95250J0D01*
G01*
G75*
G02*
X46514180Y51242760I0J-95250D01*
G01*
X46577680D01*
G75*
G02*
X46672930Y51338010I95250J0D01*
G01*
G75*
G02*
X46768180Y51242760I0J-95250D01*
G01*
X48734850D01*
G75*
G03*
X45769880Y51953040I-2965050J-5833650D01*
G01*
X45769820D01*
X45769770D01*
G75*
G03*
X42804820Y51242760I40J-6543650D01*
G01*
G37*
D02*
D126*
X44382530Y47961760D03*
X47160430D03*
D02*
D140*
X50816930Y46991760D03*
Y47641760D03*
X51266930Y46991760D03*
Y47641760D03*
D02*
D153*
X40328930Y43084760D03*
X41759430Y44335760D03*
X44882430Y47968260D03*
X45136430D03*
X45390430D03*
X45644430D03*
X45898430D03*
X46152430D03*
X46406430D03*
X46660430D03*
X49529930Y42181760D03*
X50124930Y47726760D03*
Y47980760D03*
Y48234760D03*
Y48488760D03*
Y48742760D03*
X51012030Y48426460D03*
Y48680460D03*
X51234930Y43366760D03*
D02*
D154*
X48066430Y40510260D03*
X48574430D03*
X48815930Y44718760D03*
Y45223760D03*
D02*
D158*
X42722430Y50706760D03*
X42731430Y41240760D03*
X48807930Y41254260D03*
X48825930Y50706760D03*
D02*
D159*
X41994110Y48720940D03*
X42083920Y48451540D03*
X42173720Y48900550D03*
X42263520Y48631140D03*
X42353320Y49080150D03*
X42443130Y48810750D03*
X42532930Y49259760D03*
X42622730Y48990350D03*
D02*
D160*
X41031740Y49237840D03*
X41211350Y49417440D03*
X41746630Y49952720D03*
X41926230Y50132330D03*
D02*
D161*
X41484290Y48559020D03*
X42605050Y49679780D03*
D02*
D162*
X41365500Y48990350D03*
X42173720Y49798580D03*
D02*
D165*
X44894930Y50988760D03*
D02*
D166*
X43376950Y50947960D03*
X44039880Y51215800D03*
X44894930Y51242760D03*
X45148930Y50988760D03*
Y51242760D03*
X45402930Y50988760D03*
Y51242760D03*
X45656930Y50988760D03*
Y51242760D03*
X45910930Y50988760D03*
Y51242760D03*
X46164930Y50988760D03*
Y51242760D03*
X46418930Y50988760D03*
Y51242760D03*
X46672930Y50988760D03*
Y51242760D03*
D02*
D167*
X40190430Y45446260D03*
X40714430D03*
X48041930Y39970260D03*
X48565930D03*
X49688430Y45335260D03*
X50212430D03*
D02*
D171*
X42969430Y39964260D03*
X43477430D03*
D02*
D173*
X39899430Y44898760D03*
X40404430D03*
D02*
D227*
X47876930Y41890260D03*
X49036930Y42388760D03*
Y42498860D03*
Y42608860D03*
Y42718860D03*
Y42828860D03*
Y42938860D03*
Y43048860D03*
Y43158860D03*
D02*
D228*
X47854430Y43255360D03*
X47920430D03*
D02*
D229*
X49241930Y43245260D03*
D02*
D230*
X48578930Y43280360D03*
D02*
D231*
X48070930D03*
D02*
D232*
X48469430Y41887760D03*
D02*
D233*
X49266930Y41915860D03*
X0Y0D02*
M02*
