G04 DesignSpark PCB Gerber Version 12.0 Build 5942*
%FSLAX35Y35*%
%MOIN*%
%ADD210R,0.00581X0.03298*%
%ADD204R,0.00581X0.05207*%
%ADD175R,0.01959X0.05404*%
%ADD189R,0.04124X0.05400*%
%ADD185R,0.04518X0.06487*%
%ADD178R,0.05000X0.05200*%
%ADD190R,0.05699X0.11802*%
%ADD182R,0.06290X0.08258*%
%ADD184R,0.06290X0.11998*%
%ADD199R,0.07865X0.08061*%
%ADD202R,0.07865X0.08455*%
%ADD206R,0.12589X0.13573*%
%ADD180R,0.23928X0.25935*%
%ADD203R,0.05207X0.00581*%
%AMT209*0 Rectangle Pad at angle 22*21,1,0.00975,0.05306,0,0,22*%
%ADD209T209*%
%ADD200R,0.04912X0.02943*%
%ADD183R,0.06290X0.03140*%
%ADD205R,0.04900X0.03400*%
%AMT196*0 Rectangle Pad at angle 45*21,1,0.04124,0.05400,0,0,45*%
%ADD196T196*%
%AMT201*0 Rectangle Pad at angle 45*21,1,0.04124,0.06487,0,0,45*%
%ADD201T201*%
%AMT194*0 Rectangle Pad at angle 45*21,1,0.04518,0.06487,0,0,45*%
%ADD194T194*%
%ADD181R,0.05400X0.04124*%
%ADD198R,0.06487X0.04124*%
%ADD187R,0.06487X0.04518*%
%AMT195*0 Rectangle Pad at angle 45*21,1,0.05000,0.05200,0,0,45*%
%ADD195T195*%
%ADD193R,0.05200X0.05000*%
%ADD179R,0.08376X0.05400*%
%ADD191R,0.05817X0.05424*%
%ADD207R,0.08061X0.07865*%
%ADD208R,0.08455X0.07865*%
%ADD177R,0.15739X0.07865*%
%ADD176R,0.11605X0.09636*%
%AMT188*0 Rectangle Pad at angle 135*21,1,0.01172,0.06487,0,0,135*%
%ADD188T188*%
%AMT197*0 Rectangle Pad at angle 135*21,1,0.03400,0.04900,0,0,135*%
%ADD197T197*%
%AMT186*0 Rectangle Pad at angle 135*21,1,0.04124,0.05400,0,0,135*%
%ADD186T186*%
%ADD192R,0.13573X0.12589*%
X0Y0D02*
D02*
D175*
X90624Y60262D03*
Y81616D03*
X95624Y60262D03*
Y81616D03*
X100624Y60262D03*
Y81616D03*
X105624Y60262D03*
Y81616D03*
X414837Y84573D03*
Y105927D03*
X419837Y84573D03*
Y105927D03*
X424837Y84573D03*
Y105927D03*
X429837Y84573D03*
Y105927D03*
D02*
D176*
X98124Y70939D03*
X422337Y95250D03*
D02*
D177*
X128478Y105880D03*
Y158537D03*
X161943Y105880D03*
Y158537D03*
X349502Y105880D03*
X351864Y158970D03*
X382967Y105880D03*
X385329Y158970D03*
D02*
D178*
X79738Y70014D03*
Y79502D03*
X115506Y42986D03*
Y52474D03*
X187297Y424719D03*
Y434207D03*
X221963Y414581D03*
Y424069D03*
X231805Y414187D03*
Y423675D03*
X351510Y263656D03*
Y273144D03*
X351530Y245230D03*
Y254719D03*
X359699Y263686D03*
Y273174D03*
X359797Y245191D03*
Y254679D03*
X404443Y84581D03*
Y94069D03*
X405722Y34108D03*
Y43596D03*
X420742Y60998D03*
Y70486D03*
X486411Y298557D03*
Y308045D03*
D02*
D179*
X67429Y99128D03*
Y117159D03*
X454115Y125604D03*
Y143636D03*
D02*
D180*
X95559Y108144D03*
X425985Y134620D03*
D02*
D181*
X98085Y43911D03*
X98124Y51785D03*
X107415Y43833D03*
X107455Y51707D03*
X159246Y426844D03*
X159285Y434719D03*
X169581Y426490D03*
X169620Y434364D03*
X179187Y426372D03*
X179226Y434246D03*
X195329Y426825D03*
X195368Y434699D03*
X329738Y421215D03*
X329778Y429089D03*
X341313Y291569D03*
X341352Y299443D03*
X347455Y420998D03*
X347494Y428872D03*
X355604Y223478D03*
X355644Y231352D03*
X430014Y62140D03*
X430053Y70014D03*
X442199D03*
X442238Y77888D03*
X486589Y281628D03*
X486628Y289502D03*
D02*
D182*
X32278Y176352D03*
X33163Y192494D03*
X44089Y176352D03*
X44974Y192494D03*
X456982Y181864D03*
X457179Y166116D03*
X468793Y181864D03*
X468990Y166116D03*
D02*
D183*
X369876Y246805D03*
Y255860D03*
Y264915D03*
D02*
D184*
X394679Y255860D03*
D02*
D185*
X437573Y276746D03*
Y286982D03*
D02*
D186*
X54549Y358428D03*
X60089Y352832D03*
X60514Y364491D03*
X65411Y340818D03*
X66054Y358895D03*
X70951Y335222D03*
X97832Y280936D03*
X103372Y275340D03*
X103742Y287089D03*
X109282Y281493D03*
X109667Y292916D03*
X115207Y287320D03*
X120711Y338743D03*
X126251Y333147D03*
X127010Y344943D03*
X132550Y339348D03*
X133348Y350987D03*
X138889Y345391D03*
X139549Y357187D03*
X145089Y351592D03*
D02*
D187*
X284461Y414080D03*
X294697D03*
D02*
D188*
X69314Y313665D03*
X71124Y311855D03*
X72933Y310046D03*
X74743Y308236D03*
X76552Y306426D03*
X78361Y304617D03*
X80171Y302807D03*
X81981Y300998D03*
X83790Y299188D03*
X85600Y297379D03*
X87409Y295569D03*
X89080Y333430D03*
X89219Y293760D03*
X90889Y331620D03*
X91028Y291950D03*
X92698Y329811D03*
X92838Y290141D03*
X94508Y328002D03*
X96318Y326192D03*
X98127Y324383D03*
X99937Y322573D03*
X101746Y320763D03*
X103556Y318954D03*
X105365Y317144D03*
X107175Y315335D03*
X108984Y313525D03*
X110794Y311716D03*
X112604Y309906D03*
D02*
D189*
X17986Y245388D03*
X25860Y245348D03*
X194364Y368715D03*
X202238Y368675D03*
X310211Y367179D03*
X310998Y376628D03*
Y385486D03*
X318085Y367140D03*
X318872Y376589D03*
Y385447D03*
X465565Y332100D03*
X473439Y332061D03*
D02*
D190*
X453793Y229305D03*
Y248990D03*
D02*
D191*
X411963Y243380D03*
Y258341D03*
D02*
D192*
X422927Y166116D03*
Y206667D03*
D02*
D193*
X144581Y33951D03*
X154069D03*
X202238Y377553D03*
X211726D03*
X211943Y402494D03*
X221431D03*
X227454Y358626D03*
X227455Y367317D03*
X236942Y358626D03*
X236943Y367317D03*
X285111Y432170D03*
X285132Y423419D03*
X294599Y432170D03*
X294620Y423419D03*
D02*
D194*
X50922Y313219D03*
X58160Y305981D03*
D02*
D195*
X113596Y332443D03*
X120306Y325734D03*
X145447Y363369D03*
X152156Y356659D03*
D02*
D196*
X40970Y341695D03*
X46566Y347235D03*
D02*
D197*
X153230Y370518D03*
X158687Y365061D03*
D02*
D198*
X208990Y385644D03*
Y395093D03*
X224738Y385644D03*
Y395093D03*
D02*
D199*
X479797Y206470D03*
Y223793D03*
D02*
D200*
X17986Y227927D03*
Y235407D03*
X341274Y277199D03*
Y284679D03*
X344837Y222652D03*
Y230132D03*
D02*
D201*
X47011Y334564D03*
X53692Y341245D03*
X58146Y323428D03*
X64828Y330109D03*
D02*
D202*
X389974Y27002D03*
Y43931D03*
D02*
D203*
X237482Y375998D03*
Y377967D03*
Y379935D03*
Y381904D03*
Y383872D03*
Y385841D03*
Y387809D03*
Y389778D03*
Y391746D03*
Y393715D03*
Y395683D03*
Y397652D03*
Y399620D03*
Y401589D03*
Y403557D03*
Y405526D03*
X282663Y375998D03*
Y377967D03*
Y379935D03*
Y381904D03*
Y383872D03*
Y385841D03*
Y387809D03*
Y389778D03*
Y391746D03*
Y393715D03*
Y395683D03*
Y397652D03*
Y399620D03*
Y401589D03*
Y403557D03*
Y405526D03*
D02*
D204*
X245309Y368171D03*
Y413352D03*
X247278Y368171D03*
Y413352D03*
X249246Y368171D03*
Y413352D03*
X251215Y368171D03*
Y413352D03*
X253183Y368171D03*
Y413352D03*
X255152Y368171D03*
Y413352D03*
X257120Y368171D03*
Y413352D03*
X259089Y368171D03*
Y413352D03*
X261057Y368171D03*
Y413352D03*
X263026Y368171D03*
Y413352D03*
X264994Y368171D03*
Y413352D03*
X266963Y368171D03*
Y413352D03*
X268931Y368171D03*
Y413352D03*
X270900Y368171D03*
Y413352D03*
X272868Y368171D03*
Y413352D03*
X274837Y368171D03*
Y413352D03*
D02*
D205*
X411707Y270348D03*
Y278065D03*
X460624Y271136D03*
Y278852D03*
D02*
D206*
X57967Y153222D03*
X98518D03*
D02*
D207*
X25132Y158301D03*
X42455D03*
D02*
D208*
X135722Y197868D03*
X152652D03*
D02*
D209*
X171797Y449144D03*
X174170Y450102D03*
X176543Y451061D03*
X178915Y452020D03*
X181288Y452978D03*
D02*
D210*
X172447Y411561D03*
Y417900D03*
X174415Y411561D03*
Y417900D03*
X176384Y411561D03*
Y417900D03*
X0Y0D02*
M02*
