G04 DesignSpark PCB Gerber Version 12.0 Build 5942*
%FSLAX35Y35*%
%MOIN*%
%AMT24*0 Rounded Rectangle Pad at angle 0*4,1,32,-0.00197,-0.01161,0.00197,-0.01161,0.00328,-0.01146,0.00453,-0.01103,0.00565,-0.01032,0.00658,-0.00939,0.00729,-0.00827,0.00772,-0.00702,0.00787,-0.00571,0.00787,0.00571,0.00772,0.00702,0.00729,0.00827,0.00658,0.00939,0.00565,0.01032,0.00453,0.01103,0.00328,0.01146,0.00197,0.01161,-0.00197,0.01161,-0.00328,0.01146,-0.00453,0.01103,-0.00565,0.01032,-0.00658,0.00939,-0.00729,0.00827,-0.00772,0.00702,-0.00787,0.00571,-0.00787,-0.00571,-0.00772,-0.00702,-0.00729,-0.00827,-0.00658,-0.00939,-0.00565,-0.01032,-0.00453,-0.01103,-0.00328,-0.01146,-0.00197,-0.01161,0*%
%ADD24T24*%
%AMT23*0 Rounded Rectangle Pad at angle 0*4,1,28,-0.00492,-0.01358,0.00492,-0.01358,0.00594,-0.01345,0.00689,-0.01306,0.00770,-0.01243,0.00833,-0.01161,0.00872,-0.01067,0.00886,-0.00965,0.00886,0.00965,0.00872,0.01067,0.00833,0.01161,0.00770,0.01243,0.00689,0.01306,0.00594,0.01345,0.00492,0.01358,-0.00492,0.01358,-0.00594,0.01345,-0.00689,0.01306,-0.00770,0.01243,-0.00833,0.01161,-0.00872,0.01067,-0.00886,0.00965,-0.00886,-0.00965,-0.00872,-0.01067,-0.00833,-0.01161,-0.00770,-0.01243,-0.00689,-0.01306,-0.00594,-0.01345,-0.00492,-0.01358,0*%
%ADD23T23*%
%AMT22*0 Rounded Rectangle Pad at angle 0*4,1,32,-0.00433,-0.01752,0.00433,-0.01752,0.00565,-0.01737,0.00689,-0.01693,0.00801,-0.01623,0.00894,-0.01530,0.00965,-0.01418,0.01009,-0.01293,0.01024,-0.01161,0.01024,0.01161,0.01009,0.01293,0.00965,0.01418,0.00894,0.01530,0.00801,0.01623,0.00689,0.01693,0.00565,0.01737,0.00433,0.01752,-0.00433,0.01752,-0.00565,0.01737,-0.00689,0.01693,-0.00801,0.01623,-0.00894,0.01530,-0.00965,0.01418,-0.01009,0.01293,-0.01024,0.01161,-0.01024,-0.01161,-0.01009,-0.01293,-0.00965,-0.01418,-0.00894,-0.01530,-0.00801,-0.01623,-0.00689,-0.01693,-0.00565,-0.01737,-0.00433,-0.01752,0*%
%ADD22T22*%
%AMT73*0 Rounded Rectangle Pad at angle 0*4,1,32,-0.01220,-0.02382,0.01220,-0.02382,0.01352,-0.02367,0.01477,-0.02323,0.01589,-0.02253,0.01682,-0.02159,0.01752,-0.02048,0.01796,-0.01923,0.01811,-0.01791,0.01811,0.01791,0.01796,0.01923,0.01752,0.02048,0.01682,0.02159,0.01589,0.02253,0.01477,0.02323,0.01352,0.02367,0.01220,0.02382,-0.01220,0.02382,-0.01352,0.02367,-0.01477,0.02323,-0.01589,0.02253,-0.01682,0.02159,-0.01752,0.02048,-0.01796,0.01923,-0.01811,0.01791,-0.01811,-0.01791,-0.01796,-0.01923,-0.01752,-0.02048,-0.01682,-0.02159,-0.01589,-0.02253,-0.01477,-0.02323,-0.01352,-0.02367,-0.01220,-0.02382,0*%
%ADD73T73*%
%AMT107*0 Rounded Rectangle Pad at angle 0*4,1,92,-0.03937,-0.09843,0.03937,-0.09843,0.04358,-0.09828,0.04777,-0.09783,0.05192,-0.09708,0.05600,-0.09604,0.06000,-0.09470,0.06390,-0.09309,0.06767,-0.09120,0.07129,-0.08906,0.07475,-0.08665,0.07804,-0.08401,0.08112,-0.08114,0.08400,-0.07806,0.08664,-0.07478,0.08905,-0.07131,0.09120,-0.06769,0.09309,-0.06392,0.09470,-0.06003,0.09604,-0.05603,0.09708,-0.05194,0.09783,-0.04780,0.09828,-0.04361,0.09843,-0.03937,0.09843,0.03937,0.09828,0.04358,0.09783,0.04777,0.09708,0.05192,0.09604,0.05600,0.09470,0.06000,0.09309,0.06390,0.09120,0.06767,0.08906,0.07129,0.08665,0.07475,0.08401,0.07804,0.08114,0.08112,0.07806,0.08400,0.07478,0.08664,0.07131,0.08905,0.06769,0.09120,0.06392,0.09309,0.06003,0.09470,0.05603,0.09604,0.05194,0.09708,0.04780,0.09783,0.04361,0.09828,0.03937,0.09843,-0.03937,0.09843,-0.04358,0.09828,-0.04777,0.09783,-0.05192,0.09708,-0.05600,0.09604,-0.06000,0.09470,-0.06390,0.09309,-0.06767,0.09120,-0.07129,0.08906,-0.07475,0.08665,-0.07804,0.08401,-0.08112,0.08114,-0.08400,0.07806,-0.08664,0.07478,-0.08905,0.07131,-0.09120,0.06769,-0.09309,0.06392,-0.09470,0.06003,-0.09604,0.05603,-0.09708,0.05194,-0.09783,0.04780,-0.09828,0.04361,-0.09843,0.03937,-0.09843,-0.03937,-0.09828,-0.04358,-0.09783,-0.04777,-0.09708,-0.05192,-0.09604,-0.05600,-0.09470,-0.06000,-0.09309,-0.06390,-0.09120,-0.06767,-0.08906,-0.07129,-0.08665,-0.07475,-0.08401,-0.07804,-0.08114,-0.08112,-0.07806,-0.08400,-0.07478,-0.08664,-0.07131,-0.08905,-0.06769,-0.09120,-0.06392,-0.09309,-0.06003,-0.09470,-0.05603,-0.09604,-0.05194,-0.09708,-0.04780,-0.09783,-0.04361,-0.09828,-0.03937,-0.09843,0*%
%ADD107T107*%
%ADD123R,0.01181X0.03898*%
%ADD112R,0.01181X0.05807*%
%ADD76R,0.02559X0.06004*%
%ADD91R,0.04724X0.06000*%
%ADD86R,0.05118X0.07087*%
%ADD79R,0.05600X0.05800*%
%ADD92R,0.06299X0.12402*%
%ADD83R,0.06890X0.08858*%
%ADD85R,0.06890X0.12598*%
%ADD101R,0.08465X0.08661*%
%ADD106R,0.08465X0.09055*%
%ADD117R,0.13189X0.14173*%
%ADD81R,0.24528X0.26535*%
%ADD102R,0.06000X0.06000*%
%ADD113R,0.06900X0.06900*%
%ADD11C,0.00500*%
%ADD10C,0.00787*%
%ADD16C,0.00984*%
%ADD14C,0.01000*%
%ADD15C,0.01181*%
%ADD19C,0.01500*%
%ADD17C,0.01969*%
%ADD26C,0.02126*%
%ADD18C,0.03346*%
%ADD28C,0.03543*%
%ADD72C,0.03937*%
%ADD119C,0.04791*%
%ADD121C,0.05181*%
%ADD70C,0.05591*%
%AMT27*0 Rounded Rectangle Pad at angle 45*4,1,28,0.00613,-0.01308,0.01308,-0.00613,0.01371,-0.00531,0.01410,-0.00436,0.01424,-0.00334,0.01410,-0.00232,0.01371,-0.00137,0.01308,-0.00056,-0.00056,0.01308,-0.00137,0.01371,-0.00232,0.01410,-0.00334,0.01424,-0.00436,0.01410,-0.00531,0.01371,-0.00613,0.01308,-0.01308,0.00613,-0.01371,0.00531,-0.01410,0.00436,-0.01424,0.00334,-0.01410,0.00232,-0.01371,0.00137,-0.01308,0.00056,0.00056,-0.01308,0.00137,-0.01371,0.00232,-0.01410,0.00334,-0.01424,0.00436,-0.01410,0.00531,-0.01371,0.00613,-0.01308,0*%
%ADD27T27*%
%AMT74*0 Rounded Rectangle Pad at angle 90*4,1,32,0.01161,-0.00197,0.01161,0.00197,0.01146,0.00328,0.01103,0.00453,0.01032,0.00565,0.00939,0.00658,0.00827,0.00729,0.00702,0.00772,0.00571,0.00787,-0.00571,0.00787,-0.00702,0.00772,-0.00827,0.00729,-0.00939,0.00658,-0.01032,0.00565,-0.01103,0.00453,-0.01146,0.00328,-0.01161,0.00197,-0.01161,-0.00197,-0.01146,-0.00328,-0.01103,-0.00453,-0.01032,-0.00565,-0.00939,-0.00658,-0.00827,-0.00729,-0.00702,-0.00772,-0.00571,-0.00787,0.00571,-0.00787,0.00702,-0.00772,0.00827,-0.00729,0.00939,-0.00658,0.01032,-0.00565,0.01103,-0.00453,0.01146,-0.00328,0.01161,-0.00197,0*%
%ADD74T74*%
%AMT25*0 Rounded Rectangle Pad at angle 90*4,1,28,0.01358,-0.00492,0.01358,0.00492,0.01345,0.00594,0.01306,0.00689,0.01243,0.00770,0.01161,0.00833,0.01067,0.00872,0.00965,0.00886,-0.00965,0.00886,-0.01067,0.00872,-0.01161,0.00833,-0.01243,0.00770,-0.01306,0.00689,-0.01345,0.00594,-0.01358,0.00492,-0.01358,-0.00492,-0.01345,-0.00594,-0.01306,-0.00689,-0.01243,-0.00770,-0.01161,-0.00833,-0.01067,-0.00872,-0.00965,-0.00886,0.00965,-0.00886,0.01067,-0.00872,0.01161,-0.00833,0.01243,-0.00770,0.01306,-0.00689,0.01345,-0.00594,0.01358,-0.00492,0*%
%ADD25T25*%
%AMT71*0 Rounded Rectangle Pad at angle 135*4,1,28,0.01308,0.00613,0.00613,0.01308,0.00531,0.01371,0.00436,0.01410,0.00334,0.01424,0.00232,0.01410,0.00137,0.01371,0.00056,0.01308,-0.01308,-0.00056,-0.01371,-0.00137,-0.01410,-0.00232,-0.01424,-0.00334,-0.01410,-0.00436,-0.01371,-0.00531,-0.01308,-0.00613,-0.00613,-0.01308,-0.00531,-0.01371,-0.00436,-0.01410,-0.00334,-0.01424,-0.00232,-0.01410,-0.00137,-0.01371,-0.00056,-0.01308,0.01308,0.00056,0.01371,0.00137,0.01410,0.00232,0.01424,0.00334,0.01410,0.00436,0.01371,0.00531,0.01308,0.00613,0*%
%ADD71T71*%
%AMT21*0 Rounded Rectangle Pad at angle 45*4,1,32,0.00933,-0.01545,0.01545,-0.00933,0.01627,-0.00829,0.01685,-0.00710,0.01714,-0.00581,0.01714,-0.00449,0.01685,-0.00320,0.01627,-0.00200,0.01545,-0.00097,-0.00097,0.01545,-0.00201,0.01627,-0.00320,0.01685,-0.00449,0.01714,-0.00581,0.01714,-0.00710,0.01685,-0.00830,0.01627,-0.00933,0.01545,-0.01545,0.00933,-0.01627,0.00829,-0.01685,0.00710,-0.01714,0.00581,-0.01714,0.00449,-0.01685,0.00320,-0.01627,0.00200,-0.01545,0.00097,0.00097,-0.01545,0.00201,-0.01627,0.00320,-0.01685,0.00449,-0.01714,0.00581,-0.01714,0.00710,-0.01685,0.00830,-0.01627,0.00933,-0.01545,0*%
%ADD21T21*%
%AMT29*0 Rounded Rectangle Pad at angle 90*4,1,32,0.01752,-0.00433,0.01752,0.00433,0.01737,0.00565,0.01693,0.00689,0.01623,0.00801,0.01530,0.00894,0.01418,0.00965,0.01293,0.01009,0.01161,0.01024,-0.01161,0.01024,-0.01293,0.01009,-0.01418,0.00965,-0.01530,0.00894,-0.01623,0.00801,-0.01693,0.00689,-0.01737,0.00565,-0.01752,0.00433,-0.01752,-0.00433,-0.01737,-0.00565,-0.01693,-0.00689,-0.01623,-0.00801,-0.01530,-0.00894,-0.01418,-0.00965,-0.01293,-0.01009,-0.01161,-0.01024,0.01161,-0.01024,0.01293,-0.01009,0.01418,-0.00965,0.01530,-0.00894,0.01623,-0.00801,0.01693,-0.00689,0.01737,-0.00565,0.01752,-0.00433,0*%
%ADD29T29*%
%AMT20*0 Rounded Rectangle Pad at angle 135*4,1,32,0.01545,0.00933,0.00933,0.01545,0.00829,0.01627,0.00710,0.01685,0.00581,0.01714,0.00449,0.01714,0.00320,0.01685,0.00200,0.01627,0.00097,0.01545,-0.01545,-0.00097,-0.01627,-0.00201,-0.01685,-0.00320,-0.01714,-0.00449,-0.01714,-0.00581,-0.01685,-0.00710,-0.01627,-0.00830,-0.01545,-0.00933,-0.00933,-0.01545,-0.00829,-0.01627,-0.00710,-0.01685,-0.00581,-0.01714,-0.00449,-0.01714,-0.00320,-0.01685,-0.00200,-0.01627,-0.00097,-0.01545,0.01545,0.00097,0.01627,0.00201,0.01685,0.00320,0.01714,0.00449,0.01714,0.00581,0.01685,0.00710,0.01627,0.00830,0.01545,0.00933,0*%
%ADD20T20*%
%ADD108C,0.05693*%
%ADD89C,0.05906*%
%ADD109C,0.06102*%
%ADD114C,0.06900*%
%ADD103C,0.08858*%
%ADD110C,0.09272*%
%ADD115C,0.09937*%
%ADD75C,0.15157*%
%ADD111R,0.05807X0.01181*%
%AMT122*0 Rectangle Pad at angle 22*21,1,0.01575,0.05906,0,0,22*%
%ADD122T122*%
%ADD104R,0.05512X0.03543*%
%ADD84R,0.06890X0.03740*%
%AMT98*0 Rectangle Pad at angle 45*21,1,0.04724,0.06000,0,0,45*%
%ADD98T98*%
%ADD116R,0.05500X0.04000*%
%ADD82R,0.06000X0.04724*%
%AMT105*0 Rectangle Pad at angle 45*21,1,0.04724,0.07087,0,0,45*%
%ADD105T105*%
%AMT96*0 Rectangle Pad at angle 45*21,1,0.05118,0.07087,0,0,45*%
%ADD96T96*%
%ADD100R,0.07087X0.04724*%
%ADD88R,0.07087X0.05118*%
%AMT97*0 Rectangle Pad at angle 45*21,1,0.05600,0.05800,0,0,45*%
%ADD97T97*%
%ADD95R,0.05800X0.05600*%
%ADD80R,0.08976X0.06000*%
%ADD93R,0.06417X0.06024*%
%ADD118R,0.08661X0.08465*%
%ADD120R,0.09055X0.08465*%
%ADD78R,0.16339X0.08465*%
%ADD77R,0.12205X0.10236*%
%AMT90*0 Rectangle Pad at angle 135*21,1,0.01772,0.07087,0,0,135*%
%ADD90T90*%
%AMT99*0 Rectangle Pad at angle 135*21,1,0.04000,0.05500,0,0,135*%
%ADD99T99*%
%AMT87*0 Rectangle Pad at angle 135*21,1,0.04724,0.06000,0,0,135*%
%ADD87T87*%
%ADD94R,0.14173X0.13189*%
X0Y0D02*
D02*
D10*
X338276Y128769D02*
X337302Y127794D01*
X338276Y132165D02*
X337302Y133139D01*
X339780Y275706D02*
X338518Y274443D01*
X339780Y278692D02*
X338517Y279955D01*
X341672Y128769D02*
X342647Y127794D01*
X341672Y132165D02*
X342647Y133139D01*
X341726Y105880D02*
X340348D01*
X342474Y230132D02*
X341096D01*
X342767Y275706D02*
X344029Y274443D01*
X342767Y278692D02*
X344030Y279955D01*
X344089Y158970D02*
X342710D01*
X344738Y259207D02*
X343360D01*
X344837Y228754D02*
Y227376D01*
Y231510D02*
Y232888D01*
X347140Y256805D02*
Y255427D01*
Y261608D02*
Y262986D01*
X347199Y230132D02*
X348576D01*
X349104Y263656D02*
X347726D01*
X349123Y245230D02*
X347746D01*
X349123Y254719D02*
X347746D01*
X349502Y102041D02*
Y100664D01*
Y109719D02*
Y111097D01*
X349541Y259207D02*
X350919D01*
X351510Y261149D02*
Y259770D01*
X351530Y242724D02*
Y241345D01*
Y247737D02*
Y249115D01*
Y252212D02*
Y250833D01*
Y257225D02*
Y258603D01*
X351864Y155132D02*
Y153754D01*
Y162809D02*
Y164187D01*
X353916Y263656D02*
X355293D01*
X353936Y245230D02*
X355313D01*
X353936Y254719D02*
X355313D01*
X357278Y105880D02*
X358655D01*
X357293Y263686D02*
X355915D01*
X357391Y245191D02*
X356013D01*
X357391Y254679D02*
X356013D01*
X359640Y158970D02*
X361017D01*
X359699Y261180D02*
Y259802D01*
X359797Y242685D02*
Y241306D01*
Y247697D02*
Y249075D01*
Y252173D02*
Y250794D01*
Y257185D02*
Y258563D01*
X362105Y263686D02*
X363482D01*
X362204Y245191D02*
X363580D01*
X362204Y254679D02*
X363580D01*
X366825Y246805D02*
X365446D01*
X368163Y59561D02*
X367070Y58468D01*
X368163Y75230D02*
X367070Y76324D01*
X369876Y245329D02*
Y243951D01*
X372278Y223675D02*
X370900D01*
X372927Y246805D02*
X374305D01*
X376313Y219640D02*
Y218262D01*
Y227711D02*
Y229089D01*
X380348Y223675D02*
X381726D01*
X383833Y59561D02*
X384926Y58468D01*
X383833Y75230D02*
X384926Y76324D01*
X406089Y228065D02*
X404711D01*
X409148Y243380D02*
X407769D01*
X410663Y223490D02*
Y222112D01*
Y232640D02*
Y234018D01*
X411963Y240762D02*
Y239384D01*
Y245998D02*
Y247376D01*
X414778Y243380D02*
X416155D01*
X415238Y228065D02*
X416616D01*
D02*
D11*
X1770Y228769D02*
G75*
G03*
X100900Y27140I254624J1D01*
G01*
Y40510D01*
X94049D01*
Y42372D01*
X93584D01*
G75*
G02*
X88425Y43911I-2350J1539D01*
G01*
G75*
G02*
X93586Y45447I2809J0D01*
G01*
X94049D01*
Y47309D01*
X100900D01*
Y48384D01*
X94088D01*
Y53380D01*
X93756D01*
G75*
G02*
X93124Y53214I-632J1122D01*
G01*
X76057D01*
G75*
G02*
X75425Y53380I0J1288D01*
G01*
X74561D01*
Y128813D01*
X37730D01*
Y153030D01*
X37088D01*
Y163569D01*
X37730D01*
Y199738D01*
X23754D01*
Y207584D01*
G75*
G02*
Y214176I1516J3296D01*
G01*
Y229581D01*
X1771D01*
G75*
G03*
X1770Y228769I254047J-776D01*
G01*
X61903Y103164D02*
X72954D01*
Y95089D01*
X61903D01*
Y103164D01*
Y121195D02*
X72954D01*
Y113120D01*
X61903D01*
Y121195D01*
X27797Y181817D02*
X36761D01*
Y170884D01*
X27797D01*
Y181817D01*
X28683Y197959D02*
X37647D01*
Y187026D01*
X28683D01*
Y197959D01*
X14194Y228806D02*
X21781D01*
Y223187D01*
X14194D01*
Y228806D01*
X14370Y184738D02*
G75*
G02*
X22035I3833J0D01*
G01*
G75*
G02*
X14370I-3833J0D01*
G01*
X19765Y163569D02*
X30502D01*
Y153030D01*
X19765D01*
Y163569D01*
X61903Y95089D02*
G36*
X61903Y95089D02*
Y99126D01*
X37246D01*
G75*
G03*
X100576Y27390I219151J129646D01*
G01*
X100650D01*
Y40510D01*
X94049D01*
Y42372D01*
X93584D01*
G75*
G02*
X88425Y43911I-2350J1539D01*
G01*
Y43912D01*
G75*
G02*
X93586Y45447I2809J0D01*
G01*
X94049D01*
Y47309D01*
X100650D01*
Y48384D01*
X94088D01*
Y53380D01*
X93756D01*
G75*
G02*
X93124Y53214I-631J1120D01*
G01*
X76057D01*
G75*
G02*
X75425Y53380I0J1286D01*
G01*
X74561D01*
Y99126D01*
X72954D01*
Y95089D01*
X61903D01*
G37*
X27536Y117158D02*
G36*
X27536Y117158D02*
G75*
G03*
X37246Y99126I228889J111625D01*
G01*
X61903D01*
Y103164D01*
X72954D01*
Y99126D01*
X74561D01*
Y117158D01*
X72954D01*
Y113120D01*
X61903D01*
Y117158D01*
X27536D01*
G37*
X19765Y153030D02*
G36*
X19765Y153030D02*
Y158300D01*
X11716D01*
G75*
G03*
X27536Y117158I244702J70482D01*
G01*
X61903D01*
Y121195D01*
X72954D01*
Y117158D01*
X74561D01*
Y128813D01*
X37730D01*
Y153030D01*
X37088D01*
Y158300D01*
X30502D01*
Y153030D01*
X19765D01*
G37*
X7224Y176351D02*
G36*
X7224Y176351D02*
G75*
G03*
X11716Y158300I249211J52428D01*
G01*
X19765D01*
Y163569D01*
X30502D01*
Y158300D01*
X37088D01*
Y163569D01*
X37730D01*
Y176351D01*
X36761D01*
Y170884D01*
X27797D01*
Y176351D01*
X7224D01*
G37*
X5606Y184738D02*
G36*
X5606Y184738D02*
G75*
G03*
X7224Y176351I250818J44039D01*
G01*
X27797D01*
Y181817D01*
X36761D01*
Y176351D01*
X37730D01*
Y184738D01*
X22035D01*
G75*
G02*
X14370I-3833J0D01*
G01*
X5606D01*
G37*
X4368Y192493D02*
G36*
X4368Y192493D02*
G75*
G03*
X5606Y184738I252037J36281D01*
G01*
X14370D01*
G75*
G02*
X22035I3833J0D01*
G01*
X37730D01*
Y192493D01*
X37647D01*
Y187026D01*
X28683D01*
Y192493D01*
X4368D01*
G37*
X2020Y225996D02*
G36*
X2020Y225996D02*
Y217490D01*
G75*
G03*
X4368Y192493I254376J11280D01*
G01*
X28683D01*
Y197959D01*
X37647D01*
Y192493D01*
X37730D01*
Y199738D01*
X23754D01*
Y207584D01*
G75*
G02*
X21642Y210880I1516J3296D01*
G01*
G75*
G02*
X23754Y214176I3628J0D01*
G01*
Y225996D01*
X21781D01*
Y223187D01*
X14194D01*
Y225996D01*
X2020D01*
G37*
Y229331D02*
G36*
X2020Y229331D02*
Y225996D01*
X14194D01*
Y228806D01*
X21781D01*
Y225996D01*
X23754D01*
Y229331D01*
X2020D01*
G37*
X21884Y250604D02*
Y230869D01*
X23754D01*
G75*
G02*
X25042Y229581I0J-1288D01*
G01*
Y214501D01*
G75*
G02*
X25270Y214508I227J-3621D01*
G01*
G75*
G02*
X28898Y210880I0J-3628D01*
G01*
G75*
G02*
X25270Y207252I-3628J0D01*
G01*
G75*
G02*
X25042Y207259I-1J3628D01*
G01*
Y201096D01*
X36836D01*
Y220602D01*
G75*
G02*
Y220604I1327J1D01*
G01*
G75*
G02*
X37022Y221270I1288J0D01*
G01*
Y221766D01*
X37568D01*
G75*
G02*
X38436Y221854I556J-1161D01*
G01*
X38439Y221853D01*
X46648Y221862D01*
Y250604D01*
X21884D01*
X22462Y249384D02*
X29261D01*
Y241309D01*
X22462D01*
Y249384D01*
X30720Y232435D02*
G75*
G02*
X42732I6006J0D01*
G01*
G75*
G02*
X30720I-6006J0D01*
G01*
X22134D02*
G36*
X22134Y232435D02*
Y230869D01*
X23754D01*
G75*
G02*
X25042Y229581I0J-1288D01*
G01*
Y214501D01*
G75*
G02*
X25270Y214508I216J-3288D01*
G01*
G75*
G02*
X28898Y210880I0J-3628D01*
G01*
G75*
G02*
X25270Y207252I-3628J0D01*
G01*
G75*
G02*
X25042Y207259I-12J3295D01*
G01*
Y201346D01*
X36836D01*
Y220602D01*
Y220604D01*
G75*
G02*
X37022Y221270I1288J0D01*
G01*
Y221766D01*
X37568D01*
G75*
G02*
X38436Y221854I556J-1163D01*
G01*
X38439Y221853D01*
X46398Y221861D01*
Y232435D01*
X42732D01*
G75*
G02*
X30720I-6006J0D01*
G01*
X22134D01*
G37*
Y245347D02*
G36*
X22134Y245347D02*
Y232435D01*
X30720D01*
G75*
G02*
X42732I6006J0D01*
G01*
X46398D01*
Y245347D01*
X29261D01*
Y241309D01*
X22462D01*
Y245347D01*
X22134D01*
G37*
Y250354D02*
G36*
X22134Y250354D02*
Y245347D01*
X22462D01*
Y249384D01*
X29261D01*
Y245347D01*
X46398D01*
Y250354D01*
X22134D01*
G37*
X38124Y220604D02*
Y200964D01*
G75*
G02*
X39018Y199738I-394J-1226D01*
G01*
Y163569D01*
X47824D01*
Y153030D01*
X39018D01*
Y143498D01*
X46218D01*
Y135424D01*
X39018D01*
Y130101D01*
X74561D01*
G75*
G02*
X74640Y130098I1J-1287D01*
G01*
Y220604D01*
X38281Y220565D01*
X38124Y220604D01*
X39608Y181817D02*
X48572D01*
Y170884D01*
X39608D01*
Y181817D01*
X40494Y197959D02*
X49458D01*
Y187026D01*
X40494D01*
Y197959D01*
X45152Y214508D02*
G75*
G02*
X48780Y210880I0J-3628D01*
G01*
G75*
G02*
X45152Y207252I-3628J0D01*
G01*
G75*
G02*
X41524Y210880I0J3628D01*
G01*
G75*
G02*
X45152Y214508I3628J0D01*
G01*
X50336Y161345D02*
X65600D01*
Y145097D01*
X50336D01*
Y161345D01*
X39018Y135424D02*
G36*
X39018Y135424D02*
Y130348D01*
X74390D01*
Y153221D01*
X65600D01*
Y145097D01*
X50336D01*
Y153221D01*
X47824D01*
Y153030D01*
X39018D01*
Y143498D01*
X46218D01*
Y135424D01*
X39018D01*
G37*
Y176351D02*
G36*
X39018Y176351D02*
Y163569D01*
X47824D01*
Y153221D01*
X50336D01*
Y161345D01*
X65600D01*
Y153221D01*
X74390D01*
Y176351D01*
X48572D01*
Y170884D01*
X39608D01*
Y176351D01*
X39018D01*
G37*
Y192493D02*
G36*
X39018Y192493D02*
Y176351D01*
X39608D01*
Y181817D01*
X48572D01*
Y176351D01*
X74390D01*
Y192493D01*
X49458D01*
Y187026D01*
X40494D01*
Y192493D01*
X39018D01*
G37*
X38374Y210880D02*
G36*
X38374Y210880D02*
Y200854D01*
G75*
G02*
X39018Y199738I-644J-1115D01*
G01*
Y192493D01*
X40494D01*
Y197959D01*
X49458D01*
Y192493D01*
X74390D01*
Y210880D01*
X48780D01*
G75*
G02*
X45152Y207252I-3628J0D01*
G01*
G75*
G02*
X41524Y210880I0J3628D01*
G01*
X38374D01*
G37*
Y220354D02*
G36*
X38374Y220354D02*
Y210880D01*
X41524D01*
G75*
G02*
X45152Y214508I3628J0D01*
G01*
G75*
G02*
X48780Y210880I0J-3628D01*
G01*
X74390D01*
Y220354D01*
X38374D01*
G37*
X75978Y90191D02*
Y83439D01*
X83576D01*
Y75565D01*
X75978D01*
Y74896D01*
X89139D01*
Y77022D01*
G75*
G02*
X89265Y77577I1288J0D01*
G01*
X88309D01*
Y85656D01*
X92915D01*
Y86877D01*
G75*
G02*
X93419Y92476I2847J2566D01*
G01*
Y93837D01*
X82257D01*
Y122447D01*
X108860D01*
Y94994D01*
X113242D01*
Y177219D01*
X79285Y177238D01*
X76156D01*
X76136Y177219D01*
Y90191D01*
X75978D01*
X90887Y161345D02*
X106151D01*
Y145097D01*
X90887D01*
Y161345D01*
X76228Y75565D02*
G36*
X76228Y75565D02*
Y75146D01*
X89139D01*
Y77022D01*
G75*
G02*
X89265Y77577I1289J0D01*
G01*
X88309D01*
Y85656D01*
X92915D01*
Y86877D01*
G75*
G02*
X91929Y89443I2847J2566D01*
G01*
G75*
G02*
X93419Y92476I3833J0D01*
G01*
Y93837D01*
X82257D01*
Y122447D01*
X108860D01*
Y94994D01*
X112992D01*
Y153221D01*
X106151D01*
Y145097D01*
X90887D01*
Y153221D01*
X76228D01*
Y83439D01*
X83576D01*
Y75565D01*
X76228D01*
G37*
Y176988D02*
G36*
X76228Y176988D02*
Y153221D01*
X90887D01*
Y161345D01*
X106151D01*
Y153221D01*
X112992D01*
Y176988D01*
X76228D01*
G37*
X76057Y66077D02*
Y54502D01*
X93124D01*
Y63470D01*
X92943D01*
Y56223D01*
X88309D01*
Y64302D01*
X89223D01*
G75*
G02*
X89139Y64758I1204J456D01*
G01*
Y72151D01*
X83576D01*
Y66077D01*
X76057D01*
G36*
X76057Y66077D02*
Y54502D01*
X93124D01*
Y63470D01*
X92943D01*
Y56223D01*
X88309D01*
Y64302D01*
X89223D01*
G75*
G02*
X89139Y64758I1204J456D01*
G01*
Y72151D01*
X83576D01*
Y66077D01*
X76057D01*
G37*
X90427Y77022D02*
Y64758D01*
X108380D01*
Y55105D01*
X111494D01*
Y54416D01*
X111667D01*
Y56412D01*
X119344D01*
Y48538D01*
X111667D01*
Y48994D01*
X111494D01*
Y48306D01*
X108380D01*
Y47691D01*
X101490D01*
Y47309D01*
X102124D01*
Y40510D01*
X101490D01*
Y26686D01*
G75*
G03*
X138597Y3033I154892J202067D01*
G01*
X176364D01*
Y207809D01*
X143990D01*
Y92073D01*
X147117D01*
G75*
G02*
X149344Y91194I101J-3004D01*
G01*
X156133Y84405D01*
G75*
G02*
X157076Y82219I-2063J-2186D01*
G01*
Y37790D01*
X158006D01*
Y30113D01*
X156781D01*
Y24542D01*
G75*
G02*
X155932Y22572I-2711J0D01*
G01*
X149542Y16181D01*
G75*
G02*
X142703Y16608I-3406J427D01*
G01*
G75*
G02*
X145709Y20015I3433J0D01*
G01*
X151360Y25665D01*
Y30113D01*
X150131D01*
Y37790D01*
X151065D01*
Y80972D01*
X145975Y86061D01*
X130613D01*
G75*
G02*
X125761Y86313I-2272J3086D01*
G01*
X98336D01*
Y81617D01*
G75*
G02*
X97943Y80209I-2711J0D01*
G01*
Y77577D01*
X97593D01*
Y77022D01*
X90427D01*
X147285Y202939D02*
X158021D01*
Y192794D01*
X147285D01*
Y202939D01*
X152935Y110951D02*
X170954D01*
Y100806D01*
X152935D01*
Y110951D01*
X154193Y95467D02*
G75*
G02*
X161465I3636J0D01*
G01*
G75*
G02*
X154193I-3636J0D01*
G01*
X166136Y20041D02*
G75*
G02*
X169569Y16608I0J-3433D01*
G01*
G75*
G02*
X166136Y13175I-3433J0D01*
G01*
G75*
G02*
X162703Y16608I0J3433D01*
G01*
G75*
G02*
X166136Y20041I3433J0D01*
G01*
X152935Y163609D02*
X170954D01*
Y153463D01*
X152935D01*
Y163609D01*
X154193Y133104D02*
G75*
G02*
X161465I3636J0D01*
G01*
G75*
G02*
X154193I-3636J0D01*
G01*
Y170821D02*
G75*
G02*
X161465I3636J0D01*
G01*
G75*
G02*
X154193I-3636J0D01*
G01*
X126083Y62580D02*
Y71148D01*
G75*
G02*
X132481Y77547I6399J0D01*
G01*
X141050D01*
G75*
G02*
X147449Y71148I0J-6399D01*
G01*
Y62580D01*
G75*
G02*
X141050Y56181I-6399J0D01*
G01*
X132481D01*
G75*
G02*
X126083Y62580I0J6399D01*
G01*
X140840Y37593D02*
X148320D01*
Y30309D01*
X140840D01*
Y37593D01*
X98506Y85459D02*
X102746D01*
Y77774D01*
X98506D01*
Y85459D01*
X103309Y85656D02*
X107943D01*
Y77577D01*
X103309D01*
Y85656D01*
X91183Y76896D02*
X105069D01*
Y64979D01*
X91183D01*
Y76896D01*
X111864Y46727D02*
X119147D01*
Y39246D01*
X111864D01*
Y46727D01*
X103576Y47034D02*
X111257D01*
Y40628D01*
X103576D01*
Y47034D01*
X115608Y16608D02*
G36*
X115608Y16608D02*
G75*
G03*
X138119Y3283I140804J212194D01*
G01*
X176114D01*
Y16608D01*
X169569D01*
G75*
G02*
X166136Y13175I-3433J0D01*
G01*
G75*
G02*
X162703Y16608I0J3433D01*
G01*
X149969D01*
X149542Y16181D01*
G75*
G02*
X142703Y16608I-3406J427D01*
G01*
X115608D01*
G37*
X101490Y33951D02*
G36*
X101490Y33951D02*
Y26686D01*
G75*
G03*
X115608Y16608I154940J202134D01*
G01*
X142703D01*
G75*
G02*
X145709Y20015I3433J0D01*
G01*
X151360Y25665D01*
Y30113D01*
X150131D01*
Y33951D01*
X148320D01*
Y30309D01*
X140840D01*
Y33951D01*
X101490D01*
G37*
X155932Y22572D02*
G36*
X155932Y22572D02*
X149969Y16608D01*
X162703D01*
G75*
G02*
X166136Y20041I3433J0D01*
G01*
G75*
G02*
X169569Y16608I0J-3433D01*
G01*
X176114D01*
Y33951D01*
X158006D01*
Y30113D01*
X156781D01*
Y24542D01*
G75*
G02*
X155932Y22572I-2711J0D01*
G01*
G37*
X101490Y40510D02*
G36*
X101490Y40510D02*
Y33951D01*
X140840D01*
Y37593D01*
X148320D01*
Y33951D01*
X150131D01*
Y37790D01*
X151065D01*
Y42987D01*
X119147D01*
Y39246D01*
X111864D01*
Y42987D01*
X111257D01*
Y40628D01*
X103576D01*
Y42987D01*
X102124D01*
Y40510D01*
X101490D01*
G37*
X157076Y42987D02*
G36*
X157076Y42987D02*
Y37790D01*
X158006D01*
Y33951D01*
X176114D01*
Y42987D01*
X157076D01*
G37*
X90677Y66864D02*
G36*
X90677Y66864D02*
Y64758D01*
X108380D01*
Y55105D01*
X111494D01*
Y54416D01*
X111667D01*
Y56412D01*
X119344D01*
Y48538D01*
X111667D01*
Y48994D01*
X111494D01*
Y48306D01*
X108380D01*
Y47691D01*
X101490D01*
Y47309D01*
X102124D01*
Y42987D01*
X103576D01*
Y47034D01*
X111257D01*
Y42987D01*
X111864D01*
Y46727D01*
X119147D01*
Y42987D01*
X151065D01*
Y66864D01*
X147449D01*
Y62580D01*
Y62580D01*
G75*
G02*
X141050Y56181I-6399J0D01*
G01*
X132481D01*
G75*
G02*
X126083Y62580I0J6398D01*
G01*
Y62580D01*
Y66864D01*
X105069D01*
Y64979D01*
X91183D01*
Y66864D01*
X90677D01*
G37*
X157076D02*
G36*
X157076Y66864D02*
Y42987D01*
X176114D01*
Y66864D01*
X157076D01*
G37*
X90677Y77022D02*
G36*
X90677Y77022D02*
Y66864D01*
X91183D01*
Y76896D01*
X105069D01*
Y66864D01*
X126083D01*
Y71148D01*
Y71149D01*
G75*
G02*
X132481Y77547I6399J0D01*
G01*
X141050D01*
G75*
G02*
X147449Y71149I0J-6398D01*
G01*
Y71148D01*
Y66864D01*
X151065D01*
Y80972D01*
X150420Y81617D01*
X107943D01*
Y77577D01*
X103309D01*
Y81617D01*
X102746D01*
Y77774D01*
X98506D01*
Y81617D01*
X98336D01*
G75*
G02*
X97943Y80209I-2713J0D01*
G01*
Y77577D01*
X97593D01*
Y77022D01*
X90677D01*
G37*
X157076Y81617D02*
G36*
X157076Y81617D02*
Y66864D01*
X176114D01*
Y81617D01*
X157076D01*
G37*
X98336Y86313D02*
G36*
X98336Y86313D02*
Y81617D01*
X98506D01*
Y85459D01*
X102746D01*
Y81617D01*
X103309D01*
Y85656D01*
X107943D01*
Y81617D01*
X150420D01*
X145975Y86061D01*
X130613D01*
G75*
G02*
X125761Y86313I-2272J3086D01*
G01*
X98336D01*
G37*
X143990Y95467D02*
G36*
X143990Y95467D02*
Y92073D01*
X147117D01*
G75*
G02*
X149344Y91194I101J-3005D01*
G01*
X156133Y84405D01*
G75*
G02*
X157076Y82220I-2061J-2185D01*
G01*
G75*
G02*
Y82219I-3759J0D01*
G01*
Y81617D01*
X176114D01*
Y95467D01*
X161465D01*
G75*
G02*
X154193I-3636J0D01*
G01*
X143990D01*
G37*
Y105878D02*
G36*
X143990Y105878D02*
Y95467D01*
X154193D01*
G75*
G02*
X161465I3636J0D01*
G01*
X176114D01*
Y105878D01*
X170954D01*
Y100806D01*
X152935D01*
Y105878D01*
X143990D01*
G37*
Y133104D02*
G36*
X143990Y133104D02*
Y105878D01*
X152935D01*
Y110951D01*
X170954D01*
Y105878D01*
X176114D01*
Y133104D01*
X161465D01*
G75*
G02*
X154193I-3636J0D01*
G01*
X143990D01*
G37*
Y158536D02*
G36*
X143990Y158536D02*
Y133104D01*
X154193D01*
G75*
G02*
X161465I3636J0D01*
G01*
X176114D01*
Y158536D01*
X170954D01*
Y153463D01*
X152935D01*
Y158536D01*
X143990D01*
G37*
Y170821D02*
G36*
X143990Y170821D02*
Y158536D01*
X152935D01*
Y163609D01*
X170954D01*
Y158536D01*
X176114D01*
Y170821D01*
X161465D01*
G75*
G02*
X154193I-3636J0D01*
G01*
X143990D01*
G37*
Y197867D02*
G36*
X143990Y197867D02*
Y170821D01*
X154193D01*
G75*
G02*
X161465I3636J0D01*
G01*
X176114D01*
Y197867D01*
X158021D01*
Y192794D01*
X147285D01*
Y197867D01*
X143990D01*
G37*
Y207559D02*
G36*
X143990Y207559D02*
Y197867D01*
X147285D01*
Y202939D01*
X158021D01*
Y197867D01*
X176114D01*
Y207559D01*
X143990D01*
G37*
X326490Y281530D02*
Y271570D01*
G75*
G02*
X336321Y235211I-62324J-36359D01*
G01*
Y221334D01*
G75*
G02*
X336419Y220841I-1189J-494D01*
G01*
Y131228D01*
G75*
G02*
X343610Y130467I3555J-762D01*
G01*
G75*
G02*
X336419Y129705I-3636J0D01*
G01*
Y51234D01*
X355408D01*
X355231Y51412D01*
G75*
G02*
X354350Y53537I2126J2126D01*
G01*
G75*
G02*
X354352Y53639I3001J4D01*
G01*
Y85897D01*
G75*
G02*
X354350Y85998I3000J97D01*
G01*
G75*
G02*
X355231Y88124I3006J0D01*
G01*
X365683Y98576D01*
Y178198D01*
G75*
G02*
X365557Y178754I1161J556D01*
G01*
Y213857D01*
G75*
G02*
X365562Y213971I1286J0D01*
G01*
G75*
G02*
Y213972I1327J1D01*
G01*
G75*
G02*
X365557Y214067I1285J117D01*
G01*
G75*
G02*
Y214087I1292J10D01*
G01*
Y214800D01*
G75*
G02*
Y214803I1327J1D01*
G01*
G75*
G02*
X365683Y215359I1288J0D01*
G01*
Y238360D01*
X360554D01*
G75*
G02*
X360526Y238333I-920J906D01*
G01*
X357431Y235238D01*
Y234750D01*
X359683D01*
Y227951D01*
X351608D01*
Y234750D01*
X353856D01*
Y235979D01*
G75*
G02*
X354415Y237278I1787J0D01*
G01*
X355498Y238360D01*
X343793D01*
Y250545D01*
X364659D01*
Y267258D01*
X364556Y267257D01*
X363344Y267255D01*
G75*
G02*
X363341I-2J1269D01*
G01*
X363340D01*
Y259947D01*
X356057D01*
Y267240D01*
X356056Y267241D01*
X355657Y267240D01*
X355155Y267239D01*
G75*
G02*
X355151I-2J1336D01*
G01*
Y259916D01*
X350706D01*
G75*
G02*
X350776Y259207I-3567J-708D01*
G01*
G75*
G02*
X350698Y258459I-3636J-1D01*
G01*
X355171D01*
Y250979D01*
X347887D01*
Y255648D01*
G75*
G02*
X343504Y259207I-748J3558D01*
G01*
G75*
G02*
X347868Y262769I3636J0D01*
G01*
Y267224D01*
X345171Y267219D01*
X345427Y267258D01*
Y267259D01*
X345427D01*
X345426Y267259D01*
G75*
G02*
X344198Y268546I60J1286D01*
G01*
Y274585D01*
X337679D01*
Y279809D01*
X344198D01*
Y280183D01*
X334246D01*
G75*
G02*
X332958Y281471I0J1288D01*
G01*
Y281530D01*
X326490D01*
X356155Y258420D02*
X363439D01*
Y250939D01*
X356155D01*
Y258420D01*
X338278Y169309D02*
G75*
G02*
X339444Y169758I1088J-1087D01*
G01*
X351490D01*
G75*
G02*
X352282Y170146I792J-615D01*
G01*
X355069D01*
G75*
G02*
X356071Y169143I0J-1002D01*
G01*
Y167302D01*
G75*
G02*
X355069Y166299I-1002J0D01*
G01*
X352282D01*
G75*
G02*
X351493Y166683I0J1002D01*
G01*
X340903D01*
Y154854D01*
G75*
G02*
X341287Y154065I-618J-789D01*
G01*
Y151278D01*
G75*
G02*
X340285Y150276I-1002J0D01*
G01*
X338443D01*
G75*
G02*
X337441Y151278I0J1002D01*
G01*
Y154065D01*
G75*
G02*
X337828Y154856I1002J0D01*
G01*
Y168143D01*
G75*
G02*
X337826Y168221I1539J78D01*
G01*
G75*
G02*
X338278Y169309I1537J0D01*
G01*
X342856Y164042D02*
X360876D01*
Y153896D01*
X342856D01*
Y164042D01*
X341045Y225459D02*
X348631D01*
Y224439D01*
X351569D01*
Y226876D01*
X359643D01*
Y224898D01*
G75*
G02*
X359820Y224743I-1088J-1419D01*
G01*
G75*
G02*
X360344Y223479I-1264J-1264D01*
G01*
Y222652D01*
G75*
G02*
X359820Y221388I-1787J0D01*
G01*
G75*
G02*
X359643Y221233I-1265J1263D01*
G01*
Y220077D01*
X351569D01*
Y220865D01*
X348631D01*
Y219841D01*
X341045D01*
Y225459D01*
X341242Y232743D02*
X348435D01*
Y227518D01*
X341242D01*
Y232743D01*
X340494Y110951D02*
X358513D01*
Y100806D01*
X340494D01*
Y110951D01*
X336419Y105878D02*
G36*
X336419Y105878D02*
Y51484D01*
X355161D01*
G75*
G02*
X354350Y53537I2195J2053D01*
G01*
Y53537D01*
Y53538D01*
G75*
G02*
X354352Y53639I3227J0D01*
G01*
Y85897D01*
G75*
G02*
X354350Y85998I3225J101D01*
G01*
Y85998D01*
Y85998D01*
G75*
G02*
X355231Y88124I3006J0D01*
G01*
X365433Y98326D01*
Y105878D01*
X358513D01*
Y100806D01*
X340494D01*
Y105878D01*
X336419D01*
G37*
Y129705D02*
G36*
X336419Y129705D02*
Y105878D01*
X340494D01*
Y110951D01*
X358513D01*
Y105878D01*
X365433D01*
Y160211D01*
X360876D01*
Y153896D01*
X342856D01*
Y160211D01*
X340903D01*
Y154854D01*
G75*
G02*
X341287Y154065I-617J-789D01*
G01*
Y154065D01*
Y151278D01*
G75*
G02*
X340285Y150276I-1002J0D01*
G01*
X338443D01*
G75*
G02*
X337441Y151278I0J1002D01*
G01*
Y154065D01*
G75*
G02*
X337828Y154856I1003J0D01*
G01*
Y160211D01*
X336419D01*
Y131228D01*
G75*
G02*
X343610Y130467I3555J-762D01*
G01*
G75*
G02*
X336419Y129705I-3636J0D01*
G01*
G37*
X336321Y223359D02*
G36*
X336321Y223359D02*
Y221334D01*
G75*
G02*
X336419Y220841I-1189J-494D01*
G01*
Y160211D01*
X337828D01*
Y168143D01*
G75*
G02*
X337826Y168215I1289J71D01*
G01*
G75*
G02*
Y168221I1253J3D01*
G01*
G75*
G02*
X338278Y169309I1539J0D01*
G01*
G75*
G02*
X339444Y169758I1088J-1087D01*
G01*
X351490D01*
G75*
G02*
X352282Y170146I792J-615D01*
G01*
X355069D01*
G75*
G02*
X356071Y169143I0J-1002D01*
G01*
Y167302D01*
G75*
G02*
X355069Y166299I-1002J0D01*
G01*
X352282D01*
G75*
G02*
X351493Y166683I0J1003D01*
G01*
X340903D01*
Y160211D01*
X342856D01*
Y164042D01*
X360876D01*
Y160211D01*
X365433D01*
Y223359D01*
X360344D01*
Y222652D01*
G75*
G02*
X359820Y221388I-1789J1D01*
G01*
G75*
G02*
X359643Y221233I-1222J1214D01*
G01*
Y220077D01*
X351569D01*
Y220865D01*
X348631D01*
Y219841D01*
X341045D01*
Y223359D01*
X336321D01*
G37*
Y230130D02*
G36*
X336321Y230130D02*
Y223359D01*
X341045D01*
Y225459D01*
X348631D01*
Y224439D01*
X351569D01*
Y226876D01*
X359643D01*
Y224898D01*
G75*
G02*
X359820Y224743I-1045J-1370D01*
G01*
G75*
G02*
X360344Y223479I-1265J-1265D01*
G01*
Y223359D01*
X365433D01*
Y230130D01*
X359683D01*
Y227951D01*
X351608D01*
Y230130D01*
X348435D01*
Y227518D01*
X341242D01*
Y230130D01*
X336321D01*
G37*
Y235211D02*
G36*
X336321Y235211D02*
Y230130D01*
X341242D01*
Y232743D01*
X348435D01*
Y230130D01*
X351608D01*
Y234750D01*
X353856D01*
Y235979D01*
G75*
G02*
Y235980I2374J0D01*
G01*
G75*
G02*
X354415Y237278I1786J0D01*
G01*
X355498Y238360D01*
X343793D01*
Y250545D01*
X364659D01*
Y254680D01*
X363439D01*
Y250939D01*
X356155D01*
Y254680D01*
X355171D01*
Y250979D01*
X347887D01*
Y254680D01*
X333644D01*
G75*
G02*
X336321Y235211I-69481J-19470D01*
G01*
G37*
X357431Y235238D02*
G36*
X357431Y235238D02*
Y234750D01*
X359683D01*
Y230130D01*
X365433D01*
Y238360D01*
X360554D01*
G75*
G02*
X360526Y238333I-951J937D01*
G01*
X357431Y235238D01*
G37*
X326740Y281280D02*
G36*
X326740Y281280D02*
Y271138D01*
G75*
G02*
X333644Y254680I-62574J-35927D01*
G01*
X347887D01*
Y255648D01*
G75*
G02*
X343504Y259207I-747J3559D01*
G01*
G75*
G02*
X347868Y262769I3636J0D01*
G01*
Y267224D01*
X345171Y267219D01*
X345427Y267258D01*
Y267259D01*
X345427D01*
Y267259D01*
X345426D01*
G75*
G02*
X344198Y268546I60J1287D01*
G01*
Y274585D01*
X337679D01*
Y279809D01*
X344198D01*
Y280183D01*
X334246D01*
G75*
G02*
X332972Y281280I0J1288D01*
G01*
X326740D01*
G37*
X350776Y259209D02*
G36*
X350776Y259209D02*
G75*
G02*
Y259207I-3433J-1D01*
G01*
G75*
G02*
Y259204I-3609J-2D01*
G01*
G75*
G02*
X350698Y258459I-3612J0D01*
G01*
X355171D01*
Y254680D01*
X356155D01*
Y258420D01*
X363439D01*
Y254680D01*
X364659D01*
Y267258D01*
X364556Y267257D01*
X363344Y267255D01*
X363341D01*
X363340D01*
Y259947D01*
X356057D01*
Y267240D01*
X356056Y267241D01*
X355657Y267240D01*
X355155Y267239D01*
X355151D01*
Y259916D01*
X350706D01*
G75*
G02*
X350776Y259209I-3544J-706D01*
G01*
G37*
X334246Y305171D02*
Y281470D01*
X344611D01*
G75*
G02*
X345486Y281813I875J-944D01*
G01*
X387396D01*
G75*
G02*
X388683Y280526I0J-1288D01*
G01*
Y275373D01*
X392601Y275364D01*
G75*
G02*
X389587Y279108I819J3744D01*
G01*
G75*
G02*
X397252I3833J0D01*
G01*
G75*
G02*
X394220Y275360I-3833J0D01*
G01*
X407919Y275328D01*
Y281101D01*
X415494D01*
Y275310D01*
G75*
G02*
X415496I1J-1359D01*
G01*
X419268Y275301D01*
X419268D01*
X433978Y275266D01*
Y281325D01*
X441171D01*
Y275249D01*
G75*
G02*
X441175I2J-1319D01*
G01*
X449193Y275230D01*
X449193D01*
X456835Y275212D01*
X456836D01*
G75*
G02*
X458100Y274172I0J-1288D01*
G01*
X463151D01*
G75*
G02*
X464415Y275194I1260J-265D01*
G01*
X503321Y275102D01*
Y290884D01*
G75*
G03*
X499214Y305383I-246894J-62105D01*
G01*
X490250Y305372D01*
Y304109D01*
X482572D01*
Y305362D01*
X475226Y305352D01*
Y296456D01*
G75*
G02*
X476111Y295522I-2417J-3174D01*
G01*
X482572D01*
Y302494D01*
X490250D01*
Y294620D01*
X488198D01*
Y292900D01*
X490667D01*
Y286101D01*
X482592D01*
Y291947D01*
X476570D01*
G75*
G02*
X468819Y293281I-3761J1334D01*
G01*
G75*
G02*
X471651Y297100I3990J0D01*
G01*
Y305348D01*
X334246Y305171D01*
X482553Y285026D02*
X490628D01*
Y278227D01*
X482553D01*
Y285026D01*
X469370Y279502D02*
G75*
G02*
X477035I3833J0D01*
G01*
G75*
G02*
X469370I-3833J0D01*
G01*
X337277Y294967D02*
X345352D01*
Y288168D01*
X343061D01*
Y287487D01*
X345069D01*
Y281869D01*
X337482D01*
Y287487D01*
X339486D01*
Y288168D01*
X337277D01*
Y294967D01*
X337317Y302841D02*
X345391D01*
Y296042D01*
X337317D01*
Y302841D01*
X389587Y300368D02*
G75*
G02*
X397252I3833J0D01*
G01*
G75*
G02*
X389587I-3833J0D01*
G01*
X419764Y280033D02*
G75*
G02*
X427429I3833J0D01*
G01*
G75*
G02*
X419764I-3833J0D01*
G01*
Y300368D02*
G75*
G02*
X427429I3833J0D01*
G01*
G75*
G02*
X419764I-3833J0D01*
G01*
X433978Y291561D02*
X435159D01*
G75*
G02*
X435656Y292245I2414J-1232D01*
G01*
X438648Y295237D01*
G75*
G02*
X440650Y296030I1917J-1917D01*
G01*
X452200D01*
G75*
G02*
X459083Y293281I2893J-2748D01*
G01*
G75*
G02*
X452130Y290609I-3990J0D01*
G01*
X441686D01*
X441171Y290094D01*
Y282400D01*
X433978D01*
Y291561D01*
X456836Y281888D02*
X464411D01*
Y275813D01*
X456836D01*
Y281888D01*
X443780Y280388D02*
G75*
G02*
X451445I3833J0D01*
G01*
G75*
G02*
X443780I-3833J0D01*
G01*
Y300368D02*
G75*
G02*
X451445I3833J0D01*
G01*
G75*
G02*
X443780I-3833J0D01*
G01*
X334496Y281626D02*
G36*
X334496Y281626D02*
Y281470D01*
X344611D01*
G75*
G02*
X344819Y281626I876J-948D01*
G01*
X334496D01*
G37*
X388683Y280526D02*
G36*
X388683Y280526D02*
Y275373D01*
X392601Y275364D01*
G75*
G02*
X389587Y279108I819J3744D01*
G01*
G75*
G02*
X390530Y281626I3833J0D01*
G01*
X388064D01*
G75*
G02*
X388683Y280526I-669J-1101D01*
G01*
G37*
X397252Y279108D02*
G36*
X397252Y279108D02*
G75*
G02*
X394220Y275360I-3833J0D01*
G01*
X407919Y275328D01*
Y281101D01*
X415494D01*
Y275310D01*
X415496D01*
X419268Y275301D01*
X419268D01*
X433978Y275266D01*
Y281325D01*
X441171D01*
Y275249D01*
X441175D01*
X449193Y275230D01*
X449193D01*
X456835Y275212D01*
X456836D01*
G75*
G02*
X458024Y274422I0J-1287D01*
G01*
X463231D01*
G75*
G02*
X464415Y275194I1181J-516D01*
G01*
X503071Y275103D01*
Y281626D01*
X490628D01*
Y278227D01*
X482553D01*
Y281626D01*
X476393D01*
G75*
G02*
X477035Y279502I-3190J-2124D01*
G01*
G75*
G02*
X469370I-3833J0D01*
G01*
G75*
G02*
X470013Y281626I3833J0D01*
G01*
X464411D01*
Y275813D01*
X456836D01*
Y281626D01*
X451239D01*
G75*
G02*
X451445Y280388I-3627J-1238D01*
G01*
G75*
G02*
X443780I-3833J0D01*
G01*
G75*
G02*
X443985Y281626I3833J0D01*
G01*
X427082D01*
G75*
G02*
X427429Y280033I-3486J-1593D01*
G01*
G75*
G02*
X419764I-3833J0D01*
G01*
G75*
G02*
X420111Y281626I3833J0D01*
G01*
X396309D01*
G75*
G02*
X397252Y279108I-2889J-2518D01*
G01*
G37*
X334496Y288418D02*
G36*
X334496Y288418D02*
Y281626D01*
X344819D01*
G75*
G02*
X345486Y281813I669J-1103D01*
G01*
X387396D01*
G75*
G02*
X388064Y281626I0J-1288D01*
G01*
X390530D01*
G75*
G02*
X396309I2889J-2518D01*
G01*
X420111D01*
G75*
G02*
X427082I3486J-1593D01*
G01*
X443985D01*
G75*
G02*
X451239I3627J-1239D01*
G01*
X456836D01*
Y281888D01*
X464411D01*
Y281626D01*
X470013D01*
G75*
G02*
X476393I3190J-2124D01*
G01*
X482553D01*
Y285026D01*
X490628D01*
Y281626D01*
X503071D01*
Y288418D01*
X490667D01*
Y286101D01*
X482592D01*
Y288418D01*
X441171D01*
Y282400D01*
X433978D01*
Y288418D01*
X345352D01*
Y288168D01*
X343061D01*
Y287487D01*
X345069D01*
Y281869D01*
X337482D01*
Y287487D01*
X339486D01*
Y288168D01*
X337277D01*
Y288418D01*
X334496D01*
G37*
Y299441D02*
G36*
X334496Y299441D02*
Y288418D01*
X337277D01*
Y294967D01*
X345352D01*
Y288418D01*
X433978D01*
Y291561D01*
X435159D01*
G75*
G02*
X435656Y292245I2407J-1228D01*
G01*
X438648Y295237D01*
G75*
G02*
X440650Y296030I1917J-1917D01*
G01*
X452200D01*
G75*
G02*
X459083Y293281I2893J-2748D01*
G01*
G75*
G02*
X452130Y290609I-3990J0D01*
G01*
X441686D01*
X441171Y290094D01*
Y288418D01*
X482592D01*
Y291947D01*
X476570D01*
G75*
G02*
X468819Y293281I-3761J1334D01*
G01*
G75*
G02*
X471651Y297100I3991J0D01*
G01*
Y299441D01*
X451331D01*
G75*
G02*
X443893I-3719J927D01*
G01*
X427315D01*
G75*
G02*
X419878I-3719J927D01*
G01*
X397138D01*
G75*
G02*
X389700I-3719J927D01*
G01*
X345391D01*
Y296042D01*
X337317D01*
Y299441D01*
X334496D01*
G37*
X475226D02*
G36*
X475226Y299441D02*
Y296456D01*
G75*
G02*
X476111Y295522I-2409J-3167D01*
G01*
X482572D01*
Y299441D01*
X475226D01*
G37*
X488198Y294620D02*
G36*
X488198Y294620D02*
Y292900D01*
X490667D01*
Y288418D01*
X503071D01*
Y291870D01*
G75*
G03*
X501009Y299441I-246374J-63014D01*
G01*
X490250D01*
Y294620D01*
X488198D01*
G37*
X334496Y305133D02*
G36*
X334496Y305133D02*
Y299441D01*
X337317D01*
Y302841D01*
X345391D01*
Y299441D01*
X389700D01*
G75*
G02*
X389587Y300368I3719J927D01*
G01*
G75*
G02*
X397252I3833J0D01*
G01*
G75*
G02*
X397138Y299441I-3833J0D01*
G01*
X419878D01*
G75*
G02*
X419764Y300368I3719J927D01*
G01*
G75*
G02*
X427429I3833J0D01*
G01*
G75*
G02*
X427315Y299441I-3833J0D01*
G01*
X443893D01*
G75*
G02*
X443780Y300368I3719J927D01*
G01*
G75*
G02*
X451445I3833J0D01*
G01*
G75*
G02*
X451331Y299441I-3833J0D01*
G01*
X471651D01*
Y305133D01*
X334496D01*
G37*
X475226D02*
G36*
X475226Y305133D02*
Y299441D01*
X482572D01*
Y302494D01*
X490250D01*
Y299441D01*
X501009D01*
G75*
G03*
X499293Y305133I-244413J-70618D01*
G01*
X490250D01*
Y304109D01*
X482572D01*
Y305133D01*
X475226D01*
G37*
X336419Y29148D02*
Y3033D01*
X374187D01*
G75*
G03*
X511013Y228769I-117796J225736D01*
G01*
G75*
G03*
X510758Y240171I-254678J6D01*
G01*
X424541D01*
Y214298D01*
X431053D01*
Y213203D01*
X487671D01*
Y189856D01*
X462455D01*
Y155747D01*
G75*
G03*
Y155740I804J-4D01*
G01*
X465531Y152664D01*
X467513D01*
Y154601D01*
X475588D01*
Y146526D01*
X472923D01*
Y108783D01*
G75*
G02*
X472923Y108754I-1779J-39D01*
G01*
G75*
G02*
X472400Y107490I-1787J0D01*
G01*
X446195Y81286D01*
X446277D01*
Y74487D01*
X438202D01*
Y81286D01*
X441140D01*
X469348Y109494D01*
Y146526D01*
X467513D01*
Y148463D01*
X464659D01*
G75*
G02*
X463117Y149138I0J2100D01*
G01*
X458008Y154246D01*
X442396D01*
Y114443D01*
X422823D01*
Y111731D01*
G75*
G02*
X422687Y111176I-1199J0D01*
G01*
Y106065D01*
G75*
G02*
X422155Y104453I-2711J0D01*
G01*
Y101888D01*
X417521D01*
Y101943D01*
X417155D01*
Y101888D01*
X413951D01*
Y88613D01*
X416700D01*
G75*
G02*
X417155Y88696I455J-1205D01*
G01*
X417179D01*
G75*
G02*
X417634Y88613I0J-1288D01*
G01*
X422155D01*
Y88203D01*
X422521D01*
Y88613D01*
X427155D01*
Y88203D01*
X427521D01*
Y88613D01*
X432155D01*
Y88203D01*
X435801D01*
Y72723D01*
X438163D01*
Y73412D01*
X446238D01*
Y66613D01*
X438163D01*
Y67302D01*
X435801D01*
Y66549D01*
X413360D01*
Y38419D01*
X395246D01*
Y38365D01*
X384706D01*
Y38419D01*
X377159D01*
Y29148D01*
X336419D01*
X425484Y228065D02*
G75*
G02*
X437102I5809J0D01*
G01*
G75*
G02*
X425484I-5809J0D01*
G01*
X449805Y236345D02*
X457785D01*
Y222262D01*
X449805D01*
Y236345D01*
X450079Y218360D02*
G75*
G02*
X457350I3636J0D01*
G01*
G75*
G02*
X450079I-3636J0D01*
G01*
X474726Y228963D02*
X484872D01*
Y218620D01*
X474726D01*
Y228963D01*
X477224Y233262D02*
G75*
G02*
X484496I3636J0D01*
G01*
G75*
G02*
X477224I-3636J0D01*
G01*
X490236Y173104D02*
G75*
G02*
X497508I3636J0D01*
G01*
G75*
G02*
X490236I-3636J0D01*
G01*
X492638Y217396D02*
G75*
G02*
X499909I3636J0D01*
G01*
G75*
G02*
X492638I-3636J0D01*
G01*
X464509Y187132D02*
X473080D01*
Y176593D01*
X464509D01*
Y187132D01*
X464706Y171384D02*
X473277D01*
Y160845D01*
X464706D01*
Y171384D01*
X477067Y123715D02*
G75*
G02*
X484339I3636J0D01*
G01*
G75*
G02*
X477067I-3636J0D01*
G01*
X477894Y173459D02*
G75*
G02*
X485165I3636J0D01*
G01*
G75*
G02*
X477894I-3636J0D01*
G01*
X450433Y78596D02*
G75*
G02*
X457705I3636J0D01*
G01*
G75*
G02*
X450433I-3636J0D01*
G01*
X448785Y129443D02*
X459443D01*
Y121762D01*
X448785D01*
Y129443D01*
X450433Y110250D02*
G75*
G02*
X457705I3636J0D01*
G01*
G75*
G02*
X450433I-3636J0D01*
G01*
X448785Y147475D02*
X452024D01*
G75*
G02*
X450591Y150368I2202J2893D01*
G01*
G75*
G02*
X457862I3636J0D01*
G01*
G75*
G02*
X456428Y147475I-3636J0D01*
G01*
X459443D01*
Y139794D01*
X448785D01*
Y147475D01*
X450433Y133892D02*
G75*
G02*
X457705I3636J0D01*
G01*
G75*
G02*
X450433I-3636J0D01*
G01*
X427521Y109967D02*
X432155D01*
Y101888D01*
X427521D01*
Y109967D01*
X433819Y94758D02*
G75*
G02*
X441484I3833J0D01*
G01*
G75*
G02*
X433819I-3833J0D01*
G01*
X434272Y110250D02*
G75*
G02*
X441543I3636J0D01*
G01*
G75*
G02*
X434272I-3636J0D01*
G01*
X422718Y109770D02*
X426958D01*
Y102085D01*
X422718D01*
Y109770D01*
X415395Y101207D02*
X429281D01*
Y89290D01*
X415395D01*
Y101207D01*
X417100Y64739D02*
X424383D01*
Y57258D01*
X417100D01*
Y64739D01*
X421772Y49561D02*
G75*
G02*
X429043I3636J0D01*
G01*
G75*
G02*
X421772I-3636J0D01*
G01*
X426175Y65341D02*
X433856D01*
Y58935D01*
X426175D01*
Y65341D01*
X402080Y37849D02*
X409364D01*
Y30369D01*
X402080D01*
Y37849D01*
X384903Y32369D02*
X395049D01*
Y21632D01*
X384903D01*
Y32369D01*
X339835Y16844D02*
G75*
G02*
X351846I6006J0D01*
G01*
G75*
G02*
X339835I-6006J0D01*
G01*
X360661D02*
G75*
G02*
X372280I5809J0D01*
G01*
G75*
G02*
X360661I-5809J0D01*
G01*
X336669D02*
G36*
X336669Y16844D02*
Y3283D01*
X374665D01*
G75*
G03*
X397530Y16844I-118294J225517D01*
G01*
X372280D01*
G75*
G02*
X360661I-5809J0D01*
G01*
X351846D01*
G75*
G02*
X339835I-6006J0D01*
G01*
X336669D01*
G37*
Y27000D02*
G36*
X336669Y27000D02*
Y16844D01*
X339835D01*
G75*
G02*
X351846I6006J0D01*
G01*
X360661D01*
G75*
G02*
X372280I5809J0D01*
G01*
X397530D01*
G75*
G03*
X411703Y27000I-141146J211934D01*
G01*
X395049D01*
Y21632D01*
X384903D01*
Y27000D01*
X336669D01*
G37*
Y29148D02*
G36*
X336669Y29148D02*
Y27000D01*
X384903D01*
Y32369D01*
X395049D01*
Y27000D01*
X411703D01*
G75*
G03*
X420524Y34109I-155341J201812D01*
G01*
X409364D01*
Y30369D01*
X402080D01*
Y34109D01*
X377159D01*
Y29148D01*
X336669D01*
G37*
X377159Y38419D02*
G36*
X377159Y38419D02*
Y34109D01*
X402080D01*
Y37849D01*
X409364D01*
Y34109D01*
X420524D01*
G75*
G03*
X437269Y49561I-164163J194694D01*
G01*
X429043D01*
G75*
G02*
X421772I-3636J0D01*
G01*
X413360D01*
Y38419D01*
X395246D01*
Y38365D01*
X384706D01*
Y38419D01*
X377159D01*
G37*
X413360Y60998D02*
G36*
X413360Y60998D02*
Y49561D01*
X421772D01*
G75*
G02*
X429043I3636J0D01*
G01*
X437269D01*
G75*
G03*
X447926Y60998I-180888J179218D01*
G01*
X433856D01*
Y58935D01*
X426175D01*
Y60998D01*
X424383D01*
Y57258D01*
X417100D01*
Y60998D01*
X413360D01*
G37*
Y66549D02*
G36*
X413360Y66549D02*
Y60998D01*
X417100D01*
Y64739D01*
X424383D01*
Y60998D01*
X426175D01*
Y65341D01*
X433856D01*
Y60998D01*
X447926D01*
G75*
G03*
X462013Y78596I-191544J167775D01*
G01*
X457705D01*
G75*
G02*
X450433I-3636J0D01*
G01*
X446277D01*
Y74487D01*
X438202D01*
Y78596D01*
X435801D01*
Y72723D01*
X438163D01*
Y73412D01*
X446238D01*
Y66613D01*
X438163D01*
Y67302D01*
X435801D01*
Y66549D01*
X413360D01*
G37*
X413951Y94758D02*
G36*
X413951Y94758D02*
Y88613D01*
X416700D01*
G75*
G02*
X417155Y88696I454J-1199D01*
G01*
X417179D01*
G75*
G02*
X417634Y88613I1J-1282D01*
G01*
X422155D01*
Y88203D01*
X422521D01*
Y88613D01*
X427155D01*
Y88203D01*
X427521D01*
Y88613D01*
X432155D01*
Y88203D01*
X435801D01*
Y78596D01*
X438202D01*
Y81286D01*
X441140D01*
X454612Y94758D01*
X441484D01*
G75*
G02*
X433819I-3833J0D01*
G01*
X429281D01*
Y89290D01*
X415395D01*
Y94758D01*
X413951D01*
G37*
X446277Y81286D02*
G36*
X446277Y81286D02*
Y78596D01*
X450433D01*
G75*
G02*
X457705I3636J0D01*
G01*
X462013D01*
G75*
G03*
X472894Y94758I-205627J150177D01*
G01*
X459667D01*
X446195Y81286D01*
X446277D01*
G37*
X413951Y101888D02*
G36*
X413951Y101888D02*
Y94758D01*
X415395D01*
Y101207D01*
X429281D01*
Y94758D01*
X433819D01*
G75*
G02*
X441484I3833J0D01*
G01*
X454612D01*
X465782Y105928D01*
X432155D01*
Y101888D01*
X427521D01*
Y105928D01*
X426958D01*
Y102085D01*
X422718D01*
Y105928D01*
X422683D01*
G75*
G02*
X422155Y104453I-2706J137D01*
G01*
Y101888D01*
X417521D01*
Y101943D01*
X417155D01*
Y101888D01*
X413951D01*
G37*
X470837Y105928D02*
G36*
X470837Y105928D02*
X459667Y94758D01*
X472894D01*
G75*
G03*
X479421Y105928I-216536J134036D01*
G01*
X470837D01*
G37*
X422687Y110250D02*
G36*
X422687Y110250D02*
Y106065D01*
Y106065D01*
G75*
G02*
X422683Y105928I-2713J1D01*
G01*
X422718D01*
Y109770D01*
X426958D01*
Y105928D01*
X427521D01*
Y109967D01*
X432155D01*
Y105928D01*
X465782D01*
X469348Y109494D01*
Y110250D01*
X457705D01*
G75*
G02*
X450433I-3636J0D01*
G01*
X441543D01*
G75*
G02*
X434272I-3636J0D01*
G01*
X422687D01*
G37*
X472400Y107490D02*
G36*
X472400Y107490D02*
X470837Y105928D01*
X479421D01*
G75*
G03*
X481748Y110250I-223157J122893D01*
G01*
X472923D01*
Y108783D01*
G75*
G02*
X472923Y108761I-546J-21D01*
G01*
G75*
G02*
Y108754I-547J-4D01*
G01*
G75*
G02*
X472400Y107490I-1789J1D01*
G01*
G37*
X422687Y111176D02*
G36*
X422687Y111176D02*
Y110250D01*
X434272D01*
G75*
G02*
X441543I3636J0D01*
G01*
X450433D01*
G75*
G02*
X457705I3636J0D01*
G01*
X469348D01*
Y123715D01*
X459443D01*
Y121762D01*
X448785D01*
Y123715D01*
X442396D01*
Y114443D01*
X422823D01*
Y111731D01*
G75*
G02*
X422687Y111176I-1202J1D01*
G01*
G37*
X472923Y123715D02*
G36*
X472923Y123715D02*
Y110250D01*
X481748D01*
G75*
G03*
X488331Y123715I-225359J118524D01*
G01*
X484339D01*
G75*
G02*
X477067I-3636J0D01*
G01*
X472923D01*
G37*
X442396Y133892D02*
G36*
X442396Y133892D02*
Y123715D01*
X448785D01*
Y129443D01*
X459443D01*
Y123715D01*
X469348D01*
Y133892D01*
X457705D01*
G75*
G02*
X450433I-3636J0D01*
G01*
X442396D01*
G37*
X472923D02*
G36*
X472923Y133892D02*
Y123715D01*
X477067D01*
G75*
G02*
X484339I3636J0D01*
G01*
X488331D01*
G75*
G03*
X492676Y133892I-231970J105068D01*
G01*
X472923D01*
G37*
X442396Y146899D02*
G36*
X442396Y146899D02*
Y133892D01*
X450433D01*
G75*
G02*
X457705I3636J0D01*
G01*
X469348D01*
Y146526D01*
X467513D01*
Y146899D01*
X459443D01*
Y139794D01*
X448785D01*
Y146899D01*
X442396D01*
G37*
X472923Y146526D02*
G36*
X472923Y146526D02*
Y133892D01*
X492676D01*
G75*
G03*
X497492Y146899I-236319J94890D01*
G01*
X475588D01*
Y146526D01*
X472923D01*
G37*
X442396Y154246D02*
G36*
X442396Y154246D02*
Y146899D01*
X448785D01*
Y147475D01*
X452024D01*
G75*
G02*
X450591Y150367I2201J2893D01*
G01*
G75*
G02*
Y150368I4511J0D01*
G01*
G75*
G02*
X457862I3636J0D01*
G01*
G75*
G02*
Y150367I-4511J0D01*
G01*
G75*
G02*
X456428Y147475I-3635J0D01*
G01*
X459443D01*
Y146899D01*
X467513D01*
Y148463D01*
X464659D01*
G75*
G02*
X463117Y149138I0J2100D01*
G01*
X458008Y154246D01*
X442396D01*
G37*
X462455Y155747D02*
G36*
X462455Y155747D02*
Y155740D01*
X465531Y152664D01*
X467513D01*
Y154601D01*
X475588D01*
Y146899D01*
X497492D01*
G75*
G03*
X503184Y166115I-241148J81884D01*
G01*
X473277D01*
Y160845D01*
X464706D01*
Y166115D01*
X462455D01*
Y155747D01*
G37*
Y173104D02*
G36*
X462455Y173104D02*
Y166115D01*
X464706D01*
Y171384D01*
X473277D01*
Y166115D01*
X503184D01*
G75*
G03*
X504854Y173104I-246820J62667D01*
G01*
X497508D01*
G75*
G02*
X490236I-3636J0D01*
G01*
X485148D01*
G75*
G02*
X477911I-3619J354D01*
G01*
X462455D01*
G37*
Y181863D02*
G36*
X462455Y181863D02*
Y173104D01*
X477911D01*
G75*
G02*
X477894Y173459I3619J354D01*
G01*
G75*
G02*
X485165I3636J0D01*
G01*
G75*
G02*
X485148Y173104I-3636J0D01*
G01*
X490236D01*
G75*
G02*
X497508I3636J0D01*
G01*
X504854D01*
G75*
G03*
X506656Y181863I-248483J55666D01*
G01*
X473080D01*
Y176593D01*
X464509D01*
Y181863D01*
X462455D01*
G37*
X424541Y218360D02*
G36*
X424541Y218360D02*
Y214298D01*
X431053D01*
Y213203D01*
X487671D01*
Y189856D01*
X462455D01*
Y181863D01*
X464509D01*
Y187132D01*
X473080D01*
Y181863D01*
X506656D01*
G75*
G03*
X510763Y217489I-250281J46909D01*
G01*
Y218360D01*
X499779D01*
G75*
G02*
X499909Y217396I-3506J-965D01*
G01*
G75*
G02*
X492638I-3636J0D01*
G01*
G75*
G02*
X492768Y218360I3636J0D01*
G01*
X457350D01*
G75*
G02*
X450079I-3636J0D01*
G01*
X424541D01*
G37*
Y228065D02*
G36*
X424541Y228065D02*
Y218360D01*
X450079D01*
G75*
G02*
X457350I3636J0D01*
G01*
X492768D01*
G75*
G02*
X499779I3506J-965D01*
G01*
X510763D01*
Y228065D01*
X484872D01*
Y218620D01*
X474726D01*
Y228065D01*
X457785D01*
Y222262D01*
X449805D01*
Y228065D01*
X437102D01*
G75*
G02*
X425484I-5809J0D01*
G01*
X424541D01*
G37*
Y233262D02*
G36*
X424541Y233262D02*
Y228065D01*
X425484D01*
G75*
G02*
X428698Y233262I5809J0D01*
G01*
X424541D01*
G37*
X433889D02*
G36*
X433889Y233262D02*
G75*
G02*
X437102Y228065I-2596J-5197D01*
G01*
X449805D01*
Y233262D01*
X433889D01*
G37*
X457785D02*
G36*
X457785Y233262D02*
Y228065D01*
X474726D01*
Y228963D01*
X484872D01*
Y228065D01*
X510763D01*
Y233262D01*
X484496D01*
G75*
G02*
X477224I-3636J0D01*
G01*
X457785D01*
G37*
X424541Y239921D02*
G36*
X424541Y239921D02*
Y233262D01*
X428698D01*
G75*
G02*
X433889I2596J-5197D01*
G01*
X449805D01*
Y236345D01*
X457785D01*
Y233262D01*
X477224D01*
G75*
G02*
X484496I3636J0D01*
G01*
X510763D01*
Y239921D01*
X424541D01*
G37*
X345081Y249257D02*
Y239648D01*
X355498D01*
G75*
G02*
X356414Y239266I0J-1288D01*
G01*
X359638D01*
G75*
G02*
X360554Y239648I916J-906D01*
G01*
X365683D01*
G75*
G02*
X366971Y238360I0J-1288D01*
G01*
Y216708D01*
G75*
G02*
X367668Y216912I695J-1084D01*
G01*
X423254D01*
Y228033D01*
G75*
G02*
X423253Y228065I1289J32D01*
G01*
Y233262D01*
G75*
G02*
X423254Y233294I1290J0D01*
G01*
Y240171D01*
G75*
G02*
X423450Y240855I1288J0D01*
G01*
G75*
G02*
X423293Y241470I1131J615D01*
G01*
Y248234D01*
X399163D01*
G75*
G02*
X398351Y248522I0J1288D01*
G01*
X391010D01*
G75*
G02*
X390198Y248234I-812J1000D01*
G01*
X374360D01*
G75*
G02*
X374163Y248249I-1J1288D01*
G01*
Y244093D01*
X365592D01*
Y248473D01*
G75*
G02*
X364741Y249260I355J1238D01*
G01*
G75*
G02*
X364659Y249257I-84J1284D01*
G01*
X345081D01*
X404854Y228065D02*
G75*
G02*
X416472I5809J0D01*
G01*
G75*
G02*
X404854I-5809J0D01*
G01*
X407915Y247231D02*
X416013D01*
Y239526D01*
X407915D01*
Y247231D01*
X371043Y223675D02*
G75*
G02*
X381583I5270J0D01*
G01*
G75*
G02*
X371043I-5270J0D01*
G01*
X347887Y248971D02*
X355171D01*
Y241491D01*
X347887D01*
Y248971D01*
X356155Y248931D02*
X363439D01*
Y241451D01*
X356155D01*
Y248931D01*
X366971Y228065D02*
G36*
X366971Y228065D02*
Y216958D01*
X423200D01*
Y228065D01*
X416472D01*
G75*
G02*
X404854I-5809J0D01*
G01*
X379228D01*
G75*
G02*
X381583Y223675I-2915J-4390D01*
G01*
G75*
G02*
X371043I-5270J0D01*
G01*
G75*
G02*
X373398Y228065I5270J0D01*
G01*
X366971D01*
G37*
X345331Y243378D02*
G36*
X345331Y243378D02*
Y239648D01*
X355498D01*
G75*
G02*
X356414Y239266I1J-1286D01*
G01*
X359638D01*
G75*
G02*
X360554Y239648I915J-904D01*
G01*
X365683D01*
G75*
G02*
X366971Y238360I0J-1288D01*
G01*
Y228065D01*
X373398D01*
G75*
G02*
X379228I2915J-4390D01*
G01*
X404854D01*
G75*
G02*
X416472I5809J0D01*
G01*
X423200D01*
Y243378D01*
X416013D01*
Y239526D01*
X407915D01*
Y243378D01*
X363439D01*
Y241451D01*
X356155D01*
Y243378D01*
X355171D01*
Y241491D01*
X347887D01*
Y243378D01*
X345331D01*
G37*
Y249010D02*
G36*
X345331Y249010D02*
Y243378D01*
X347887D01*
Y248971D01*
X355171D01*
Y243378D01*
X356155D01*
Y248931D01*
X363439D01*
Y243378D01*
X407915D01*
Y247231D01*
X416013D01*
Y243378D01*
X423200D01*
Y248234D01*
X399163D01*
G75*
G02*
X398351Y248522I-1J1285D01*
G01*
X391010D01*
G75*
G02*
X390198Y248234I-811J997D01*
G01*
X374360D01*
G75*
G02*
X374163Y248249I-5J1233D01*
G01*
Y244093D01*
X365592D01*
Y248473D01*
G75*
G02*
X364867Y249010I354J1237D01*
G01*
X345331D01*
G37*
X345486Y280526D02*
Y268546D01*
G75*
G02*
X345743Y268507I-60J-1288D01*
G01*
X347865Y268512D01*
G75*
G02*
X349102Y267593I3J-1288D01*
G01*
X353913D01*
G75*
G02*
X355150Y268526I1238J-354D01*
G01*
X356052Y268528D01*
G75*
G02*
X357286Y267624I4J-1288D01*
G01*
X360827D01*
G75*
G02*
X361029I101J-2707D01*
G01*
X362106D01*
G75*
G02*
X363339Y268543I1234J-370D01*
G01*
X364655Y268546D01*
G75*
G02*
X365817Y267821I4J-1288D01*
G01*
X374360D01*
Y262006D01*
X365947D01*
Y258766D01*
X374360D01*
Y252951D01*
X365947D01*
Y249711D01*
X374360D01*
Y249522D01*
X390198D01*
Y263195D01*
X399163D01*
Y249522D01*
X424581D01*
Y241470D01*
X503793D01*
X503813Y241490D01*
X503793Y249522D01*
Y273813D01*
X464411Y273906D01*
Y268097D01*
X456836D01*
Y273924D01*
G75*
G02*
X456833I-2J1280D01*
G01*
X449190Y273942D01*
X441171Y273961D01*
Y272164D01*
X433978D01*
Y273978D01*
X419265Y274013D01*
X415492Y274022D01*
G75*
G02*
X415485I-4J1310D01*
G01*
X387396Y274089D01*
Y280526D01*
X345486D01*
X449608Y256227D02*
X457982D01*
Y241750D01*
X449608D01*
Y256227D01*
X425591Y249778D02*
G75*
G02*
X433256I3833J0D01*
G01*
G75*
G02*
X425591I-3833J0D01*
G01*
X407718Y262388D02*
X416210D01*
Y254290D01*
X407718D01*
Y262388D01*
X407919Y273384D02*
X415494D01*
Y267309D01*
X407919D01*
Y273384D01*
X347671Y277081D02*
X355348D01*
Y269207D01*
X347671D01*
Y277081D01*
X355860Y277113D02*
X363537D01*
Y269239D01*
X355860D01*
Y277113D01*
X424581Y248989D02*
G36*
X424581Y248989D02*
Y241720D01*
X503563D01*
Y248989D01*
X457982D01*
Y241750D01*
X449608D01*
Y248989D01*
X433174D01*
G75*
G02*
X425672I-3751J789D01*
G01*
X424581D01*
G37*
X365947Y252951D02*
G36*
X365947Y252951D02*
Y249711D01*
X374360D01*
Y249522D01*
X390198D01*
Y258339D01*
X374360D01*
Y252951D01*
X365947D01*
G37*
X399163Y258339D02*
G36*
X399163Y258339D02*
Y249522D01*
X424581D01*
Y248989D01*
X425672D01*
G75*
G02*
X425591Y249778I3751J788D01*
G01*
G75*
G02*
X433256I3833J0D01*
G01*
G75*
G02*
X433174Y248989I-3833J-1D01*
G01*
X449608D01*
Y256227D01*
X457982D01*
Y248989D01*
X503563D01*
Y258339D01*
X416210D01*
Y254290D01*
X407718D01*
Y258339D01*
X399163D01*
G37*
X345736Y270347D02*
G36*
X345736Y270347D02*
Y268509D01*
G75*
G02*
X345743Y268507I-344J-1254D01*
G01*
X347865Y268512D01*
G75*
G02*
X349102Y267593I2J-1289D01*
G01*
X353913D01*
G75*
G02*
X355150Y268526I1238J-354D01*
G01*
X356052Y268528D01*
G75*
G02*
X357286Y267624I4J-1289D01*
G01*
X360827D01*
G75*
G02*
X361029I101J-2600D01*
G01*
X362106D01*
G75*
G02*
X363339Y268543I1234J-370D01*
G01*
X364655Y268546D01*
G75*
G02*
X365817Y267821I4J-1287D01*
G01*
X374360D01*
Y262006D01*
X365947D01*
Y258766D01*
X374360D01*
Y258339D01*
X390198D01*
Y263195D01*
X399163D01*
Y258339D01*
X407718D01*
Y262388D01*
X416210D01*
Y258339D01*
X503563D01*
Y270347D01*
X464411D01*
Y268097D01*
X456836D01*
Y270347D01*
X415494D01*
Y267309D01*
X407919D01*
Y270347D01*
X363537D01*
Y269239D01*
X355860D01*
Y270347D01*
X355348D01*
Y269207D01*
X347671D01*
Y270347D01*
X345736D01*
G37*
Y280276D02*
G36*
X345736Y280276D02*
Y270347D01*
X347671D01*
Y277081D01*
X355348D01*
Y270347D01*
X355860D01*
Y277113D01*
X363537D01*
Y270347D01*
X407919D01*
Y273384D01*
X415494D01*
Y270347D01*
X456836D01*
Y273924D01*
X456833D01*
X449190Y273942D01*
X441171Y273961D01*
Y272164D01*
X433978D01*
Y273978D01*
X419265Y274013D01*
X415492Y274022D01*
X415485D01*
X387396Y274089D01*
Y280276D01*
X345736D01*
G37*
X464411Y273906D02*
G36*
X464411Y273906D02*
Y270347D01*
X503563D01*
Y273813D01*
X464411Y273906D01*
G37*
X360364Y84754D02*
Y54781D01*
X363911Y51234D01*
X408537D01*
Y78360D01*
X365683D01*
Y90074D01*
X360364Y84754D01*
X365315Y63111D02*
Y71680D01*
G75*
G02*
X371714Y78079I6399J0D01*
G01*
X380282D01*
G75*
G02*
X386681Y71680I0J-6399D01*
G01*
Y63111D01*
G75*
G02*
X380282Y56713I-6399J0D01*
G01*
X371714D01*
G75*
G02*
X365315Y63111I0J6399D01*
G01*
X360614Y67396D02*
G36*
X360614Y67396D02*
Y54531D01*
X363661Y51484D01*
X408287D01*
Y67396D01*
X386681D01*
Y63111D01*
Y63111D01*
G75*
G02*
X380282Y56713I-6399J0D01*
G01*
X371714D01*
G75*
G02*
X365315Y63111I0J6398D01*
G01*
Y63111D01*
Y67396D01*
X360614D01*
G37*
Y85004D02*
G36*
X360614Y85004D02*
Y67396D01*
X365315D01*
Y71680D01*
Y71680D01*
G75*
G02*
X371714Y78079I6399J0D01*
G01*
X380282D01*
G75*
G02*
X386681Y71680I0J-6398D01*
G01*
Y71680D01*
Y67396D01*
X408287D01*
Y78360D01*
X365683D01*
Y89824D01*
X365433D01*
X360614Y85004D01*
G37*
X366844Y214803D02*
Y214087D01*
G75*
G02*
X366850Y213973I-1281J-115D01*
G01*
G75*
G02*
X366844Y213858I-1289J0D01*
G01*
G75*
G02*
Y213857I-1172J-1D01*
G01*
G75*
G02*
Y213848I-1279J-4D01*
G01*
Y178754D01*
X441943D01*
Y155683D01*
X461168D01*
G75*
G02*
X461167Y155740I1287J55D01*
G01*
G75*
G02*
Y155742I1327J1D01*
G01*
Y160648D01*
X452698D01*
Y171581D01*
X461167D01*
Y176396D01*
X452502D01*
Y187329D01*
X461167D01*
Y189856D01*
G75*
G02*
X462455Y191144I1288J0D01*
G01*
X480880D01*
Y201101D01*
X474529D01*
Y211837D01*
X480880D01*
Y211915D01*
X431053D01*
Y199034D01*
X414805D01*
Y214298D01*
X423254D01*
Y215624D01*
X367666D01*
X366844Y214803D01*
X377632Y212626D02*
G75*
G02*
X383098Y207159I0J-5467D01*
G01*
G75*
G02*
X377632Y201693I-5467J0D01*
G01*
G75*
G02*
X372165Y207159I0J5467D01*
G01*
G75*
G02*
X377632Y212626I5467J0D01*
G01*
X367094Y207159D02*
G36*
X367094Y207159D02*
Y178754D01*
X441943D01*
Y155933D01*
X461167D01*
Y160648D01*
X452698D01*
Y171581D01*
X461167D01*
Y176396D01*
X452502D01*
Y187329D01*
X461167D01*
Y189856D01*
G75*
G02*
X462455Y191144I1288J0D01*
G01*
X480630D01*
Y201101D01*
X474529D01*
Y207159D01*
X431053D01*
Y199034D01*
X414805D01*
Y207159D01*
X383098D01*
G75*
G02*
X377632Y201693I-5467J0D01*
G01*
G75*
G02*
X372165Y207159I0J5467D01*
G01*
X367094D01*
G37*
Y215053D02*
G36*
X367094Y215053D02*
Y207159D01*
X372165D01*
G75*
G02*
X377632Y212626I5467J0D01*
G01*
G75*
G02*
X383098Y207159I0J-5467D01*
G01*
X414805D01*
Y214298D01*
X423254D01*
Y215374D01*
X367416D01*
X367094Y215053D01*
G37*
X431053Y211915D02*
G36*
X431053Y211915D02*
Y207159D01*
X474529D01*
Y211837D01*
X480630D01*
Y211915D01*
X431053D01*
G37*
X393459Y88913D02*
Y79719D01*
X417179D01*
Y87407D01*
X417155D01*
Y80534D01*
X412521D01*
Y87407D01*
X411864D01*
G75*
G02*
X410576Y88695I0J1288D01*
G01*
Y88903D01*
X408281D01*
G75*
G02*
X407709Y89037I0J1287D01*
G01*
X401130Y89015D01*
G75*
G02*
X400604Y88903I-526J1176D01*
G01*
X393616D01*
G75*
G02*
X393459Y88913I2J1288D01*
G01*
X400604Y88518D02*
X408281D01*
Y80644D01*
X400604D01*
Y88518D01*
X393709Y84581D02*
G36*
X393709Y84581D02*
Y79969D01*
X416929D01*
Y80534D01*
X412521D01*
Y84581D01*
X408281D01*
Y80644D01*
X400604D01*
Y84581D01*
X393709D01*
G37*
Y88787D02*
G36*
X393709Y88787D02*
Y84581D01*
X400604D01*
Y88518D01*
X408281D01*
Y84581D01*
X412521D01*
Y87407D01*
X411864D01*
G75*
G02*
X410576Y88695I0J1288D01*
G01*
Y88787D01*
X393709D01*
G37*
X393616Y177466D02*
Y164239D01*
X394537D01*
Y159191D01*
X396783Y156944D01*
G75*
G02*
X397726Y154758I-2063J-2186D01*
G01*
Y116327D01*
G75*
G02*
X397431Y111243I-3007J-2376D01*
G01*
Y108872D01*
G75*
G02*
X396582Y106902I-2711J0D01*
G01*
X394464Y104784D01*
G75*
G02*
X393616Y103526I-2836J996D01*
G01*
Y90191D01*
G75*
G02*
X393618I1J-1388D01*
G01*
X400604D01*
Y98006D01*
X408281D01*
Y90191D01*
G75*
G03*
X408283Y90191I2J8D01*
G01*
X412663D01*
Y101888D01*
X412521D01*
Y109967D01*
X417155D01*
Y106322D01*
G75*
G02*
X417265Y106784I2680J-395D01*
G01*
Y111170D01*
G75*
G02*
X417126Y111731I1060J561D01*
G01*
Y116171D01*
G75*
G02*
X417974Y117317I1199J0D01*
G01*
X413163Y117356D01*
X418144D01*
G75*
G02*
X418325Y117370I181J-1184D01*
G01*
X421624D01*
G75*
G02*
X421805Y117356I0J-1198D01*
G01*
X441108D01*
Y154246D01*
G75*
G02*
X441173Y154651I1288J0D01*
G01*
G75*
G02*
X440655Y155683I770J1032D01*
G01*
Y177466D01*
X393616D01*
X400387Y107947D02*
X408462D01*
Y99872D01*
X400387D01*
Y107947D01*
X412683Y148924D02*
X439285D01*
Y120313D01*
X412683D01*
Y148924D01*
X414805Y173746D02*
X431053D01*
Y158483D01*
X414805D01*
Y173746D01*
X393866Y103774D02*
G36*
X393866Y103774D02*
Y90441D01*
X400604D01*
Y98006D01*
X408281D01*
Y90441D01*
X412663D01*
Y101888D01*
X412521D01*
Y103910D01*
X408462D01*
Y99872D01*
X400387D01*
Y103910D01*
X393981D01*
G75*
G02*
X393866Y103774I-2347J1870D01*
G01*
G37*
X394464Y104784D02*
G36*
X394464Y104784D02*
G75*
G02*
X393981Y103910I-2832J993D01*
G01*
X400387D01*
Y107947D01*
X408462D01*
Y103910D01*
X412521D01*
Y109967D01*
X417155D01*
Y106322D01*
G75*
G02*
X417265Y106784I2664J-391D01*
G01*
Y111170D01*
G75*
G02*
X417126Y111731I1062J562D01*
G01*
Y116171D01*
G75*
G02*
X417974Y117317I1199J0D01*
G01*
X413163Y117356D01*
X418144D01*
G75*
G02*
X418325Y117370I183J-1213D01*
G01*
X421624D01*
G75*
G02*
X421805Y117356I-2J-1226D01*
G01*
X440923D01*
Y134619D01*
X439285D01*
Y120313D01*
X412683D01*
Y134619D01*
X397726D01*
Y116327D01*
G75*
G02*
X398551Y113951I-3007J-2376D01*
G01*
G75*
G02*
X397431Y111243I-3832J0D01*
G01*
Y108872D01*
G75*
G02*
X396582Y106902I-2711J0D01*
G01*
X394464Y104784D01*
G37*
X393866Y166115D02*
G36*
X393866Y166115D02*
Y164239D01*
X394537D01*
Y159191D01*
X396783Y156944D01*
G75*
G02*
X397726Y154759I-2061J-2185D01*
G01*
G75*
G02*
Y154758I-3759J0D01*
G01*
Y134619D01*
X412683D01*
Y148924D01*
X439285D01*
Y134619D01*
X440923D01*
Y154897D01*
G75*
G02*
X440655Y155683I1021J787D01*
G01*
Y166115D01*
X431053D01*
Y158483D01*
X414805D01*
Y166115D01*
X393866D01*
G37*
Y177216D02*
G36*
X393866Y177216D02*
Y166115D01*
X414805D01*
Y173746D01*
X431053D01*
Y166115D01*
X440655D01*
Y177216D01*
X393866D01*
G37*
D02*
D14*
X70545Y304030D02*
Y304039D01*
X74743Y308236D01*
X72933Y310046D02*
Y310079D01*
X77888Y315033D01*
X73715Y296352D02*
X73716D01*
X80171Y302807D01*
X74226Y300407D02*
Y300482D01*
X78361Y304617D01*
X77337Y296333D02*
Y296354D01*
X81981Y300998D01*
X86569Y287612D02*
X86690D01*
X91028Y291950D01*
X87409Y295569D02*
Y295460D01*
X82770Y290821D01*
X89219Y293760D02*
Y293746D01*
X82533Y287061D01*
X90889Y331620D02*
Y331420D01*
X86785Y327317D01*
X86766D01*
X82573Y331510D01*
Y336589D01*
X66844Y352317D01*
X60604D01*
X60089Y352832D01*
X92698Y329811D02*
Y329923D01*
X95781Y333006D01*
Y334876D01*
X91805Y338852D01*
X84561D01*
X65581Y357832D01*
X66054Y358304D01*
Y358895D01*
X98085Y43911D02*
X91234D01*
X103742Y287089D02*
X102742D01*
X99758Y290073D01*
X108984Y313525D02*
X109017D01*
X113262Y317770D01*
Y322199D01*
X110794Y311716D02*
Y311798D01*
X115447Y316451D01*
X118557D01*
X130329Y328222D01*
X118242Y343636D02*
Y357722D01*
X118344Y357824D01*
X118242Y343636D02*
Y341211D01*
X120711Y338743D01*
X129778Y354640D02*
Y354557D01*
X133348Y350987D01*
X132486Y351849D01*
Y351852D01*
X129935Y354404D01*
Y359266D01*
X132494Y361825D01*
Y371679D01*
X132486Y371687D01*
Y371966D01*
X169620Y434364D02*
X169404D01*
Y439679D01*
X179285Y444246D01*
X176543Y451061D01*
X172313Y405919D02*
Y411428D01*
X172447Y411561D01*
Y417900D02*
Y420030D01*
X169581Y422896D01*
Y426490D01*
X174170Y450102D02*
X176057Y445545D01*
X159222Y437675D01*
Y434719D01*
X159285D01*
X174415Y411561D02*
Y408069D01*
X175628Y406856D01*
Y403671D01*
X175687D01*
X177010Y402348D01*
X181215D01*
X182659Y403793D01*
Y417234D01*
X184219Y418793D01*
X199010D01*
X174415Y417900D02*
Y421813D01*
X178825Y406159D02*
Y406817D01*
X176384Y409258D01*
Y411561D01*
X179187Y426372D02*
Y424163D01*
X176549Y421526D01*
Y418065D01*
X176384Y417900D01*
X179226Y434246D02*
X179010D01*
Y441392D01*
X182593Y443124D01*
X178915Y452020D01*
X190907Y361978D02*
Y365199D01*
X194423Y368715D01*
X194364D01*
X195329Y426825D02*
Y420801D01*
X197337Y418793D01*
X199010D01*
X214955Y386510D02*
X209915D01*
X209030Y387396D01*
Y385644D01*
X208990D01*
X221451Y331726D02*
X220132D01*
Y374935D01*
X223144Y377947D01*
X228616D01*
X228636Y377967D01*
X237482D01*
X221943Y450644D02*
Y444404D01*
X236726Y429620D01*
X241207D01*
X249455Y421372D01*
Y420959D01*
X257415D01*
X231234Y383065D02*
X232081D01*
X232888Y383872D01*
X237482D01*
X231411Y380309D02*
X232415D01*
X234010Y381904D01*
X237482D01*
X231451Y331726D02*
Y334679D01*
X222337Y343793D01*
Y374502D01*
X223656Y375821D01*
X237482D01*
Y375998D01*
X231628Y387809D02*
X237482D01*
X231648Y405526D02*
X237482D01*
Y379935D02*
X243439D01*
Y380014D01*
X243970Y380545D01*
Y382140D01*
X243872D01*
X237482Y385841D02*
X242415D01*
X237482Y391746D02*
Y391825D01*
X233656D01*
X233262Y391431D01*
X232061D01*
X237482Y393715D02*
X233695D01*
Y393734D01*
X233419Y394010D01*
X231982D01*
X237482Y397652D02*
X233242D01*
X233006Y397415D01*
X230998D01*
X237482Y399620D02*
X233301D01*
X232888Y400033D01*
X231018D01*
X237482Y401589D02*
X240841D01*
X242140Y400880D01*
X243222D01*
X237482Y403557D02*
X243183D01*
X242356Y389778D02*
X237482D01*
X245309Y368171D02*
Y371864D01*
X244994D01*
Y375565D01*
X245309Y413352D02*
X245289D01*
X241557Y409620D01*
X222337D01*
X221431Y408715D01*
Y402494D01*
X247179Y436333D02*
Y436352D01*
X261156Y450329D01*
X261943D01*
Y450644D01*
X247278Y368171D02*
Y372947D01*
X247730Y373400D01*
Y375526D01*
X247278Y413352D02*
Y408656D01*
X246352Y407730D01*
X228360D01*
X226963Y406333D01*
Y404344D01*
X249246Y368171D02*
Y362337D01*
X251215Y368171D02*
X251234D01*
Y379246D01*
X250467Y380014D01*
Y380880D01*
X251215Y413352D02*
Y402022D01*
X255644Y397593D01*
X273380D01*
X276864Y401077D01*
Y407140D01*
X278006Y408281D01*
X323736D01*
X326254Y410799D01*
X337337D01*
X253183Y368171D02*
Y362573D01*
X253144Y362022D01*
X255152Y368171D02*
Y364226D01*
X255742Y363636D01*
X255821D01*
Y359089D01*
Y436037D02*
Y438498D01*
X261274Y443951D01*
X289876D01*
X291943Y446018D01*
Y450644D01*
X257120Y368171D02*
Y373360D01*
Y413352D02*
Y402652D01*
X259817Y399955D01*
X265860D01*
X268360Y402455D01*
X268695D01*
X259089Y368171D02*
Y345762D01*
X264600Y340250D01*
X277573D01*
X281175Y336648D01*
Y332002D01*
X281451Y331726D01*
X259620Y426352D02*
X250368D01*
X243026Y433695D01*
X238833D01*
X236785Y435742D01*
Y452986D01*
X234089Y455683D01*
X226392D01*
X221943Y460132D01*
Y460644D01*
X261234Y377317D02*
Y377278D01*
X263518Y374994D01*
X265742D01*
X268892Y371844D01*
Y368171D01*
X268931D01*
X261825Y361904D02*
Y363577D01*
X262081D01*
X263026Y364522D01*
Y368171D01*
X262041Y422573D02*
X259896D01*
X258695Y423774D01*
X249837D01*
X241884Y431726D01*
X237612D01*
X231943Y437396D01*
Y450644D01*
X264187Y407356D02*
X264010D01*
X263026Y408341D01*
Y413352D01*
X264994Y368171D02*
Y363833D01*
X264423Y363262D01*
Y356943D01*
X266963Y368171D02*
Y360407D01*
X267317Y360053D01*
Y358262D01*
X267337D01*
X268656Y406411D02*
X268616D01*
X265959Y403754D01*
X260624D01*
X259030Y405348D01*
Y413352D01*
X259089D01*
X268931D02*
Y406687D01*
X268656Y406411D01*
X268970Y418675D02*
X268734D01*
X266963Y416904D01*
Y413352D01*
X269719Y362711D02*
Y362770D01*
X269738D01*
X270900Y363931D01*
Y368171D01*
Y413352D02*
Y405053D01*
X268636Y402632D01*
Y402455D01*
X268695D01*
X272888Y361785D02*
X272868Y361805D01*
Y368171D01*
X274837Y372848D02*
Y368171D01*
X279226Y419030D02*
Y421037D01*
X278065Y422199D01*
X266274D01*
X265014Y420939D01*
Y413549D01*
X264994Y413530D01*
Y413352D01*
X282663Y377967D02*
X289266D01*
X282663Y381904D02*
X299423D01*
X305841Y375486D01*
Y371549D01*
X310211Y367179D01*
X282663Y383872D02*
X300388D01*
X307632Y376628D01*
X310998D01*
X282663Y385841D02*
X310644D01*
X310998Y385486D01*
X282663Y387809D02*
X277927D01*
X282663Y389778D02*
X286608D01*
X287907Y388478D01*
X289285D01*
X282663Y391746D02*
X338104D01*
X339699Y390152D01*
Y351844D01*
X359443Y332100D01*
X465565D01*
X282663Y399620D02*
X325427D01*
X325880Y399167D01*
X282663Y401589D02*
X327829D01*
X334344Y395073D01*
X289187Y375270D02*
X285821D01*
X285093Y375998D01*
X282663D01*
X290526Y403754D02*
X286825D01*
Y403557D01*
X282663D01*
X312199Y397356D02*
X297435D01*
Y397652D01*
X282663D01*
X318872Y376589D02*
X329404D01*
X330506Y375486D01*
Y372435D01*
X330624D01*
X318872Y385447D02*
X326037D01*
X328242Y383242D01*
Y381136D01*
X328301D01*
X329738Y421215D02*
Y415374D01*
X332809Y362533D02*
Y364659D01*
X330329Y367140D01*
X318085D01*
X334285Y388242D02*
Y384244D01*
X335033Y383497D01*
Y335762D01*
X317178Y317907D01*
X210585D01*
X184443Y291766D01*
X119738D01*
X118588Y292916D01*
X109667D01*
X337081Y387494D02*
Y334994D01*
X318026Y315939D01*
X211254D01*
X184955Y289640D01*
X126746D01*
X123734Y286628D01*
X122612D01*
X351943Y405939D02*
X349896D01*
X347455Y408380D01*
Y420998D01*
X353675Y168222D02*
X339364D01*
Y152671D01*
X427848Y342219D02*
X424816D01*
X420959Y346075D01*
X350150D01*
X343240Y352985D01*
Y396215D01*
X335977Y403478D01*
X295585D01*
X293085Y405978D01*
X282663D01*
Y405526D01*
X427848Y352219D02*
X424816D01*
X420959Y348362D01*
X351098D01*
X345528Y353932D01*
Y397159D01*
X336924Y405762D01*
D02*
D15*
X362093Y16844D02*
X360321D01*
X366470Y12467D02*
Y10695D01*
Y21222D02*
Y22994D01*
X370848Y16844D02*
X372620D01*
X386333Y27002D02*
X384561D01*
X389974Y23065D02*
Y21294D01*
Y30939D02*
Y32711D01*
X393616Y27002D02*
X395387D01*
X403513Y34108D02*
X401742D01*
X405722Y31799D02*
Y30026D01*
X407932Y34108D02*
X409702D01*
X416825Y95250D02*
X415053D01*
X418533Y60998D02*
X416761D01*
X420742Y58689D02*
Y56916D01*
Y63307D02*
Y65079D01*
X422337Y90722D02*
Y88951D01*
Y99778D02*
Y101550D01*
X422952Y60998D02*
X424722D01*
X423203Y49561D02*
X421431D01*
X424837Y103516D02*
Y101743D01*
Y108339D02*
Y110109D01*
X425407Y47356D02*
Y45585D01*
Y51766D02*
Y53537D01*
X426915Y228065D02*
X425144D01*
X427604Y62140D02*
X425832D01*
X427612Y49561D02*
X429384D01*
X427848Y95250D02*
X429620D01*
X430014Y60368D02*
Y58597D01*
Y63911D02*
Y65683D01*
X431293Y223687D02*
Y221915D01*
Y232443D02*
Y234215D01*
X432423Y62140D02*
X434194D01*
X435671Y228065D02*
X437443D01*
X436349Y108691D02*
X435096Y107438D01*
X436349Y111809D02*
X435096Y113062D01*
X439466Y108691D02*
X440719Y107438D01*
X439466Y111809D02*
X440719Y113062D01*
X450217Y125604D02*
X448446D01*
X451061Y226573D02*
X449462Y224974D01*
X451061Y232037D02*
X449462Y233636D01*
X451532Y141054D02*
X449934Y139455D01*
X451532Y146218D02*
X449933Y147817D01*
X451864Y78596D02*
X450093D01*
X451864Y110250D02*
X450093D01*
X451864Y133892D02*
X450093D01*
X452022Y150368D02*
X450250D01*
X452156Y216802D02*
X450903Y215548D01*
X452156Y219919D02*
X450903Y221172D01*
X454069Y76392D02*
Y74620D01*
Y80801D02*
Y82573D01*
Y108045D02*
Y106274D01*
Y112455D02*
Y114226D01*
Y131687D02*
Y129915D01*
Y136096D02*
Y137868D01*
X454115Y123195D02*
Y121424D01*
Y128014D02*
Y129786D01*
X455273Y216802D02*
X456526Y215548D01*
X455273Y219919D02*
X456526Y221172D01*
X456274Y78596D02*
X458045D01*
X456274Y110250D02*
X458045D01*
X456274Y133892D02*
X458045D01*
X456431Y150368D02*
X458203D01*
X456525Y226573D02*
X458124Y224975D01*
X456525Y232037D02*
X458124Y233635D01*
X456697Y141054D02*
X458295Y139455D01*
X456697Y146218D02*
X458296Y147817D01*
X458012Y125604D02*
X459785D01*
X465939Y181864D02*
X464167D01*
X466136Y166116D02*
X464364D01*
X468793Y178026D02*
Y176254D01*
Y185703D02*
Y187475D01*
X468990Y162278D02*
Y160506D01*
Y169955D02*
Y171727D01*
X471648Y181864D02*
X473419D01*
X471844Y166116D02*
X473616D01*
X476156Y223793D02*
X474383D01*
X478498Y123715D02*
X476726D01*
X479302Y231703D02*
X478048Y230450D01*
X479302Y234820D02*
X478048Y236074D01*
X479325Y173459D02*
X477553D01*
X479797Y220053D02*
Y218282D01*
Y227533D02*
Y229306D01*
X480703Y121510D02*
Y119738D01*
Y125919D02*
Y127691D01*
X481530Y171254D02*
Y169482D01*
Y175663D02*
Y177435D01*
X482419Y231703D02*
X483672Y230450D01*
X482419Y234820D02*
X483672Y236074D01*
X482907Y123715D02*
X484679D01*
X483439Y223793D02*
X485210D01*
X483734Y173459D02*
X485506D01*
X491667Y173104D02*
X489896D01*
X493872Y170900D02*
Y169128D01*
Y175309D02*
Y177081D01*
X494069Y217396D02*
X492297D01*
X496077Y173104D02*
X497848D01*
X496274Y215191D02*
Y213419D01*
Y219600D02*
Y221372D01*
X498478Y217396D02*
X500250D01*
D02*
D16*
X92514Y70939D02*
X90939D01*
X98124Y75565D02*
Y77140D01*
X100624Y79106D02*
Y77530D01*
Y84126D02*
Y85699D01*
X101411Y81616D02*
X102986D01*
X103734Y70939D02*
X105309D01*
X104907Y43833D02*
X103332D01*
X107415Y41963D02*
Y40388D01*
Y45703D02*
Y47278D01*
X109923Y43833D02*
X111498D01*
X113198Y42986D02*
X111624D01*
X115506Y40578D02*
Y39002D01*
Y45394D02*
Y46969D01*
X117814Y42986D02*
X119387D01*
X127415Y66864D02*
X125841D01*
X136766Y57514D02*
Y55939D01*
Y76215D02*
Y77789D01*
X142173Y33951D02*
X140598D01*
X144581Y31643D02*
Y30069D01*
Y36259D02*
Y37833D01*
X146116Y66864D02*
X147691D01*
X146989Y33951D02*
X148565D01*
X148616Y197868D02*
X147041D01*
X152652Y194128D02*
Y192554D01*
Y201608D02*
Y203183D01*
X154266Y105880D02*
X152691D01*
X154266Y158537D02*
X152691D01*
X155526Y95467D02*
X153951D01*
X155526Y133104D02*
X153951D01*
X155526Y170821D02*
X153951D01*
X156687Y197868D02*
X158261D01*
X157829Y93163D02*
Y91589D01*
Y97770D02*
Y99344D01*
Y130801D02*
Y129226D01*
Y135407D02*
Y136982D01*
Y168518D02*
Y166943D01*
Y173124D02*
Y174699D01*
X160132Y95467D02*
X161707D01*
X160132Y133104D02*
X161707D01*
X160132Y170821D02*
X161707D01*
X161943Y102140D02*
Y100565D01*
Y109620D02*
Y111195D01*
Y154797D02*
Y153223D01*
Y162278D02*
Y163853D01*
X169620Y105880D02*
X171194D01*
X169620Y158537D02*
X171194D01*
D02*
D17*
X16215Y225998D02*
X13458D01*
X16392Y184738D02*
X13636D01*
X17986Y225211D02*
Y222455D01*
X18203Y182927D02*
Y180171D01*
Y186549D02*
Y189305D01*
X19758Y225998D02*
X22513D01*
X20014Y184738D02*
X22770D01*
X21785Y158301D02*
X19029D01*
X25132Y155053D02*
Y152298D01*
Y161549D02*
Y164306D01*
X25860Y243333D02*
Y240577D01*
X26406Y209744D02*
X28354Y207795D01*
X26406Y212016D02*
X28354Y213965D01*
X27238Y245348D02*
X29994D01*
X28478Y158301D02*
X31234D01*
X29817Y176352D02*
X27061D01*
X30703Y192494D02*
X27946D01*
X32278Y172907D02*
Y170152D01*
Y179797D02*
Y182554D01*
X32742Y232435D02*
X29986D01*
X33163Y189049D02*
Y186294D01*
Y195939D02*
Y198695D01*
X36726Y228451D02*
Y225695D01*
Y236419D02*
Y239175D01*
X40711Y232435D02*
X43467D01*
X42179Y137447D02*
Y134691D01*
Y141478D02*
Y144235D01*
X42455Y155053D02*
Y152298D01*
Y161549D02*
Y164306D01*
X42514Y192494D02*
X39757D01*
X43545Y210880D02*
X40789D01*
X44089Y172907D02*
Y170152D01*
Y179797D02*
Y182554D01*
X44195Y139463D02*
X46950D01*
X44974Y189049D02*
Y186294D01*
Y195939D02*
Y198695D01*
X45152Y209274D02*
Y206518D01*
Y212486D02*
Y215242D01*
X45801Y158301D02*
X48557D01*
X46549Y176352D02*
X49305D01*
X46758Y210880D02*
X49514D01*
X47435Y192494D02*
X50191D01*
X52356Y153222D02*
X49600D01*
X57967Y147120D02*
Y144365D01*
Y159325D02*
Y162081D01*
X63577Y153222D02*
X66332D01*
X63925Y99128D02*
X61169D01*
X63925Y117159D02*
X61169D01*
X67429Y97112D02*
Y94357D01*
Y101144D02*
Y103900D01*
Y115144D02*
Y112388D01*
Y119175D02*
Y121931D01*
X70933Y99128D02*
X73689D01*
X70933Y117159D02*
X73689D01*
X79738Y68098D02*
Y65341D01*
Y81418D02*
Y84174D01*
X81554Y70014D02*
X84309D01*
X81554Y79502D02*
X84309D01*
X84279Y108144D02*
X81523D01*
X90329Y60262D02*
X87572D01*
X90329Y81616D02*
X87572D01*
X90624Y58244D02*
Y55487D01*
Y83634D02*
Y86388D01*
X92907Y153222D02*
X90151D01*
X95559Y120427D02*
Y123183D01*
X98518Y147120D02*
Y144365D01*
Y159325D02*
Y162081D01*
X104128Y153222D02*
X106883D01*
X106838Y108144D02*
X109594D01*
X339337Y299443D02*
X336580D01*
X341352Y300821D02*
Y303577D01*
X343368Y299443D02*
X346124D01*
X349694Y273144D02*
X346939D01*
X351510Y271228D02*
Y268471D01*
Y275059D02*
Y277815D01*
X359699Y271259D02*
Y268502D01*
Y275090D02*
Y277845D01*
X361515Y273174D02*
X364269D01*
X369876Y254974D02*
Y252219D01*
Y256746D02*
Y259502D01*
X372337Y255860D02*
X375092D01*
X374187Y207159D02*
X371431D01*
X377632Y203715D02*
Y200959D01*
Y210604D02*
Y213360D01*
X381077Y207159D02*
X383833D01*
X391930Y253111D02*
X389462Y250643D01*
X391930Y258609D02*
X389462Y261077D01*
X392139Y299088D02*
X390190Y297139D01*
X392139Y301648D02*
X390190Y303597D01*
X393419Y280919D02*
Y283675D01*
X394700Y299088D02*
X396648Y297139D01*
X394700Y301648D02*
X396648Y303597D01*
X395230Y279108D02*
X397986D01*
X397428Y253111D02*
X399895Y250644D01*
X397428Y258609D02*
X399895Y261076D01*
X402407Y103911D02*
X399651D01*
X402627Y84581D02*
X399872D01*
X402627Y94069D02*
X399872D01*
X404423Y101896D02*
Y99140D01*
Y105927D02*
Y108683D01*
X404443Y95985D02*
Y98741D01*
X406259Y84581D02*
X409013D01*
X406259Y94069D02*
X409013D01*
X406439Y103911D02*
X409194D01*
X409738Y258341D02*
X406982D01*
X409941Y270348D02*
X407187D01*
X409941Y278065D02*
X407187D01*
X411707Y269333D02*
Y266577D01*
Y279081D02*
Y281837D01*
X411963Y256313D02*
Y253557D01*
Y260368D02*
Y263124D01*
X413472Y270348D02*
X416230D01*
X413472Y278065D02*
X416230D01*
X414187Y258341D02*
X416943D01*
X414541Y84573D02*
X411785D01*
X414541Y105927D02*
X411785D01*
X414705Y134620D02*
X411950D01*
X414837Y107945D02*
Y110699D01*
X416825Y166116D02*
X414069D01*
X416825Y206667D02*
X414069D01*
X422316Y278753D02*
X420367Y276804D01*
X422316Y281314D02*
X420367Y283263D01*
X422316Y299088D02*
X420367Y297139D01*
X422316Y301648D02*
X420367Y303597D01*
X422927Y160506D02*
Y157750D01*
Y171726D02*
Y174483D01*
Y201057D02*
Y198302D01*
X424877Y278753D02*
X426826Y276804D01*
X424877Y281314D02*
X426826Y283263D01*
X424877Y299088D02*
X426826Y297139D01*
X424877Y301648D02*
X426826Y303597D01*
X425985Y122337D02*
Y119581D01*
Y146904D02*
Y149660D01*
X429030Y166116D02*
X431785D01*
X429030Y206667D02*
X431785D01*
X435998Y276746D02*
X433242D01*
X437264Y134620D02*
X440021D01*
X439148Y276746D02*
X441903D01*
X446332Y279107D02*
X444383Y277159D01*
X446332Y281668D02*
X444383Y283617D01*
X446332Y299088D02*
X444383Y297139D01*
X446332Y301648D02*
X444383Y303597D01*
X448893Y279107D02*
X450841Y277159D01*
X448893Y281668D02*
X450841Y283617D01*
X448893Y299088D02*
X450841Y297139D01*
X448893Y301648D02*
X450841Y303597D01*
X451340Y246537D02*
X448872Y244069D01*
X451340Y251444D02*
X448872Y253912D01*
X454522Y181864D02*
X451765D01*
X454719Y166116D02*
X451962D01*
X456247Y246537D02*
X458714Y244069D01*
X456247Y251444D02*
X458714Y253911D01*
X456982Y178419D02*
Y175664D01*
Y185309D02*
Y188065D01*
X457179Y162671D02*
Y159916D01*
Y169561D02*
Y172317D01*
X458858Y271136D02*
X456104D01*
X458858Y278852D02*
X456104D01*
X460624Y270120D02*
Y267365D01*
Y277837D02*
Y275081D01*
Y279868D02*
Y282624D01*
X462390Y271136D02*
X465147D01*
X462390Y278852D02*
X465147D01*
X471922Y278222D02*
X469974Y276273D01*
X471922Y280782D02*
X469974Y282731D01*
X474483Y278222D02*
X476432Y276273D01*
X474483Y280782D02*
X476432Y282731D01*
X476549Y206470D02*
X473793D01*
X479797Y203124D02*
Y200369D01*
X484573Y281628D02*
X481817D01*
X486589Y280250D02*
Y277494D01*
X488604Y281628D02*
X491360D01*
D02*
D18*
X17986Y227927D02*
Y184955D01*
X18203Y184738D01*
X31628D01*
X32278Y184089D01*
X25132Y158301D02*
X18104D01*
Y183045D01*
X18203Y183144D01*
Y184738D01*
X25860Y245348D02*
Y211470D01*
X25270Y210880D01*
X32278Y176352D02*
Y184089D01*
Y191608D01*
X33163Y192494D01*
X53692Y341245D02*
X54119Y340818D01*
X55860D01*
X56018Y340900D01*
X56175D01*
X59285Y344010D01*
X53692Y341245D02*
X52556D01*
X46566Y347235D01*
X55604Y317947D02*
X50922Y313219D01*
X58146Y323428D02*
Y320443D01*
X55604Y317947D01*
X59285Y344010D02*
X61904D01*
X65411Y340818D01*
X95762Y89443D02*
X95624D01*
Y81616D01*
X98124Y51785D02*
X107376D01*
X107455Y51707D01*
X98124Y70939D02*
X132691D01*
X136766Y66864D01*
X100624Y81616D02*
Y73439D01*
X98124Y70939D01*
X103372Y275340D02*
Y275297D01*
X108144Y270526D01*
X107415Y43833D02*
X114659D01*
X115506Y42986D01*
X107455Y51707D02*
X114738D01*
X115506Y52474D01*
X109282Y281493D02*
X109381D01*
X115207Y287320D01*
X113596Y332443D02*
X113352D01*
X108518Y337278D01*
X117061Y279856D02*
X115207Y281710D01*
Y281789D01*
X112356Y284640D01*
X115207Y287320D01*
X128478Y105880D02*
X128242D01*
Y97002D01*
X128341D01*
Y89148D01*
X138889Y345391D02*
X145089Y351592D01*
X147089D01*
X152156Y356659D01*
X145447Y363369D02*
Y376451D01*
X149856Y340781D02*
X143498D01*
X138889Y345391D01*
X153230Y370518D02*
X153234D01*
X159659Y376943D01*
X154069Y33951D02*
Y24541D01*
X146136Y16608D01*
X158687Y365061D02*
Y363190D01*
X152156Y356659D01*
X159246Y426844D02*
Y425152D01*
X158104D01*
Y420191D01*
X195368Y434699D02*
Y456289D01*
G75*
G02*
X211608Y472530I16240J0D01*
G01*
X290309D01*
Y472447D01*
X298211D01*
G75*
G02*
X304608Y466049I0J-6398D01*
G01*
Y465809D01*
G75*
G03*
X315191Y455226I10583J0D01*
G01*
X348116D01*
G75*
G02*
X359045Y444297I0J-10929D01*
G01*
Y401285D01*
G75*
G03*
X373463Y386868I14417J0D01*
G01*
X439884D01*
G75*
G02*
X462785Y363967I0J-22902D01*
G01*
Y359766D01*
X462774D01*
X208990Y395093D02*
X203675D01*
Y400329D01*
X204404Y401057D01*
X211943Y402494D02*
X205841D01*
X204404Y401057D01*
X215171Y423616D02*
X222356Y423675D01*
X221963Y424069D01*
X215270Y414246D02*
X222356Y414187D01*
X221963Y414581D01*
X218242Y380230D02*
X214404D01*
X211726Y377553D01*
X218242Y380230D02*
Y380270D01*
X223616Y385644D01*
X224738D01*
X227454Y358626D02*
X227947Y352140D01*
X227454Y367316D01*
X227455Y367317D01*
X231805Y414187D02*
X215270Y414246D01*
X231805Y423675D02*
X215171Y423616D01*
X236942Y358626D02*
X237750Y352002D01*
X236942Y367316D01*
X236943Y367317D01*
X284461Y414080D02*
X284659Y439128D01*
X284461Y431521D01*
X285111Y432170D01*
X294599D02*
Y423441D01*
X294620Y423419D01*
X294697Y414080D02*
X294935D01*
Y423006D01*
X295250Y423321D01*
X302100D01*
X294697Y423342D01*
X294620Y423419D01*
X338911Y428852D02*
X329994Y428872D01*
X329778Y429089D01*
X341352Y299443D02*
X373085D01*
X393419Y279108D01*
X347494Y428872D02*
X338911Y428852D01*
X351510Y273144D02*
X351628D01*
Y273104D01*
X382317D01*
Y255860D01*
X369876D01*
X351864Y158970D02*
Y132435D01*
X351904D01*
Y105880D01*
X349502D01*
X359797Y245191D02*
X352888D01*
X352848Y245230D01*
X366470Y16844D02*
X379817D01*
X389974Y27002D01*
X369876Y264915D02*
X360928D01*
X359699Y263686D01*
X376313Y203793D02*
Y207829D01*
X405407D01*
Y207848D01*
X479128D01*
X382967Y105781D02*
Y105880D01*
X394679Y255860D02*
Y258341D01*
X411963D01*
X394679Y255860D02*
Y255801D01*
X369876D01*
Y255860D01*
X394719Y113951D02*
Y108872D01*
X391628Y105781D01*
X405722Y34108D02*
Y31510D01*
X400368Y26156D01*
X390821D01*
X389974Y27002D01*
X411963Y243380D02*
Y243498D01*
Y258341D02*
X394974D01*
Y258400D01*
X460624D01*
Y271136D01*
X411963Y258341D02*
X453793D01*
Y248990D01*
X419974Y113951D02*
Y106065D01*
X419837Y105927D01*
X429837Y84573D02*
Y70014D01*
X442199D01*
X430053D02*
X421215D01*
X420742Y70486D01*
X437573Y286982D02*
Y290329D01*
X440565Y293321D01*
X455053D01*
X455093Y293281D01*
X442199Y70014D02*
X430053D01*
X456982Y181864D02*
Y194856D01*
X479128D01*
Y207848D01*
X457179Y166116D02*
Y173990D01*
X456982D01*
Y181864D01*
X486411Y308045D02*
Y316825D01*
D02*
D19*
X17986Y235407D02*
X17927D01*
Y245388D01*
X17986D01*
X44974Y192494D02*
Y210880D01*
X45152D01*
X44974Y192494D02*
Y166825D01*
X42179Y164030D01*
Y139463D01*
X44974Y192494D02*
Y177238D01*
X44089Y176352D01*
X47011Y334564D02*
X47556Y335109D01*
X40970Y341695D01*
X55781Y332533D02*
X50131D01*
X47556Y335109D01*
X57967Y153222D02*
X42179D01*
Y139463D01*
X60514Y364491D02*
Y372375D01*
X69849Y381710D01*
X64828Y330109D02*
X65838D01*
X70951Y335222D01*
X69314Y313665D02*
X65843D01*
X58160Y305981D01*
X70951Y335222D02*
X75033D01*
X90025Y320230D01*
X90356D01*
X96318Y326192D01*
X71124Y311855D02*
Y311832D01*
X66392Y307100D01*
X79738Y79502D02*
X88510D01*
X90624Y81616D01*
X89080Y333430D02*
X88999D01*
X87199Y335230D01*
X90624Y60262D02*
X89490D01*
X79738Y70014D01*
X90624Y81616D02*
Y103209D01*
X95559Y108144D01*
X94508Y328002D02*
X94596D01*
X99364Y332770D01*
X97832Y280936D02*
X97770D01*
X96904Y281802D01*
Y284148D01*
X91909Y289142D01*
X92838Y290070D01*
Y290141D01*
X98127Y324383D02*
Y324308D01*
X91156Y317337D01*
X89443D01*
X77179Y329600D01*
X74404D01*
Y329246D01*
X98498Y188715D02*
Y153242D01*
X98518Y153222D01*
Y111103D01*
X95559Y108144D01*
X99937Y322573D02*
Y322317D01*
X101549D01*
X104778Y325545D01*
X99937Y322573D02*
X101746Y320763D01*
X103556Y318954D02*
X105489D01*
X108341Y321805D01*
X103556Y318954D02*
X105365Y317144D01*
X103742Y287089D02*
Y289030D01*
X90644Y302128D01*
X90349D01*
X85600Y297379D01*
X105065Y416926D02*
X95587D01*
X52652Y373990D01*
Y360325D01*
X54549Y358428D01*
X105624Y60262D02*
Y51785D01*
X105703Y51707D01*
X115506D01*
Y52474D01*
X109667Y292916D02*
X109435D01*
X106431Y295919D01*
X100348D01*
X90801Y305467D01*
X90069D01*
X83790Y299188D01*
X112604Y309906D02*
Y309767D01*
X114207Y308163D01*
X120306Y325734D02*
Y327202D01*
X126251Y333147D01*
X126349D01*
X132550Y339348D01*
X127010Y344943D02*
X126470D01*
Y356825D01*
X120026Y363270D01*
Y373018D01*
X121880Y374872D01*
Y375502D01*
X128951Y382573D02*
X133774D01*
X138045Y378301D01*
Y358695D01*
X139549Y357191D01*
Y357187D01*
X137356Y332061D02*
Y334541D01*
X132550Y339348D01*
X162180Y449037D02*
X164049Y445073D01*
X164758Y445368D01*
X164010Y445053D01*
X171797Y449144D01*
X187297Y434207D02*
X187463D01*
Y441081D01*
X184490Y448758D01*
X182478Y450140D01*
X181396Y452722D01*
X181410Y452801D01*
X181288D01*
Y452978D01*
X187297Y434207D02*
X194876D01*
X195368Y434699D01*
X202238Y368675D02*
Y377553D01*
X208990Y385644D02*
Y384305D01*
X202238Y377553D01*
X224738Y395093D02*
Y399187D01*
X221431Y402494D01*
X341274Y284679D02*
Y291530D01*
X341313Y291569D01*
X344837Y222652D02*
X358557D01*
Y223478D01*
X355604D01*
X352848Y245230D02*
X351530D01*
X355644Y231352D02*
Y235978D01*
X359502Y239837D01*
Y245230D01*
X404443Y84581D02*
X414829D01*
X414837Y84573D01*
X404443Y94069D02*
Y103892D01*
X404423Y103911D01*
X414837Y105927D02*
X406439D01*
X404423Y103911D01*
X414837Y105927D02*
Y123472D01*
X425985Y134620D01*
Y163059D01*
X422927Y166116D01*
X442238Y77888D02*
Y79856D01*
X471136Y108754D01*
Y150152D01*
X471549Y150565D01*
X472809Y293281D02*
Y293734D01*
X486411D01*
X473439Y332061D02*
Y293911D01*
X472809Y293281D01*
X479128Y207848D02*
X424108D01*
X422927Y206667D01*
X486411Y298557D02*
Y293734D01*
X486628Y289502D02*
X486411Y289719D01*
Y293734D01*
D02*
D70*
X18203Y184738D03*
X55604Y317947D03*
X59285Y344010D03*
X95762Y89443D03*
X108144Y270526D03*
X108518Y337278D03*
X117061Y279856D03*
X128341Y89148D03*
X145447Y376451D03*
X149856Y340781D03*
X157829Y95467D03*
Y133104D03*
Y170821D03*
X158104Y420191D03*
X159659Y376943D03*
X204404Y401057D03*
X215171Y423616D03*
X215270Y414246D03*
X218242Y380230D03*
X227947Y352140D03*
X237750Y352002D03*
X284659Y439128D03*
X302100Y423321D03*
X338911Y428852D03*
X339974Y130467D03*
X347140Y259207D03*
X393419Y279108D03*
Y300368D03*
X394719Y113951D03*
X423596Y280033D03*
Y300368D03*
X425407Y49561D03*
X429423Y249778D03*
X437652Y94758D03*
X437907Y110250D03*
X447612Y280388D03*
Y300368D03*
X453715Y218360D03*
X454069Y78596D03*
Y110250D03*
Y133892D03*
X454226Y150368D03*
X473203Y279502D03*
X480703Y123715D03*
X480860Y233262D03*
X481530Y173459D03*
X486411Y316825D03*
X493872Y173104D03*
X496274Y217396D03*
D02*
D71*
X70545Y304030D03*
X73715Y296352D03*
X74226Y300407D03*
X77337Y296333D03*
X77888Y315033D03*
X82533Y287061D03*
X82770Y290821D03*
X86569Y287612D03*
D02*
D20*
X66392Y307100D03*
X87199Y335230D03*
X99364Y332770D03*
X114207Y308163D03*
X130329Y328222D03*
D02*
D21*
X55781Y332533D03*
X104778Y325545D03*
X108341Y321805D03*
D02*
D22*
X113262Y322199D03*
X126530Y351844D03*
X137967Y367297D03*
X257120Y373360D03*
D02*
D23*
X118242Y343636D03*
X129778Y354640D03*
X172313Y405919D03*
X178825Y406159D03*
X190907Y361978D03*
X226963Y404344D03*
X243872Y382140D03*
X244994Y375565D03*
X247179Y436333D03*
X247730Y375526D03*
X249246Y362337D03*
X250467Y380880D03*
X251195Y436352D03*
X253144Y362022D03*
X253537Y433026D03*
X255821Y359089D03*
Y436037D03*
X257415Y420959D03*
X258026Y432848D03*
X261825Y361904D03*
X262041Y422573D03*
X264423Y356943D03*
X267337Y358262D03*
X268970Y418675D03*
X269719Y362711D03*
X272888Y361785D03*
X274837Y372848D03*
X277927Y387809D03*
X328301Y381136D03*
X330624Y372435D03*
X332809Y362533D03*
X334285Y388242D03*
X334344Y395073D03*
X337081Y387494D03*
X339364Y152671D03*
D02*
D24*
X174415Y421813D03*
X264187Y407356D03*
X268656Y406411D03*
X268695Y402455D03*
X279226Y419030D03*
D02*
D25*
X122612Y286628D03*
X199010Y418793D03*
X214955Y386510D03*
X230998Y397415D03*
X231018Y400033D03*
X231234Y383065D03*
X231411Y380309D03*
X231628Y387809D03*
X231648Y405526D03*
X231982Y394010D03*
X232061Y391431D03*
X242356Y389778D03*
X242415Y385841D03*
X243183Y403557D03*
X243222Y400880D03*
X259620Y426352D03*
X265841Y440093D03*
X289187Y375270D03*
X289266Y377967D03*
X289285Y388478D03*
X312199Y397356D03*
X325880Y399167D03*
X329738Y415374D03*
X331116Y408512D03*
X336924Y405762D03*
X337337Y410799D03*
X351943Y405939D03*
X353675Y168222D03*
D02*
D26*
X471549Y150565D02*
X464659D01*
X457573Y157652D01*
Y163557D01*
X457179Y163951D01*
Y166116D01*
D02*
D27*
X99758Y290073D03*
X261234Y377317D03*
D02*
D28*
X91234Y43911D03*
X137356Y332061D03*
D02*
D29*
X74404Y329246D03*
D02*
D72*
X128478Y105880D02*
Y158537D01*
Y190624D01*
X135722Y197868D01*
X154069Y33951D02*
Y82219D01*
X147219Y89069D01*
X128478D01*
Y105880D01*
X366805Y38104D02*
Y40289D01*
X368705Y42189D01*
X368843D01*
X370447Y43793D01*
X389974D01*
Y43931D01*
X382967Y105880D02*
X377238D01*
X357356Y85998D01*
Y53537D01*
X368705Y42189D01*
X391628Y105781D02*
X382967D01*
X394719Y113951D02*
Y154758D01*
X390506Y158970D01*
X385329D01*
X405722Y43596D02*
X392297D01*
X391963Y43931D01*
X389974D01*
D02*
D73*
X419974Y113951D03*
D02*
D74*
X290526Y403754D03*
D02*
D75*
X201770Y331470D03*
X311136D03*
D02*
D76*
X90624Y60262D03*
Y81616D03*
X95624Y60262D03*
Y81616D03*
X100624Y60262D03*
Y81616D03*
X105624Y60262D03*
Y81616D03*
X414837Y84573D03*
Y105927D03*
X419837Y84573D03*
Y105927D03*
X424837Y84573D03*
Y105927D03*
X429837Y84573D03*
Y105927D03*
D02*
D77*
X98124Y70939D03*
X422337Y95250D03*
D02*
D78*
X128478Y105880D03*
Y158537D03*
X161943Y105880D03*
Y158537D03*
X349502Y105880D03*
X351864Y158970D03*
X382967Y105880D03*
X385329Y158970D03*
D02*
D79*
X79738Y70014D03*
Y79502D03*
X115506Y42986D03*
Y52474D03*
X187297Y424719D03*
Y434207D03*
X221963Y414581D03*
Y424069D03*
X231805Y414187D03*
Y423675D03*
X351510Y263656D03*
Y273144D03*
X351530Y245230D03*
Y254719D03*
X359699Y263686D03*
Y273174D03*
X359797Y245191D03*
Y254679D03*
X404443Y84581D03*
Y94069D03*
X405722Y34108D03*
Y43596D03*
X420742Y60998D03*
Y70486D03*
X486411Y298557D03*
Y308045D03*
D02*
D80*
X67429Y99128D03*
Y117159D03*
X454115Y125604D03*
Y143636D03*
D02*
D81*
X95559Y108144D03*
X425985Y134620D03*
D02*
D82*
X98085Y43911D03*
X98124Y51785D03*
X107415Y43833D03*
X107455Y51707D03*
X159246Y426844D03*
X159285Y434719D03*
X169581Y426490D03*
X169620Y434364D03*
X179187Y426372D03*
X179226Y434246D03*
X195329Y426825D03*
X195368Y434699D03*
X329738Y421215D03*
X329778Y429089D03*
X341313Y291569D03*
X341352Y299443D03*
X347455Y420998D03*
X347494Y428872D03*
X355604Y223478D03*
X355644Y231352D03*
X430014Y62140D03*
X430053Y70014D03*
X442199D03*
X442238Y77888D03*
X486589Y281628D03*
X486628Y289502D03*
D02*
D83*
X32278Y176352D03*
X33163Y192494D03*
X44089Y176352D03*
X44974Y192494D03*
X456982Y181864D03*
X457179Y166116D03*
X468793Y181864D03*
X468990Y166116D03*
D02*
D84*
X369876Y246805D03*
Y255860D03*
Y264915D03*
D02*
D85*
X394679Y255860D03*
D02*
D86*
X437573Y276746D03*
Y286982D03*
D02*
D87*
X54549Y358428D03*
X60089Y352832D03*
X60514Y364491D03*
X65411Y340818D03*
X66054Y358895D03*
X70951Y335222D03*
X97832Y280936D03*
X103372Y275340D03*
X103742Y287089D03*
X109282Y281493D03*
X109667Y292916D03*
X115207Y287320D03*
X120711Y338743D03*
X126251Y333147D03*
X127010Y344943D03*
X132550Y339348D03*
X133348Y350987D03*
X138889Y345391D03*
X139549Y357187D03*
X145089Y351592D03*
D02*
D88*
X284461Y414080D03*
X294697D03*
D02*
D89*
X455093Y293281D03*
Y318872D03*
X472809Y293281D03*
Y318872D03*
D02*
D90*
X69314Y313665D03*
X71124Y311855D03*
X72933Y310046D03*
X74743Y308236D03*
X76552Y306426D03*
X78361Y304617D03*
X80171Y302807D03*
X81981Y300998D03*
X83790Y299188D03*
X85600Y297379D03*
X87409Y295569D03*
X89080Y333430D03*
X89219Y293760D03*
X90889Y331620D03*
X91028Y291950D03*
X92698Y329811D03*
X92838Y290141D03*
X94508Y328002D03*
X96318Y326192D03*
X98127Y324383D03*
X99937Y322573D03*
X101746Y320763D03*
X103556Y318954D03*
X105365Y317144D03*
X107175Y315335D03*
X108984Y313525D03*
X110794Y311716D03*
X112604Y309906D03*
D02*
D91*
X17986Y245388D03*
X25860Y245348D03*
X194364Y368715D03*
X202238Y368675D03*
X310211Y367179D03*
X310998Y376628D03*
Y385486D03*
X318085Y367140D03*
X318872Y376589D03*
Y385447D03*
X465565Y332100D03*
X473439Y332061D03*
D02*
D92*
X453793Y229305D03*
Y248990D03*
D02*
D93*
X411963Y243380D03*
Y258341D03*
D02*
D94*
X422927Y166116D03*
Y206667D03*
D02*
D95*
X144581Y33951D03*
X154069D03*
X202238Y377553D03*
X211726D03*
X211943Y402494D03*
X221431D03*
X227454Y358626D03*
X227455Y367317D03*
X236942Y358626D03*
X236943Y367317D03*
X285111Y432170D03*
X285132Y423419D03*
X294599Y432170D03*
X294620Y423419D03*
D02*
D96*
X50922Y313219D03*
X58160Y305981D03*
D02*
D97*
X113596Y332443D03*
X120306Y325734D03*
X145447Y363369D03*
X152156Y356659D03*
D02*
D98*
X40970Y341695D03*
X46566Y347235D03*
D02*
D99*
X153230Y370518D03*
X158687Y365061D03*
D02*
D100*
X208990Y385644D03*
Y395093D03*
X224738Y385644D03*
Y395093D03*
D02*
D101*
X479797Y206470D03*
Y223793D03*
D02*
D102*
X42179Y139463D03*
X98498Y188715D03*
X221451Y331726D03*
X231451D03*
X241451D03*
X251451D03*
X261451D03*
X271451D03*
X281451D03*
X291451D03*
X404423Y103911D03*
X427848Y322219D03*
Y332219D03*
Y342219D03*
Y352219D03*
Y362219D03*
X462774Y349766D03*
Y359766D03*
X471549Y150565D03*
D02*
D103*
X346805Y38104D03*
X366805D03*
X376313Y203793D03*
Y223675D03*
D02*
D104*
X17986Y227927D03*
Y235407D03*
X341274Y277199D03*
Y284679D03*
X344837Y222652D03*
Y230132D03*
D02*
D105*
X47011Y334564D03*
X53692Y341245D03*
X58146Y323428D03*
X64828Y330109D03*
D02*
D106*
X389974Y27002D03*
Y43931D03*
D02*
D107*
X136411Y439541D03*
X136766Y66864D03*
X375998Y67396D03*
X376707Y439541D03*
D02*
D108*
X107737Y361359D03*
X111273Y350753D03*
X114809Y368431D03*
X118344Y357824D03*
X121880Y375502D03*
X125415Y364895D03*
X128951Y382573D03*
X132486Y371966D03*
D02*
D109*
X69849Y381710D03*
X76920Y388781D03*
X97994Y409855D03*
X105065Y416926D03*
D02*
D110*
X87666Y354985D03*
X131790Y399109D03*
D02*
D111*
X237482Y375998D03*
Y377967D03*
Y379935D03*
Y381904D03*
Y383872D03*
Y385841D03*
Y387809D03*
Y389778D03*
Y391746D03*
Y393715D03*
Y395683D03*
Y397652D03*
Y399620D03*
Y401589D03*
Y403557D03*
Y405526D03*
X282663Y375998D03*
Y377967D03*
Y379935D03*
Y381904D03*
Y383872D03*
Y385841D03*
Y387809D03*
Y389778D03*
Y391746D03*
Y393715D03*
Y395683D03*
Y397652D03*
Y399620D03*
Y401589D03*
Y403557D03*
Y405526D03*
D02*
D112*
X245309Y368171D03*
Y413352D03*
X247278Y368171D03*
Y413352D03*
X249246Y368171D03*
Y413352D03*
X251215Y368171D03*
Y413352D03*
X253183Y368171D03*
Y413352D03*
X255152Y368171D03*
Y413352D03*
X257120Y368171D03*
Y413352D03*
X259089Y368171D03*
Y413352D03*
X261057Y368171D03*
Y413352D03*
X263026Y368171D03*
Y413352D03*
X264994Y368171D03*
Y413352D03*
X266963Y368171D03*
Y413352D03*
X268931Y368171D03*
Y413352D03*
X270900Y368171D03*
Y413352D03*
X272868Y368171D03*
Y413352D03*
X274837Y368171D03*
Y413352D03*
D02*
D113*
X221943Y450644D03*
D02*
D114*
X162180Y449037D03*
X188280Y459582D03*
X221943Y460644D03*
X231943Y450644D03*
Y460644D03*
X241943Y450644D03*
Y460644D03*
X251943Y450644D03*
Y460644D03*
X261943Y450644D03*
Y460644D03*
X271943Y450644D03*
Y460644D03*
X281943Y450644D03*
Y460644D03*
X291943Y450644D03*
Y460644D03*
D02*
D115*
X36726Y232435D03*
X57356D03*
X345841Y16844D03*
X366470D03*
X410663Y228065D03*
X431293D03*
D02*
D116*
X411707Y270348D03*
Y278065D03*
X460624Y271136D03*
Y278852D03*
D02*
D117*
X57967Y153222D03*
X98518D03*
D02*
D118*
X25132Y158301D03*
X42455D03*
D02*
D119*
X146136Y16608D03*
X166136D03*
D02*
D120*
X135722Y197868D03*
X152652D03*
D02*
D121*
X25270Y210880D03*
X45152D03*
D02*
D122*
X171797Y449144D03*
X174170Y450102D03*
X176543Y451061D03*
X178915Y452020D03*
X181288Y452978D03*
D02*
D123*
X172447Y411561D03*
Y417900D03*
X174415Y411561D03*
Y417900D03*
X176384Y411561D03*
Y417900D03*
X0Y0D02*
M02*
