G04 DesignSpark PCB Gerber Version 12.0 Build 5942*
%FSLAX35Y35*%
%MOMM*%
%ADD164R,0.20000X0.89000*%
%ADD158R,0.20000X1.37500*%
%ADD129R,0.55000X1.42500*%
%ADD143R,1.10000X1.42400*%
%ADD139R,1.20000X1.70000*%
%ADD132R,1.32240X1.37320*%
%ADD144R,1.50000X3.05000*%
%ADD136R,1.65000X2.15000*%
%ADD138R,1.65000X3.10000*%
%ADD153R,2.05000X2.10000*%
%ADD156R,2.05000X2.20000*%
%ADD160R,3.25000X3.50000*%
%ADD134R,6.13000X6.64000*%
%ADD157R,1.37500X0.20000*%
%AMT163*0 Rectangle Pad at angle 22*21,1,0.30000,1.40000,0,0,22*%
%ADD163T163*%
%ADD154R,1.30000X0.80000*%
%ADD137R,1.65000X0.85000*%
%ADD159R,1.29700X0.91600*%
%AMT150*0 Rectangle Pad at angle 45*21,1,1.10000,1.42400,0,0,45*%
%ADD150T150*%
%AMT155*0 Rectangle Pad at angle 45*21,1,1.10000,1.70000,0,0,45*%
%ADD155T155*%
%ADD135R,1.42400X1.10000*%
%ADD152R,1.70000X1.10000*%
%AMT148*0 Rectangle Pad at angle 45*21,1,1.20000,1.70000,0,0,45*%
%ADD148T148*%
%ADD141R,1.70000X1.20000*%
%AMT149*0 Rectangle Pad at angle 45*21,1,1.32240,1.37320,0,0,45*%
%ADD149T149*%
%ADD147R,1.37320X1.32240*%
%ADD133R,2.18000X1.42400*%
%ADD145R,1.53000X1.43000*%
%ADD161R,2.10000X2.05000*%
%ADD162R,2.20000X2.05000*%
%ADD131R,4.05000X2.05000*%
%ADD130R,3.00000X2.50000*%
%AMT142*0 Rectangle Pad at angle 135*21,1,0.35000,1.70000,0,0,135*%
%ADD142T142*%
%AMT151*0 Rectangle Pad at angle 135*21,1,0.91600,1.29700,0,0,135*%
%ADD151T151*%
%AMT140*0 Rectangle Pad at angle 135*21,1,1.10000,1.42400,0,0,135*%
%ADD140T140*%
%ADD146R,3.50000X3.25000*%
X0Y0D02*
D02*
D129*
X41609450Y41073060D03*
Y41615460D03*
X41736450Y41073060D03*
Y41615460D03*
X41863450Y41073060D03*
Y41615460D03*
X41990450Y41073060D03*
Y41615460D03*
X49844450Y41690560D03*
Y42232960D03*
X49971450Y41690560D03*
Y42232960D03*
X50098450Y41690560D03*
Y42232960D03*
X50225450Y41690560D03*
Y42232960D03*
D02*
D130*
X41799950Y41344260D03*
X50034950Y41961760D03*
D02*
D131*
X42570950Y42231760D03*
Y43569260D03*
X43420950Y42231760D03*
Y43569260D03*
X48184950Y42231760D03*
X48244950Y43580260D03*
X49034950Y42231760D03*
X49094950Y43580260D03*
D02*
D132*
X41332950Y41320760D03*
Y41561760D03*
X42241450Y40634260D03*
Y40875260D03*
X44064950Y50330260D03*
Y50571260D03*
X44945450Y50124160D03*
Y50365160D03*
X45159450Y50124160D03*
Y50365160D03*
X48235950Y46239260D03*
Y46480260D03*
X48236450Y45771260D03*
Y46012260D03*
X48443950Y46240040D03*
Y46481040D03*
X48446450Y45770260D03*
Y46011260D03*
X49580450Y41690760D03*
Y41931760D03*
X49612950Y40408760D03*
Y40649760D03*
X49994450Y41091760D03*
Y41332760D03*
X51662450Y47125760D03*
Y47366760D03*
D02*
D133*
X41020290Y42060260D03*
Y42518260D03*
X50842110Y42732760D03*
Y43190760D03*
D02*
D134*
X41734790Y42289260D03*
X50127610Y42961760D03*
D02*
D135*
X41798950Y40657760D03*
X41799950Y40857760D03*
X42035950Y40655760D03*
X42036950Y40855760D03*
X43352450Y50384260D03*
X43353450Y50584260D03*
X43614950Y50375260D03*
X43615950Y50575260D03*
X43858950Y50372260D03*
X43859950Y50572260D03*
X44268950Y50383760D03*
X44269950Y50583760D03*
X47682950Y50241260D03*
X47683950Y50441260D03*
X47976950Y46948260D03*
X47977950Y47148260D03*
X48132950Y50235760D03*
X48133950Y50435760D03*
X48339950Y45218760D03*
X48340950Y45418760D03*
X50229950Y41120760D03*
X50230950Y41320760D03*
X50539450D03*
X50540450Y41520760D03*
X51666950Y46695760D03*
X51667950Y46895760D03*
D02*
D136*
X40127450Y44021760D03*
X40149950Y44431760D03*
X40427450Y44021760D03*
X40449950Y44431760D03*
X50914950Y44161760D03*
X50919950Y43761760D03*
X51214950Y44161760D03*
X51219950Y43761760D03*
D02*
D137*
X48702450Y45811260D03*
Y46041260D03*
Y46271260D03*
D02*
D138*
X49332450Y46041260D03*
D02*
D139*
X50421950Y46571760D03*
Y46831760D03*
D02*
D140*
X40693150Y48646470D03*
X40833870Y48504340D03*
X40844650Y48800470D03*
X40969030Y48199180D03*
X40985370Y48658340D03*
X41109750Y48057050D03*
X41792530Y46678180D03*
X41933250Y46536050D03*
X41942650Y46834470D03*
X42083370Y46692340D03*
X42093150Y46982470D03*
X42233870Y46840340D03*
X42373650Y48146470D03*
X42514370Y48004340D03*
X42533650Y48303970D03*
X42674370Y48161840D03*
X42694650Y48457470D03*
X42835370Y48315340D03*
X42852150Y48614970D03*
X42992870Y48472840D03*
D02*
D141*
X46701450Y50079160D03*
X46961450D03*
D02*
D142*
X41068170Y47509490D03*
X41114140Y47463530D03*
X41160100Y47417570D03*
X41206060Y47371600D03*
X41252020Y47325640D03*
X41297980Y47279680D03*
X41343950Y47233720D03*
X41389910Y47187760D03*
X41435870Y47141790D03*
X41481830Y47095830D03*
X41527790Y47049870D03*
X41570220Y48011540D03*
X41573760Y47003910D03*
X41616180Y47965570D03*
X41619720Y46957950D03*
X41662140Y47919610D03*
X41665680Y46911980D03*
X41708110Y47873650D03*
X41754070Y47827690D03*
X41800030Y47781730D03*
X41845990Y47735760D03*
X41891950Y47689800D03*
X41937920Y47643840D03*
X41983880Y47597880D03*
X42029840Y47551920D03*
X42075800Y47505950D03*
X42121760Y47459990D03*
X42167730Y47414030D03*
D02*
D143*
X39764450Y45775260D03*
X39964450Y45774260D03*
X44244450Y48907760D03*
X44444450Y48906760D03*
X47186950Y48868760D03*
X47206950Y49108760D03*
Y49333760D03*
X47386950Y48867760D03*
X47406950Y49107760D03*
Y49332760D03*
X51132950Y47977760D03*
X51332950Y47976760D03*
D02*
D144*
X50902450Y45366760D03*
Y45866760D03*
D02*
D145*
X49771450Y45724260D03*
Y46104260D03*
D02*
D146*
X50049950Y43761760D03*
Y44791760D03*
D02*
D147*
X42979950Y40404760D03*
X43220950D03*
X44444450Y49132260D03*
X44685450D03*
X44690950Y49765760D03*
X44931950D03*
X45056450Y48486160D03*
Y48716160D03*
X45297450Y48486160D03*
Y48716160D03*
X46701450Y50303660D03*
Y50519540D03*
X46942450Y50303660D03*
Y50519540D03*
D02*
D148*
X40601030Y47498180D03*
X40784870Y47314340D03*
D02*
D149*
X42192950Y47986470D03*
X42363360Y47816050D03*
X43001950Y48771970D03*
X43172360Y48601550D03*
D02*
D150*
X40348240Y48221460D03*
X40490370Y48362180D03*
D02*
D151*
X43199650Y48953560D03*
X43338250Y48814960D03*
D02*
D152*
X44615950Y49337760D03*
Y49577760D03*
X45015950Y49337760D03*
Y49577760D03*
D02*
D153*
X51494450Y44786760D03*
Y45226760D03*
D02*
D154*
X39764450Y45331760D03*
Y45521760D03*
X47975950Y46583260D03*
Y46773260D03*
X48066450Y45197760D03*
Y45387760D03*
D02*
D155*
X40501680Y48040330D03*
X40671380Y48210030D03*
X40784520Y47757490D03*
X40954220Y47927190D03*
D02*
D156*
X49212950Y40228260D03*
Y40658260D03*
D02*
D157*
X45339650Y49092760D03*
Y49142760D03*
Y49192760D03*
Y49242760D03*
Y49292760D03*
Y49342760D03*
Y49392760D03*
Y49442760D03*
Y49492760D03*
Y49542760D03*
Y49592760D03*
Y49642760D03*
Y49692760D03*
Y49742760D03*
Y49792760D03*
Y49842760D03*
X46487250Y49092760D03*
Y49142760D03*
Y49192760D03*
Y49242760D03*
Y49292760D03*
Y49342760D03*
Y49392760D03*
Y49442760D03*
Y49492760D03*
Y49542760D03*
Y49592760D03*
Y49642760D03*
Y49692760D03*
Y49742760D03*
Y49792760D03*
Y49842760D03*
D02*
D158*
X45538450Y48893960D03*
Y50041560D03*
X45588450Y48893960D03*
Y50041560D03*
X45638450Y48893960D03*
Y50041560D03*
X45688450Y48893960D03*
Y50041560D03*
X45738450Y48893960D03*
Y50041560D03*
X45788450Y48893960D03*
Y50041560D03*
X45838450Y48893960D03*
Y50041560D03*
X45888450Y48893960D03*
Y50041560D03*
X45938450Y48893960D03*
Y50041560D03*
X45988450Y48893960D03*
Y50041560D03*
X46038450Y48893960D03*
Y50041560D03*
X46088450Y48893960D03*
Y50041560D03*
X46138450Y48893960D03*
Y50041560D03*
X46188450Y48893960D03*
Y50041560D03*
X46238450Y48893960D03*
Y50041560D03*
X46288450Y48893960D03*
Y50041560D03*
D02*
D159*
X49764950Y46409260D03*
Y46605260D03*
X51007450Y46429260D03*
Y46625260D03*
D02*
D160*
X40779950Y43434260D03*
X41809950D03*
D02*
D161*
X39945950Y43563260D03*
X40385950D03*
D02*
D162*
X42754950Y44568260D03*
X43184950D03*
D02*
D163*
X43671240Y50950660D03*
X43731510Y50975010D03*
X43791780Y50999360D03*
X43852040Y51023710D03*
X43912310Y51048060D03*
D02*
D164*
X43687750Y49981160D03*
Y50142160D03*
X43737750Y49981160D03*
Y50142160D03*
X43787750Y49981160D03*
Y50142160D03*
X0Y0D02*
M02*
