G04 DesignSpark PCB Gerber Version 12.0 Build 5942*
%FSLAX35Y35*%
%MOIN*%
%ADD174R,0.01781X0.04498*%
%ADD163R,0.01781X0.06407*%
%ADD126R,0.03159X0.06604*%
%ADD141R,0.05324X0.06600*%
%ADD136R,0.05718X0.07687*%
%ADD129R,0.06200X0.06400*%
%ADD142R,0.06899X0.13002*%
%ADD133R,0.07490X0.09458*%
%ADD135R,0.07490X0.13198*%
%ADD151R,0.09065X0.09261*%
%ADD156R,0.09065X0.09655*%
%ADD168R,0.13789X0.14773*%
%ADD131R,0.25128X0.27135*%
%ADD152R,0.06600X0.06600*%
%ADD164R,0.07500X0.07500*%
%ADD170C,0.05391*%
%ADD172C,0.05781*%
%ADD158C,0.06293*%
%ADD139C,0.06506*%
%ADD159C,0.06702*%
%ADD161C,0.06899*%
%ADD165C,0.07500*%
%ADD153C,0.09458*%
%ADD160C,0.09872*%
%ADD166C,0.10537*%
%ADD162R,0.06407X0.01781*%
%AMT173*0 Rectangle Pad at angle 22*21,1,0.02175,0.06506,0,0,22*%
%ADD173T173*%
%ADD154R,0.06112X0.04143*%
%ADD134R,0.07490X0.04340*%
%ADD167R,0.06100X0.04600*%
%AMT148*0 Rectangle Pad at angle 45*21,1,0.05324,0.06600,0,0,45*%
%ADD148T148*%
%AMT155*0 Rectangle Pad at angle 45*21,1,0.05324,0.07687,0,0,45*%
%ADD155T155*%
%ADD132R,0.06600X0.05324*%
%ADD150R,0.07687X0.05324*%
%AMT146*0 Rectangle Pad at angle 45*21,1,0.05718,0.07687,0,0,45*%
%ADD146T146*%
%ADD138R,0.07687X0.05718*%
%AMT147*0 Rectangle Pad at angle 45*21,1,0.06200,0.06400,0,0,45*%
%ADD147T147*%
%ADD145R,0.06400X0.06200*%
%ADD130R,0.09576X0.06600*%
%ADD143R,0.07017X0.06624*%
%ADD169R,0.09261X0.09065*%
%ADD171R,0.09655X0.09065*%
%ADD128R,0.16939X0.09065*%
%AMT140*0 Rectangle Pad at angle 135*21,1,0.02372,0.07687,0,0,135*%
%ADD140T140*%
%AMT149*0 Rectangle Pad at angle 135*21,1,0.04600,0.06100,0,0,135*%
%ADD149T149*%
%ADD127R,0.12805X0.10836*%
%ADD125C,0.15757*%
%AMT137*0 Rectangle Pad at angle 135*21,1,0.05324,0.06600,0,0,135*%
%ADD137T137*%
%ADD144R,0.14773X0.13789*%
%AMT157*0 Rounded Rectangle Pad at angle 0*4,1,92,-0.04061,-0.10143,0.04061,-0.10143,0.04494,-0.10127,0.04926,-0.10081,0.05353,-0.10004,0.05774,-0.09896,0.06185,-0.09759,0.06587,-0.09593,0.06975,-0.09399,0.07348,-0.09178,0.07705,-0.08930,0.08043,-0.08657,0.08361,-0.08362,0.08656,-0.08044,0.08929,-0.07706,0.09176,-0.07350,0.09398,-0.06977,0.09593,-0.06589,0.09759,-0.06187,0.09896,-0.05776,0.10003,-0.05355,0.10080,-0.04928,0.10127,-0.04496,0.10143,-0.04061,0.10143,0.04061,0.10127,0.04494,0.10081,0.04926,0.10004,0.05353,0.09896,0.05774,0.09759,0.06185,0.09593,0.06587,0.09399,0.06975,0.09178,0.07348,0.08930,0.07705,0.08657,0.08043,0.08362,0.08361,0.08044,0.08656,0.07706,0.08929,0.07350,0.09176,0.06977,0.09398,0.06589,0.09593,0.06187,0.09759,0.05776,0.09896,0.05355,0.10003,0.04928,0.10080,0.04496,0.10127,0.04061,0.10143,-0.04061,0.10143,-0.04494,0.10127,-0.04926,0.10081,-0.05353,0.10004,-0.05774,0.09896,-0.06185,0.09759,-0.06587,0.09593,-0.06975,0.09399,-0.07348,0.09178,-0.07705,0.08930,-0.08043,0.08657,-0.08361,0.08362,-0.08656,0.08044,-0.08929,0.07706,-0.09176,0.07350,-0.09398,0.06977,-0.09593,0.06589,-0.09759,0.06187,-0.09896,0.05776,-0.10003,0.05355,-0.10080,0.04928,-0.10127,0.04496,-0.10143,0.04061,-0.10143,-0.04061,-0.10127,-0.04494,-0.10081,-0.04926,-0.10004,-0.05353,-0.09896,-0.05774,-0.09759,-0.06185,-0.09593,-0.06587,-0.09399,-0.06975,-0.09178,-0.07348,-0.08930,-0.07705,-0.08657,-0.08043,-0.08362,-0.08361,-0.08044,-0.08656,-0.07706,-0.08929,-0.07350,-0.09176,-0.06977,-0.09398,-0.06589,-0.09593,-0.06187,-0.09759,-0.05776,-0.09896,-0.05355,-0.10003,-0.04928,-0.10080,-0.04496,-0.10127,-0.04061,-0.10143,0*%
%ADD157T157*%
X0Y0D02*
D02*
D125*
X201770Y331470D03*
X311136D03*
D02*
D126*
X90624Y60262D03*
Y81616D03*
X95624Y60262D03*
Y81616D03*
X100624Y60262D03*
Y81616D03*
X105624Y60262D03*
Y81616D03*
X414837Y84573D03*
Y105927D03*
X419837Y84573D03*
Y105927D03*
X424837Y84573D03*
Y105927D03*
X429837Y84573D03*
Y105927D03*
D02*
D127*
X98124Y70939D03*
X422337Y95250D03*
D02*
D128*
X128478Y105880D03*
Y158537D03*
X161943Y105880D03*
Y158537D03*
X349502Y105880D03*
X351864Y158970D03*
X382967Y105880D03*
X385329Y158970D03*
D02*
D129*
X79738Y70014D03*
Y79502D03*
X115506Y42986D03*
Y52474D03*
X187297Y424719D03*
Y434207D03*
X221963Y414581D03*
Y424069D03*
X231805Y414187D03*
Y423675D03*
X351510Y263656D03*
Y273144D03*
X351530Y245230D03*
Y254719D03*
X359699Y263686D03*
Y273174D03*
X359797Y245191D03*
Y254679D03*
X404443Y84581D03*
Y94069D03*
X405722Y34108D03*
Y43596D03*
X420742Y60998D03*
Y70486D03*
X486411Y298557D03*
Y308045D03*
D02*
D130*
X67429Y99128D03*
Y117159D03*
X454115Y125604D03*
Y143636D03*
D02*
D131*
X95559Y108144D03*
X425985Y134620D03*
D02*
D132*
X98085Y43911D03*
X98124Y51785D03*
X107415Y43833D03*
X107455Y51707D03*
X159246Y426844D03*
X159285Y434719D03*
X169581Y426490D03*
X169620Y434364D03*
X179187Y426372D03*
X179226Y434246D03*
X195329Y426825D03*
X195368Y434699D03*
X329738Y421215D03*
X329778Y429089D03*
X341313Y291569D03*
X341352Y299443D03*
X347455Y420998D03*
X347494Y428872D03*
X355604Y223478D03*
X355644Y231352D03*
X430014Y62140D03*
X430053Y70014D03*
X442199D03*
X442238Y77888D03*
X486589Y281628D03*
X486628Y289502D03*
D02*
D133*
X32278Y176352D03*
X33163Y192494D03*
X44089Y176352D03*
X44974Y192494D03*
X456982Y181864D03*
X457179Y166116D03*
X468793Y181864D03*
X468990Y166116D03*
D02*
D134*
X369876Y246805D03*
Y255860D03*
Y264915D03*
D02*
D135*
X394679Y255860D03*
D02*
D136*
X437573Y276746D03*
Y286982D03*
D02*
D137*
X54549Y358428D03*
X60089Y352832D03*
X60514Y364491D03*
X65411Y340818D03*
X66054Y358895D03*
X70951Y335222D03*
X97832Y280936D03*
X103372Y275340D03*
X103742Y287089D03*
X109282Y281493D03*
X109667Y292916D03*
X115207Y287320D03*
X120711Y338743D03*
X126251Y333147D03*
X127010Y344943D03*
X132550Y339348D03*
X133348Y350987D03*
X138889Y345391D03*
X139549Y357187D03*
X145089Y351592D03*
D02*
D138*
X284461Y414080D03*
X294697D03*
D02*
D139*
X455093Y293281D03*
Y318872D03*
X472809Y293281D03*
Y318872D03*
D02*
D140*
X69314Y313665D03*
X71124Y311855D03*
X72933Y310046D03*
X74743Y308236D03*
X76552Y306426D03*
X78361Y304617D03*
X80171Y302807D03*
X81981Y300998D03*
X83790Y299188D03*
X85600Y297379D03*
X87409Y295569D03*
X89080Y333430D03*
X89219Y293760D03*
X90889Y331620D03*
X91028Y291950D03*
X92698Y329811D03*
X92838Y290141D03*
X94508Y328002D03*
X96318Y326192D03*
X98127Y324383D03*
X99937Y322573D03*
X101746Y320763D03*
X103556Y318954D03*
X105365Y317144D03*
X107175Y315335D03*
X108984Y313525D03*
X110794Y311716D03*
X112604Y309906D03*
D02*
D141*
X17986Y245388D03*
X25860Y245348D03*
X194364Y368715D03*
X202238Y368675D03*
X310211Y367179D03*
X310998Y376628D03*
Y385486D03*
X318085Y367140D03*
X318872Y376589D03*
Y385447D03*
X465565Y332100D03*
X473439Y332061D03*
D02*
D142*
X453793Y229305D03*
Y248990D03*
D02*
D143*
X411963Y243380D03*
Y258341D03*
D02*
D144*
X422927Y166116D03*
Y206667D03*
D02*
D145*
X144581Y33951D03*
X154069D03*
X202238Y377553D03*
X211726D03*
X211943Y402494D03*
X221431D03*
X227454Y358626D03*
X227455Y367317D03*
X236942Y358626D03*
X236943Y367317D03*
X285111Y432170D03*
X285132Y423419D03*
X294599Y432170D03*
X294620Y423419D03*
D02*
D146*
X50922Y313219D03*
X58160Y305981D03*
D02*
D147*
X113596Y332443D03*
X120306Y325734D03*
X145447Y363369D03*
X152156Y356659D03*
D02*
D148*
X40970Y341695D03*
X46566Y347235D03*
D02*
D149*
X153230Y370518D03*
X158687Y365061D03*
D02*
D150*
X208990Y385644D03*
Y395093D03*
X224738Y385644D03*
Y395093D03*
D02*
D151*
X479797Y206470D03*
Y223793D03*
D02*
D152*
X42179Y139463D03*
X98498Y188715D03*
X221451Y331726D03*
X231451D03*
X241451D03*
X251451D03*
X261451D03*
X271451D03*
X281451D03*
X291451D03*
X404423Y103911D03*
X427848Y322219D03*
Y332219D03*
Y342219D03*
Y352219D03*
Y362219D03*
X462774Y349766D03*
Y359766D03*
X471549Y150565D03*
D02*
D153*
X346805Y38104D03*
X366805D03*
X376313Y203793D03*
Y223675D03*
D02*
D154*
X17986Y227927D03*
Y235407D03*
X341274Y277199D03*
Y284679D03*
X344837Y222652D03*
Y230132D03*
D02*
D155*
X47011Y334564D03*
X53692Y341245D03*
X58146Y323428D03*
X64828Y330109D03*
D02*
D156*
X389974Y27002D03*
Y43931D03*
D02*
D157*
X136411Y439541D03*
X136766Y66864D03*
X375998Y67396D03*
X376707Y439541D03*
D02*
D158*
X107737Y361359D03*
X111273Y350753D03*
X114809Y368431D03*
X118344Y357824D03*
X121880Y375502D03*
X125415Y364895D03*
X128951Y382573D03*
X132486Y371966D03*
D02*
D159*
X69849Y381710D03*
X76920Y388781D03*
X97994Y409855D03*
X105065Y416926D03*
D02*
D160*
X87666Y354985D03*
X131790Y399109D03*
D02*
D161*
X82989Y371966D03*
X114809Y403786D03*
D02*
D162*
X237482Y375998D03*
Y377967D03*
Y379935D03*
Y381904D03*
Y383872D03*
Y385841D03*
Y387809D03*
Y389778D03*
Y391746D03*
Y393715D03*
Y395683D03*
Y397652D03*
Y399620D03*
Y401589D03*
Y403557D03*
Y405526D03*
X282663Y375998D03*
Y377967D03*
Y379935D03*
Y381904D03*
Y383872D03*
Y385841D03*
Y387809D03*
Y389778D03*
Y391746D03*
Y393715D03*
Y395683D03*
Y397652D03*
Y399620D03*
Y401589D03*
Y403557D03*
Y405526D03*
D02*
D163*
X245309Y368171D03*
Y413352D03*
X247278Y368171D03*
Y413352D03*
X249246Y368171D03*
Y413352D03*
X251215Y368171D03*
Y413352D03*
X253183Y368171D03*
Y413352D03*
X255152Y368171D03*
Y413352D03*
X257120Y368171D03*
Y413352D03*
X259089Y368171D03*
Y413352D03*
X261057Y368171D03*
Y413352D03*
X263026Y368171D03*
Y413352D03*
X264994Y368171D03*
Y413352D03*
X266963Y368171D03*
Y413352D03*
X268931Y368171D03*
Y413352D03*
X270900Y368171D03*
Y413352D03*
X272868Y368171D03*
Y413352D03*
X274837Y368171D03*
Y413352D03*
D02*
D164*
X221943Y450644D03*
D02*
D165*
X162180Y449037D03*
X188280Y459582D03*
X221943Y460644D03*
X231943Y450644D03*
Y460644D03*
X241943Y450644D03*
Y460644D03*
X251943Y450644D03*
Y460644D03*
X261943Y450644D03*
Y460644D03*
X271943Y450644D03*
Y460644D03*
X281943Y450644D03*
Y460644D03*
X291943Y450644D03*
Y460644D03*
D02*
D166*
X36726Y232435D03*
X57356D03*
X345841Y16844D03*
X366470D03*
X410663Y228065D03*
X431293D03*
D02*
D167*
X411707Y270348D03*
Y278065D03*
X460624Y271136D03*
Y278852D03*
D02*
D168*
X57967Y153222D03*
X98518D03*
D02*
D169*
X25132Y158301D03*
X42455D03*
D02*
D170*
X146136Y16608D03*
X166136D03*
D02*
D171*
X135722Y197868D03*
X152652D03*
D02*
D172*
X25270Y210880D03*
X45152D03*
D02*
D173*
X171797Y449144D03*
X174170Y450102D03*
X176543Y451061D03*
X178915Y452020D03*
X181288Y452978D03*
D02*
D174*
X172447Y411561D03*
Y417900D03*
X174415Y411561D03*
Y417900D03*
X176384Y411561D03*
Y417900D03*
X0Y0D02*
M02*
