G04 DesignSpark PCB Gerber Version 12.0 Build 5942*
%FSLAX35Y35*%
%MOMM*%
%ADD211R,0.14760X0.83760*%
%ADD205R,0.14760X1.32260*%
%ADD176R,0.49760X1.37260*%
%ADD190R,1.04760X1.37160*%
%ADD186R,1.14760X1.64760*%
%ADD179R,1.27000X1.32080*%
%ADD191R,1.44760X2.99760*%
%ADD183R,1.59760X2.09760*%
%ADD185R,1.59760X3.04760*%
%ADD200R,1.99760X2.04760*%
%ADD203R,1.99760X2.14760*%
%ADD207R,3.19760X3.44760*%
%ADD181R,6.07760X6.58760*%
%ADD17C,0.00001*%
%ADD204R,1.32260X0.14760*%
%AMT210*0 Rectangle Pad at angle 22*21,1,0.24760,1.34760,0,0,22*%
%ADD210T210*%
%ADD201R,1.24760X0.74760*%
%ADD184R,1.59760X0.79760*%
%ADD206R,1.24460X0.86360*%
%AMT197*0 Rectangle Pad at angle 45*21,1,1.04760,1.37160,0,0,45*%
%ADD197T197*%
%AMT202*0 Rectangle Pad at angle 45*21,1,1.04760,1.64760,0,0,45*%
%ADD202T202*%
%AMT195*0 Rectangle Pad at angle 45*21,1,1.14760,1.64760,0,0,45*%
%ADD195T195*%
%ADD182R,1.37160X1.04760*%
%ADD199R,1.64760X1.04760*%
%ADD188R,1.64760X1.14760*%
%AMT196*0 Rectangle Pad at angle 45*21,1,1.27000,1.32080,0,0,45*%
%ADD196T196*%
%ADD194R,1.32080X1.27000*%
%ADD180R,2.12760X1.37160*%
%ADD192R,1.47760X1.37760*%
%ADD208R,2.04760X1.99760*%
%ADD209R,2.14760X1.99760*%
%ADD178R,3.99760X1.99760*%
%ADD177R,2.94760X2.44760*%
%AMT189*0 Rectangle Pad at angle 135*21,1,0.29760,1.64760,0,0,135*%
%ADD189T189*%
%AMT198*0 Rectangle Pad at angle 135*21,1,0.86360,1.24460,0,0,135*%
%ADD198T198*%
%AMT187*0 Rectangle Pad at angle 135*21,1,1.04760,1.37160,0,0,135*%
%ADD187T187*%
%ADD193R,3.44760X3.19760*%
X0Y0D02*
D02*
D17*
X39226240Y45353160D02*
G75*
G03*
X42721570Y39593110I6493710J-20D01*
G01*
X43713650D01*
Y45516760D01*
G75*
G02*
X45520000Y47323110I1806350J0D01*
G01*
X45917500D01*
G75*
G02*
X47723850Y45516760I0J-1806350D01*
G01*
Y45156810D01*
G75*
G02*
X47726350Y45151760I-3850J-5050D01*
G01*
Y39593110D01*
X48718430D01*
G75*
G03*
X52213720Y45353140I-2998470J5760040D01*
G01*
G75*
G03*
X45720000Y51846890I-6493720J0D01*
G01*
G75*
G03*
X39226240Y45353160I0J-6493730D01*
G01*
X45731120Y48960090D02*
X45745880D01*
Y48827830D01*
X45731120D01*
Y48960090D01*
Y50107690D02*
X45745880D01*
Y49975430D01*
X45731120D01*
Y50107690D01*
X45781120Y48960090D02*
X45795880D01*
Y48827830D01*
X45781120D01*
Y48960090D01*
Y50107690D02*
X45795880D01*
Y49975430D01*
X45781120D01*
Y50107690D01*
X45831120Y48960090D02*
X45845880D01*
Y48827830D01*
X45831120D01*
Y48960090D01*
Y50107690D02*
X45845880D01*
Y49975430D01*
X45831120D01*
Y50107690D01*
X45881120Y48960090D02*
X45895880D01*
Y48827830D01*
X45881120D01*
Y48960090D01*
Y50107690D02*
X45895880D01*
Y49975430D01*
X45881120D01*
Y50107690D01*
X45931120Y48960090D02*
X45945880D01*
Y48827830D01*
X45931120D01*
Y48960090D01*
Y50107690D02*
X45945880D01*
Y49975430D01*
X45931120D01*
Y50107690D01*
X45981120Y48960090D02*
X45995880D01*
Y48827830D01*
X45981120D01*
Y48960090D01*
Y50107690D02*
X45995880D01*
Y49975430D01*
X45981120D01*
Y50107690D01*
X46031120Y48960090D02*
X46045880D01*
Y48827830D01*
X46031120D01*
Y48960090D01*
Y50107690D02*
X46045880D01*
Y49975430D01*
X46031120D01*
Y50107690D01*
X46081120Y48960090D02*
X46095880D01*
Y48827830D01*
X46081120D01*
Y48960090D01*
Y50107690D02*
X46095880D01*
Y49975430D01*
X46081120D01*
Y50107690D01*
X46131120Y48960090D02*
X46145880D01*
Y48827830D01*
X46131120D01*
Y48960090D01*
Y50107690D02*
X46145880D01*
Y49975430D01*
X46131120D01*
Y50107690D01*
X46181120Y48960090D02*
X46195880D01*
Y48827830D01*
X46181120D01*
Y48960090D01*
Y50107690D02*
X46195880D01*
Y49975430D01*
X46181120D01*
Y50107690D01*
X46321170Y49100140D02*
X46453430D01*
Y49085380D01*
X46321170D01*
Y49100140D01*
Y49150140D02*
X46453430D01*
Y49135380D01*
X46321170D01*
Y49150140D01*
Y49200140D02*
X46453430D01*
Y49185380D01*
X46321170D01*
Y49200140D01*
Y49250140D02*
X46453430D01*
Y49235380D01*
X46321170D01*
Y49250140D01*
Y49300140D02*
X46453430D01*
Y49285380D01*
X46321170D01*
Y49300140D01*
Y49350140D02*
X46453430D01*
Y49335380D01*
X46321170D01*
Y49350140D01*
Y49400140D02*
X46453430D01*
Y49385380D01*
X46321170D01*
Y49400140D01*
Y49450140D02*
X46453430D01*
Y49435380D01*
X46321170D01*
Y49450140D01*
Y49500140D02*
X46453430D01*
Y49485380D01*
X46321170D01*
Y49500140D01*
Y49550140D02*
X46453430D01*
Y49535380D01*
X46321170D01*
Y49550140D01*
Y49600140D02*
X46453430D01*
Y49585380D01*
X46321170D01*
Y49600140D01*
Y49650140D02*
X46453430D01*
Y49635380D01*
X46321170D01*
Y49650140D01*
Y49700140D02*
X46453430D01*
Y49685380D01*
X46321170D01*
Y49700140D01*
Y49750140D02*
X46453430D01*
Y49735380D01*
X46321170D01*
Y49750140D01*
Y49800140D02*
X46453430D01*
Y49785380D01*
X46321170D01*
Y49800140D01*
Y49850140D02*
X46453430D01*
Y49835380D01*
X46321170D01*
Y49850140D01*
X46350580Y50117420D02*
X46515340D01*
Y50002660D01*
X46350580D01*
Y50117420D01*
X46383420Y50583040D02*
X46515500D01*
Y50456040D01*
X46383420D01*
Y50583040D01*
X46383960Y50360760D02*
X46516040D01*
Y50233760D01*
X46383960D01*
Y50360760D01*
X46610580Y50117420D02*
X46775340D01*
Y50002660D01*
X46610580D01*
Y50117420D01*
X46624420Y50583040D02*
X46756500D01*
Y50456040D01*
X46624420D01*
Y50583040D01*
X46624960Y50360760D02*
X46757040D01*
Y50233760D01*
X46624960D01*
Y50360760D01*
X47034620Y48937340D02*
X47139380D01*
Y48800180D01*
X47034620D01*
Y48937340D01*
X47054620Y49177340D02*
X47159380D01*
Y49040180D01*
X47054620D01*
Y49177340D01*
Y49402340D02*
X47159380D01*
Y49265180D01*
X47054620D01*
Y49402340D01*
X47234620Y48936340D02*
X47339380D01*
Y48799180D01*
X47234620D01*
Y48936340D01*
X47254620Y49176340D02*
X47359380D01*
Y49039180D01*
X47254620D01*
Y49176340D01*
Y49401340D02*
X47359380D01*
Y49264180D01*
X47254620D01*
Y49401340D01*
X47514420Y50293640D02*
X47651580D01*
Y50188880D01*
X47514420D01*
Y50293640D01*
X47515420Y50493640D02*
X47652580D01*
Y50388880D01*
X47515420D01*
Y50493640D01*
X47808420Y47000640D02*
X47945580D01*
Y46895880D01*
X47808420D01*
Y47000640D01*
X47813620Y46620640D02*
X47938380D01*
Y46545880D01*
X47813620D01*
Y46620640D01*
X47885120Y42331640D02*
X48284880D01*
Y42131880D01*
X47885120D01*
Y42331640D01*
X47904120Y45235140D02*
X48028880D01*
Y45160380D01*
X47904120D01*
Y45235140D01*
X47945120Y43680140D02*
X48344880D01*
Y43480380D01*
X47945120D01*
Y43680140D01*
X47904120Y45425140D02*
X48028880D01*
Y45350380D01*
X47904120D01*
Y45425140D01*
X47813620Y46810640D02*
X47938380D01*
Y46735880D01*
X47813620D01*
Y46810640D01*
X47809420Y47200640D02*
X47946580D01*
Y47095880D01*
X47809420D01*
Y47200640D01*
X47964420Y50288140D02*
X48101580D01*
Y50183380D01*
X47964420D01*
Y50288140D01*
X48072500Y46305300D02*
X48199500D01*
Y46173220D01*
X48072500D01*
Y46305300D01*
X48073000Y45837300D02*
X48200000D01*
Y45705220D01*
X48073000D01*
Y45837300D01*
X48171420Y45271140D02*
X48308580D01*
Y45166380D01*
X48171420D01*
Y45271140D01*
X48172420Y45471140D02*
X48309580D01*
Y45366380D01*
X48172420D01*
Y45471140D01*
X48073000Y46078300D02*
X48200000D01*
Y45946220D01*
X48073000D01*
Y46078300D01*
X48072500Y46546300D02*
X48199500D01*
Y46414220D01*
X48072500D01*
Y46546300D01*
X47965420Y50488140D02*
X48102580D01*
Y50383380D01*
X47965420D01*
Y50488140D01*
X48280500Y46306080D02*
X48407500D01*
Y46174000D01*
X48280500D01*
Y46306080D01*
X48283000Y45836300D02*
X48410000D01*
Y45704220D01*
X48283000D01*
Y45836300D01*
Y46077300D02*
X48410000D01*
Y45945220D01*
X48283000D01*
Y46077300D01*
X48280500Y46547080D02*
X48407500D01*
Y46415000D01*
X48280500D01*
Y46547080D01*
X48522620Y45851140D02*
X48682380D01*
Y45771380D01*
X48522620D01*
Y45851140D01*
Y46081140D02*
X48682380D01*
Y46001380D01*
X48522620D01*
Y46081140D01*
Y46311140D02*
X48682380D01*
Y46231380D01*
X48522620D01*
Y46311140D01*
X48735120Y42331640D02*
X49134880D01*
Y42131880D01*
X48735120D01*
Y42331640D01*
X49013120Y40335640D02*
X49212880D01*
Y40120880D01*
X49013120D01*
Y40335640D01*
Y40765640D02*
X49212880D01*
Y40550880D01*
X49013120D01*
Y40765640D01*
X48795120Y43680140D02*
X49194880D01*
Y43480380D01*
X48795120D01*
Y43680140D01*
X49152620Y46193640D02*
X49312380D01*
Y45888880D01*
X49152620D01*
Y46193640D01*
X49417000Y41756800D02*
X49544000D01*
Y41624720D01*
X49417000D01*
Y41756800D01*
X49449500Y40474800D02*
X49576500D01*
Y40342720D01*
X49449500D01*
Y40474800D01*
Y40715800D02*
X49576500D01*
Y40583720D01*
X49449500D01*
Y40715800D01*
X49417000Y41997800D02*
X49544000D01*
Y41865720D01*
X49417000D01*
Y41997800D01*
X49597620Y45793140D02*
X49745380D01*
Y45655380D01*
X49597620D01*
Y45793140D01*
X49719620Y41759190D02*
X49769380D01*
Y41621930D01*
X49719620D01*
Y41759190D01*
Y42301590D02*
X49769380D01*
Y42164330D01*
X49719620D01*
Y42301590D01*
X49723780Y43291140D02*
X50331540D01*
Y42632380D01*
X49723780D01*
Y43291140D01*
X49787620Y42084140D02*
X50082380D01*
Y41839380D01*
X49787620D01*
Y42084140D01*
X49831000Y41157800D02*
X49958000D01*
Y41025720D01*
X49831000D01*
Y41157800D01*
Y41398800D02*
X49958000D01*
Y41266720D01*
X49831000D01*
Y41398800D01*
X49846620Y41759190D02*
X49896380D01*
Y41621930D01*
X49846620D01*
Y41759190D01*
X49973620D02*
X50023380D01*
Y41621930D01*
X49973620D01*
Y41759190D01*
X50061420Y41173140D02*
X50198580D01*
Y41068380D01*
X50061420D01*
Y41173140D01*
X50062420Y41373140D02*
X50199580D01*
Y41268380D01*
X50062420D01*
Y41373140D01*
X49846620Y42301590D02*
X49896380D01*
Y42164330D01*
X49846620D01*
Y42301590D01*
X49973620D02*
X50023380D01*
Y42164330D01*
X49973620D01*
Y42301590D01*
X50100620Y41759190D02*
X50150380D01*
Y41621930D01*
X50100620D01*
Y41759190D01*
Y42301590D02*
X50150380D01*
Y42164330D01*
X50100620D01*
Y42301590D01*
X49597620Y46173140D02*
X49745380D01*
Y46035380D01*
X49597620D01*
Y46173140D01*
X49602770Y46452440D02*
X49727230D01*
Y46366080D01*
X49602770D01*
Y46452440D01*
Y46648440D02*
X49727230D01*
Y46562080D01*
X49602770D01*
Y46648440D01*
X49777620Y43921640D02*
X50122380D01*
Y43601880D01*
X49777620D01*
Y43921640D01*
Y44951640D02*
X50122380D01*
Y44631880D01*
X49777620D01*
Y44951640D01*
X50264620Y46654140D02*
X50379380D01*
Y46489380D01*
X50264620D01*
Y46654140D01*
X50370920Y41373140D02*
X50508080D01*
Y41268380D01*
X50370920D01*
Y41373140D01*
X50371920Y41573140D02*
X50509080D01*
Y41468380D01*
X50371920D01*
Y41573140D01*
X50264620Y46914140D02*
X50379380D01*
Y46749380D01*
X50264620D01*
Y46914140D01*
X50635780Y42801340D02*
X50848540D01*
Y42664180D01*
X50635780D01*
Y42801340D01*
Y43259340D02*
X50848540D01*
Y43122180D01*
X50635780D01*
Y43259340D01*
X50661620Y45516640D02*
X50806380D01*
Y45216880D01*
X50661620D01*
Y45516640D01*
X50735120Y44266640D02*
X50894880D01*
Y44056880D01*
X50735120D01*
Y44266640D01*
X50740120Y43866640D02*
X50899880D01*
Y43656880D01*
X50740120D01*
Y43866640D01*
X50661620Y46016640D02*
X50806380D01*
Y45716880D01*
X50661620D01*
Y46016640D01*
X50845270Y46472440D02*
X50969730D01*
Y46386080D01*
X50845270D01*
Y46472440D01*
Y46668440D02*
X50969730D01*
Y46582080D01*
X50845270D01*
Y46668440D01*
X50980620Y48046340D02*
X51085380D01*
Y47909180D01*
X50980620D01*
Y48046340D01*
X51035120Y44266640D02*
X51194880D01*
Y44056880D01*
X51035120D01*
Y44266640D01*
X51040120Y43866640D02*
X51199880D01*
Y43656880D01*
X51040120D01*
Y43866640D01*
X51180620Y48045340D02*
X51285380D01*
Y47908180D01*
X51180620D01*
Y48045340D01*
X51294620Y44889140D02*
X51494380D01*
Y44684380D01*
X51294620D01*
Y44889140D01*
Y45329140D02*
X51494380D01*
Y45124380D01*
X51294620D01*
Y45329140D01*
X51498420Y46748140D02*
X51635580D01*
Y46643380D01*
X51498420D01*
Y46748140D01*
X51499000Y47191800D02*
X51626000D01*
Y47059720D01*
X51499000D01*
Y47191800D01*
X51499420Y46948140D02*
X51636580D01*
Y46843380D01*
X51499420D01*
Y46948140D01*
X51499000Y47432800D02*
X51626000D01*
Y47300720D01*
X51499000D01*
Y47432800D01*
X39602120Y45369140D02*
X39726880D01*
Y45294380D01*
X39602120D01*
Y45369140D01*
Y45559140D02*
X39726880D01*
Y45484380D01*
X39602120D01*
Y45559140D01*
X39612120Y45843840D02*
X39716880D01*
Y45706680D01*
X39612120D01*
Y45843840D01*
X39743620Y43663140D02*
X39948380D01*
Y43463380D01*
X39743620D01*
Y43663140D01*
X39812120Y45842840D02*
X39916880D01*
Y45705680D01*
X39812120D01*
Y45842840D01*
X39947620Y44126640D02*
X40107380D01*
Y43916880D01*
X39947620D01*
Y44126640D01*
X39970120Y44536640D02*
X40129880D01*
Y44326880D01*
X39970120D01*
Y44536640D01*
X40236830Y48306990D02*
X40333820Y48210000D01*
X40259750Y48135930D01*
X40162760Y48232920D01*
X40236830Y48306990D01*
X40270120Y44536640D02*
X40429880D01*
Y44326880D01*
X40270120D01*
Y44536640D01*
X40380520Y48135620D02*
X40497020Y48019120D01*
X40422940Y47945040D01*
X40306440Y48061540D01*
X40380520Y48135620D01*
X40483400Y47597010D02*
X40599910Y47480500D01*
X40518760Y47399350D01*
X40402250Y47515860D01*
X40483400Y47597010D01*
X40520120Y43606640D02*
X40839880D01*
Y43261880D01*
X40520120D01*
Y43606640D01*
X40813960Y42128840D02*
X41026720D01*
Y41991680D01*
X40813960D01*
Y42128840D01*
Y42586840D02*
X41026720D01*
Y42449680D01*
X40813960D01*
Y42586840D01*
X40667240Y47413170D02*
X40783750Y47296660D01*
X40702600Y47215510D01*
X40586090Y47332020D01*
X40667240Y47413170D01*
X40183620Y43663140D02*
X40388380D01*
Y43463380D01*
X40183620D01*
Y43663140D01*
X40247620Y44126640D02*
X40407380D01*
Y43916880D01*
X40247620D01*
Y44126640D01*
X40378960Y48447710D02*
X40475950Y48350720D01*
X40401880Y48276650D01*
X40304890Y48373640D01*
X40378960Y48447710D01*
X40550220Y48305320D02*
X40666720Y48188820D01*
X40592640Y48114740D01*
X40476140Y48231240D01*
X40550220Y48305320D01*
X40663360Y47852780D02*
X40779860Y47736280D01*
X40705780Y47662200D01*
X40589280Y47778700D01*
X40663360Y47852780D01*
X40604660Y48732000D02*
X40678730Y48657930D01*
X40581740Y48560940D01*
X40507670Y48635010D01*
X40604660Y48732000D01*
X40745380Y48589870D02*
X40819450Y48515800D01*
X40722460Y48418810D01*
X40648390Y48492880D01*
X40745380Y48589870D01*
X40833060Y48022480D02*
X40949560Y47905980D01*
X40875480Y47831900D01*
X40758980Y47948400D01*
X40833060Y48022480D01*
X41015950Y47578260D02*
X41036990Y47557220D01*
X40920490Y47440720D01*
X40899450Y47461760D01*
X41015950Y47578260D01*
X41061920Y47532300D02*
X41082960Y47511260D01*
X40966460Y47394760D01*
X40945420Y47415800D01*
X41061920Y47532300D01*
X41107880Y47486340D02*
X41128920Y47465300D01*
X41012420Y47348800D01*
X40991380Y47369840D01*
X41107880Y47486340D01*
X41153840Y47440370D02*
X41174880Y47419330D01*
X41058380Y47302830D01*
X41037340Y47323870D01*
X41153840Y47440370D01*
X41199800Y47394410D02*
X41220840Y47373370D01*
X41104340Y47256870D01*
X41083300Y47277910D01*
X41199800Y47394410D01*
X41245760Y47348450D02*
X41266800Y47327410D01*
X41150300Y47210910D01*
X41129260Y47231950D01*
X41245760Y47348450D01*
X41169500Y41386800D02*
X41296500D01*
Y41254720D01*
X41169500D01*
Y41386800D01*
Y41627800D02*
X41296500D01*
Y41495720D01*
X41169500D01*
Y41627800D01*
X41291730Y47302490D02*
X41312770Y47281450D01*
X41196270Y47164950D01*
X41175230Y47185990D01*
X41291730Y47302490D01*
X41337690Y47256530D02*
X41358730Y47235490D01*
X41242230Y47118990D01*
X41221190Y47140030D01*
X41337690Y47256530D01*
X41383650Y47210560D02*
X41404690Y47189520D01*
X41288190Y47073020D01*
X41267150Y47094060D01*
X41383650Y47210560D01*
X41429610Y47164600D02*
X41450650Y47143560D01*
X41334150Y47027060D01*
X41313110Y47048100D01*
X41429610Y47164600D01*
X41475570Y47118640D02*
X41496610Y47097600D01*
X41380110Y46981100D01*
X41359070Y47002140D01*
X41475570Y47118640D01*
X41521540Y47072680D02*
X41542580Y47051640D01*
X41426080Y46935140D01*
X41405040Y46956180D01*
X41521540Y47072680D01*
X41567500Y47026720D02*
X41588540Y47005680D01*
X41472040Y46889180D01*
X41451000Y46910220D01*
X41567500Y47026720D01*
X41613460Y46980750D02*
X41634500Y46959710D01*
X41518000Y46843210D01*
X41496960Y46864250D01*
X41613460Y46980750D01*
X41550120Y43606640D02*
X41869880D01*
Y43261880D01*
X41550120D01*
Y43606640D01*
X41704040Y46763710D02*
X41778110Y46689640D01*
X41681120Y46592650D01*
X41607050Y46666720D01*
X41704040Y46763710D01*
X41844760Y46621580D02*
X41918830Y46547510D01*
X41821840Y46450520D01*
X41747770Y46524590D01*
X41844760Y46621580D01*
X41330960Y42618640D02*
X41938720D01*
Y41959880D01*
X41330960D01*
Y42618640D01*
X41484620Y41141690D02*
X41534380D01*
Y41004430D01*
X41484620D01*
Y41141690D01*
Y41684090D02*
X41534380D01*
Y41546830D01*
X41484620D01*
Y41684090D01*
X41552620Y41466640D02*
X41847380D01*
Y41221880D01*
X41552620D01*
Y41466640D01*
X41611620Y41141690D02*
X41661380D01*
Y41004430D01*
X41611620D01*
Y41141690D01*
X41630420Y40710140D02*
X41767580D01*
Y40605380D01*
X41630420D01*
Y40710140D01*
X41631420Y40910140D02*
X41768580D01*
Y40805380D01*
X41631420D01*
Y40910140D01*
X41738620Y41141690D02*
X41788380D01*
Y41004430D01*
X41738620D01*
Y41141690D01*
X41611620Y41684090D02*
X41661380D01*
Y41546830D01*
X41611620D01*
Y41684090D01*
X41738620D02*
X41788380D01*
Y41546830D01*
X41738620D01*
Y41684090D01*
X41865620Y41141690D02*
X41915380D01*
Y41004430D01*
X41865620D01*
Y41141690D01*
X41867420Y40708140D02*
X42004580D01*
Y40603380D01*
X41867420D01*
Y40708140D01*
X41868420Y40908140D02*
X42005580D01*
Y40803380D01*
X41868420D01*
Y40908140D01*
X41865620Y41684090D02*
X41915380D01*
Y41546830D01*
X41865620D01*
Y41684090D01*
X40880540Y48284710D02*
X40954610Y48210640D01*
X40857620Y48113650D01*
X40783550Y48187720D01*
X40880540Y48284710D01*
X41021260Y48142580D02*
X41095330Y48068510D01*
X40998340Y47971520D01*
X40924270Y48045590D01*
X41021260Y48142580D01*
X40756160Y48886000D02*
X40830230Y48811930D01*
X40733240Y48714940D01*
X40659170Y48789010D01*
X40756160Y48886000D01*
X40896880Y48743870D02*
X40970950Y48669800D01*
X40873960Y48572810D01*
X40799890Y48646880D01*
X40896880Y48743870D01*
X41518000Y48080310D02*
X41539040Y48059270D01*
X41422540Y47942770D01*
X41401500Y47963810D01*
X41518000Y48080310D01*
X41563960Y48034340D02*
X41585000Y48013300D01*
X41468500Y47896800D01*
X41447460Y47917840D01*
X41563960Y48034340D01*
X41609920Y47988380D02*
X41630960Y47967340D01*
X41514460Y47850840D01*
X41493420Y47871880D01*
X41609920Y47988380D01*
X41655890Y47942420D02*
X41676930Y47921380D01*
X41560430Y47804880D01*
X41539390Y47825920D01*
X41655890Y47942420D01*
X41701850Y47896460D02*
X41722890Y47875420D01*
X41606390Y47758920D01*
X41585350Y47779960D01*
X41701850Y47896460D01*
X41747810Y47850500D02*
X41768850Y47829460D01*
X41652350Y47712960D01*
X41631310Y47734000D01*
X41747810Y47850500D01*
X41793770Y47804530D02*
X41814810Y47783490D01*
X41698310Y47666990D01*
X41677270Y47688030D01*
X41793770Y47804530D01*
X41839730Y47758570D02*
X41860770Y47737530D01*
X41744270Y47621030D01*
X41723230Y47642070D01*
X41839730Y47758570D01*
X41854160Y46920000D02*
X41928230Y46845930D01*
X41831240Y46748940D01*
X41757170Y46823010D01*
X41854160Y46920000D01*
X41994880Y46777870D02*
X42068950Y46703800D01*
X41971960Y46606810D01*
X41897890Y46680880D01*
X41994880Y46777870D01*
X41885700Y47712610D02*
X41906740Y47691570D01*
X41790240Y47575070D01*
X41769200Y47596110D01*
X41885700Y47712610D01*
X41931660Y47666650D02*
X41952700Y47645610D01*
X41836200Y47529110D01*
X41815160Y47550150D01*
X41931660Y47666650D01*
X41977620Y47620690D02*
X41998660Y47599650D01*
X41882160Y47483150D01*
X41861120Y47504190D01*
X41977620Y47620690D01*
X42023580Y47574720D02*
X42044620Y47553680D01*
X41928120Y47437180D01*
X41907080Y47458220D01*
X42023580Y47574720D01*
X42069540Y47528760D02*
X42090580Y47507720D01*
X41974080Y47391220D01*
X41953040Y47412260D01*
X42069540Y47528760D01*
X42115510Y47482800D02*
X42136550Y47461760D01*
X42020050Y47345260D01*
X41999010Y47366300D01*
X42115510Y47482800D01*
X42004660Y47068000D02*
X42078730Y46993930D01*
X41981740Y46896940D01*
X41907670Y46971010D01*
X42004660Y47068000D01*
X42145380Y46925870D02*
X42219450Y46851800D01*
X42122460Y46754810D01*
X42048390Y46828880D01*
X42145380Y46925870D01*
X42078000Y40700300D02*
X42205000D01*
Y40568220D01*
X42078000D01*
Y40700300D01*
Y40941300D02*
X42205000D01*
Y40809220D01*
X42078000D01*
Y40941300D01*
X42091200Y48078070D02*
X42184600Y47984670D01*
X42094800Y47894870D01*
X42001400Y47988270D01*
X42091200Y48078070D01*
X42261610Y47907650D02*
X42355010Y47814250D01*
X42265210Y47724450D01*
X42171810Y47817850D01*
X42261610Y47907650D01*
X42271120Y42331640D02*
X42670880D01*
Y42131880D01*
X42271120D01*
Y42331640D01*
Y43669140D02*
X42670880D01*
Y43469380D01*
X42271120D01*
Y43669140D01*
X42285160Y48232000D02*
X42359230Y48157930D01*
X42262240Y48060940D01*
X42188170Y48135010D01*
X42285160Y48232000D01*
X42425880Y48089870D02*
X42499950Y48015800D01*
X42402960Y47918810D01*
X42328890Y47992880D01*
X42425880Y48089870D01*
X42445160Y48389500D02*
X42519230Y48315430D01*
X42422240Y48218440D01*
X42348170Y48292510D01*
X42445160Y48389500D01*
X42585880Y48247370D02*
X42659950Y48173300D01*
X42562960Y48076310D01*
X42488890Y48150380D01*
X42585880Y48247370D01*
X42547620Y44668140D02*
X42762380D01*
Y44468380D01*
X42547620D01*
Y44668140D01*
X42606160Y48543000D02*
X42680230Y48468930D01*
X42583240Y48371940D01*
X42509170Y48446010D01*
X42606160Y48543000D01*
X42746880Y48400870D02*
X42820950Y48326800D01*
X42723960Y48229810D01*
X42649890Y48303880D01*
X42746880Y48400870D01*
X42813960Y40468260D02*
X42946040D01*
Y40341260D01*
X42813960D01*
Y40468260D01*
X42763660Y48700500D02*
X42837730Y48626430D01*
X42740740Y48529440D01*
X42666670Y48603510D01*
X42763660Y48700500D01*
X42904380Y48558370D02*
X42978450Y48484300D01*
X42881460Y48387310D01*
X42807390Y48461380D01*
X42904380Y48558370D01*
X42977620Y44668140D02*
X43192380D01*
Y44468380D01*
X42977620D01*
Y44668140D01*
X43054960Y40468260D02*
X43187040D01*
Y40341260D01*
X43054960D01*
Y40468260D01*
X43121120Y42331640D02*
X43520880D01*
Y42131880D01*
X43121120D01*
Y42331640D01*
Y43669140D02*
X43520880D01*
Y43469380D01*
X43121120D01*
Y43669140D01*
X42900200Y48863570D02*
X42993600Y48770170D01*
X42903800Y48680370D01*
X42810400Y48773770D01*
X42900200Y48863570D01*
X43070610Y48693150D02*
X43164010Y48599750D01*
X43074210Y48509950D01*
X42980810Y48603350D01*
X43070610Y48693150D01*
X43113170Y49028100D02*
X43174240Y48967030D01*
X43086230Y48879020D01*
X43025160Y48940090D01*
X43113170Y49028100D01*
X43251770Y48889500D02*
X43312840Y48828430D01*
X43224830Y48740420D01*
X43163760Y48801490D01*
X43251770Y48889500D01*
X43183920Y50436640D02*
X43321080D01*
Y50331880D01*
X43183920D01*
Y50436640D01*
X43184920Y50636640D02*
X43322080D01*
Y50531880D01*
X43184920D01*
Y50636640D01*
X43446420Y50427640D02*
X43583580D01*
Y50322880D01*
X43446420D01*
Y50427640D01*
X43580420Y50037950D02*
X43595180D01*
Y49954190D01*
X43580420D01*
Y50037950D01*
Y50198950D02*
X43595180D01*
Y50115190D01*
X43580420D01*
Y50198950D01*
X43447420Y50627640D02*
X43584580D01*
Y50522880D01*
X43447420D01*
Y50627640D01*
X43557530Y51017770D02*
X43608010Y50892820D01*
X43585050Y50883550D01*
X43534570Y51008500D01*
X43557530Y51017770D01*
X43617800Y51042120D02*
X43668280Y50917170D01*
X43645320Y50907900D01*
X43594840Y51032850D01*
X43617800Y51042120D01*
X43630420Y50037950D02*
X43645180D01*
Y49954190D01*
X43630420D01*
Y50037950D01*
Y50198950D02*
X43645180D01*
Y50115190D01*
X43630420D01*
Y50198950D01*
X43678070Y51066470D02*
X43728550Y50941520D01*
X43705590Y50932250D01*
X43655110Y51057200D01*
X43678070Y51066470D01*
X43680420Y50037950D02*
X43695180D01*
Y49954190D01*
X43680420D01*
Y50037950D01*
Y50198950D02*
X43695180D01*
Y50115190D01*
X43680420D01*
Y50198950D01*
X43690420Y50424640D02*
X43827580D01*
Y50319880D01*
X43690420D01*
Y50424640D01*
X43691420Y50624640D02*
X43828580D01*
Y50519880D01*
X43691420D01*
Y50624640D01*
X43738330Y51090820D02*
X43788810Y50965870D01*
X43765850Y50956600D01*
X43715370Y51081550D01*
X43738330Y51090820D01*
X43798600Y51115170D02*
X43849080Y50990220D01*
X43826120Y50980950D01*
X43775640Y51105900D01*
X43798600Y51115170D01*
X43901500Y50396300D02*
X44028500D01*
Y50264220D01*
X43901500D01*
Y50396300D01*
Y50637300D02*
X44028500D01*
Y50505220D01*
X43901500D01*
Y50637300D01*
X44092120Y48976340D02*
X44196880D01*
Y48839180D01*
X44092120D01*
Y48976340D01*
X44100420Y50436140D02*
X44237580D01*
Y50331380D01*
X44100420D01*
Y50436140D01*
X44101420Y50636140D02*
X44238580D01*
Y50531380D01*
X44101420D01*
Y50636140D01*
X44278460Y49195760D02*
X44410540D01*
Y49068760D01*
X44278460D01*
Y49195760D01*
X44292120Y48975340D02*
X44396880D01*
Y48838180D01*
X44292120D01*
Y48975340D01*
X44433620Y49390140D02*
X44598380D01*
Y49285380D01*
X44433620D01*
Y49390140D01*
X44519460Y49195760D02*
X44651540D01*
Y49068760D01*
X44519460D01*
Y49195760D01*
X44433620Y49630140D02*
X44598380D01*
Y49525380D01*
X44433620D01*
Y49630140D01*
X44524960Y49829260D02*
X44657040D01*
Y49702260D01*
X44524960D01*
Y49829260D01*
X44765960D02*
X44898040D01*
Y49702260D01*
X44765960D01*
Y49829260D01*
X44833620Y49390140D02*
X44998380D01*
Y49285380D01*
X44833620D01*
Y49390140D01*
X44918930Y48715000D02*
X45051010D01*
Y48588000D01*
X44918930D01*
Y48715000D01*
X44918960Y48935760D02*
X45051040D01*
Y48808760D01*
X44918960D01*
Y48935760D01*
X44833620Y49630140D02*
X44998380D01*
Y49525380D01*
X44833620D01*
Y49630140D01*
X44782000Y50138800D02*
X44909000D01*
Y50006720D01*
X44782000D01*
Y50138800D01*
Y50379800D02*
X44909000D01*
Y50247720D01*
X44782000D01*
Y50379800D01*
X45032000Y50128800D02*
X45159000D01*
Y49996720D01*
X45032000D01*
Y50128800D01*
Y50369800D02*
X45159000D01*
Y50237720D01*
X45032000D01*
Y50369800D01*
X45159930Y48715000D02*
X45292010D01*
Y48588000D01*
X45159930D01*
Y48715000D01*
X45159960Y48935760D02*
X45292040D01*
Y48808760D01*
X45159960D01*
Y48935760D01*
X45173570Y49100140D02*
X45305830D01*
Y49085380D01*
X45173570D01*
Y49100140D01*
Y49150140D02*
X45305830D01*
Y49135380D01*
X45173570D01*
Y49150140D01*
Y49200140D02*
X45305830D01*
Y49185380D01*
X45173570D01*
Y49200140D01*
Y49250140D02*
X45305830D01*
Y49235380D01*
X45173570D01*
Y49250140D01*
Y49300140D02*
X45305830D01*
Y49285380D01*
X45173570D01*
Y49300140D01*
Y49350140D02*
X45305830D01*
Y49335380D01*
X45173570D01*
Y49350140D01*
Y49400140D02*
X45305830D01*
Y49385380D01*
X45173570D01*
Y49400140D01*
Y49450140D02*
X45305830D01*
Y49435380D01*
X45173570D01*
Y49450140D01*
Y49500140D02*
X45305830D01*
Y49485380D01*
X45173570D01*
Y49500140D01*
Y49550140D02*
X45305830D01*
Y49535380D01*
X45173570D01*
Y49550140D01*
Y49600140D02*
X45305830D01*
Y49585380D01*
X45173570D01*
Y49600140D01*
Y49650140D02*
X45305830D01*
Y49635380D01*
X45173570D01*
Y49650140D01*
Y49700140D02*
X45305830D01*
Y49685380D01*
X45173570D01*
Y49700140D01*
Y49750140D02*
X45305830D01*
Y49735380D01*
X45173570D01*
Y49750140D01*
Y49800140D02*
X45305830D01*
Y49785380D01*
X45173570D01*
Y49800140D01*
Y49850140D02*
X45305830D01*
Y49835380D01*
X45173570D01*
Y49850140D01*
X45431120Y48960090D02*
X45445880D01*
Y48827830D01*
X45431120D01*
Y48960090D01*
Y50107690D02*
X45445880D01*
Y49975430D01*
X45431120D01*
Y50107690D01*
X45481120Y48960090D02*
X45495880D01*
Y48827830D01*
X45481120D01*
Y48960090D01*
Y50107690D02*
X45495880D01*
Y49975430D01*
X45481120D01*
Y50107690D01*
X45531120Y48960090D02*
X45545880D01*
Y48827830D01*
X45531120D01*
Y48960090D01*
Y50107690D02*
X45545880D01*
Y49975430D01*
X45531120D01*
Y50107690D01*
X45581120Y48960090D02*
X45595880D01*
Y48827830D01*
X45581120D01*
Y48960090D01*
Y50107690D02*
X45595880D01*
Y49975430D01*
X45581120D01*
Y50107690D01*
X45631120Y48960090D02*
X45645880D01*
Y48827830D01*
X45631120D01*
Y48960090D01*
Y50107690D02*
X45645880D01*
Y49975430D01*
X45631120D01*
Y50107690D01*
X45681120Y48960090D02*
X45695880D01*
Y48827830D01*
X45681120D01*
Y48960090D01*
Y50107690D02*
X45695880D01*
Y49975430D01*
X45681120D01*
Y50107690D01*
X41731990Y40228260D02*
G36*
X41731990Y40228260D02*
G75*
G03*
X42721570Y39593110I3988070J5125040D01*
G01*
X43713650D01*
Y40228260D01*
X41731990D01*
G37*
X47726350D02*
G36*
X47726350Y40228260D02*
Y39593110D01*
X48718430D01*
G75*
G03*
X49707990Y40228260I-2998500J5760080D01*
G01*
X49212880D01*
Y40120880D01*
X49013120D01*
Y40228260D01*
X47726350D01*
G37*
X41510280Y40408760D02*
G36*
X41510280Y40408760D02*
G75*
G03*
X41731990Y40228260I4210860J4945830D01*
G01*
X43713650D01*
Y40408760D01*
X43187040D01*
Y40341260D01*
X43054960D01*
Y40408760D01*
X42946040D01*
Y40341260D01*
X42813960D01*
Y40408760D01*
X41510280D01*
G37*
X47726350D02*
G36*
X47726350Y40408760D02*
Y40228260D01*
X49013120D01*
Y40335640D01*
X49212880D01*
Y40228260D01*
X49707990D01*
G75*
G03*
X49929690Y40408760I-3989160J5126100D01*
G01*
X49576500D01*
Y40342720D01*
X49449500D01*
Y40408760D01*
X47726350D01*
G37*
X41233710Y40658260D02*
G36*
X41233710Y40658260D02*
G75*
G03*
X41510280Y40408760I4487460J4696290D01*
G01*
X42813960D01*
Y40468260D01*
X42946040D01*
Y40408760D01*
X43054960D01*
Y40468260D01*
X43187040D01*
Y40408760D01*
X43713650D01*
Y40658260D01*
X42205000D01*
Y40568220D01*
X42078000D01*
Y40658260D01*
X42004580D01*
Y40603380D01*
X41867420D01*
Y40658260D01*
X41767580D01*
Y40605380D01*
X41630420D01*
Y40658260D01*
X41233710D01*
G37*
X47726350D02*
G36*
X47726350Y40658260D02*
Y40408760D01*
X49449500D01*
Y40474800D01*
X49576500D01*
Y40408760D01*
X49929690D01*
G75*
G03*
X50206260Y40658260I-4210890J4945790D01*
G01*
X49576500D01*
Y40583720D01*
X49449500D01*
Y40658260D01*
X49212880D01*
Y40550880D01*
X49013120D01*
Y40658260D01*
X47726350D01*
G37*
X41033820Y40857760D02*
G36*
X41033820Y40857760D02*
G75*
G03*
X41233710Y40658260I4687940J4497220D01*
G01*
X41630420D01*
Y40710140D01*
X41767580D01*
Y40658260D01*
X41867420D01*
Y40708140D01*
X42004580D01*
Y40658260D01*
X42078000D01*
Y40700300D01*
X42205000D01*
Y40658260D01*
X43713650D01*
Y40857760D01*
X42205000D01*
Y40809220D01*
X42078000D01*
Y40857760D01*
X42005580D01*
Y40803380D01*
X41868420D01*
Y40857760D01*
X41768580D01*
Y40805380D01*
X41631420D01*
Y40857760D01*
X41033820D01*
G37*
X47726350D02*
G36*
X47726350Y40857760D02*
Y40658260D01*
X49013120D01*
Y40765640D01*
X49212880D01*
Y40658260D01*
X49449500D01*
Y40715800D01*
X49576500D01*
Y40658260D01*
X50206260D01*
G75*
G03*
X50406140Y40857760I-4488060J4696490D01*
G01*
X47726350D01*
G37*
X40820070Y41091760D02*
G36*
X40820070Y41091760D02*
G75*
G03*
X41033820Y40857760I4901060J4262310D01*
G01*
X41631420D01*
Y40910140D01*
X41768580D01*
Y40857760D01*
X41868420D01*
Y40908140D01*
X42005580D01*
Y40857760D01*
X42078000D01*
Y40941300D01*
X42205000D01*
Y40857760D01*
X43713650D01*
Y41091760D01*
X41915380D01*
Y41004430D01*
X41865620D01*
Y41091760D01*
X41788380D01*
Y41004430D01*
X41738620D01*
Y41091760D01*
X41661380D01*
Y41004430D01*
X41611620D01*
Y41091760D01*
X41534380D01*
Y41004430D01*
X41484620D01*
Y41091760D01*
X40820070D01*
G37*
X47726350D02*
G36*
X47726350Y41091760D02*
Y40857760D01*
X50406140D01*
G75*
G03*
X50619900Y41091760I-4687310J4496510D01*
G01*
X50198580D01*
Y41068380D01*
X50061420D01*
Y41091760D01*
X49958000D01*
Y41025720D01*
X49831000D01*
Y41091760D01*
X47726350D01*
G37*
X40620460Y41332760D02*
G36*
X40620460Y41332760D02*
G75*
G03*
X40820070Y41091760I5100030J4020970D01*
G01*
X41484620D01*
Y41141690D01*
X41534380D01*
Y41091760D01*
X41611620D01*
Y41141690D01*
X41661380D01*
Y41091760D01*
X41738620D01*
Y41141690D01*
X41788380D01*
Y41091760D01*
X41865620D01*
Y41141690D01*
X41915380D01*
Y41091760D01*
X43713650D01*
Y41332760D01*
X41847380D01*
Y41221880D01*
X41552620D01*
Y41332760D01*
X41296500D01*
Y41254720D01*
X41169500D01*
Y41332760D01*
X40620460D01*
G37*
X47726350D02*
G36*
X47726350Y41332760D02*
Y41091760D01*
X49831000D01*
Y41157800D01*
X49958000D01*
Y41091760D01*
X50061420D01*
Y41173140D01*
X50198580D01*
Y41091760D01*
X50619900D01*
G75*
G03*
X50819500Y41332760I-4900420J4261760D01*
G01*
X50508080D01*
Y41268380D01*
X50370920D01*
Y41332760D01*
X50199580D01*
Y41268380D01*
X50062420D01*
Y41332760D01*
X49958000D01*
Y41266720D01*
X49831000D01*
Y41332760D01*
X47726350D01*
G37*
X40477710Y41520760D02*
G36*
X40477710Y41520760D02*
G75*
G03*
X40620460Y41332760I5244490J3833990D01*
G01*
X41169500D01*
Y41386800D01*
X41296500D01*
Y41332760D01*
X41552620D01*
Y41466640D01*
X41847380D01*
Y41332760D01*
X43713650D01*
Y41520760D01*
X41296500D01*
Y41495720D01*
X41169500D01*
Y41520760D01*
X40477710D01*
G37*
X47726350D02*
G36*
X47726350Y41520760D02*
Y41332760D01*
X49831000D01*
Y41398800D01*
X49958000D01*
Y41332760D01*
X50062420D01*
Y41373140D01*
X50199580D01*
Y41332760D01*
X50370920D01*
Y41373140D01*
X50508080D01*
Y41332760D01*
X50819500D01*
G75*
G03*
X50962250Y41520760I-5101740J4021990D01*
G01*
X50509080D01*
Y41468380D01*
X50371920D01*
Y41520760D01*
X47726350D01*
G37*
X40409770Y41615460D02*
G36*
X40409770Y41615460D02*
G75*
G03*
X40477710Y41520760I5311950J3739200D01*
G01*
X41169500D01*
Y41615460D01*
X40409770D01*
G37*
X41296500D02*
G36*
X41296500Y41615460D02*
Y41520760D01*
X43713650D01*
Y41615460D01*
X41915380D01*
Y41546830D01*
X41865620D01*
Y41615460D01*
X41788380D01*
Y41546830D01*
X41738620D01*
Y41615460D01*
X41661380D01*
Y41546830D01*
X41611620D01*
Y41615460D01*
X41534380D01*
Y41546830D01*
X41484620D01*
Y41615460D01*
X41296500D01*
G37*
X47726350D02*
G36*
X47726350Y41615460D02*
Y41520760D01*
X50371920D01*
Y41573140D01*
X50509080D01*
Y41520760D01*
X50962250D01*
G75*
G03*
X51030190Y41615460I-5244010J3833900D01*
G01*
X47726350D01*
G37*
X40357560Y41690760D02*
G36*
X40357560Y41690760D02*
G75*
G03*
X40409770Y41615460I5365590J3664530D01*
G01*
X41169500D01*
Y41627800D01*
X41296500D01*
Y41615460D01*
X41484620D01*
Y41684090D01*
X41534380D01*
Y41615460D01*
X41611620D01*
Y41684090D01*
X41661380D01*
Y41615460D01*
X41738620D01*
Y41684090D01*
X41788380D01*
Y41615460D01*
X41865620D01*
Y41684090D01*
X41915380D01*
Y41615460D01*
X43713650D01*
Y41690760D01*
X40357560D01*
G37*
X47726350D02*
G36*
X47726350Y41690760D02*
Y41615460D01*
X51030190D01*
G75*
G03*
X51082400Y41690760I-5313380J3739830D01*
G01*
X50150380D01*
Y41621930D01*
X50100620D01*
Y41690760D01*
X50023380D01*
Y41621930D01*
X49973620D01*
Y41690760D01*
X49896380D01*
Y41621930D01*
X49846620D01*
Y41690760D01*
X49769380D01*
Y41621930D01*
X49719620D01*
Y41690760D01*
X49544000D01*
Y41624720D01*
X49417000D01*
Y41690760D01*
X47726350D01*
G37*
X40200680Y41931760D02*
G36*
X40200680Y41931760D02*
G75*
G03*
X40357560Y41690760I5520310J3421910D01*
G01*
X43713650D01*
Y41931760D01*
X40200680D01*
G37*
X47726350D02*
G36*
X47726350Y41931760D02*
Y41690760D01*
X49417000D01*
Y41756800D01*
X49544000D01*
Y41690760D01*
X49719620D01*
Y41759190D01*
X49769380D01*
Y41690760D01*
X49846620D01*
Y41759190D01*
X49896380D01*
Y41690760D01*
X49973620D01*
Y41759190D01*
X50023380D01*
Y41690760D01*
X50100620D01*
Y41759190D01*
X50150380D01*
Y41690760D01*
X51082400D01*
G75*
G03*
X51239280Y41931760I-5363430J3662910D01*
G01*
X50082380D01*
Y41839380D01*
X49787620D01*
Y41931760D01*
X49544000D01*
Y41865720D01*
X49417000D01*
Y41931760D01*
X47726350D01*
G37*
X40123060Y42060260D02*
G36*
X40123060Y42060260D02*
G75*
G03*
X40200680Y41931760I5599370J3294590D01*
G01*
X43713650D01*
Y42060260D01*
X41938720D01*
Y41959880D01*
X41330960D01*
Y42060260D01*
X41026720D01*
Y41991680D01*
X40813960D01*
Y42060260D01*
X40123060D01*
G37*
X47726350D02*
G36*
X47726350Y42060260D02*
Y41931760D01*
X49417000D01*
Y41997800D01*
X49544000D01*
Y41931760D01*
X49787620D01*
Y42060260D01*
X47726350D01*
G37*
X50082380D02*
G36*
X50082380Y42060260D02*
Y41931760D01*
X51239280D01*
G75*
G03*
X51316900Y42060260I-5521750J3423090D01*
G01*
X50082380D01*
G37*
X40025640Y42231760D02*
G36*
X40025640Y42231760D02*
G75*
G03*
X40123060Y42060260I5695530J3121910D01*
G01*
X40813960D01*
Y42128840D01*
X41026720D01*
Y42060260D01*
X41330960D01*
Y42231760D01*
X40025640D01*
G37*
X41938720D02*
G36*
X41938720Y42231760D02*
Y42060260D01*
X43713650D01*
Y42231760D01*
X43520880D01*
Y42131880D01*
X43121120D01*
Y42231760D01*
X42670880D01*
Y42131880D01*
X42271120D01*
Y42231760D01*
X41938720D01*
G37*
X47726350D02*
G36*
X47726350Y42231760D02*
Y42060260D01*
X49787620D01*
Y42084140D01*
X50082380D01*
Y42060260D01*
X51316900D01*
G75*
G03*
X51414320Y42231760I-5598110J3293410D01*
G01*
X50150380D01*
Y42164330D01*
X50100620D01*
Y42231760D01*
X50023380D01*
Y42164330D01*
X49973620D01*
Y42231760D01*
X49896380D01*
Y42164330D01*
X49846620D01*
Y42231760D01*
X49769380D01*
Y42164330D01*
X49719620D01*
Y42231760D01*
X49134880D01*
Y42131880D01*
X48735120D01*
Y42231760D01*
X48284880D01*
Y42131880D01*
X47885120D01*
Y42231760D01*
X47726350D01*
G37*
X39877720Y42518260D02*
G36*
X39877720Y42518260D02*
G75*
G03*
X40025640Y42231760I5842630J2835120D01*
G01*
X41330960D01*
Y42518260D01*
X41026720D01*
Y42449680D01*
X40813960D01*
Y42518260D01*
X39877720D01*
G37*
X41938720D02*
G36*
X41938720Y42518260D02*
Y42231760D01*
X42271120D01*
Y42331640D01*
X42670880D01*
Y42231760D01*
X43121120D01*
Y42331640D01*
X43520880D01*
Y42231760D01*
X43713650D01*
Y42518260D01*
X41938720D01*
G37*
X47726350D02*
G36*
X47726350Y42518260D02*
Y42231760D01*
X47885120D01*
Y42331640D01*
X48284880D01*
Y42231760D01*
X48735120D01*
Y42331640D01*
X49134880D01*
Y42231760D01*
X49719620D01*
Y42301590D01*
X49769380D01*
Y42231760D01*
X49846620D01*
Y42301590D01*
X49896380D01*
Y42231760D01*
X49973620D01*
Y42301590D01*
X50023380D01*
Y42231760D01*
X50100620D01*
Y42301590D01*
X50150380D01*
Y42231760D01*
X51414320D01*
G75*
G03*
X51562240Y42518260I-5694710J3121620D01*
G01*
X47726350D01*
G37*
X39778410Y42732760D02*
G36*
X39778410Y42732760D02*
G75*
G03*
X39877720Y42518260I5943460J2621490D01*
G01*
X40813960D01*
Y42586840D01*
X41026720D01*
Y42518260D01*
X41330960D01*
Y42618640D01*
X41938720D01*
Y42518260D01*
X43713650D01*
Y42732760D01*
X39778410D01*
G37*
X47726350D02*
G36*
X47726350Y42732760D02*
Y42518260D01*
X51562240D01*
G75*
G03*
X51661540Y42732760I-5844160J2835710D01*
G01*
X50848540D01*
Y42664180D01*
X50635780D01*
Y42732760D01*
X50331540D01*
Y42632380D01*
X49723780D01*
Y42732760D01*
X47726350D01*
G37*
X39682600Y42961760D02*
G36*
X39682600Y42961760D02*
G75*
G03*
X39778410Y42732760I6038380J2391820D01*
G01*
X43713650D01*
Y42961760D01*
X39682600D01*
G37*
X47726350D02*
G36*
X47726350Y42961760D02*
Y42732760D01*
X49723780D01*
Y42961760D01*
X47726350D01*
G37*
X50331540D02*
G36*
X50331540Y42961760D02*
Y42732760D01*
X50635780D01*
Y42801340D01*
X50848540D01*
Y42732760D01*
X51661540D01*
G75*
G03*
X51757350Y42961760I-5942570J2620820D01*
G01*
X50331540D01*
G37*
X39596850Y43190760D02*
G36*
X39596850Y43190760D02*
G75*
G03*
X39682600Y42961760I6125020J2162980D01*
G01*
X43713650D01*
Y43190760D01*
X39596850D01*
G37*
X47726350D02*
G36*
X47726350Y43190760D02*
Y42961760D01*
X49723780D01*
Y43190760D01*
X47726350D01*
G37*
X50331540D02*
G36*
X50331540Y43190760D02*
Y42961760D01*
X51757350D01*
G75*
G03*
X51843110Y43190760I-6039260J2392250D01*
G01*
X50848540D01*
Y43122180D01*
X50635780D01*
Y43190760D01*
X50331540D01*
G37*
X39472940Y43580260D02*
G36*
X39472940Y43580260D02*
G75*
G03*
X39596850Y43190760I6248680J1773410D01*
G01*
X43713650D01*
Y43580260D01*
X43520880D01*
Y43469380D01*
X43121120D01*
Y43580260D01*
X42670880D01*
Y43469380D01*
X42271120D01*
Y43580260D01*
X41869880D01*
Y43261880D01*
X41550120D01*
Y43580260D01*
X40839880D01*
Y43261880D01*
X40520120D01*
Y43580260D01*
X40388380D01*
Y43463380D01*
X40183620D01*
Y43580260D01*
X39948380D01*
Y43463380D01*
X39743620D01*
Y43580260D01*
X39472940D01*
G37*
X47726350D02*
G36*
X47726350Y43580260D02*
Y43190760D01*
X49723780D01*
Y43291140D01*
X50331540D01*
Y43190760D01*
X50635780D01*
Y43259340D01*
X50848540D01*
Y43190760D01*
X51843110D01*
G75*
G03*
X51967020Y43580260I-6124770J2162910D01*
G01*
X49194880D01*
Y43480380D01*
X48795120D01*
Y43580260D01*
X48344880D01*
Y43480380D01*
X47945120D01*
Y43580260D01*
X47726350D01*
G37*
X39424260Y43761760D02*
G36*
X39424260Y43761760D02*
G75*
G03*
X39472940Y43580260I6296030J1591380D01*
G01*
X39743620D01*
Y43663140D01*
X39948380D01*
Y43580260D01*
X40183620D01*
Y43663140D01*
X40388380D01*
Y43580260D01*
X40520120D01*
Y43606640D01*
X40839880D01*
Y43580260D01*
X41550120D01*
Y43606640D01*
X41869880D01*
Y43580260D01*
X42271120D01*
Y43669140D01*
X42670880D01*
Y43580260D01*
X43121120D01*
Y43669140D01*
X43520880D01*
Y43580260D01*
X43713650D01*
Y43761760D01*
X39424260D01*
G37*
X47726350D02*
G36*
X47726350Y43761760D02*
Y43580260D01*
X47945120D01*
Y43680140D01*
X48344880D01*
Y43580260D01*
X48795120D01*
Y43680140D01*
X49194880D01*
Y43580260D01*
X51967020D01*
G75*
G03*
X52015700Y43761760I-6247350J1772880D01*
G01*
X51199880D01*
Y43656880D01*
X51040120D01*
Y43761760D01*
X50899880D01*
Y43656880D01*
X50740120D01*
Y43761760D01*
X50122380D01*
Y43601880D01*
X49777620D01*
Y43761760D01*
X47726350D01*
G37*
X39364190Y44021760D02*
G36*
X39364190Y44021760D02*
G75*
G03*
X39424260Y43761760I6357480J1331880D01*
G01*
X43713650D01*
Y44021760D01*
X40407380D01*
Y43916880D01*
X40247620D01*
Y44021760D01*
X40107380D01*
Y43916880D01*
X39947620D01*
Y44021760D01*
X39364190D01*
G37*
X47726350D02*
G36*
X47726350Y44021760D02*
Y43761760D01*
X49777620D01*
Y43921640D01*
X50122380D01*
Y43761760D01*
X50740120D01*
Y43866640D01*
X50899880D01*
Y43761760D01*
X51040120D01*
Y43866640D01*
X51199880D01*
Y43761760D01*
X52015700D01*
G75*
G03*
X52075770Y44021760I-6297410J1591880D01*
G01*
X47726350D01*
G37*
X39336470Y44161760D02*
G36*
X39336470Y44161760D02*
G75*
G03*
X39364190Y44021760I6384860J1191460D01*
G01*
X39947620D01*
Y44126640D01*
X40107380D01*
Y44021760D01*
X40247620D01*
Y44126640D01*
X40407380D01*
Y44021760D01*
X43713650D01*
Y44161760D01*
X39336470D01*
G37*
X47726350D02*
G36*
X47726350Y44161760D02*
Y44021760D01*
X52075770D01*
G75*
G03*
X52103490Y44161760I-6357140J1331460D01*
G01*
X51194880D01*
Y44056880D01*
X51035120D01*
Y44161760D01*
X50894880D01*
Y44056880D01*
X50735120D01*
Y44161760D01*
X47726350D01*
G37*
X39291940Y44431760D02*
G36*
X39291940Y44431760D02*
G75*
G03*
X39336470Y44161760I6429710J921750D01*
G01*
X43713650D01*
Y44431760D01*
X40429880D01*
Y44326880D01*
X40270120D01*
Y44431760D01*
X40129880D01*
Y44326880D01*
X39970120D01*
Y44431760D01*
X39291940D01*
G37*
X47726350D02*
G36*
X47726350Y44431760D02*
Y44161760D01*
X50735120D01*
Y44266640D01*
X50894880D01*
Y44161760D01*
X51035120D01*
Y44266640D01*
X51194880D01*
Y44161760D01*
X52103490D01*
G75*
G03*
X52148020Y44431760I-6385180J1191750D01*
G01*
X47726350D01*
G37*
X39273850Y44568260D02*
G36*
X39273850Y44568260D02*
G75*
G03*
X39291940Y44431760I6451040J785490D01*
G01*
X39970120D01*
Y44536640D01*
X40129880D01*
Y44431760D01*
X40270120D01*
Y44536640D01*
X40429880D01*
Y44431760D01*
X43713650D01*
Y44568260D01*
X43192380D01*
Y44468380D01*
X42977620D01*
Y44568260D01*
X42762380D01*
Y44468380D01*
X42547620D01*
Y44568260D01*
X39273850D01*
G37*
X47726350D02*
G36*
X47726350Y44568260D02*
Y44431760D01*
X52148020D01*
G75*
G03*
X52166110Y44568260I-6432950J921990D01*
G01*
X47726350D01*
G37*
X39250550Y44791760D02*
G36*
X39250550Y44791760D02*
G75*
G03*
X39273850Y44568260I6471960J561740D01*
G01*
X42547620D01*
Y44668140D01*
X42762380D01*
Y44568260D01*
X42977620D01*
Y44668140D01*
X43192380D01*
Y44568260D01*
X43713650D01*
Y44791760D01*
X39250550D01*
G37*
X47726350D02*
G36*
X47726350Y44791760D02*
Y44568260D01*
X52166110D01*
G75*
G03*
X52189410Y44791760I-6448660J785240D01*
G01*
X51494380D01*
Y44684380D01*
X51294620D01*
Y44791760D01*
X50122380D01*
Y44631880D01*
X49777620D01*
Y44791760D01*
X47726350D01*
G37*
X39228100Y45197760D02*
G36*
X39228100Y45197760D02*
G75*
G03*
X39250550Y44791760I6492410J155380D01*
G01*
X43713650D01*
Y45197760D01*
X39228100D01*
G37*
X47723850D02*
G36*
X47723850Y45197760D02*
Y45156810D01*
G75*
G02*
X47726350Y45151760I-3850J-5050D01*
G01*
Y44791760D01*
X49777620D01*
Y44951640D01*
X50122380D01*
Y44791760D01*
X51294620D01*
Y44889140D01*
X51494380D01*
Y44791760D01*
X52189410D01*
G75*
G03*
X52211860Y45197760I-6469960J561380D01*
G01*
X51494380D01*
Y45124380D01*
X51294620D01*
Y45197760D01*
X48308580D01*
Y45166380D01*
X48171420D01*
Y45197760D01*
X48028880D01*
Y45160380D01*
X47904120D01*
Y45197760D01*
X47723850D01*
G37*
X39226280Y45331760D02*
G36*
X39226280Y45331760D02*
G75*
G03*
X39228100Y45197760I6496140J21220D01*
G01*
X43713650D01*
Y45331760D01*
X39726880D01*
Y45294380D01*
X39602120D01*
Y45331760D01*
X39226280D01*
G37*
X47723850D02*
G36*
X47723850Y45331760D02*
Y45197760D01*
X47904120D01*
Y45235140D01*
X48028880D01*
Y45197760D01*
X48171420D01*
Y45271140D01*
X48308580D01*
Y45197760D01*
X51294620D01*
Y45329140D01*
X51494380D01*
Y45197760D01*
X52211860D01*
G75*
G03*
X52213680Y45331760I-6494320J155220D01*
G01*
X50806380D01*
Y45216880D01*
X50661620D01*
Y45331760D01*
X47723850D01*
G37*
X39226240Y45353160D02*
G36*
X39226240Y45353160D02*
Y45353140D01*
G75*
G03*
X39226280Y45331760I6515890J1500D01*
G01*
X39602120D01*
Y45369140D01*
X39726880D01*
Y45331760D01*
X43713650D01*
Y45387760D01*
X39226330D01*
G75*
G03*
X39226240Y45353160I6499720J-34210D01*
G01*
G37*
X47723850Y45387760D02*
G36*
X47723850Y45387760D02*
Y45331760D01*
X50661620D01*
Y45387760D01*
X48309580D01*
Y45366380D01*
X48172420D01*
Y45387760D01*
X48028880D01*
Y45350380D01*
X47904120D01*
Y45387760D01*
X47723850D01*
G37*
X50806380D02*
G36*
X50806380Y45387760D02*
Y45331760D01*
X52213680D01*
G75*
G03*
X52213720Y45353140I-6515850J22880D01*
G01*
G75*
G03*
X52213630Y45387760I-6503570J400D01*
G01*
X50806380D01*
G37*
X39228430Y45521760D02*
G36*
X39228430Y45521760D02*
G75*
G03*
X39226330Y45387760I6494180J-168790D01*
G01*
X43713650D01*
Y45516760D01*
G75*
G02*
X43713660Y45521760I1813160J-1130D01*
G01*
X39726880D01*
Y45484380D01*
X39602120D01*
Y45521760D01*
X39228430D01*
G37*
X47723850Y45516760D02*
G36*
X47723850Y45516760D02*
Y45387760D01*
X47904120D01*
Y45425140D01*
X48028880D01*
Y45387760D01*
X48172420D01*
Y45471140D01*
X48309580D01*
Y45387760D01*
X50661620D01*
Y45516640D01*
X50806380D01*
Y45387760D01*
X52213630D01*
G75*
G03*
X52211530Y45521760I-6496280J-34790D01*
G01*
X47723840D01*
G75*
G02*
X47723850Y45516760I-1813150J-6130D01*
G01*
G37*
X39239720Y45771260D02*
G36*
X39239720Y45771260D02*
G75*
G03*
X39228430Y45521760I6482570J-418340D01*
G01*
X39602120D01*
Y45559140D01*
X39726880D01*
Y45521760D01*
X43713660D01*
G75*
G02*
X43731670Y45771260I1806540J-5000D01*
G01*
X39916880D01*
Y45705680D01*
X39812120D01*
Y45771260D01*
X39716880D01*
Y45706680D01*
X39612120D01*
Y45771260D01*
X39239720D01*
G37*
X47705830D02*
G36*
X47705830Y45771260D02*
G75*
G02*
X47723840Y45521760I-1788530J-254500D01*
G01*
X52211530D01*
G75*
G03*
X52200240Y45771260I-6493860J-168840D01*
G01*
X50806380D01*
Y45716880D01*
X50661620D01*
Y45771260D01*
X49745380D01*
Y45655380D01*
X49597620D01*
Y45771260D01*
X48410000D01*
Y45704220D01*
X48283000D01*
Y45771260D01*
X48200000D01*
Y45705220D01*
X48073000D01*
Y45771260D01*
X47705830D01*
G37*
X39242420Y45811260D02*
G36*
X39242420Y45811260D02*
G75*
G03*
X39239720Y45771260I6491070J-458240D01*
G01*
X39612120D01*
Y45811260D01*
X39242420D01*
G37*
X39716880D02*
G36*
X39716880Y45811260D02*
Y45771260D01*
X39812120D01*
Y45811260D01*
X39716880D01*
G37*
X39916880D02*
G36*
X39916880Y45811260D02*
Y45771260D01*
X43731670D01*
G75*
G02*
X43737820Y45811260I1789310J-254630D01*
G01*
X39916880D01*
G37*
X47699680D02*
G36*
X47699680Y45811260D02*
G75*
G02*
X47705830Y45771260I-1783160J-294630D01*
G01*
X48073000D01*
Y45811260D01*
X47699680D01*
G37*
X48200000D02*
G36*
X48200000Y45811260D02*
Y45771260D01*
X48283000D01*
Y45811260D01*
X48200000D01*
G37*
X48410000D02*
G36*
X48410000Y45811260D02*
Y45771260D01*
X49597620D01*
Y45793140D01*
X49745380D01*
Y45771260D01*
X50661620D01*
Y45811260D01*
X48682380D01*
Y45771380D01*
X48522620D01*
Y45811260D01*
X48410000D01*
G37*
X50806380D02*
G36*
X50806380Y45811260D02*
Y45771260D01*
X52200240D01*
G75*
G03*
X52197540Y45811260I-6493770J-418240D01*
G01*
X50806380D01*
G37*
X39259780Y46012260D02*
G36*
X39259780Y46012260D02*
G75*
G03*
X39242420Y45811260I6460720J-659250D01*
G01*
X39612120D01*
Y45843840D01*
X39716880D01*
Y45811260D01*
X39812120D01*
Y45842840D01*
X39916880D01*
Y45811260D01*
X43737820D01*
G75*
G02*
X43782940Y46012260I1782380J-294540D01*
G01*
X39259780D01*
G37*
X47654560D02*
G36*
X47654560Y46012260D02*
G75*
G02*
X47699680Y45811260I-1737260J-495540D01*
G01*
X48073000D01*
Y45837300D01*
X48200000D01*
Y45811260D01*
X48283000D01*
Y45836300D01*
X48410000D01*
Y45811260D01*
X48522620D01*
Y45851140D01*
X48682380D01*
Y45811260D01*
X50661620D01*
Y46012260D01*
X49312380D01*
Y45888880D01*
X49152620D01*
Y46012260D01*
X48682380D01*
Y46001380D01*
X48522620D01*
Y46012260D01*
X48410000D01*
Y45945220D01*
X48283000D01*
Y46012260D01*
X48200000D01*
Y45946220D01*
X48073000D01*
Y46012260D01*
X47654560D01*
G37*
X50806380D02*
G36*
X50806380Y46012260D02*
Y45811260D01*
X52197540D01*
G75*
G03*
X52180180Y46012260I-6478080J-458250D01*
G01*
X50806380D01*
G37*
X39269830Y46104260D02*
G36*
X39269830Y46104260D02*
G75*
G03*
X39259780Y46012260I6454680J-751650D01*
G01*
X43782940D01*
G75*
G02*
X43811860Y46104260I1737230J-495550D01*
G01*
X39269830D01*
G37*
X47625640D02*
G36*
X47625640Y46104260D02*
G75*
G02*
X47654560Y46012260I-1708310J-587550D01*
G01*
X48073000D01*
Y46078300D01*
X48200000D01*
Y46012260D01*
X48283000D01*
Y46077300D01*
X48410000D01*
Y46012260D01*
X48522620D01*
Y46081140D01*
X48682380D01*
Y46012260D01*
X49152620D01*
Y46104260D01*
X47625640D01*
G37*
X49312380D02*
G36*
X49312380Y46104260D02*
Y46012260D01*
X50661620D01*
Y46016640D01*
X50806380D01*
Y46012260D01*
X52180180D01*
G75*
G03*
X52170130Y46104260I-6464730J-659650D01*
G01*
X49745380D01*
Y46035380D01*
X49597620D01*
Y46104260D01*
X49312380D01*
G37*
X39286990Y46239260D02*
G36*
X39286990Y46239260D02*
G75*
G03*
X39269830Y46104260I6436960J-886800D01*
G01*
X43811860D01*
G75*
G02*
X43864440Y46239260I1708360J-587630D01*
G01*
X39286990D01*
G37*
X47573060D02*
G36*
X47573060Y46239260D02*
G75*
G02*
X47625640Y46104260I-1655780J-722630D01*
G01*
X49152620D01*
Y46193640D01*
X49312380D01*
Y46104260D01*
X49597620D01*
Y46173140D01*
X49745380D01*
Y46104260D01*
X52170130D01*
G75*
G03*
X52152970Y46239260I-6454120J-751800D01*
G01*
X48682380D01*
Y46231380D01*
X48522620D01*
Y46239260D01*
X48407500D01*
Y46174000D01*
X48280500D01*
Y46239260D01*
X48199500D01*
Y46173220D01*
X48072500D01*
Y46239260D01*
X47573060D01*
G37*
X39312700Y46409260D02*
G36*
X39312700Y46409260D02*
G75*
G03*
X39286990Y46239260I6407520J-1055990D01*
G01*
X43864440D01*
G75*
G02*
X43949540Y46409260I1655830J-722590D01*
G01*
X39312700D01*
G37*
X47487960D02*
G36*
X47487960Y46409260D02*
G75*
G02*
X47573060Y46239260I-1570730J-892590D01*
G01*
X48072500D01*
Y46305300D01*
X48199500D01*
Y46239260D01*
X48280500D01*
Y46306080D01*
X48407500D01*
Y46239260D01*
X48522620D01*
Y46311140D01*
X48682380D01*
Y46239260D01*
X52152970D01*
G75*
G03*
X52127260Y46409260I-6433230J-885990D01*
G01*
X50969730D01*
Y46386080D01*
X50845270D01*
Y46409260D01*
X49727230D01*
Y46366080D01*
X49602770D01*
Y46409260D01*
X47487960D01*
G37*
X39324810Y46480260D02*
G36*
X39324810Y46480260D02*
G75*
G03*
X39312700Y46409260I6400180J-1128170D01*
G01*
X43949540D01*
G75*
G02*
X43992070Y46480260I1570710J-892640D01*
G01*
X41851580D01*
X41821840Y46450520D01*
X41792100Y46480260D01*
X39324810D01*
G37*
X47445430D02*
G36*
X47445430Y46480260D02*
G75*
G02*
X47487960Y46409260I-1528180J-963640D01*
G01*
X49602770D01*
Y46452440D01*
X49727230D01*
Y46409260D01*
X50845270D01*
Y46472440D01*
X50969730D01*
Y46409260D01*
X52127260D01*
G75*
G03*
X52115150Y46480260I-6412290J-1057170D01*
G01*
X48407500D01*
Y46415000D01*
X48280500D01*
Y46480260D01*
X48199500D01*
Y46414220D01*
X48072500D01*
Y46480260D01*
X47445430D01*
G37*
X39343820Y46583260D02*
G36*
X39343820Y46583260D02*
G75*
G03*
X39324810Y46480260I6377220J-1230250D01*
G01*
X41792100D01*
X41747770Y46524590D01*
X41806440Y46583260D01*
X39343820D01*
G37*
X41918830Y46547510D02*
G36*
X41918830Y46547510D02*
X41851580Y46480260D01*
X43992070D01*
G75*
G02*
X44062100Y46583260I1528090J-963640D01*
G01*
X41883080D01*
X41918830Y46547510D01*
G37*
X47375400Y46583260D02*
G36*
X47375400Y46583260D02*
G75*
G02*
X47445430Y46480260I-1458060J-1066640D01*
G01*
X48072500D01*
Y46546300D01*
X48199500D01*
Y46480260D01*
X48280500D01*
Y46547080D01*
X48407500D01*
Y46480260D01*
X52115150D01*
G75*
G03*
X52096140Y46583260I-6396230J-1127250D01*
G01*
X50969730D01*
Y46582080D01*
X50845270D01*
Y46583260D01*
X50379380D01*
Y46489380D01*
X50264620D01*
Y46583260D01*
X49727230D01*
Y46562080D01*
X49602770D01*
Y46583260D01*
X47938380D01*
Y46545880D01*
X47813620D01*
Y46583260D01*
X47375400D01*
G37*
X39366560Y46695760D02*
G36*
X39366560Y46695760D02*
G75*
G03*
X39343820Y46583260I6357810J-1343670D01*
G01*
X41806440D01*
X41844760Y46621580D01*
X41883080Y46583260D01*
X44062100D01*
G75*
G02*
X44151480Y46695760I1458110J-1066700D01*
G01*
X42060910D01*
X41971960Y46606810D01*
X41897890Y46680880D01*
X41912770Y46695760D01*
X41771990D01*
X41778110Y46689640D01*
X41681120Y46592650D01*
X41607050Y46666720D01*
X41636090Y46695760D01*
X39366560D01*
G37*
X47286020D02*
G36*
X47286020Y46695760D02*
G75*
G02*
X47375400Y46583260I-1368730J-1179200D01*
G01*
X47813620D01*
Y46620640D01*
X47938380D01*
Y46583260D01*
X49602770D01*
Y46648440D01*
X49727230D01*
Y46583260D01*
X50264620D01*
Y46654140D01*
X50379380D01*
Y46583260D01*
X50845270D01*
Y46668440D01*
X50969730D01*
Y46583260D01*
X52096140D01*
G75*
G03*
X52073400Y46695760I-6380550J-1231170D01*
G01*
X51635580D01*
Y46643380D01*
X51498420D01*
Y46695760D01*
X47286020D01*
G37*
X39383430Y46773260D02*
G36*
X39383430Y46773260D02*
G75*
G03*
X39366560Y46695760I6344020J-1421540D01*
G01*
X41636090D01*
X41704040Y46763710D01*
X41771990Y46695760D01*
X41912770D01*
X41990270Y46773260D01*
X41855560D01*
X41831240Y46748940D01*
X41806920Y46773260D01*
X39383430D01*
G37*
X42068950Y46703800D02*
G36*
X42068950Y46703800D02*
X42060910Y46695760D01*
X44151480D01*
G75*
G02*
X44222270Y46773260I1368880J-1179280D01*
G01*
X42140910D01*
X42122460Y46754810D01*
X42104010Y46773260D01*
X41999490D01*
X42068950Y46703800D01*
G37*
X47215230Y46773260D02*
G36*
X47215230Y46773260D02*
G75*
G02*
X47286020Y46695760I-1298090J-1256780D01*
G01*
X51498420D01*
Y46748140D01*
X51635580D01*
Y46695760D01*
X52073400D01*
G75*
G03*
X52056530Y46773260I-6360890J-1344040D01*
G01*
X50379380D01*
Y46749380D01*
X50264620D01*
Y46773260D01*
X47938380D01*
Y46735880D01*
X47813620D01*
Y46773260D01*
X47215230D01*
G37*
X39412140Y46895760D02*
G36*
X39412140Y46895760D02*
G75*
G03*
X39383430Y46773260I6308630J-1543150D01*
G01*
X41806920D01*
X41757170Y46823010D01*
X41829920Y46895760D01*
X41570550D01*
X41518000Y46843210D01*
X41496960Y46864250D01*
X41528470Y46895760D01*
X41478620D01*
X41472040Y46889180D01*
X41465460Y46895760D01*
X39412140D01*
G37*
X41928230Y46845930D02*
G36*
X41928230Y46845930D02*
X41855560Y46773260D01*
X41990270D01*
X41994880Y46777870D01*
X41999490Y46773260D01*
X42104010D01*
X42048390Y46828880D01*
X42115270Y46895760D01*
X41878400D01*
X41928230Y46845930D01*
G37*
X42219450Y46851800D02*
G36*
X42219450Y46851800D02*
X42140910Y46773260D01*
X44222270D01*
G75*
G02*
X44353270Y46895760I1297790J-1256550D01*
G01*
X42175490D01*
X42219450Y46851800D01*
G37*
X47084230Y46895760D02*
G36*
X47084230Y46895760D02*
G75*
G02*
X47215230Y46773260I-1166790J-1379050D01*
G01*
X47813620D01*
Y46810640D01*
X47938380D01*
Y46773260D01*
X50264620D01*
Y46895760D01*
X47084230D01*
G37*
X50379380D02*
G36*
X50379380Y46895760D02*
Y46773260D01*
X52056530D01*
G75*
G03*
X52027820Y46895760I-6337340J-1420650D01*
G01*
X51636580D01*
Y46843380D01*
X51499420D01*
Y46895760D01*
X50379380D01*
G37*
X39425210Y46948260D02*
G36*
X39425210Y46948260D02*
G75*
G03*
X39412140Y46895760I6299570J-1596170D01*
G01*
X41465460D01*
X41451000Y46910220D01*
X41489040Y46948260D01*
X41439200D01*
X41426080Y46935140D01*
X41412960Y46948260D01*
X39425210D01*
G37*
X41478620Y46895760D02*
G36*
X41478620Y46895760D02*
X41528470D01*
X41580970Y46948260D01*
X41531120D01*
X41478620Y46895760D01*
G37*
X41623050Y46948260D02*
G36*
X41623050Y46948260D02*
X41570550Y46895760D01*
X41829920D01*
X41854160Y46920000D01*
X41878400Y46895760D01*
X42115270D01*
X42145380Y46925870D01*
X42175490Y46895760D01*
X44353270D01*
G75*
G02*
X44418320Y46948260I1167000J-1379420D01*
G01*
X42033060D01*
X41981740Y46896940D01*
X41930420Y46948260D01*
X41623050D01*
G37*
X47019180D02*
G36*
X47019180Y46948260D02*
G75*
G02*
X47084230Y46895760I-1101950J-1431920D01*
G01*
X50264620D01*
Y46914140D01*
X50379380D01*
Y46895760D01*
X51499420D01*
Y46948140D01*
X51636580D01*
Y46895760D01*
X52027820D01*
G75*
G03*
X52014750Y46948260I-6312640J-1543670D01*
G01*
X47945580D01*
Y46895880D01*
X47808420D01*
Y46948260D01*
X47019180D01*
G37*
X39451830Y47049870D02*
G36*
X39451830Y47049870D02*
G75*
G03*
X39425210Y46948260I6273620J-1697870D01*
G01*
X41412960D01*
X41405040Y46956180D01*
X41498730Y47049870D01*
X41448880D01*
X41380110Y46981100D01*
X41359070Y47002140D01*
X41406800Y47049870D01*
X41356960D01*
X41334150Y47027060D01*
X41313110Y47048100D01*
X41314880Y47049870D01*
X39451830D01*
G37*
X41439200Y46948260D02*
G36*
X41439200Y46948260D02*
X41489040D01*
X41567500Y47026720D01*
X41588540Y47005680D01*
X41531120Y46948260D01*
X41580970D01*
X41613460Y46980750D01*
X41634500Y46959710D01*
X41623050Y46948260D01*
X41930420D01*
X41907670Y46971010D01*
X41986530Y47049870D01*
X41540810D01*
X41439200Y46948260D01*
G37*
X42078730Y46993930D02*
G36*
X42078730Y46993930D02*
X42033060Y46948260D01*
X44418320D01*
G75*
G02*
X44564770Y47049870I1101710J-1431540D01*
G01*
X42022790D01*
X42078730Y46993930D01*
G37*
X46872730Y47049870D02*
G36*
X46872730Y47049870D02*
G75*
G02*
X47019180Y46948260I-955260J-1533150D01*
G01*
X47808420D01*
Y47000640D01*
X47945580D01*
Y46948260D01*
X52014750D01*
G75*
G03*
X51988130Y47049870I-6300240J-1596260D01*
G01*
X46872730D01*
G37*
X39479300Y47148260D02*
G36*
X39479300Y47148260D02*
G75*
G03*
X39451830Y47049870I6242890J-1796010D01*
G01*
X41314880D01*
X41413270Y47148260D01*
X41363430D01*
X41288190Y47073020D01*
X41267150Y47094060D01*
X41321350Y47148260D01*
X41271500D01*
X41242230Y47118990D01*
X41221190Y47140030D01*
X41229420Y47148260D01*
X39479300D01*
G37*
X41356960Y47049870D02*
G36*
X41356960Y47049870D02*
X41406800D01*
X41475570Y47118640D01*
X41496610Y47097600D01*
X41448880Y47049870D01*
X41498730D01*
X41521540Y47072680D01*
X41542580Y47051640D01*
X41540810Y47049870D01*
X41986530D01*
X42004660Y47068000D01*
X42022790Y47049870D01*
X44564770D01*
G75*
G02*
X44744690Y47148260I955240J-1533100D01*
G01*
X41445950D01*
X41450650Y47143560D01*
X41356960Y47049870D01*
G37*
X46692810Y47148260D02*
G36*
X46692810Y47148260D02*
G75*
G02*
X46872730Y47049870I-775320J-1631490D01*
G01*
X51988130D01*
G75*
G03*
X51960660Y47148260I-6270360J-1697620D01*
G01*
X51626000D01*
Y47059720D01*
X51499000D01*
Y47148260D01*
X47946580D01*
Y47095880D01*
X47809420D01*
Y47148260D01*
X46692810D01*
G37*
X39518610Y47279680D02*
G36*
X39518610Y47279680D02*
G75*
G03*
X39479300Y47148260I6203100J-1927040D01*
G01*
X41229420D01*
X41337690Y47256530D01*
X41358730Y47235490D01*
X41271500Y47148260D01*
X41321350D01*
X41383650Y47210560D01*
X41404690Y47189520D01*
X41363430Y47148260D01*
X41413270D01*
X41429610Y47164600D01*
X41445950Y47148260D01*
X44744690D01*
G75*
G02*
X45126290Y47279680I775330J-1631570D01*
G01*
X41311000D01*
X41196270Y47164950D01*
X41175230Y47185990D01*
X41268920Y47279680D01*
X41219070D01*
X41150300Y47210910D01*
X41129260Y47231950D01*
X41176990Y47279680D01*
X41127150D01*
X41104340Y47256870D01*
X41083300Y47277910D01*
X41085070Y47279680D01*
X40766770D01*
X40702600Y47215510D01*
X40638430Y47279680D01*
X39518610D01*
G37*
X46311210D02*
G36*
X46311210Y47279680D02*
G75*
G02*
X46692810Y47148260I-393730J-1762990D01*
G01*
X47809420D01*
Y47200640D01*
X47946580D01*
Y47148260D01*
X51499000D01*
Y47191800D01*
X51626000D01*
Y47148260D01*
X51960660D01*
G75*
G03*
X51921350Y47279680I-6242410J-1795620D01*
G01*
X46311210D01*
G37*
X39546340Y47366760D02*
G36*
X39546340Y47366760D02*
G75*
G03*
X39518610Y47279680I6176250J-2014740D01*
G01*
X40638430D01*
X40586090Y47332020D01*
X40620830Y47366760D01*
X39546340D01*
G37*
X40783750Y47296660D02*
G36*
X40783750Y47296660D02*
X40766770Y47279680D01*
X41085070D01*
X41172150Y47366760D01*
X41122310D01*
X41058380Y47302830D01*
X41037340Y47323870D01*
X41080230Y47366760D01*
X41030380D01*
X41012420Y47348800D01*
X40994460Y47366760D01*
X40713650D01*
X40783750Y47296660D01*
G37*
X41127150Y47279680D02*
G36*
X41127150Y47279680D02*
X41176990D01*
X41245760Y47348450D01*
X41266800Y47327410D01*
X41219070Y47279680D01*
X41268920D01*
X41291730Y47302490D01*
X41312770Y47281450D01*
X41311000Y47279680D01*
X45126290D01*
G75*
G02*
X45520000Y47323110I393720J-1762950D01*
G01*
X45917500D01*
G75*
G02*
X46311210Y47279680I-10J-1806380D01*
G01*
X51921350D01*
G75*
G03*
X51893620Y47366760I-6203980J-1927660D01*
G01*
X51626000D01*
Y47300720D01*
X51499000D01*
Y47366760D01*
X42041550D01*
X42020050Y47345260D01*
X41999010Y47366300D01*
X41999470Y47366760D01*
X41214230D01*
X41127150Y47279680D01*
G37*
X39590760Y47498180D02*
G36*
X39590760Y47498180D02*
G75*
G03*
X39546340Y47366760I6129360J-2144940D01*
G01*
X40620830D01*
X40667240Y47413170D01*
X40713650Y47366760D01*
X40994460D01*
X40991380Y47369840D01*
X41107880Y47486340D01*
X41128920Y47465300D01*
X41030380Y47366760D01*
X41080230D01*
X41153840Y47440370D01*
X41174880Y47419330D01*
X41122310Y47366760D01*
X41172150D01*
X41199800Y47394410D01*
X41220840Y47373370D01*
X41214230Y47366760D01*
X41999470D01*
X42115510Y47482800D01*
X42136550Y47461760D01*
X42041550Y47366760D01*
X51499000D01*
Y47432800D01*
X51626000D01*
Y47366760D01*
X51893620D01*
G75*
G03*
X51849200Y47498180I-6173780J-2013520D01*
G01*
X42081040D01*
X41974080Y47391220D01*
X41953040Y47412260D01*
X42038960Y47498180D01*
X41989120D01*
X41928120Y47437180D01*
X41907080Y47458220D01*
X41947040Y47498180D01*
X41897190D01*
X41882160Y47483150D01*
X41867130Y47498180D01*
X41069880D01*
X40966460Y47394760D01*
X40945420Y47415800D01*
X41027800Y47498180D01*
X40977950D01*
X40920490Y47440720D01*
X40899450Y47461760D01*
X40935870Y47498180D01*
X40582230D01*
X40599910Y47480500D01*
X40518760Y47399350D01*
X40419930Y47498180D01*
X39590760D01*
G37*
X39643700Y47643840D02*
G36*
X39643700Y47643840D02*
G75*
G03*
X39590760Y47498180I6078360J-2291630D01*
G01*
X40419930D01*
X40402250Y47515860D01*
X40483400Y47597010D01*
X40582230Y47498180D01*
X40935870D01*
X41015950Y47578260D01*
X41036990Y47557220D01*
X40977950Y47498180D01*
X41027800D01*
X41061920Y47532300D01*
X41082960Y47511260D01*
X41069880Y47498180D01*
X41867130D01*
X41861120Y47504190D01*
X41977620Y47620690D01*
X41998660Y47599650D01*
X41897190Y47498180D01*
X41947040D01*
X42023580Y47574720D01*
X42044620Y47553680D01*
X41989120Y47498180D01*
X42038960D01*
X42069540Y47528760D01*
X42090580Y47507720D01*
X42081040Y47498180D01*
X51849200D01*
G75*
G03*
X51796260Y47643840I-6131300J-2145970D01*
G01*
X41950930D01*
X41836200Y47529110D01*
X41815160Y47550150D01*
X41908850Y47643840D01*
X41859010D01*
X41790240Y47575070D01*
X41769200Y47596110D01*
X41816930Y47643840D01*
X41767080D01*
X41744270Y47621030D01*
X41723230Y47642070D01*
X41725000Y47643840D01*
X39643700D01*
G37*
X39687760Y47757490D02*
G36*
X39687760Y47757490D02*
G75*
G03*
X39643700Y47643840I6035160J-2405080D01*
G01*
X41725000D01*
X41838650Y47757490D01*
X41788810D01*
X41698310Y47666990D01*
X41677270Y47688030D01*
X41746730Y47757490D01*
X41696880D01*
X41652350Y47712960D01*
X41631310Y47734000D01*
X41654800Y47757490D01*
X40758650D01*
X40779860Y47736280D01*
X40705780Y47662200D01*
X40610490Y47757490D01*
X39687760D01*
G37*
X41767080Y47643840D02*
G36*
X41767080Y47643840D02*
X41816930D01*
X41885700Y47712610D01*
X41906740Y47691570D01*
X41859010Y47643840D01*
X41908850D01*
X41931660Y47666650D01*
X41952700Y47645610D01*
X41950930Y47643840D01*
X51796260D01*
G75*
G03*
X51752200Y47757490I-6079220J-2291430D01*
G01*
X42298250D01*
X42265210Y47724450D01*
X42232170Y47757490D01*
X41840810D01*
X41860770Y47737530D01*
X41767080Y47643840D01*
G37*
X39735370Y47873650D02*
G36*
X39735370Y47873650D02*
G75*
G03*
X39687760Y47757490I5988180J-2522190D01*
G01*
X40610490D01*
X40589280Y47778700D01*
X40663360Y47852780D01*
X40758650Y47757490D01*
X41654800D01*
X41747810Y47850500D01*
X41768850Y47829460D01*
X41696880Y47757490D01*
X41746730D01*
X41793770Y47804530D01*
X41814810Y47783490D01*
X41788810Y47757490D01*
X41838650D01*
X41839730Y47758570D01*
X41840810Y47757490D01*
X42232170D01*
X42171810Y47817850D01*
X42227610Y47873650D01*
X41721120D01*
X41606390Y47758920D01*
X41585350Y47779960D01*
X41679040Y47873650D01*
X41629200D01*
X41560430Y47804880D01*
X41539390Y47825920D01*
X41587120Y47873650D01*
X41537270D01*
X41514460Y47850840D01*
X41493420Y47871880D01*
X41495190Y47873650D01*
X40917230D01*
X40875480Y47831900D01*
X40833730Y47873650D01*
X39735370D01*
G37*
X42355010Y47814250D02*
G36*
X42355010Y47814250D02*
X42298250Y47757490D01*
X51752200D01*
G75*
G03*
X51704590Y47873650I-6035790J-2406030D01*
G01*
X42295610D01*
X42355010Y47814250D01*
G37*
X39780290Y47977760D02*
G36*
X39780290Y47977760D02*
G75*
G03*
X39735370Y47873650I5942450J-2625720D01*
G01*
X40833730D01*
X40758980Y47948400D01*
X40788340Y47977760D01*
X40455660D01*
X40422940Y47945040D01*
X40390220Y47977760D01*
X39780290D01*
G37*
X40949560Y47905980D02*
G36*
X40949560Y47905980D02*
X40917230Y47873650D01*
X41495190D01*
X41599300Y47977760D01*
X41549460D01*
X41468500Y47896800D01*
X41447460Y47917840D01*
X41507380Y47977760D01*
X41457530D01*
X41422540Y47942770D01*
X41401500Y47963810D01*
X41415450Y47977760D01*
X41004580D01*
X40998340Y47971520D01*
X40992100Y47977760D01*
X40877780D01*
X40949560Y47905980D01*
G37*
X41537270Y47873650D02*
G36*
X41537270Y47873650D02*
X41587120D01*
X41655890Y47942420D01*
X41676930Y47921380D01*
X41629200Y47873650D01*
X41679040D01*
X41701850Y47896460D01*
X41722890Y47875420D01*
X41721120Y47873650D01*
X42227610D01*
X42261610Y47907650D01*
X42295610Y47873650D01*
X51704590D01*
G75*
G03*
X51659670Y47977760I-5987370J-2521610D01*
G01*
X51285380D01*
Y47908180D01*
X51180620D01*
Y47977760D01*
X51085380D01*
Y47909180D01*
X50980620D01*
Y47977760D01*
X42461910D01*
X42402960Y47918810D01*
X42344010Y47977760D01*
X42177690D01*
X42094800Y47894870D01*
X42011910Y47977760D01*
X41620540D01*
X41630960Y47967340D01*
X41537270Y47873650D01*
G37*
X39894070Y48221460D02*
G36*
X39894070Y48221460D02*
G75*
G03*
X39780290Y47977760I5826370J-2868660D01*
G01*
X40390220D01*
X40306440Y48061540D01*
X40380520Y48135620D01*
X40497020Y48019120D01*
X40455660Y47977760D01*
X40788340D01*
X40833060Y48022480D01*
X40877780Y47977760D01*
X40992100D01*
X40924270Y48045590D01*
X41021260Y48142580D01*
X41095330Y48068510D01*
X41004580Y47977760D01*
X41415450D01*
X41518000Y48080310D01*
X41539040Y48059270D01*
X41457530Y47977760D01*
X41507380D01*
X41563960Y48034340D01*
X41585000Y48013300D01*
X41549460Y47977760D01*
X41599300D01*
X41609920Y47988380D01*
X41620540Y47977760D01*
X42011910D01*
X42001400Y47988270D01*
X42091200Y48078070D01*
X42184600Y47984670D01*
X42177690Y47977760D01*
X42344010D01*
X42328890Y47992880D01*
X42425880Y48089870D01*
X42499950Y48015800D01*
X42461910Y47977760D01*
X50980620D01*
Y48046340D01*
X51085380D01*
Y47977760D01*
X51180620D01*
Y48045340D01*
X51285380D01*
Y47977760D01*
X51659670D01*
G75*
G03*
X51545890Y48221460I-5940150J-2624960D01*
G01*
X42611790D01*
X42659950Y48173300D01*
X42562960Y48076310D01*
X42488890Y48150380D01*
X42559970Y48221460D01*
X42425260D01*
X42422240Y48218440D01*
X42419220Y48221460D01*
X42295700D01*
X42359230Y48157930D01*
X42262240Y48060940D01*
X42188170Y48135010D01*
X42274620Y48221460D01*
X40943790D01*
X40954610Y48210640D01*
X40857620Y48113650D01*
X40783550Y48187720D01*
X40817290Y48221460D01*
X40634080D01*
X40666720Y48188820D01*
X40592640Y48114740D01*
X40485920Y48221460D01*
X40322360D01*
X40333820Y48210000D01*
X40259750Y48135930D01*
X40174220Y48221460D01*
X39894070D01*
G37*
X39965490Y48362180D02*
G36*
X39965490Y48362180D02*
G75*
G03*
X39894070Y48221460I5756150J-3009920D01*
G01*
X40174220D01*
X40162760Y48232920D01*
X40236830Y48306990D01*
X40322360Y48221460D01*
X40485920D01*
X40476140Y48231240D01*
X40550220Y48305320D01*
X40634080Y48221460D01*
X40817290D01*
X40880540Y48284710D01*
X40943790Y48221460D01*
X42274620D01*
X42285160Y48232000D01*
X42295700Y48221460D01*
X42419220D01*
X42348170Y48292510D01*
X42417840Y48362180D01*
X40464490D01*
X40475950Y48350720D01*
X40401880Y48276650D01*
X40316350Y48362180D01*
X39965490D01*
G37*
X42519230Y48315430D02*
G36*
X42519230Y48315430D02*
X42425260Y48221460D01*
X42559970D01*
X42585880Y48247370D01*
X42611790Y48221460D01*
X51545890D01*
G75*
G03*
X51474470Y48362180I-5827570J-2869200D01*
G01*
X42785570D01*
X42820950Y48326800D01*
X42723960Y48229810D01*
X42649890Y48303880D01*
X42708190Y48362180D01*
X42472480D01*
X42519230Y48315430D01*
G37*
X40042090Y48504340D02*
G36*
X40042090Y48504340D02*
G75*
G03*
X39965490Y48362180I5681330J-3152980D01*
G01*
X40316350D01*
X40304890Y48373640D01*
X40378960Y48447710D01*
X40464490Y48362180D01*
X42417840D01*
X42445160Y48389500D01*
X42472480Y48362180D01*
X42708190D01*
X42746880Y48400870D01*
X42785570Y48362180D01*
X51474470D01*
G75*
G03*
X51397870Y48504340I-5757930J-3010820D01*
G01*
X42958410D01*
X42978450Y48484300D01*
X42881460Y48387310D01*
X42807390Y48461380D01*
X42850350Y48504340D01*
X42644820D01*
X42680230Y48468930D01*
X42583240Y48371940D01*
X42509170Y48446010D01*
X42567500Y48504340D01*
X40807990D01*
X40722460Y48418810D01*
X40648390Y48492880D01*
X40659850Y48504340D01*
X40042090D01*
G37*
X40123330Y48646470D02*
G36*
X40123330Y48646470D02*
G75*
G03*
X40042090Y48504340I5598590J-3294380D01*
G01*
X40659850D01*
X40745380Y48589870D01*
X40819450Y48515800D01*
X40807990Y48504340D01*
X42567500D01*
X42606160Y48543000D01*
X42644820Y48504340D01*
X42850350D01*
X42904380Y48558370D01*
X42958410Y48504340D01*
X51397870D01*
G75*
G03*
X51316630Y48646470I-5679830J-3152250D01*
G01*
X45292010D01*
Y48588000D01*
X45159930D01*
Y48646470D01*
X45051010D01*
Y48588000D01*
X44918930D01*
Y48646470D01*
X43117290D01*
X43164010Y48599750D01*
X43074210Y48509950D01*
X42980810Y48603350D01*
X43023930Y48646470D01*
X42817690D01*
X42837730Y48626430D01*
X42740740Y48529440D01*
X42666670Y48603510D01*
X42709630Y48646470D01*
X40947620D01*
X40873960Y48572810D01*
X40800300Y48646470D01*
X40667270D01*
X40581740Y48560940D01*
X40507670Y48635010D01*
X40519130Y48646470D01*
X40123330D01*
G37*
X40216850Y48800470D02*
G36*
X40216850Y48800470D02*
G75*
G03*
X40123330Y48646470I5505780J-3448910D01*
G01*
X40519130D01*
X40604660Y48732000D01*
X40678730Y48657930D01*
X40667270Y48646470D01*
X40800300D01*
X40799890Y48646880D01*
X40896880Y48743870D01*
X40970950Y48669800D01*
X40947620Y48646470D01*
X42709630D01*
X42763660Y48700500D01*
X42817690Y48646470D01*
X43023930D01*
X43070610Y48693150D01*
X43117290Y48646470D01*
X44918930D01*
Y48715000D01*
X45051010D01*
Y48646470D01*
X45159930D01*
Y48715000D01*
X45292010D01*
Y48646470D01*
X51316630D01*
G75*
G03*
X51223110Y48800470I-5599300J-3294910D01*
G01*
X47339380D01*
Y48799180D01*
X47234620D01*
Y48800470D01*
X47139380D01*
Y48800180D01*
X47034620D01*
Y48800470D01*
X43284880D01*
X43224830Y48740420D01*
X43164780Y48800470D01*
X42963300D01*
X42993600Y48770170D01*
X42903800Y48680370D01*
X42810400Y48773770D01*
X42837100Y48800470D01*
X40818770D01*
X40733240Y48714940D01*
X40659170Y48789010D01*
X40670630Y48800470D01*
X40216850D01*
G37*
X40276530Y48893960D02*
G36*
X40276530Y48893960D02*
G75*
G03*
X40216850Y48800470I5447110J-3542990D01*
G01*
X40670630D01*
X40756160Y48886000D01*
X40830230Y48811930D01*
X40818770Y48800470D01*
X42837100D01*
X42900200Y48863570D01*
X42963300Y48800470D01*
X43164780D01*
X43163760Y48801490D01*
X43251770Y48889500D01*
X43312840Y48828430D01*
X43284880Y48800470D01*
X47034620D01*
Y48893960D01*
X46195880D01*
Y48827830D01*
X46181120D01*
Y48893960D01*
X46145880D01*
Y48827830D01*
X46131120D01*
Y48893960D01*
X46095880D01*
Y48827830D01*
X46081120D01*
Y48893960D01*
X46045880D01*
Y48827830D01*
X46031120D01*
Y48893960D01*
X45995880D01*
Y48827830D01*
X45981120D01*
Y48893960D01*
X45945880D01*
Y48827830D01*
X45931120D01*
Y48893960D01*
X45895880D01*
Y48827830D01*
X45881120D01*
Y48893960D01*
X45845880D01*
Y48827830D01*
X45831120D01*
Y48893960D01*
X45795880D01*
Y48827830D01*
X45781120D01*
Y48893960D01*
X45745880D01*
Y48827830D01*
X45731120D01*
Y48893960D01*
X45695880D01*
Y48827830D01*
X45681120D01*
Y48893960D01*
X45645880D01*
Y48827830D01*
X45631120D01*
Y48893960D01*
X45595880D01*
Y48827830D01*
X45581120D01*
Y48893960D01*
X45545880D01*
Y48827830D01*
X45531120D01*
Y48893960D01*
X45495880D01*
Y48827830D01*
X45481120D01*
Y48893960D01*
X45445880D01*
Y48827830D01*
X45431120D01*
Y48893960D01*
X45292040D01*
Y48808760D01*
X45159960D01*
Y48893960D01*
X45051040D01*
Y48808760D01*
X44918960D01*
Y48893960D01*
X44396880D01*
Y48838180D01*
X44292120D01*
Y48893960D01*
X44196880D01*
Y48839180D01*
X44092120D01*
Y48893960D01*
X43101170D01*
X43086230Y48879020D01*
X43071290Y48893960D01*
X40276530D01*
G37*
X47139380D02*
G36*
X47139380Y48893960D02*
Y48800470D01*
X47234620D01*
Y48893960D01*
X47139380D01*
G37*
X47339380D02*
G36*
X47339380Y48893960D02*
Y48800470D01*
X51223110D01*
G75*
G03*
X51163430Y48893960I-5506790J-3449500D01*
G01*
X47339380D01*
G37*
X40411140Y49092760D02*
G36*
X40411140Y49092760D02*
G75*
G03*
X40276530Y48893960I5309990J-3740430D01*
G01*
X43071290D01*
X43025160Y48940090D01*
X43113170Y49028100D01*
X43174240Y48967030D01*
X43101170Y48893960D01*
X44092120D01*
Y48976340D01*
X44196880D01*
Y48893960D01*
X44292120D01*
Y48975340D01*
X44396880D01*
Y48893960D01*
X44918960D01*
Y48935760D01*
X45051040D01*
Y48893960D01*
X45159960D01*
Y48935760D01*
X45292040D01*
Y48893960D01*
X45431120D01*
Y48960090D01*
X45445880D01*
Y48893960D01*
X45481120D01*
Y48960090D01*
X45495880D01*
Y48893960D01*
X45531120D01*
Y48960090D01*
X45545880D01*
Y48893960D01*
X45581120D01*
Y48960090D01*
X45595880D01*
Y48893960D01*
X45631120D01*
Y48960090D01*
X45645880D01*
Y48893960D01*
X45681120D01*
Y48960090D01*
X45695880D01*
Y48893960D01*
X45731120D01*
Y48960090D01*
X45745880D01*
Y48893960D01*
X45781120D01*
Y48960090D01*
X45795880D01*
Y48893960D01*
X45831120D01*
Y48960090D01*
X45845880D01*
Y48893960D01*
X45881120D01*
Y48960090D01*
X45895880D01*
Y48893960D01*
X45931120D01*
Y48960090D01*
X45945880D01*
Y48893960D01*
X45981120D01*
Y48960090D01*
X45995880D01*
Y48893960D01*
X46031120D01*
Y48960090D01*
X46045880D01*
Y48893960D01*
X46081120D01*
Y48960090D01*
X46095880D01*
Y48893960D01*
X46131120D01*
Y48960090D01*
X46145880D01*
Y48893960D01*
X46181120D01*
Y48960090D01*
X46195880D01*
Y48893960D01*
X47034620D01*
Y48937340D01*
X47139380D01*
Y48893960D01*
X47234620D01*
Y48936340D01*
X47339380D01*
Y48893960D01*
X51163430D01*
G75*
G03*
X51028820Y49092760I-5444600J-3541630D01*
G01*
X47359380D01*
Y49039180D01*
X47254620D01*
Y49092760D01*
X47159380D01*
Y49040180D01*
X47054620D01*
Y49092760D01*
X46453430D01*
Y49085380D01*
X46321170D01*
Y49092760D01*
X45305830D01*
Y49085380D01*
X45173570D01*
Y49092760D01*
X44651540D01*
Y49068760D01*
X44519460D01*
Y49092760D01*
X44410540D01*
Y49068760D01*
X44278460D01*
Y49092760D01*
X40411140D01*
G37*
X40446720Y49142760D02*
G36*
X40446720Y49142760D02*
G75*
G03*
X40411140Y49092760I5277530J-3793150D01*
G01*
X44278460D01*
Y49142760D01*
X40446720D01*
G37*
X44410540D02*
G36*
X44410540Y49142760D02*
Y49092760D01*
X44519460D01*
Y49142760D01*
X44410540D01*
G37*
X44651540D02*
G36*
X44651540Y49142760D02*
Y49092760D01*
X45173570D01*
Y49100140D01*
X45305830D01*
Y49092760D01*
X46321170D01*
Y49100140D01*
X46453430D01*
Y49092760D01*
X47054620D01*
Y49142760D01*
X46453430D01*
Y49135380D01*
X46321170D01*
Y49142760D01*
X45305830D01*
Y49135380D01*
X45173570D01*
Y49142760D01*
X44651540D01*
G37*
X47159380D02*
G36*
X47159380Y49142760D02*
Y49092760D01*
X47254620D01*
Y49142760D01*
X47159380D01*
G37*
X47359380D02*
G36*
X47359380Y49142760D02*
Y49092760D01*
X51028820D01*
G75*
G03*
X50993240Y49142760I-5313110J-3743150D01*
G01*
X47359380D01*
G37*
X40483010Y49192760D02*
G36*
X40483010Y49192760D02*
G75*
G03*
X40446720Y49142760I5238310J-3840130D01*
G01*
X44278460D01*
Y49192760D01*
X40483010D01*
G37*
X44410540D02*
G36*
X44410540Y49192760D02*
Y49142760D01*
X44519460D01*
Y49192760D01*
X44410540D01*
G37*
X44651540D02*
G36*
X44651540Y49192760D02*
Y49142760D01*
X45173570D01*
Y49150140D01*
X45305830D01*
Y49142760D01*
X46321170D01*
Y49150140D01*
X46453430D01*
Y49142760D01*
X47054620D01*
Y49177340D01*
X47159380D01*
Y49142760D01*
X47254620D01*
Y49176340D01*
X47359380D01*
Y49142760D01*
X50993240D01*
G75*
G03*
X50956950Y49192760I-5274600J-3790130D01*
G01*
X46453430D01*
Y49185380D01*
X46321170D01*
Y49192760D01*
X45305830D01*
Y49185380D01*
X45173570D01*
Y49192760D01*
X44651540D01*
G37*
X40520040Y49242760D02*
G36*
X40520040Y49242760D02*
G75*
G03*
X40483010Y49192760I5209160J-3896620D01*
G01*
X44278460D01*
Y49195760D01*
X44410540D01*
Y49192760D01*
X44519460D01*
Y49195760D01*
X44651540D01*
Y49192760D01*
X45173570D01*
Y49200140D01*
X45305830D01*
Y49192760D01*
X46321170D01*
Y49200140D01*
X46453430D01*
Y49192760D01*
X50956950D01*
G75*
G03*
X50919920Y49242760I-5246190J-3846620D01*
G01*
X46453430D01*
Y49235380D01*
X46321170D01*
Y49242760D01*
X45305830D01*
Y49235380D01*
X45173570D01*
Y49242760D01*
X40520040D01*
G37*
X40557820Y49292760D02*
G36*
X40557820Y49292760D02*
G75*
G03*
X40520040Y49242760I5170900J-3946410D01*
G01*
X45173570D01*
Y49250140D01*
X45305830D01*
Y49242760D01*
X46321170D01*
Y49250140D01*
X46453430D01*
Y49242760D01*
X50919920D01*
G75*
G03*
X50882140Y49292760I-5208680J-3896410D01*
G01*
X47359380D01*
Y49264180D01*
X47254620D01*
Y49292760D01*
X47159380D01*
Y49265180D01*
X47054620D01*
Y49292760D01*
X46453430D01*
Y49285380D01*
X46321170D01*
Y49292760D01*
X45305830D01*
Y49285380D01*
X45173570D01*
Y49292760D01*
X44998380D01*
Y49285380D01*
X44833620D01*
Y49292760D01*
X44598380D01*
Y49285380D01*
X44433620D01*
Y49292760D01*
X40557820D01*
G37*
X40596360Y49342760D02*
G36*
X40596360Y49342760D02*
G75*
G03*
X40557820Y49292760I5123940J-3989380D01*
G01*
X44433620D01*
Y49342760D01*
X40596360D01*
G37*
X44598380D02*
G36*
X44598380Y49342760D02*
Y49292760D01*
X44833620D01*
Y49342760D01*
X44598380D01*
G37*
X44998380D02*
G36*
X44998380Y49342760D02*
Y49292760D01*
X45173570D01*
Y49300140D01*
X45305830D01*
Y49292760D01*
X46321170D01*
Y49300140D01*
X46453430D01*
Y49292760D01*
X47054620D01*
Y49342760D01*
X46453430D01*
Y49335380D01*
X46321170D01*
Y49342760D01*
X45305830D01*
Y49335380D01*
X45173570D01*
Y49342760D01*
X44998380D01*
G37*
X47159380D02*
G36*
X47159380Y49342760D02*
Y49292760D01*
X47254620D01*
Y49342760D01*
X47159380D01*
G37*
X47359380D02*
G36*
X47359380Y49342760D02*
Y49292760D01*
X50882140D01*
G75*
G03*
X50843600Y49342760I-5162480J-3939380D01*
G01*
X47359380D01*
G37*
X40635690Y49392760D02*
G36*
X40635690Y49392760D02*
G75*
G03*
X40596360Y49342760I5086870J-4041800D01*
G01*
X44433620D01*
Y49390140D01*
X44598380D01*
Y49342760D01*
X44833620D01*
Y49390140D01*
X44998380D01*
Y49342760D01*
X45173570D01*
Y49350140D01*
X45305830D01*
Y49342760D01*
X46321170D01*
Y49350140D01*
X46453430D01*
Y49342760D01*
X47054620D01*
Y49392760D01*
X46453430D01*
Y49385380D01*
X46321170D01*
Y49392760D01*
X45305830D01*
Y49385380D01*
X45173570D01*
Y49392760D01*
X40635690D01*
G37*
X47159380D02*
G36*
X47159380Y49392760D02*
Y49342760D01*
X47254620D01*
Y49392760D01*
X47159380D01*
G37*
X47359380D02*
G36*
X47359380Y49392760D02*
Y49342760D01*
X50843600D01*
G75*
G03*
X50804270Y49392760I-5126200J-3991800D01*
G01*
X47359380D01*
G37*
X40675820Y49442760D02*
G36*
X40675820Y49442760D02*
G75*
G03*
X40635690Y49392760I5050320J-4094490D01*
G01*
X45173570D01*
Y49400140D01*
X45305830D01*
Y49392760D01*
X46321170D01*
Y49400140D01*
X46453430D01*
Y49392760D01*
X47054620D01*
Y49402340D01*
X47159380D01*
Y49392760D01*
X47254620D01*
Y49401340D01*
X47359380D01*
Y49392760D01*
X50804270D01*
G75*
G03*
X50764140Y49442760I-5090450J-4044490D01*
G01*
X46453430D01*
Y49435380D01*
X46321170D01*
Y49442760D01*
X45305830D01*
Y49435380D01*
X45173570D01*
Y49442760D01*
X40675820D01*
G37*
X40716770Y49492760D02*
G36*
X40716770Y49492760D02*
G75*
G03*
X40675820Y49442760I5005430J-4141220D01*
G01*
X45173570D01*
Y49450140D01*
X45305830D01*
Y49442760D01*
X46321170D01*
Y49450140D01*
X46453430D01*
Y49442760D01*
X50764140D01*
G75*
G03*
X50723190Y49492760I-5046380J-4091220D01*
G01*
X46453430D01*
Y49485380D01*
X46321170D01*
Y49492760D01*
X45305830D01*
Y49485380D01*
X45173570D01*
Y49492760D01*
X40716770D01*
G37*
X40758570Y49542760D02*
G36*
X40758570Y49542760D02*
G75*
G03*
X40716770Y49492760I4969980J-4197380D01*
G01*
X45173570D01*
Y49500140D01*
X45305830D01*
Y49492760D01*
X46321170D01*
Y49500140D01*
X46453430D01*
Y49492760D01*
X50723190D01*
G75*
G03*
X50681390Y49542760I-5011780J-4147380D01*
G01*
X46453430D01*
Y49535380D01*
X46321170D01*
Y49542760D01*
X45305830D01*
Y49535380D01*
X45173570D01*
Y49542760D01*
X44998380D01*
Y49525380D01*
X44833620D01*
Y49542760D01*
X44598380D01*
Y49525380D01*
X44433620D01*
Y49542760D01*
X40758570D01*
G37*
X40801230Y49592760D02*
G36*
X40801230Y49592760D02*
G75*
G03*
X40758570Y49542760I4926450J-4246450D01*
G01*
X44433620D01*
Y49592760D01*
X40801230D01*
G37*
X44598380D02*
G36*
X44598380Y49592760D02*
Y49542760D01*
X44833620D01*
Y49592760D01*
X44598380D01*
G37*
X44998380D02*
G36*
X44998380Y49592760D02*
Y49542760D01*
X45173570D01*
Y49550140D01*
X45305830D01*
Y49542760D01*
X46321170D01*
Y49550140D01*
X46453430D01*
Y49542760D01*
X50681390D01*
G75*
G03*
X50638730Y49592760I-4969110J-4196450D01*
G01*
X46453430D01*
Y49585380D01*
X46321170D01*
Y49592760D01*
X45305830D01*
Y49585380D01*
X45173570D01*
Y49592760D01*
X44998380D01*
G37*
X40844770Y49642760D02*
G36*
X40844770Y49642760D02*
G75*
G03*
X40801230Y49592760I4875260J-4289340D01*
G01*
X44433620D01*
Y49630140D01*
X44598380D01*
Y49592760D01*
X44833620D01*
Y49630140D01*
X44998380D01*
Y49592760D01*
X45173570D01*
Y49600140D01*
X45305830D01*
Y49592760D01*
X46321170D01*
Y49600140D01*
X46453430D01*
Y49592760D01*
X50638730D01*
G75*
G03*
X50595190Y49642760I-4918800J-4239340D01*
G01*
X46453430D01*
Y49635380D01*
X46321170D01*
Y49642760D01*
X45305830D01*
Y49635380D01*
X45173570D01*
Y49642760D01*
X40844770D01*
G37*
X40889220Y49692760D02*
G36*
X40889220Y49692760D02*
G75*
G03*
X40844770Y49642760I4833310J-4341570D01*
G01*
X45173570D01*
Y49650140D01*
X45305830D01*
Y49642760D01*
X46321170D01*
Y49650140D01*
X46453430D01*
Y49642760D01*
X50595190D01*
G75*
G03*
X50550740Y49692760I-4877760J-4291570D01*
G01*
X46453430D01*
Y49685380D01*
X46321170D01*
Y49692760D01*
X45305830D01*
Y49685380D01*
X45173570D01*
Y49692760D01*
X40889220D01*
G37*
X40934610Y49742760D02*
G36*
X40934610Y49742760D02*
G75*
G03*
X40889220Y49692760I4792030J-4395810D01*
G01*
X45173570D01*
Y49700140D01*
X45305830D01*
Y49692760D01*
X46321170D01*
Y49700140D01*
X46453430D01*
Y49692760D01*
X50550740D01*
G75*
G03*
X50505350Y49742760I-4837420J-4345810D01*
G01*
X46453430D01*
Y49735380D01*
X46321170D01*
Y49742760D01*
X45305830D01*
Y49735380D01*
X45173570D01*
Y49742760D01*
X44898040D01*
Y49702260D01*
X44765960D01*
Y49742760D01*
X44657040D01*
Y49702260D01*
X44524960D01*
Y49742760D01*
X40934610D01*
G37*
X40980960Y49792760D02*
G36*
X40980960Y49792760D02*
G75*
G03*
X40934610Y49742760I4743490J-4443690D01*
G01*
X44524960D01*
Y49792760D01*
X40980960D01*
G37*
X44657040D02*
G36*
X44657040Y49792760D02*
Y49742760D01*
X44765960D01*
Y49792760D01*
X44657040D01*
G37*
X44898040D02*
G36*
X44898040Y49792760D02*
Y49742760D01*
X45173570D01*
Y49750140D01*
X45305830D01*
Y49742760D01*
X46321170D01*
Y49750140D01*
X46453430D01*
Y49742760D01*
X50505350D01*
G75*
G03*
X50459000Y49792760I-4789840J-4393690D01*
G01*
X46453430D01*
Y49785380D01*
X46321170D01*
Y49792760D01*
X45305830D01*
Y49785380D01*
X45173570D01*
Y49792760D01*
X44898040D01*
G37*
X41028300Y49842760D02*
G36*
X41028300Y49842760D02*
G75*
G03*
X40980960Y49792760I4695870J-4493460D01*
G01*
X44524960D01*
Y49829260D01*
X44657040D01*
Y49792760D01*
X44765960D01*
Y49829260D01*
X44898040D01*
Y49792760D01*
X45173570D01*
Y49800140D01*
X45305830D01*
Y49792760D01*
X46321170D01*
Y49800140D01*
X46453430D01*
Y49792760D01*
X50459000D01*
G75*
G03*
X50411660Y49842760I-4743210J-4443460D01*
G01*
X46453430D01*
Y49835380D01*
X46321170D01*
Y49842760D01*
X45305830D01*
Y49835380D01*
X45173570D01*
Y49842760D01*
X41028300D01*
G37*
X41179970Y49996070D02*
G36*
X41179970Y49996070D02*
G75*
G03*
X41028300Y49842760I4542050J-4645140D01*
G01*
X45173570D01*
Y49850140D01*
X45305830D01*
Y49842760D01*
X46321170D01*
Y49850140D01*
X46453430D01*
Y49842760D01*
X50411660D01*
G75*
G03*
X50259990Y49996070I-4693720J-4491830D01*
G01*
X46195880D01*
Y49975430D01*
X46181120D01*
Y49996070D01*
X46145880D01*
Y49975430D01*
X46131120D01*
Y49996070D01*
X46095880D01*
Y49975430D01*
X46081120D01*
Y49996070D01*
X46045880D01*
Y49975430D01*
X46031120D01*
Y49996070D01*
X45995880D01*
Y49975430D01*
X45981120D01*
Y49996070D01*
X45945880D01*
Y49975430D01*
X45931120D01*
Y49996070D01*
X45895880D01*
Y49975430D01*
X45881120D01*
Y49996070D01*
X45845880D01*
Y49975430D01*
X45831120D01*
Y49996070D01*
X45795880D01*
Y49975430D01*
X45781120D01*
Y49996070D01*
X45745880D01*
Y49975430D01*
X45731120D01*
Y49996070D01*
X45695880D01*
Y49975430D01*
X45681120D01*
Y49996070D01*
X45645880D01*
Y49975430D01*
X45631120D01*
Y49996070D01*
X45595880D01*
Y49975430D01*
X45581120D01*
Y49996070D01*
X45545880D01*
Y49975430D01*
X45531120D01*
Y49996070D01*
X45495880D01*
Y49975430D01*
X45481120D01*
Y49996070D01*
X45445880D01*
Y49975430D01*
X45431120D01*
Y49996070D01*
X43695180D01*
Y49954190D01*
X43680420D01*
Y49996070D01*
X43645180D01*
Y49954190D01*
X43630420D01*
Y49996070D01*
X43595180D01*
Y49954190D01*
X43580420D01*
Y49996070D01*
X41179970D01*
G37*
X41226960Y50041560D02*
G36*
X41226960Y50041560D02*
G75*
G03*
X41179970Y49996070I4493600J-4688790D01*
G01*
X43580420D01*
Y50037950D01*
X43595180D01*
Y49996070D01*
X43630420D01*
Y50037950D01*
X43645180D01*
Y49996070D01*
X43680420D01*
Y50037950D01*
X43695180D01*
Y49996070D01*
X45431120D01*
Y50041560D01*
X45159000D01*
Y49996720D01*
X45032000D01*
Y50041560D01*
X44909000D01*
Y50006720D01*
X44782000D01*
Y50041560D01*
X41226960D01*
G37*
X45445880D02*
G36*
X45445880Y50041560D02*
Y49996070D01*
X45481120D01*
Y50041560D01*
X45445880D01*
G37*
X45495880D02*
G36*
X45495880Y50041560D02*
Y49996070D01*
X45531120D01*
Y50041560D01*
X45495880D01*
G37*
X45545880D02*
G36*
X45545880Y50041560D02*
Y49996070D01*
X45581120D01*
Y50041560D01*
X45545880D01*
G37*
X45595880D02*
G36*
X45595880Y50041560D02*
Y49996070D01*
X45631120D01*
Y50041560D01*
X45595880D01*
G37*
X45645880D02*
G36*
X45645880Y50041560D02*
Y49996070D01*
X45681120D01*
Y50041560D01*
X45645880D01*
G37*
X45695880D02*
G36*
X45695880Y50041560D02*
Y49996070D01*
X45731120D01*
Y50041560D01*
X45695880D01*
G37*
X45745880D02*
G36*
X45745880Y50041560D02*
Y49996070D01*
X45781120D01*
Y50041560D01*
X45745880D01*
G37*
X45795880D02*
G36*
X45795880Y50041560D02*
Y49996070D01*
X45831120D01*
Y50041560D01*
X45795880D01*
G37*
X45845880D02*
G36*
X45845880Y50041560D02*
Y49996070D01*
X45881120D01*
Y50041560D01*
X45845880D01*
G37*
X45895880D02*
G36*
X45895880Y50041560D02*
Y49996070D01*
X45931120D01*
Y50041560D01*
X45895880D01*
G37*
X45945880D02*
G36*
X45945880Y50041560D02*
Y49996070D01*
X45981120D01*
Y50041560D01*
X45945880D01*
G37*
X45995880D02*
G36*
X45995880Y50041560D02*
Y49996070D01*
X46031120D01*
Y50041560D01*
X45995880D01*
G37*
X46045880D02*
G36*
X46045880Y50041560D02*
Y49996070D01*
X46081120D01*
Y50041560D01*
X46045880D01*
G37*
X46095880D02*
G36*
X46095880Y50041560D02*
Y49996070D01*
X46131120D01*
Y50041560D01*
X46095880D01*
G37*
X46145880D02*
G36*
X46145880Y50041560D02*
Y49996070D01*
X46181120D01*
Y50041560D01*
X46145880D01*
G37*
X46195880D02*
G36*
X46195880Y50041560D02*
Y49996070D01*
X50259990D01*
G75*
G03*
X50213000Y50041560I-4540590J-4643300D01*
G01*
X46775340D01*
Y50002660D01*
X46610580D01*
Y50041560D01*
X46515340D01*
Y50002660D01*
X46350580D01*
Y50041560D01*
X46195880D01*
G37*
X41350680Y50157070D02*
G36*
X41350680Y50157070D02*
G75*
G03*
X41226960Y50041560I4370730J-4805400D01*
G01*
X44782000D01*
Y50138800D01*
X44909000D01*
Y50041560D01*
X45032000D01*
Y50128800D01*
X45159000D01*
Y50041560D01*
X45431120D01*
Y50107690D01*
X45445880D01*
Y50041560D01*
X45481120D01*
Y50107690D01*
X45495880D01*
Y50041560D01*
X45531120D01*
Y50107690D01*
X45545880D01*
Y50041560D01*
X45581120D01*
Y50107690D01*
X45595880D01*
Y50041560D01*
X45631120D01*
Y50107690D01*
X45645880D01*
Y50041560D01*
X45681120D01*
Y50107690D01*
X45695880D01*
Y50041560D01*
X45731120D01*
Y50107690D01*
X45745880D01*
Y50041560D01*
X45781120D01*
Y50107690D01*
X45795880D01*
Y50041560D01*
X45831120D01*
Y50107690D01*
X45845880D01*
Y50041560D01*
X45881120D01*
Y50107690D01*
X45895880D01*
Y50041560D01*
X45931120D01*
Y50107690D01*
X45945880D01*
Y50041560D01*
X45981120D01*
Y50107690D01*
X45995880D01*
Y50041560D01*
X46031120D01*
Y50107690D01*
X46045880D01*
Y50041560D01*
X46081120D01*
Y50107690D01*
X46095880D01*
Y50041560D01*
X46131120D01*
Y50107690D01*
X46145880D01*
Y50041560D01*
X46181120D01*
Y50107690D01*
X46195880D01*
Y50041560D01*
X46350580D01*
Y50117420D01*
X46515340D01*
Y50041560D01*
X46610580D01*
Y50117420D01*
X46775340D01*
Y50041560D01*
X50213000D01*
G75*
G03*
X50089280Y50157070I-4494450J-4689890D01*
G01*
X43695180D01*
Y50115190D01*
X43680420D01*
Y50157070D01*
X43645180D01*
Y50115190D01*
X43630420D01*
Y50157070D01*
X43595180D01*
Y50115190D01*
X43580420D01*
Y50157070D01*
X41350680D01*
G37*
X41445080Y50241260D02*
G36*
X41445080Y50241260D02*
G75*
G03*
X41350680Y50157070I4275000J-4888470D01*
G01*
X43580420D01*
Y50198950D01*
X43595180D01*
Y50157070D01*
X43630420D01*
Y50198950D01*
X43645180D01*
Y50157070D01*
X43680420D01*
Y50198950D01*
X43695180D01*
Y50157070D01*
X50089280D01*
G75*
G03*
X49994880Y50241260I-4369400J-4804280D01*
G01*
X48101580D01*
Y50183380D01*
X47964420D01*
Y50241260D01*
X47651580D01*
Y50188880D01*
X47514420D01*
Y50241260D01*
X46757040D01*
Y50233760D01*
X46624960D01*
Y50241260D01*
X46516040D01*
Y50233760D01*
X46383960D01*
Y50241260D01*
X45159000D01*
Y50237720D01*
X45032000D01*
Y50241260D01*
X41445080D01*
G37*
X41509970Y50297260D02*
G36*
X41509970Y50297260D02*
G75*
G03*
X41445080Y50241260I4211630J-4945820D01*
G01*
X45032000D01*
Y50297260D01*
X44909000D01*
Y50247720D01*
X44782000D01*
Y50297260D01*
X44028500D01*
Y50264220D01*
X43901500D01*
Y50297260D01*
X41509970D01*
G37*
X45159000D02*
G36*
X45159000Y50297260D02*
Y50241260D01*
X46383960D01*
Y50297260D01*
X45159000D01*
G37*
X46516040D02*
G36*
X46516040Y50297260D02*
Y50241260D01*
X46624960D01*
Y50297260D01*
X46516040D01*
G37*
X46757040D02*
G36*
X46757040Y50297260D02*
Y50241260D01*
X47514420D01*
Y50293640D01*
X47651580D01*
Y50241260D01*
X47964420D01*
Y50288140D01*
X48101580D01*
Y50241260D01*
X49994880D01*
G75*
G03*
X49929990Y50297260I-4276520J-4889820D01*
G01*
X46757040D01*
G37*
X41614330Y50384260D02*
G36*
X41614330Y50384260D02*
G75*
G03*
X41509970Y50297260I4108550J-5034460D01*
G01*
X43901500D01*
Y50384260D01*
X43827580D01*
Y50319880D01*
X43690420D01*
Y50384260D01*
X43583580D01*
Y50322880D01*
X43446420D01*
Y50384260D01*
X43321080D01*
Y50331880D01*
X43183920D01*
Y50384260D01*
X41614330D01*
G37*
X44028500D02*
G36*
X44028500Y50384260D02*
Y50297260D01*
X44782000D01*
Y50379800D01*
X44909000D01*
Y50297260D01*
X45032000D01*
Y50369800D01*
X45159000D01*
Y50297260D01*
X46383960D01*
Y50360760D01*
X46516040D01*
Y50297260D01*
X46624960D01*
Y50360760D01*
X46757040D01*
Y50297260D01*
X49929990D01*
G75*
G03*
X49825630Y50384260I-4212910J-4947460D01*
G01*
X48102580D01*
Y50383380D01*
X47965420D01*
Y50384260D01*
X44237580D01*
Y50331380D01*
X44100420D01*
Y50384260D01*
X44028500D01*
G37*
X41685190Y50441260D02*
G36*
X41685190Y50441260D02*
G75*
G03*
X41614330Y50384260I4036650J-5090740D01*
G01*
X43183920D01*
Y50436640D01*
X43321080D01*
Y50384260D01*
X43446420D01*
Y50427640D01*
X43583580D01*
Y50384260D01*
X43690420D01*
Y50424640D01*
X43827580D01*
Y50384260D01*
X43901500D01*
Y50396300D01*
X44028500D01*
Y50384260D01*
X44100420D01*
Y50436140D01*
X44237580D01*
Y50384260D01*
X47965420D01*
Y50441260D01*
X47652580D01*
Y50388880D01*
X47515420D01*
Y50441260D01*
X41685190D01*
G37*
X48102580D02*
G36*
X48102580Y50441260D02*
Y50384260D01*
X49825630D01*
G75*
G03*
X49754770Y50441260I-4107510J-5033740D01*
G01*
X48102580D01*
G37*
X41785920Y50519540D02*
G36*
X41785920Y50519540D02*
G75*
G03*
X41685190Y50441260I3936270J-5169110D01*
G01*
X47515420D01*
Y50493640D01*
X47652580D01*
Y50441260D01*
X47965420D01*
Y50488140D01*
X48102580D01*
Y50441260D01*
X49754770D01*
G75*
G03*
X49654040Y50519540I-4037000J-5090830D01*
G01*
X46756500D01*
Y50456040D01*
X46624420D01*
Y50519540D01*
X46515500D01*
Y50456040D01*
X46383420D01*
Y50519540D01*
X44028500D01*
Y50505220D01*
X43901500D01*
Y50519540D01*
X41785920D01*
G37*
X41872390Y50584260D02*
G36*
X41872390Y50584260D02*
G75*
G03*
X41785920Y50519540I3847740J-5230950D01*
G01*
X43901500D01*
Y50584260D01*
X43828580D01*
Y50519880D01*
X43691420D01*
Y50584260D01*
X43584580D01*
Y50522880D01*
X43447420D01*
Y50584260D01*
X43322080D01*
Y50531880D01*
X43184920D01*
Y50584260D01*
X41872390D01*
G37*
X44028500D02*
G36*
X44028500Y50584260D02*
Y50519540D01*
X46383420D01*
Y50583040D01*
X46515500D01*
Y50519540D01*
X46624420D01*
Y50583040D01*
X46756500D01*
Y50519540D01*
X49654040D01*
G75*
G03*
X49567570Y50584260I-3934210J-5166230D01*
G01*
X44238580D01*
Y50531380D01*
X44101420D01*
Y50584260D01*
X44028500D01*
G37*
X42428120Y50950660D02*
G36*
X42428120Y50950660D02*
G75*
G03*
X41872390Y50584260I3292310J-5598190D01*
G01*
X43184920D01*
Y50636640D01*
X43322080D01*
Y50584260D01*
X43447420D01*
Y50627640D01*
X43584580D01*
Y50584260D01*
X43691420D01*
Y50624640D01*
X43828580D01*
Y50584260D01*
X43901500D01*
Y50637300D01*
X44028500D01*
Y50584260D01*
X44101420D01*
Y50636140D01*
X44238580D01*
Y50584260D01*
X49567570D01*
G75*
G03*
X49011840Y50950660I-3848040J-5231790D01*
G01*
X43724860D01*
X43728550Y50941520D01*
X43705590Y50932250D01*
X43698150Y50950660D01*
X43654750D01*
X43668280Y50917170D01*
X43645320Y50907900D01*
X43628040Y50950660D01*
X43584640D01*
X43608010Y50892820D01*
X43585050Y50883550D01*
X43557940Y50950660D01*
X42428120D01*
G37*
X42555610Y51023710D02*
G36*
X42555610Y51023710D02*
G75*
G03*
X42428120Y50950660I3165640J-5672580D01*
G01*
X43557940D01*
X43534570Y51008500D01*
X43557530Y51017770D01*
X43584640Y50950660D01*
X43628040D01*
X43598530Y51023710D01*
X42555610D01*
G37*
X43625240D02*
G36*
X43625240Y51023710D02*
X43654750Y50950660D01*
X43698150D01*
X43668640Y51023710D01*
X43625240D01*
G37*
X43695350D02*
G36*
X43695350Y51023710D02*
X43724860Y50950660D01*
X49011840D01*
G75*
G03*
X48884350Y51023710I-3293130J-5599530D01*
G01*
X43835550D01*
X43849080Y50990220D01*
X43826120Y50980950D01*
X43808840Y51023710D01*
X43765440D01*
X43788810Y50965870D01*
X43765850Y50956600D01*
X43738740Y51023710D01*
X43695350D01*
G37*
X42555610D02*
G36*
X42555610Y51023710D02*
X43598530D01*
X43594840Y51032850D01*
X43617800Y51042120D01*
X43625240Y51023710D01*
X43668640D01*
X43655110Y51057200D01*
X43678070Y51066470D01*
X43695350Y51023710D01*
X43738740D01*
X43715370Y51081550D01*
X43738330Y51090820D01*
X43765440Y51023710D01*
X43808840D01*
X43775640Y51105900D01*
X43798600Y51115170D01*
X43835550Y51023710D01*
X48884350D01*
G75*
G03*
X45720000Y51846890I-3164440J-5670740D01*
G01*
G75*
G03*
X42555610Y51023710I70J-6494000D01*
G01*
G37*
D02*
D176*
X41509500Y41073060D03*
Y41615460D03*
X41636500Y41073060D03*
Y41615460D03*
X41763500Y41073060D03*
Y41615460D03*
X41890500Y41073060D03*
Y41615460D03*
X49744500Y41690560D03*
Y42232960D03*
X49871500Y41690560D03*
Y42232960D03*
X49998500Y41690560D03*
Y42232960D03*
X50125500Y41690560D03*
Y42232960D03*
D02*
D177*
X41700000Y41344260D03*
X49935000Y41961760D03*
D02*
D178*
X42471000Y42231760D03*
Y43569260D03*
X43321000Y42231760D03*
Y43569260D03*
X48085000Y42231760D03*
X48145000Y43580260D03*
X48935000Y42231760D03*
X48995000Y43580260D03*
D02*
D179*
X41233000Y41320760D03*
Y41561760D03*
X42141500Y40634260D03*
Y40875260D03*
X43965000Y50330260D03*
Y50571260D03*
X44845500Y50072760D03*
Y50313760D03*
X45095500Y50062760D03*
Y50303760D03*
X48136000Y46239260D03*
Y46480260D03*
X48136500Y45771260D03*
Y46012260D03*
X48344000Y46240040D03*
Y46481040D03*
X48346500Y45770260D03*
Y46011260D03*
X49480500Y41690760D03*
Y41931760D03*
X49513000Y40408760D03*
Y40649760D03*
X49894500Y41091760D03*
Y41332760D03*
X51562500Y47125760D03*
Y47366760D03*
D02*
D180*
X40920340Y42060260D03*
Y42518260D03*
X50742160Y42732760D03*
Y43190760D03*
D02*
D181*
X41634840Y42289260D03*
X50027660Y42961760D03*
D02*
D182*
X41699000Y40657760D03*
X41700000Y40857760D03*
X41936000Y40655760D03*
X41937000Y40855760D03*
X43252500Y50384260D03*
X43253500Y50584260D03*
X43515000Y50375260D03*
X43516000Y50575260D03*
X43759000Y50372260D03*
X43760000Y50572260D03*
X44169000Y50383760D03*
X44170000Y50583760D03*
X47583000Y50241260D03*
X47584000Y50441260D03*
X47877000Y46948260D03*
X47878000Y47148260D03*
X48033000Y50235760D03*
X48034000Y50435760D03*
X48240000Y45218760D03*
X48241000Y45418760D03*
X50130000Y41120760D03*
X50131000Y41320760D03*
X50439500D03*
X50440500Y41520760D03*
X51567000Y46695760D03*
X51568000Y46895760D03*
D02*
D183*
X40027500Y44021760D03*
X40050000Y44431760D03*
X40327500Y44021760D03*
X40350000Y44431760D03*
X50815000Y44161760D03*
X50820000Y43761760D03*
X51115000Y44161760D03*
X51120000Y43761760D03*
D02*
D184*
X48602500Y45811260D03*
Y46041260D03*
Y46271260D03*
D02*
D185*
X49232500Y46041260D03*
D02*
D186*
X50322000Y46571760D03*
Y46831760D03*
D02*
D187*
X40593200Y48646470D03*
X40733920Y48504340D03*
X40744700Y48800470D03*
X40869080Y48199180D03*
X40885420Y48658340D03*
X41009800Y48057050D03*
X41692580Y46678180D03*
X41833300Y46536050D03*
X41842700Y46834470D03*
X41983420Y46692340D03*
X41993200Y46982470D03*
X42133920Y46840340D03*
X42273700Y48146470D03*
X42414420Y48004340D03*
X42433700Y48303970D03*
X42574420Y48161840D03*
X42594700Y48457470D03*
X42735420Y48315340D03*
X42752200Y48614970D03*
X42892920Y48472840D03*
D02*
D188*
X46432960Y50060040D03*
X46692960D03*
D02*
D189*
X40968220Y47509490D03*
X41014190Y47463530D03*
X41060150Y47417570D03*
X41106110Y47371600D03*
X41152070Y47325640D03*
X41198030Y47279680D03*
X41244000Y47233720D03*
X41289960Y47187760D03*
X41335920Y47141790D03*
X41381880Y47095830D03*
X41427840Y47049870D03*
X41470270Y48011540D03*
X41473810Y47003910D03*
X41516230Y47965570D03*
X41519770Y46957950D03*
X41562190Y47919610D03*
X41565730Y46911980D03*
X41608160Y47873650D03*
X41654120Y47827690D03*
X41700080Y47781730D03*
X41746040Y47735760D03*
X41792000Y47689800D03*
X41837970Y47643840D03*
X41883930Y47597880D03*
X41929890Y47551920D03*
X41975850Y47505950D03*
X42021810Y47459990D03*
X42067780Y47414030D03*
D02*
D190*
X39664500Y45775260D03*
X39864500Y45774260D03*
X44144500Y48907760D03*
X44344500Y48906760D03*
X47087000Y48868760D03*
X47107000Y49108760D03*
Y49333760D03*
X47287000Y48867760D03*
X47307000Y49107760D03*
Y49332760D03*
X51033000Y47977760D03*
X51233000Y47976760D03*
D02*
D191*
X50734000Y45366760D03*
Y45866760D03*
D02*
D192*
X49671500Y45724260D03*
Y46104260D03*
D02*
D193*
X49950000Y43761760D03*
Y44791760D03*
D02*
D194*
X42880000Y40404760D03*
X43121000D03*
X44344500Y49132260D03*
X44585500D03*
X44591000Y49765760D03*
X44832000D03*
X44984970Y48651500D03*
X44985000Y48872260D03*
X45225970Y48651500D03*
X45226000Y48872260D03*
X46449460Y50519540D03*
X46450000Y50297260D03*
X46690460Y50519540D03*
X46691000Y50297260D03*
D02*
D195*
X40501080Y47498180D03*
X40684920Y47314340D03*
D02*
D196*
X42093000Y47986470D03*
X42263410Y47816050D03*
X42902000Y48771970D03*
X43072410Y48601550D03*
D02*
D197*
X40248290Y48221460D03*
X40390420Y48362180D03*
D02*
D198*
X43099700Y48953560D03*
X43238300Y48814960D03*
D02*
D199*
X44516000Y49337760D03*
Y49577760D03*
X44916000Y49337760D03*
Y49577760D03*
D02*
D200*
X51394500Y44786760D03*
Y45226760D03*
D02*
D201*
X39664500Y45331760D03*
Y45521760D03*
X47876000Y46583260D03*
Y46773260D03*
X47966500Y45197760D03*
Y45387760D03*
D02*
D202*
X40401730Y48040330D03*
X40571430Y48210030D03*
X40684570Y47757490D03*
X40854270Y47927190D03*
D02*
D203*
X49113000Y40228260D03*
Y40658260D03*
D02*
D204*
X45239700Y49092760D03*
Y49142760D03*
Y49192760D03*
Y49242760D03*
Y49292760D03*
Y49342760D03*
Y49392760D03*
Y49442760D03*
Y49492760D03*
Y49542760D03*
Y49592760D03*
Y49642760D03*
Y49692760D03*
Y49742760D03*
Y49792760D03*
Y49842760D03*
X46387300Y49092760D03*
Y49142760D03*
Y49192760D03*
Y49242760D03*
Y49292760D03*
Y49342760D03*
Y49392760D03*
Y49442760D03*
Y49492760D03*
Y49542760D03*
Y49592760D03*
Y49642760D03*
Y49692760D03*
Y49742760D03*
Y49792760D03*
Y49842760D03*
D02*
D205*
X45438500Y48893960D03*
Y50041560D03*
X45488500Y48893960D03*
Y50041560D03*
X45538500Y48893960D03*
Y50041560D03*
X45588500Y48893960D03*
Y50041560D03*
X45638500Y48893960D03*
Y50041560D03*
X45688500Y48893960D03*
Y50041560D03*
X45738500Y48893960D03*
Y50041560D03*
X45788500Y48893960D03*
Y50041560D03*
X45838500Y48893960D03*
Y50041560D03*
X45888500Y48893960D03*
Y50041560D03*
X45938500Y48893960D03*
Y50041560D03*
X45988500Y48893960D03*
Y50041560D03*
X46038500Y48893960D03*
Y50041560D03*
X46088500Y48893960D03*
Y50041560D03*
X46138500Y48893960D03*
Y50041560D03*
X46188500Y48893960D03*
Y50041560D03*
D02*
D206*
X49665000Y46409260D03*
Y46605260D03*
X50907500Y46429260D03*
Y46625260D03*
D02*
D207*
X40680000Y43434260D03*
X41710000D03*
D02*
D208*
X39846000Y43563260D03*
X40286000D03*
D02*
D209*
X42655000Y44568260D03*
X43085000D03*
D02*
D210*
X43571290Y50950660D03*
X43631560Y50975010D03*
X43691830Y50999360D03*
X43752090Y51023710D03*
X43812360Y51048060D03*
D02*
D211*
X43587800Y49996070D03*
Y50157070D03*
X43637800Y49996070D03*
Y50157070D03*
X43687800Y49996070D03*
Y50157070D03*
X0Y0D02*
M02*
