G05
M48
INCH,TZ
FMAT,2
T1C000.01220
T2C000.01614
T3C000.02008
T4C000.03000
T5C000.03189
T6C000.03500
T7C000.03543
T8C000.03937
T9C000.04016
T10C000.04724
T11C000.04921
T12C000.06299
T13C000.12795
%
T001
X1.17765Y2.73478
X1.17962Y2.83321
X1.18169Y3.03006
X1.18257Y2.93360
X1.40620Y2.97614
X1.44242Y2.87870
X1.52903Y2.22712
X1.70521Y2.35409
X1.70521Y2.48303
X1.73671Y2.26748
X1.80659Y2.35409
X1.85699Y1.25841
X1.88138Y2.08607
X1.88631Y2.26452
X1.90500Y2.05655
X1.99458Y1.30742
X1.99557Y1.20722
X1.99557Y1.25841
X2.04596Y0.80742
X2.05461Y2.44434
X2.07943Y1.00250
X2.10305Y2.51748
X2.12667Y1.28400
X2.15030Y0.97100
X2.15206Y2.51649
X2.18061Y1.92693
X2.18159Y2.04110
X2.18651Y2.27535
X2.21112Y2.04208
X2.21210Y1.92693
X2.24163Y1.92693
X2.24261Y2.04110
X2.35699Y1.20842
X2.36486Y0.80565
X2.36683Y0.85742
X2.36683Y0.90742
X2.36683Y0.95742
X2.38139Y1.10606
T002
X1.78887Y1.51944
X1.88828Y1.51944
T003
X0.16288Y1.37348
X0.19360Y1.99287
X0.39910Y1.37348
X0.48867Y1.69730
X0.61894Y1.87741
X0.63729Y0.34592
X0.63729Y1.07919
X1.08217Y1.86954
X1.08217Y1.93056
X1.08217Y1.98568
X1.08217Y2.04080
X1.08217Y2.09592
X1.13455Y1.86954
X1.13455Y1.93056
X1.13455Y1.98568
X1.13455Y2.04080
X1.13455Y2.09592
X1.18650Y1.86954
X1.18650Y1.92859
X1.18847Y1.98568
X1.23965Y1.86954
X1.23965Y1.92859
X1.23965Y1.98765
X1.29083Y1.86954
X1.29083Y1.92859
X1.29083Y1.98765
X1.33807Y1.86954
X1.33807Y1.92859
X1.33807Y1.98765
X1.34004Y2.66580
X1.56742Y2.27929
X1.66191Y0.72811
X1.68631Y2.12574
X1.74556Y1.29277
X1.79084Y2.12476
X1.94734Y1.53519
X1.94734Y1.63155
X2.14439Y0.85742
X2.19163Y1.45645
X2.42589Y0.42179
T004
X0.98100Y0.13242
X0.98100Y0.23242
X1.21722Y0.13242
X1.21722Y0.23242
T005
X0.12056Y0.86549
X0.12351Y0.66481
X0.46603Y1.27732
X0.46603Y1.47732
X0.49752Y0.13824
X0.69634Y0.13824
X0.99359Y1.48174
X0.99556Y1.20222
X1.13138Y0.37348
X1.25048Y2.46433
X1.40600Y3.14817
X1.46603Y0.26718
X1.48100Y2.98500
X1.57431Y1.93480
X1.66191Y1.92496
X1.66289Y1.53815
X1.66584Y1.29011
X2.03219Y0.64838
X2.49733Y1.80311
T006
X0.36565Y2.08834
X1.33513Y1.74189
X1.63219Y0.53489
X1.73219Y0.53489
X1.83219Y0.53489
X1.93219Y0.53489
X2.03219Y0.53489
T007
X0.86880Y2.72199
X0.86880Y2.82199
X0.86880Y2.92199
X0.86880Y3.02199
X0.96880Y2.67199
X0.96880Y2.77199
X0.96880Y2.87199
X0.96880Y2.97199
T008
X0.30067Y1.67269
X2.42589Y0.34699
X2.42589Y0.60289
X2.60305Y0.34699
X2.60305Y0.60289
T009
X0.45896Y2.58557
X0.45896Y2.68557
X0.45896Y3.00841
X0.45896Y3.10841
T010
X1.80658Y2.63037
X1.80658Y2.73037
X1.90658Y2.63037
X1.90658Y2.73037
X2.00658Y2.63037
X2.00658Y2.73037
X2.10658Y2.63037
X2.10658Y2.73037
X2.20658Y2.63037
X2.20658Y2.73037
X2.30658Y2.63037
X2.30658Y2.73037
X2.40658Y2.63037
X2.40658Y2.73037
X2.50658Y2.63037
X2.50658Y2.73037
T011
X0.32036Y0.46639
X0.32036Y0.66639
X0.32036Y0.86639
X0.32036Y1.06639
T012
X0.73888Y2.53793
X0.73888Y3.15604
T013
X0.19634Y0.12840
X0.19733Y3.39808
X0.61880Y2.62199
X0.61880Y3.07199
X2.60579Y0.12741
X2.60776Y3.39808
M30
